M48
;Layer_Color=9474304
;FILE_FORMAT=4:4
METRIC,LZ
;TYPE=PLATED
T05F00S00C0.6000
T07F00S00C0.8000
;TYPE=NON_PLATED
%
G90
G05
T05
G00X00278515Y00997196
M15
G01X00286515
M16
G00X00318815Y00997196
M15
G01X00329815
M16
G00X00318815Y01083596
M15
G01X00329815
M16
G00X00278515Y01083596
M15
G01X00286515
M16
G00X01625465Y01101646
M15
G01Y01090646
M16
G00X01625465Y01141946
M15
G01Y01133946
M16
G00X01711865Y01141946
M15
G01Y01133946
M16
G00X01711865Y01101646
M15
G01Y01090646
M16
T07
G00X00358305Y00884926
M15
G01X00384305
M16
G00X00341305Y00944926
M15
G01Y00918926
M16
G00X00401305Y00947926
M15
G01Y00915926
M16
M17
M30
