G04*
G04 #@! TF.GenerationSoftware,Altium Limited,Altium Designer,24.10.1 (45)*
G04*
G04 Layer_Physical_Order=7*
G04 Layer_Color=8388736*
%FSLAX44Y44*%
%MOMM*%
G71*
G04*
G04 #@! TF.SameCoordinates,98639135-FE56-4FAC-94B5-B9978FB97537*
G04*
G04*
G04 #@! TF.FilePolarity,Positive*
G04*
G01*
G75*
%ADD59C,0.1270*%
%ADD60C,0.3048*%
%ADD61C,0.2032*%
%ADD62C,0.3810*%
%ADD63C,0.2540*%
%ADD64C,0.5080*%
%ADD66C,0.1524*%
%ADD67C,0.6350*%
%ADD68C,0.7620*%
%ADD69C,0.4750*%
%ADD70C,0.3750*%
G04:AMPARAMS|DCode=71|XSize=5.8mm|YSize=2.5mm|CornerRadius=1.25mm|HoleSize=0mm|Usage=FLASHONLY|Rotation=0.000|XOffset=0mm|YOffset=0mm|HoleType=Round|Shape=RoundedRectangle|*
%AMROUNDEDRECTD71*
21,1,5.8000,0.0000,0,0,0.0*
21,1,3.3000,2.5000,0,0,0.0*
1,1,2.5000,1.6500,0.0000*
1,1,2.5000,-1.6500,0.0000*
1,1,2.5000,-1.6500,0.0000*
1,1,2.5000,1.6500,0.0000*
%
%ADD71ROUNDEDRECTD71*%
G04:AMPARAMS|DCode=72|XSize=5.8mm|YSize=2.5mm|CornerRadius=1.25mm|HoleSize=0mm|Usage=FLASHONLY|Rotation=270.000|XOffset=0mm|YOffset=0mm|HoleType=Round|Shape=RoundedRectangle|*
%AMROUNDEDRECTD72*
21,1,5.8000,0.0000,0,0,270.0*
21,1,3.3000,2.5000,0,0,270.0*
1,1,2.5000,0.0000,-1.6500*
1,1,2.5000,0.0000,1.6500*
1,1,2.5000,0.0000,1.6500*
1,1,2.5000,0.0000,-1.6500*
%
%ADD72ROUNDEDRECTD72*%
G04:AMPARAMS|DCode=73|XSize=6.5mm|YSize=2.5mm|CornerRadius=1.25mm|HoleSize=0mm|Usage=FLASHONLY|Rotation=270.000|XOffset=0mm|YOffset=0mm|HoleType=Round|Shape=RoundedRectangle|*
%AMROUNDEDRECTD73*
21,1,6.5000,0.0000,0,0,270.0*
21,1,4.0000,2.5000,0,0,270.0*
1,1,2.5000,0.0000,-2.0000*
1,1,2.5000,0.0000,2.0000*
1,1,2.5000,0.0000,2.0000*
1,1,2.5000,0.0000,-2.0000*
%
%ADD73ROUNDEDRECTD73*%
%ADD74C,2.2000*%
%ADD75C,1.5000*%
%ADD76R,1.5000X1.5000*%
%ADD77C,0.3556*%
%ADD78C,5.3000*%
G04:AMPARAMS|DCode=79|XSize=1mm|YSize=1.8mm|CornerRadius=0.5mm|HoleSize=0mm|Usage=FLASHONLY|Rotation=270.000|XOffset=0mm|YOffset=0mm|HoleType=Round|Shape=RoundedRectangle|*
%AMROUNDEDRECTD79*
21,1,1.0000,0.8000,0,0,270.0*
21,1,0.0000,1.8000,0,0,270.0*
1,1,1.0000,-0.4000,0.0000*
1,1,1.0000,-0.4000,0.0000*
1,1,1.0000,0.4000,0.0000*
1,1,1.0000,0.4000,0.0000*
%
%ADD79ROUNDEDRECTD79*%
G04:AMPARAMS|DCode=80|XSize=1mm|YSize=2.1mm|CornerRadius=0.5mm|HoleSize=0mm|Usage=FLASHONLY|Rotation=270.000|XOffset=0mm|YOffset=0mm|HoleType=Round|Shape=RoundedRectangle|*
%AMROUNDEDRECTD80*
21,1,1.0000,1.1000,0,0,270.0*
21,1,0.0000,2.1000,0,0,270.0*
1,1,1.0000,-0.5500,0.0000*
1,1,1.0000,-0.5500,0.0000*
1,1,1.0000,0.5500,0.0000*
1,1,1.0000,0.5500,0.0000*
%
%ADD80ROUNDEDRECTD80*%
%ADD81C,0.6500*%
%ADD82C,7.0000*%
%ADD83C,0.9000*%
%ADD84R,1.5000X1.5000*%
%ADD85C,0.6000*%
%ADD86C,1.3900*%
%ADD87C,1.7000*%
%ADD88C,1.9000*%
%ADD89C,1.7272*%
%ADD90C,1.2000*%
%ADD91C,1.5700*%
%ADD92R,1.7000X1.7000*%
%ADD93R,1.6764X1.6764*%
%ADD94C,3.2000*%
%ADD95R,1.3900X1.3900*%
%ADD96C,2.4500*%
G04:AMPARAMS|DCode=97|XSize=1mm|YSize=1.8mm|CornerRadius=0.5mm|HoleSize=0mm|Usage=FLASHONLY|Rotation=180.000|XOffset=0mm|YOffset=0mm|HoleType=Round|Shape=RoundedRectangle|*
%AMROUNDEDRECTD97*
21,1,1.0000,0.8000,0,0,180.0*
21,1,0.0000,1.8000,0,0,180.0*
1,1,1.0000,0.0000,0.4000*
1,1,1.0000,0.0000,0.4000*
1,1,1.0000,0.0000,-0.4000*
1,1,1.0000,0.0000,-0.4000*
%
%ADD97ROUNDEDRECTD97*%
G04:AMPARAMS|DCode=98|XSize=1mm|YSize=2.1mm|CornerRadius=0.5mm|HoleSize=0mm|Usage=FLASHONLY|Rotation=180.000|XOffset=0mm|YOffset=0mm|HoleType=Round|Shape=RoundedRectangle|*
%AMROUNDEDRECTD98*
21,1,1.0000,1.1000,0,0,180.0*
21,1,0.0000,2.1000,0,0,180.0*
1,1,1.0000,0.0000,0.5500*
1,1,1.0000,0.0000,0.5500*
1,1,1.0000,0.0000,-0.5500*
1,1,1.0000,0.0000,-0.5500*
%
%ADD98ROUNDEDRECTD98*%
%ADD99C,0.4064*%
%ADD100C,0.6096*%
%ADD101C,1.1430*%
%ADD102C,0.6000*%
%ADD103C,0.5000*%
%ADD104C,0.8890*%
G36*
X972717Y919512D02*
X977927D01*
X978401Y919385D01*
X980240D01*
X980714Y919512D01*
X988952D01*
X989227Y919101D01*
Y917383D01*
X989884Y915796D01*
X991099Y914581D01*
X992686Y913924D01*
X994404D01*
X995991Y914581D01*
X997205Y915796D01*
X997863Y917383D01*
Y919101D01*
X998138Y919512D01*
X1146707D01*
X1180833Y885386D01*
Y818674D01*
X1180980Y817931D01*
X1181401Y817300D01*
X1182730Y815971D01*
X1182925Y815680D01*
X1185925Y812680D01*
X1186555Y812259D01*
X1187298Y812111D01*
X1187855D01*
Y810870D01*
X1187750Y810800D01*
X1186436D01*
X1185222Y810297D01*
X1184365Y809440D01*
X1176171D01*
X1176171Y809440D01*
X1175427Y809292D01*
X1174797Y808871D01*
X1174797Y808871D01*
X1166161Y800235D01*
X1165740Y799605D01*
X1165592Y798862D01*
Y772045D01*
X1165740Y771301D01*
X1165303Y769875D01*
X1165244Y769820D01*
X1165156Y769784D01*
X1164228Y768855D01*
X1163725Y767642D01*
Y766328D01*
X1164228Y765114D01*
X1165085Y764257D01*
Y762629D01*
X1162010Y759555D01*
X1161884Y759607D01*
X1160570D01*
X1160109Y759915D01*
Y759949D01*
X1159607Y761162D01*
X1158678Y762091D01*
X1157464Y762594D01*
X1156151D01*
X1154937Y762091D01*
X1154008Y761162D01*
X1153505Y759949D01*
Y758736D01*
X1152349Y757580D01*
X1150851Y757878D01*
X1150776Y758060D01*
X1150003Y758834D01*
X1149992Y759681D01*
X1150112Y760254D01*
X1150536Y760429D01*
X1151465Y761358D01*
X1151968Y762572D01*
Y763885D01*
X1151465Y765099D01*
X1150536Y766028D01*
X1149323Y766531D01*
X1148009D01*
X1146795Y766028D01*
X1145938Y765171D01*
X1138760D01*
X1138016Y765023D01*
X1137386Y764602D01*
X1127420Y754635D01*
X1105898D01*
X1105372Y755906D01*
X1105564Y756097D01*
X1106067Y757311D01*
Y758625D01*
X1105564Y759838D01*
X1104635Y760767D01*
X1103422Y761270D01*
X1102108D01*
X1100894Y760767D01*
X1099966Y759838D01*
X1099463Y758625D01*
Y757311D01*
X1099713Y756707D01*
X1100100Y755492D01*
X1099171Y754564D01*
X1098669Y753350D01*
Y753153D01*
X1097399Y752393D01*
X1096818Y752634D01*
X1095504D01*
X1094290Y752131D01*
X1093362Y751202D01*
X1093113Y750602D01*
X984862D01*
X954774Y780689D01*
Y802745D01*
X954626Y803488D01*
X954205Y804118D01*
X932949Y825375D01*
X933326Y826793D01*
X933947Y827050D01*
X934767Y827870D01*
X945695D01*
X946589Y826975D01*
X947803Y826473D01*
X949117D01*
X950330Y826975D01*
X951259Y827904D01*
X951762Y829118D01*
Y830432D01*
X951259Y831645D01*
X950330Y832574D01*
X949117Y833077D01*
X947803D01*
X946589Y832574D01*
X945770Y831755D01*
X934842D01*
X933947Y832649D01*
X932734Y833152D01*
X931420D01*
X930206Y832649D01*
X929277Y831720D01*
X929020Y831099D01*
X927601Y830722D01*
X923417Y834906D01*
X922787Y835327D01*
X922044Y835475D01*
X832567D01*
X831719Y836745D01*
X831747Y836813D01*
Y838127D01*
X831244Y839340D01*
X830315Y840269D01*
X829102Y840772D01*
X827788D01*
X826574Y840269D01*
X825646Y839340D01*
X825143Y838127D01*
Y836813D01*
X825171Y836745D01*
X824322Y835475D01*
X816064D01*
X815320Y835327D01*
X814690Y834906D01*
X814690Y834906D01*
X810904Y831120D01*
X804366D01*
X797122Y838363D01*
X797421Y839861D01*
X797829Y840031D01*
X798758Y840959D01*
X799261Y842173D01*
Y843487D01*
X798758Y844700D01*
X797829Y845629D01*
X796616Y846132D01*
X795993D01*
X795111Y847323D01*
X795138Y847386D01*
Y848700D01*
X794635Y849913D01*
X793706Y850842D01*
X792492Y851345D01*
X791179D01*
X789965Y850842D01*
X789036Y849913D01*
X788534Y848700D01*
X787264Y848222D01*
X784996Y850490D01*
X784508Y851183D01*
X785011Y852396D01*
Y853710D01*
X784508Y854923D01*
X783579Y855852D01*
X782366Y856355D01*
X781052D01*
X779838Y855852D01*
X778910Y854923D01*
X778625Y854237D01*
X778561Y854168D01*
X777376Y853731D01*
X777148Y853736D01*
X777138Y853742D01*
X776712Y853827D01*
X765026Y865513D01*
X764396Y865934D01*
X763653Y866082D01*
X735499D01*
X735170Y866532D01*
X735435Y868017D01*
X736364Y868945D01*
X736867Y870159D01*
Y871473D01*
X736364Y872686D01*
X735435Y873615D01*
X734222Y874118D01*
X732908D01*
X731694Y873615D01*
X730766Y872686D01*
X730453Y871932D01*
X729089Y871500D01*
X727263Y873326D01*
Y877348D01*
X727238Y877475D01*
X727263Y877602D01*
Y881767D01*
X733010Y887514D01*
X734222D01*
X735435Y888017D01*
X736364Y888945D01*
X736453Y889160D01*
X737951Y889458D01*
X737966Y889442D01*
X738596Y889021D01*
X739340Y888874D01*
X740837D01*
X741694Y888017D01*
X742908Y887514D01*
X744222D01*
X745435Y888017D01*
X746364Y888945D01*
X746867Y890159D01*
Y891473D01*
X746364Y892686D01*
X745435Y893615D01*
X744222Y894118D01*
X742908D01*
X741694Y893615D01*
X740837Y892758D01*
X740144D01*
X736776Y896126D01*
X736146Y896547D01*
X735512Y896674D01*
X735445Y896792D01*
X735435Y898017D01*
X736364Y898945D01*
X736867Y900159D01*
Y901473D01*
X736364Y902686D01*
X735435Y903615D01*
X734222Y904118D01*
X732908D01*
X731694Y903615D01*
X730766Y902686D01*
X730263Y901473D01*
Y900261D01*
X718867Y888865D01*
X718446Y888235D01*
X718298Y887492D01*
Y876584D01*
X717125Y876098D01*
X707097Y886126D01*
X706467Y886547D01*
X705724Y886695D01*
X704035D01*
X694390Y896340D01*
X694781Y897746D01*
X695435Y898017D01*
X696364Y898945D01*
X696867Y900159D01*
Y901473D01*
X696364Y902686D01*
X695435Y903615D01*
X694222Y904118D01*
X692908D01*
X691694Y903615D01*
X690766Y902686D01*
X690495Y902032D01*
X689090Y901641D01*
X685697Y905034D01*
X675507D01*
Y905248D01*
X675359Y905991D01*
X675035Y906476D01*
X675017Y906871D01*
X675367Y907988D01*
X675435Y908017D01*
X676364Y908945D01*
X676867Y910159D01*
Y911473D01*
X676364Y912686D01*
X675435Y913615D01*
X674222Y914118D01*
X672908D01*
X671694Y913615D01*
X670766Y912686D01*
X669572Y913123D01*
X666569Y916126D01*
X665939Y916547D01*
X665444Y916646D01*
X665227Y917367D01*
X665253Y917941D01*
X665435Y918017D01*
X666364Y918945D01*
X666867Y920159D01*
Y921473D01*
X666364Y922686D01*
X665435Y923615D01*
X664222Y924118D01*
X662908D01*
X661694Y923615D01*
X660766Y922686D01*
X660263Y921473D01*
Y920159D01*
X660766Y918945D01*
X661694Y918017D01*
X661818Y917965D01*
X661566Y916695D01*
X660320D01*
X656863Y920151D01*
X656867Y920159D01*
Y921473D01*
X656364Y922686D01*
X655435Y923615D01*
X654222Y924118D01*
X652908D01*
X652900Y924115D01*
X644549Y932466D01*
X636455D01*
X636364Y932686D01*
X635435Y933615D01*
X634222Y934118D01*
X632908D01*
X631694Y933615D01*
X630765Y932686D01*
X630674Y932466D01*
X626455D01*
X626364Y932686D01*
X625435Y933615D01*
X624222Y934118D01*
X622908D01*
X621694Y933615D01*
X620765Y932686D01*
X620674Y932466D01*
X616455D01*
X616364Y932686D01*
X615435Y933615D01*
X614222Y934118D01*
X612908D01*
X611694Y933615D01*
X610765Y932686D01*
X610674Y932466D01*
X606455D01*
X606364Y932686D01*
X605435Y933615D01*
X604222Y934118D01*
X602908D01*
X601694Y933615D01*
X600765Y932686D01*
X600674Y932466D01*
X596455D01*
X596364Y932686D01*
X595435Y933615D01*
X594222Y934118D01*
X592908D01*
X591694Y933615D01*
X590765Y932686D01*
X590674Y932466D01*
X576455D01*
X576364Y932686D01*
X575435Y933615D01*
X574222Y934118D01*
X572908D01*
X571694Y933615D01*
X571479Y933400D01*
X555395Y949484D01*
Y958000D01*
X555435Y958017D01*
X556364Y958945D01*
X556867Y960159D01*
Y961473D01*
X556364Y962686D01*
X555435Y963615D01*
X555395Y963632D01*
Y977170D01*
X562192Y979373D01*
X569043Y981593D01*
X570263Y980653D01*
Y980159D01*
X570765Y978945D01*
X571694Y978017D01*
X572908Y977514D01*
X574222D01*
X575435Y978017D01*
X576364Y978945D01*
X576867Y980159D01*
Y981473D01*
X576385Y982637D01*
X576367Y982698D01*
X576754Y984092D01*
X582827Y986060D01*
X584323Y987556D01*
X585435Y988017D01*
X586364Y988945D01*
X586825Y990058D01*
X589347Y992580D01*
X590423Y991860D01*
X590263Y991473D01*
Y990159D01*
X590765Y988945D01*
X591694Y988017D01*
X592908Y987514D01*
X594222D01*
X595435Y988017D01*
X596364Y988945D01*
X596867Y990159D01*
Y991473D01*
X596364Y992686D01*
X595435Y993615D01*
X594222Y994118D01*
X592908D01*
X592520Y993957D01*
X591801Y995034D01*
X594323Y997556D01*
X595435Y998017D01*
X596179Y998760D01*
X600951D01*
X601694Y998017D01*
X602908Y997514D01*
X604222D01*
X605435Y998017D01*
X606179Y998760D01*
X610951D01*
X611694Y998017D01*
X612908Y997514D01*
X614222D01*
X615435Y998017D01*
X616179Y998760D01*
X620951D01*
X621694Y998017D01*
X622908Y997514D01*
X624222D01*
X625202Y996559D01*
X625271Y995819D01*
X623571Y994118D01*
X622908D01*
X621694Y993615D01*
X620765Y992686D01*
X620263Y991473D01*
Y990159D01*
X620765Y988945D01*
X621694Y988017D01*
X622908Y987514D01*
X624222D01*
X625435Y988017D01*
X626364Y988945D01*
X626867Y990159D01*
Y990822D01*
X629941Y993896D01*
X630446Y994652D01*
X630624Y995544D01*
Y997226D01*
X631006Y997527D01*
X631894Y997907D01*
X632843Y997514D01*
X634157D01*
X635370Y998017D01*
X636114Y998760D01*
X641194D01*
X641498Y998305D01*
X650701Y989102D01*
X650766Y988945D01*
X651694Y988017D01*
X652908Y987514D01*
X654222D01*
X655435Y988017D01*
X656364Y988945D01*
X656867Y990159D01*
Y991473D01*
X656364Y992686D01*
X655435Y993615D01*
X655279Y993680D01*
X652618Y996340D01*
X652664Y996528D01*
X653241Y997514D01*
X654222D01*
X655435Y998017D01*
X656179Y998760D01*
X660951D01*
X661694Y998017D01*
X662908Y997514D01*
X664222D01*
X665435Y998017D01*
X666179Y998760D01*
X670951D01*
X671694Y998017D01*
X672908Y997514D01*
X674222D01*
X675435Y998017D01*
X676179Y998760D01*
X680951D01*
X681694Y998017D01*
X682908Y997514D01*
X684222D01*
X685435Y998017D01*
X686179Y998760D01*
X690951D01*
X691694Y998017D01*
X692908Y997514D01*
X694222D01*
X695435Y998017D01*
X696179Y998760D01*
X700951D01*
X701694Y998017D01*
X702908Y997514D01*
X704222D01*
X705435Y998017D01*
X706179Y998760D01*
X710951D01*
X711694Y998017D01*
X712908Y997514D01*
X714222D01*
X715435Y998017D01*
X716179Y998760D01*
X720951D01*
X721694Y998017D01*
X722908Y997514D01*
X724222D01*
X725435Y998017D01*
X726179Y998760D01*
X775043D01*
X775377Y998264D01*
X775684Y997490D01*
X775263Y996473D01*
Y995159D01*
X775766Y993945D01*
X776694Y993017D01*
X777908Y992514D01*
X778413D01*
X779335Y992150D01*
X779587Y991340D01*
Y990737D01*
X780089Y989523D01*
X781018Y988595D01*
X782232Y988092D01*
X783546D01*
X784759Y988595D01*
X785688Y989523D01*
X786191Y990737D01*
Y992051D01*
X785688Y993264D01*
X784759Y994193D01*
X783546Y994696D01*
X783040D01*
X782119Y995060D01*
X781867Y995869D01*
Y996473D01*
X781445Y997490D01*
X781753Y998264D01*
X782086Y998760D01*
X789777D01*
X790626Y997490D01*
X790591Y997405D01*
Y996091D01*
X789525Y995344D01*
X788892Y995082D01*
X787963Y994153D01*
X787461Y992940D01*
Y991626D01*
X787963Y990412D01*
X788892Y989483D01*
X790106Y988981D01*
X791420D01*
X792633Y989483D01*
X793562Y990412D01*
X794065Y991626D01*
Y992940D01*
X795130Y993686D01*
X795763Y993949D01*
X796692Y994877D01*
X797195Y996091D01*
Y997405D01*
X797159Y997490D01*
X798008Y998760D01*
X893469D01*
X972717Y919512D01*
D02*
G37*
%LPC*%
G36*
X694222Y994118D02*
X692908D01*
X691694Y993615D01*
X690765Y992686D01*
X690263Y991473D01*
Y990159D01*
X690765Y988945D01*
X691694Y988017D01*
X692908Y987514D01*
X694222D01*
X695435Y988017D01*
X696364Y988945D01*
X696867Y990159D01*
Y991473D01*
X696364Y992686D01*
X695435Y993615D01*
X694222Y994118D01*
D02*
G37*
G36*
X674222D02*
X672908D01*
X671694Y993615D01*
X670766Y992686D01*
X670263Y991473D01*
Y990159D01*
X670766Y988945D01*
X671694Y988017D01*
X672908Y987514D01*
X674222D01*
X675435Y988017D01*
X676364Y988945D01*
X676867Y990159D01*
Y991473D01*
X676364Y992686D01*
X675435Y993615D01*
X674222Y994118D01*
D02*
G37*
G36*
X754222Y994118D02*
X752908D01*
X751694Y993615D01*
X750766Y992686D01*
X750263Y991473D01*
Y990159D01*
X750766Y988945D01*
X751694Y988017D01*
X752908Y987514D01*
X754222D01*
X755435Y988017D01*
X756364Y988945D01*
X756867Y990159D01*
Y991473D01*
X756364Y992686D01*
X755435Y993615D01*
X754222Y994118D01*
D02*
G37*
G36*
X734222D02*
X732908D01*
X731694Y993615D01*
X730766Y992686D01*
X730263Y991473D01*
Y990159D01*
X730766Y988945D01*
X731694Y988017D01*
X732908Y987514D01*
X734222D01*
X735435Y988017D01*
X736364Y988945D01*
X736867Y990159D01*
Y991473D01*
X736364Y992686D01*
X735435Y993615D01*
X734222Y994118D01*
D02*
G37*
G36*
X724222D02*
X722908D01*
X721694Y993615D01*
X720766Y992686D01*
X720263Y991473D01*
Y990159D01*
X720766Y988945D01*
X721694Y988017D01*
X722908Y987514D01*
X724222D01*
X725435Y988017D01*
X726364Y988945D01*
X726867Y990159D01*
Y991473D01*
X726364Y992686D01*
X725435Y993615D01*
X724222Y994118D01*
D02*
G37*
G36*
X714222D02*
X712908D01*
X711694Y993615D01*
X710766Y992686D01*
X710263Y991473D01*
Y990159D01*
X710766Y988945D01*
X711694Y988017D01*
X712908Y987514D01*
X714222D01*
X715435Y988017D01*
X716364Y988945D01*
X716867Y990159D01*
Y991473D01*
X716364Y992686D01*
X715435Y993615D01*
X714222Y994118D01*
D02*
G37*
G36*
X704222D02*
X702908D01*
X701694Y993615D01*
X700766Y992686D01*
X700263Y991473D01*
Y990159D01*
X700766Y988945D01*
X701694Y988017D01*
X702908Y987514D01*
X704222D01*
X705435Y988017D01*
X706364Y988945D01*
X706867Y990159D01*
Y991473D01*
X706364Y992686D01*
X705435Y993615D01*
X704222Y994118D01*
D02*
G37*
G36*
X664222D02*
X662908D01*
X661694Y993615D01*
X660766Y992686D01*
X660263Y991473D01*
Y990159D01*
X660766Y988945D01*
X661694Y988017D01*
X662908Y987514D01*
X664222D01*
X665435Y988017D01*
X666364Y988945D01*
X666867Y990159D01*
Y991473D01*
X666364Y992686D01*
X665435Y993615D01*
X664222Y994118D01*
D02*
G37*
G36*
X634157D02*
X632843D01*
X631629Y993615D01*
X630700Y992686D01*
X630198Y991473D01*
Y990159D01*
X630700Y988945D01*
X631629Y988017D01*
X632843Y987514D01*
X634157D01*
X635370Y988017D01*
X636299Y988945D01*
X636802Y990159D01*
Y991473D01*
X636299Y992686D01*
X635370Y993615D01*
X634157Y994118D01*
D02*
G37*
G36*
X614222D02*
X612908D01*
X611694Y993615D01*
X610765Y992686D01*
X610263Y991473D01*
Y990159D01*
X610765Y988945D01*
X611694Y988017D01*
X612908Y987514D01*
X614222D01*
X615435Y988017D01*
X616364Y988945D01*
X616867Y990159D01*
Y991473D01*
X616364Y992686D01*
X615435Y993615D01*
X614222Y994118D01*
D02*
G37*
G36*
X604222D02*
X602908D01*
X601694Y993615D01*
X600765Y992686D01*
X600263Y991473D01*
Y990159D01*
X600765Y988945D01*
X601694Y988017D01*
X602908Y987514D01*
X604222D01*
X605435Y988017D01*
X606364Y988945D01*
X606867Y990159D01*
Y991473D01*
X606364Y992686D01*
X605435Y993615D01*
X604222Y994118D01*
D02*
G37*
G36*
X834436Y988346D02*
X833122D01*
X831908Y987843D01*
X830980Y986914D01*
X830948Y986840D01*
X830344Y985820D01*
X829131Y986322D01*
X827817D01*
X826603Y985820D01*
X825675Y984891D01*
X824223Y984706D01*
X824022Y984790D01*
X822708D01*
X821494Y984287D01*
X820565Y983358D01*
X820063Y982145D01*
Y980831D01*
X820565Y979617D01*
X821494Y978689D01*
X822708Y978186D01*
X824022D01*
X825235Y978689D01*
X826164Y979617D01*
X827615Y979802D01*
X827817Y979718D01*
X829131D01*
X830344Y980221D01*
X831273Y981150D01*
X831304Y981225D01*
X831908Y982244D01*
X833122Y981742D01*
X834436D01*
X835649Y982244D01*
X836578Y983173D01*
X837081Y984387D01*
Y985701D01*
X836578Y986914D01*
X835649Y987843D01*
X834436Y988346D01*
D02*
G37*
G36*
X795618Y985474D02*
X794304D01*
X793091Y984971D01*
X792162Y984043D01*
X791659Y982829D01*
Y981515D01*
X792162Y980302D01*
X793091Y979373D01*
X794304Y978870D01*
X795618D01*
X796831Y979373D01*
X797760Y980302D01*
X798263Y981515D01*
Y982829D01*
X797760Y984043D01*
X796831Y984971D01*
X795618Y985474D01*
D02*
G37*
G36*
X734222Y984118D02*
X732908D01*
X731694Y983615D01*
X730766Y982686D01*
X730263Y981473D01*
Y980159D01*
X730766Y978945D01*
X731694Y978017D01*
X732908Y977514D01*
X734222D01*
X735435Y978017D01*
X736364Y978945D01*
X736867Y980159D01*
Y981473D01*
X736364Y982686D01*
X735435Y983615D01*
X734222Y984118D01*
D02*
G37*
G36*
X714222D02*
X712908D01*
X711694Y983615D01*
X710766Y982686D01*
X710263Y981473D01*
Y980159D01*
X710766Y978945D01*
X711694Y978017D01*
X712908Y977514D01*
X714222D01*
X715435Y978017D01*
X716364Y978945D01*
X716867Y980159D01*
Y981473D01*
X716364Y982686D01*
X715435Y983615D01*
X714222Y984118D01*
D02*
G37*
G36*
X704222D02*
X702908D01*
X701694Y983615D01*
X700766Y982686D01*
X700263Y981473D01*
Y980159D01*
X700766Y978945D01*
X701694Y978017D01*
X702908Y977514D01*
X704222D01*
X705435Y978017D01*
X706364Y978945D01*
X706867Y980159D01*
Y981473D01*
X706364Y982686D01*
X705435Y983615D01*
X704222Y984118D01*
D02*
G37*
G36*
X694222D02*
X692908D01*
X691694Y983615D01*
X690766Y982686D01*
X690263Y981473D01*
Y980159D01*
X690766Y978945D01*
X691694Y978017D01*
X692908Y977514D01*
X694222D01*
X695435Y978017D01*
X696364Y978945D01*
X696867Y980159D01*
Y981473D01*
X696364Y982686D01*
X695435Y983615D01*
X694222Y984118D01*
D02*
G37*
G36*
X674222D02*
X672908D01*
X671694Y983615D01*
X670766Y982686D01*
X670263Y981473D01*
Y980159D01*
X670766Y978945D01*
X671694Y978017D01*
X672908Y977514D01*
X674222D01*
X675435Y978017D01*
X676364Y978945D01*
X676867Y980159D01*
Y981473D01*
X676364Y982686D01*
X675435Y983615D01*
X674222Y984118D01*
D02*
G37*
G36*
X584222D02*
X582908D01*
X581694Y983615D01*
X580765Y982686D01*
X580263Y981473D01*
Y980159D01*
X580765Y978945D01*
X581694Y978017D01*
X582908Y977514D01*
X584222D01*
X585435Y978017D01*
X586364Y978945D01*
X586867Y980159D01*
Y981473D01*
X586364Y982686D01*
X585435Y983615D01*
X584222Y984118D01*
D02*
G37*
G36*
X798210Y977447D02*
X796896D01*
X795682Y976944D01*
X794753Y976015D01*
X794251Y974802D01*
Y974596D01*
X792981Y974070D01*
X792577Y974473D01*
X791364Y974976D01*
X790050D01*
X788836Y974473D01*
X787907Y973544D01*
X787405Y972331D01*
Y971017D01*
X787907Y969803D01*
X788836Y968875D01*
X790050Y968372D01*
X791364D01*
X792577Y968875D01*
X793506Y969803D01*
X794009Y971017D01*
Y971223D01*
X795279Y971749D01*
X795682Y971346D01*
X796896Y970843D01*
X798210D01*
X799423Y971346D01*
X800352Y972275D01*
X800855Y973488D01*
Y974802D01*
X800352Y976015D01*
X799423Y976944D01*
X798210Y977447D01*
D02*
G37*
G36*
X779222Y978550D02*
X777908D01*
X776694Y978047D01*
X775766Y977119D01*
X775263Y975905D01*
Y974591D01*
X775766Y973378D01*
X776694Y972449D01*
X777908Y971946D01*
X779222D01*
X780435Y972449D01*
X781364Y973378D01*
X781867Y974591D01*
Y975905D01*
X781364Y977119D01*
X780435Y978047D01*
X779222Y978550D01*
D02*
G37*
G36*
X754222Y974118D02*
X752908D01*
X751694Y973615D01*
X750766Y972686D01*
X750263Y971473D01*
Y970159D01*
X750766Y968945D01*
X751694Y968017D01*
X752908Y967514D01*
X754222D01*
X755435Y968017D01*
X756364Y968945D01*
X756867Y970159D01*
Y971473D01*
X756364Y972686D01*
X755435Y973615D01*
X754222Y974118D01*
D02*
G37*
G36*
X654222D02*
X652908D01*
X651694Y973615D01*
X650766Y972686D01*
X650263Y971473D01*
Y970159D01*
X650766Y968945D01*
X651694Y968017D01*
X652908Y967514D01*
X654222D01*
X655435Y968017D01*
X656364Y968945D01*
X656867Y970159D01*
Y971473D01*
X656364Y972686D01*
X655435Y973615D01*
X654222Y974118D01*
D02*
G37*
G36*
X594222D02*
X592908D01*
X591694Y973615D01*
X590765Y972686D01*
X590263Y971473D01*
Y970159D01*
X590765Y968945D01*
X591694Y968017D01*
X592908Y967514D01*
X594222D01*
X595435Y968017D01*
X596364Y968945D01*
X596867Y970159D01*
Y971473D01*
X596364Y972686D01*
X595435Y973615D01*
X594222Y974118D01*
D02*
G37*
G36*
X584222D02*
X582908D01*
X581694Y973615D01*
X580765Y972686D01*
X580263Y971473D01*
Y970159D01*
X580765Y968945D01*
X581694Y968017D01*
X582908Y967514D01*
X584222D01*
X585435Y968017D01*
X586364Y968945D01*
X586867Y970159D01*
Y971473D01*
X586364Y972686D01*
X585435Y973615D01*
X584222Y974118D01*
D02*
G37*
G36*
X574222D02*
X572908D01*
X571694Y973615D01*
X570765Y972686D01*
X570263Y971473D01*
Y970159D01*
X570765Y968945D01*
X571694Y968017D01*
X572908Y967514D01*
X574222D01*
X575435Y968017D01*
X576364Y968945D01*
X576867Y970159D01*
Y971473D01*
X576364Y972686D01*
X575435Y973615D01*
X574222Y974118D01*
D02*
G37*
G36*
X714222Y974118D02*
X712908D01*
X711694Y973615D01*
X710766Y972686D01*
X710263Y971473D01*
Y970159D01*
X710766Y968945D01*
X711694Y968017D01*
X712908Y967514D01*
X714222D01*
X715435Y968017D01*
X716364Y968945D01*
X716867Y970159D01*
Y971473D01*
X716364Y972686D01*
X715435Y973615D01*
X714222Y974118D01*
D02*
G37*
G36*
X704222D02*
X702908D01*
X701694Y973615D01*
X700766Y972686D01*
X700263Y971473D01*
Y970159D01*
X700766Y968945D01*
X701694Y968017D01*
X702908Y967514D01*
X704222D01*
X705435Y968017D01*
X706364Y968945D01*
X706867Y970159D01*
Y971473D01*
X706364Y972686D01*
X705435Y973615D01*
X704222Y974118D01*
D02*
G37*
G36*
X614222D02*
X612908D01*
X611694Y973615D01*
X610765Y972686D01*
X610263Y971473D01*
Y970159D01*
X610765Y968945D01*
X611694Y968017D01*
X612908Y967514D01*
X614222D01*
X615435Y968017D01*
X616364Y968945D01*
X616867Y970159D01*
Y971473D01*
X616364Y972686D01*
X615435Y973615D01*
X614222Y974118D01*
D02*
G37*
G36*
X834126Y976590D02*
X832812D01*
X831598Y976087D01*
X830669Y975158D01*
X830167Y973945D01*
Y973771D01*
X829870Y972623D01*
X828993Y972598D01*
X828550D01*
X827336Y972095D01*
X826407Y971166D01*
X825905Y969953D01*
Y968639D01*
X826407Y967425D01*
X827336Y966497D01*
X828550Y965994D01*
X829864D01*
X831077Y966497D01*
X832006Y967425D01*
X832509Y968639D01*
Y968812D01*
X832805Y969961D01*
X833682Y969986D01*
X834126D01*
X835339Y970489D01*
X836268Y971417D01*
X836771Y972631D01*
Y973945D01*
X836268Y975158D01*
X835339Y976087D01*
X834126Y976590D01*
D02*
G37*
G36*
X714222Y964118D02*
X712908D01*
X711694Y963615D01*
X710766Y962686D01*
X710263Y961473D01*
Y960159D01*
X710766Y958945D01*
X711694Y958017D01*
X712908Y957514D01*
X714222D01*
X715435Y958017D01*
X716364Y958945D01*
X716867Y960159D01*
Y961473D01*
X716364Y962686D01*
X715435Y963615D01*
X714222Y964118D01*
D02*
G37*
G36*
X694222D02*
X692908D01*
X691694Y963615D01*
X690766Y962686D01*
X690263Y961473D01*
Y960159D01*
X690766Y958945D01*
X691694Y958017D01*
X692908Y957514D01*
X694222D01*
X695435Y958017D01*
X696364Y958945D01*
X696867Y960159D01*
Y961473D01*
X696364Y962686D01*
X695435Y963615D01*
X694222Y964118D01*
D02*
G37*
G36*
X674222D02*
X672908D01*
X671694Y963615D01*
X670766Y962686D01*
X670263Y961473D01*
Y960159D01*
X670766Y958945D01*
X671694Y958017D01*
X672908Y957514D01*
X674222D01*
X675435Y958017D01*
X676364Y958945D01*
X676867Y960159D01*
Y961473D01*
X676364Y962686D01*
X675435Y963615D01*
X674222Y964118D01*
D02*
G37*
G36*
X664222D02*
X662908D01*
X661694Y963615D01*
X660766Y962686D01*
X660263Y961473D01*
Y960159D01*
X660766Y958945D01*
X661694Y958017D01*
X662908Y957514D01*
X664222D01*
X665435Y958017D01*
X666364Y958945D01*
X666867Y960159D01*
Y961473D01*
X666364Y962686D01*
X665435Y963615D01*
X664222Y964118D01*
D02*
G37*
G36*
X634157D02*
X632843D01*
X631629Y963615D01*
X630700Y962686D01*
X630198Y961473D01*
Y960159D01*
X630700Y958945D01*
X631629Y958017D01*
X632843Y957514D01*
X634157D01*
X635370Y958017D01*
X636299Y958945D01*
X636802Y960159D01*
Y961473D01*
X636299Y962686D01*
X635370Y963615D01*
X634157Y964118D01*
D02*
G37*
G36*
X574222D02*
X572908D01*
X571694Y963615D01*
X570765Y962686D01*
X570263Y961473D01*
Y960159D01*
X570765Y958945D01*
X571694Y958017D01*
X572908Y957514D01*
X574222D01*
X575435Y958017D01*
X576364Y958945D01*
X576867Y960159D01*
Y961473D01*
X576364Y962686D01*
X575435Y963615D01*
X574222Y964118D01*
D02*
G37*
G36*
X734222Y964118D02*
X732908D01*
X731694Y963615D01*
X730766Y962686D01*
X730263Y961473D01*
Y960159D01*
X730766Y958945D01*
X731694Y958017D01*
X732908Y957514D01*
X734222D01*
X735435Y958017D01*
X736364Y958945D01*
X736867Y960159D01*
Y961473D01*
X736364Y962686D01*
X735435Y963615D01*
X734222Y964118D01*
D02*
G37*
G36*
X704222D02*
X702908D01*
X701694Y963615D01*
X700766Y962686D01*
X700263Y961473D01*
Y960159D01*
X700766Y958945D01*
X701694Y958017D01*
X702908Y957514D01*
X704222D01*
X705435Y958017D01*
X706364Y958945D01*
X706867Y960159D01*
Y961473D01*
X706364Y962686D01*
X705435Y963615D01*
X704222Y964118D01*
D02*
G37*
G36*
X790222Y963118D02*
X788908D01*
X787694Y962615D01*
X786766Y961686D01*
X786263Y960473D01*
Y959159D01*
X786766Y957945D01*
X787694Y957017D01*
X788908Y956514D01*
X790222D01*
X790526Y956640D01*
X791246Y956159D01*
X791749Y954945D01*
X792678Y954016D01*
X793892Y953514D01*
X795205D01*
X796419Y954016D01*
X797348Y954945D01*
X797850Y956159D01*
Y957473D01*
X797348Y958686D01*
X796419Y959615D01*
X795205Y960118D01*
X793892D01*
X793587Y959992D01*
X792867Y960473D01*
X792364Y961686D01*
X791435Y962615D01*
X790222Y963118D01*
D02*
G37*
G36*
X779572Y959898D02*
X778258D01*
X777044Y959395D01*
X776115Y958466D01*
X775613Y957253D01*
Y955939D01*
X776115Y954725D01*
X777044Y953796D01*
X778258Y953294D01*
X779572D01*
X780785Y953796D01*
X781714Y954725D01*
X782217Y955939D01*
Y957253D01*
X781714Y958466D01*
X780785Y959395D01*
X779572Y959898D01*
D02*
G37*
G36*
X754222Y954118D02*
X752908D01*
X751694Y953615D01*
X750766Y952686D01*
X750263Y951473D01*
Y950159D01*
X750766Y948945D01*
X751694Y948017D01*
X752908Y947514D01*
X754222D01*
X755435Y948017D01*
X756364Y948945D01*
X756867Y950159D01*
Y951473D01*
X756364Y952686D01*
X755435Y953615D01*
X754222Y954118D01*
D02*
G37*
G36*
X714222D02*
X712908D01*
X711694Y953615D01*
X710766Y952686D01*
X710263Y951473D01*
Y950159D01*
X710766Y948945D01*
X711694Y948017D01*
X712908Y947514D01*
X714222D01*
X715435Y948017D01*
X716364Y948945D01*
X716867Y950159D01*
Y951473D01*
X716364Y952686D01*
X715435Y953615D01*
X714222Y954118D01*
D02*
G37*
G36*
X704222D02*
X702908D01*
X701694Y953615D01*
X700766Y952686D01*
X700263Y951473D01*
Y950159D01*
X700766Y948945D01*
X701694Y948017D01*
X702908Y947514D01*
X704222D01*
X705435Y948017D01*
X706364Y948945D01*
X706867Y950159D01*
Y951473D01*
X706364Y952686D01*
X705435Y953615D01*
X704222Y954118D01*
D02*
G37*
G36*
X634157D02*
X632843D01*
X631629Y953615D01*
X630700Y952686D01*
X630198Y951473D01*
Y950159D01*
X630700Y948945D01*
X631629Y948017D01*
X632843Y947514D01*
X634157D01*
X635370Y948017D01*
X636299Y948945D01*
X636802Y950159D01*
Y951473D01*
X636299Y952686D01*
X635370Y953615D01*
X634157Y954118D01*
D02*
G37*
G36*
X614222D02*
X612908D01*
X611694Y953615D01*
X610765Y952686D01*
X610263Y951473D01*
Y950159D01*
X610765Y948945D01*
X611694Y948017D01*
X612908Y947514D01*
X614222D01*
X615435Y948017D01*
X616364Y948945D01*
X616867Y950159D01*
Y951473D01*
X616364Y952686D01*
X615435Y953615D01*
X614222Y954118D01*
D02*
G37*
G36*
X594222D02*
X592908D01*
X591694Y953615D01*
X590765Y952686D01*
X590263Y951473D01*
Y950159D01*
X590765Y948945D01*
X591694Y948017D01*
X592908Y947514D01*
X594222D01*
X595435Y948017D01*
X596364Y948945D01*
X596867Y950159D01*
Y951473D01*
X596364Y952686D01*
X595435Y953615D01*
X594222Y954118D01*
D02*
G37*
G36*
X574222D02*
X572908D01*
X571694Y953615D01*
X570765Y952686D01*
X570263Y951473D01*
Y950159D01*
X570765Y948945D01*
X571694Y948017D01*
X572908Y947514D01*
X574222D01*
X575435Y948017D01*
X576364Y948945D01*
X576867Y950159D01*
Y951473D01*
X576364Y952686D01*
X575435Y953615D01*
X574222Y954118D01*
D02*
G37*
G36*
X816656Y952570D02*
X815342D01*
X814128Y952067D01*
X813199Y951138D01*
X812697Y949925D01*
Y948611D01*
X813199Y947397D01*
X814128Y946469D01*
X815342Y945966D01*
X816656D01*
X817869Y946469D01*
X818798Y947397D01*
X819301Y948611D01*
Y949925D01*
X818798Y951138D01*
X817869Y952067D01*
X816656Y952570D01*
D02*
G37*
G36*
X829102Y949738D02*
X827788D01*
X826574Y949235D01*
X825646Y948306D01*
X825143Y947093D01*
Y945779D01*
X825646Y944565D01*
X826574Y943636D01*
X827788Y943134D01*
X828192D01*
X828445Y941864D01*
X827844Y941615D01*
X826916Y940686D01*
X826413Y939473D01*
Y938159D01*
X826916Y936945D01*
X827844Y936016D01*
X829058Y935514D01*
X830372D01*
X831585Y936016D01*
X832514Y936945D01*
X833017Y938159D01*
Y939473D01*
X832514Y940686D01*
X831585Y941615D01*
X830372Y942118D01*
X829967D01*
X829715Y943388D01*
X830315Y943636D01*
X831244Y944565D01*
X831747Y945779D01*
Y947093D01*
X831244Y948306D01*
X830315Y949235D01*
X829102Y949738D01*
D02*
G37*
G36*
X799892Y946690D02*
X798578D01*
X797364Y946187D01*
X796435Y945258D01*
X795933Y944045D01*
Y942731D01*
X796289Y941871D01*
X796648Y940644D01*
X795719Y939715D01*
X795216Y938502D01*
Y937188D01*
X795719Y935975D01*
X796648Y935046D01*
X797861Y934543D01*
X799175D01*
X800388Y935046D01*
X801317Y935975D01*
X801820Y937188D01*
Y938502D01*
X801464Y939362D01*
X801105Y940589D01*
X802034Y941517D01*
X802537Y942731D01*
Y944045D01*
X802034Y945258D01*
X801105Y946187D01*
X799892Y946690D01*
D02*
G37*
G36*
X714222Y934118D02*
X712908D01*
X711694Y933615D01*
X710766Y932686D01*
X710263Y931473D01*
Y930159D01*
X710766Y928945D01*
X711694Y928017D01*
X712908Y927514D01*
X714222D01*
X715435Y928017D01*
X716364Y928945D01*
X716867Y930159D01*
Y931473D01*
X716364Y932686D01*
X715435Y933615D01*
X714222Y934118D01*
D02*
G37*
G36*
X724222Y934118D02*
X722908D01*
X721694Y933615D01*
X720766Y932686D01*
X720263Y931473D01*
Y930159D01*
X720766Y928945D01*
X721694Y928017D01*
X722908Y927514D01*
X724222D01*
X725435Y928017D01*
X726364Y928945D01*
X726867Y930159D01*
Y931473D01*
X726364Y932686D01*
X725435Y933615D01*
X724222Y934118D01*
D02*
G37*
G36*
X694222D02*
X692908D01*
X691694Y933615D01*
X690765Y932686D01*
X690263Y931473D01*
Y930159D01*
X690765Y928945D01*
X691694Y928017D01*
X692908Y927514D01*
X694222D01*
X695435Y928017D01*
X696364Y928945D01*
X696867Y930159D01*
Y931473D01*
X696364Y932686D01*
X695435Y933615D01*
X694222Y934118D01*
D02*
G37*
G36*
X684222D02*
X682908D01*
X681694Y933615D01*
X680766Y932686D01*
X680263Y931473D01*
Y930159D01*
X680766Y928945D01*
X681694Y928017D01*
X682908Y927514D01*
X684222D01*
X685435Y928017D01*
X686364Y928945D01*
X686867Y930159D01*
Y931473D01*
X686364Y932686D01*
X685435Y933615D01*
X684222Y934118D01*
D02*
G37*
G36*
X674222D02*
X672908D01*
X671694Y933615D01*
X670766Y932686D01*
X670263Y931473D01*
Y930159D01*
X670766Y928945D01*
X671694Y928017D01*
X672908Y927514D01*
X674222D01*
X675435Y928017D01*
X676364Y928945D01*
X676867Y930159D01*
Y931473D01*
X676364Y932686D01*
X675435Y933615D01*
X674222Y934118D01*
D02*
G37*
G36*
X664222D02*
X662908D01*
X661694Y933615D01*
X660766Y932686D01*
X660263Y931473D01*
Y930159D01*
X660766Y928945D01*
X661694Y928017D01*
X662908Y927514D01*
X664222D01*
X665435Y928017D01*
X666364Y928945D01*
X666867Y930159D01*
Y931473D01*
X666364Y932686D01*
X665435Y933615D01*
X664222Y934118D01*
D02*
G37*
G36*
X654222D02*
X652908D01*
X651694Y933615D01*
X650765Y932686D01*
X650263Y931473D01*
Y930159D01*
X650765Y928945D01*
X651694Y928017D01*
X652908Y927514D01*
X654222D01*
X655435Y928017D01*
X656364Y928945D01*
X656867Y930159D01*
Y931473D01*
X656364Y932686D01*
X655435Y933615D01*
X654222Y934118D01*
D02*
G37*
G36*
X951224Y930688D02*
X949506D01*
X947919Y930030D01*
X946704Y928816D01*
X946047Y927229D01*
Y925511D01*
X946704Y923924D01*
X947919Y922709D01*
X949506Y922052D01*
X951224D01*
X952811Y922709D01*
X954025Y923924D01*
X954683Y925511D01*
Y927229D01*
X954025Y928816D01*
X952811Y930030D01*
X951224Y930688D01*
D02*
G37*
G36*
X831134Y934244D02*
X829820D01*
X828606Y933741D01*
X827678Y932812D01*
X827175Y931599D01*
Y930285D01*
X827481Y929545D01*
X826877Y928393D01*
X826737Y928275D01*
X826518D01*
X825304Y927772D01*
X824376Y926843D01*
X823873Y925630D01*
Y924316D01*
X824376Y923102D01*
X825304Y922173D01*
X826518Y921671D01*
X827832D01*
X829045Y922173D01*
X829974Y923102D01*
X830477Y924316D01*
Y925630D01*
X830170Y926370D01*
X830775Y927522D01*
X830914Y927640D01*
X831134D01*
X832347Y928142D01*
X833276Y929071D01*
X833779Y930285D01*
Y931599D01*
X833276Y932812D01*
X832347Y933741D01*
X831134Y934244D01*
D02*
G37*
G36*
X794132Y934359D02*
X792818D01*
X791604Y933856D01*
X790676Y932927D01*
X790173Y931714D01*
Y930400D01*
X790676Y929187D01*
X791604Y928258D01*
X792818Y927755D01*
X792887D01*
X793995Y926935D01*
X794060Y926692D01*
X793504Y925690D01*
X792400Y925232D01*
X791471Y924303D01*
X790968Y923090D01*
Y921776D01*
X791471Y920562D01*
X792400Y919633D01*
X793613Y919131D01*
X794927D01*
X796140Y919633D01*
X797069Y920562D01*
X797572Y921776D01*
Y923090D01*
X797492Y923283D01*
X798095Y924185D01*
X799309Y924688D01*
X800238Y925617D01*
X800740Y926831D01*
Y928144D01*
X800238Y929358D01*
X799309Y930287D01*
X798095Y930789D01*
X798026D01*
X796777Y931714D01*
X796674Y931963D01*
X796274Y932927D01*
X795345Y933856D01*
X794132Y934359D01*
D02*
G37*
G36*
X764078Y924338D02*
X762764D01*
X761550Y923835D01*
X760621Y922906D01*
X760119Y921693D01*
Y920379D01*
X760621Y919165D01*
X761550Y918236D01*
X762764Y917734D01*
X764078D01*
X765291Y918236D01*
X766220Y919165D01*
X766723Y920379D01*
Y921693D01*
X766220Y922906D01*
X765291Y923835D01*
X764078Y924338D01*
D02*
G37*
G36*
X744222Y924118D02*
X742908D01*
X741694Y923615D01*
X740766Y922686D01*
X740263Y921473D01*
Y920159D01*
X740766Y918945D01*
X741694Y918017D01*
X742908Y917514D01*
X744222D01*
X745435Y918017D01*
X746364Y918945D01*
X746867Y920159D01*
Y921473D01*
X746364Y922686D01*
X745435Y923615D01*
X744222Y924118D01*
D02*
G37*
G36*
X694222Y924118D02*
X692908D01*
X691694Y923615D01*
X690765Y922686D01*
X690263Y921473D01*
Y920159D01*
X690765Y918945D01*
X691694Y918017D01*
X692908Y917514D01*
X694222D01*
X695435Y918017D01*
X696364Y918945D01*
X696867Y920159D01*
Y921473D01*
X696364Y922686D01*
X695435Y923615D01*
X694222Y924118D01*
D02*
G37*
G36*
X684222D02*
X682908D01*
X681694Y923615D01*
X680766Y922686D01*
X680263Y921473D01*
Y920159D01*
X680766Y918945D01*
X681694Y918017D01*
X682908Y917514D01*
X684222D01*
X685435Y918017D01*
X686364Y918945D01*
X686867Y920159D01*
Y921473D01*
X686364Y922686D01*
X685435Y923615D01*
X684222Y924118D01*
D02*
G37*
G36*
X674222D02*
X672908D01*
X671694Y923615D01*
X670766Y922686D01*
X670263Y921473D01*
Y920159D01*
X670766Y918945D01*
X671694Y918017D01*
X672908Y917514D01*
X674222D01*
X675435Y918017D01*
X676364Y918945D01*
X676867Y920159D01*
Y921473D01*
X676364Y922686D01*
X675435Y923615D01*
X674222Y924118D01*
D02*
G37*
G36*
X796082Y912527D02*
X794768D01*
X793554Y912024D01*
X792626Y911095D01*
X792123Y909882D01*
Y909214D01*
X790945Y908595D01*
X789732Y909098D01*
X788418D01*
X787204Y908595D01*
X786275Y907666D01*
X785773Y906453D01*
Y905139D01*
X786275Y903925D01*
X787204Y902997D01*
X788418Y902494D01*
X789732D01*
X790945Y902997D01*
X791874Y903925D01*
X792377Y905139D01*
Y905807D01*
X793554Y906425D01*
X794768Y905923D01*
X796082D01*
X797295Y906425D01*
X798224Y907354D01*
X798727Y908568D01*
Y909882D01*
X798224Y911095D01*
X797295Y912024D01*
X796082Y912527D01*
D02*
G37*
G36*
X724222Y914118D02*
X722908D01*
X721694Y913615D01*
X720766Y912686D01*
X720263Y911473D01*
Y910159D01*
X720766Y908945D01*
X721694Y908017D01*
X722908Y907514D01*
X724222D01*
X725435Y908017D01*
X726364Y908945D01*
X726867Y910159D01*
Y911473D01*
X726364Y912686D01*
X725435Y913615D01*
X724222Y914118D01*
D02*
G37*
G36*
X714222Y914118D02*
X712908D01*
X711694Y913615D01*
X710766Y912686D01*
X710263Y911473D01*
Y910159D01*
X710766Y908945D01*
X711694Y908017D01*
X712908Y907514D01*
X714222D01*
X715435Y908017D01*
X716364Y908945D01*
X716867Y910159D01*
Y911473D01*
X716364Y912686D01*
X715435Y913615D01*
X714222Y914118D01*
D02*
G37*
G36*
X704222D02*
X702908D01*
X701694Y913615D01*
X700766Y912686D01*
X700263Y911473D01*
Y910159D01*
X700766Y908945D01*
X701694Y908017D01*
X702908Y907514D01*
X704222D01*
X705435Y908017D01*
X706364Y908945D01*
X706867Y910159D01*
Y911473D01*
X706364Y912686D01*
X705435Y913615D01*
X704222Y914118D01*
D02*
G37*
G36*
X694222D02*
X692908D01*
X691694Y913615D01*
X690765Y912686D01*
X690263Y911473D01*
Y910159D01*
X690765Y908945D01*
X691694Y908017D01*
X692908Y907514D01*
X694222D01*
X695435Y908017D01*
X696364Y908945D01*
X696867Y910159D01*
Y911473D01*
X696364Y912686D01*
X695435Y913615D01*
X694222Y914118D01*
D02*
G37*
G36*
X684222D02*
X682908D01*
X681694Y913615D01*
X680766Y912686D01*
X680263Y911473D01*
Y910159D01*
X680766Y908945D01*
X681694Y908017D01*
X682908Y907514D01*
X684222D01*
X685435Y908017D01*
X686364Y908945D01*
X686867Y910159D01*
Y911473D01*
X686364Y912686D01*
X685435Y913615D01*
X684222Y914118D01*
D02*
G37*
G36*
X826562Y915321D02*
X825248D01*
X824034Y914818D01*
X823105Y913889D01*
X822603Y912676D01*
Y911362D01*
X823105Y910148D01*
X824034Y909220D01*
X825248Y908717D01*
X826562D01*
X826726Y908785D01*
X827557Y907954D01*
X827425Y906921D01*
X826288Y906261D01*
X825673Y906516D01*
X824359D01*
X823145Y906014D01*
X822216Y905085D01*
X821714Y903871D01*
Y902558D01*
X822216Y901344D01*
X823145Y900415D01*
X824359Y899912D01*
X825673D01*
X826886Y900415D01*
X827815Y901344D01*
X828318Y902558D01*
Y903418D01*
X828483Y903608D01*
X829348Y904161D01*
X829491Y904202D01*
X830341Y903849D01*
X831655D01*
X832869Y904352D01*
X833798Y905281D01*
X834300Y906495D01*
Y907259D01*
X834392Y907320D01*
X835706D01*
X836919Y907822D01*
X837848Y908751D01*
X838351Y909965D01*
Y911279D01*
X837848Y912492D01*
X836919Y913421D01*
X835706Y913924D01*
X834392D01*
X833178Y913421D01*
X832250Y912492D01*
X831747Y911279D01*
Y910515D01*
X831655Y910453D01*
X830341D01*
X830177Y910385D01*
X829205Y911357D01*
X829207Y911362D01*
Y912676D01*
X828704Y913889D01*
X827775Y914818D01*
X826562Y915321D01*
D02*
G37*
G36*
X778810Y909098D02*
X777496D01*
X776282Y908595D01*
X775353Y907666D01*
X774851Y906453D01*
Y905139D01*
X775353Y903925D01*
X776282Y902997D01*
X777496Y902494D01*
X778810D01*
X780023Y902997D01*
X780952Y903925D01*
X781455Y905139D01*
Y906453D01*
X780952Y907666D01*
X780023Y908595D01*
X778810Y909098D01*
D02*
G37*
G36*
X948578Y910464D02*
X946860D01*
X945273Y909807D01*
X944059Y908592D01*
X943401Y907005D01*
Y905287D01*
X944059Y903700D01*
X945273Y902485D01*
X946860Y901828D01*
X948578D01*
X950165Y902485D01*
X951380Y903700D01*
X952037Y905287D01*
Y907005D01*
X951380Y908592D01*
X950165Y909807D01*
X948578Y910464D01*
D02*
G37*
G36*
X705013Y904909D02*
X703699D01*
X702486Y904406D01*
X701557Y903477D01*
X701054Y902264D01*
Y900950D01*
X701557Y899737D01*
X702486Y898808D01*
X703699Y898305D01*
X705013D01*
X706227Y898808D01*
X707155Y899737D01*
X707658Y900950D01*
Y902264D01*
X707155Y903477D01*
X706227Y904406D01*
X705013Y904909D01*
D02*
G37*
G36*
X744222Y904118D02*
X742908D01*
X741694Y903615D01*
X740766Y902686D01*
X740263Y901473D01*
Y900159D01*
X740766Y898945D01*
X741694Y898017D01*
X742908Y897514D01*
X744222D01*
X745435Y898017D01*
X746364Y898945D01*
X746867Y900159D01*
Y901473D01*
X746364Y902686D01*
X745435Y903615D01*
X744222Y904118D01*
D02*
G37*
G36*
X796082Y903002D02*
X794768D01*
X793554Y902499D01*
X792626Y901570D01*
X792123Y900357D01*
Y899043D01*
X792626Y897829D01*
X793554Y896900D01*
X794768Y896398D01*
X796082D01*
X797295Y896900D01*
X798224Y897829D01*
X798727Y899043D01*
Y900357D01*
X798224Y901570D01*
X797295Y902499D01*
X796082Y903002D01*
D02*
G37*
G36*
X831989Y900582D02*
X830675D01*
X829462Y900079D01*
X828533Y899150D01*
X828030Y897937D01*
Y896623D01*
X828533Y895409D01*
X829462Y894481D01*
X830675Y893978D01*
X831989D01*
X833203Y894481D01*
X834131Y895409D01*
X834634Y896623D01*
Y897937D01*
X834131Y899150D01*
X833203Y900079D01*
X831989Y900582D01*
D02*
G37*
G36*
X964328Y905533D02*
X963015D01*
X961801Y905030D01*
X960872Y904101D01*
X960370Y902887D01*
Y901574D01*
X960872Y900360D01*
X961801Y899431D01*
X963015Y898929D01*
X964328D01*
X965433Y898103D01*
X965600Y897702D01*
X966528Y896774D01*
X967742Y896271D01*
X969056D01*
X969669Y896525D01*
X970936Y895786D01*
X970939Y895781D01*
Y895487D01*
X971441Y894273D01*
X972370Y893344D01*
X973584Y892842D01*
X974898D01*
X976111Y893344D01*
X977040Y894273D01*
X977543Y895487D01*
Y896801D01*
X977040Y898014D01*
X976111Y898943D01*
X974898Y899446D01*
X973584D01*
X972971Y899192D01*
X971704Y899931D01*
X971701Y899936D01*
Y900230D01*
X971198Y901443D01*
X970269Y902372D01*
X969056Y902875D01*
X967742D01*
X966637Y903700D01*
X966471Y904101D01*
X965542Y905030D01*
X964328Y905533D01*
D02*
G37*
G36*
X789379Y898585D02*
X788065D01*
X786852Y898082D01*
X785923Y897153D01*
X785420Y895940D01*
Y894626D01*
X785923Y893412D01*
X786852Y892484D01*
X788065Y891981D01*
X789379D01*
X790592Y892484D01*
X791521Y893412D01*
X792024Y894626D01*
Y895940D01*
X791521Y897153D01*
X790592Y898082D01*
X789379Y898585D01*
D02*
G37*
G36*
X955340Y895128D02*
X954026D01*
X952812Y894625D01*
X951883Y893696D01*
X951381Y892483D01*
Y891169D01*
X951883Y889955D01*
X952812Y889026D01*
X954026Y888524D01*
X955340D01*
X956553Y889026D01*
X957482Y889955D01*
X957985Y891169D01*
Y892483D01*
X957482Y893696D01*
X956553Y894625D01*
X955340Y895128D01*
D02*
G37*
G36*
X764222Y894118D02*
X762908D01*
X761694Y893615D01*
X760766Y892686D01*
X760263Y891473D01*
Y890159D01*
X760766Y888945D01*
X761694Y888017D01*
X762908Y887514D01*
X764222D01*
X765435Y888017D01*
X766364Y888945D01*
X766867Y890159D01*
Y891473D01*
X766364Y892686D01*
X765435Y893615D01*
X764222Y894118D01*
D02*
G37*
G36*
X714222D02*
X712908D01*
X711694Y893615D01*
X710766Y892686D01*
X710263Y891473D01*
Y890159D01*
X710766Y888945D01*
X711694Y888017D01*
X712908Y887514D01*
X714222D01*
X715435Y888017D01*
X716364Y888945D01*
X716867Y890159D01*
Y891473D01*
X716364Y892686D01*
X715435Y893615D01*
X714222Y894118D01*
D02*
G37*
G36*
X817164Y893604D02*
X815850D01*
X814636Y893101D01*
X813708Y892172D01*
X813205Y890959D01*
Y889645D01*
X813708Y888431D01*
X814636Y887503D01*
X815850Y887000D01*
X817164D01*
X818377Y887503D01*
X819306Y888431D01*
X819809Y889645D01*
Y890959D01*
X819306Y892172D01*
X818377Y893101D01*
X817164Y893604D01*
D02*
G37*
G36*
X779231Y889372D02*
X777917D01*
X776704Y888870D01*
X775775Y887941D01*
X775272Y886727D01*
Y885414D01*
X775775Y884200D01*
X776704Y883271D01*
X777917Y882768D01*
X779231D01*
X780444Y883271D01*
X781373Y884200D01*
X781876Y885414D01*
Y886727D01*
X781373Y887941D01*
X780444Y888870D01*
X779231Y889372D01*
D02*
G37*
G36*
X979724Y889286D02*
X978410D01*
X977196Y888783D01*
X976267Y887854D01*
X975765Y886641D01*
Y885327D01*
X976267Y884113D01*
X977196Y883185D01*
X978410Y882682D01*
X979724D01*
X980937Y883185D01*
X981866Y884113D01*
X982369Y885327D01*
Y886641D01*
X981866Y887854D01*
X980937Y888783D01*
X979724Y889286D01*
D02*
G37*
G36*
X796082Y887508D02*
X794768D01*
X793554Y887005D01*
X792626Y886076D01*
X792123Y884863D01*
Y883549D01*
X792626Y882335D01*
X793554Y881406D01*
X794768Y880904D01*
X796082D01*
X797295Y881406D01*
X798224Y882335D01*
X798727Y883549D01*
Y884863D01*
X798224Y886076D01*
X797295Y887005D01*
X796082Y887508D01*
D02*
G37*
G36*
X953510Y886746D02*
X951792D01*
X950205Y886088D01*
X948990Y884874D01*
X948333Y883287D01*
Y881569D01*
X948990Y879982D01*
X950205Y878767D01*
X951792Y878110D01*
X953510D01*
X955097Y878767D01*
X956311Y879982D01*
X956969Y881569D01*
Y883287D01*
X956311Y884874D01*
X955097Y886088D01*
X953510Y886746D01*
D02*
G37*
G36*
X734222Y884118D02*
X732908D01*
X731694Y883615D01*
X730766Y882686D01*
X730263Y881473D01*
Y880159D01*
X730766Y878945D01*
X731694Y878017D01*
X732908Y877514D01*
X734222D01*
X735435Y878017D01*
X736364Y878945D01*
X736867Y880159D01*
Y881473D01*
X736364Y882686D01*
X735435Y883615D01*
X734222Y884118D01*
D02*
G37*
G36*
X763443Y884118D02*
X762129D01*
X760915Y883615D01*
X759986Y882686D01*
X759484Y881473D01*
Y880159D01*
X759986Y878945D01*
X760915Y878017D01*
X762129Y877514D01*
X763443D01*
X764656Y878017D01*
X765585Y878945D01*
X766088Y880159D01*
Y881473D01*
X765585Y882686D01*
X764656Y883615D01*
X763443Y884118D01*
D02*
G37*
G36*
X754222D02*
X752908D01*
X751694Y883615D01*
X750766Y882686D01*
X750263Y881473D01*
Y880159D01*
X750766Y878945D01*
X751694Y878017D01*
X752908Y877514D01*
X754222D01*
X755435Y878017D01*
X756364Y878945D01*
X756867Y880159D01*
Y881473D01*
X756364Y882686D01*
X755435Y883615D01*
X754222Y884118D01*
D02*
G37*
G36*
X744222D02*
X742908D01*
X741694Y883615D01*
X740765Y882686D01*
X740263Y881473D01*
Y880159D01*
X740765Y878945D01*
X741694Y878017D01*
X742908Y877514D01*
X744222D01*
X745435Y878017D01*
X746364Y878945D01*
X746867Y880159D01*
Y881473D01*
X746364Y882686D01*
X745435Y883615D01*
X744222Y884118D01*
D02*
G37*
G36*
X1167048Y881759D02*
X1165735D01*
X1164521Y881256D01*
X1163592Y880328D01*
X1163090Y879114D01*
Y877942D01*
X1162009D01*
X1160795Y877440D01*
X1159866Y876511D01*
X1159364Y875297D01*
Y873984D01*
X1159866Y872770D01*
X1160795Y871841D01*
X1162009Y871338D01*
X1163322D01*
X1164536Y871841D01*
X1165465Y872770D01*
X1165968Y873984D01*
Y875155D01*
X1167048D01*
X1168262Y875658D01*
X1169191Y876587D01*
X1169694Y877800D01*
Y879114D01*
X1169191Y880328D01*
X1168262Y881256D01*
X1167048Y881759D01*
D02*
G37*
G36*
X763976Y874118D02*
X762663D01*
X761449Y873615D01*
X760520Y872686D01*
X760018Y871473D01*
Y870159D01*
X760520Y868945D01*
X761449Y868017D01*
X762663Y867514D01*
X763976D01*
X765190Y868017D01*
X766119Y868945D01*
X766622Y870159D01*
Y871473D01*
X766119Y872686D01*
X765190Y873615D01*
X763976Y874118D01*
D02*
G37*
G36*
X754222Y874118D02*
X752908D01*
X751694Y873615D01*
X750766Y872686D01*
X750263Y871473D01*
Y870159D01*
X750766Y868945D01*
X751694Y868017D01*
X752908Y867514D01*
X754222D01*
X755435Y868017D01*
X756364Y868945D01*
X756867Y870159D01*
Y871473D01*
X756364Y872686D01*
X755435Y873615D01*
X754222Y874118D01*
D02*
G37*
G36*
X744222Y874118D02*
X742908D01*
X741694Y873615D01*
X740765Y872686D01*
X740263Y871473D01*
Y870159D01*
X740765Y868945D01*
X741694Y868017D01*
X742908Y867514D01*
X744222D01*
X745435Y868017D01*
X746364Y868945D01*
X746867Y870159D01*
Y871473D01*
X746364Y872686D01*
X745435Y873615D01*
X744222Y874118D01*
D02*
G37*
G36*
X796147Y873822D02*
X794833D01*
X793620Y873320D01*
X792691Y872391D01*
X792188Y871177D01*
Y869864D01*
X792691Y868650D01*
X793620Y867721D01*
X794833Y867218D01*
X796147D01*
X797361Y867721D01*
X798289Y868650D01*
X798792Y869864D01*
Y871177D01*
X798289Y872391D01*
X797361Y873320D01*
X796147Y873822D01*
D02*
G37*
G36*
X829737Y889746D02*
X828423D01*
X827209Y889244D01*
X826281Y888315D01*
X825778Y887101D01*
Y885788D01*
X826117Y884968D01*
X825608Y883924D01*
X825373Y883698D01*
X825248D01*
X824034Y883195D01*
X823105Y882266D01*
X822603Y881053D01*
Y879739D01*
X823105Y878525D01*
X824034Y877597D01*
X825248Y877094D01*
X826020D01*
X826545Y875824D01*
X826400Y875678D01*
X825897Y874464D01*
Y873151D01*
X826400Y871937D01*
X827328Y871008D01*
X828081Y870696D01*
X828106Y869332D01*
X827948Y869267D01*
X827019Y868338D01*
X826516Y867124D01*
Y865811D01*
X827019Y864597D01*
X827948Y863668D01*
X829162Y863166D01*
X830475D01*
X831689Y863668D01*
X832618Y864597D01*
X833120Y865811D01*
Y867124D01*
X832618Y868338D01*
X831689Y869267D01*
X830937Y869578D01*
X830912Y870943D01*
X831069Y871008D01*
X831998Y871937D01*
X832501Y873151D01*
Y874464D01*
X831998Y875678D01*
X831069Y876607D01*
X829856Y877109D01*
X829084D01*
X828558Y878379D01*
X828704Y878525D01*
X829207Y879739D01*
Y881053D01*
X828867Y881872D01*
X829377Y882916D01*
X829611Y883142D01*
X829737D01*
X830950Y883645D01*
X831879Y884574D01*
X832382Y885788D01*
Y887101D01*
X831879Y888315D01*
X830950Y889244D01*
X829737Y889746D01*
D02*
G37*
G36*
X1000306Y876586D02*
X998467D01*
X996691Y876110D01*
X995098Y875190D01*
X993797Y873890D01*
X992878Y872297D01*
X992402Y870520D01*
Y868681D01*
X992878Y866905D01*
X993797Y865312D01*
X995098Y864011D01*
X996691Y863092D01*
X998467Y862616D01*
X1000306D01*
X1002083Y863092D01*
X1003676Y864011D01*
X1004976Y865312D01*
X1005896Y866905D01*
X1006372Y868681D01*
Y870520D01*
X1005896Y872297D01*
X1004976Y873890D01*
X1003676Y875190D01*
X1002083Y876110D01*
X1000306Y876586D01*
D02*
G37*
G36*
X808782Y865410D02*
X807468D01*
X806254Y864907D01*
X805325Y863978D01*
X804823Y862765D01*
Y861451D01*
X805325Y860237D01*
X806254Y859308D01*
X807468Y858806D01*
X808782D01*
X809995Y859308D01*
X810924Y860237D01*
X811427Y861451D01*
Y862765D01*
X810924Y863978D01*
X809995Y864907D01*
X808782Y865410D01*
D02*
G37*
G36*
X783255Y870166D02*
X781941D01*
X780727Y869663D01*
X779799Y868734D01*
X779296Y867521D01*
Y866207D01*
X779799Y864994D01*
X780727Y864065D01*
X780736Y864021D01*
X780125Y863410D01*
X779622Y862196D01*
Y860883D01*
X780125Y859669D01*
X781054Y858740D01*
X782267Y858238D01*
X783581D01*
X784794Y858740D01*
X785723Y859669D01*
X786226Y860883D01*
Y862196D01*
X785723Y863410D01*
X784794Y864339D01*
X784786Y864382D01*
X785397Y864994D01*
X785900Y866207D01*
Y867521D01*
X785397Y868734D01*
X784468Y869663D01*
X783255Y870166D01*
D02*
G37*
G36*
X793995Y862362D02*
X792681D01*
X791468Y861859D01*
X790539Y860930D01*
X790036Y859717D01*
Y858403D01*
X790539Y857189D01*
X791468Y856261D01*
X792681Y855758D01*
X793995D01*
X795208Y856261D01*
X796137Y857189D01*
X796640Y858403D01*
Y859717D01*
X796137Y860930D01*
X795208Y861859D01*
X793995Y862362D01*
D02*
G37*
G36*
X958499Y862525D02*
X956781D01*
X955194Y861868D01*
X953980Y860653D01*
X953322Y859066D01*
Y857348D01*
X953980Y855761D01*
X955194Y854547D01*
X956781Y853889D01*
X958499D01*
X960086Y854547D01*
X961301Y855761D01*
X961958Y857348D01*
Y859066D01*
X961301Y860653D01*
X960086Y861868D01*
X958499Y862525D01*
D02*
G37*
G36*
X828340Y860076D02*
X827026D01*
X825812Y859573D01*
X824883Y858644D01*
X824381Y857431D01*
Y856117D01*
X824883Y854903D01*
X825812Y853975D01*
X827026Y853472D01*
X828340D01*
X829553Y853975D01*
X830482Y854903D01*
X830985Y856117D01*
Y857431D01*
X830482Y858644D01*
X829553Y859573D01*
X828340Y860076D01*
D02*
G37*
G36*
X829102Y850678D02*
X827788D01*
X826574Y850175D01*
X825646Y849246D01*
X825143Y848033D01*
Y846719D01*
X825646Y845505D01*
X826574Y844576D01*
X827788Y844074D01*
X829102D01*
X830315Y844576D01*
X831244Y845505D01*
X831747Y846719D01*
Y848033D01*
X831244Y849246D01*
X830315Y850175D01*
X829102Y850678D01*
D02*
G37*
G36*
X998419Y857010D02*
X996580D01*
X994804Y856534D01*
X993211Y855614D01*
X991910Y854314D01*
X990991Y852721D01*
X990515Y850944D01*
Y849105D01*
X990991Y847328D01*
X991910Y845736D01*
X993211Y844435D01*
X994804Y843516D01*
X996580Y843040D01*
X998419D01*
X1000196Y843516D01*
X1001789Y844435D01*
X1003089Y845736D01*
X1004009Y847328D01*
X1004485Y849105D01*
Y850944D01*
X1004009Y852721D01*
X1003089Y854314D01*
X1001789Y855614D01*
X1000196Y856534D01*
X998419Y857010D01*
D02*
G37*
G36*
X836722Y846931D02*
X835408D01*
X834194Y846429D01*
X833266Y845500D01*
X832763Y844286D01*
Y842972D01*
X833266Y841759D01*
X834194Y840830D01*
X835408Y840327D01*
X836722D01*
X837935Y840830D01*
X838864Y841759D01*
X839367Y842972D01*
Y844286D01*
X838864Y845500D01*
X837935Y846429D01*
X836722Y846931D01*
D02*
G37*
G36*
X926892Y843058D02*
X925578D01*
X924364Y842555D01*
X923436Y841626D01*
X922933Y840413D01*
Y839099D01*
X923436Y837885D01*
X924364Y836956D01*
X925578Y836454D01*
X926892D01*
X928105Y836956D01*
X928581Y837432D01*
X938801D01*
X938930Y837123D01*
X939858Y836195D01*
X941072Y835692D01*
X942386D01*
X943599Y836195D01*
X944528Y837123D01*
X945031Y838337D01*
Y839651D01*
X944528Y840864D01*
X943599Y841793D01*
X942386Y842296D01*
X941072D01*
X939858Y841793D01*
X939382Y841317D01*
X929162D01*
X929034Y841626D01*
X928105Y842555D01*
X926892Y843058D01*
D02*
G37*
G36*
X1167430Y838486D02*
X1166116D01*
X1164902Y837983D01*
X1163973Y837054D01*
X1163471Y835841D01*
Y834527D01*
X1163973Y833313D01*
X1164902Y832384D01*
X1166116Y831882D01*
X1167430D01*
X1168643Y832384D01*
X1169572Y833313D01*
X1170075Y834527D01*
Y835841D01*
X1169572Y837054D01*
X1168643Y837983D01*
X1167430Y838486D01*
D02*
G37*
G36*
X1165017Y829649D02*
X1163703D01*
X1162489Y829146D01*
X1161561Y828218D01*
X1161058Y827004D01*
Y825690D01*
X1161561Y824477D01*
X1162489Y823548D01*
X1163703Y823045D01*
X1165017D01*
X1166230Y823548D01*
X1167159Y824477D01*
X1167662Y825690D01*
Y827004D01*
X1167159Y828218D01*
X1166230Y829146D01*
X1165017Y829649D01*
D02*
G37*
G36*
X1001619Y825428D02*
X999902D01*
X998315Y824771D01*
X997100Y823556D01*
X996443Y821969D01*
Y820251D01*
X997100Y818664D01*
X998315Y817449D01*
X999902Y816792D01*
X1001619D01*
X1003206Y817449D01*
X1004421Y818664D01*
X1005079Y820251D01*
Y821969D01*
X1004421Y823556D01*
X1003206Y824771D01*
X1001619Y825428D01*
D02*
G37*
G36*
X999770Y799084D02*
X998052D01*
X996465Y798426D01*
X995251Y797212D01*
X994593Y795625D01*
Y793907D01*
X995251Y792320D01*
X996465Y791105D01*
X998052Y790448D01*
X999770D01*
X1001357Y791105D01*
X1002572Y792320D01*
X1003229Y793907D01*
Y795625D01*
X1002572Y797212D01*
X1001357Y798426D01*
X999770Y799084D01*
D02*
G37*
G36*
X978454Y796830D02*
X977140D01*
X975926Y796327D01*
X974997Y795398D01*
X974495Y794185D01*
Y792871D01*
X974997Y791657D01*
X975926Y790729D01*
X977140Y790226D01*
X978454D01*
X979667Y790729D01*
X980596Y791657D01*
X981099Y792871D01*
Y794185D01*
X980596Y795398D01*
X979667Y796327D01*
X978454Y796830D01*
D02*
G37*
G36*
X1158159Y805217D02*
X1156845D01*
X1155631Y804714D01*
X1154703Y803785D01*
X1154200Y802571D01*
Y801258D01*
X1154703Y800044D01*
X1154362Y798681D01*
X1154119Y798438D01*
X1153617Y797225D01*
Y795911D01*
X1154119Y794697D01*
X1155048Y793768D01*
X1155085Y793584D01*
X1154630Y793129D01*
X1154127Y791915D01*
Y790601D01*
X1154630Y789388D01*
X1155558Y788459D01*
X1156772Y787956D01*
X1158086D01*
X1159299Y788459D01*
X1160228Y789388D01*
X1160731Y790601D01*
Y791915D01*
X1160228Y793129D01*
X1159299Y794057D01*
X1159263Y794242D01*
X1159718Y794697D01*
X1160221Y795911D01*
Y797225D01*
X1159718Y798438D01*
X1160059Y799802D01*
X1160301Y800044D01*
X1160804Y801258D01*
Y802571D01*
X1160301Y803785D01*
X1159372Y804714D01*
X1158159Y805217D01*
D02*
G37*
G36*
X977565Y779304D02*
X976251D01*
X975037Y778801D01*
X974109Y777872D01*
X973606Y776659D01*
Y775345D01*
X974109Y774131D01*
X975037Y773203D01*
X976251Y772700D01*
X977565D01*
X978778Y773203D01*
X979707Y774131D01*
X980210Y775345D01*
Y776659D01*
X979707Y777872D01*
X978778Y778801D01*
X977565Y779304D01*
D02*
G37*
%LPD*%
D59*
X1459330Y693773D02*
Y707062D01*
X487069Y557036D02*
X487813Y556292D01*
X481989Y551956D02*
X482733Y551212D01*
X507897Y562134D02*
X511199Y558832D01*
X507897Y562134D02*
Y567214D01*
X484529Y554496D02*
X485273Y553752D01*
X511199Y558832D02*
X578981D01*
X583299Y563150D01*
X649375Y583724D02*
Y584232D01*
X477671Y548672D02*
X584641D01*
X485273Y553752D02*
X581303D01*
X482733Y551212D02*
X583589D01*
X824127Y582708D02*
X824498D01*
X487813Y556292D02*
X580033D01*
X475131Y551212D02*
X477671Y548672D01*
X487069Y557036D02*
Y584558D01*
X580033Y556292D02*
X584351Y560610D01*
X581303Y553752D02*
X584859Y557308D01*
X484529Y554496D02*
Y583506D01*
X481989Y551956D02*
Y582454D01*
X583589Y551212D02*
X587127Y554750D01*
X462215Y557726D02*
X479143Y540798D01*
X580287D02*
X585621Y546132D01*
X479143Y540798D02*
X580287D01*
X726718Y577882D02*
X744391D01*
X749050Y576485D02*
X750446Y577882D01*
X745788Y576485D02*
X749050D01*
X744391Y577882D02*
X745788Y576485D01*
X750446Y577882D02*
X764691D01*
X1432211Y872530D02*
X1787165Y517576D01*
X1427877Y872530D02*
X1432211D01*
X1427631Y872776D02*
X1427877Y872530D01*
X1413437Y890556D02*
X1428534Y875459D01*
X1432874D01*
X569365Y795818D02*
X569746Y795437D01*
X569365Y795818D02*
Y800640D01*
X568700Y878852D02*
X569365Y878187D01*
X568700Y882955D02*
X569365Y883620D01*
Y892842D01*
Y867950D02*
Y878187D01*
X568700Y878852D02*
Y882955D01*
X1112417Y1057180D02*
Y1058904D01*
X1032661Y1032590D02*
X1116940D01*
X1028317Y1032009D02*
X1032079D01*
X1028089Y1031780D02*
X1028317Y1032009D01*
X1032079D02*
X1032661Y1032590D01*
X1031899Y1029469D02*
X1113458D01*
X1022593Y1033008D02*
X1022758Y1033173D01*
X1025569Y1026425D02*
X1028856D01*
X1031899Y1029469D01*
X1022924Y1029071D02*
X1025569Y1026425D01*
X636675Y915702D02*
X640042Y912335D01*
X647537Y910816D02*
X653245D01*
X645819Y805140D02*
Y909098D01*
X620419Y915702D02*
X636675D01*
X645819Y909098D02*
X647537Y910816D01*
X643279Y812832D02*
Y910150D01*
X647882Y914753D01*
X640042Y818133D02*
Y912335D01*
X628757Y806848D02*
X640042Y818133D01*
X653245Y910816D02*
X653439Y910622D01*
X828445Y1136428D02*
X859687D01*
X945793Y1050322D01*
X996593D02*
X1024025Y1022890D01*
X945793Y1050322D02*
X996593D01*
X1160148Y972471D02*
X1162201Y970418D01*
X1160148Y972471D02*
Y972729D01*
X1162201Y966471D02*
Y970418D01*
X1151787Y981089D02*
X1160148Y972729D01*
X1162688Y973523D02*
X1164741Y971470D01*
X1157629Y978839D02*
X1162688Y973781D01*
X1165228Y974575D02*
Y974833D01*
Y974575D02*
X1167281Y972522D01*
X1161058Y979003D02*
X1165228Y974833D01*
X1167281Y968576D02*
Y972522D01*
X1162688Y973523D02*
Y973781D01*
X1163598Y980055D02*
X1167768Y975885D01*
Y975627D02*
X1169821Y973574D01*
X1186122Y971647D02*
X1193824Y963944D01*
X1177928Y979835D02*
Y980093D01*
X1164741Y967523D02*
Y971470D01*
X1167768Y975627D02*
Y975885D01*
X1174901Y973708D02*
Y975678D01*
X1172848Y977731D02*
Y977989D01*
X1177949Y983664D02*
X1180468Y981145D01*
X1187173Y974187D02*
X1196364Y964996D01*
X1180468Y980888D02*
Y981145D01*
Y980888D02*
X1187168Y974187D01*
X1171218Y983211D02*
X1175388Y979041D01*
X1183008Y981940D02*
Y982197D01*
X1170308Y976679D02*
X1172361Y974626D01*
X1170308Y976679D02*
Y976937D01*
X1187168Y974187D02*
X1187173D01*
X1174012Y984009D02*
X1177928Y980093D01*
X1169821Y969628D02*
Y973574D01*
X1177928Y979835D02*
X1186116Y971647D01*
X1186122D01*
X1168678Y982159D02*
X1172848Y977989D01*
X1188226Y976727D02*
X1198904Y966049D01*
X1180807Y984398D02*
X1183008Y982197D01*
X1188221Y976727D02*
X1188226D01*
X1185069Y969107D02*
X1187376Y966801D01*
X1175388Y978783D02*
X1185064Y969107D01*
X1175388Y978783D02*
Y979041D01*
X1185064Y969107D02*
X1185069D01*
X1183008Y981940D02*
X1188221Y976727D01*
X1172848Y977731D02*
X1174901Y975678D01*
X1172361Y970680D02*
Y974626D01*
X1166138Y981107D02*
X1170308Y976937D01*
X1187376Y965451D02*
Y966801D01*
X1198502Y985562D02*
X1199393Y984670D01*
X1194565Y986727D02*
Y1049587D01*
X1197105Y989754D02*
Y1038576D01*
Y989754D02*
X1198502Y988357D01*
Y985562D02*
Y988357D01*
X1190325Y1053827D02*
Y1057196D01*
Y1053827D02*
X1194565Y1049587D01*
X1199393Y981903D02*
Y984670D01*
Y981903D02*
X1199928Y981369D01*
X1187376Y965451D02*
X1189516Y963311D01*
Y962555D02*
Y963311D01*
X1174901Y973708D02*
X1183439Y965170D01*
X1172361Y970680D02*
X1181808Y961233D01*
X1162201Y966471D02*
X1177599Y951073D01*
X1179828D01*
X1180880Y953613D02*
X1186077Y948416D01*
X1179704Y956153D02*
X1181932D01*
X1184036Y961233D02*
X1193697Y951572D01*
X1169821Y969628D02*
X1180756Y958693D01*
X1179828Y951073D02*
X1182775Y948126D01*
X1181932Y956153D02*
X1188617Y949468D01*
X1196364Y964597D02*
Y964996D01*
X1181808Y961233D02*
X1184036D01*
X1178652Y953613D02*
X1180880D01*
X1193824Y963509D02*
Y963944D01*
X1198904Y965704D02*
Y966049D01*
X1180756Y958693D02*
X1182984D01*
X1164741Y967523D02*
X1178652Y953613D01*
X1182984Y958693D02*
X1191157Y950520D01*
X1167281Y968576D02*
X1179704Y956153D01*
X1204619Y907786D02*
Y952714D01*
X1208175Y907822D02*
Y952750D01*
X1200029Y964488D02*
Y964579D01*
X1197489Y963436D02*
X1208175Y952750D01*
X1196364Y964597D02*
X1197489Y963472D01*
X1213787Y905802D02*
Y950729D01*
X1200029Y964488D02*
X1213787Y950729D01*
X1198904Y965704D02*
X1200029Y964579D01*
X1197489Y963436D02*
Y963472D01*
X1193824Y963509D02*
X1204619Y952714D01*
X1182140Y989061D02*
Y996728D01*
X1163979Y1030510D02*
X1182267Y1012222D01*
Y996728D02*
Y1012222D01*
X1163979Y1030510D02*
Y1036802D01*
X1152813Y1034818D02*
X1174139Y1013492D01*
X1152793Y1034818D02*
X1152813D01*
X1174139Y997216D02*
Y1013492D01*
X1245005Y800386D02*
X1252752Y792639D01*
X1245005Y800386D02*
Y864866D01*
X1252752Y792639D02*
X1368698D01*
X1405790Y754171D02*
X1414165Y745796D01*
X1405790Y754171D02*
Y755547D01*
X1197105Y1038576D02*
X1213169Y1054640D01*
X1180807Y987728D02*
X1182140Y989061D01*
X1177949Y983664D02*
Y995458D01*
X1174012Y984009D02*
Y997089D01*
X1174139Y997216D01*
X1272437Y884206D02*
X1279549Y877094D01*
X1345710D01*
X1272183Y890556D02*
X1413437D01*
X1345710Y877094D02*
X1347742Y879126D01*
X1421275D01*
X1427482Y872919D01*
X291589Y771022D02*
X376833Y856266D01*
X450092D01*
X274363Y771022D02*
X291589D01*
X779262Y1039783D02*
X783342Y1043864D01*
X787389D01*
X779262Y1039763D02*
Y1039783D01*
X779570Y1036479D02*
X781326Y1038235D01*
X784413Y1041323D02*
X786337D01*
X781326Y1038235D02*
Y1038237D01*
X772819Y1036479D02*
X779570D01*
X781326Y1038237D02*
X784413Y1041323D01*
X1052219Y447834D02*
X1060497Y456112D01*
Y456689D01*
X1120037Y437674D02*
Y438430D01*
X1118005Y440462D02*
Y443389D01*
X1076412Y417925D02*
Y432993D01*
X1260880Y433737D02*
X1272691Y445548D01*
X1076412Y432993D02*
X1077156Y433737D01*
X1260880D01*
X1118005Y440462D02*
X1120037Y438430D01*
X1118005Y443389D02*
X1122065Y447449D01*
X1085904Y424997D02*
X1086439Y425531D01*
X1085904Y422097D02*
Y424997D01*
X1084767Y420959D02*
X1085904Y422097D01*
X1084767Y408500D02*
Y420959D01*
X1122065Y447449D02*
Y466396D01*
X1272691Y445548D02*
Y464852D01*
X1423797Y463328D02*
X1427631D01*
X1351661Y391192D02*
X1423797Y463328D01*
X1077639Y391192D02*
X1351661D01*
X1052219Y416612D02*
X1077639Y391192D01*
X1052219Y416612D02*
Y447834D01*
X1397929Y469932D02*
X1403247D01*
X1388277Y479584D02*
X1397929Y469932D01*
X1060835Y479584D02*
X1388277D01*
X1057807Y482124D02*
X1058295D01*
X1060835Y479584D01*
X1035792Y479921D02*
Y524752D01*
X1046758Y535718D02*
X1047901D01*
X1035792Y524752D02*
X1046758Y535718D01*
X1071904Y413417D02*
X1076412Y417925D01*
X1065414Y413417D02*
X1071904D01*
X1064271Y414560D02*
X1065414Y413417D01*
X1059839Y414560D02*
X1064271D01*
X1080413Y404146D02*
X1084767Y408500D01*
X1355241Y504730D02*
X1356511Y506000D01*
X1321205Y504730D02*
X1355241D01*
X460907Y856520D02*
X476401Y872014D01*
X501065D01*
X377660Y852521D02*
X440755D01*
X290065Y764926D02*
X377660Y852521D01*
X499134Y850551D02*
X524153Y875570D01*
X440755Y852521D02*
X442725Y850551D01*
X499134D01*
X524407Y719868D02*
Y720072D01*
Y719868D02*
X551331Y692944D01*
X455084Y855377D02*
X455973Y856266D01*
X460907D01*
X450092D02*
X450981Y855377D01*
X455084D01*
X373531Y835184D02*
X519835D01*
X506447Y895816D02*
X566391D01*
X569365Y892842D01*
X567079Y865664D02*
X569365Y867950D01*
X540155Y865664D02*
X567079D01*
X538885Y864394D02*
X540155Y865664D01*
X538885Y846868D02*
Y864394D01*
X537869Y845852D02*
X538885Y846868D01*
X530503Y845852D02*
X537869D01*
X519835Y835184D02*
X530503Y845852D01*
X554379Y860584D02*
Y861854D01*
Y860584D02*
X558189Y856774D01*
Y826294D02*
Y856774D01*
X557046Y825151D02*
X558189Y826294D01*
X531138Y825151D02*
X557046D01*
X527201Y821214D02*
X531138Y825151D01*
X365657Y821214D02*
X527201D01*
X533778Y820171D02*
X534567Y820960D01*
X533778Y817377D02*
Y820171D01*
X532535Y816134D02*
X533778Y817377D01*
X368959Y816134D02*
X532535D01*
X372515Y812578D02*
X520343D01*
X533551Y809530D02*
X533805Y809784D01*
X523391Y809530D02*
X533551D01*
X520343Y812578D02*
X523391Y809530D01*
X532535Y870744D02*
X533030Y870248D01*
X376325Y844582D02*
X511453D01*
X533030Y869525D02*
Y870248D01*
X532535Y869030D02*
X533030Y869525D01*
X532535Y865664D02*
Y869030D01*
X511453Y844582D02*
X532535Y865664D01*
X524153Y875570D02*
X558319D01*
X563145Y880396D02*
X563269D01*
X558319Y875570D02*
X563145Y880396D01*
X286509Y726572D02*
X372515Y812578D01*
X273855Y726572D02*
X286509D01*
X292351Y739526D02*
X368959Y816134D01*
X274109Y739526D02*
X292351D01*
X290319Y745876D02*
X365657Y821214D01*
X274363Y745876D02*
X290319D01*
X274363Y751972D02*
X290319D01*
X373531Y835184D01*
X290319Y758576D02*
X376325Y844582D01*
X274109Y758576D02*
X290319D01*
X274363Y764926D02*
X290065D01*
X591463Y751364D02*
X592987D01*
X529503Y745284D02*
X537996Y753777D01*
X589050D01*
X591463Y751364D01*
X524407Y745284D02*
X529503D01*
X1612205Y739777D02*
X1612472Y739510D01*
X1612205Y739777D02*
Y764547D01*
X1574185Y755940D02*
Y773930D01*
X1568601Y756698D02*
Y772700D01*
Y756698D02*
X1607717Y717582D01*
X1574185Y755940D02*
X1609749Y720376D01*
X1607717Y717582D02*
X1637435D01*
X1694834Y790504D02*
Y997782D01*
X1681602Y777272D02*
X1694834Y790504D01*
X1697374Y789452D02*
Y998834D01*
X1682654Y774732D02*
X1697374Y789452D01*
X1679394Y1013222D02*
X1694834Y997782D01*
X1007007Y1146588D02*
X1014309Y1153890D01*
X1681920Y1014288D02*
X1697374Y998834D01*
X1646833Y731806D02*
Y762308D01*
X1647065D02*
X1662029Y777272D01*
X1635403Y720376D02*
X1646833Y731806D01*
X1609749Y720376D02*
X1635403D01*
X1649386Y760749D02*
X1663368Y774732D01*
X1637435Y717582D02*
X1649627Y729774D01*
Y760508D01*
X1663368Y774732D02*
X1682654D01*
X1662029Y777272D02*
X1681602D01*
X1654220Y833892D02*
X1663655D01*
X1617115Y870998D02*
Y891516D01*
Y870998D02*
X1654220Y833892D01*
X1617115Y891516D02*
X1620387Y894788D01*
X1657564Y830236D02*
X1657845Y829955D01*
X1651570Y830236D02*
X1657564D01*
X1634070Y867064D02*
Y885031D01*
Y867064D02*
X1652214Y848920D01*
X1659275D01*
X1653845Y852857D02*
Y868848D01*
X1649389Y832373D02*
X1649432D01*
X1651570Y830236D01*
X1614414Y867348D02*
Y977857D01*
Y867348D02*
X1649389Y832373D01*
X1005981Y1012486D02*
X1059361D01*
X1158899Y1007317D02*
Y1009827D01*
X1059361Y1012486D02*
X1063034Y1016159D01*
X1082084D01*
X1087672Y1010571D01*
X1158155D01*
X1158899Y1009827D01*
X899057Y1033050D02*
X985417D01*
X1007033Y1015026D02*
X1015516D01*
X986469Y1035590D02*
X1007033Y1015026D01*
X985417Y1033050D02*
X1005981Y1012486D01*
X898005Y1035590D02*
X986469D01*
X878493Y1012486D02*
X899057Y1033050D01*
X877441Y1015026D02*
X898005Y1035590D01*
X801075Y1012486D02*
X878493D01*
X800023Y1015026D02*
X877441D01*
X1130891Y748756D02*
X1138325Y756190D01*
X1147977D02*
X1148231Y756444D01*
X1138325Y756190D02*
X1147977D01*
X1100340Y748756D02*
X1130891D01*
X1100098Y748998D02*
X1100340Y748756D01*
X1096494Y748998D02*
X1100098D01*
X1096161Y749332D02*
X1096494Y748998D01*
X1101971Y752693D02*
X1128224D01*
X1148666Y763229D02*
X1149320D01*
X1128224Y752693D02*
X1138760Y763229D01*
X1149320D02*
X1149755Y762794D01*
X1138760Y763229D02*
X1148666D01*
X918597Y748316D02*
X920647Y750366D01*
X902613Y748316D02*
X918597D01*
X920647Y750366D02*
Y778105D01*
X882533Y723918D02*
X884813Y726198D01*
Y727468D02*
X887627Y730282D01*
X884813Y726198D02*
Y727468D01*
X880496Y729755D02*
X883794Y733053D01*
Y735307D01*
X887627Y739139D01*
X1210695Y741478D02*
X1244497Y707676D01*
X1208349Y741478D02*
X1210695D01*
X1174012Y775815D02*
X1208349Y741478D01*
X1170075Y796576D02*
X1177187Y803688D01*
X1170075Y773097D02*
X1173504Y769668D01*
X1167535Y798862D02*
X1176171Y807498D01*
X1167535Y772045D02*
Y798862D01*
Y772045D02*
X1170964Y768616D01*
X1170075Y773097D02*
Y796576D01*
X1167027Y758202D02*
Y766985D01*
X1170964Y764953D02*
Y768616D01*
X1173504Y769017D02*
X1179092Y763429D01*
X1173504Y769017D02*
Y769668D01*
X1170964Y764953D02*
X1176552Y759365D01*
Y744236D02*
Y759365D01*
X1179092Y743184D02*
Y763429D01*
X1167027Y758202D02*
X1174012Y751217D01*
X1008277Y724440D02*
X1121956D01*
X1156807Y759292D01*
X1126822Y721900D02*
X1161227Y756305D01*
X1017639Y700564D02*
X1129287D01*
X1004975Y716820D02*
X1139976D01*
X1074190Y677831D02*
X1113739D01*
X1179092Y743184D01*
X1066824Y680371D02*
X1112687D01*
X1129287Y700564D02*
X1174012Y745288D01*
Y751217D01*
X1139976Y716820D02*
X1170075Y746919D01*
X1112687Y680371D02*
X1176552Y744236D01*
X1007079Y721900D02*
X1126822D01*
X1160244Y749305D02*
X1164464D01*
X1147079Y736140D02*
X1160244Y749305D01*
X1164464D02*
X1164816Y748953D01*
X1131721Y719360D02*
X1147079Y734718D01*
Y736140D01*
X969923Y728758D02*
X989445D01*
X1017639Y700564D01*
X947063Y778324D02*
X1006027Y719360D01*
X944523Y777272D02*
X1004975Y716820D01*
X1006027Y719360D02*
X1131721D01*
X952832Y779885D02*
X1008277Y724440D01*
X949603Y779376D02*
X1007079Y721900D01*
X960398Y719233D02*
X969923Y728758D01*
X920679Y719233D02*
X960398D01*
X896549Y743363D02*
X920679Y719233D01*
X867802Y733652D02*
X877512Y743363D01*
X852760Y733652D02*
X867802D01*
X877512Y743363D02*
X896549D01*
X856442Y729755D02*
X880496D01*
X856402Y729715D02*
X856442Y729755D01*
X858417Y723918D02*
X882533D01*
X792631Y716675D02*
X796441Y712865D01*
X826014D01*
X619403Y692944D02*
X623975Y697516D01*
X551331Y692944D02*
X619403D01*
X775105Y736124D02*
X777116D01*
X753839Y757389D02*
X775105Y736124D01*
X777116D02*
X779423Y733818D01*
X717320Y737267D02*
X763048D01*
X763092Y737311D01*
X775486Y731552D02*
Y731806D01*
X752442Y754849D02*
X775486Y731806D01*
X779423Y728905D02*
Y733818D01*
X776672Y726154D02*
X779423Y728905D01*
X828602Y662718D02*
X828953D01*
X821237Y670083D02*
Y670434D01*
Y670083D02*
X828602Y662718D01*
X826317Y672187D02*
Y672538D01*
X828953Y662718D02*
X834716Y656954D01*
X828857Y673239D02*
Y673590D01*
X831057Y667798D02*
X836820Y662034D01*
X831758Y670338D02*
X832109D01*
X787109Y711746D02*
X826317Y672538D01*
X789649Y712798D02*
X828857Y673590D01*
X832109Y670338D02*
X837872Y664574D01*
X829654Y665258D02*
X830005D01*
X835768Y659494D01*
X823777Y671135D02*
Y671486D01*
X787109Y711746D02*
Y723418D01*
X784569Y710694D02*
X823777Y671486D01*
X837872Y664574D02*
X843460D01*
X828857Y673239D02*
X831758Y670338D01*
X789649Y712798D02*
Y722366D01*
X834716Y656954D02*
X840304D01*
X823777Y671135D02*
X829654Y665258D01*
X835768Y659494D02*
X838308D01*
X826317Y672187D02*
X830706Y667798D01*
X770914Y717201D02*
X774470D01*
X821237Y670434D01*
X784569Y710694D02*
Y724470D01*
X830706Y667798D02*
X831057D01*
X768882Y719233D02*
X770914Y717201D01*
X772877Y721138D02*
X777645D01*
X768882Y719233D02*
Y722769D01*
X785138Y725039D02*
Y736275D01*
X787109Y723418D02*
X787678Y723987D01*
X792631Y716675D02*
Y721755D01*
X790218Y722934D02*
Y738379D01*
X792758Y721882D02*
Y739431D01*
X787678Y723987D02*
Y737327D01*
X784569Y724470D02*
X785138Y725039D01*
X792631Y721755D02*
X792758Y721882D01*
X782598Y726091D02*
Y735223D01*
X789649Y722366D02*
X790218Y722934D01*
X777645Y721138D02*
X782598Y726091D01*
X785960Y746229D02*
X792758Y739431D01*
X783420Y745177D02*
X790218Y738379D01*
X780880Y744125D02*
X787678Y737327D01*
X775800Y742021D02*
X782598Y735223D01*
X778340Y743073D02*
X785138Y736275D01*
X692534Y710978D02*
X695222Y713665D01*
X682141Y710978D02*
X692534D01*
X693333Y708184D02*
X697762Y712613D01*
X666393Y704882D02*
X693825D01*
X695349Y706406D01*
X1191765Y807852D02*
X1192427Y808514D01*
X1191765Y805312D02*
Y807852D01*
X1190014Y803561D02*
X1191765Y805312D01*
X1183019Y803561D02*
X1190014D01*
X1182892Y803688D02*
X1183019Y803561D01*
X1177187Y803688D02*
X1182892D01*
X1176171Y807498D02*
X1187093D01*
X1177695Y793528D02*
X1185142Y800975D01*
X1182775Y818674D02*
Y948126D01*
X1193488Y800975D02*
X1196237Y803724D01*
X1185142Y800975D02*
X1193488D01*
X1185315Y797338D02*
X1193443D01*
X1180235Y792476D02*
X1185206Y797447D01*
X1196237Y803724D02*
Y810292D01*
X1192475Y814053D02*
X1196237Y810292D01*
X1184299Y817053D02*
X1187298Y814053D01*
X1184299Y817053D02*
Y817150D01*
X1187298Y814053D02*
X1192475D01*
X1182775Y818674D02*
X1184299Y817150D01*
X1024266Y569740D02*
X1062890Y608365D01*
Y666531D02*
X1074190Y677831D01*
X1062890Y608365D02*
Y666531D01*
X994561Y553136D02*
X1041985Y600561D01*
Y655533D02*
X1066824Y680371D01*
X1041985Y600561D02*
Y655533D01*
X1193443Y797338D02*
X1199285Y803180D01*
Y813203D01*
X1188871Y823616D02*
X1199285Y813203D01*
X1207060Y798255D02*
Y809019D01*
X1191411Y824669D02*
X1207060Y809019D01*
X1211477Y793020D02*
Y808195D01*
X1193951Y825721D02*
X1211477Y808195D01*
X1188871Y823616D02*
Y883173D01*
X1193951Y825721D02*
Y885277D01*
X1191411Y824669D02*
Y884225D01*
X1208175Y907822D02*
X1227733Y888264D01*
X1204619Y907786D02*
X1225193Y887212D01*
X1213787Y905802D02*
X1245503Y874086D01*
X1216480Y884789D02*
Y887486D01*
X1219371Y881898D02*
X1222068D01*
X1245503Y873528D02*
Y874086D01*
X1222068Y881898D02*
X1238401Y865566D01*
X1216480Y884789D02*
X1219371Y881898D01*
X1225193Y884678D02*
Y887212D01*
X1227733Y885730D02*
Y888264D01*
Y885730D02*
X1247545Y865918D01*
X1225193Y884678D02*
X1245005Y864866D01*
X1193697Y910270D02*
X1216480Y887486D01*
X1193697Y910270D02*
Y951572D01*
X1186077Y885966D02*
X1188871Y883173D01*
X1186077Y885966D02*
Y948416D01*
X1188617Y887019D02*
Y949468D01*
X1191157Y888071D02*
Y950520D01*
X1166519Y1010474D02*
X1168678Y1008315D01*
Y982159D02*
Y1008315D01*
X1180807Y984398D02*
Y987728D01*
X1170329Y1010256D02*
X1171218Y1009367D01*
Y983211D02*
Y1009367D01*
X1170329Y1010256D02*
Y1013710D01*
X1160133Y1023906D02*
X1170329Y1013710D01*
X1125625Y1023906D02*
X1160133D01*
X1159081Y1021366D02*
X1166519Y1013928D01*
Y1010474D02*
Y1013928D01*
X1157901Y1018808D02*
X1163979Y1012730D01*
X1161439Y1008369D02*
Y1011678D01*
X1163979Y1009421D02*
Y1012730D01*
X1157206Y1015910D02*
X1161439Y1011678D01*
X1121561Y1021366D02*
X1159081D01*
X1113458Y1029469D02*
X1121561Y1021366D01*
X1096669Y1018808D02*
X1157901D01*
X1094520Y1015910D02*
X1157206D01*
X1158899Y1007317D02*
X1161058Y1005158D01*
X1092587Y1022890D02*
X1096669Y1018808D01*
X1116940Y1032590D02*
X1125625Y1023906D01*
X1163598Y980055D02*
Y1006210D01*
X1166138Y981107D02*
Y1007262D01*
X1151787Y981089D02*
Y1003528D01*
X1161058Y979003D02*
Y1005158D01*
X1157629Y978839D02*
Y1003020D01*
X1188617Y887019D02*
X1191411Y884225D01*
X1191157Y888071D02*
X1193951Y885277D01*
X1163979Y1009421D02*
X1166138Y1007262D01*
X1157121Y1003528D02*
X1157629Y1003020D01*
X1161439Y1008369D02*
X1163598Y1006210D01*
X1024025Y1022890D02*
X1092587D01*
X1022924Y1029071D02*
Y1032677D01*
X1022593Y1033008D02*
X1022924Y1032677D01*
X1247545Y807752D02*
Y865918D01*
Y807752D02*
X1252117Y803180D01*
X1266113Y907548D02*
X1272437Y901224D01*
X1262176Y905949D02*
X1262277Y906050D01*
X1265071Y908621D02*
X1266113Y907579D01*
X1254276Y963581D02*
X1262277Y955580D01*
X1266113Y907548D02*
Y907579D01*
X1265071Y966502D02*
X1272945Y974376D01*
X1265071Y908621D02*
Y966502D01*
X1272945Y974376D02*
X1273453D01*
X1272437Y901224D02*
X1283359D01*
X1180235Y789539D02*
Y792476D01*
Y789539D02*
X1249982Y719792D01*
Y606449D02*
Y719792D01*
X1223948Y731864D02*
X1247037Y708776D01*
X1215795Y739970D02*
X1223900Y731864D01*
X1247037Y597964D02*
X1266845Y578156D01*
X1244497Y580184D02*
Y707676D01*
X1223900Y731864D02*
X1223948D01*
X1244497Y580184D02*
X1246960Y577721D01*
X1215795Y739970D02*
Y747046D01*
X1247037Y597964D02*
Y708776D01*
X1177695Y785146D02*
X1215795Y747046D01*
X1186712Y791061D02*
X1186996Y790777D01*
X1191568Y786605D02*
X1207697Y770476D01*
X1210451D01*
X1186996Y787124D02*
X1206185Y767936D01*
X1191568Y786605D02*
Y793268D01*
X1186996Y787124D02*
Y790777D01*
X1206185Y767936D02*
X1209399D01*
X1177695Y785146D02*
Y793528D01*
X1024266Y566585D02*
Y569740D01*
X997101Y539420D02*
X1024266Y566585D01*
X997101Y480165D02*
Y539420D01*
X994561Y479113D02*
Y553136D01*
X998625Y428276D02*
Y475048D01*
X994561Y479113D02*
X998625Y475048D01*
X1009547Y427006D02*
Y467719D01*
X997101Y480165D02*
X1009547Y467719D01*
X1059193Y1015910D02*
X1061982Y1018699D01*
X1091732D01*
X1094520Y1015910D01*
X1016400D02*
X1059193D01*
X752717Y1010444D02*
X753479Y1011206D01*
X1015516Y1015026D02*
X1016400Y1015910D01*
X753479Y1011206D02*
X796203D01*
X800023Y1015026D01*
X838948Y806464D02*
X909889D01*
X874562Y800005D02*
X874689Y800132D01*
X869069D02*
X869196Y800005D01*
X874562D01*
X791594Y800132D02*
X869069D01*
X873510Y802545D02*
X874889Y803924D01*
X840000D02*
X868869D01*
X870248Y802545D01*
X874889Y803924D02*
X907203D01*
X870248Y802545D02*
X873510D01*
X874689Y800132D02*
X906931D01*
X786529Y797586D02*
X786789D01*
X786017Y797074D02*
X786529Y797586D01*
X811215Y803924D02*
X832130D01*
X809963Y802672D02*
X811215Y803924D01*
X788038Y802418D02*
Y802946D01*
X763438Y827293D02*
X787297Y803434D01*
X788313Y802672D02*
X809963D01*
X787551Y803434D02*
X788038Y802946D01*
X787297Y803434D02*
X787551D01*
X736450Y827293D02*
X763438D01*
X773239Y844328D02*
X776070Y841496D01*
X777123Y844036D02*
X781518D01*
X788937Y797474D02*
X791594Y800132D01*
X781518Y844036D02*
X802055Y823500D01*
X779227Y849116D02*
X783623D01*
X778175Y846576D02*
X782571D01*
X772526Y830149D02*
Y830624D01*
X776070Y841496D02*
X780466D01*
X772083Y831067D02*
Y834328D01*
Y831067D02*
X772526Y830624D01*
X776395Y851948D02*
X779227Y849116D01*
X782571Y846576D02*
X802599Y826548D01*
X783623Y849116D02*
X803651Y829088D01*
X775343Y849408D02*
X778175Y846576D01*
X786789Y797474D02*
X788937D01*
X772526Y834771D02*
Y837423D01*
X772083Y834328D02*
X772526Y834771D01*
X780466Y841496D02*
X801003Y820960D01*
X774291Y846868D02*
X777123Y844036D01*
X784090Y800285D02*
X786789Y797586D01*
X784090Y800285D02*
Y801815D01*
X793530Y809667D02*
X809796D01*
X790837Y808768D02*
X792478Y807127D01*
X787325Y815872D02*
X793530Y809667D01*
X761312Y834753D02*
X787297Y808768D01*
X787325Y815872D02*
Y822710D01*
X792478Y807127D02*
X825274D01*
X787297Y808768D02*
X790837D01*
X825274Y807127D02*
X825547Y806854D01*
X832792D01*
X764604Y845344D02*
X772526Y837423D01*
Y830149D02*
X772925Y829749D01*
X774162Y811743D02*
X784090Y801815D01*
X774162Y811743D02*
Y812505D01*
X761914Y824753D02*
X774162Y812505D01*
X832130Y803924D02*
X833382Y802672D01*
X737502Y824753D02*
X761914D01*
X833382Y802672D02*
X838748D01*
X815933Y1043605D02*
X816582Y1042956D01*
X832001D01*
X827749Y1031990D02*
X830590Y1029149D01*
X828927Y1025212D02*
X834196D01*
X834345Y1025362D01*
X826965Y1031990D02*
X827749D01*
X794280Y1046404D02*
X829054D01*
X830931Y1048281D02*
X831687D01*
X795074Y1043605D02*
X815933D01*
X829054Y1046404D02*
X830931Y1048281D01*
X840900Y1019207D02*
X859363D01*
X859607Y1018963D01*
X850381Y1021747D02*
X851717Y1023083D01*
X854418D01*
X854953Y1023617D01*
X839848Y1021747D02*
X850381D01*
X840130Y1018437D02*
X840900Y1019207D01*
X622296Y793038D02*
Y801633D01*
X633350Y798543D02*
X634558Y799751D01*
X635659Y805974D02*
Y806990D01*
X626691Y800460D02*
X627226Y800995D01*
X624292Y803629D02*
Y804041D01*
X624991Y804740D01*
Y805003D01*
X625499Y805511D01*
X619149Y805670D02*
Y896400D01*
X631126Y798543D02*
X633350D01*
X635659Y806990D02*
X637183Y808514D01*
X619756Y790490D02*
Y802685D01*
X621752Y804681D02*
Y805094D01*
X627226Y803383D02*
X627691Y803848D01*
X627226Y800995D02*
Y803383D01*
X628757Y805177D02*
Y806848D01*
X627691Y803848D02*
Y804111D01*
X617216Y803737D02*
X619149Y805670D01*
X627691Y804111D02*
X628757Y805177D01*
X622296Y801633D02*
X624292Y803629D01*
X619756Y802685D02*
X621752Y804681D01*
X625499Y805511D02*
Y807182D01*
X627785Y795202D02*
X631126Y798543D01*
X617216Y794897D02*
Y803737D01*
X637183Y808514D02*
X638961D01*
X634558Y799751D02*
X636782D01*
X624648Y790686D02*
X629240D01*
X635765Y797211D02*
X637834D01*
X630293Y788146D02*
X636818Y794671D01*
X638886D01*
X629240Y790686D02*
X635765Y797211D01*
X622100Y788146D02*
X630293D01*
X619149Y896400D02*
X623059Y900310D01*
X621752Y805094D02*
X622451Y805792D01*
X627785Y794798D02*
Y795202D01*
X638961Y808514D02*
X643279Y812832D01*
X669113Y909700D02*
Y910835D01*
X673565Y900816D02*
Y905248D01*
X669113Y909700D02*
X673565Y905248D01*
X665195Y914753D02*
X669113Y910835D01*
X647882Y914753D02*
X665195D01*
X720595Y1044753D02*
X734679D01*
X735079Y1036479D02*
X735480Y1036879D01*
X738272Y1044753D02*
X765942D01*
X731418Y1036879D02*
X731818Y1036479D01*
X724060Y1036879D02*
X731418D01*
X715595Y1044353D02*
X720195D01*
X734679Y1044753D02*
X737553Y1041879D01*
X720462Y1047713D02*
X735312D01*
X731818Y1036479D02*
X735079D01*
X720195Y1044353D02*
X720595Y1044753D01*
X737553Y1041879D02*
X769771D01*
X715195Y1044753D02*
X715595Y1044353D01*
X735480Y1036879D02*
X736576D01*
X735312Y1047713D02*
X738272Y1044753D01*
X631849Y695992D02*
X632611D01*
X498245Y688626D02*
X624483D01*
X631849Y695992D01*
X772925Y829632D02*
Y829749D01*
X731798Y811943D02*
X758194D01*
X786535Y777377D02*
Y787194D01*
X783741Y778175D02*
Y786396D01*
X758194Y811943D02*
X783741Y786396D01*
X732433Y814864D02*
X758865D01*
X786535Y787194D01*
X802055Y823500D02*
X825893D01*
X802599Y826548D02*
X812671D01*
X801003Y820960D02*
X824841D01*
X803651Y829088D02*
X811619D01*
X809796Y809667D02*
X809928Y809799D01*
X831147D01*
X1213169Y1054640D02*
X1216049D01*
X1272607Y779204D02*
X1371356D01*
X1269877Y785166D02*
X1372579D01*
X1269362Y785681D02*
X1269877Y785166D01*
X1271555Y781744D02*
X1372408D01*
X1582567Y1072440D02*
X1589425Y1065582D01*
X1639463D01*
X1308525Y1148874D02*
X1311446Y1145953D01*
X1315096Y1146341D02*
X1512527D01*
X1311446Y1145953D02*
X1314707D01*
X1026946Y1143413D02*
X1315760D01*
X1314707Y1145953D02*
X1315096Y1146341D01*
X1315760Y1143413D02*
X1316148Y1143801D01*
X1464267D01*
X1512527Y1146341D02*
X1530220Y1128648D01*
X1464267Y1143801D02*
X1475916Y1132152D01*
X1016405Y1132872D02*
X1026946Y1143413D01*
X1016151Y1148874D02*
X1308525D01*
X1271020Y781209D02*
X1271555Y781744D01*
X1372579Y785166D02*
X1403250Y754495D01*
X1272072Y778669D02*
X1272607Y779204D01*
X1266706Y778669D02*
X1272072D01*
X1267758Y781209D02*
X1271020D01*
X1212053Y772466D02*
X1336695D01*
X1213105Y775006D02*
X1354555D01*
X1211001Y769926D02*
X1313835D01*
X1287175Y767386D02*
X1305284Y749276D01*
X1209949Y767386D02*
X1287175D01*
X1254276Y963581D02*
Y982103D01*
X1253366Y983012D02*
X1254276Y982103D01*
X1253366Y983012D02*
Y986880D01*
X1253298Y986949D02*
X1253366Y986880D01*
X834132Y642233D02*
Y645710D01*
X833209Y646633D02*
X834132Y645710D01*
Y642233D02*
X844828Y631537D01*
Y596404D02*
Y631537D01*
X832509Y646633D02*
Y647224D01*
X925072Y724948D02*
X926997D01*
X920647Y729373D02*
X925072Y724948D01*
X926997D02*
X928775Y723170D01*
X920647Y729373D02*
Y734092D01*
X924584Y738029D01*
X948422Y829812D02*
X948460Y829775D01*
X932876Y829812D02*
X948422D01*
X932585Y830104D02*
X932876Y829812D01*
X926362Y839375D02*
X941348D01*
X926235Y839248D02*
X926362Y839375D01*
X941348D02*
X941729Y838994D01*
X946810Y726471D02*
X947481D01*
X933347Y739934D02*
X946810Y726471D01*
X1298345Y1014762D02*
X1323231D01*
X1348357Y989636D01*
X1288185Y1014508D02*
X1315597Y987096D01*
X1403796D01*
X627150Y664222D02*
X628039Y663333D01*
X627150Y664222D02*
Y679501D01*
X628039Y623348D02*
Y663333D01*
X627150Y679501D02*
X630051Y682403D01*
X633754D01*
X635405Y684054D01*
X648613D01*
X620165Y615474D02*
X628039Y623348D01*
X613307Y615474D02*
X620165D01*
X697762Y716709D02*
X701556Y720503D01*
X695222Y717761D02*
X700504Y723043D01*
X695274Y706533D02*
X700302Y711561D01*
X700504Y723043D02*
X703096D01*
X702608Y717963D02*
X705200D01*
X700302Y711561D02*
Y715657D01*
X703096Y723043D02*
X717320Y737267D01*
X697762Y712613D02*
Y716709D01*
X705200Y717963D02*
X719297Y732060D01*
X700302Y715657D02*
X702608Y717963D01*
X695222Y713665D02*
Y717761D01*
X704148Y720503D02*
X718245Y734600D01*
X701556Y720503D02*
X704148D01*
X718245Y734600D02*
X757325D01*
X674267Y708184D02*
X693333D01*
X719297Y732060D02*
X755547D01*
X677569Y715550D02*
X682141Y710978D01*
X666901Y715550D02*
X674267Y708184D01*
X655217Y716058D02*
X666393Y704882D01*
X730985Y767493D02*
X756513Y741966D01*
X689131Y810038D02*
X694962D01*
X730746Y770033D02*
X732038D01*
X747221Y754849D01*
X712469Y783350D02*
X728326Y767493D01*
X709809Y783350D02*
X712469D01*
X728326Y767493D02*
X730985D01*
X733090Y772573D02*
X741345Y764318D01*
X707668Y781209D02*
X709809Y783350D01*
X731798Y772573D02*
X733090D01*
X756513Y741966D02*
X756817D01*
X707231Y793547D02*
X730746Y770033D01*
X741345Y764318D02*
X742593D01*
X747221Y754849D02*
X752442D01*
X714399Y789972D02*
X731798Y772573D01*
X742593Y764318D02*
X744498Y762413D01*
X739355Y774252D02*
X759365D01*
X718442Y795165D02*
X739355Y774252D01*
X744498Y761925D02*
X749034Y757389D01*
X738303Y771712D02*
X758313D01*
X717390Y792625D02*
X738303Y771712D01*
X744498Y761925D02*
Y762413D01*
X749034Y757389D02*
X753839D01*
X667650Y783622D02*
X670063Y781209D01*
X707668D01*
X652677Y783622D02*
X667650D01*
X654709Y716058D02*
X655217D01*
X756817Y701072D02*
Y730790D01*
X755547Y732060D02*
X756817Y730790D01*
X760373Y701108D02*
X765997Y695484D01*
X788059Y690912D02*
Y691438D01*
X765997Y695484D02*
X789329D01*
X760373Y701108D02*
Y731552D01*
X787315Y692182D02*
X788059Y691438D01*
X765707Y692182D02*
X787315D01*
X756817Y701072D02*
X765707Y692182D01*
X788059Y690912D02*
X822857Y656114D01*
X801775Y681260D02*
X825397Y657638D01*
X801775Y681260D02*
Y683038D01*
X789329Y695484D02*
X801775Y683038D01*
X822857Y629952D02*
Y656114D01*
X831112Y619411D02*
X831729Y620028D01*
Y621080D01*
X822857Y629952D02*
X831729Y621080D01*
X825397Y634524D02*
Y657638D01*
Y634524D02*
X832255Y627666D01*
X827937Y642144D02*
X841399Y628682D01*
X827937Y642144D02*
Y651542D01*
X830205Y653810D01*
X831112Y602476D02*
Y619411D01*
Y602476D02*
X834795Y598793D01*
Y593376D02*
Y598793D01*
X824498Y582571D02*
Y582708D01*
X816253Y574326D02*
X824498Y582571D01*
Y582708D02*
X831131D01*
X839748Y595517D02*
X842288Y598057D01*
Y590272D02*
Y593864D01*
X831131Y582708D02*
X839748Y591324D01*
Y595517D01*
X842288Y593864D02*
X844828Y596404D01*
X820209Y571786D02*
X828591Y580168D01*
X832184D02*
X842288Y590272D01*
X828591Y580168D02*
X832184D01*
X757325Y734600D02*
X760373Y731552D01*
X789583Y566452D02*
Y571024D01*
X841399Y624364D02*
Y628682D01*
X842288Y598057D02*
Y623475D01*
X841399Y624364D02*
X842288Y623475D01*
X800831Y571023D02*
X807038D01*
X850543Y565511D02*
Y647260D01*
X848003Y569246D02*
Y648248D01*
X807802Y571786D02*
X820209D01*
X807038Y571023D02*
X807802Y571786D01*
X800068D02*
X800831Y571023D01*
X857147Y539274D02*
Y649881D01*
X805986Y573563D02*
X806749Y574326D01*
X801883Y573563D02*
X805986D01*
X801120Y574326D02*
X801883Y573563D01*
X793937Y571786D02*
X800068D01*
X792885Y574326D02*
X801120D01*
X806749D02*
X816253D01*
X792123Y564783D02*
Y569972D01*
X793937Y571786D01*
X789583Y571024D02*
X792885Y574326D01*
X711859Y706406D02*
X731925Y726472D01*
X749451D01*
X711859Y647478D02*
Y706406D01*
X705636Y641255D02*
X711859Y647478D01*
X673485Y641255D02*
X705636D01*
X668679Y635794D02*
Y636448D01*
X673485Y641255D01*
X678331Y567468D02*
X716304D01*
X726718Y577882D01*
X658265Y587534D02*
X678331Y567468D01*
X651661Y587534D02*
X658265D01*
X651280Y587915D02*
X651661Y587534D01*
X622705Y587915D02*
X651280D01*
X611402Y576612D02*
X622705Y587915D01*
X570408Y576618D02*
X570528Y576739D01*
X574647D02*
X574774Y576612D01*
X567157Y576618D02*
X570408D01*
X574774Y576612D02*
X611402D01*
X566623Y576084D02*
X567157Y576618D01*
X570528Y576739D02*
X574647D01*
X584641Y548672D02*
X588179Y552210D01*
X468261Y547957D02*
X478088Y538131D01*
X680347Y535591D02*
X682633Y533305D01*
X681399Y538131D02*
X683685Y535845D01*
X507693Y533051D02*
X679295D01*
X478088Y538131D02*
X681399D01*
X477036Y535591D02*
X680347D01*
X679295Y533051D02*
X681581Y530765D01*
X462215Y532326D02*
X506968D01*
X467893Y544734D02*
X477036Y535591D01*
X506968Y532326D02*
X507693Y533051D01*
X682633Y533305D02*
X694932D01*
X696273Y530221D02*
Y531963D01*
X681581Y530765D02*
X687293D01*
X694932Y533305D02*
X696273Y531963D01*
X692046Y529658D02*
X692336Y529368D01*
X687293Y530765D02*
X688399Y529658D01*
X692046D01*
X628801Y563150D02*
X649375Y583724D01*
X583299Y563150D02*
X628801D01*
X607465Y560610D02*
X616101Y551974D01*
X664615D01*
X584351Y560610D02*
X607465D01*
X600117Y552210D02*
X607973Y544354D01*
X597323Y549670D02*
X605179Y541814D01*
X585693Y546132D02*
X589231Y549670D01*
X584859Y557308D02*
X606957D01*
X588179Y552210D02*
X600117D01*
X587127Y554750D02*
X604181D01*
X589231Y549670D02*
X597323D01*
X1211323Y775556D02*
X1212555D01*
X1200805Y786074D02*
X1211323Y775556D01*
X1200805Y786074D02*
Y791246D01*
X1200555Y791496D02*
X1200805Y791246D01*
X1195647Y786147D02*
Y789180D01*
X1201229Y780536D02*
Y780565D01*
X1195647Y786147D02*
X1201229Y780565D01*
X658519Y816134D02*
X664615Y810038D01*
X658519Y905770D02*
X663565Y910816D01*
X658519Y816134D02*
Y905770D01*
X782725Y827310D02*
X787325Y822710D01*
X775248Y827310D02*
X782725D01*
X772925Y829632D02*
X775248Y827310D01*
X834434Y813086D02*
X924528D01*
X831147Y809799D02*
X834434Y813086D01*
X924528D02*
X928719Y808895D01*
X1262277Y906050D02*
Y955580D01*
X889405Y1137952D02*
X900581Y1149128D01*
X992529D01*
X1008281Y1133376D02*
X1008785Y1132872D01*
X992529Y1149128D02*
X1008281Y1133376D01*
X1008785Y1132872D02*
X1016405D01*
X1007007Y1141508D02*
Y1146588D01*
X1014373Y1153827D02*
X1508633D01*
X1013357Y1138968D02*
Y1146080D01*
X1016151Y1148874D01*
X1013103Y1138714D02*
X1013357Y1138968D01*
X836827Y652050D02*
Y652121D01*
X836023Y652925D02*
X836827Y652121D01*
X833483Y652925D02*
X836023D01*
X832598Y653810D02*
X833483Y652925D01*
X830205Y653810D02*
X832598D01*
X788059Y564928D02*
X789583Y566452D01*
X766796Y559848D02*
X790417D01*
X789111Y562388D02*
X790762Y564039D01*
X792370Y556546D02*
X793179Y555737D01*
X738041Y556546D02*
X792370D01*
X790762Y564039D02*
X791379D01*
X677569Y564928D02*
X788059D01*
X794936Y561499D02*
X799501Y556935D01*
X792068Y561499D02*
X794936D01*
X799501Y556342D02*
Y556935D01*
X790417Y559848D02*
X792068Y561499D01*
X678966Y562388D02*
X789111D01*
X766034Y559086D02*
X766796Y559848D01*
X666012Y549434D02*
X678966Y562388D01*
X664615Y551974D02*
X677569Y564928D01*
X733195Y559086D02*
X766034D01*
X710101Y528606D02*
X738041Y556546D01*
X705509Y531400D02*
X733195Y559086D01*
X606957Y557308D02*
X614831Y549434D01*
X666012D01*
X476183Y595444D02*
X487069Y584558D01*
X473607Y594428D02*
X484529Y583506D01*
X469035Y595408D02*
X481989Y582454D01*
X476183Y595444D02*
Y611664D01*
X452187Y615391D02*
X457267Y620471D01*
X467376D02*
X476183Y611664D01*
X436815Y608526D02*
X443680Y615391D01*
X452187D01*
X457267Y620471D02*
X467376D01*
X466324Y617931D02*
X473607Y610648D01*
Y594428D02*
Y610648D01*
X449223Y608834D02*
X458319Y617931D01*
X449223Y595534D02*
Y608834D01*
X458319Y617931D02*
X466324D01*
X840304Y656954D02*
X844476Y652782D01*
X843460Y664574D02*
X852096Y655939D01*
X836820Y662034D02*
X842408D01*
X849556Y654887D01*
X838308Y659494D02*
X841356D01*
X847016Y653835D01*
Y652827D02*
Y653835D01*
X850543Y647260D02*
Y649301D01*
X853083Y559848D02*
Y650353D01*
X847016Y652827D02*
X850543Y649301D01*
X849556Y653879D02*
Y654887D01*
Y653879D02*
X853083Y650353D01*
X844476Y651775D02*
X848003Y648248D01*
X852096Y654931D02*
X857147Y649881D01*
X844476Y651775D02*
Y652782D01*
X852096Y654931D02*
Y655939D01*
X835557Y542322D02*
X853083Y559848D01*
X823873Y545116D02*
X848003Y569246D01*
X815872Y530840D02*
X850543Y565511D01*
X804569Y544862D02*
X804823Y545116D01*
X823873D01*
X815872Y512985D02*
Y530840D01*
X805585Y502952D02*
X815618Y512985D01*
X815745Y512858D02*
X815872Y512985D01*
X779677Y502952D02*
X805585D01*
X819879Y502006D02*
X857147Y539274D01*
X791379Y564039D02*
X792123Y564783D01*
X604181Y554750D02*
X612291Y546640D01*
X585621Y546132D02*
X585693D01*
X436815Y583126D02*
X449223Y595534D01*
X462215Y598418D02*
Y604006D01*
Y598418D02*
X465225Y595408D01*
X460907Y605314D02*
X462215Y604006D01*
X465225Y595408D02*
X469035D01*
X607973Y544354D02*
X610985D01*
X611239Y544100D01*
X610187Y541560D02*
X682782D01*
X611239Y544100D02*
X687983D01*
X609933Y541814D02*
X610187Y541560D01*
X605179Y541814D02*
X609933D01*
X692682Y546640D02*
X697000Y542322D01*
X612291Y546640D02*
X692682D01*
X682782Y541560D02*
X685068Y539274D01*
X687983Y544100D02*
X693698Y538385D01*
X699012D01*
X701699Y535698D01*
Y535464D02*
Y535698D01*
X475131Y551212D02*
Y570210D01*
X462215Y583126D02*
X475131Y570210D01*
X700429Y531400D02*
X705509D01*
X695984Y535845D02*
X700429Y531400D01*
X683685Y535845D02*
X695984D01*
X696273Y530221D02*
X697889Y528606D01*
X710101D01*
X446583Y547957D02*
X468261D01*
X436815Y557726D02*
X446583Y547957D01*
X436815Y532326D02*
X449223Y544734D01*
X467893D01*
X755547Y544862D02*
X804569D01*
X753261Y542576D02*
X755547Y544862D01*
X715568Y792625D02*
X717390D01*
X716620Y795165D02*
X718442D01*
X713891Y797894D02*
X716620Y795165D01*
X711351Y796842D02*
X715568Y792625D01*
X708811Y795789D02*
X714399Y790201D01*
Y789972D02*
Y790201D01*
X706271Y794737D02*
X707231Y793777D01*
Y793547D02*
Y793777D01*
X723171Y816262D02*
X740561Y798873D01*
Y778796D02*
Y798873D01*
X716048Y816262D02*
X723171D01*
X1508633Y1153827D02*
X1511300Y1151160D01*
X1393849Y1062768D02*
Y1078770D01*
Y1062768D02*
X1396135Y1060482D01*
Y1018338D02*
Y1060482D01*
X1386483Y1008686D02*
X1396135Y1018338D01*
X1386483Y1003332D02*
Y1008686D01*
X1411629Y1128554D02*
X1423313Y1116870D01*
X1411629Y1128554D02*
Y1130586D01*
X1423313Y1076103D02*
Y1116870D01*
X1419503Y1031526D02*
Y1072293D01*
X1423313Y1076103D01*
X1415185Y1021874D02*
Y1027208D01*
X1419503Y1031526D01*
X1407438Y1051719D02*
X1410613Y1054894D01*
X1407438Y1004965D02*
Y1051719D01*
X1399963Y997490D02*
X1407438Y1004965D01*
X1358289Y997490D02*
X1399963D01*
X772268Y726154D02*
X776672D01*
X1424583Y982764D02*
Y983520D01*
Y982764D02*
X1426869Y980478D01*
Y916210D02*
Y980478D01*
X1461231Y1004094D02*
X1502795Y962529D01*
X1411375Y1004094D02*
X1461231D01*
X1475065Y1013238D02*
X1505335Y982967D01*
X1411375Y1013238D02*
X1475065D01*
X797255Y1008666D02*
X801075Y1012486D01*
X637834Y797211D02*
X641771Y801148D01*
X627817Y778034D02*
X643512Y793730D01*
X640856Y803825D02*
X644504D01*
X638886Y794671D02*
X642823Y798608D01*
X565047Y778034D02*
X627817D01*
X636782Y799751D02*
X640856Y803825D01*
X650054Y801148D02*
X657293Y793909D01*
X642823Y798608D02*
X649002D01*
X641771Y801148D02*
X650054D01*
X1368698Y792639D02*
X1405790Y755547D01*
X1266170Y779204D02*
X1266706Y778669D01*
X1245621Y779204D02*
X1266170D01*
X1255180Y781744D02*
X1267222D01*
X1267758Y781209D01*
X1551310Y888544D02*
X1557469Y894703D01*
X1530367Y887770D02*
X1532829Y890232D01*
Y891131D02*
X1534625Y892926D01*
X1530367Y887127D02*
Y887770D01*
X1557469Y894703D02*
Y904982D01*
X1532829Y890232D02*
Y891131D01*
X1466871Y707062D02*
X1475633Y715824D01*
X1459330Y707062D02*
X1466871D01*
X1588282Y871653D02*
Y900890D01*
X1585742Y870601D02*
Y899837D01*
X1607388Y807899D02*
X1609730Y805557D01*
X1588282Y814781D02*
X1593220Y809843D01*
X1599480Y807303D02*
X1600076Y807899D01*
X1586000Y867081D02*
Y870343D01*
X1599024Y810439D02*
X1617592D01*
X1588282Y871653D02*
X1588540Y871395D01*
X1588282Y814781D02*
Y865771D01*
X1588540Y866029D02*
Y871395D01*
X1598428Y809843D02*
X1599024Y810439D01*
X1588282Y865771D02*
X1588540Y866029D01*
X1585742Y813729D02*
X1592168Y807303D01*
X1585742Y866823D02*
X1586000Y867081D01*
X1600076Y807899D02*
X1607388D01*
X1585742Y870601D02*
X1586000Y870343D01*
X1585742Y813729D02*
Y866823D01*
X1592168Y807303D02*
X1599480D01*
X1593220Y809843D02*
X1598428D01*
X1488222Y670157D02*
X1488270D01*
X1495035Y676922D02*
Y677974D01*
X1488270Y670157D02*
X1495035Y676922D01*
X1505141Y689110D02*
X1514368Y679883D01*
X1501156Y689110D02*
X1505141D01*
X1432874Y875459D02*
X1697157Y611176D01*
X1787165Y501574D02*
Y517576D01*
X1685945Y694718D02*
Y702616D01*
X1681631Y690404D02*
X1685945Y694718D01*
X1681631Y682276D02*
X1702205Y661702D01*
X1681631Y682276D02*
Y690404D01*
X1702205Y616490D02*
Y661702D01*
X770279Y460026D02*
Y484664D01*
X764183Y490760D02*
X770279Y484664D01*
X762659Y490760D02*
X764183D01*
X753261Y500158D02*
Y542576D01*
Y500158D02*
X762659Y490760D01*
X768882Y722769D02*
X772268Y726154D01*
X775800Y742021D02*
Y754225D01*
X758313Y771712D02*
X775800Y754225D01*
X706271Y794737D02*
Y799132D01*
X702930Y792524D02*
X703294Y792160D01*
X708811Y795789D02*
Y801910D01*
X702930Y792524D02*
Y798880D01*
X697909Y807091D02*
X698312D01*
X706271Y799132D01*
X711351Y796842D02*
Y806736D01*
X713891Y797894D02*
Y807788D01*
X685195Y816879D02*
X685975Y817658D01*
X698118D02*
X701066Y814711D01*
X681155Y817658D02*
X681934Y816879D01*
X698961Y809631D02*
X701090D01*
X696014Y812578D02*
X698961Y809631D01*
X679830Y811799D02*
X687300D01*
X679051Y812578D02*
X679830Y811799D01*
X671803Y812578D02*
X679051D01*
X663565Y820816D02*
X671803Y812578D01*
X680103Y815118D02*
X680882Y814339D01*
X687300Y811799D02*
X688079Y812578D01*
X664615Y810038D02*
X677999D01*
X688352Y809259D02*
X689131Y810038D01*
X685975Y817658D02*
X698118D01*
X687027Y815118D02*
X697066D01*
X701090Y809631D02*
X708811Y801910D01*
X679604Y817658D02*
X681155D01*
X678839Y818423D02*
X679604Y817658D01*
X668679Y819294D02*
X672855Y815118D01*
X697066D02*
X700014Y812171D01*
X672855Y815118D02*
X680103D01*
X678778Y809259D02*
X688352D01*
X668679Y819294D02*
Y895702D01*
X694962Y810038D02*
X697909Y807091D01*
X686248Y814339D02*
X687027Y815118D01*
X677999Y810038D02*
X678778Y809259D01*
X688079Y812578D02*
X696014D01*
X701066Y814711D02*
X706968D01*
X702118Y817251D02*
X715060D01*
X700014Y812171D02*
X705916D01*
X698657Y820712D02*
X702118Y817251D01*
X698657Y820712D02*
Y822071D01*
X681934Y816879D02*
X685195D01*
X680882Y814339D02*
X686248D01*
X705916Y812171D02*
X711351Y806736D01*
X706968Y814711D02*
X713891Y807788D01*
X668672Y799624D02*
X702187D01*
X702930Y798880D01*
X670502Y796221D02*
X671037Y795687D01*
X666471Y796957D02*
X667206Y796221D01*
X664213Y796957D02*
X666471D01*
X656241Y791369D02*
X672287D01*
X675462Y794544D02*
X684681D01*
X666513Y801783D02*
X668672Y799624D01*
X667206Y796221D02*
X670502D01*
X672287Y791369D02*
X675462Y794544D01*
X661059Y801783D02*
X666513D01*
X661186Y793909D02*
X664107Y796830D01*
X657293Y793909D02*
X661186D01*
X649002Y798608D02*
X656241Y791369D01*
X684681Y794544D02*
X684935Y794290D01*
X1415947Y905288D02*
X1426869Y916210D01*
X1415439Y905288D02*
X1415947D01*
X1469668Y988473D02*
X1494475Y963665D01*
X1500255Y880580D02*
Y961477D01*
X1404121Y991013D02*
X1470720D01*
X1502795Y881632D02*
Y962529D01*
X1470720Y991013D02*
X1500255Y961477D01*
X1405173Y988473D02*
X1469668D01*
X1494475Y882768D02*
Y963665D01*
X1402744Y989636D02*
X1404121Y991013D01*
X1348357Y989636D02*
X1402744D01*
X1403796Y987096D02*
X1405173Y988473D01*
X1523077Y871368D02*
X1527311Y867134D01*
X1532931D02*
X1537165Y862901D01*
X1535276Y873079D02*
X1546570Y861785D01*
X1524129Y873908D02*
X1524959Y873079D01*
X1535276D01*
X1527801Y880953D02*
X1528104Y880650D01*
X1561757D02*
X1562501Y879906D01*
Y868986D02*
Y879906D01*
X1510519Y873908D02*
X1524129D01*
X1537165Y853496D02*
Y862901D01*
X1509467Y871368D02*
X1523077D01*
X1528104Y880650D02*
X1561757D01*
X1527311Y867134D02*
X1532931D01*
X1505335Y886367D02*
X1510750Y880953D01*
X1527801D01*
X1502795Y881632D02*
X1510519Y873908D01*
X1500255Y880580D02*
X1509467Y871368D01*
X1710979Y864784D02*
X1729165D01*
X1764424Y802565D02*
X1764685D01*
X1714066Y852923D02*
X1764424Y802565D01*
X1713805Y852923D02*
X1714066D01*
X1625112Y882956D02*
Y890397D01*
X1682919Y771404D02*
X1706082Y794567D01*
X1656608Y748241D02*
X1679771Y771404D01*
X1682919D01*
X1706082Y794567D02*
Y818703D01*
X1621072Y569566D02*
Y584694D01*
X1642535Y507869D02*
X1643150Y508484D01*
Y514692D01*
X1642535Y488926D02*
Y507869D01*
X1637709Y516540D02*
X1640610Y513639D01*
X1637709Y516540D02*
Y552929D01*
X1642535Y515307D02*
Y575931D01*
Y515307D02*
X1643150Y514692D01*
X1637709Y458752D02*
Y506635D01*
X1640610Y509536D01*
Y513639D01*
X1670582Y657872D02*
Y660412D01*
X1673483Y654971D02*
X1677586D01*
X1680330Y655091D02*
X1680865Y655626D01*
X1663470Y667524D02*
X1670582Y660412D01*
X1677707Y655091D02*
X1680330D01*
X1677586Y654971D02*
X1677707Y655091D01*
X1670582Y657872D02*
X1673483Y654971D01*
X1698187Y733987D02*
X1698721Y733452D01*
Y730505D02*
Y733452D01*
X1699812Y724103D02*
Y729415D01*
X1698721Y730505D02*
X1699812Y729415D01*
X1663470Y667524D02*
Y671263D01*
X1656608Y678125D02*
X1663470Y671263D01*
X1684588Y731198D02*
Y733879D01*
X1685945Y720396D02*
Y729842D01*
X1684054Y734414D02*
X1684588Y733879D01*
Y731198D02*
X1685945Y729842D01*
X1673753Y823393D02*
Y864180D01*
X1717301Y793548D02*
X1855617D01*
X1713805Y797043D02*
X1717301Y793548D01*
X1548028Y941143D02*
X1588282Y900890D01*
X1548028Y941143D02*
Y964749D01*
X1545488Y940091D02*
Y965801D01*
Y940091D02*
X1585742Y899837D01*
X1530376Y991778D02*
X1536485Y997888D01*
X1541452Y995348D02*
X1544713D01*
X1547020Y967332D02*
Y993041D01*
X1536485Y997888D02*
X1545765D01*
X1549559Y966280D02*
Y994093D01*
X1544713Y995348D02*
X1547020Y993041D01*
X1539705Y988033D02*
X1543082Y991411D01*
X1537165Y991061D02*
X1541452Y995348D01*
X1545765Y997888D02*
X1549559Y994093D01*
X1548028Y964749D02*
X1549559Y966280D01*
X1583823Y1026464D02*
X1597065Y1013222D01*
X1557425Y1054640D02*
X1571123Y1040942D01*
X1554885Y1053588D02*
Y1055402D01*
X1582009Y1026464D02*
X1583823D01*
X1571123Y1040942D02*
X1572937D01*
X1557425Y1054640D02*
Y1068138D01*
X1572937Y1040942D02*
X1598101Y1015778D01*
X1591711Y1027736D02*
Y1031800D01*
X1554885Y1053588D02*
X1582009Y1026464D01*
X834765Y1018437D02*
X840130D01*
X834424Y1018778D02*
X834765Y1018437D01*
X800289Y1018885D02*
X817281D01*
X733565Y1020816D02*
X737997D01*
X817387Y1018778D02*
X834424D01*
X817281Y1018885D02*
X817387Y1018778D01*
X795277Y1013873D02*
X800289Y1018885D01*
X741934Y1016879D02*
X755195D01*
X758202Y1013873D02*
X795277D01*
X755195Y1016879D02*
X758202Y1013873D01*
X737997Y1020816D02*
X741934Y1016879D01*
X792016Y1022175D02*
X817582D01*
X818439Y1021318D01*
X787694Y1024753D02*
X790618Y1021829D01*
X747502Y1024753D02*
X787694D01*
X791670Y1021829D02*
X792016Y1022175D01*
X790618Y1021829D02*
X791670D01*
X835476Y1021318D02*
X835817Y1020977D01*
X839078D02*
X839848Y1021747D01*
X818439Y1021318D02*
X835476D01*
X835817Y1020977D02*
X839078D01*
X743565Y1020816D02*
X747502Y1024753D01*
X796126Y1041065D02*
X799856D01*
X786337Y1041323D02*
X787626Y1040035D01*
X795096D02*
X796126Y1041065D01*
X799856D02*
X803553Y1037368D01*
X787626Y1040035D02*
X795096D01*
X803553Y1037368D02*
X821587D01*
X768915Y1037909D02*
X771389D01*
X767485Y1039339D02*
X768915Y1037909D01*
X739036Y1039339D02*
X767485D01*
X736576Y1036879D02*
X739036Y1039339D01*
X771389Y1037909D02*
X772819Y1036479D01*
X701934Y1034753D02*
X715195D01*
X719897Y1032716D02*
X724060Y1036879D01*
X821587Y1037368D02*
X826965Y1031990D01*
X717232Y1032716D02*
X719897D01*
X715195Y1034753D02*
X717232Y1032716D01*
X698017Y1029700D02*
Y1030835D01*
X701934Y1034753D01*
X693565Y1025248D02*
X698017Y1029700D01*
X693565Y1020816D02*
Y1025248D01*
X794044Y1042575D02*
X795074Y1043605D01*
X787389Y1043864D02*
X788678Y1042575D01*
X794044D01*
X711934Y1044753D02*
X715195D01*
X769771Y1041879D02*
X771201Y1040449D01*
X772441D01*
X778518Y1039019D02*
X779262Y1039763D01*
X772441Y1040449D02*
X773871Y1039019D01*
X778518D01*
X705311Y1038130D02*
X711934Y1044753D01*
X693565Y1030816D02*
X700879Y1038130D01*
X705311D01*
X788441Y1046404D02*
X789730Y1045115D01*
X782383Y1047909D02*
X783888Y1046404D01*
X788441D01*
X711934Y1054753D02*
X715195D01*
X717502Y1052447D01*
X709628D02*
X711934Y1054753D01*
X709628Y1049306D02*
Y1052447D01*
X769098Y1047909D02*
X782383D01*
X717502Y1050673D02*
Y1052447D01*
Y1050673D02*
X720462Y1047713D01*
X765942Y1044753D02*
X769098Y1047909D01*
X705020Y1044753D02*
X709573Y1049306D01*
X789730Y1045115D02*
X792991D01*
X794280Y1046404D01*
X701934Y1044753D02*
X705020D01*
X688745Y1020068D02*
X693104Y1015709D01*
X688745Y1031563D02*
X701934Y1044753D01*
X688745Y1020068D02*
Y1031563D01*
X698671Y1015709D02*
X703565Y1010816D01*
X693104Y1015709D02*
X698671D01*
X828837Y1025303D02*
X828927Y1025212D01*
X806474Y1025303D02*
X828837D01*
X798984Y1032793D02*
X806474Y1025303D01*
X771396Y1032669D02*
X798859D01*
X798984Y1032793D01*
X769313Y1034753D02*
X771396Y1032669D01*
X754531Y1008666D02*
X797255D01*
X752744Y1006879D02*
X754531Y1008666D01*
X751934Y1034753D02*
X769313D01*
X748565Y1031384D02*
X751934Y1034753D01*
X1532760Y1092803D02*
X1557425Y1068138D01*
X1530220Y1091751D02*
Y1128648D01*
X1554796Y1055491D02*
Y1067175D01*
X1532760Y1092803D02*
Y1129851D01*
X1530220Y1091751D02*
X1554796Y1067175D01*
X1511300Y1151160D02*
X1511451D01*
X1532760Y1129851D01*
X1554796Y1055491D02*
X1554885Y1055402D01*
X1680430Y1015778D02*
X1681920Y1014288D01*
X1598101Y1015778D02*
X1680430D01*
X1597065Y1013222D02*
X1679394D01*
X1681920Y1014288D02*
X1681920D01*
X1606327Y789563D02*
Y790101D01*
X1603653Y786670D02*
Y786888D01*
X1606327Y789563D01*
Y790101D02*
X1609730Y793504D01*
X1617592Y810439D02*
X1620897Y807134D01*
X1562531Y814761D02*
X1571970Y824200D01*
X1574510Y848817D02*
Y864985D01*
X1577050Y863932D02*
X1577995Y864877D01*
X1571970Y824200D02*
Y859517D01*
X1577050Y849869D02*
X1577995Y848924D01*
X1574510Y848817D02*
X1575455Y847872D01*
X1574510Y864985D02*
X1575179Y865654D01*
X1562501Y868986D02*
X1571970Y859517D01*
X1577050Y849869D02*
Y863932D01*
X1575455Y803791D02*
Y847872D01*
X1577995Y804843D02*
Y848924D01*
X1566485Y875399D02*
X1575179Y866706D01*
X1577995Y864877D02*
Y871038D01*
X1575179Y865654D02*
Y866706D01*
X1577995Y804843D02*
X1588164Y794674D01*
X1246960Y570700D02*
X1272524Y545136D01*
X1482745D01*
X1495445Y532436D01*
X775845Y851948D02*
X776395D01*
X772637Y849408D02*
X775343D01*
X770533Y844328D02*
X773239D01*
X771585Y846868D02*
X774291D01*
X819879Y501819D02*
Y502006D01*
X725321Y872522D02*
X733703Y864140D01*
X725321Y872522D02*
Y877348D01*
X733703Y864140D02*
X763653D01*
X731381Y859060D02*
X759393D01*
X720241Y870200D02*
X731381Y859060D01*
X722781Y871252D02*
Y885600D01*
X720241Y870200D02*
Y887492D01*
X732433Y861600D02*
X760445D01*
X722781Y871252D02*
X732433Y861600D01*
X705724Y884753D02*
X717701Y872776D01*
Y859568D02*
Y872776D01*
Y859568D02*
X722273Y854996D01*
X719479Y849080D02*
Y854198D01*
X713565Y860112D02*
Y860816D01*
Y860112D02*
X719479Y854198D01*
X722273Y854996D02*
X759865D01*
X922044Y833533D02*
X952832Y802745D01*
X816064Y833533D02*
X922044D01*
X952832Y779885D02*
Y802745D01*
X949603Y779376D02*
Y802382D01*
X817116Y830993D02*
X920992D01*
X949603Y802382D01*
X830969Y820960D02*
X923659D01*
X924711Y823500D02*
X947063Y801148D01*
Y778324D02*
Y801148D01*
X944523Y777272D02*
Y800096D01*
X923659Y820960D02*
X944523Y800096D01*
X829917Y823500D02*
X924711D01*
X759865Y854996D02*
X770533Y844328D01*
X723215Y845344D02*
X764604D01*
X763653Y864140D02*
X775845Y851948D01*
X759393Y859060D02*
X771585Y846868D01*
X760445Y861600D02*
X772637Y849408D01*
X720241Y887492D02*
X733565Y900816D01*
X722781Y885600D02*
X731934Y894753D01*
X725321Y877602D02*
Y882174D01*
X811619Y829088D02*
X816064Y833533D01*
X812671Y826548D02*
X817116Y830993D01*
X725339Y882590D02*
X733565Y890816D01*
X735403Y894753D02*
X739340Y890816D01*
X731934Y894753D02*
X735403D01*
X739340Y890816D02*
X743565D01*
X829536Y823119D02*
X829917Y823500D01*
X826274Y823119D02*
X829536D01*
X825893Y823500D02*
X826274Y823119D01*
X825222Y820579D02*
X830588D01*
X830969Y820960D01*
X824841D02*
X825222Y820579D01*
X689628Y884753D02*
X705724D01*
X683565Y890816D02*
X689628Y884753D01*
X707795Y775240D02*
X711351Y778796D01*
X562093Y775240D02*
X707795D01*
X554887Y788194D02*
X565047Y778034D01*
X644504Y803825D02*
X645819Y805140D01*
X657503Y805339D02*
X661059Y801783D01*
X832792Y806854D02*
X834434Y805212D01*
X837695D02*
X838948Y806464D01*
X838748Y802672D02*
X840000Y803924D01*
X719479Y849080D02*
X723215Y845344D01*
X1336695Y772466D02*
X1363365Y745796D01*
X1208749Y773016D02*
X1211503D01*
X1201229Y780536D02*
X1208749Y773016D01*
X1211503D02*
X1212053Y772466D01*
X704060Y1026879D02*
X745195D01*
X699628Y1022447D02*
X704060Y1026879D01*
X699628Y1019185D02*
Y1022447D01*
Y1019185D02*
X703545Y1015268D01*
X748565Y1030248D02*
Y1031384D01*
X745195Y1026879D02*
X748565Y1030248D01*
X703545Y1015268D02*
X704681D01*
X709133Y1010816D01*
X713565D01*
X713925Y1016506D02*
X717930Y1012501D01*
Y1010883D02*
X721934Y1006879D01*
X717930Y1010883D02*
Y1012501D01*
X721934Y1006879D02*
X752744D01*
X707875Y1016506D02*
X713925D01*
X744777Y1010444D02*
X752717D01*
X738342Y1016879D02*
X744777Y1010444D01*
X703565Y1020816D02*
X707875Y1016506D01*
X717502Y1016879D02*
X738342D01*
X713565Y1020816D02*
X717502Y1016879D01*
X933347Y739934D02*
Y783006D01*
X909889Y806464D02*
X933347Y783006D01*
X834434Y805212D02*
X837695D01*
X906931Y800132D02*
X919504Y787559D01*
X717502Y834753D02*
X761312D01*
X713565Y830816D02*
X717502Y834753D01*
X924584Y738029D02*
Y777760D01*
X922044Y780300D02*
X924584Y777760D01*
X907203Y803924D02*
X922044Y789083D01*
X919504Y779248D02*
Y787559D01*
X922044Y780300D02*
Y789083D01*
X919504Y779248D02*
X920647Y778105D01*
X733565Y820816D02*
X737502Y824753D01*
X736036Y826879D02*
X736450Y827293D01*
X727502Y826879D02*
X736036D01*
X723565Y830816D02*
X727502Y826879D01*
X783420Y777854D02*
X783741Y778175D01*
X783420Y745177D02*
Y777854D01*
X715008Y822738D02*
X724559D01*
X723914Y819791D02*
X730873Y812832D01*
X724559Y822738D02*
X732433Y814864D01*
X714363Y819791D02*
X723914D01*
X780880Y744125D02*
Y757019D01*
X759365Y774252D02*
X778340Y755277D01*
X785960Y776802D02*
X786535Y777377D01*
X785960Y746229D02*
Y776802D01*
X761107Y776792D02*
X780880Y757019D01*
X778340Y743073D02*
Y755277D01*
X730873Y812832D02*
X730909D01*
X731798Y811943D01*
X709029Y825125D02*
X714363Y819791D01*
X703630Y825125D02*
X709029D01*
X709065Y828681D02*
X715008Y822738D01*
X709065Y828681D02*
Y860884D01*
X705195Y864753D02*
X709065Y860884D01*
X704060Y864753D02*
X705195D01*
X699628Y869185D02*
X704060Y864753D01*
X699628Y869185D02*
Y874753D01*
X693565Y880816D02*
X699628Y874753D01*
X697502Y831253D02*
Y866879D01*
X690523Y825532D02*
X695195D01*
X698657Y822071D01*
X697502Y831253D02*
X703630Y825125D01*
X715060Y817251D02*
X716048Y816262D01*
X693565Y870816D02*
X697502Y866879D01*
X742565Y776792D02*
X761107D01*
X740561Y778796D02*
X742565Y776792D01*
X688745Y827310D02*
X690523Y825532D01*
X688745Y827310D02*
Y865636D01*
X683565Y870816D02*
X688745Y865636D01*
X775105Y507524D02*
Y534956D01*
Y507524D02*
X779677Y502952D01*
X678839Y818423D02*
Y885542D01*
X673565Y890816D02*
X678839Y885542D01*
X663565Y900816D02*
X668679Y895702D01*
X652550Y805339D02*
X657503D01*
X619756Y790490D02*
X622100Y788146D01*
X622296Y793038D02*
X624648Y790686D01*
X648522Y809276D02*
Y898848D01*
X648613Y809276D02*
X652550Y805339D01*
X648522Y898848D02*
X649956Y900281D01*
X653030D01*
X653565Y900816D01*
X625499Y807182D02*
X637502Y819185D01*
Y892447D01*
X605941Y783622D02*
X617216Y794897D01*
X622451Y805792D02*
Y814134D01*
X627502Y819185D01*
Y886879D01*
X623565Y890816D02*
X627502Y886879D01*
X630579Y895636D02*
X634313D01*
X637502Y892447D01*
X618387Y917734D02*
X620419Y915702D01*
X618387Y917734D02*
Y925638D01*
X623565Y930816D01*
X628039Y898176D02*
X630579Y895636D01*
X628039Y898176D02*
Y906342D01*
X623565Y910816D02*
X628039Y906342D01*
X569365Y800640D02*
X574445Y805720D01*
X601369D01*
X608481Y812832D01*
Y845732D01*
X613565Y850816D01*
X623059Y900310D02*
Y900816D01*
X580541Y786162D02*
Y794290D01*
Y786162D02*
X583081Y783622D01*
X605941D01*
X623059Y900816D02*
X623565D01*
X1152545Y541198D02*
X1166387Y527356D01*
X1174026D01*
X1266845Y561428D02*
Y578156D01*
Y561428D02*
X1276787Y551486D01*
X1489095D01*
X1491546Y549034D02*
X1492444D01*
X1495073Y546406D01*
X1489095Y551486D02*
X1491546Y549034D01*
X1495073Y546406D02*
X1495384D01*
X1269385Y562480D02*
Y587046D01*
X1249982Y606449D02*
X1269385Y587046D01*
Y562480D02*
X1276569Y555296D01*
X1492905D02*
X1494175Y556566D01*
X1276569Y555296D02*
X1492905D01*
X1743091Y810349D02*
X1743216D01*
X1746118Y807447D01*
Y807322D02*
Y807447D01*
X1713805Y839635D02*
X1743091Y810349D01*
X1754812Y798628D02*
X1789699D01*
X1746118Y807322D02*
X1754812Y798628D01*
X1736212Y803344D02*
X1739113Y800443D01*
X1739628D01*
X1736212Y803344D02*
Y803859D01*
X1713725Y826346D02*
X1736212Y803859D01*
X1739628Y800443D02*
X1743983Y796088D01*
X1729165Y864784D02*
X1730593Y866212D01*
X1748024D01*
X1763415Y734924D02*
X1832165D01*
X1838979Y728110D01*
Y613210D02*
Y728110D01*
X1825173Y611176D02*
X1833622Y619625D01*
X1827221Y605316D02*
X1831085D01*
X1827148Y605242D02*
X1827221Y605316D01*
X1831085D02*
X1838979Y613210D01*
X1809915Y611176D02*
X1882523Y538568D01*
Y483996D02*
Y538568D01*
X1697157Y611176D02*
X1809915D01*
X1741165Y907896D02*
X1784781D01*
X1818228Y967765D02*
X1820534Y965459D01*
X1767381Y1019356D02*
X1818228Y968509D01*
X1821278Y965459D02*
X1853341Y933396D01*
X1818228Y967765D02*
Y968509D01*
X1820534Y965459D02*
X1821278D01*
X1787165Y501574D02*
X1808680Y480059D01*
X1539132Y1021188D02*
X1540498Y1022554D01*
Y1023310D01*
X1524165Y1048396D02*
X1529165Y1043396D01*
X1524165Y1048396D02*
Y1070396D01*
X1529165Y1043396D02*
X1559707D01*
X1602771Y1000331D01*
X1502060Y1092501D02*
X1524165Y1070396D01*
X1602771Y995068D02*
Y1000331D01*
Y995068D02*
X1618351Y979488D01*
X1607947Y995340D02*
X1620891Y982396D01*
X1607947Y995340D02*
Y995774D01*
X1769408Y844597D02*
X1772178Y841827D01*
Y830841D02*
Y841827D01*
X1769408Y828071D02*
X1772178Y830841D01*
X1769408Y814019D02*
Y828071D01*
X1484805Y1115641D02*
X1492427D01*
X1502060Y1106008D01*
Y1092501D02*
Y1106008D01*
X1475916Y1124530D02*
Y1132152D01*
Y1124530D02*
X1484805Y1115641D01*
X1618351Y949890D02*
Y979488D01*
Y949890D02*
X1624324Y943918D01*
Y891185D02*
X1625112Y890397D01*
X1624324Y891185D02*
Y943918D01*
X1620891Y976948D02*
X1625715Y972124D01*
X1620891Y976948D02*
Y982396D01*
X1626864Y892237D02*
X1634070Y885031D01*
X1629404Y893289D02*
Y947831D01*
X1633875Y894386D02*
X1643547D01*
X1629404Y893289D02*
X1653845Y868848D01*
X1626864Y892237D02*
Y944970D01*
X1628255Y948980D02*
X1629404Y947831D01*
X1643547Y894386D02*
X1673753Y864180D01*
X1305284Y749276D02*
X1305369D01*
X1308849Y745796D02*
X1312565D01*
X1305369Y749276D02*
X1308849Y745796D01*
X1403250Y753119D02*
Y754495D01*
Y753119D02*
X1404760Y751609D01*
X1400710Y752067D02*
X1402220Y750557D01*
X1400710Y752067D02*
Y753443D01*
X1371356Y779204D02*
X1398170Y752391D01*
X1372408Y781744D02*
X1400710Y753443D01*
X1398170Y712905D02*
Y752391D01*
X1381138Y748423D02*
X1386138D01*
X1388765Y745796D01*
X1354555Y775006D02*
X1381138Y748423D01*
X1522115Y1002368D02*
X1539132Y1019385D01*
Y1021188D01*
X1522115Y968554D02*
Y1002368D01*
X1591711Y1031800D02*
X1593997Y1034086D01*
X1669435D02*
X1684475D01*
X1593997D02*
X1669435D01*
X1643634Y1069753D02*
X1654183Y1080302D01*
X1643634Y1068929D02*
Y1069753D01*
X1641328Y1066623D02*
X1643634Y1068929D01*
X1640504Y1066623D02*
X1641328D01*
X1639463Y1065582D02*
X1640504Y1066623D01*
X1574185Y773930D02*
X1574312Y774056D01*
X1479951Y627178D02*
Y664264D01*
X1469568Y674646D02*
X1479951Y664264D01*
X1212555Y775556D02*
X1213105Y775006D01*
X1210451Y770476D02*
X1211001Y769926D01*
X1209399Y767936D02*
X1209949Y767386D01*
X1661367Y851012D02*
X1661671D01*
X1659275Y848920D02*
X1661367Y851012D01*
X1295802Y620321D02*
X1325884D01*
X1378147Y671424D02*
Y676464D01*
X1395115Y669258D02*
X1416020Y690163D01*
X1390543Y668278D02*
X1413480Y691215D01*
X1869193Y903396D02*
X1890165D01*
X1773192Y999396D02*
X1869193Y903396D01*
X1719165Y999396D02*
X1773192D01*
X1853341Y933396D02*
X1877165D01*
X1684475Y1034086D02*
X1719165Y999396D01*
X1744107Y1019356D02*
X1767381D01*
X1593760Y770285D02*
X1598928Y775453D01*
X1833622Y619625D02*
Y727169D01*
X1829803Y730987D02*
X1833622Y727169D01*
X1539705Y926339D02*
X1565041Y901003D01*
X1539705Y926339D02*
Y988033D01*
X1545488Y965801D02*
X1547020Y967332D01*
X1537165Y925286D02*
X1557469Y904982D01*
X1522115Y968554D02*
X1534625Y956044D01*
X1537165Y925286D02*
Y991061D01*
X1534625Y892926D02*
Y956044D01*
X1565041Y883992D02*
Y901003D01*
Y883992D02*
X1577995Y871038D01*
X1505335Y886367D02*
Y982967D01*
X1494475Y882768D02*
X1523385Y853858D01*
Y841876D02*
Y853858D01*
X1546570Y844091D02*
Y861785D01*
X1523385Y841876D02*
X1537165Y828096D01*
X1546570Y844091D02*
X1562565Y828096D01*
X1625715Y946118D02*
X1626864Y944970D01*
X1769408Y844597D02*
Y844828D01*
X1789699Y798628D02*
X1837197Y846126D01*
X1876445D01*
X1884065Y838506D01*
Y832156D02*
Y838506D01*
X1878985Y827076D02*
X1884065Y832156D01*
X1743983Y796088D02*
X1837837D01*
X1877715Y835966D01*
X1855617Y793548D02*
X1878985Y816916D01*
X1765955Y810566D02*
X1769408Y814019D01*
X1748024Y866212D02*
X1769408Y844828D01*
X1799319Y922434D02*
X1799366Y922481D01*
X1784781Y907896D02*
X1795552Y918667D01*
Y919533D02*
X1798454Y922434D01*
X1799319D01*
X1795552Y918667D02*
Y919533D01*
X1799366Y922481D02*
X1802158D01*
X1815485Y935808D02*
Y945058D01*
X1802158Y922481D02*
X1815485Y935808D01*
X1628255Y948980D02*
Y992142D01*
X1625715Y946118D02*
Y972124D01*
X1174153Y527229D02*
X1213866D01*
X1174026Y527356D02*
X1174153Y527229D01*
X1213866D02*
X1230965Y544328D01*
Y574596D01*
X1637178Y825390D02*
X1640225Y828436D01*
X1637178Y804002D02*
Y825390D01*
X1618635Y790391D02*
X1622160Y793916D01*
X1604224Y775453D02*
X1618635Y789864D01*
Y790391D01*
X1598928Y775453D02*
X1604224D01*
X1622160Y793916D02*
X1627093D01*
X1656608Y678125D02*
Y748241D01*
X1628160Y992238D02*
X1628255Y992142D01*
X1575455Y803791D02*
X1587112Y792134D01*
X1612205Y764547D02*
X1629845Y782186D01*
X1609730Y793504D02*
Y805557D01*
X1588164Y794674D02*
X1596469D01*
X1605757Y803962D01*
X1602792Y792134D02*
X1605793Y795134D01*
X1587112Y792134D02*
X1602792D01*
X1688485Y700076D02*
X1719527Y731118D01*
X1688485Y687376D02*
Y700076D01*
X1685945Y702616D02*
X1706265Y722936D01*
X1313835Y769926D02*
X1337965Y745796D01*
X1241225Y783601D02*
X1245621Y779204D01*
X1251986Y784939D02*
X1255180Y781744D01*
X1477860Y617526D02*
X1515765D01*
X1468453Y608119D02*
X1477860Y617526D01*
X1514368Y627074D02*
Y679883D01*
X1360072Y619277D02*
Y619331D01*
X1371230Y608119D02*
X1468453D01*
X1360072Y619277D02*
X1371230Y608119D01*
X1360072Y619331D02*
X1367030Y626289D01*
X1398170Y712905D02*
X1413480Y697595D01*
X1412156Y669964D02*
X1425595Y683402D01*
X1416020Y690163D02*
Y698647D01*
X1413480Y691215D02*
Y697595D01*
X1380383Y619304D02*
X1384828Y623749D01*
X1393083Y632004D02*
X1395115Y634036D01*
X1390543Y630754D02*
Y668278D01*
X1412156Y641171D02*
Y669964D01*
X1386078Y626289D02*
X1390543Y630754D01*
X1367030Y626289D02*
X1386078D01*
X1413480Y701187D02*
X1416020Y698647D01*
X1387130Y623749D02*
X1393083Y629702D01*
X1384828Y623749D02*
X1387130D01*
X1395115Y634036D02*
Y669258D01*
X1393083Y629702D02*
Y632004D01*
X1413480Y701187D02*
Y712409D01*
X1365613Y619304D02*
X1380383D01*
X1392067Y621082D02*
X1412156Y641171D01*
X1384447Y630226D02*
X1388003Y633782D01*
Y679608D01*
X1426357Y656388D02*
Y673660D01*
X1436654Y683957D01*
X1404760Y724721D02*
X1425595Y703886D01*
Y683402D02*
Y703886D01*
X1402220Y723669D02*
Y750557D01*
Y723669D02*
X1413480Y712409D01*
X1404760Y724721D02*
Y751609D01*
X1230677Y783601D02*
X1241225D01*
X1246960Y570700D02*
Y577721D01*
X1627093Y793916D02*
X1637178Y804002D01*
X1642535Y488926D02*
X1728565Y402896D01*
X1660545Y679756D02*
Y694996D01*
X1685945Y720396D01*
X1670705Y694996D02*
X1699812Y724103D01*
X1670705Y682296D02*
Y694996D01*
X1706265Y722936D02*
Y728616D01*
X1712063Y734414D01*
X1719527Y731118D02*
Y773007D01*
X1378147Y689464D02*
X1388003Y679608D01*
X1351628Y675946D02*
X1378147Y702464D01*
X1349649Y675946D02*
X1351628D01*
X1344061Y670358D02*
X1349649Y675946D01*
X1344061Y659690D02*
Y670358D01*
X1346601Y658638D02*
Y665022D01*
X1339235Y654864D02*
X1344061Y659690D01*
X1342791Y654828D02*
X1346601Y658638D01*
Y665022D02*
X1351543Y669964D01*
X1332123Y654864D02*
X1339235D01*
X1342791Y606350D02*
Y654828D01*
X1323562Y646303D02*
X1332123Y654864D01*
X1315693Y646303D02*
X1323562D01*
X1281765Y606284D02*
X1295802Y620321D01*
X1281765Y574596D02*
Y606284D01*
X1349395Y642672D02*
X1378147Y671424D01*
X1349395Y629464D02*
Y642672D01*
X1333139Y596698D02*
X1342791Y606350D01*
X1321530Y596698D02*
X1333139D01*
X1317645Y600583D02*
X1321530Y596698D01*
X1365143Y709982D02*
X1395525D01*
X1409543Y695964D01*
X1363747Y711378D02*
X1365143Y709982D01*
X1337965Y711378D02*
X1363747D01*
X1473347Y726238D02*
X1485539Y714046D01*
X1416196Y726238D02*
X1473347D01*
X1485539Y687470D02*
Y714046D01*
Y687470D02*
X1495035Y677974D01*
X1439513Y683957D02*
X1449330Y693773D01*
X1436654Y683957D02*
X1439513D01*
X1751425Y730987D02*
X1829803D01*
X1706082Y818703D02*
X1713725Y826346D01*
X1637709Y458752D02*
X1693565Y402896D01*
X1621072Y569566D02*
X1637709Y552929D01*
X1633772Y584694D02*
X1642535Y575931D01*
X1808680Y480059D02*
X1898564D01*
X1549230Y814761D02*
X1562531D01*
X1898564Y480059D02*
X1904627Y473996D01*
X1537165Y802696D02*
X1549230Y814761D01*
D60*
X1501213Y390140D02*
X1509677D01*
Y388024D01*
X1501213Y379560D01*
Y377444D01*
D61*
X644803Y1005872D02*
X688621D01*
X631341Y1006126D02*
X644803D01*
X628293Y1003078D02*
X631341Y1006126D01*
X628293Y995544D02*
Y1003078D01*
X623565Y990816D02*
X628293Y995544D01*
X688621Y1005872D02*
X693565Y1010816D01*
X1623731Y738436D02*
X1640737Y755441D01*
X1617950Y734158D02*
X1618017D01*
X1622294Y738436D01*
X1623731D01*
X1640737Y755441D02*
Y764318D01*
X1656227Y779808D01*
Y808510D01*
X1667973Y820256D01*
Y836984D01*
X1665455Y839502D02*
X1667973Y836984D01*
X1655215Y839502D02*
X1665455D01*
X1625112Y869605D02*
X1655215Y839502D01*
X1625112Y869605D02*
Y882956D01*
X1738015Y715200D02*
Y731698D01*
X1805862Y641712D02*
X1808712Y638862D01*
X1802336Y642866D02*
X1803491Y641712D01*
X1805862D01*
X1808712Y638862D02*
X1809262D01*
X1770556Y659914D02*
Y667788D01*
X1754480Y683865D02*
X1770556Y667788D01*
Y659914D02*
X1787604Y642866D01*
X1738015Y715200D02*
X1754480Y698735D01*
Y683865D02*
Y698735D01*
X1787604Y642866D02*
X1802336D01*
X1827148Y721384D02*
Y721934D01*
X1824362Y715742D02*
X1824499Y715605D01*
Y711186D02*
Y715605D01*
X1824362Y718598D02*
X1827148Y721384D01*
X1824362Y715742D02*
Y718598D01*
Y711050D02*
X1824499Y711186D01*
X1824362Y709007D02*
Y711050D01*
X1823252Y707896D02*
X1824362Y709007D01*
X1806209Y682243D02*
X1823252Y699285D01*
Y707896D01*
X1773251Y682243D02*
X1806209D01*
X1771165Y488396D02*
X1788967D01*
X1800967Y476396D01*
X1833165Y422396D02*
X1850537Y439768D01*
Y463932D01*
X1833165Y397090D02*
Y422396D01*
X1799165Y401845D02*
Y421396D01*
X1840465Y462696D02*
X1845667D01*
X1799165Y421396D02*
X1840465Y462696D01*
X1800967Y476396D02*
X1838073D01*
X1798337Y724334D02*
X1815485D01*
X1744365Y730033D02*
X1761676Y747345D01*
Y751376D01*
X1762065Y751765D01*
X1784229Y710226D02*
X1798337Y724334D01*
X1744365Y727000D02*
Y730033D01*
Y727000D02*
X1759351Y712014D01*
Y702616D02*
Y712014D01*
Y702616D02*
X1768776Y693191D01*
Y680612D02*
Y693191D01*
X1784229Y696795D02*
Y710226D01*
X1804094Y695456D02*
X1805285Y694266D01*
Y691226D02*
Y694266D01*
Y691226D02*
X1805325Y691186D01*
X1784229Y696795D02*
X1785568Y695456D01*
X1804094D01*
X1768776Y680612D02*
X1791317Y658070D01*
Y649242D02*
Y658070D01*
X1838073Y476396D02*
X1850537Y463932D01*
D62*
X643787Y1000594D02*
Y1005872D01*
Y1000594D02*
X653565Y990816D01*
X648110Y635279D02*
Y637820D01*
X644675Y641256D02*
X648110Y637820D01*
X643110Y642947D02*
X644675Y641382D01*
X648110Y635279D02*
X648159Y635231D01*
X644675Y641256D02*
Y641382D01*
D63*
X383437Y785654D02*
X436777D01*
X472409Y750021D01*
Y657311D02*
Y750021D01*
X413155Y514636D02*
X414171Y515652D01*
X414425Y515906D02*
Y617760D01*
X414171Y515652D02*
X414425Y515906D01*
X1454297Y636232D02*
Y658314D01*
X1449897Y631832D02*
X1454297Y636232D01*
X1415331Y668649D02*
X1436147Y689464D01*
X1415331Y627074D02*
Y668649D01*
X1436147Y676464D02*
X1454297Y658314D01*
D64*
X496213Y987076D02*
X509421Y1000284D01*
X301395Y859822D02*
X364133D01*
X293013D02*
X301395D01*
X464463Y987076D02*
X496213D01*
X432967Y955580D02*
X464463Y987076D01*
X432967Y915448D02*
Y955580D01*
X412393Y894874D02*
X432967Y915448D01*
X413023Y1002062D02*
X488847D01*
Y1001808D02*
Y1002062D01*
X410047Y986762D02*
X410107Y986822D01*
X409793Y986762D02*
X410047D01*
X412393Y878872D02*
Y894874D01*
X399185Y865664D02*
X412393Y878872D01*
X369975Y865664D02*
X399185D01*
X364133Y859822D02*
X369975Y865664D01*
X401411Y986762D02*
X409793D01*
X488847Y1002062D02*
X496467D01*
X410047Y999086D02*
X413023Y1002062D01*
X410047Y994128D02*
Y999086D01*
X409853Y993934D02*
X410047Y994128D01*
X409599Y986568D02*
X409793Y986762D01*
Y993620D01*
X401217Y986568D02*
X401411Y986762D01*
D66*
X1312315Y1031018D02*
X1312693Y1031396D01*
X1317348D01*
X1318487Y1030256D01*
X1322983D01*
X1328317Y1035590D01*
Y1065816D01*
X1318157Y1075976D02*
X1328317Y1065816D01*
X1249863Y1075976D02*
X1318157D01*
X1248466Y1077373D02*
X1249863Y1075976D01*
X1244210Y1076484D02*
X1245099Y1077373D01*
X1232051Y1076484D02*
X1244210D01*
X1243053Y1079278D02*
X1243942Y1080167D01*
X1249623D02*
X1250512Y1079278D01*
X1243942Y1080167D02*
X1249623D01*
X1230527Y1079278D02*
X1243053D01*
X1245099Y1077373D02*
X1248466D01*
X1250512Y1079278D02*
X1320697D01*
X1331111Y1068864D01*
X1225447Y1069880D02*
X1232051Y1076484D01*
X1106829Y1069880D02*
X1225447D01*
X1089049Y1087660D02*
X1106829Y1069880D01*
X1080665Y1102696D02*
X1110433Y1072928D01*
X1224177D01*
X1230527Y1079278D01*
X1070301Y1087660D02*
X1089049D01*
X1055265Y1102696D02*
X1070301Y1087660D01*
X1331679Y1031332D02*
Y1031569D01*
X1331111Y1032137D02*
X1331679Y1031569D01*
X1331111Y1032137D02*
Y1068864D01*
X550823Y786510D02*
X562093Y775240D01*
X550823Y786510D02*
Y791496D01*
X553385Y794058D01*
Y794312D01*
X553639D01*
X554125Y794798D01*
D67*
X954937Y1057180D02*
X1026576D01*
X1040477Y1043279D02*
X1181944D01*
X1026576Y1057180D02*
X1040477Y1043279D01*
X1277040Y862076D02*
X1304949D01*
X1315099D01*
X644295Y1007396D02*
Y1062928D01*
X680965Y1099598D01*
X770787D01*
X814094Y1142905D01*
X869212D01*
X954937Y1057180D01*
X1315099Y862076D02*
X1326783D01*
X1181944Y1043279D02*
X1188088Y1037135D01*
Y984044D02*
Y1037135D01*
X1190325Y981807D02*
X1190330D01*
X1221129Y951008D01*
X1188088Y984044D02*
X1190325Y981807D01*
X1221129Y917988D02*
Y951008D01*
Y917988D02*
X1277040Y862076D01*
D68*
X508151Y605314D02*
X514755Y611918D01*
Y675926D01*
D69*
X707715Y425196D02*
D03*
X313365Y526146D02*
D03*
D70*
X427015Y425196D02*
D03*
X313365Y806846D02*
D03*
D71*
X371305Y884926D02*
D03*
D72*
X341305Y931926D02*
D03*
D73*
X401305D02*
D03*
D74*
X296305D02*
D03*
D75*
X462215Y608526D02*
D03*
Y583126D02*
D03*
Y557726D02*
D03*
Y532326D02*
D03*
X436815D02*
D03*
Y557726D02*
D03*
Y583126D02*
D03*
X1281765Y574596D02*
D03*
X1180165D02*
D03*
X1205565D02*
D03*
X1256365D02*
D03*
X1230965D02*
D03*
X1307165D02*
D03*
X1332565D02*
D03*
X1464965Y974396D02*
D03*
X1164925Y1057196D02*
D03*
X1562565Y802696D02*
D03*
X1464965Y745796D02*
D03*
X1129685Y628956D02*
D03*
X1439565Y745796D02*
D03*
X1562565Y853496D02*
D03*
X1266525Y1057196D02*
D03*
X1088725D02*
D03*
X1114125D02*
D03*
X1139525D02*
D03*
X1190325D02*
D03*
X1215725D02*
D03*
X1241125D02*
D03*
X1291925D02*
D03*
X1510365Y574596D02*
D03*
X1484965D02*
D03*
X1459565D02*
D03*
X1434165D02*
D03*
X1408765D02*
D03*
X1537165Y802696D02*
D03*
X1562565Y828096D02*
D03*
X1537165D02*
D03*
X1439565Y974396D02*
D03*
X1414165D02*
D03*
X1388765D02*
D03*
X1363365D02*
D03*
X1337965D02*
D03*
X1312565D02*
D03*
X1223665Y466396D02*
D03*
X1249065D02*
D03*
X1274465D02*
D03*
X1223665Y491796D02*
D03*
X1249065D02*
D03*
X1104285Y628956D02*
D03*
X1078885D02*
D03*
X1357965Y1057196D02*
D03*
X1383365D02*
D03*
X1408765D02*
D03*
X1434165D02*
D03*
X1459565D02*
D03*
X1484965D02*
D03*
X1510365D02*
D03*
X1312565Y745796D02*
D03*
X1337965D02*
D03*
X1363365D02*
D03*
X1388765D02*
D03*
X1414165D02*
D03*
D76*
X436815Y608526D02*
D03*
X1537165Y853496D02*
D03*
D77*
X567365Y480515D02*
D03*
X552600Y486631D02*
D03*
X546484Y501396D02*
D03*
X552600Y516161D02*
D03*
X567365Y522276D02*
D03*
D03*
X582130Y516161D02*
D03*
X588245Y501396D02*
D03*
X582130Y486631D02*
D03*
X389565Y645615D02*
D03*
X374800Y651731D02*
D03*
X368684Y666496D02*
D03*
X374800Y681261D02*
D03*
X389565Y687376D02*
D03*
D03*
X404330Y681261D02*
D03*
X410445Y666496D02*
D03*
X404330Y651731D02*
D03*
X311930Y1110631D02*
D03*
X318045Y1125396D02*
D03*
X311930Y1140161D02*
D03*
X297165Y1146276D02*
D03*
X282400Y1140161D02*
D03*
X276284Y1125396D02*
D03*
X282400Y1110631D02*
D03*
X297165Y1104515D02*
D03*
X311930Y390631D02*
D03*
X318045Y405396D02*
D03*
X311930Y420161D02*
D03*
X297165Y426276D02*
D03*
X282400Y420161D02*
D03*
X276284Y405396D02*
D03*
X282400Y390631D02*
D03*
X297165Y384515D02*
D03*
X928165Y386515D02*
D03*
X913400Y392631D02*
D03*
X907284Y407396D02*
D03*
X913400Y422161D02*
D03*
X928165Y428276D02*
D03*
D03*
X942930Y422161D02*
D03*
X949045Y407396D02*
D03*
X942930Y392631D02*
D03*
X1561165Y604515D02*
D03*
X1546400Y610631D02*
D03*
X1540284Y625396D02*
D03*
X1546400Y640161D02*
D03*
X1561165Y646276D02*
D03*
X1575930Y640161D02*
D03*
X1582045Y625396D02*
D03*
X1575930Y610631D02*
D03*
X995930D02*
D03*
X1002045Y625396D02*
D03*
X995930Y640161D02*
D03*
X981165Y646276D02*
D03*
X966400Y640161D02*
D03*
X960284Y625396D02*
D03*
X966400Y610631D02*
D03*
X981165Y604515D02*
D03*
Y1094515D02*
D03*
X966400Y1100631D02*
D03*
X960284Y1115396D02*
D03*
X966400Y1130161D02*
D03*
X981165Y1136276D02*
D03*
X995930Y1130161D02*
D03*
X1002045Y1115396D02*
D03*
X995930Y1100631D02*
D03*
X1575930D02*
D03*
X1582045Y1115396D02*
D03*
X1575930Y1130161D02*
D03*
X1561165Y1136276D02*
D03*
X1546400Y1130161D02*
D03*
X1540284Y1115396D02*
D03*
X1546400Y1100631D02*
D03*
X1561165Y1094515D02*
D03*
X1915930Y390631D02*
D03*
X1922045Y405396D02*
D03*
X1915930Y420161D02*
D03*
X1901165Y426276D02*
D03*
X1886400Y420161D02*
D03*
X1880284Y405396D02*
D03*
X1886400Y390631D02*
D03*
X1901165Y384515D02*
D03*
D78*
X567365Y501396D02*
D03*
X389565Y666496D02*
D03*
X297165Y1125396D02*
D03*
Y405396D02*
D03*
X928165Y407396D02*
D03*
X1561165Y625396D02*
D03*
X981165D02*
D03*
Y1115396D02*
D03*
X1561165D02*
D03*
X1901165Y405396D02*
D03*
D79*
X282515Y1083596D02*
D03*
Y997196D02*
D03*
D80*
X324315Y1083596D02*
D03*
Y997196D02*
D03*
D81*
X319315Y1069296D02*
D03*
Y1011496D02*
D03*
X1697565Y1101146D02*
D03*
X1639765D02*
D03*
D82*
X822865Y761516D02*
D03*
X464265Y1120116D02*
D03*
D83*
X774445Y1133776D02*
D03*
X724445D02*
D03*
X861105Y399186D02*
D03*
X811105D02*
D03*
D84*
X1357965Y574596D02*
D03*
X1053485Y628956D02*
D03*
X1317325Y1057196D02*
D03*
X1535765Y574596D02*
D03*
X1287165Y974396D02*
D03*
X1274465Y491796D02*
D03*
X1535765Y1057196D02*
D03*
X1287165Y745796D02*
D03*
D85*
X1841666Y571397D02*
D03*
X1637165D02*
D03*
D86*
X1773465Y1112696D02*
D03*
X1798865Y1049196D02*
D03*
Y1074596D02*
D03*
Y1099996D02*
D03*
X1773465Y1036496D02*
D03*
Y1061896D02*
D03*
Y1087296D02*
D03*
D87*
X1385465Y1128096D02*
D03*
X1436265D02*
D03*
X1258465D02*
D03*
X1334665Y1102696D02*
D03*
X1512465D02*
D03*
X1182265Y1128096D02*
D03*
X1131465Y1102696D02*
D03*
X1080665Y1128096D02*
D03*
X1233065Y1102696D02*
D03*
X1512465Y1128096D02*
D03*
X1487065D02*
D03*
Y1102696D02*
D03*
X1461665Y1128096D02*
D03*
Y1102696D02*
D03*
X1436265D02*
D03*
X1410865Y1128096D02*
D03*
Y1102696D02*
D03*
X1385465D02*
D03*
X1360065Y1128096D02*
D03*
Y1102696D02*
D03*
X1334665Y1128096D02*
D03*
X1309265D02*
D03*
Y1102696D02*
D03*
X1283865Y1128096D02*
D03*
Y1102696D02*
D03*
X1258465D02*
D03*
X1233065Y1128096D02*
D03*
X1207665D02*
D03*
Y1102696D02*
D03*
X1182265D02*
D03*
X1156865Y1128096D02*
D03*
Y1102696D02*
D03*
X1131465Y1128096D02*
D03*
X1106065D02*
D03*
Y1102696D02*
D03*
X1080665D02*
D03*
X1055265Y1128096D02*
D03*
Y1102696D02*
D03*
X1029865Y1128096D02*
D03*
D88*
X1763565Y402896D02*
D03*
X1658565D02*
D03*
X1693565D02*
D03*
X1728565D02*
D03*
X1833565D02*
D03*
X1798565D02*
D03*
D89*
X1325265Y491796D02*
D03*
Y466396D02*
D03*
X1096665Y491796D02*
D03*
Y466396D02*
D03*
X1299865D02*
D03*
Y491796D02*
D03*
X1071265Y466396D02*
D03*
Y491796D02*
D03*
X1122065Y466396D02*
D03*
X1147465D02*
D03*
X1172865D02*
D03*
X1198265D02*
D03*
X1122065Y491796D02*
D03*
X1147465D02*
D03*
X1172865D02*
D03*
X1401465D02*
D03*
X1376065D02*
D03*
X1350665D02*
D03*
X1426865Y466396D02*
D03*
X1401465D02*
D03*
X1376065D02*
D03*
X1350665D02*
D03*
D90*
X413695Y1051306D02*
D03*
Y1016306D02*
D03*
D91*
X1911365Y1004996D02*
D03*
X1896165Y1131496D02*
D03*
Y1030396D02*
D03*
X1911365Y1106096D02*
D03*
D92*
X1029865Y1102696D02*
D03*
D93*
X1198265Y491796D02*
D03*
X1426865D02*
D03*
D94*
X1862365Y1125396D02*
D03*
Y1011096D02*
D03*
D95*
X1798865Y1023796D02*
D03*
D96*
X1831865Y1146996D02*
D03*
Y989496D02*
D03*
D97*
X1711865Y1137946D02*
D03*
X1625465D02*
D03*
D98*
X1711865Y1096146D02*
D03*
X1625465D02*
D03*
D99*
X1468431Y682843D02*
D03*
X1459330Y693773D02*
D03*
X1459885Y685778D02*
D03*
X542387Y564674D02*
D03*
X577573Y564801D02*
D03*
X503833Y903002D02*
D03*
X824635Y602774D02*
D03*
X747419Y580422D02*
D03*
X716431Y674989D02*
D03*
X513200Y951272D02*
D03*
X551585Y637064D02*
D03*
X551839Y651288D02*
D03*
X653565Y870816D02*
D03*
X563523Y803942D02*
D03*
X569746Y795437D02*
D03*
X523151Y830612D02*
D03*
X573653Y880904D02*
D03*
X1028089Y1031780D02*
D03*
X1035072Y1039525D02*
D03*
X1178076Y1031399D02*
D03*
X1183439Y965170D02*
D03*
X1194565Y986727D02*
D03*
X1199928Y981369D02*
D03*
X1189516Y962555D02*
D03*
X1222907Y964470D02*
D03*
X1152793Y1034818D02*
D03*
X1163979Y1036802D02*
D03*
X1202841Y986790D02*
D03*
X1177949Y995458D02*
D03*
X1272437Y884206D02*
D03*
X1272183Y890556D02*
D03*
X1210207Y997744D02*
D03*
X274363Y771022D02*
D03*
X777391Y1043972D02*
D03*
X383437Y785654D02*
D03*
X1060497Y456689D02*
D03*
X1120037Y437674D02*
D03*
X1086439Y425531D02*
D03*
X1057807Y482124D02*
D03*
X1044444Y490335D02*
D03*
X1035792Y479921D02*
D03*
X1049425Y460026D02*
D03*
X1244243Y422434D02*
D03*
X1221637Y421926D02*
D03*
X1059839Y414560D02*
D03*
X1063194Y422036D02*
D03*
X1058823Y425228D02*
D03*
X1067459Y417354D02*
D03*
X1080413Y404146D02*
D03*
X1356511Y506000D02*
D03*
X1321205Y504730D02*
D03*
X496467Y941610D02*
D03*
X495324Y931704D02*
D03*
X501065Y872014D02*
D03*
X484275Y854488D02*
D03*
X493927Y947452D02*
D03*
X519835Y794290D02*
D03*
X495959Y798608D02*
D03*
X472083Y778034D02*
D03*
X524407Y720072D02*
D03*
X402487Y707930D02*
D03*
X402233Y718090D02*
D03*
X470675Y1024552D02*
D03*
X434237Y876140D02*
D03*
X503734Y911106D02*
D03*
X428268Y991902D02*
D03*
X340083Y1038070D02*
D03*
X340104Y1032736D02*
D03*
X345591Y1042702D02*
D03*
X340143Y1047922D02*
D03*
X344067Y1023144D02*
D03*
X344321Y1053116D02*
D03*
X487577Y969550D02*
D03*
X526693Y1108234D02*
D03*
X573899Y1060482D02*
D03*
X479946Y1033823D02*
D03*
X491503Y1045380D02*
D03*
X475882Y1029759D02*
D03*
X512193Y1066070D02*
D03*
X485407Y1039284D02*
D03*
X414979Y867904D02*
D03*
X534313Y809530D02*
D03*
Y821214D02*
D03*
X553871Y861092D02*
D03*
X513739Y806990D02*
D03*
X545042Y749840D02*
D03*
X543203Y743236D02*
D03*
X747419Y797338D02*
D03*
X1063649Y986568D02*
D03*
X439124Y848584D02*
D03*
X1770165Y475396D02*
D03*
Y464396D02*
D03*
X1612472Y739510D02*
D03*
X1663655Y833892D02*
D03*
X1657845Y829955D02*
D03*
X1653845Y852857D02*
D03*
X1647801Y828436D02*
D03*
X1166773Y835184D02*
D03*
X1089303Y1014762D02*
D03*
X1126641Y998760D02*
D03*
X1064665Y1012222D02*
D03*
X1010563Y1023906D02*
D03*
X925473Y1019842D02*
D03*
X830477Y930942D02*
D03*
X1147977Y756190D02*
D03*
X1148666Y763229D02*
D03*
X1101971Y752693D02*
D03*
X1102765Y757968D02*
D03*
X1096161Y749332D02*
D03*
X948968Y976408D02*
D03*
X904337Y762032D02*
D03*
X902613Y748316D02*
D03*
X887627Y730282D02*
D03*
Y739139D02*
D03*
X1164360Y826347D02*
D03*
X1157502Y801915D02*
D03*
X1174012Y775815D02*
D03*
X1167027Y766985D02*
D03*
X1156807Y759292D02*
D03*
X1161227Y756305D02*
D03*
X1198165Y744379D02*
D03*
X1170075Y746919D02*
D03*
X1164816Y748953D02*
D03*
X856402Y729715D02*
D03*
X852760Y733652D02*
D03*
X848168Y719255D02*
D03*
X858417Y723918D02*
D03*
X731925Y742728D02*
D03*
X713637Y752774D02*
D03*
X635405Y748316D02*
D03*
X591971Y750856D02*
D03*
X600071Y795052D02*
D03*
X623975Y697516D02*
D03*
X1143655Y526086D02*
D03*
X892961Y510572D02*
D03*
X931823Y580930D02*
D03*
X932077Y567722D02*
D03*
X763092Y737311D02*
D03*
X775486Y731552D02*
D03*
X772877Y721138D02*
D03*
X1187093Y807498D02*
D03*
X1192300Y808655D02*
D03*
X1188236Y818684D02*
D03*
X1221002Y885835D02*
D03*
X1166392Y878457D02*
D03*
X1157121Y1003528D02*
D03*
X1151787D02*
D03*
X1022593Y1033008D02*
D03*
X1238401Y865566D02*
D03*
X1215076Y844539D02*
D03*
X1245503Y873528D02*
D03*
X1252117Y803180D02*
D03*
X1262176Y905949D02*
D03*
X1283359Y901224D02*
D03*
X1273453Y974884D02*
D03*
X1277263Y999014D02*
D03*
X1275739Y993680D02*
D03*
X815999Y949268D02*
D03*
X799235Y943388D02*
D03*
X798518Y937845D02*
D03*
X793475Y931057D02*
D03*
X797438Y927487D02*
D03*
X1186712Y791061D02*
D03*
X1191568Y793268D02*
D03*
X988973Y1044988D02*
D03*
X1088033Y829850D02*
D03*
X991005Y706660D02*
D03*
X782598Y866864D02*
D03*
X782924Y861540D02*
D03*
X793338Y859060D02*
D03*
X778574Y886070D02*
D03*
X833469Y973288D02*
D03*
X778153Y905796D02*
D03*
X778915Y956596D02*
D03*
X816507Y890302D02*
D03*
X977797Y793528D02*
D03*
X974241Y896144D02*
D03*
X979067Y885984D02*
D03*
X968399Y899573D02*
D03*
X963672Y902231D02*
D03*
X827175Y924973D02*
D03*
X794270Y922433D02*
D03*
X825905Y912019D02*
D03*
X795425Y909225D02*
D03*
X825016Y903214D02*
D03*
X871879Y806482D02*
D03*
X829715Y938816D02*
D03*
X786017Y797074D02*
D03*
X788038Y802418D02*
D03*
X781709Y853053D02*
D03*
X776020Y832697D02*
D03*
X778214Y837559D02*
D03*
X780906Y822958D02*
D03*
X795161Y813604D02*
D03*
X831332Y897280D02*
D03*
X829080Y886444D02*
D03*
X835049Y910622D02*
D03*
X833779Y985044D02*
D03*
X828474Y983020D02*
D03*
X823365Y981488D02*
D03*
X834345Y1025362D02*
D03*
X830590Y1029149D02*
D03*
X832001Y1042956D02*
D03*
X831687Y1048281D02*
D03*
X859607Y1018963D02*
D03*
X854953Y1023617D02*
D03*
X635659Y805974D02*
D03*
X631628Y802480D02*
D03*
X626691Y800460D02*
D03*
X627785Y794798D02*
D03*
X1126895Y1063784D02*
D03*
X1104741Y1051846D02*
D03*
X785011Y1018318D02*
D03*
X511453Y981742D02*
D03*
X615593Y1083850D02*
D03*
X614951Y1091724D02*
D03*
X733449Y1040416D02*
D03*
X763421Y921036D02*
D03*
X498245Y688626D02*
D03*
X632357Y696500D02*
D03*
X627785Y744506D02*
D03*
X650415Y767116D02*
D03*
X651915Y759242D02*
D03*
X660805Y764953D02*
D03*
X761018Y797455D02*
D03*
X755293Y796830D02*
D03*
X756055Y806736D02*
D03*
X748181Y806482D02*
D03*
X794917Y821478D02*
D03*
X827825Y813736D02*
D03*
X837335Y817023D02*
D03*
X828445Y847376D02*
D03*
X827683Y856774D02*
D03*
X828445Y837470D02*
D03*
X1246783Y1073309D02*
D03*
X1173123Y1033939D02*
D03*
X1247291Y1044480D02*
D03*
X1245020Y980073D02*
D03*
X1250339Y980472D02*
D03*
X1313077Y1149890D02*
D03*
X1571214Y1069900D02*
D03*
X1582567Y1072440D02*
D03*
X1253298Y986949D02*
D03*
X1237893Y977805D02*
D03*
X1234620Y968505D02*
D03*
X1225447Y975900D02*
D03*
X1233829Y988092D02*
D03*
X1225955Y990886D02*
D03*
X1246021Y997617D02*
D03*
X1218081Y997236D02*
D03*
X1162666Y874640D02*
D03*
X1216049Y814747D02*
D03*
X1219859Y822357D02*
D03*
X854353Y479330D02*
D03*
X838773Y643160D02*
D03*
X923441Y637318D02*
D03*
X850797Y793274D02*
D03*
X854861Y788956D02*
D03*
X932839Y641382D02*
D03*
X1298345Y1014762D02*
D03*
X1288185Y1014508D02*
D03*
X648105Y683800D02*
D03*
X704239Y714026D02*
D03*
X691285Y715550D02*
D03*
X687983Y758222D02*
D03*
X677569Y715550D02*
D03*
X666901D02*
D03*
X748435Y763556D02*
D03*
X654709Y716058D02*
D03*
X732481Y758222D02*
D03*
X749451Y726472D02*
D03*
X749959Y702165D02*
D03*
X746149Y705898D02*
D03*
X668679Y635794D02*
D03*
X641565Y636841D02*
D03*
X648159Y635231D02*
D03*
X649882Y643413D02*
D03*
X643061Y643064D02*
D03*
X613307Y615474D02*
D03*
X764691Y577882D02*
D03*
X578636Y572675D02*
D03*
X572159Y572802D02*
D03*
X561999D02*
D03*
X545489D02*
D03*
X566623Y576084D02*
D03*
X568857Y615220D02*
D03*
X507897Y567214D02*
D03*
X523391Y567087D02*
D03*
X594130Y542957D02*
D03*
X580033Y621697D02*
D03*
X580795Y627920D02*
D03*
X574699Y621062D02*
D03*
X544981Y727742D02*
D03*
X544473Y774986D02*
D03*
X565301Y722154D02*
D03*
X1157429Y791258D02*
D03*
X1156919Y796568D02*
D03*
X1209435Y784648D02*
D03*
X991005Y1004094D02*
D03*
X659535Y797846D02*
D03*
X795490Y870520D02*
D03*
X1259483Y802418D02*
D03*
X1211477Y793020D02*
D03*
X1207060Y798255D02*
D03*
X1007007Y1141508D02*
D03*
X1013357Y1138206D02*
D03*
X973479Y986822D02*
D03*
X828445Y1136428D02*
D03*
X583843Y1092232D02*
D03*
X563565Y1040816D02*
D03*
X553565D02*
D03*
X533565D02*
D03*
X543565D02*
D03*
X425601Y887000D02*
D03*
X799501Y556342D02*
D03*
X835557Y542322D02*
D03*
X697000D02*
D03*
X702059Y535337D02*
D03*
X692336Y529368D02*
D03*
X685316Y539782D02*
D03*
X756301Y741834D02*
D03*
X673505Y757079D02*
D03*
X685951Y732314D02*
D03*
X693654Y754595D02*
D03*
X681379Y756038D02*
D03*
X734719Y703993D02*
D03*
X739975Y808006D02*
D03*
X733326Y795527D02*
D03*
X728975Y792183D02*
D03*
X724411Y794945D02*
D03*
X708224Y750234D02*
D03*
X704740Y739903D02*
D03*
X718209Y799878D02*
D03*
X699687Y760234D02*
D03*
X698722Y794908D02*
D03*
X728536Y805329D02*
D03*
X1453285Y804704D02*
D03*
X1295805Y1091597D02*
D03*
X1054759Y1068356D02*
D03*
X1059818Y1062280D02*
D03*
X1229003Y1063784D02*
D03*
X1072285Y1065308D02*
D03*
X1066951Y1066578D02*
D03*
X1281581Y1064292D02*
D03*
X1172615Y1080040D02*
D03*
X1164233Y1081183D02*
D03*
X1145437D02*
D03*
X1272691Y1091470D02*
D03*
X1358289Y997490D02*
D03*
X1272945Y945814D02*
D03*
X1278279Y939832D02*
D03*
X1246191Y947128D02*
D03*
X1238530Y931321D02*
D03*
X1376069Y1013492D02*
D03*
X1424583Y983520D02*
D03*
X1357283Y1024150D02*
D03*
X1386483Y1003332D02*
D03*
X1411375Y1004094D02*
D03*
X1429663Y1017175D02*
D03*
X1411375Y1013238D02*
D03*
X1385467D02*
D03*
X947825Y982758D02*
D03*
X941729Y838994D02*
D03*
X954683Y891826D02*
D03*
X980083Y988854D02*
D03*
X1255419Y947579D02*
D03*
X1248561Y939324D02*
D03*
X1243586Y937401D02*
D03*
X1306337Y917927D02*
D03*
X1298726Y938435D02*
D03*
X976908Y776002D02*
D03*
X948460Y829775D02*
D03*
X643512Y793730D02*
D03*
X1048772Y709835D02*
D03*
X1052603Y730409D02*
D03*
X1057553Y732822D02*
D03*
X1066826Y712756D02*
D03*
X1195647Y789180D02*
D03*
X1324677Y688774D02*
D03*
X1311388D02*
D03*
X1249831Y757460D02*
D03*
X1269389Y785146D02*
D03*
X1551310Y888544D02*
D03*
X1545978Y888400D02*
D03*
X1530367Y887127D02*
D03*
X1475633Y715824D02*
D03*
X1593235Y890576D02*
D03*
X1577745Y893350D02*
D03*
X790707Y971674D02*
D03*
X794961Y982172D02*
D03*
X797553Y974145D02*
D03*
X1393849Y1079024D02*
D03*
X1663851Y704628D02*
D03*
X1599589Y623856D02*
D03*
X491641Y702596D02*
D03*
X508659Y957866D02*
D03*
X1510181Y753147D02*
D03*
X1504944Y752130D02*
D03*
X1532787Y695484D02*
D03*
X1527320Y681955D02*
D03*
X1471548Y626183D02*
D03*
X1449897Y631832D02*
D03*
X1488222Y670157D02*
D03*
X1432707Y644074D02*
D03*
X1526431Y669843D02*
D03*
X1509415Y697536D02*
D03*
X1501156Y689110D02*
D03*
X1504335Y706426D02*
D03*
X1496715Y765080D02*
D03*
X1503547Y761584D02*
D03*
X1608733Y640620D02*
D03*
X1503065Y449886D02*
D03*
X1512481Y424230D02*
D03*
X1475878Y464032D02*
D03*
X1608987Y664750D02*
D03*
X1702205Y616490D02*
D03*
X770279Y460026D02*
D03*
X703294Y792160D02*
D03*
X680871Y805322D02*
D03*
X695418Y804042D02*
D03*
X688745Y805212D02*
D03*
X671037Y795687D02*
D03*
X668525Y805329D02*
D03*
X693317Y793274D02*
D03*
X684935Y794290D02*
D03*
X1485089Y946915D02*
D03*
X1415947Y905288D02*
D03*
X1624165Y754396D02*
D03*
X1455825Y984536D02*
D03*
X1568601Y772700D02*
D03*
X1673503Y874554D02*
D03*
X1459405Y732600D02*
D03*
X1450205D02*
D03*
X1042313Y688626D02*
D03*
X1374037Y914178D02*
D03*
X1515765Y993446D02*
D03*
X1526590Y877016D02*
D03*
X1743286Y1043856D02*
D03*
X1738171Y1051658D02*
D03*
X1070507Y1077881D02*
D03*
X1667685Y855885D02*
D03*
X1710979Y864784D02*
D03*
X1713805Y852923D02*
D03*
X1625112Y882956D02*
D03*
X1439165Y779396D02*
D03*
X1617877Y755174D02*
D03*
X1659025Y757460D02*
D03*
X1665445Y751511D02*
D03*
X1606193Y551298D02*
D03*
X1621072Y584694D02*
D03*
X1598208Y501509D02*
D03*
X1633772Y551298D02*
D03*
X1659493Y561973D02*
D03*
X1655165Y550396D02*
D03*
X1688942Y807134D02*
D03*
Y757480D02*
D03*
Y799134D02*
D03*
X1698187Y733987D02*
D03*
X1688942Y791134D02*
D03*
X1684054Y734414D02*
D03*
X1673753Y823393D02*
D03*
X1713805Y797043D02*
D03*
X1626743Y814366D02*
D03*
X1698645Y594538D02*
D03*
X1551965Y944277D02*
D03*
X1530376Y991778D02*
D03*
X1543082Y991411D02*
D03*
X1591711Y1027736D02*
D03*
X1613305Y1087098D02*
D03*
X687569Y1152778D02*
D03*
X543565Y1020816D02*
D03*
X716133Y529070D02*
D03*
X1368195Y1011714D02*
D03*
X1415185Y1021874D02*
D03*
X626134Y736886D02*
D03*
X628674Y731604D02*
D03*
X634135Y733076D02*
D03*
X641755Y731806D02*
D03*
X644295Y752126D02*
D03*
X667155Y761016D02*
D03*
X737513Y1132872D02*
D03*
X746911Y1133126D02*
D03*
X754277Y1132364D02*
D03*
X762151Y1132872D02*
D03*
X1069745Y684308D02*
D03*
X1062125Y688118D02*
D03*
X1294277Y636858D02*
D03*
X733565Y1020816D02*
D03*
X1294277Y631524D02*
D03*
X743565Y1020816D02*
D03*
X1063892Y705104D02*
D03*
X1070502Y704886D02*
D03*
X1072158Y712616D02*
D03*
X1298629Y716185D02*
D03*
X1302967Y722428D02*
D03*
X1356253Y722174D02*
D03*
X693565Y1020816D02*
D03*
X1356253Y727508D02*
D03*
X693565Y1030816D02*
D03*
X703565Y1010816D02*
D03*
X797751Y1037128D02*
D03*
X829207Y969296D02*
D03*
X793647Y1018238D02*
D03*
X785263Y1036606D02*
D03*
X794409Y1026700D02*
D03*
X791361Y1049052D02*
D03*
X794565Y1004622D02*
D03*
X793893Y996748D02*
D03*
X786281Y1028732D02*
D03*
X778661Y1051846D02*
D03*
X785519Y1050340D02*
D03*
X778407Y1069626D02*
D03*
X785773Y1067848D02*
D03*
X794155Y1071785D02*
D03*
X808633Y1072674D02*
D03*
X1054764Y709019D02*
D03*
X683446Y1131693D02*
D03*
X755039Y1071785D02*
D03*
X702556Y1059815D02*
D03*
X753261Y1060736D02*
D03*
X712966Y1070268D02*
D03*
X716221Y1075274D02*
D03*
X683565Y1000816D02*
D03*
X673565Y1000816D02*
D03*
X671259Y1071929D02*
D03*
X675265Y1084739D02*
D03*
X685679D02*
D03*
X698612Y1075760D02*
D03*
X683049Y1075402D02*
D03*
X704534Y1070547D02*
D03*
X636929Y1087660D02*
D03*
X653909Y1083832D02*
D03*
X679601Y1126522D02*
D03*
X672489D02*
D03*
X663599Y1127284D02*
D03*
X649375Y1126776D02*
D03*
X657249Y1127538D02*
D03*
X663565Y1069045D02*
D03*
X746077Y1071785D02*
D03*
X631065Y1085816D02*
D03*
X1684415Y1002634D02*
D03*
X1622054Y787913D02*
D03*
X1603653Y786670D02*
D03*
X1625243Y825024D02*
D03*
X1604207Y819290D02*
D03*
X1602134Y814376D02*
D03*
X1594851Y813780D02*
D03*
X1604923Y828326D02*
D03*
X1604627Y833652D02*
D03*
X1580987Y857282D02*
D03*
Y851694D02*
D03*
X1582063Y868712D02*
D03*
X1581301Y862616D02*
D03*
X666647Y470948D02*
D03*
X1356003Y1073944D02*
D03*
X1323165Y1002396D02*
D03*
X708565Y1074227D02*
D03*
X603979Y1050576D02*
D03*
X583151Y1050816D02*
D03*
X554125Y1050322D02*
D03*
X534059Y1061244D02*
D03*
X791836Y848043D02*
D03*
X652677Y783622D02*
D03*
X782889Y991394D02*
D03*
X774009Y1002396D02*
D03*
X778565Y995816D02*
D03*
X790763Y992283D02*
D03*
X1576994Y495611D02*
D03*
X1569585Y669041D02*
D03*
X819879Y501819D02*
D03*
X740815Y705771D02*
D03*
X932077Y829850D02*
D03*
X763565Y840816D02*
D03*
X827905Y827056D02*
D03*
X609751Y1085816D02*
D03*
X601877Y1084358D02*
D03*
X795959Y842830D02*
D03*
X711351Y778796D02*
D03*
X554125Y794798D02*
D03*
X554887Y788194D02*
D03*
X662214Y806701D02*
D03*
X508565Y931704D02*
D03*
Y925816D02*
D03*
X399693Y770414D02*
D03*
X421283Y763794D02*
D03*
X408329Y764318D02*
D03*
X393851Y826929D02*
D03*
X401471D02*
D03*
X434491Y799878D02*
D03*
X453287Y839756D02*
D03*
X613565Y1000816D02*
D03*
X1738015Y731698D02*
D03*
X1809262Y638862D02*
D03*
X1764605Y658214D02*
D03*
X623565Y1010816D02*
D03*
X1827148Y721934D02*
D03*
X1773251Y682243D02*
D03*
X633565Y1030816D02*
D03*
X1748165Y589396D02*
D03*
X633565Y1020816D02*
D03*
X1770165Y590396D02*
D03*
X1762165Y594396D02*
D03*
X633979Y1050816D02*
D03*
X1721165Y624396D02*
D03*
X673565Y1050816D02*
D03*
X1764165Y625396D02*
D03*
X1200805Y792476D02*
D03*
X612545Y1125506D02*
D03*
X620165Y1121696D02*
D03*
X625245Y1124236D02*
D03*
X630325Y1121696D02*
D03*
X642263Y1117124D02*
D03*
X778565Y975248D02*
D03*
X682649Y785146D02*
D03*
X762786Y880816D02*
D03*
X1750715Y709094D02*
D03*
X1729962Y670974D02*
D03*
Y684974D02*
D03*
X1763669Y709094D02*
D03*
X829818Y866468D02*
D03*
X763320Y870816D02*
D03*
X753565Y880816D02*
D03*
X1129054Y533706D02*
D03*
X1152545Y541198D02*
D03*
X836065Y809149D02*
D03*
X627785Y761016D02*
D03*
X649629Y583978D02*
D03*
X543565Y890816D02*
D03*
X533678Y880816D02*
D03*
Y890816D02*
D03*
X524407Y745284D02*
D03*
X523899Y756952D02*
D03*
X523137Y771176D02*
D03*
X762024Y760635D02*
D03*
X753403Y761326D02*
D03*
X757963Y764094D02*
D03*
X635802Y762111D02*
D03*
X506065Y895816D02*
D03*
X583589Y890792D02*
D03*
X580541Y794544D02*
D03*
X563418Y840816D02*
D03*
X613565Y920816D02*
D03*
X691539Y378492D02*
D03*
X613565Y890816D02*
D03*
X685189Y378746D02*
D03*
X613565Y880816D02*
D03*
X678585Y378746D02*
D03*
X603565Y930816D02*
D03*
X672235Y379254D02*
D03*
X593565Y910816D02*
D03*
X659789Y378746D02*
D03*
X563565Y850816D02*
D03*
X652931Y378492D02*
D03*
X603565Y870816D02*
D03*
X646581Y378746D02*
D03*
X593565Y850816D02*
D03*
X639977Y378746D02*
D03*
X573565Y840816D02*
D03*
X633627Y379254D02*
D03*
X583565Y870816D02*
D03*
X628039Y378238D02*
D03*
X563565Y830816D02*
D03*
X621689Y378492D02*
D03*
X615085D02*
D03*
X608735Y379000D02*
D03*
X599591Y800640D02*
D03*
X622197Y468408D02*
D03*
X627785Y469424D02*
D03*
X615847Y468916D02*
D03*
X653693Y470694D02*
D03*
X659789Y466122D02*
D03*
X647089Y468662D02*
D03*
X679093Y466630D02*
D03*
X643025Y763556D02*
D03*
X654455Y809276D02*
D03*
X640739Y469170D02*
D03*
X634135D02*
D03*
X672489Y466630D02*
D03*
X714145Y504984D02*
D03*
X710081Y517938D02*
D03*
X655217Y739426D02*
D03*
X827694Y1005296D02*
D03*
X737451Y1073563D02*
D03*
X600099Y1074960D02*
D03*
X1621175Y551486D02*
D03*
X1495384Y546406D02*
D03*
X613565Y1040816D02*
D03*
X1494175Y556566D02*
D03*
X613565Y1050816D02*
D03*
X1683165Y558396D02*
D03*
X623565Y1050816D02*
D03*
X693565Y1060816D02*
D03*
X653565Y1060816D02*
D03*
Y1050816D02*
D03*
Y1040816D02*
D03*
X926235Y839756D02*
D03*
X693565Y1000816D02*
D03*
X723565Y1010816D02*
D03*
Y1000816D02*
D03*
X1558945Y503226D02*
D03*
X703565Y990816D02*
D03*
X723565Y1040816D02*
D03*
X1758843Y964849D02*
D03*
X713565Y1040816D02*
D03*
X1790847Y967988D02*
D03*
X1802785Y941376D02*
D03*
X703565Y1050816D02*
D03*
X1733665Y915396D02*
D03*
X1716425Y874066D02*
D03*
X1734285Y1122938D02*
D03*
X1727808Y1109649D02*
D03*
X828445Y946436D02*
D03*
X1620290Y941737D02*
D03*
X583565Y880816D02*
D03*
X691031Y467138D02*
D03*
X685443Y466122D02*
D03*
X613565Y900816D02*
D03*
X603565Y880816D02*
D03*
X609243Y468916D02*
D03*
X603565Y860816D02*
D03*
X613565Y870816D02*
D03*
X593565Y860816D02*
D03*
X576731Y380270D02*
D03*
X570381Y380524D02*
D03*
X563777D02*
D03*
X583565Y830816D02*
D03*
X557427Y381032D02*
D03*
X551839Y380524D02*
D03*
X573565Y860816D02*
D03*
X513231Y381286D02*
D03*
X603565Y830816D02*
D03*
X519835Y381286D02*
D03*
X593565Y840816D02*
D03*
X526185Y381032D02*
D03*
X593565Y830816D02*
D03*
X532535Y381286D02*
D03*
X583565Y840816D02*
D03*
X538885Y380778D02*
D03*
X573565Y850816D02*
D03*
X545489Y380778D02*
D03*
X613565Y810816D02*
D03*
X603565Y900816D02*
D03*
Y920816D02*
D03*
X613565Y930816D02*
D03*
X593565Y890816D02*
D03*
Y880816D02*
D03*
X533565Y860816D02*
D03*
Y840816D02*
D03*
X543565Y850816D02*
D03*
X488339Y381032D02*
D03*
X481735Y381286D02*
D03*
X462431Y382048D02*
D03*
X468781Y381540D02*
D03*
X475385D02*
D03*
X494181Y380016D02*
D03*
X665885Y379508D02*
D03*
X558443Y466122D02*
D03*
X564539Y471456D02*
D03*
X602385Y376714D02*
D03*
X596289Y384334D02*
D03*
X589685Y376206D02*
D03*
X583081Y383826D02*
D03*
X500531Y381794D02*
D03*
X500785Y469170D02*
D03*
X456335Y468916D02*
D03*
X449985Y468408D02*
D03*
X443635Y468662D02*
D03*
Y381540D02*
D03*
X456589Y383064D02*
D03*
X449985Y382810D02*
D03*
X506881Y381794D02*
D03*
X501065Y890816D02*
D03*
X543565Y880816D02*
D03*
X533565Y870816D02*
D03*
X563565D02*
D03*
X563565Y880816D02*
D03*
X354510Y765171D02*
D03*
Y759075D02*
D03*
X355780Y726309D02*
D03*
X354510Y739771D02*
D03*
Y745867D02*
D03*
X354765Y752217D02*
D03*
Y771521D02*
D03*
X593565Y1050816D02*
D03*
X583565Y1000816D02*
D03*
X573565Y1030816D02*
D03*
Y1010816D02*
D03*
X356288Y713609D02*
D03*
X356035Y707259D02*
D03*
X355780Y682621D02*
D03*
Y688717D02*
D03*
X356035Y695067D02*
D03*
Y701163D02*
D03*
Y720213D02*
D03*
X593565Y1040816D02*
D03*
X553565Y1020816D02*
D03*
X354510Y656713D02*
D03*
Y637917D02*
D03*
Y644013D02*
D03*
X354765Y650363D02*
D03*
X354510Y663063D02*
D03*
X573565Y1050816D02*
D03*
X523645Y1040416D02*
D03*
X563565Y1030816D02*
D03*
X583565D02*
D03*
X573565Y1020816D02*
D03*
X563565Y1050816D02*
D03*
X273855Y720476D02*
D03*
X273601Y714126D02*
D03*
X273855Y707522D02*
D03*
Y701426D02*
D03*
X273601Y695076D02*
D03*
X273347Y657230D02*
D03*
X273601Y663580D02*
D03*
Y669676D02*
D03*
Y676026D02*
D03*
X273855Y682376D02*
D03*
Y688472D02*
D03*
Y726572D02*
D03*
X553565Y1030816D02*
D03*
X543565Y1050816D02*
D03*
X533565D02*
D03*
X274109Y758576D02*
D03*
X274363Y764926D02*
D03*
X274109Y739526D02*
D03*
X274363Y745876D02*
D03*
Y751972D02*
D03*
X273347Y612272D02*
D03*
X273601Y618622D02*
D03*
Y624718D02*
D03*
X273093Y593476D02*
D03*
X273347Y599826D02*
D03*
Y605922D02*
D03*
Y586872D02*
D03*
Y580776D02*
D03*
X273093Y574426D02*
D03*
X272839Y561726D02*
D03*
X273093Y555122D02*
D03*
X273347Y542676D02*
D03*
X273201Y548672D02*
D03*
X836065Y843629D02*
D03*
X830998Y907151D02*
D03*
X794548Y956816D02*
D03*
X808125Y862108D02*
D03*
X719225Y808006D02*
D03*
X788722Y895283D02*
D03*
X723471Y850656D02*
D03*
X704356Y901607D02*
D03*
X623565Y1030816D02*
D03*
X633979Y1040771D02*
D03*
Y1060816D02*
D03*
X633500Y950816D02*
D03*
Y980816D02*
D03*
Y960816D02*
D03*
Y990816D02*
D03*
Y1010816D02*
D03*
Y1000816D02*
D03*
X653565Y950816D02*
D03*
X613565Y820816D02*
D03*
X593565D02*
D03*
X673565Y850816D02*
D03*
Y860816D02*
D03*
X703748Y821188D02*
D03*
X693565Y821595D02*
D03*
X673565Y820816D02*
D03*
Y830816D02*
D03*
X683565Y820816D02*
D03*
X733565D02*
D03*
X673565Y1030816D02*
D03*
X693565Y1010816D02*
D03*
X743565Y1060816D02*
D03*
X753565Y1050816D02*
D03*
X713565Y1020816D02*
D03*
X723565Y1030816D02*
D03*
X591065Y1088316D02*
D03*
X596065Y1090816D02*
D03*
X603565D02*
D03*
X589685Y1121696D02*
D03*
X621065Y1075816D02*
D03*
X583565Y1060816D02*
D03*
X603565Y1040816D02*
D03*
X613565Y1060816D02*
D03*
X623565Y1040816D02*
D03*
X673565Y1060816D02*
D03*
X601115Y1120426D02*
D03*
X594765Y1125506D02*
D03*
X583565Y1123316D02*
D03*
X703565Y970816D02*
D03*
X653565Y920816D02*
D03*
X713565Y930816D02*
D03*
X703565Y950816D02*
D03*
Y960816D02*
D03*
X673565Y990816D02*
D03*
X693565D02*
D03*
X693565Y980816D02*
D03*
X703565D02*
D03*
X733565D02*
D03*
Y960816D02*
D03*
X713565Y970816D02*
D03*
Y980816D02*
D03*
X613565Y860816D02*
D03*
X563565Y910816D02*
D03*
X533565Y950816D02*
D03*
Y990816D02*
D03*
Y970816D02*
D03*
X553565Y960816D02*
D03*
X573565Y950816D02*
D03*
X593565D02*
D03*
X633565Y900816D02*
D03*
X683565Y880816D02*
D03*
X733565Y830816D02*
D03*
X753565Y870816D02*
D03*
X663565Y890816D02*
D03*
X733565Y880816D02*
D03*
Y900816D02*
D03*
Y890816D02*
D03*
X743565D02*
D03*
Y880816D02*
D03*
Y870816D02*
D03*
X733565D02*
D03*
X713565D02*
D03*
X673565Y880816D02*
D03*
X663565Y870816D02*
D03*
X673565D02*
D03*
X683565D02*
D03*
X693565D02*
D03*
Y880816D02*
D03*
X703565D02*
D03*
X693565Y890816D02*
D03*
Y910816D02*
D03*
X683565Y920816D02*
D03*
X703565Y910816D02*
D03*
X713565D02*
D03*
X693565Y920816D02*
D03*
Y930816D02*
D03*
X633565Y930816D02*
D03*
X653565Y930816D02*
D03*
X663565D02*
D03*
X673565D02*
D03*
Y920816D02*
D03*
X663565D02*
D03*
X683565Y910816D02*
D03*
Y900816D02*
D03*
Y890816D02*
D03*
X673565D02*
D03*
Y900816D02*
D03*
X663565D02*
D03*
Y910816D02*
D03*
X653565D02*
D03*
Y900816D02*
D03*
Y890816D02*
D03*
X663565Y880816D02*
D03*
X653565D02*
D03*
X703565Y870816D02*
D03*
X533565Y850816D02*
D03*
X533565Y830816D02*
D03*
X543565D02*
D03*
X553565D02*
D03*
X633565Y860816D02*
D03*
Y920816D02*
D03*
Y910816D02*
D03*
Y890816D02*
D03*
Y880816D02*
D03*
Y870816D02*
D03*
X623565Y860816D02*
D03*
Y870816D02*
D03*
X583565Y860816D02*
D03*
X553565Y850816D02*
D03*
X543565Y840816D02*
D03*
Y860816D02*
D03*
X553565Y880816D02*
D03*
X543565Y870816D02*
D03*
X553565D02*
D03*
X573565D02*
D03*
X623565Y890816D02*
D03*
Y900816D02*
D03*
Y910816D02*
D03*
Y920816D02*
D03*
X593565Y900816D02*
D03*
X603565Y910816D02*
D03*
X593565Y930816D02*
D03*
X623565D02*
D03*
X653565Y1020816D02*
D03*
Y1010816D02*
D03*
Y1000816D02*
D03*
X623565D02*
D03*
X613565Y990816D02*
D03*
X593565Y1010816D02*
D03*
X603565D02*
D03*
X613565D02*
D03*
X623565Y1020816D02*
D03*
X613565Y1030816D02*
D03*
X603565D02*
D03*
X593565D02*
D03*
Y1020816D02*
D03*
X603565D02*
D03*
X583565Y1040816D02*
D03*
Y1020816D02*
D03*
X563565Y1010816D02*
D03*
Y1020816D02*
D03*
X553565Y980816D02*
D03*
Y990816D02*
D03*
Y1000816D02*
D03*
X563565D02*
D03*
X573565D02*
D03*
X593565D02*
D03*
Y990816D02*
D03*
X583565Y980816D02*
D03*
X593565Y970816D02*
D03*
X825905Y880396D02*
D03*
X829199Y873807D02*
D03*
X795425Y884206D02*
D03*
Y899700D02*
D03*
X789075Y905796D02*
D03*
X729355Y763556D02*
D03*
X724305Y757206D02*
D03*
X719225Y763556D02*
D03*
X705255Y754666D02*
D03*
X733565Y840816D02*
D03*
X723565D02*
D03*
Y830816D02*
D03*
X713565D02*
D03*
X703565D02*
D03*
Y840816D02*
D03*
X683565Y850816D02*
D03*
Y840816D02*
D03*
X693565D02*
D03*
Y830816D02*
D03*
X663565Y820816D02*
D03*
Y840816D02*
D03*
X673565D02*
D03*
X663565Y830816D02*
D03*
X633565Y820816D02*
D03*
X623565D02*
D03*
X543565D02*
D03*
X573565Y830816D02*
D03*
X603565Y840816D02*
D03*
X623565Y850816D02*
D03*
X613565D02*
D03*
X603565D02*
D03*
X613565Y830816D02*
D03*
Y840816D02*
D03*
X623565D02*
D03*
X653565Y1030816D02*
D03*
X613565Y1020816D02*
D03*
X573565Y990816D02*
D03*
X583565D02*
D03*
Y1010816D02*
D03*
X653565Y990816D02*
D03*
X623565D02*
D03*
X603565D02*
D03*
X593565Y980816D02*
D03*
X613565D02*
D03*
X789565Y959816D02*
D03*
X753565Y970816D02*
D03*
Y950816D02*
D03*
Y990816D02*
D03*
X733565D02*
D03*
X723565D02*
D03*
X713565D02*
D03*
X703565Y1000816D02*
D03*
X713565D02*
D03*
X763565Y1050816D02*
D03*
X733565Y1030816D02*
D03*
X743565D02*
D03*
X753565Y1020816D02*
D03*
X733565Y1010816D02*
D03*
X713565D02*
D03*
X683565D02*
D03*
X703565Y1020816D02*
D03*
Y1030816D02*
D03*
X713565D02*
D03*
Y1050816D02*
D03*
X693565D02*
D03*
X683565D02*
D03*
Y1040816D02*
D03*
Y1030816D02*
D03*
X663565Y1010816D02*
D03*
Y1020816D02*
D03*
Y1030816D02*
D03*
Y1040816D02*
D03*
Y1050816D02*
D03*
X673565Y1040816D02*
D03*
Y1020816D02*
D03*
Y1010816D02*
D03*
X723565Y1020816D02*
D03*
X753565Y1030816D02*
D03*
Y820816D02*
D03*
X743565Y850816D02*
D03*
X703565D02*
D03*
X713565Y840816D02*
D03*
Y850816D02*
D03*
Y860816D02*
D03*
X703565D02*
D03*
X693565D02*
D03*
X683565D02*
D03*
X663565D02*
D03*
Y850816D02*
D03*
X653565D02*
D03*
Y860816D02*
D03*
Y840816D02*
D03*
Y830816D02*
D03*
X633565D02*
D03*
Y840816D02*
D03*
Y850816D02*
D03*
X653565Y820816D02*
D03*
X683565Y830816D02*
D03*
X763565Y890816D02*
D03*
X743565Y900816D02*
D03*
Y920816D02*
D03*
X723565Y910816D02*
D03*
X683565Y930816D02*
D03*
X693565Y900816D02*
D03*
X553565Y890816D02*
D03*
Y920816D02*
D03*
X573565Y970816D02*
D03*
Y960816D02*
D03*
Y980816D02*
D03*
X583565Y970816D02*
D03*
X613565Y970816D02*
D03*
X613565Y950816D02*
D03*
Y960816D02*
D03*
X603565Y950816D02*
D03*
X583565D02*
D03*
X573565Y930816D02*
D03*
X543565Y920816D02*
D03*
X593565D02*
D03*
X603565Y890816D02*
D03*
X553565Y840816D02*
D03*
X623565Y830816D02*
D03*
X583565Y850816D02*
D03*
X563565Y860816D02*
D03*
X593565Y870816D02*
D03*
X623565Y880816D02*
D03*
X583565Y900816D02*
D03*
X613565Y910816D02*
D03*
X603565Y1000816D02*
D03*
X723565Y860816D02*
D03*
X693565Y850816D02*
D03*
X713565Y890816D02*
D03*
X673565Y910816D02*
D03*
X693565Y950816D02*
D03*
X673565D02*
D03*
Y960816D02*
D03*
X663565D02*
D03*
X653565Y970816D02*
D03*
X723565Y930816D02*
D03*
X713565Y950816D02*
D03*
Y960816D02*
D03*
X693565D02*
D03*
Y970816D02*
D03*
X673565D02*
D03*
X663565Y980816D02*
D03*
X673565D02*
D03*
X663565Y1000816D02*
D03*
Y990816D02*
D03*
X508565Y1015816D02*
D03*
X553565Y1010816D02*
D03*
X543565Y1030816D02*
D03*
X573565Y1040816D02*
D03*
X1690228Y1076409D02*
D03*
X1332165Y1030396D02*
D03*
X1312165Y1031396D02*
D03*
X1894165Y837396D02*
D03*
X1895165Y850396D02*
D03*
X1581325Y669041D02*
D03*
X1827148Y605242D02*
D03*
X1757968Y977547D02*
D03*
X1748165Y1057396D02*
D03*
X1735367Y981139D02*
D03*
X1741165Y907896D02*
D03*
Y896396D02*
D03*
X1912165Y1030396D02*
D03*
X1911165Y1058396D02*
D03*
X1880165Y979396D02*
D03*
X1822165Y969396D02*
D03*
X1809165Y1148396D02*
D03*
X1749165Y1083396D02*
D03*
X1796165Y429396D02*
D03*
X1832165Y536396D02*
D03*
X1740165Y510396D02*
D03*
X1771165Y488396D02*
D03*
X1733165Y463396D02*
D03*
X1732165Y485396D02*
D03*
X1540498Y1023310D02*
D03*
X1553839Y995960D02*
D03*
X1603649Y893116D02*
D03*
X1607947Y995774D02*
D03*
X1783165Y577396D02*
D03*
X1744165Y626142D02*
D03*
X1744383Y631979D02*
D03*
X1754165Y670396D02*
D03*
X1729836Y592942D02*
D03*
X1771165Y580396D02*
D03*
X1717903Y633628D02*
D03*
X1733778Y627205D02*
D03*
X1721165Y595396D02*
D03*
X1793068Y623002D02*
D03*
X1809262Y624379D02*
D03*
X1766165Y830396D02*
D03*
X1620387Y894788D02*
D03*
X1633875Y894386D02*
D03*
X1618165Y1076396D02*
D03*
X1743286Y1026856D02*
D03*
X1709165Y1079396D02*
D03*
X1702092Y1079697D02*
D03*
X1672165Y1042396D02*
D03*
X1701165Y1066396D02*
D03*
X1635318Y1023897D02*
D03*
X1531085D02*
D03*
X1672102Y1059486D02*
D03*
X1677429Y1059755D02*
D03*
X1616638Y1030149D02*
D03*
X1628816D02*
D03*
X1669435Y1034086D02*
D03*
X1662831Y1042214D02*
D03*
X1654183Y1080302D02*
D03*
X1591330Y1046173D02*
D03*
X1639697Y1070560D02*
D03*
X1754271Y626711D02*
D03*
X1601880Y739905D02*
D03*
X1622165Y705396D02*
D03*
X1623582Y728510D02*
D03*
X1469568Y674646D02*
D03*
X1143165Y615396D02*
D03*
X1661671Y851012D02*
D03*
X1768165Y892396D02*
D03*
X1325884Y620321D02*
D03*
X1378147Y676464D02*
D03*
X1414389Y682964D02*
D03*
X1542059Y715443D02*
D03*
X1336489Y663494D02*
D03*
X1459885Y663574D02*
D03*
X1366667Y644074D02*
D03*
X1302405Y600583D02*
D03*
X1287189Y600608D02*
D03*
X1294785Y652646D02*
D03*
X1449330Y707062D02*
D03*
X1429485Y719174D02*
D03*
X1498667Y644074D02*
D03*
X1390543Y714046D02*
D03*
X1348125Y715315D02*
D03*
X1541085Y736017D02*
D03*
X1744285Y1109649D02*
D03*
X1774845Y982016D02*
D03*
X1709805Y1035356D02*
D03*
X1708805Y1021058D02*
D03*
X1724890Y970237D02*
D03*
X1618325Y994081D02*
D03*
X1778665Y945396D02*
D03*
Y930396D02*
D03*
X1771165Y922896D02*
D03*
X1824375Y912166D02*
D03*
X1763665Y945396D02*
D03*
X1756165Y937896D02*
D03*
X1731247Y936387D02*
D03*
X1708911Y962946D02*
D03*
X1756165Y930396D02*
D03*
X1763665Y922896D02*
D03*
X1669435Y912166D02*
D03*
X1688485Y890576D02*
D03*
X1689008Y869138D02*
D03*
X1672752Y751818D02*
D03*
X1763567Y686180D02*
D03*
X1658005Y871526D02*
D03*
X1660545Y795326D02*
D03*
X1638188Y872781D02*
D03*
X1632841Y735763D02*
D03*
X1851665Y561698D02*
D03*
X1904627Y453996D02*
D03*
X1730165Y495396D02*
D03*
X1752605Y641224D02*
D03*
X1722164Y641184D02*
D03*
X1718305Y569978D02*
D03*
X1616062Y454663D02*
D03*
X1406165Y832878D02*
D03*
X1403258Y825216D02*
D03*
X1405404Y817130D02*
D03*
X1600519Y771069D02*
D03*
X1611433Y679067D02*
D03*
X1589330Y784671D02*
D03*
X1597045Y781930D02*
D03*
X1594031Y753797D02*
D03*
X1608372Y607798D02*
D03*
X1528734Y512051D02*
D03*
X1494207Y477523D02*
D03*
X1569645Y398958D02*
D03*
X1423165Y795396D02*
D03*
X1403165Y774396D02*
D03*
X1842155Y936296D02*
D03*
X1678452Y965506D02*
D03*
X1673118D02*
D03*
X1790847Y960426D02*
D03*
X1593760Y770285D02*
D03*
X1555917Y874831D02*
D03*
X1679869Y869200D02*
D03*
X1757573Y838378D02*
D03*
X1877715Y835966D02*
D03*
X1878985Y827076D02*
D03*
Y816916D02*
D03*
X1790085Y763576D02*
D03*
X1765955Y810566D02*
D03*
X1764685Y802565D02*
D03*
X1758351Y779356D02*
D03*
X1743067Y980911D02*
D03*
X1749332Y986183D02*
D03*
X1717175Y953192D02*
D03*
X1641938Y992341D02*
D03*
X1200805Y533706D02*
D03*
X1212235Y531166D02*
D03*
X1573560Y715453D02*
D03*
X1599458Y681839D02*
D03*
X1640225Y828436D02*
D03*
X1532166Y1006851D02*
D03*
X1574312Y774056D02*
D03*
X1628160Y992238D02*
D03*
X1605793Y795134D02*
D03*
X1664915Y1002634D02*
D03*
X1651915D02*
D03*
X1605757Y803962D02*
D03*
X1589795Y798611D02*
D03*
X1713805Y839635D02*
D03*
X1680865Y655626D02*
D03*
X1273891Y754813D02*
D03*
X1632605Y753416D02*
D03*
X1629845Y782186D02*
D03*
X1491635Y711506D02*
D03*
X1708805Y998854D02*
D03*
X1727808Y1080346D02*
D03*
X1727817Y1066974D02*
D03*
X1719045Y1080346D02*
D03*
X1244165Y793929D02*
D03*
X1515765Y617526D02*
D03*
X1514368Y627074D02*
D03*
X1392067Y621082D02*
D03*
X1384447Y630226D02*
D03*
X1731665Y777546D02*
D03*
X1109365Y651816D02*
D03*
X1094125Y660706D02*
D03*
X1140351Y560122D02*
D03*
X1495445Y532436D02*
D03*
X1273576Y683858D02*
D03*
X1277513Y687630D02*
D03*
X1703217Y462586D02*
D03*
X1825173Y611176D02*
D03*
X1712615Y498146D02*
D03*
X1815485Y724334D02*
D03*
X1660545Y679756D02*
D03*
X1670705Y682296D02*
D03*
X1688485Y687376D02*
D03*
X1561993Y716840D02*
D03*
X1736125Y641224D02*
D03*
X1719527Y773007D02*
D03*
X1712063Y757018D02*
D03*
X1611805Y776403D02*
D03*
X1674793Y795134D02*
D03*
X1665445Y735763D02*
D03*
X1693565Y498146D02*
D03*
X1614414Y977857D02*
D03*
X1403751Y622352D02*
D03*
X1378147Y689464D02*
D03*
Y702464D02*
D03*
X1436147Y689464D02*
D03*
X1426357Y656388D02*
D03*
X1436147Y676464D02*
D03*
X1329837Y601270D02*
D03*
X1349395Y629464D02*
D03*
X1415331Y627074D02*
D03*
X1479951Y627178D02*
D03*
X1596965Y802538D02*
D03*
X1597045Y838178D02*
D03*
X1566485Y875399D02*
D03*
X1645432Y870256D02*
D03*
X1571137Y1047040D02*
D03*
X1664228Y1059634D02*
D03*
X1744285Y1122938D02*
D03*
X1626221Y1071198D02*
D03*
X1676509Y1080899D02*
D03*
X1230677Y783601D02*
D03*
X1754531Y658139D02*
D03*
X1712063Y734414D02*
D03*
X1752065Y743891D02*
D03*
X1762065Y751765D02*
D03*
X1251986Y784939D02*
D03*
X1416196Y726238D02*
D03*
X1329075Y677724D02*
D03*
X1315693Y646303D02*
D03*
X1365613Y619304D02*
D03*
X1763415Y734924D02*
D03*
X1751425Y730987D02*
D03*
X1805325Y691186D02*
D03*
X1317645Y600583D02*
D03*
X1670998Y1082048D02*
D03*
X1649939Y1060104D02*
D03*
X1759906Y900736D02*
D03*
X1754572D02*
D03*
X1773636Y902006D02*
D03*
X1768302D02*
D03*
X1631335Y787706D02*
D03*
X1804055Y929946D02*
D03*
X1800245Y951536D02*
D03*
X1785005Y982016D02*
D03*
X1633772Y584694D02*
D03*
X1646472Y584694D02*
D03*
Y528194D02*
D03*
X1791317Y649242D02*
D03*
X1668946Y803134D02*
D03*
X1620897Y807134D02*
D03*
X1626743Y799134D02*
D03*
X1645845Y782186D02*
D03*
X1637845Y788033D02*
D03*
X1882523Y483996D02*
D03*
X1904627Y473996D02*
D03*
X1882523Y463996D02*
D03*
X1744107Y1019356D02*
D03*
X1616638Y1009014D02*
D03*
X1710663Y1045126D02*
D03*
Y1028126D02*
D03*
X1719045Y1067058D02*
D03*
X1334520Y620321D02*
D03*
X1324757Y656386D02*
D03*
X1645415Y1002634D02*
D03*
X1658415D02*
D03*
X1660545Y579098D02*
D03*
X1627525Y1008037D02*
D03*
X1878279Y785294D02*
D03*
X1743800Y838463D02*
D03*
X1891685Y785294D02*
D03*
X1713725Y826346D02*
D03*
X1337965Y711378D02*
D03*
X1449330Y693773D02*
D03*
X1459330Y707062D02*
D03*
X1466823Y612056D02*
D03*
X1845667Y462696D02*
D03*
X1409543Y695964D02*
D03*
X1351543Y682964D02*
D03*
Y669964D02*
D03*
X1770707Y634036D02*
D03*
X1829455Y746858D02*
D03*
X1738015Y709094D02*
D03*
X1815485Y746938D02*
D03*
Y945058D02*
D03*
D100*
X993545Y918242D02*
D03*
X833209Y646633D02*
D03*
X840329Y515452D02*
D03*
X857049Y656983D02*
D03*
X852369Y662671D02*
D03*
X1019707Y520732D02*
D03*
X774343Y580168D02*
D03*
X1012849Y564420D02*
D03*
X351179Y988854D02*
D03*
X984401Y579914D02*
D03*
X1219859Y787686D02*
D03*
X369721Y1009428D02*
D03*
X1651659Y668814D02*
D03*
X342562Y1002804D02*
D03*
X1100897Y974004D02*
D03*
X373531Y409988D02*
D03*
X978813Y969804D02*
D03*
Y975392D02*
D03*
X1261007Y787686D02*
D03*
X504317Y880880D02*
D03*
X882195Y674656D02*
D03*
X675537Y636302D02*
D03*
X998911Y794766D02*
D03*
X1675535Y659924D02*
D03*
X1668423Y669576D02*
D03*
X954937Y1043718D02*
D03*
X1661565Y661956D02*
D03*
X838253Y652001D02*
D03*
X750975Y569881D02*
D03*
X465225Y625805D02*
D03*
X793179Y555737D02*
D03*
X858915Y1109113D02*
D03*
X770124Y569881D02*
D03*
X533675Y1139686D02*
D03*
X1635657Y511588D02*
D03*
X1045869Y390938D02*
D03*
X1019961Y532670D02*
D03*
X767739Y705136D02*
D03*
X1628309Y511063D02*
D03*
X1614829Y493046D02*
D03*
X1065935Y537496D02*
D03*
X540663Y1142016D02*
D03*
X1608225Y516668D02*
D03*
X1000761Y821110D02*
D03*
X394867Y1109250D02*
D03*
X844774Y535136D02*
D03*
X693571Y672624D02*
D03*
X534313Y1121061D02*
D03*
X525677Y1121442D02*
D03*
X643787Y663734D02*
D03*
X745895Y655606D02*
D03*
X954175Y564166D02*
D03*
X1001165Y579406D02*
D03*
X659825Y635235D02*
D03*
X947481Y726471D02*
D03*
X954846Y726562D02*
D03*
X293013Y859822D02*
D03*
X605621Y660303D02*
D03*
X1009547Y427006D02*
D03*
X613572Y652289D02*
D03*
X1222744Y740025D02*
D03*
X344321Y1064292D02*
D03*
X837335Y603258D02*
D03*
X576826Y581565D02*
D03*
X799913Y566156D02*
D03*
X577782Y609921D02*
D03*
X970939Y416084D02*
D03*
X343051Y992918D02*
D03*
X484783Y901478D02*
D03*
X361085Y1074198D02*
D03*
X487224Y915448D02*
D03*
X496467Y1002062D02*
D03*
X488847Y1001808D02*
D03*
X401217Y986568D02*
D03*
X409853Y993934D02*
D03*
X379119Y1009174D02*
D03*
X409599Y986568D02*
D03*
X353465Y1064292D02*
D03*
X800759Y580676D02*
D03*
X604109Y651605D02*
D03*
X1101700Y985891D02*
D03*
X954683Y1002062D02*
D03*
X1617950Y734158D02*
D03*
X344067Y1012984D02*
D03*
X957858Y972363D02*
D03*
X351687Y1012730D02*
D03*
X376833Y1099598D02*
D03*
X833810Y675291D02*
D03*
X434999Y1075306D02*
D03*
X390803Y1053370D02*
D03*
X453033Y860330D02*
D03*
X387755Y1016032D02*
D03*
X509421Y1000284D02*
D03*
X834044Y700437D02*
D03*
X379627Y1053370D02*
D03*
X1304949Y861854D02*
D03*
X445667Y931958D02*
D03*
X301395Y859822D02*
D03*
X1008023Y520351D02*
D03*
X851028Y705117D02*
D03*
X1102233Y962866D02*
D03*
X568565Y1075816D02*
D03*
X359815Y733076D02*
D03*
X364895Y567976D02*
D03*
X272185Y650526D02*
D03*
X272038Y637113D02*
D03*
X489355Y668306D02*
D03*
X467765Y647986D02*
D03*
X491895Y642906D02*
D03*
X472409Y657311D02*
D03*
X486815Y603536D02*
D03*
X513870Y704073D02*
D03*
X593495Y712756D02*
D03*
X514755Y675926D02*
D03*
X666535Y611776D02*
D03*
X648105Y611156D02*
D03*
X653185Y569246D02*
D03*
X836065Y616236D02*
D03*
X632103Y677450D02*
D03*
X705255Y496856D02*
D03*
X799235Y589566D02*
D03*
X632611Y665766D02*
D03*
X730655Y499396D02*
D03*
X768755Y587026D02*
D03*
X775105Y534956D02*
D03*
X764945Y532416D02*
D03*
X832255Y627666D02*
D03*
X834795Y593376D02*
D03*
X987703Y429038D02*
D03*
X676680Y551593D02*
D03*
X1066189Y976408D02*
D03*
X546725Y714201D02*
D03*
X861719Y509556D02*
D03*
X1014373Y666782D02*
D03*
X972971Y667544D02*
D03*
X983639Y685070D02*
D03*
X1014881D02*
D03*
X1024279Y666782D02*
D03*
X928775Y724186D02*
D03*
X937665D02*
D03*
X998625Y428276D02*
D03*
X926997Y782352D02*
D03*
X883817D02*
D03*
X950365Y926370D02*
D03*
X533805Y1100360D02*
D03*
X569365Y1129062D02*
D03*
X576223Y1140238D02*
D03*
X539139Y1129316D02*
D03*
X921155Y1107472D02*
D03*
X952651Y882428D02*
D03*
X268565Y790816D02*
D03*
X268629Y782606D02*
D03*
X268883Y733330D02*
D03*
X269391Y568230D02*
D03*
X443595Y630246D02*
D03*
X358291Y676688D02*
D03*
X358075Y790326D02*
D03*
X358545Y781082D02*
D03*
X356005Y669576D02*
D03*
X606195Y706406D02*
D03*
X350417Y1074198D02*
D03*
X693317Y684054D02*
D03*
X1687473Y667036D02*
D03*
X575896Y1102719D02*
D03*
X725956Y603536D02*
D03*
X1685695Y643668D02*
D03*
X928031Y731787D02*
D03*
X882801Y706406D02*
D03*
X781455Y702596D02*
D03*
X540235Y583216D02*
D03*
X528725Y698786D02*
D03*
X747419Y630206D02*
D03*
X659535Y682530D02*
D03*
X1030375Y761016D02*
D03*
X831366Y563389D02*
D03*
X928719Y808895D02*
D03*
X1260753Y738664D02*
D03*
X826014Y712865D02*
D03*
X954683Y548672D02*
D03*
X965351Y972090D02*
D03*
X947719Y906146D02*
D03*
X1614821Y502680D02*
D03*
X403757Y408464D02*
D03*
X1608479Y506508D02*
D03*
X1028904Y929364D02*
D03*
X1016913Y929164D02*
D03*
X423061Y434118D02*
D03*
X851305Y677831D02*
D03*
X395375Y1121950D02*
D03*
X1012849Y548164D02*
D03*
X957640Y858207D02*
D03*
X888389Y1136936D02*
D03*
X1315099Y862076D02*
D03*
X984401Y520351D02*
D03*
X524920Y802758D02*
D03*
X1194586Y716693D02*
D03*
X1591965Y1088596D02*
D03*
X1244057Y1009288D02*
D03*
X1047901Y536861D02*
D03*
X790453Y444640D02*
D03*
X854861Y468916D02*
D03*
X806093Y466884D02*
D03*
X820825Y461804D02*
D03*
X1230394Y925340D02*
D03*
X1466874Y795396D02*
D03*
X1557165Y783258D02*
D03*
X1398079Y866748D02*
D03*
X842669Y440849D02*
D03*
X1792625Y863906D02*
D03*
X1395165Y851762D02*
D03*
X1586885Y1004876D02*
D03*
X1525675Y793396D02*
D03*
X869352Y431456D02*
D03*
X869085Y438817D02*
D03*
X791361Y432340D02*
D03*
X820571Y429800D02*
D03*
X945793Y545878D02*
D03*
X951381Y533178D02*
D03*
X937411Y526066D02*
D03*
X1309165Y817396D02*
D03*
X1558973Y1003399D02*
D03*
X1414121Y770352D02*
D03*
X1804165Y552396D02*
D03*
X1634165Y1079396D02*
D03*
X1326783Y862076D02*
D03*
X1748165Y850396D02*
D03*
X1797165Y659396D02*
D03*
X1819165Y713396D02*
D03*
X1887165Y712396D02*
D03*
X1928165Y715396D02*
D03*
X1930165Y548396D02*
D03*
X1671165Y1122896D02*
D03*
X1820565Y921056D02*
D03*
X1924165Y912396D02*
D03*
X1814206Y885504D02*
D03*
X1810405Y919786D02*
D03*
X1800505Y917481D02*
D03*
X1518013Y908647D02*
D03*
X1816275Y871526D02*
D03*
X1843425Y776276D02*
D03*
X1820565Y818186D02*
D03*
X1767225Y839776D02*
D03*
X1430675Y820443D02*
D03*
X1413165Y807396D02*
D03*
X1303165Y827396D02*
D03*
X1298165Y817396D02*
D03*
X1456165Y796396D02*
D03*
X1463165Y795396D02*
D03*
X1890165Y903396D02*
D03*
X1869165Y947396D02*
D03*
X1877165Y933396D02*
D03*
X1505165Y848396D02*
D03*
X1493165D02*
D03*
X1357060Y763333D02*
D03*
X1330165Y763396D02*
D03*
X1309060Y763333D02*
D03*
X1865141Y765041D02*
D03*
D101*
X1059331Y765588D02*
D03*
X1044091D02*
D03*
X999387Y869601D02*
D03*
X955953Y1076484D02*
D03*
X997500Y850025D02*
D03*
X1066929Y819525D02*
D03*
X359307Y514890D02*
D03*
X414171D02*
D03*
X427887Y475266D02*
D03*
X346861Y459772D02*
D03*
X979321Y926370D02*
D03*
X1065681Y775748D02*
D03*
X971193Y1076484D02*
D03*
X1065427Y796576D02*
D03*
D102*
X784035Y664266D02*
D03*
X795035Y642266D02*
D03*
Y631266D02*
D03*
Y653266D02*
D03*
Y664266D02*
D03*
X784035Y631266D02*
D03*
Y642266D02*
D03*
X773035Y664266D02*
D03*
X762035D02*
D03*
X773035Y653266D02*
D03*
X784035D02*
D03*
X762035Y642266D02*
D03*
Y653266D02*
D03*
X773035Y642266D02*
D03*
Y631266D02*
D03*
X762035D02*
D03*
D103*
X1017565Y976566D02*
D03*
X1028565D02*
D03*
X1017565Y965566D02*
D03*
X1028565D02*
D03*
X1017565Y954566D02*
D03*
X1028565D02*
D03*
X1017565Y943566D02*
D03*
X1028565D02*
D03*
D104*
X603147Y651034D02*
X604163Y650018D01*
Y626904D02*
Y650018D01*
X577782Y609921D02*
X587180D01*
X604163Y626904D01*
X486815Y603536D02*
X569111D01*
X571397D02*
X577782Y609921D01*
X569619Y603536D02*
X571397D01*
X486561D02*
Y630460D01*
X479195Y637826D02*
X486561Y630460D01*
X453541Y637826D02*
X479195D01*
X443595Y630246D02*
X445961D01*
X453541Y637826D01*
X414425Y617760D02*
X428649Y631984D01*
X414171Y617506D02*
X414425Y617760D01*
X414171Y515652D02*
Y617506D01*
Y514890D02*
Y515652D01*
X428649Y631984D02*
X443381D01*
M02*
