M48
;Layer_Color=9474304
;FILE_FORMAT=4:4
METRIC,LZ
;TYPE=PLATED
T05F00S00C0.6000
T07F00S00C0.8000
;TYPE=NON_PLATED
%
G90
G05
T05
G00X-0024005Y-0006862
M15
G01X-0023205
M16
G00X-0019975Y-0006862
M15
G01X-0018875
M16
G00X-0019975Y0001778
M15
G01X-0018875
M16
G00X-0024005Y0001778
M15
G01X-0023205
M16
G00X011069Y0003583
M15
G01Y0002483
M16
G00X011069Y0007613
M15
G01Y0006813
M16
G00X011933Y0007613
M15
G01Y0006813
M16
G00X011933Y0003583
M15
G01Y0002483
M16
T07
G00X-0016026Y-0018089
M15
G01X-0013426
M16
G00X-0017726Y-0012089
M15
G01Y-0014689
M16
G00X-0011726Y-0011789
M15
G01Y-0014989
M16
M17
M30
