G04*
G04 #@! TF.GenerationSoftware,Altium Limited,Altium Designer,23.10.1 (27)*
G04*
G04 Layer_Color=128*
%FSLAX44Y44*%
%MOMM*%
G71*
G04*
G04 #@! TF.SameCoordinates,A260BEBF-06BD-4FBC-8D66-A32A8B5517DE*
G04*
G04*
G04 #@! TF.FilePolarity,Positive*
G04*
G01*
G75*
%ADD25R,0.8000X1.0000*%
%ADD32R,0.6400X0.6400*%
%ADD33R,0.9500X0.7500*%
G04:AMPARAMS|DCode=41|XSize=0.6mm|YSize=0.6mm|CornerRadius=0.06mm|HoleSize=0mm|Usage=FLASHONLY|Rotation=90.000|XOffset=0mm|YOffset=0mm|HoleType=Round|Shape=RoundedRectangle|*
%AMROUNDEDRECTD41*
21,1,0.6000,0.4800,0,0,90.0*
21,1,0.4800,0.6000,0,0,90.0*
1,1,0.1200,0.2400,0.2400*
1,1,0.1200,0.2400,-0.2400*
1,1,0.1200,-0.2400,-0.2400*
1,1,0.1200,-0.2400,0.2400*
%
%ADD41ROUNDEDRECTD41*%
%ADD42R,0.7500X0.9500*%
%ADD51R,0.6000X1.5500*%
G04:AMPARAMS|DCode=54|XSize=0.6mm|YSize=0.6mm|CornerRadius=0.06mm|HoleSize=0mm|Usage=FLASHONLY|Rotation=180.000|XOffset=0mm|YOffset=0mm|HoleType=Round|Shape=RoundedRectangle|*
%AMROUNDEDRECTD54*
21,1,0.6000,0.4800,0,0,180.0*
21,1,0.4800,0.6000,0,0,180.0*
1,1,0.1200,-0.2400,0.2400*
1,1,0.1200,0.2400,0.2400*
1,1,0.1200,0.2400,-0.2400*
1,1,0.1200,-0.2400,-0.2400*
%
%ADD54ROUNDEDRECTD54*%
G04:AMPARAMS|DCode=58|XSize=1mm|YSize=0.9mm|CornerRadius=0.1125mm|HoleSize=0mm|Usage=FLASHONLY|Rotation=0.000|XOffset=0mm|YOffset=0mm|HoleType=Round|Shape=RoundedRectangle|*
%AMROUNDEDRECTD58*
21,1,1.0000,0.6750,0,0,0.0*
21,1,0.7750,0.9000,0,0,0.0*
1,1,0.2250,0.3875,-0.3375*
1,1,0.2250,-0.3875,-0.3375*
1,1,0.2250,-0.3875,0.3375*
1,1,0.2250,0.3875,0.3375*
%
%ADD58ROUNDEDRECTD58*%
G04:AMPARAMS|DCode=137|XSize=1mm|YSize=0.9mm|CornerRadius=0.1125mm|HoleSize=0mm|Usage=FLASHONLY|Rotation=90.000|XOffset=0mm|YOffset=0mm|HoleType=Round|Shape=RoundedRectangle|*
%AMROUNDEDRECTD137*
21,1,1.0000,0.6750,0,0,90.0*
21,1,0.7750,0.9000,0,0,90.0*
1,1,0.2250,0.3375,0.3875*
1,1,0.2250,0.3375,-0.3875*
1,1,0.2250,-0.3375,-0.3875*
1,1,0.2250,-0.3375,0.3875*
%
%ADD137ROUNDEDRECTD137*%
%ADD138R,0.3000X0.6500*%
%ADD139R,0.6400X0.6400*%
G04:AMPARAMS|DCode=140|XSize=0.4mm|YSize=1.2mm|CornerRadius=0.05mm|HoleSize=0mm|Usage=FLASHONLY|Rotation=90.000|XOffset=0mm|YOffset=0mm|HoleType=Round|Shape=RoundedRectangle|*
%AMROUNDEDRECTD140*
21,1,0.4000,1.1000,0,0,90.0*
21,1,0.3000,1.2000,0,0,90.0*
1,1,0.1000,0.5500,0.1500*
1,1,0.1000,0.5500,-0.1500*
1,1,0.1000,-0.5500,-0.1500*
1,1,0.1000,-0.5500,0.1500*
%
%ADD140ROUNDEDRECTD140*%
G04:AMPARAMS|DCode=141|XSize=1.3mm|YSize=0.8mm|CornerRadius=0.1mm|HoleSize=0mm|Usage=FLASHONLY|Rotation=90.000|XOffset=0mm|YOffset=0mm|HoleType=Round|Shape=RoundedRectangle|*
%AMROUNDEDRECTD141*
21,1,1.3000,0.6000,0,0,90.0*
21,1,1.1000,0.8000,0,0,90.0*
1,1,0.2000,0.3000,0.5500*
1,1,0.2000,0.3000,-0.5500*
1,1,0.2000,-0.3000,-0.5500*
1,1,0.2000,-0.3000,0.5500*
%
%ADD141ROUNDEDRECTD141*%
%ADD142R,1.2700X0.7600*%
%ADD143R,0.6000X1.0000*%
G04:AMPARAMS|DCode=144|XSize=1.05mm|YSize=0.6mm|CornerRadius=0.15mm|HoleSize=0mm|Usage=FLASHONLY|Rotation=180.000|XOffset=0mm|YOffset=0mm|HoleType=Round|Shape=RoundedRectangle|*
%AMROUNDEDRECTD144*
21,1,1.0500,0.3000,0,0,180.0*
21,1,0.7500,0.6000,0,0,180.0*
1,1,0.3000,-0.3750,0.1500*
1,1,0.3000,0.3750,0.1500*
1,1,0.3000,0.3750,-0.1500*
1,1,0.3000,-0.3750,-0.1500*
%
%ADD144ROUNDEDRECTD144*%
%ADD145O,2.0000X0.3500*%
G04:AMPARAMS|DCode=146|XSize=0.4mm|YSize=1.2mm|CornerRadius=0.05mm|HoleSize=0mm|Usage=FLASHONLY|Rotation=180.000|XOffset=0mm|YOffset=0mm|HoleType=Round|Shape=RoundedRectangle|*
%AMROUNDEDRECTD146*
21,1,0.4000,1.1000,0,0,180.0*
21,1,0.3000,1.2000,0,0,180.0*
1,1,0.1000,-0.1500,0.5500*
1,1,0.1000,0.1500,0.5500*
1,1,0.1000,0.1500,-0.5500*
1,1,0.1000,-0.1500,-0.5500*
%
%ADD146ROUNDEDRECTD146*%
%ADD147R,1.2000X0.6500*%
G04:AMPARAMS|DCode=148|XSize=0.8078mm|YSize=0.2393mm|CornerRadius=0.1196mm|HoleSize=0mm|Usage=FLASHONLY|Rotation=180.000|XOffset=0mm|YOffset=0mm|HoleType=Round|Shape=RoundedRectangle|*
%AMROUNDEDRECTD148*
21,1,0.8078,0.0000,0,0,180.0*
21,1,0.5686,0.2393,0,0,180.0*
1,1,0.2393,-0.2843,0.0000*
1,1,0.2393,0.2843,0.0000*
1,1,0.2393,0.2843,0.0000*
1,1,0.2393,-0.2843,0.0000*
%
%ADD148ROUNDEDRECTD148*%
G04:AMPARAMS|DCode=149|XSize=0.2393mm|YSize=0.8078mm|CornerRadius=0.1196mm|HoleSize=0mm|Usage=FLASHONLY|Rotation=180.000|XOffset=0mm|YOffset=0mm|HoleType=Round|Shape=RoundedRectangle|*
%AMROUNDEDRECTD149*
21,1,0.2393,0.5686,0,0,180.0*
21,1,0.0000,0.8078,0,0,180.0*
1,1,0.2393,0.0000,0.2843*
1,1,0.2393,0.0000,0.2843*
1,1,0.2393,0.0000,-0.2843*
1,1,0.2393,0.0000,-0.2843*
%
%ADD149ROUNDEDRECTD149*%
%ADD150R,1.9000X1.2000*%
G04:AMPARAMS|DCode=153|XSize=1.0611mm|YSize=0.3925mm|CornerRadius=0.1962mm|HoleSize=0mm|Usage=FLASHONLY|Rotation=90.000|XOffset=0mm|YOffset=0mm|HoleType=Round|Shape=RoundedRectangle|*
%AMROUNDEDRECTD153*
21,1,1.0611,0.0000,0,0,90.0*
21,1,0.6686,0.3925,0,0,90.0*
1,1,0.3925,0.0000,0.3343*
1,1,0.3925,0.0000,-0.3343*
1,1,0.3925,0.0000,-0.3343*
1,1,0.3925,0.0000,0.3343*
%
%ADD153ROUNDEDRECTD153*%
G04:AMPARAMS|DCode=155|XSize=1.0611mm|YSize=0.3925mm|CornerRadius=0.1962mm|HoleSize=0mm|Usage=FLASHONLY|Rotation=0.000|XOffset=0mm|YOffset=0mm|HoleType=Round|Shape=RoundedRectangle|*
%AMROUNDEDRECTD155*
21,1,1.0611,0.0000,0,0,0.0*
21,1,0.6686,0.3925,0,0,0.0*
1,1,0.3925,0.3343,0.0000*
1,1,0.3925,-0.3343,0.0000*
1,1,0.3925,-0.3343,0.0000*
1,1,0.3925,0.3343,0.0000*
%
%ADD155ROUNDEDRECTD155*%
%ADD156R,2.8000X1.0000*%
%ADD157R,1.2000X1.0000*%
%ADD158R,3.2000X3.2000*%
%ADD159R,0.2000X0.8500*%
%ADD160R,0.9500X0.8000*%
%ADD161C,1.1447*%
%ADD162R,1.2000X0.7000*%
%ADD163R,0.6500X1.2000*%
%ADD164R,2.1500X1.0000*%
G04:AMPARAMS|DCode=165|XSize=0.65mm|YSize=1.65mm|CornerRadius=0.0488mm|HoleSize=0mm|Usage=FLASHONLY|Rotation=0.000|XOffset=0mm|YOffset=0mm|HoleType=Round|Shape=RoundedRectangle|*
%AMROUNDEDRECTD165*
21,1,0.6500,1.5525,0,0,0.0*
21,1,0.5525,1.6500,0,0,0.0*
1,1,0.0975,0.2763,-0.7763*
1,1,0.0975,-0.2763,-0.7763*
1,1,0.0975,-0.2763,0.7763*
1,1,0.0975,0.2763,0.7763*
%
%ADD165ROUNDEDRECTD165*%
%ADD166R,1.1000X1.3000*%
%ADD167R,2.5000X2.5000*%
%ADD168R,1.4000X1.2000*%
%ADD169R,1.0000X1.0000*%
%ADD170O,0.7500X0.2500*%
%ADD171R,4.5000X4.5000*%
%ADD172O,0.2500X0.7500*%
%ADD173R,0.6500X0.3000*%
%ADD174R,0.6400X0.9200*%
%ADD175R,2.1500X3.2500*%
%ADD176R,0.3925X1.0611*%
%ADD177R,1.0611X0.3925*%
%ADD178R,0.8078X0.2393*%
%ADD179C,0.2520*%
%ADD180R,0.8500X0.2000*%
%ADD181R,2.5000X1.7000*%
%ADD182R,1.0000X0.6000*%
%ADD183R,0.9200X0.6400*%
%ADD215R,2.9724X2.0724*%
%ADD216R,2.0724X2.9724*%
%ADD217R,2.0239X2.0239*%
G36*
X633280Y887807D02*
X633674Y887413D01*
X633887Y886898D01*
Y886620D01*
Y886341D01*
X633674Y885827D01*
X633280Y885433D01*
X632766Y885220D01*
X626987D01*
Y888020D01*
X632766D01*
X633280Y887807D01*
D02*
G37*
G36*
X632487Y893020D02*
X632766D01*
X633280Y892807D01*
X633674Y892413D01*
X633887Y891898D01*
Y891620D01*
Y891341D01*
X633674Y890827D01*
X633280Y890433D01*
X632766Y890220D01*
X626987D01*
Y893020D01*
X632487D01*
Y893020D01*
D02*
G37*
G36*
X633280Y897807D02*
X633674Y897413D01*
X633887Y896898D01*
Y896620D01*
Y896341D01*
X633674Y895827D01*
X633280Y895433D01*
X632766Y895220D01*
X626987D01*
Y898020D01*
X632766D01*
X633280Y897807D01*
D02*
G37*
G36*
X637556Y883532D02*
X637949Y883138D01*
X638162Y882624D01*
Y882345D01*
Y876845D01*
X635363D01*
Y882345D01*
Y882624D01*
X635576Y883138D01*
X635970Y883532D01*
X636484Y883745D01*
X637041D01*
X637556Y883532D01*
D02*
G37*
G36*
X642555D02*
X642949Y883138D01*
X643163Y882624D01*
Y882345D01*
X643163Y876845D01*
X640362D01*
Y882345D01*
Y882624D01*
X640576Y883138D01*
X640969Y883532D01*
X641484Y883745D01*
X642041D01*
X642555Y883532D01*
D02*
G37*
G36*
X647556D02*
X647949Y883138D01*
X648163Y882624D01*
Y882345D01*
Y876845D01*
X645362D01*
Y882345D01*
Y882624D01*
X645576Y883138D01*
X645969Y883532D01*
X646484Y883745D01*
X647041D01*
X647556Y883532D01*
D02*
G37*
G36*
X633280Y902807D02*
X633674Y902413D01*
X633887Y901898D01*
Y901620D01*
Y901341D01*
X633674Y900827D01*
X633280Y900433D01*
X632766Y900220D01*
X626987D01*
Y903020D01*
X632766D01*
X633280Y902807D01*
D02*
G37*
G36*
Y907807D02*
X633674Y907413D01*
X633887Y906898D01*
Y906620D01*
Y906341D01*
X633674Y905827D01*
X633280Y905433D01*
X632766Y905220D01*
X632487D01*
X626987Y905220D01*
Y908020D01*
X632766D01*
X633280Y907807D01*
D02*
G37*
G36*
Y912807D02*
X633674Y912413D01*
X633887Y911898D01*
Y911620D01*
Y911341D01*
X633674Y910827D01*
X633280Y910433D01*
X632766Y910220D01*
X626987D01*
Y913020D01*
X632766D01*
X633280Y912807D01*
D02*
G37*
G36*
X638162Y915895D02*
Y915617D01*
X637949Y915102D01*
X637556Y914708D01*
X637041Y914495D01*
X636484D01*
X635970Y914708D01*
X635576Y915102D01*
X635363Y915617D01*
Y915895D01*
Y921395D01*
X638162D01*
Y915895D01*
D02*
G37*
G36*
X643163D02*
X643163D01*
Y915617D01*
X642949Y915102D01*
X642555Y914708D01*
X642041Y914495D01*
X641484D01*
X640969Y914708D01*
X640576Y915102D01*
X640362Y915617D01*
Y915895D01*
Y921395D01*
X643163D01*
Y915895D01*
D02*
G37*
G36*
X648163D02*
Y915617D01*
X647949Y915102D01*
X647556Y914708D01*
X647041Y914495D01*
X646484D01*
X645969Y914708D01*
X645576Y915102D01*
X645362Y915617D01*
Y915895D01*
Y921395D01*
X648163D01*
Y915895D01*
D02*
G37*
G36*
X663163D02*
Y915617D01*
X662949Y915102D01*
X662555Y914708D01*
X662041Y914495D01*
X661484D01*
X660969Y914708D01*
X660576Y915102D01*
X660362Y915617D01*
Y915895D01*
Y921395D01*
X663163D01*
Y915895D01*
D02*
G37*
G36*
X658163D02*
Y915617D01*
X657949Y915102D01*
X657556Y914708D01*
X657041Y914495D01*
X656484D01*
X655969Y914708D01*
X655576Y915102D01*
X655362Y915617D01*
Y915895D01*
X655362Y921395D01*
X658163D01*
Y915895D01*
D02*
G37*
G36*
X653163D02*
Y915617D01*
X652949Y915102D01*
X652555Y914708D01*
X652041Y914495D01*
X651484D01*
X650969Y914708D01*
X650576Y915102D01*
X650362Y915617D01*
Y915895D01*
Y921395D01*
X653163D01*
Y915895D01*
D02*
G37*
G36*
X671537Y910220D02*
X665759D01*
X665245Y910433D01*
X664851Y910827D01*
X664638Y911341D01*
Y911620D01*
Y911898D01*
X664851Y912413D01*
X665245Y912807D01*
X665759Y913020D01*
X671537D01*
Y910220D01*
D02*
G37*
G36*
Y905220D02*
X666038D01*
Y905220D01*
X665759D01*
X665245Y905433D01*
X664851Y905827D01*
X664638Y906341D01*
Y906620D01*
Y906898D01*
X664851Y907413D01*
X665245Y907807D01*
X665759Y908020D01*
X671537D01*
Y905220D01*
D02*
G37*
G36*
Y900220D02*
X665759D01*
X665245Y900433D01*
X664851Y900827D01*
X664638Y901341D01*
Y901620D01*
Y901898D01*
X664851Y902413D01*
X665245Y902807D01*
X665759Y903020D01*
X671537D01*
Y900220D01*
D02*
G37*
G36*
Y895220D02*
X665759D01*
X665245Y895433D01*
X664851Y895827D01*
X664638Y896341D01*
Y896620D01*
Y896898D01*
X664851Y897413D01*
X665245Y897807D01*
X665759Y898020D01*
X671537D01*
Y895220D01*
D02*
G37*
G36*
Y890220D02*
X665759D01*
X665245Y890433D01*
X664851Y890827D01*
X664638Y891341D01*
Y891620D01*
Y891898D01*
X664851Y892413D01*
X665245Y892807D01*
X665759Y893020D01*
X666038D01*
X671537Y893020D01*
Y890220D01*
D02*
G37*
G36*
Y885220D02*
X665759D01*
X665245Y885433D01*
X664851Y885827D01*
X664638Y886341D01*
Y886620D01*
Y886898D01*
X664851Y887413D01*
X665245Y887807D01*
X665759Y888020D01*
X671537D01*
Y885220D01*
D02*
G37*
G36*
X662555Y883532D02*
X662949Y883138D01*
X663163Y882624D01*
Y882345D01*
Y876845D01*
X660362D01*
Y882345D01*
Y882624D01*
X660576Y883138D01*
X660969Y883532D01*
X661484Y883745D01*
X662041D01*
X662555Y883532D01*
D02*
G37*
G36*
X657556D02*
X657949Y883138D01*
X658163Y882624D01*
Y882345D01*
Y876845D01*
X655362D01*
Y882345D01*
X655362D01*
Y882624D01*
X655576Y883138D01*
X655969Y883532D01*
X656484Y883745D01*
X657041D01*
X657556Y883532D01*
D02*
G37*
G36*
X652555D02*
X652949Y883138D01*
X653163Y882624D01*
Y882345D01*
Y876845D01*
X650362D01*
Y882345D01*
Y882624D01*
X650576Y883138D01*
X650969Y883532D01*
X651484Y883745D01*
X652041D01*
X652555Y883532D01*
D02*
G37*
G36*
X1671350Y474346D02*
X1652350D01*
Y487346D01*
X1666350D01*
X1667850Y488846D01*
Y492846D01*
X1671350D01*
Y474346D01*
D02*
G37*
D25*
X1615850Y615846D02*
D03*
D32*
X1470000Y417600D02*
D03*
Y408400D02*
D03*
X1540000Y891600D02*
D03*
Y882400D02*
D03*
X1453725Y869139D02*
D03*
Y878339D02*
D03*
X728000Y938600D02*
D03*
Y929400D02*
D03*
X864000Y862730D02*
D03*
Y871930D02*
D03*
Y843400D02*
D03*
Y852600D02*
D03*
X854000Y843400D02*
D03*
Y852600D02*
D03*
X861963Y819360D02*
D03*
Y828560D02*
D03*
X1065324Y584600D02*
D03*
X1188720Y584680D02*
D03*
X1478280Y990120D02*
D03*
X1437640Y929160D02*
D03*
X1357652Y939320D02*
D03*
X1345473D02*
D03*
X1530350Y825020D02*
D03*
X880000Y839400D02*
D03*
X1485900Y600776D02*
D03*
X1401587Y659920D02*
D03*
X1354370Y650720D02*
D03*
X1561000Y443600D02*
D03*
X1535000Y352400D02*
D03*
X1389380Y478000D02*
D03*
X1325880Y737080D02*
D03*
Y701520D02*
D03*
X864000Y902400D02*
D03*
Y891600D02*
D03*
Y801600D02*
D03*
X784000Y808480D02*
D03*
X610870Y878050D02*
D03*
X672467Y853534D02*
D03*
X646430Y856770D02*
D03*
X594795Y847570D02*
D03*
X579000Y786600D02*
D03*
X833000Y704200D02*
D03*
X779331Y683177D02*
D03*
X693000Y714600D02*
D03*
X714000Y647400D02*
D03*
Y622000D02*
D03*
X715000Y595800D02*
D03*
X625000Y719600D02*
D03*
X589000Y660600D02*
D03*
X588000Y612400D02*
D03*
X1485900Y591576D02*
D03*
X1530350Y815820D02*
D03*
X1478280Y980920D02*
D03*
X693000Y705400D02*
D03*
X589000Y651400D02*
D03*
X715000Y605000D02*
D03*
X588000Y621600D02*
D03*
X1016000Y544196D02*
D03*
X784000Y817679D02*
D03*
X880000Y848600D02*
D03*
X1016000Y590945D02*
D03*
X1091578Y635480D02*
D03*
X1041400Y641585D02*
D03*
X625000Y710400D02*
D03*
X864000Y792400D02*
D03*
Y911600D02*
D03*
Y882400D02*
D03*
X1389380Y487200D02*
D03*
X1325880Y710720D02*
D03*
Y746280D02*
D03*
X1016000Y553396D02*
D03*
X1091578Y644680D02*
D03*
X1016000Y600144D02*
D03*
X1041400Y632385D02*
D03*
X779331Y692377D02*
D03*
X1401587Y650720D02*
D03*
X1354370Y659920D02*
D03*
X833000Y695000D02*
D03*
X1345473Y930120D02*
D03*
X1357652D02*
D03*
X1437640Y919960D02*
D03*
X579000Y777400D02*
D03*
X1561000Y434400D02*
D03*
X1535000Y361600D02*
D03*
X1065324Y593800D02*
D03*
X1188720Y593880D02*
D03*
X714000Y656600D02*
D03*
Y631200D02*
D03*
X646430Y847570D02*
D03*
X594795Y856770D02*
D03*
X610870Y887250D02*
D03*
X672467Y862735D02*
D03*
D33*
X1016000Y636920D02*
D03*
X919000Y640000D02*
D03*
X1386840Y1049640D02*
D03*
X1544320Y826150D02*
D03*
X947000Y846000D02*
D03*
X1033000Y830000D02*
D03*
X1478280Y779130D02*
D03*
X1466850Y599578D02*
D03*
X890730Y766290D02*
D03*
X1310640Y699120D02*
D03*
X1315720Y668640D02*
D03*
X1140000Y714000D02*
D03*
X768000Y802482D02*
D03*
X514682Y883270D02*
D03*
X686816Y849488D02*
D03*
X564000Y789000D02*
D03*
X769620Y657240D02*
D03*
X726440Y615300D02*
D03*
Y643240D02*
D03*
X769620Y612760D02*
D03*
X610000Y723000D02*
D03*
X1466850Y585578D02*
D03*
X1544320Y812150D02*
D03*
X947000Y832000D02*
D03*
X1478280Y793130D02*
D03*
X768000Y816481D02*
D03*
X1033000Y816000D02*
D03*
X769620Y626760D02*
D03*
Y643240D02*
D03*
X1140000Y700000D02*
D03*
X1310640Y713120D02*
D03*
X890730Y780290D02*
D03*
X919000Y654000D02*
D03*
X1315720Y682640D02*
D03*
X1386840Y1063640D02*
D03*
X564000Y775000D02*
D03*
X1016000Y622920D02*
D03*
X610000Y709000D02*
D03*
X726440Y657240D02*
D03*
Y629300D02*
D03*
X686816Y863488D02*
D03*
X514682Y897270D02*
D03*
D41*
X1633000Y751000D02*
D03*
X1643000D02*
D03*
X1124590Y927689D02*
D03*
X1134590D02*
D03*
Y914400D02*
D03*
X1124590D02*
D03*
X1178165Y627968D02*
D03*
X1158320Y640080D02*
D03*
X1269920Y635351D02*
D03*
Y648639D02*
D03*
X1473120Y1017952D02*
D03*
X1601000Y895000D02*
D03*
X703500Y877392D02*
D03*
X565230Y872364D02*
D03*
X447000Y867000D02*
D03*
X1643000Y764000D02*
D03*
X1633000D02*
D03*
X1640000Y817000D02*
D03*
X1630000D02*
D03*
X688345Y732766D02*
D03*
X678345D02*
D03*
Y746055D02*
D03*
X688345D02*
D03*
X678345Y759343D02*
D03*
X688345D02*
D03*
X678345Y772632D02*
D03*
X688345D02*
D03*
X678505Y785920D02*
D03*
X688505D02*
D03*
X678345Y799209D02*
D03*
X688345D02*
D03*
X678345Y812497D02*
D03*
X688345D02*
D03*
X678345Y825786D02*
D03*
X688345D02*
D03*
X604440Y578399D02*
D03*
X594440D02*
D03*
X604440Y565110D02*
D03*
X594440D02*
D03*
X604440Y551768D02*
D03*
X594440D02*
D03*
X604440Y538480D02*
D03*
X594440D02*
D03*
X655320Y505460D02*
D03*
X645320D02*
D03*
X655240Y492172D02*
D03*
X645240D02*
D03*
X655320Y478883D02*
D03*
X645320D02*
D03*
X655240Y464820D02*
D03*
X645240D02*
D03*
X607060Y363220D02*
D03*
X597060D02*
D03*
X606980Y376508D02*
D03*
X596980D02*
D03*
X606980Y389797D02*
D03*
X596980D02*
D03*
X1490900Y656035D02*
D03*
X1480900D02*
D03*
X1493440Y579120D02*
D03*
X1483440D02*
D03*
X1591000Y895000D02*
D03*
X1168320Y640080D02*
D03*
X1442640Y761226D02*
D03*
X1432640D02*
D03*
X703500Y890680D02*
D03*
X693500D02*
D03*
X1518840Y688366D02*
D03*
X1442640Y692057D02*
D03*
X1285320Y796306D02*
D03*
X1259920Y929640D02*
D03*
Y916234D02*
D03*
X751920Y962072D02*
D03*
X1331040Y662906D02*
D03*
X1031320Y546810D02*
D03*
X1234520Y648639D02*
D03*
X1031320Y592530D02*
D03*
X1442640Y678768D02*
D03*
X1259920Y648639D02*
D03*
X1204040Y640351D02*
D03*
X1508840Y688366D02*
D03*
X1341040Y662906D02*
D03*
X761920Y975360D02*
D03*
X751920D02*
D03*
X761920Y962072D02*
D03*
X1317070Y780368D02*
D03*
X1327070D02*
D03*
X1442640Y774514D02*
D03*
X1432640D02*
D03*
X1317150Y767080D02*
D03*
X1327150D02*
D03*
X1442640Y747937D02*
D03*
X1432640D02*
D03*
X1442560Y734649D02*
D03*
X1432560D02*
D03*
X1269920Y916234D02*
D03*
X1442560Y721360D02*
D03*
X1432560D02*
D03*
X1442640Y705346D02*
D03*
X1432640D02*
D03*
X1269920Y929640D02*
D03*
X1432640Y692057D02*
D03*
X1295320Y796306D02*
D03*
X1432640Y678768D02*
D03*
X1473120Y1031240D02*
D03*
X1463120D02*
D03*
Y1017952D02*
D03*
X1447880Y975360D02*
D03*
X1457880D02*
D03*
X1447880Y988649D02*
D03*
X1457880D02*
D03*
X1244520Y648639D02*
D03*
X1234600Y635351D02*
D03*
X1244600D02*
D03*
X1259920D02*
D03*
X1214040Y640351D02*
D03*
X1145031Y635472D02*
D03*
X1135032D02*
D03*
X1178165Y614680D02*
D03*
X1188165D02*
D03*
Y627968D02*
D03*
X1041320Y546810D02*
D03*
Y592530D02*
D03*
X696040Y579120D02*
D03*
X706040D02*
D03*
X575230Y872364D02*
D03*
X693500Y877392D02*
D03*
X437000Y867000D02*
D03*
D42*
X798958Y844836D02*
D03*
X784958D02*
D03*
X977280Y598869D02*
D03*
X1312645Y604496D02*
D03*
X1557640Y839470D02*
D03*
X967120Y915670D02*
D03*
X1536080Y785760D02*
D03*
X1343040Y604496D02*
D03*
X1481440Y563880D02*
D03*
X1450960D02*
D03*
X1114000Y767000D02*
D03*
X998870Y719563D02*
D03*
X710100Y953180D02*
D03*
X664860Y934720D02*
D03*
X532100Y996950D02*
D03*
X532750Y977900D02*
D03*
X829921Y760000D02*
D03*
X581000Y750000D02*
D03*
X1571640Y839470D02*
D03*
X1522080Y785760D02*
D03*
X1100000Y767000D02*
D03*
X843921Y760000D02*
D03*
X984870Y719563D02*
D03*
X1464960Y563880D02*
D03*
X1495440D02*
D03*
X953120Y915670D02*
D03*
X567000Y750000D02*
D03*
X1329040Y604496D02*
D03*
X1298645Y604496D02*
D03*
X963280Y598869D02*
D03*
X696100Y953180D02*
D03*
X650860Y934720D02*
D03*
X546100Y996950D02*
D03*
X546750Y977900D02*
D03*
D51*
X527050Y684860D02*
D03*
X539750D02*
D03*
X552450D02*
D03*
X565150D02*
D03*
X552450Y630860D02*
D03*
X527050D02*
D03*
X539750D02*
D03*
X565150D02*
D03*
D54*
X593000Y699000D02*
D03*
Y709000D02*
D03*
X929000Y692000D02*
D03*
Y682000D02*
D03*
X940000Y604000D02*
D03*
X1031240Y521490D02*
D03*
X1016000D02*
D03*
X1031240Y567210D02*
D03*
X1016000Y567290D02*
D03*
X1053512Y609680D02*
D03*
X1040223D02*
D03*
X1118188Y635472D02*
D03*
X1076960D02*
D03*
X1544320Y843360D02*
D03*
X1427480Y502840D02*
D03*
X716788Y901907D02*
D03*
X520000Y945000D02*
D03*
X486000Y676000D02*
D03*
Y686000D02*
D03*
X560796Y721608D02*
D03*
X560796Y711608D02*
D03*
X580810Y711280D02*
D03*
Y721280D02*
D03*
X550592Y825565D02*
D03*
Y815565D02*
D03*
X563880Y825420D02*
D03*
Y815420D02*
D03*
X537303Y825565D02*
D03*
Y815565D02*
D03*
X969556Y717630D02*
D03*
Y727630D02*
D03*
X884000Y517000D02*
D03*
Y507000D02*
D03*
X870000Y517000D02*
D03*
Y507000D02*
D03*
X579120Y675720D02*
D03*
Y685720D02*
D03*
X1466850Y640000D02*
D03*
Y630000D02*
D03*
X1479550Y640000D02*
D03*
Y630000D02*
D03*
X1492250Y640000D02*
D03*
Y630000D02*
D03*
X1544320Y655240D02*
D03*
Y645240D02*
D03*
X1558290Y645160D02*
D03*
Y655160D02*
D03*
X1544320Y853360D02*
D03*
X630000Y391000D02*
D03*
Y381000D02*
D03*
X643000Y391000D02*
D03*
Y381000D02*
D03*
X657000Y392000D02*
D03*
Y382000D02*
D03*
X670000Y381000D02*
D03*
Y391000D02*
D03*
X1487186Y710263D02*
D03*
Y700263D02*
D03*
X716788Y891907D02*
D03*
X1016000Y531490D02*
D03*
X1487170Y746680D02*
D03*
X1016000Y577290D02*
D03*
X1104900Y635472D02*
D03*
X869259Y717062D02*
D03*
X855971Y716982D02*
D03*
X1054134Y642969D02*
D03*
X1607114Y706200D02*
D03*
X1472635Y746765D02*
D03*
X1414321Y655320D02*
D03*
X1076960Y645472D02*
D03*
X1620520Y706200D02*
D03*
X1440898Y655320D02*
D03*
X1040223Y619680D02*
D03*
X1427609Y655480D02*
D03*
X940000Y614000D02*
D03*
X1427480Y492840D02*
D03*
X855971Y706982D02*
D03*
X869259Y707062D02*
D03*
X1472635Y736765D02*
D03*
X1487170Y736680D02*
D03*
X1620520Y716200D02*
D03*
X1607114D02*
D03*
X1414321Y665320D02*
D03*
X1440898D02*
D03*
X1427609Y665480D02*
D03*
X1118188Y645472D02*
D03*
X1104900D02*
D03*
X1066800Y619680D02*
D03*
Y609680D02*
D03*
X1054134Y632969D02*
D03*
X1031240Y577210D02*
D03*
X1053512Y619680D02*
D03*
X1044529Y567210D02*
D03*
Y577210D02*
D03*
X1031240Y531490D02*
D03*
X1046480Y521490D02*
D03*
Y531490D02*
D03*
X940000Y638000D02*
D03*
Y628000D02*
D03*
X577810Y650105D02*
D03*
Y660105D02*
D03*
X679450Y933610D02*
D03*
Y943610D02*
D03*
X612024Y921869D02*
D03*
Y931869D02*
D03*
X520000Y935000D02*
D03*
X517821Y911174D02*
D03*
Y921173D02*
D03*
D58*
X1041000Y916500D02*
D03*
Y933500D02*
D03*
X1063000Y917000D02*
D03*
Y934000D02*
D03*
X1087200Y558679D02*
D03*
X1103219D02*
D03*
X1153240D02*
D03*
X1169258Y558800D02*
D03*
X1219200Y558679D02*
D03*
X1235219D02*
D03*
X1463819Y958460D02*
D03*
X1412240Y1048140D02*
D03*
X1410415Y1024040D02*
D03*
X1391920Y1024500D02*
D03*
X1330960Y961780D02*
D03*
X680832Y978780D02*
D03*
X518000Y982500D02*
D03*
X473710Y850020D02*
D03*
X1268000Y689500D02*
D03*
Y672500D02*
D03*
X1651000Y960500D02*
D03*
Y943500D02*
D03*
Y1000500D02*
D03*
Y983500D02*
D03*
X1456690Y802250D02*
D03*
Y785250D02*
D03*
X1286000Y689500D02*
D03*
Y672500D02*
D03*
X680832Y961780D02*
D03*
X1138000Y526660D02*
D03*
X1203960D02*
D03*
X1119237D02*
D03*
X1186056D02*
D03*
X774700Y317382D02*
D03*
X1424161Y383930D02*
D03*
X791090Y317382D02*
D03*
X1470000Y378500D02*
D03*
X1440180Y383930D02*
D03*
X1252016Y526660D02*
D03*
X1087200D02*
D03*
X1440180Y400930D02*
D03*
X1290320Y978780D02*
D03*
Y961780D02*
D03*
X1447800Y959731D02*
D03*
Y942730D02*
D03*
X1463819Y941460D02*
D03*
X1361440Y978780D02*
D03*
Y961780D02*
D03*
X1412240Y1065140D02*
D03*
X1310640Y961780D02*
D03*
Y978780D02*
D03*
X1410415Y1007040D02*
D03*
X1397000Y890660D02*
D03*
Y907660D02*
D03*
X1391920Y1007500D02*
D03*
X1330960Y978780D02*
D03*
X1412240Y890660D02*
D03*
Y907660D02*
D03*
X1346200Y978780D02*
D03*
Y961780D02*
D03*
X1235219Y541679D02*
D03*
X1219200D02*
D03*
X1219979Y509660D02*
D03*
Y526660D02*
D03*
X1235997Y509660D02*
D03*
Y526660D02*
D03*
X1203960Y509660D02*
D03*
X1252016D02*
D03*
X1470000Y395500D02*
D03*
X1087200Y541679D02*
D03*
X1103219D02*
D03*
X1169258Y541800D02*
D03*
X1153240Y541679D02*
D03*
X1087200Y509660D02*
D03*
X1103219D02*
D03*
Y526660D02*
D03*
X1170037Y509660D02*
D03*
Y526660D02*
D03*
X1154018Y509660D02*
D03*
Y526660D02*
D03*
X1138000Y509660D02*
D03*
X1186056D02*
D03*
X1071181D02*
D03*
Y526660D02*
D03*
X1119237Y509660D02*
D03*
X791090Y334382D02*
D03*
X1424161Y400930D02*
D03*
X774700Y334382D02*
D03*
X518000Y965500D02*
D03*
X473710Y867020D02*
D03*
D137*
X1159500Y867000D02*
D03*
X1176500D02*
D03*
X1159500Y849000D02*
D03*
X1176500D02*
D03*
X1580500Y468000D02*
D03*
X659520Y574040D02*
D03*
X740500Y848343D02*
D03*
X702700Y982980D02*
D03*
X719700D02*
D03*
X723500Y848343D02*
D03*
Y864361D02*
D03*
X740500D02*
D03*
X1339280Y795400D02*
D03*
X1322280D02*
D03*
X1563500Y468000D02*
D03*
X1314060Y620764D02*
D03*
X1297060D02*
D03*
X1364860Y530860D02*
D03*
X1347860D02*
D03*
X676520Y574040D02*
D03*
X696350Y936911D02*
D03*
X713350D02*
D03*
X713383Y920892D02*
D03*
X696384D02*
D03*
D138*
X970359Y943540D02*
D03*
X975359D02*
D03*
X980359D02*
D03*
X965359Y943540D02*
D03*
X965359Y955040D02*
D03*
X970359D02*
D03*
X975359D02*
D03*
X980359D02*
D03*
X801389D02*
D03*
X796389D02*
D03*
X791389D02*
D03*
X786389D02*
D03*
X791389Y943540D02*
D03*
X786389D02*
D03*
X801389D02*
D03*
X796389D02*
D03*
X815677Y955040D02*
D03*
X820677D02*
D03*
X825677Y955040D02*
D03*
X830677D02*
D03*
X815677Y943540D02*
D03*
X820677D02*
D03*
X825677D02*
D03*
X830677D02*
D03*
X860000Y956655D02*
D03*
X855000D02*
D03*
X850000D02*
D03*
X845000D02*
D03*
X855000Y945155D02*
D03*
X850000D02*
D03*
X845000D02*
D03*
X860000Y945155D02*
D03*
X889469Y956655D02*
D03*
X884469D02*
D03*
X879469D02*
D03*
X874469D02*
D03*
X884469Y945155D02*
D03*
X879469D02*
D03*
X874469D02*
D03*
X889469D02*
D03*
X924049D02*
D03*
X909049D02*
D03*
X914049D02*
D03*
X919049D02*
D03*
X909049Y956655D02*
D03*
X914049D02*
D03*
X919049Y956655D02*
D03*
X924049D02*
D03*
X951070Y955040D02*
D03*
X946070D02*
D03*
X941070D02*
D03*
X936070D02*
D03*
X941070Y943540D02*
D03*
X946070D02*
D03*
X951070D02*
D03*
X936070D02*
D03*
X1009647Y955040D02*
D03*
X1004647D02*
D03*
X999647Y955040D02*
D03*
X994647D02*
D03*
X1004647Y943540D02*
D03*
X1009647Y943540D02*
D03*
X994647Y943540D02*
D03*
X999647D02*
D03*
X946230Y727710D02*
D03*
X951230D02*
D03*
X941230Y716210D02*
D03*
X946230D02*
D03*
X951230Y716210D02*
D03*
X956230Y716210D02*
D03*
Y727710D02*
D03*
X941230D02*
D03*
X911942Y717008D02*
D03*
X916941D02*
D03*
X921942D02*
D03*
X926942D02*
D03*
X911942Y728508D02*
D03*
X926942Y728508D02*
D03*
X921942D02*
D03*
X916941D02*
D03*
D139*
X1473085Y888590D02*
D03*
X1463885D02*
D03*
X904720Y694249D02*
D03*
X913920Y694249D02*
D03*
X1310160Y590147D02*
D03*
X1518800Y1063000D02*
D03*
X1600600Y882000D02*
D03*
X1504160Y889000D02*
D03*
X1347160Y916138D02*
D03*
X1559560Y826770D02*
D03*
X1533680Y800108D02*
D03*
X1437160Y869188D02*
D03*
X1487960Y807720D02*
D03*
X1428440Y804893D02*
D03*
X1307620Y916940D02*
D03*
X892901Y844000D02*
D03*
X923424D02*
D03*
X786400Y779000D02*
D03*
X872514Y828195D02*
D03*
X1417843Y777240D02*
D03*
X1582900Y689610D02*
D03*
X1387320Y777240D02*
D03*
X1365974D02*
D03*
X1353030Y675640D02*
D03*
X1483840Y548640D02*
D03*
X1453360D02*
D03*
X1111600Y781000D02*
D03*
X868600Y762000D02*
D03*
X1331440Y675640D02*
D03*
X974880Y556580D02*
D03*
X801322Y926869D02*
D03*
X820985Y844564D02*
D03*
X703100Y903413D02*
D03*
X848600Y828000D02*
D03*
X841600Y845000D02*
D03*
X768340Y781590D02*
D03*
X626370Y935990D02*
D03*
X446600Y854000D02*
D03*
X565630Y859631D02*
D03*
X812320Y740410D02*
D03*
X748600Y740000D02*
D03*
X658600Y704000D02*
D03*
X743400Y675704D02*
D03*
X538000Y612140D02*
D03*
X634200Y571000D02*
D03*
X437400Y854000D02*
D03*
X1478760Y807720D02*
D03*
X1568760Y826770D02*
D03*
X1513360Y889000D02*
D03*
X1591400Y882000D02*
D03*
X1528000Y1063000D02*
D03*
X649400Y704000D02*
D03*
X625000Y571000D02*
D03*
X1102400Y781000D02*
D03*
X1298420Y916940D02*
D03*
X1524480Y800108D02*
D03*
X693900Y903413D02*
D03*
X795600Y779000D02*
D03*
X859400Y762000D02*
D03*
X1179040Y640702D02*
D03*
X832400Y845000D02*
D03*
X902101Y844000D02*
D03*
X881714Y828195D02*
D03*
X839400Y828000D02*
D03*
X528800Y612140D02*
D03*
X759140Y781590D02*
D03*
X811785Y844564D02*
D03*
X914224Y844000D02*
D03*
X810522Y926869D02*
D03*
X1462560Y548640D02*
D03*
X1375174Y777240D02*
D03*
X1356360Y916138D02*
D03*
X1408642Y777240D02*
D03*
X1340640Y675640D02*
D03*
X1493040Y548640D02*
D03*
X1592100Y689610D02*
D03*
X1234920Y661373D02*
D03*
X1244120D02*
D03*
X1188240Y640702D02*
D03*
X803120Y740410D02*
D03*
X1362230Y675640D02*
D03*
X1396520Y777240D02*
D03*
X1427960Y869188D02*
D03*
X1515400Y436000D02*
D03*
X1524600D02*
D03*
X1507400Y365000D02*
D03*
X1516600D02*
D03*
X1300960Y590147D02*
D03*
X965680Y556580D02*
D03*
X1437640Y804893D02*
D03*
X739400Y740000D02*
D03*
X752600Y675704D02*
D03*
X574830Y859631D02*
D03*
X635569Y935990D02*
D03*
X550700Y934280D02*
D03*
X541500D02*
D03*
D140*
X1545000Y422500D02*
D03*
Y416000D02*
D03*
Y409500D02*
D03*
Y403000D02*
D03*
Y396500D02*
D03*
Y390000D02*
D03*
X1545000Y383500D02*
D03*
X1545000Y377000D02*
D03*
X1488000Y422500D02*
D03*
Y403000D02*
D03*
Y396500D02*
D03*
X1488000Y383500D02*
D03*
X1488000Y416000D02*
D03*
Y377000D02*
D03*
Y390000D02*
D03*
Y409500D02*
D03*
D141*
X1487000Y1047000D02*
D03*
X1507000D02*
D03*
X1481000Y913000D02*
D03*
X1501000D02*
D03*
X1535000D02*
D03*
X1515000D02*
D03*
X1541000Y1043000D02*
D03*
X1521000D02*
D03*
X1468280Y467360D02*
D03*
X1488280D02*
D03*
Y447040D02*
D03*
X1468280D02*
D03*
X1488280Y492760D02*
D03*
X1468280D02*
D03*
D142*
X838200Y485140D02*
D03*
Y472440D02*
D03*
Y459740D02*
D03*
Y447040D02*
D03*
X762000Y472440D02*
D03*
Y485140D02*
D03*
Y459740D02*
D03*
Y447040D02*
D03*
X535940Y496570D02*
D03*
Y433070D02*
D03*
Y483870D02*
D03*
Y458470D02*
D03*
Y471170D02*
D03*
Y445770D02*
D03*
Y509270D02*
D03*
Y420370D02*
D03*
X612140Y509270D02*
D03*
Y496570D02*
D03*
Y483870D02*
D03*
Y471170D02*
D03*
Y458470D02*
D03*
Y445770D02*
D03*
Y433070D02*
D03*
Y420370D02*
D03*
D143*
X896000Y681000D02*
D03*
X915000Y681000D02*
D03*
X905500Y657000D02*
D03*
X949429Y664443D02*
D03*
X988697D02*
D03*
X979197D02*
D03*
X939929Y691443D02*
D03*
X998197D02*
D03*
Y664443D02*
D03*
X958929Y691443D02*
D03*
X979197D02*
D03*
X958929Y664443D02*
D03*
X939929D02*
D03*
X949429Y691443D02*
D03*
X988697D02*
D03*
D144*
X966940Y629920D02*
D03*
Y620420D02*
D03*
X966940Y639420D02*
D03*
X993940Y639420D02*
D03*
X993940Y620420D02*
D03*
D145*
X1151680Y597569D02*
D03*
X1273792Y610447D02*
D03*
Y597447D02*
D03*
Y584447D02*
D03*
Y616947D02*
D03*
Y603947D02*
D03*
Y590947D02*
D03*
Y577947D02*
D03*
X1215791Y616947D02*
D03*
X1215791Y610447D02*
D03*
X1215791Y603947D02*
D03*
X1215791Y597447D02*
D03*
X1215791Y590947D02*
D03*
X1215791Y584447D02*
D03*
X1215791Y577947D02*
D03*
X1093680Y578069D02*
D03*
X1093680Y584569D02*
D03*
X1093680Y591069D02*
D03*
X1093680Y597569D02*
D03*
X1093680Y604068D02*
D03*
X1093680Y610569D02*
D03*
X1093680Y617068D02*
D03*
X1151680Y578069D02*
D03*
Y584569D02*
D03*
Y591068D02*
D03*
Y604068D02*
D03*
Y610569D02*
D03*
Y617068D02*
D03*
D146*
X1419750Y983540D02*
D03*
X1374250D02*
D03*
X1380750D02*
D03*
X1387250D02*
D03*
X1393750D02*
D03*
X1400250D02*
D03*
X1406750D02*
D03*
X1413250D02*
D03*
X1374250Y926540D02*
D03*
X1380750D02*
D03*
X1387250D02*
D03*
X1393750D02*
D03*
X1400250D02*
D03*
X1406750D02*
D03*
X1413250D02*
D03*
X1419750D02*
D03*
D147*
X1647000Y837500D02*
D03*
X1621000Y847000D02*
D03*
X1647000Y856500D02*
D03*
D148*
X1519191Y850860D02*
D03*
Y830860D02*
D03*
X1471688Y865860D02*
D03*
Y855860D02*
D03*
Y835860D02*
D03*
X1519191Y845860D02*
D03*
X1471688Y860860D02*
D03*
X1519191Y855860D02*
D03*
X1471688Y840860D02*
D03*
X1519191Y860860D02*
D03*
Y840860D02*
D03*
Y835860D02*
D03*
X1471688Y830860D02*
D03*
Y845860D02*
D03*
Y850860D02*
D03*
D149*
X1497940Y872112D02*
D03*
X1492940Y824608D02*
D03*
X1482940Y872112D02*
D03*
X1477940D02*
D03*
X1502940D02*
D03*
X1487940D02*
D03*
X1492940D02*
D03*
X1507940D02*
D03*
X1512940Y824608D02*
D03*
X1507940D02*
D03*
X1502940D02*
D03*
X1497940D02*
D03*
X1487940D02*
D03*
X1482940D02*
D03*
X1477940D02*
D03*
X1512940Y872112D02*
D03*
D150*
X1447280Y850992D02*
D03*
X1415280Y825992D02*
D03*
X760000Y718901D02*
D03*
X728000Y693901D02*
D03*
X1415280Y850992D02*
D03*
X1447280Y825992D02*
D03*
X728000Y718901D02*
D03*
X760000Y693901D02*
D03*
D153*
X1332230Y819724D02*
D03*
X1259212Y819265D02*
D03*
X1284612Y897775D02*
D03*
X1271911D02*
D03*
X1259212D02*
D03*
X1271911Y819265D02*
D03*
X1284612D02*
D03*
X1297312Y897775D02*
D03*
X1370330Y898234D02*
D03*
X1357630D02*
D03*
X1344930D02*
D03*
X1332230D02*
D03*
X1344930Y819724D02*
D03*
X1357630D02*
D03*
D155*
X1510145Y750570D02*
D03*
Y737870D02*
D03*
Y725170D02*
D03*
X1588655D02*
D03*
Y737870D02*
D03*
Y750570D02*
D03*
Y712470D02*
D03*
D156*
X1657350Y615846D02*
D03*
D157*
X1553850D02*
D03*
X1510850Y504346D02*
D03*
D158*
X1376680Y723739D02*
D03*
D159*
X1386680Y689239D02*
D03*
X1350680D02*
D03*
X1374680Y758239D02*
D03*
X1370680D02*
D03*
X1354680D02*
D03*
X1350680D02*
D03*
X1374680Y689239D02*
D03*
X1402680Y758239D02*
D03*
X1398680D02*
D03*
X1394680D02*
D03*
X1390680D02*
D03*
X1386680D02*
D03*
X1382680D02*
D03*
X1378680D02*
D03*
X1366680D02*
D03*
X1362680D02*
D03*
X1358680D02*
D03*
X1354680Y689239D02*
D03*
X1358680D02*
D03*
X1362680D02*
D03*
X1366680D02*
D03*
X1370680D02*
D03*
X1378680D02*
D03*
X1382680D02*
D03*
X1390680D02*
D03*
X1394680D02*
D03*
X1398680D02*
D03*
X1402680D02*
D03*
D160*
X1386229Y661071D02*
D03*
X1369729Y648072D02*
D03*
Y661071D02*
D03*
X1386229Y648072D02*
D03*
D161*
X1664991Y480706D02*
D03*
D162*
X1510850Y574846D02*
D03*
Y606346D02*
D03*
Y552846D02*
D03*
Y519846D02*
D03*
Y530846D02*
D03*
Y541846D02*
D03*
Y563846D02*
D03*
Y585846D02*
D03*
Y596846D02*
D03*
D163*
X1447140Y475280D02*
D03*
X545725Y890681D02*
D03*
X555225Y916681D02*
D03*
X536225D02*
D03*
X1428140Y475280D02*
D03*
X1437640Y449280D02*
D03*
D164*
X1116370Y744360D02*
D03*
X541541Y795162D02*
D03*
X1116370Y698360D02*
D03*
Y721360D02*
D03*
X541541Y749161D02*
D03*
Y772161D02*
D03*
D165*
X1337207Y510850D02*
D03*
X1375307Y454350D02*
D03*
Y510850D02*
D03*
X1362607Y454350D02*
D03*
X1349907D02*
D03*
X1337207D02*
D03*
X1349907Y510850D02*
D03*
X1362607D02*
D03*
D166*
X748660Y891200D02*
D03*
X732160D02*
D03*
Y912200D02*
D03*
X748660D02*
D03*
D167*
X649262Y899120D02*
D03*
D168*
X631600Y861271D02*
D03*
X609600Y844270D02*
D03*
Y861271D02*
D03*
X631600Y844270D02*
D03*
D169*
X496000Y843400D02*
D03*
D170*
X695490Y677580D02*
D03*
Y657580D02*
D03*
Y632580D02*
D03*
Y627580D02*
D03*
Y617580D02*
D03*
Y607580D02*
D03*
X604990Y672580D02*
D03*
Y612580D02*
D03*
Y677580D02*
D03*
Y667580D02*
D03*
Y662580D02*
D03*
Y657580D02*
D03*
Y652580D02*
D03*
Y642580D02*
D03*
Y637580D02*
D03*
Y632580D02*
D03*
Y627580D02*
D03*
Y622580D02*
D03*
Y617580D02*
D03*
Y607580D02*
D03*
Y602580D02*
D03*
X695490D02*
D03*
Y612580D02*
D03*
Y622580D02*
D03*
Y637580D02*
D03*
Y642580D02*
D03*
Y647580D02*
D03*
Y652580D02*
D03*
Y662580D02*
D03*
Y667580D02*
D03*
Y672580D02*
D03*
X604990Y647580D02*
D03*
D171*
X650240Y640080D02*
D03*
D172*
X647740Y594830D02*
D03*
X622740Y685330D02*
D03*
X687740D02*
D03*
X682740D02*
D03*
X677740D02*
D03*
X672740D02*
D03*
X667740D02*
D03*
X662740D02*
D03*
X657740D02*
D03*
X652740D02*
D03*
X642740D02*
D03*
X637740D02*
D03*
X632740D02*
D03*
X627740D02*
D03*
X612740D02*
D03*
Y594830D02*
D03*
X622740D02*
D03*
X627740D02*
D03*
X632740D02*
D03*
X637740D02*
D03*
X642740D02*
D03*
X652740D02*
D03*
X657740D02*
D03*
X662740D02*
D03*
X667740D02*
D03*
X677740D02*
D03*
X682740D02*
D03*
X687740D02*
D03*
X647740Y685330D02*
D03*
X617740D02*
D03*
Y594830D02*
D03*
X672740D02*
D03*
D173*
X755650Y829390D02*
D03*
Y834390D02*
D03*
X755650Y839390D02*
D03*
Y844390D02*
D03*
X767150Y829390D02*
D03*
Y834390D02*
D03*
Y839390D02*
D03*
Y844390D02*
D03*
Y873679D02*
D03*
Y868679D02*
D03*
Y863679D02*
D03*
Y858679D02*
D03*
X755650Y873679D02*
D03*
Y868679D02*
D03*
X755650Y863679D02*
D03*
Y858679D02*
D03*
Y927180D02*
D03*
Y932180D02*
D03*
X755650Y937180D02*
D03*
Y942180D02*
D03*
X767150Y927180D02*
D03*
Y932180D02*
D03*
Y937180D02*
D03*
Y942180D02*
D03*
X994480Y914480D02*
D03*
Y919480D02*
D03*
Y924480D02*
D03*
Y929480D02*
D03*
X982980Y914480D02*
D03*
Y929480D02*
D03*
Y924480D02*
D03*
Y919480D02*
D03*
X994480Y884757D02*
D03*
Y889757D02*
D03*
Y894757D02*
D03*
Y899757D02*
D03*
X982980Y889757D02*
D03*
Y894757D02*
D03*
Y884757D02*
D03*
Y899757D02*
D03*
X994480Y853756D02*
D03*
Y858756D02*
D03*
Y863756D02*
D03*
Y868756D02*
D03*
X982980Y863756D02*
D03*
Y868756D02*
D03*
Y858756D02*
D03*
Y853756D02*
D03*
X994480Y824467D02*
D03*
Y829467D02*
D03*
X994480Y834467D02*
D03*
X994480Y839467D02*
D03*
X982980Y824467D02*
D03*
Y829467D02*
D03*
Y839467D02*
D03*
Y834467D02*
D03*
X994480Y795179D02*
D03*
Y800179D02*
D03*
Y805179D02*
D03*
Y810179D02*
D03*
X982980Y810179D02*
D03*
Y795179D02*
D03*
Y800179D02*
D03*
Y805179D02*
D03*
X994908Y780890D02*
D03*
Y775890D02*
D03*
X994908Y770890D02*
D03*
Y765890D02*
D03*
X983408Y770890D02*
D03*
Y765890D02*
D03*
Y775890D02*
D03*
Y780890D02*
D03*
X982980Y736601D02*
D03*
Y741601D02*
D03*
Y746601D02*
D03*
Y751601D02*
D03*
X994480Y736601D02*
D03*
Y741601D02*
D03*
Y746601D02*
D03*
Y751601D02*
D03*
D174*
X1556070Y812800D02*
D03*
X1570670D02*
D03*
X1496700Y793750D02*
D03*
X1511300D02*
D03*
X756600Y627380D02*
D03*
Y642620D02*
D03*
X1328740Y620764D02*
D03*
X1343340D02*
D03*
X742000Y642620D02*
D03*
Y627380D02*
D03*
D175*
X1057870Y721360D02*
D03*
X483041Y772161D02*
D03*
D176*
X1297312Y819265D02*
D03*
X1370330Y819724D02*
D03*
D177*
X1510145Y712470D02*
D03*
D178*
X1519191Y865860D02*
D03*
D179*
X668087Y906620D02*
D03*
X630438Y886620D02*
D03*
Y891620D02*
D03*
Y896620D02*
D03*
X628387Y901620D02*
D03*
Y906620D02*
D03*
Y911620D02*
D03*
X668087D02*
D03*
Y901620D02*
D03*
X668231Y896620D02*
D03*
Y891620D02*
D03*
Y886620D02*
D03*
X636763Y917945D02*
D03*
X641762D02*
D03*
X646762D02*
D03*
X651762Y919995D02*
D03*
X656762D02*
D03*
X661762D02*
D03*
Y880295D02*
D03*
X656762D02*
D03*
X651762D02*
D03*
X646762Y880152D02*
D03*
X641762D02*
D03*
X636763D02*
D03*
D180*
X1342180Y749739D02*
D03*
Y713739D02*
D03*
X1411180D02*
D03*
Y749739D02*
D03*
Y717739D02*
D03*
Y709739D02*
D03*
Y705739D02*
D03*
X1342180Y745739D02*
D03*
Y741739D02*
D03*
Y737739D02*
D03*
Y733739D02*
D03*
Y729738D02*
D03*
Y725739D02*
D03*
Y721739D02*
D03*
Y717739D02*
D03*
Y709739D02*
D03*
Y705739D02*
D03*
Y701739D02*
D03*
Y697739D02*
D03*
X1411180D02*
D03*
Y701739D02*
D03*
Y721739D02*
D03*
Y725739D02*
D03*
Y729738D02*
D03*
Y733739D02*
D03*
Y737739D02*
D03*
Y741739D02*
D03*
Y745739D02*
D03*
D181*
X586268Y931860D02*
D03*
Y891860D02*
D03*
X584200Y976950D02*
D03*
Y1016950D02*
D03*
D182*
X520000Y841400D02*
D03*
Y860400D02*
D03*
X496000D02*
D03*
D183*
X965200Y569600D02*
D03*
Y584200D02*
D03*
D215*
X1278262Y858521D02*
D03*
X1351281Y858980D02*
D03*
D216*
X1549403Y731521D02*
D03*
D217*
X1495440Y848360D02*
D03*
M02*
