G04*
G04 #@! TF.GenerationSoftware,Altium Limited,Altium Designer,23.11.1 (41)*
G04*
G04 Layer_Color=16711935*
%FSLAX44Y44*%
%MOMM*%
G71*
G04*
G04 #@! TF.SameCoordinates,077C3239-A6FD-4C8A-B69B-129F227AD62B*
G04*
G04*
G04 #@! TF.FilePolarity,Positive*
G04*
G01*
G75*
%ADD14C,0.3050*%
%ADD114C,0.1778*%
D14*
X432700Y1080000D02*
G03*
X420000Y1067300I0J-12700D01*
G01*
X1670000D02*
G03*
X1657300Y1080000I-12700J0D01*
G01*
Y280000D02*
G03*
X1670000Y292700I0J12700D01*
G01*
X420000D02*
G03*
X432700Y280000I12700J0D01*
G01*
X420000Y660000D02*
Y1067300D01*
X432700Y1080000D02*
X1657300D01*
X1670000Y292700D02*
Y1067300D01*
X432700Y280000D02*
X1657300D01*
X420000Y292700D02*
Y660000D01*
D114*
X1531740Y404827D02*
Y396363D01*
X1530047Y394670D01*
X1526662D01*
X1524969Y396363D01*
Y404827D01*
X1521583D02*
X1514812D01*
Y403134D01*
X1521583Y396363D01*
Y394670D01*
X1391923Y970280D02*
X1400387D01*
X1402080Y968587D01*
Y965202D01*
X1400387Y963509D01*
X1391923D01*
X1402080Y960123D02*
Y956738D01*
Y958430D01*
X1391923D01*
X1393616Y960123D01*
Y951659D02*
X1391923Y949967D01*
Y946581D01*
X1393616Y944888D01*
X1395309D01*
X1397002Y946581D01*
Y948274D01*
Y946581D01*
X1398694Y944888D01*
X1400387D01*
X1402080Y946581D01*
Y949967D01*
X1400387Y951659D01*
M02*
