G04*
G04 #@! TF.GenerationSoftware,Altium Limited,Altium Designer,23.10.1 (27)*
G04*
G04 Layer_Physical_Order=5*
G04 Layer_Color=6736896*
%FSLAX44Y44*%
%MOMM*%
G71*
G04*
G04 #@! TF.SameCoordinates,A260BEBF-06BD-4FBC-8D66-A32A8B5517DE*
G04*
G04*
G04 #@! TF.FilePolarity,Positive*
G04*
G01*
G75*
%ADD10C,0.2540*%
%ADD15C,0.2032*%
%ADD16C,0.1270*%
%ADD89C,0.9000*%
%ADD93C,1.3900*%
%ADD99C,1.5700*%
%ADD103C,3.2000*%
%ADD104R,1.3900X1.3900*%
%ADD105C,2.4500*%
G04:AMPARAMS|DCode=106|XSize=1mm|YSize=1.8mm|CornerRadius=0.5mm|HoleSize=0mm|Usage=FLASHONLY|Rotation=180.000|XOffset=0mm|YOffset=0mm|HoleType=Round|Shape=RoundedRectangle|*
%AMROUNDEDRECTD106*
21,1,1.0000,0.8000,0,0,180.0*
21,1,0.0000,1.8000,0,0,180.0*
1,1,1.0000,0.0000,0.4000*
1,1,1.0000,0.0000,0.4000*
1,1,1.0000,0.0000,-0.4000*
1,1,1.0000,0.0000,-0.4000*
%
%ADD106ROUNDEDRECTD106*%
G04:AMPARAMS|DCode=107|XSize=1mm|YSize=2.1mm|CornerRadius=0.5mm|HoleSize=0mm|Usage=FLASHONLY|Rotation=180.000|XOffset=0mm|YOffset=0mm|HoleType=Round|Shape=RoundedRectangle|*
%AMROUNDEDRECTD107*
21,1,1.0000,1.1000,0,0,180.0*
21,1,0.0000,2.1000,0,0,180.0*
1,1,1.0000,0.0000,0.5500*
1,1,1.0000,0.0000,0.5500*
1,1,1.0000,0.0000,-0.5500*
1,1,1.0000,0.0000,-0.5500*
%
%ADD107ROUNDEDRECTD107*%
%ADD108C,0.6500*%
G04:AMPARAMS|DCode=111|XSize=1mm|YSize=2.1mm|CornerRadius=0.5mm|HoleSize=0mm|Usage=FLASHONLY|Rotation=270.000|XOffset=0mm|YOffset=0mm|HoleType=Round|Shape=RoundedRectangle|*
%AMROUNDEDRECTD111*
21,1,1.0000,1.1000,0,0,270.0*
21,1,0.0000,2.1000,0,0,270.0*
1,1,1.0000,-0.5500,0.0000*
1,1,1.0000,-0.5500,0.0000*
1,1,1.0000,0.5500,0.0000*
1,1,1.0000,0.5500,0.0000*
%
%ADD111ROUNDEDRECTD111*%
G04:AMPARAMS|DCode=112|XSize=1mm|YSize=1.8mm|CornerRadius=0.5mm|HoleSize=0mm|Usage=FLASHONLY|Rotation=270.000|XOffset=0mm|YOffset=0mm|HoleType=Round|Shape=RoundedRectangle|*
%AMROUNDEDRECTD112*
21,1,1.0000,0.8000,0,0,270.0*
21,1,0.0000,1.8000,0,0,270.0*
1,1,1.0000,-0.4000,0.0000*
1,1,1.0000,-0.4000,0.0000*
1,1,1.0000,0.4000,0.0000*
1,1,1.0000,0.4000,0.0000*
%
%ADD112ROUNDEDRECTD112*%
%ADD113C,0.6350*%
%ADD115C,0.1524*%
%ADD116C,0.5080*%
%ADD117C,0.3048*%
%ADD118C,1.2700*%
%ADD119R,1.5000X1.5000*%
%ADD120C,1.5000*%
%ADD121C,0.6000*%
%ADD122C,0.3556*%
%ADD123C,5.3000*%
%ADD124C,1.7000*%
%ADD125C,1.9000*%
%ADD126C,1.7272*%
%ADD127C,1.2000*%
%ADD128C,1.5500*%
%ADD129R,1.5500X1.5500*%
%ADD130R,1.7000X1.7000*%
%ADD131R,1.6764X1.6764*%
%ADD132R,1.5000X1.5000*%
%ADD133C,0.4064*%
%ADD134C,0.6096*%
%ADD135C,0.6000*%
%ADD136C,0.1499*%
D10*
X1641000Y945000D02*
Y948000D01*
X1623000Y966000D02*
X1641000Y948000D01*
X1587000Y966000D02*
X1623000D01*
X1545910Y924910D02*
X1587000Y966000D01*
X1633000Y980000D02*
X1640000Y973000D01*
X1587822Y980000D02*
X1633000D01*
X1535303Y927481D02*
X1587822Y980000D01*
X1545910Y896632D02*
Y924910D01*
X1519682Y875030D02*
X1535303Y890651D01*
Y927481D01*
X1542542Y893264D02*
X1545910Y896632D01*
X1542542Y879602D02*
Y893264D01*
X1529080Y866140D02*
X1542542Y879602D01*
D15*
X779163Y877264D02*
X779713D01*
X780977Y876000D01*
X792000D01*
X763778Y981710D02*
X784098Y1002030D01*
X886338D01*
X886460Y1002152D01*
X896000Y812000D02*
X900000Y816000D01*
X792000Y876000D02*
X792000Y876000D01*
D16*
X989577Y908077D02*
X1003076Y894579D01*
X1003311D01*
X1055937Y915369D02*
Y916838D01*
X1052162Y913063D02*
X1053631D01*
X1055937Y915369D01*
Y916838D02*
X1096205Y957106D01*
X1031995Y892896D02*
X1052162Y913063D01*
X1047637Y944259D02*
Y951991D01*
X1091440Y995794D01*
X1003300Y899922D02*
X1047637Y944259D01*
X1023215Y931161D02*
X1037063Y945009D01*
Y947631D02*
X1039369Y949937D01*
X1037063Y945009D02*
Y947631D01*
X1041991Y949937D02*
X1088900Y996846D01*
X1039369Y949937D02*
X1041991D01*
X1052294Y828294D02*
X1082266Y858266D01*
X1179959D01*
X1003427Y828294D02*
X1052294D01*
X1003427Y833735D02*
X1003536D01*
X1030607Y860806D02*
X1178907D01*
X1003536Y833735D02*
X1030607Y860806D01*
X948368Y1048656D02*
X955357Y1055645D01*
X948368Y1010522D02*
Y1048656D01*
X955357Y1055645D02*
X1126755D01*
X978914Y1053105D02*
X1027695D01*
X973835Y1048026D02*
X978914Y1053105D01*
X973835Y1037349D02*
Y1048026D01*
X953322Y1030765D02*
X967251D01*
X973835Y1037349D01*
X935155Y997309D02*
X948368Y1010522D01*
X951495Y978166D02*
Y1028938D01*
X953322Y1030765D01*
X973245Y1010429D02*
Y1029501D01*
X975785Y1025785D02*
X977705Y1027705D01*
X959690Y993282D02*
X975785Y1009377D01*
Y1025785D01*
X957150Y994334D02*
X973245Y1010429D01*
X973989Y1030245D02*
X1000245D01*
X973245Y1029501D02*
X973989Y1030245D01*
X977705Y1027705D02*
X1048505D01*
X933844Y783937D02*
X937725D01*
X932035Y785747D02*
X933844Y783937D01*
X932035Y785747D02*
Y790637D01*
X916865Y791994D02*
X930677D01*
X932035Y790637D01*
X915974Y792885D02*
X916865Y791994D01*
X915974Y792885D02*
Y798619D01*
X909097Y800063D02*
X914531D01*
X915974Y798619D01*
X693768Y818446D02*
X708406Y833084D01*
X691228Y750222D02*
X698500Y742950D01*
X691228Y822436D02*
X711694Y842902D01*
X696976Y816354D02*
Y818062D01*
X697611Y811875D02*
X697705Y811781D01*
X696976Y816354D02*
X697611Y815719D01*
X691228Y750222D02*
Y822436D01*
X697611Y811875D02*
Y815719D01*
X693768Y763040D02*
Y818446D01*
Y763040D02*
X702437Y754371D01*
X692274Y871567D02*
X701206D01*
X732609Y902970D01*
X690285Y873556D02*
X692274Y871567D01*
X666693Y873556D02*
X690285D01*
X651162Y858025D02*
X666693Y873556D01*
X981972Y936563D02*
Y986572D01*
Y936563D02*
X997994Y920541D01*
X981972Y986572D02*
X1012700Y1017300D01*
X957150Y949138D02*
X974344Y931943D01*
X951495Y978166D02*
X954610Y975051D01*
Y948086D02*
X970280Y932415D01*
X954610Y948086D02*
Y975051D01*
X959690Y966252D02*
Y993282D01*
Y966252D02*
X976884Y949057D01*
X957150Y949138D02*
Y994334D01*
X976884Y928713D02*
Y949057D01*
X935155Y964840D02*
X951448Y948548D01*
Y947656D02*
Y948548D01*
Y947656D02*
X967740Y931363D01*
X935155Y964840D02*
Y997309D01*
X837483Y961517D02*
X846475D01*
X832403Y966597D02*
X837483Y961517D01*
X825658Y966597D02*
X832403D01*
X842960Y971800D02*
X854948D01*
X862203Y964545D01*
X767891Y841891D02*
X773809Y847809D01*
X805499Y940079D02*
X854919D01*
X819830Y936142D02*
X820186Y936498D01*
X847136D01*
X854919Y940079D02*
X868807Y926191D01*
X797862Y932443D02*
X805499Y940079D01*
X790134Y932443D02*
X797862D01*
X785663Y930277D02*
X787969Y927971D01*
X789600Y931908D02*
X790134Y932443D01*
X785663Y930277D02*
Y949121D01*
X787969Y927971D02*
X817227D01*
X822944Y933688D01*
X835271D01*
X780965Y953819D02*
X785663Y949121D01*
X793496Y944880D02*
X865632D01*
X788839Y949537D02*
X793496Y944880D01*
X616078Y393700D02*
X616322D01*
X618984Y396362D01*
X619882D01*
X650881Y427361D01*
X633928Y384354D02*
Y400854D01*
X638000Y1044063D02*
X644307D01*
X647244Y1047000D01*
X648000D01*
X1406561Y467561D02*
X1412000Y473000D01*
X1384000Y465000D02*
X1384446D01*
X1387007Y467561D01*
X1406561D01*
X946368Y818480D02*
Y822420D01*
X942431Y816849D02*
X946280Y813000D01*
X939892Y815797D02*
X940523Y815165D01*
X942431Y820110D02*
X943063Y820742D01*
X940523Y821794D02*
Y822456D01*
X946368Y822420D02*
X947000Y823052D01*
X942431Y816849D02*
Y820110D01*
X943063Y820742D02*
Y829937D01*
X947000Y823052D02*
Y830262D01*
X946280Y813000D02*
X947000D01*
X939892Y815797D02*
Y821162D01*
X940523Y821794D01*
Y813909D02*
Y815165D01*
X958000Y815000D02*
Y831256D01*
X957256Y832000D02*
X958000Y831256D01*
X953000Y832000D02*
X957256D01*
X967327Y815161D02*
X968115D01*
X959228Y807063D02*
X967327Y815161D01*
X968115D02*
X970954Y818000D01*
X949775Y790653D02*
X965601Y774827D01*
X955002Y789432D02*
X969140D01*
X950445Y793193D02*
X951241D01*
X955002Y789432D01*
X949329Y790653D02*
X949775D01*
X945369Y809063D02*
X953967D01*
X955967Y807063D01*
X959228D01*
X965493Y804523D02*
X992291Y777725D01*
X954915Y804523D02*
X965493D01*
X953863Y801983D02*
X964441D01*
X953046Y802799D02*
X953863Y801983D01*
X944449Y802799D02*
X953046D01*
X952915Y806523D02*
X954915Y804523D01*
X964441Y801983D02*
X991239Y775185D01*
X943248Y804000D02*
X944449Y802799D01*
X944317Y806523D02*
X952915D01*
X951069Y798862D02*
X951228Y799021D01*
X948804Y794477D02*
X949161D01*
X951228Y799021D02*
X963143D01*
X946651Y795874D02*
X947407D01*
X948804Y794477D01*
X942679Y778983D02*
X943697D01*
X937631Y791937D02*
X939937Y789631D01*
X944815Y791937D02*
X948045D01*
X942477Y786369D02*
X944783Y784063D01*
X939937Y785317D02*
Y789631D01*
X938683Y794477D02*
X942477Y790683D01*
X941865Y794887D02*
X944815Y791937D01*
X937725Y783937D02*
X942679Y778983D01*
X943697D02*
X944981Y777699D01*
X939937Y785317D02*
X943731Y781523D01*
X944749D02*
X946033Y780239D01*
X949161Y794477D02*
X950445Y793193D01*
X943731Y781523D02*
X944749D01*
X944783Y784063D02*
X945801D01*
X948045Y791937D02*
X949329Y790653D01*
X945801Y784063D02*
X947085Y782779D01*
X942477Y786369D02*
Y790683D01*
X941865Y794887D02*
Y795703D01*
X937631Y799937D02*
X941865Y795703D01*
X934495Y775937D02*
X943151D01*
X947085Y782779D02*
X954057D01*
X943151Y775937D02*
X943929Y775159D01*
X954057Y782779D02*
X964549Y772287D01*
X951953Y777699D02*
X962445Y767207D01*
X926495Y799937D02*
X937631D01*
X950901Y775159D02*
X961393Y764667D01*
X934495Y791937D02*
X937631D01*
X943929Y775159D02*
X950901D01*
X944981Y777699D02*
X951953D01*
X946033Y780239D02*
X953005D01*
X963497Y769747D01*
X965601Y774827D02*
X980153D01*
X988156Y720212D02*
X995431Y712937D01*
X996631D02*
X998937Y710631D01*
Y709431D02*
X1003148Y705220D01*
X998937Y709431D02*
Y710631D01*
X995431Y712937D02*
X996631D01*
X1274464Y607060D02*
X1376680D01*
X1389380Y594360D01*
X1183097Y698427D02*
X1274464Y607060D01*
X1076337Y705220D02*
X1077180Y706063D01*
X1153631D01*
X1003148Y705220D02*
X1076337D01*
X1156228Y708660D02*
X1166213D01*
X1176446Y698427D01*
X1183097D01*
X1153631Y706063D02*
X1156228Y708660D01*
X969378Y732696D02*
X973094Y728980D01*
X979440D02*
X988156Y720264D01*
X973094Y728980D02*
X979440D01*
X988156Y720212D02*
Y720264D01*
X936921Y732696D02*
X969378D01*
X941239Y843761D02*
X953000Y832000D01*
X937325Y839937D02*
X947000Y830262D01*
X940937Y832063D02*
X943063Y829937D01*
X931000Y846000D02*
X937063Y839937D01*
X937325D01*
X940523Y813909D02*
X945369Y809063D01*
X939000Y823979D02*
X940523Y822456D01*
X942903Y807937D02*
X944317Y806523D01*
X932063Y807937D02*
X942903D01*
X936000Y804000D02*
X943248D01*
X910085Y823979D02*
X939000D01*
X901937Y832063D02*
X940937D01*
X900000Y834000D02*
X901937Y832063D01*
X900000Y834000D02*
Y877568D01*
X897568Y880000D02*
X900000Y877568D01*
X878432Y880000D02*
X897568D01*
X904000Y836000D02*
X907937Y839937D01*
Y894063D01*
X875937Y882495D02*
X878432Y880000D01*
X875937Y882495D02*
Y912063D01*
X872000Y916000D02*
X875937Y912063D01*
X905937Y896063D02*
X907937Y894063D01*
X886369Y896063D02*
X905937D01*
X884063Y898369D02*
X886369Y896063D01*
X884063Y898369D02*
Y909797D01*
X884063Y909797D01*
Y921225D01*
X879602Y925686D02*
X884063Y921225D01*
X879602Y925686D02*
Y930910D01*
X920432Y846000D02*
X931000D01*
X916063Y850369D02*
X920432Y846000D01*
X916063Y850369D02*
Y901505D01*
X913505Y904063D02*
X916063Y901505D01*
X891937Y904063D02*
X913505D01*
X888000Y908000D02*
X891937Y904063D01*
X941239Y843761D02*
Y877761D01*
X938937Y880063D02*
X941239Y877761D01*
X923937Y880063D02*
X938937D01*
X920000Y884000D02*
X923937Y880063D01*
X865017Y882983D02*
Y918617D01*
X847136Y936498D02*
X865017Y918617D01*
X969523Y829943D02*
X987298Y812168D01*
X966983Y828891D02*
X984758Y811116D01*
X972063Y830995D02*
X989838Y813220D01*
X967740Y905435D02*
X972063Y901112D01*
X969523Y829943D02*
Y900060D01*
X972063Y830995D02*
Y901112D01*
X930791Y938792D02*
X969523Y900060D01*
X966983Y828891D02*
Y899008D01*
X929739Y936252D02*
X966983Y899008D01*
X967740Y905435D02*
Y916663D01*
X987005Y892234D02*
Y892616D01*
X974344Y910463D02*
Y918339D01*
X1001785Y883920D02*
X1002157D01*
X987005Y892234D02*
X1002939Y876300D01*
X970280Y909342D02*
X987005Y892616D01*
X999187Y886518D02*
X1001785Y883920D01*
X974344Y910463D02*
X998289Y886518D01*
X999187D01*
X970280Y909342D02*
Y917715D01*
Y928285D02*
Y932415D01*
X964507Y919896D02*
Y926104D01*
X967047Y920948D02*
Y925052D01*
X967740Y929337D02*
Y931363D01*
X967047Y920948D02*
X970280Y917715D01*
X964507Y926104D02*
X967740Y929337D01*
X964507Y919896D02*
X967740Y916663D01*
X967047Y925052D02*
X970280Y928285D01*
X936000Y796000D02*
X936756D01*
X938279Y794477D01*
X938683D01*
X908063Y821957D02*
X910085Y823979D01*
X908063Y817385D02*
Y821957D01*
X1457190Y537378D02*
X1470800D01*
X1471369Y536809D02*
X1474631D01*
X1470800Y537378D02*
X1471369Y536809D01*
X1475200Y537378D02*
X1490054D01*
X1474631Y536809D02*
X1475200Y537378D01*
X1449465Y538465D02*
X1450000Y539000D01*
X1448131Y538465D02*
X1449465D01*
X1490054Y537378D02*
X1492676Y540000D01*
X1493000D01*
X1481369Y581063D02*
X1485195D01*
X1493440Y572818D01*
X1349624Y636637D02*
X1427306D01*
X1462735Y599698D02*
Y601208D01*
Y599698D02*
X1481369Y581063D01*
X1427306Y636637D02*
X1462735Y601208D01*
X1431006Y553994D02*
Y623726D01*
X1446807Y538193D02*
X1447859D01*
X1448131Y538465D01*
X1431006Y553994D02*
X1446807Y538193D01*
X1442801Y546601D02*
Y615523D01*
Y546601D02*
X1446466Y542937D01*
X1451631D01*
X1457190Y537378D01*
X1428466Y547663D02*
X1443623Y532506D01*
X1477094D02*
X1491000Y518600D01*
X1457314Y527426D02*
X1469156Y515584D01*
X1460342Y529966D02*
X1468937Y521371D01*
X1422400Y546100D02*
X1441074Y527426D01*
X1442571Y529966D02*
X1460342D01*
X1425926Y546610D02*
X1442571Y529966D01*
X1441074Y527426D02*
X1457314D01*
X1443623Y532506D02*
X1477094D01*
X1491000Y509000D02*
Y518600D01*
X1468937Y519395D02*
Y521371D01*
X1472000Y504000D02*
X1477000D01*
X1469156Y506844D02*
Y515584D01*
Y506844D02*
X1472000Y504000D01*
X1468937Y519395D02*
X1483332Y505000D01*
X1499000D01*
X1419860Y532624D02*
X1455437Y497047D01*
X1419860Y532624D02*
Y563662D01*
X1455437Y497047D02*
X1458011D01*
X1473474Y481584D01*
X1513840D01*
X567512Y712063D02*
X597631D01*
X598683Y709523D02*
X600805Y711645D01*
X534063Y714185D02*
X565390D01*
X566460Y709523D02*
X598683D01*
X597631Y712063D02*
X599753Y714185D01*
X520700Y697230D02*
X535115Y711645D01*
X565390Y714185D02*
X567512Y712063D01*
X518160Y698282D02*
X534063Y714185D01*
X564338Y711645D02*
X566460Y709523D01*
X535115Y711645D02*
X564338D01*
X626337D02*
X656242Y741550D01*
X625285Y714185D02*
X653702Y742602D01*
X599753Y714185D02*
X625285D01*
X600805Y711645D02*
X626337D01*
X847491Y769369D02*
Y772631D01*
X845374Y774748D02*
Y785058D01*
Y724346D02*
Y767252D01*
Y774748D02*
X847491Y772631D01*
X845374Y767252D02*
X847491Y769369D01*
X868604Y740807D02*
Y747829D01*
X861552Y751289D02*
X866064Y746776D01*
Y739708D02*
Y746776D01*
X864091Y752341D02*
X868604Y747829D01*
X853248Y721752D02*
Y769184D01*
X866064Y739708D02*
X871513Y734259D01*
X851937Y770495D02*
X853248Y769184D01*
X844063Y786369D02*
X845374Y785058D01*
X853248Y721752D02*
X856000Y719000D01*
X845374Y724346D02*
X853720Y716000D01*
X868604Y740807D02*
X874053Y735358D01*
X844063Y834369D02*
X851937Y826495D01*
Y770495D02*
Y826495D01*
X844063Y786369D02*
Y830777D01*
X841523Y833317D02*
X844063Y830777D01*
X894000Y719000D02*
X896177Y721177D01*
X968644D01*
X866063Y718495D02*
X866568Y719000D01*
X862297D02*
X862802Y718495D01*
X856000Y719000D02*
X862297D01*
X866568D02*
X894000D01*
X1115477Y823523D02*
X1127533D01*
X1128585Y826063D02*
X1132267Y822381D01*
X1126495Y827937D02*
X1128369Y826063D01*
X1128585D01*
X1115000Y824000D02*
X1115477Y823523D01*
X1086053Y827937D02*
X1126495D01*
X1127533Y823523D02*
X1139653Y811403D01*
X996483Y715477D02*
X997683D01*
X1001477Y711683D01*
Y710483D02*
Y711683D01*
X999023Y720557D02*
X999787D01*
X995680Y723900D02*
X999023Y720557D01*
X1006557Y713023D02*
Y713787D01*
X1001477Y710483D02*
X1004200Y707760D01*
X999787Y720557D02*
X1006557Y713787D01*
X990600Y721360D02*
X996483Y715477D01*
X993140Y722848D02*
X997971Y718017D01*
X998735D02*
X1004017Y712735D01*
Y711971D02*
Y712735D01*
X1006557Y713023D02*
X1006740Y712840D01*
X1004017Y711971D02*
X1005688Y710300D01*
X997971Y718017D02*
X998735D01*
X989425Y750039D02*
X1019004Y720460D01*
X1006740Y712840D02*
X1072092D01*
X1075532Y716280D01*
X987321Y744959D02*
X1016900Y715380D01*
X988373Y747499D02*
X1017952Y717920D01*
X990477Y752579D02*
X1020056Y723000D01*
X651172Y894167D02*
X652266Y895261D01*
X645974D02*
X647068Y894167D01*
X610898Y895261D02*
X645974D01*
X647068Y894167D02*
X651172D01*
X652266Y895261D02*
X692082D01*
X613332Y890680D02*
X707568D01*
X1227098Y860850D02*
Y911247D01*
X1276545Y960694D01*
X1221420Y909161D02*
X1274005Y961746D01*
X1276545Y960694D02*
Y1003284D01*
X1274005Y961746D02*
Y999310D01*
X1221420Y868420D02*
Y909161D01*
X764472Y895096D02*
X783336D01*
X752583Y910063D02*
X760487D01*
X754829Y890397D02*
X760369Y895937D01*
X750783Y908263D02*
X752583Y910063D01*
X753036Y896874D02*
X753934Y897772D01*
X753777Y892937D02*
X760562Y899722D01*
X764713D01*
X763631Y895937D02*
X764472Y895096D01*
X742461Y890397D02*
X754829D01*
X755824Y899796D02*
Y900552D01*
X741409Y892937D02*
X753777D01*
X741753Y896874D02*
X753036D01*
X751623Y905510D02*
X753636Y907523D01*
X731557Y905510D02*
X751623D01*
X754193Y904489D02*
X765514D01*
X752675Y902970D02*
X754193Y904489D01*
X760369Y895937D02*
X763631D01*
X765514Y904489D02*
X766511Y903493D01*
X753636Y907523D02*
X761540D01*
X732609Y902970D02*
X752675D01*
X766511Y903493D02*
X780507D01*
X753934Y897906D02*
X755824Y899796D01*
X730718Y908263D02*
X750783D01*
X753934Y897772D02*
Y897906D01*
X743513Y887857D02*
X774138D01*
X752590Y882644D02*
X753854Y881380D01*
X760188D01*
X762197Y885317D02*
X772744Y874770D01*
X744565Y885317D02*
X762197D01*
X760487Y910063D02*
X764104Y913679D01*
X763590Y909574D02*
X769239D01*
X761540Y907523D02*
X763590Y909574D01*
X764104Y913679D02*
X764436D01*
X780507Y903493D02*
X792000Y892000D01*
X709198Y886743D02*
X730718Y908263D01*
X825523Y920045D02*
Y926505D01*
X828063Y921097D02*
X829223Y919937D01*
X820063Y912063D02*
X825631D01*
X833505Y911937D02*
X835937Y914369D01*
X828063Y921097D02*
Y925453D01*
X826258Y929217D02*
X826793Y929751D01*
X829223Y919937D02*
X833631D01*
X824000Y908000D02*
X824535Y908535D01*
X825523Y926505D02*
X826258Y927241D01*
X827937Y914369D02*
Y917631D01*
X833631Y919937D02*
X835937Y917631D01*
X826967Y908535D02*
X830369Y911937D01*
X835937Y914369D02*
Y917631D01*
X826258Y927241D02*
Y929217D01*
X824535Y908535D02*
X826967D01*
X825631Y912063D02*
X827937Y914369D01*
X830369Y911937D02*
X833505D01*
X825523Y920045D02*
X827937Y917631D01*
X767891Y828227D02*
Y841891D01*
X765532Y825868D02*
X767891Y828227D01*
X770000Y805000D02*
Y823706D01*
X769469Y824238D02*
X770000Y823706D01*
X765532Y822607D02*
Y825868D01*
X765351Y829279D02*
Y845194D01*
X765532Y822607D02*
X766063Y822076D01*
X762063Y825631D02*
X762992Y826560D01*
Y826920D01*
X766063Y810513D02*
Y822076D01*
X762992Y826920D02*
X765351Y829279D01*
X905946Y636054D02*
X909967Y632033D01*
X903992Y636054D02*
X905946D01*
X909967Y627844D02*
Y632033D01*
X897872Y742259D02*
Y746476D01*
X897477Y741864D02*
X897872Y742259D01*
X897890Y750342D02*
X898694Y751146D01*
Y762139D01*
X897890Y746494D02*
Y750342D01*
X890033Y754871D02*
X893791Y751113D01*
X893895D01*
X917587Y659661D02*
X922022Y655226D01*
X917587Y659661D02*
Y670567D01*
X923063Y661369D02*
X927103Y657330D01*
X910698Y684640D02*
X923063Y672275D01*
X927103Y639086D02*
Y657330D01*
X910772Y680974D02*
X920523Y671223D01*
Y660317D02*
X924563Y656278D01*
X920523Y660317D02*
Y671223D01*
X924563Y638034D02*
Y656278D01*
X922022Y636982D02*
Y655226D01*
X901355Y678434D02*
X909720D01*
X917587Y670567D01*
X923063Y661369D02*
Y672275D01*
X927103Y639086D02*
X930033Y636156D01*
X932369Y668063D02*
X986321D01*
X931360Y665480D02*
X1004357D01*
X1350676Y639177D02*
X1429729D01*
X1334652Y651609D02*
Y656140D01*
X1337192Y652661D02*
X1350676Y639177D01*
X1334652Y651609D02*
X1349624Y636637D01*
X1337192Y652661D02*
Y657192D01*
X1329837Y660955D02*
X1334652Y656140D01*
X1321152Y660955D02*
X1329837D01*
X1266915Y669798D02*
X1315901D01*
X1314849Y667258D02*
X1321152Y660955D01*
X1265863Y667258D02*
X1314849D01*
X1315901Y669798D02*
X1322204Y663495D01*
X1330889D02*
X1337192Y657192D01*
X1322204Y663495D02*
X1330889D01*
X1329853Y648589D02*
X1332279D01*
X1260602Y654558D02*
X1309516D01*
X1262706Y659638D02*
X1311620D01*
X1263758Y662178D02*
X1312672D01*
X1313724Y664718D02*
X1329853Y648589D01*
X1325645Y638429D02*
X1328071D01*
X1328801Y646049D02*
X1331227D01*
X1311620Y659638D02*
X1327749Y643509D01*
X1330175D01*
X1312672Y662178D02*
X1328801Y646049D01*
X1310568Y657098D02*
X1326697Y640969D01*
X1329123D01*
X1261654Y657098D02*
X1310568D01*
X1264810Y664718D02*
X1313724D01*
X1309516Y654558D02*
X1325645Y638429D01*
X1424227Y634097D02*
X1442801Y615523D01*
X1345719Y631557D02*
X1423175D01*
X1342563Y623937D02*
X1420019D01*
X1422123Y629017D02*
X1428466Y622674D01*
X1343615Y626477D02*
X1421071D01*
X1346845Y616063D02*
X1400697D01*
X1328071Y638429D02*
X1342563Y623937D01*
X1421071Y626477D02*
X1425926Y621622D01*
X1346771Y634097D02*
X1424227D01*
X1420019Y623937D02*
X1422400Y621556D01*
X1344667Y629017D02*
X1422123D01*
X1332279Y648589D02*
X1346771Y634097D01*
X1423175Y631557D02*
X1431006Y623726D01*
X1429729Y639177D02*
X1472060Y596847D01*
X1330175Y643509D02*
X1344667Y629017D01*
X1340084Y622823D02*
X1346845Y616063D01*
X1329123Y640969D02*
X1343615Y626477D01*
X1400697Y616063D02*
X1409700Y607060D01*
X1331227Y646049D02*
X1345719Y631557D01*
X1387892Y612140D02*
X1398052Y601980D01*
X1276568Y612140D02*
X1387892D01*
X1386840Y609600D02*
X1399540Y596900D01*
X1275516Y609600D02*
X1386840D01*
X1185201Y703507D02*
X1276568Y612140D01*
X1337670Y604520D02*
X1369420Y572770D01*
X1266761Y604520D02*
X1337670D01*
X1369420Y572770D02*
X1406672D01*
X794609Y427361D02*
X916943Y549695D01*
X795661Y424821D02*
X919482Y548643D01*
X908668Y675894D02*
X915047Y669515D01*
X924563Y625966D02*
X927493Y628896D01*
X922022Y627018D02*
X924953Y629948D01*
X915047D02*
X919482Y625513D01*
X924953Y629948D02*
Y634052D01*
X912507Y628896D02*
X916943Y624461D01*
X919482Y548643D02*
Y625513D01*
X914402Y552093D02*
Y623409D01*
X927493Y628896D02*
Y635104D01*
X916943Y549695D02*
Y624461D01*
X924563Y546538D02*
Y625966D01*
X922022Y636982D02*
X924953Y634052D01*
X927103Y545486D02*
Y624914D01*
X930033Y627844D02*
Y636156D01*
X912507Y628896D02*
Y634925D01*
X927103Y624914D02*
X930033Y627844D01*
X893369Y654063D02*
X912507Y634925D01*
X922022Y547590D02*
Y627018D01*
X924563Y638034D02*
X927493Y635104D01*
X915047Y629948D02*
Y669515D01*
X909967Y627844D02*
X914402Y623409D01*
X893369Y654063D02*
Y657631D01*
X893000Y658000D02*
X893369Y657631D01*
X895000Y645046D02*
X903992Y636054D01*
X896847Y675098D02*
X897642Y675894D01*
X902407Y680974D02*
X910772D01*
X898429Y684952D02*
X902407Y680974D01*
X897377Y682412D02*
X901355Y678434D01*
X897642Y675894D02*
X908668D01*
X886694Y684952D02*
X898429D01*
X888845Y682412D02*
X897377D01*
X903158Y695746D02*
X909184Y689720D01*
X911750Y687180D02*
X926044Y672886D01*
X907080Y684640D02*
X910698D01*
X905367Y697129D02*
X910236Y692260D01*
X900618Y694694D02*
X908132Y687180D01*
X911750D01*
X909184Y689720D02*
X912802D01*
X910236Y692260D02*
X913854D01*
X912802Y689720D02*
X928584Y673938D01*
X913854Y692260D02*
X930177Y675937D01*
X902186Y689535D02*
X907080Y684640D01*
X882317Y675823D02*
X883848D01*
X884132Y670742D02*
Y671497D01*
X879910Y673416D02*
X882317Y675823D01*
X883063Y669672D02*
X884132Y670742D01*
X879155Y673416D02*
X879910D01*
X883063Y664849D02*
Y669672D01*
X893691Y670690D02*
X896847Y673845D01*
X886460Y528116D02*
Y661452D01*
X883063Y664849D02*
X886460Y661452D01*
X887000Y667000D02*
X890690Y670690D01*
X893691D01*
X876787Y518443D02*
X886460Y528116D01*
X896847Y673845D02*
Y675098D01*
X883848Y675823D02*
X885253Y677227D01*
X926044Y670796D02*
Y672886D01*
X930177Y675937D02*
X940940D01*
X928584Y671848D02*
Y673938D01*
X880460Y725000D02*
X882840D01*
X889631Y725063D02*
X890576Y726008D01*
X885317Y722523D02*
X890683D01*
X881411Y728000D02*
X883432D01*
X891628Y723468D02*
X893759D01*
X882840Y725000D02*
X885317Y722523D01*
X883432Y728000D02*
X886369Y725063D01*
X890576Y726008D02*
X892707D01*
X890683Y722523D02*
X891628Y723468D01*
X886369Y725063D02*
X889631D01*
X881017Y526265D02*
Y527123D01*
X798771Y441285D02*
X875929Y518443D01*
X875735Y520983D02*
X881017Y526265D01*
X875929Y518443D02*
X876787D01*
X881017Y527123D02*
X883920Y530026D01*
X797719Y443825D02*
X874877Y520983D01*
X878477Y527317D02*
Y528175D01*
X796667Y446365D02*
X873825Y523523D01*
X874683D01*
X875937Y528369D02*
Y529227D01*
X872773Y526063D02*
X873631D01*
X878477Y528175D02*
X881380Y531078D01*
X874683Y523523D02*
X878477Y527317D01*
X874877Y520983D02*
X875735D01*
X875937Y529227D02*
X878840Y532130D01*
X795615Y448905D02*
X872773Y526063D01*
X873631D02*
X875937Y528369D01*
X883920Y530026D02*
Y660400D01*
X711227Y446365D02*
X796667D01*
X878840Y532130D02*
Y654831D01*
X881380Y531078D02*
Y659348D01*
X712279Y448905D02*
X795615D01*
X880201Y729210D02*
X881411Y728000D01*
X878789Y726670D02*
X880460Y725000D01*
X877981Y729210D02*
X880201D01*
X876929Y726670D02*
X878789D01*
X874053Y733138D02*
X877981Y729210D01*
X871513Y732086D02*
Y734259D01*
Y732086D02*
X876929Y726670D01*
X874053Y733138D02*
Y735358D01*
X890033Y754871D02*
Y762805D01*
X887493Y752235D02*
Y763857D01*
X884953Y751182D02*
Y764909D01*
X890033Y762805D02*
X890142Y762914D01*
X874968Y756599D02*
Y768973D01*
X885062Y765019D02*
Y780505D01*
X884953Y764909D02*
X885062Y765019D01*
X887493Y763857D02*
X887602Y763967D01*
X878893Y751675D02*
Y752675D01*
X890142Y762914D02*
Y782610D01*
X884953Y751182D02*
X886366Y749770D01*
X887493Y752235D02*
X889958Y749770D01*
X888535Y784217D02*
X890142Y782610D01*
X884063Y785097D02*
X887602Y781557D01*
X888535Y784217D02*
Y787466D01*
X887602Y763967D02*
Y781557D01*
X888000Y788000D02*
X888535Y787466D01*
X884063Y785097D02*
Y792063D01*
X874968Y756599D02*
X878893Y752675D01*
X880535Y785033D02*
X885062Y780505D01*
X861552Y751289D02*
Y768033D01*
X886366Y743059D02*
X886780Y742645D01*
X886366Y743059D02*
Y749770D01*
X897872Y746476D02*
X897890Y746494D01*
X899046Y736182D02*
X899089Y736224D01*
X894461Y736182D02*
X899046D01*
X892707Y726008D02*
X893635Y726936D01*
X898992D01*
X894009Y723717D02*
X901668D01*
X893759Y723468D02*
X894009Y723717D01*
X901668D02*
X904476Y726524D01*
X864091Y752341D02*
Y766980D01*
X865271Y768160D01*
X864091Y824714D02*
X865271Y823534D01*
X864091Y824714D02*
Y829091D01*
X861552Y823662D02*
X862731Y822482D01*
X861552Y768033D02*
X862731Y769212D01*
X856000Y836306D02*
X861552Y830754D01*
X862731Y769212D02*
Y822482D01*
X865271Y768160D02*
Y823534D01*
X864091Y829091D02*
X871998Y836998D01*
X861552Y823662D02*
Y830754D01*
X881631Y863937D02*
X891937Y853631D01*
X875228Y860257D02*
X876063Y861092D01*
X874175Y860257D02*
X875228D01*
X878369Y863937D02*
X881631D01*
X876063Y861631D02*
X878369Y863937D01*
X876063Y861092D02*
Y861631D01*
X862432Y872000D02*
X874175Y860257D01*
X846432Y872000D02*
X862432D01*
X844063Y850369D02*
Y870777D01*
X862802Y718495D02*
X866063D01*
X861705Y716000D02*
X861749Y715955D01*
X853720Y716000D02*
X861705D01*
X861749Y715955D02*
X867115D01*
X867160Y716000D01*
X895000D01*
X897637Y718637D01*
X959903D01*
X898948Y716097D02*
X957570D01*
X895948Y713097D02*
X898948Y716097D01*
X901696Y711017D02*
X955466D01*
X897000Y710557D02*
X900000Y713557D01*
X898057Y707377D02*
X901696Y711017D01*
X900000Y713557D02*
X956518D01*
X853031Y713097D02*
X895948D01*
X839579Y726549D02*
X853031Y713097D01*
X800000Y762536D02*
X851979Y710557D01*
X851566Y707377D02*
X898057D01*
X779272Y779672D02*
X851566Y707377D01*
X851979Y710557D02*
X897000D01*
X776732Y778620D02*
X850514Y704837D01*
X897685D01*
X905367Y697155D01*
X955466Y711017D02*
X959512Y706971D01*
X956518Y713557D02*
X962052Y708023D01*
X968644Y721177D02*
X980821Y709000D01*
X959903Y718637D02*
X969063Y709477D01*
X957570Y716097D02*
X964592Y709075D01*
X892116Y693586D02*
X896167Y689535D01*
X867399Y689214D02*
X869383Y691198D01*
X879555D01*
X866642Y689214D02*
X867399D01*
X881943Y693586D02*
X892116D01*
X872545Y686877D02*
Y687261D01*
X850147Y701612D02*
X897318D01*
X774192Y777568D02*
X850147Y701612D01*
X897318D02*
X903158Y695772D01*
X896265Y699072D02*
X900618Y694720D01*
X861841Y695624D02*
X865290Y699072D01*
X879555Y691198D02*
X881943Y693586D01*
X865290Y699072D02*
X896265D01*
X861841Y691050D02*
Y695624D01*
X861531Y690740D02*
X861841Y691050D01*
X893000Y737642D02*
Y746440D01*
X889958Y749482D02*
Y749770D01*
Y749482D02*
X893000Y746440D01*
X878893Y751675D02*
X881784Y748784D01*
X874968Y768973D02*
X875937Y769942D01*
X893000Y737642D02*
X894461Y736182D01*
X848102Y844428D02*
X852000Y840530D01*
Y833000D02*
Y840530D01*
Y833000D02*
X855000Y830000D01*
X856000D01*
X836063Y849227D02*
X841625Y843665D01*
X835937Y786495D02*
Y844273D01*
X841523Y833317D02*
Y838683D01*
X844063Y834369D02*
Y837631D01*
X844165Y837733D01*
X841523Y838683D02*
X841625Y838785D01*
X844165Y837733D02*
Y850267D01*
X841625Y838785D02*
Y843665D01*
X844063Y850369D02*
X844165Y850267D01*
X836063Y849227D02*
Y877505D01*
X875937Y769942D02*
Y800063D01*
X872000Y804000D02*
X875937Y800063D01*
X880535Y785033D02*
Y787466D01*
X880000Y788000D02*
X880535Y787466D01*
X910592Y764000D02*
X912000D01*
X908063Y756145D02*
Y761471D01*
X910592Y764000D01*
X908063Y783937D02*
X913631D01*
X904000Y788000D02*
X908063Y783937D01*
X892000Y786000D02*
Y792000D01*
X895347Y765486D02*
X898694Y762139D01*
X895347Y765486D02*
Y782653D01*
X892000Y786000D02*
X895347Y782653D01*
X926432Y768000D02*
X947000D01*
X924000Y770432D02*
X926432Y768000D01*
X921631Y775937D02*
X924000Y773568D01*
X918495Y775937D02*
X921631D01*
X916063Y778369D02*
Y781505D01*
X913631Y783937D02*
X916063Y781505D01*
X915937Y767937D02*
Y774903D01*
X912000Y779244D02*
Y780000D01*
X924000Y770432D02*
Y773568D01*
X913523Y777317D02*
X915937Y774903D01*
X916063Y778369D02*
X918495Y775937D01*
X912000Y779244D02*
X913523Y777721D01*
Y777317D02*
Y777721D01*
X912000Y764000D02*
X915937Y767937D01*
X918683Y764989D02*
X921545Y762127D01*
X965164D01*
X926044Y670796D02*
X931360Y665480D01*
X940940Y675937D02*
X943939Y672939D01*
X928584Y671848D02*
X932369Y668063D01*
X986321D02*
X987675Y669417D01*
X850352Y662000D02*
X856000D01*
X775772Y736580D02*
X850352Y662000D01*
X976980Y678486D02*
Y679762D01*
X965681Y685493D02*
X975260Y675914D01*
Y673882D02*
X977566Y671576D01*
X979197Y675513D02*
Y676269D01*
X968861Y687881D02*
X976980Y679762D01*
X987675Y669417D02*
X1002726D01*
X977566Y671576D02*
X986242D01*
X988548Y676422D02*
X1014806Y702680D01*
X988548Y673882D02*
Y676422D01*
X976980Y678486D02*
X979197Y676269D01*
X975260Y673882D02*
Y675914D01*
X986242Y671576D02*
X988548Y673882D01*
X867290Y680178D02*
X867764Y679704D01*
X861060Y671830D02*
Y679516D01*
X870969Y684539D02*
Y685301D01*
X872545Y686877D01*
X865659Y684115D02*
X868921D01*
X868960Y671951D02*
Y674360D01*
X870071Y683641D02*
X870969Y684539D01*
X867764Y679704D02*
X881446D01*
X868425Y674894D02*
X868960Y674360D01*
X873668Y670652D02*
Y673913D01*
X869395Y683641D02*
X870071D01*
X861060Y679516D02*
X865659Y684115D01*
X868921D02*
X869395Y683641D01*
X775772Y736580D02*
Y770228D01*
X763000Y783000D02*
X775772Y770228D01*
X763000Y783000D02*
Y798000D01*
X770000Y805000D01*
X754380Y798830D02*
X766063Y810513D01*
X762257Y810517D02*
Y822175D01*
X759523Y826683D02*
X759717Y826877D01*
X759523Y821317D02*
Y826683D01*
X762063Y822369D02*
X762257Y822175D01*
X751840Y800100D02*
X762257Y810517D01*
X759523Y821317D02*
X759717Y821123D01*
Y826877D02*
Y854319D01*
X762063Y822369D02*
Y825631D01*
X759717Y811787D02*
Y821123D01*
X780858Y847142D02*
Y848709D01*
X776631Y852937D02*
X780858Y848709D01*
X765351Y845194D02*
X769886Y849730D01*
X773369Y852937D02*
X776631D01*
X770162Y849730D02*
X773369Y852937D01*
X782955Y855477D02*
X792516Y845917D01*
X771915Y857604D02*
X774042Y855477D01*
X769886Y849730D02*
X770162D01*
X774042Y855477D02*
X782955D01*
X780858Y847142D02*
X792000Y836000D01*
X783047Y867113D02*
X787908Y862252D01*
Y858524D02*
Y862252D01*
X760341Y867113D02*
X783047D01*
X794097Y856063D02*
X794223Y855937D01*
X761393Y864573D02*
X781995D01*
X790369Y856063D02*
X794097D01*
X794223Y855937D02*
X806493D01*
X785368Y857472D02*
Y861200D01*
X781995Y864573D02*
X785368Y861200D01*
X751748Y858520D02*
X760341Y867113D01*
X752800Y855980D02*
X761393Y864573D01*
X759717Y854319D02*
X763002Y857604D01*
X771915D01*
X782281Y822713D02*
X786388Y826820D01*
Y827956D01*
X790369Y831937D02*
X793505D01*
X782281Y815809D02*
Y822713D01*
X786388Y827956D02*
X790369Y831937D01*
X798369Y839937D02*
X804063D01*
X793505Y831937D02*
X795937Y834369D01*
X824000Y835694D02*
Y843000D01*
X821084Y845917D02*
X824000Y843000D01*
X792516Y845917D02*
X821084D01*
X898992Y726936D02*
X900070Y728014D01*
Y728820D02*
X901838Y730588D01*
Y731275D01*
X900070Y728014D02*
Y728820D01*
X921158Y753464D02*
X928370Y746252D01*
X910744Y753464D02*
X921158D01*
X912950Y759587D02*
X964112D01*
X908063Y756145D02*
X910744Y753464D01*
X912596Y759941D02*
X912950Y759587D01*
X903158Y695746D02*
Y695772D01*
X896167Y689535D02*
X902186D01*
X900618Y694694D02*
Y694720D01*
X905367Y697129D02*
Y697155D01*
X1016000Y568077D02*
X1058672Y525405D01*
X1259203Y608486D02*
Y612078D01*
X1297459Y570230D02*
X1409700D01*
X1254357Y616924D02*
X1257949D01*
X1261743Y609538D02*
X1266761Y604520D01*
X1257949Y616924D02*
X1261743Y613130D01*
X1165161Y706120D02*
X1254357Y616924D01*
X1259203Y608486D02*
X1297459Y570230D01*
X1256897Y614384D02*
X1259203Y612078D01*
X1008466Y670560D02*
X1196941D01*
X1184149Y700967D02*
X1275516Y609600D01*
X1196941Y670560D02*
X1253117Y614384D01*
X1261743Y609538D02*
Y613130D01*
X1253117Y614384D02*
X1256897D01*
X640280Y557275D02*
X642953Y559948D01*
X633047D02*
Y564052D01*
X634937Y550355D02*
Y558058D01*
X633047Y564052D02*
X634937Y565942D01*
X645063Y565534D02*
X645493Y565104D01*
X640052Y566953D02*
X642953Y564052D01*
X645063Y565534D02*
Y567739D01*
Y558466D02*
X645493Y558896D01*
X633047Y559948D02*
X634937Y558058D01*
X645493Y558896D02*
Y565104D01*
X638000Y568815D02*
X639862Y566953D01*
X640280Y552106D02*
Y557275D01*
X642953Y559948D02*
Y564052D01*
X645063Y553297D02*
Y558466D01*
X639862Y566953D02*
X640052D01*
X634937Y565942D02*
Y580631D01*
X884063Y792063D02*
X888000Y796000D01*
X871998Y836998D02*
Y852002D01*
X894000Y824063D02*
X899937D01*
X891937Y826126D02*
Y853631D01*
Y826126D02*
X894000Y824063D01*
X992676Y755119D02*
X996543Y751253D01*
X982948Y755119D02*
X992676D01*
X967268Y767207D02*
X981896Y752579D01*
X964112Y759587D02*
X978740Y744959D01*
X935287Y755481D02*
X964626D01*
X980844Y750039D02*
X989425D01*
X965164Y762127D02*
X979792Y747499D01*
X997573Y764591D02*
Y765280D01*
X1000113Y766311D02*
X1000868Y765556D01*
X987415Y767565D02*
X988104D01*
X980153Y774827D02*
X987415Y767565D01*
X962445Y767207D02*
X967268D01*
X989519Y772645D02*
X990208D01*
X995033Y763539D02*
Y764228D01*
X988467Y770105D02*
X989156D01*
X976636Y739879D02*
X985217D01*
X991239Y775185D02*
X991260D01*
X979792Y747499D02*
X988373D01*
X980047Y762124D02*
X982333Y764410D01*
X990208Y772645D02*
X997573Y765280D01*
X985217Y739879D02*
X993140Y731956D01*
X987052Y765025D02*
X989953Y762124D01*
Y761435D02*
Y762124D01*
X966216Y764667D02*
X980844Y750039D01*
X995033Y763539D02*
X999699Y758873D01*
X966326Y750189D02*
X976636Y739879D01*
X986363Y765025D02*
X987052D01*
X997573Y764591D02*
X1000751Y761413D01*
X992493Y762487D02*
Y763176D01*
X986269Y742419D02*
X995680Y733008D01*
X978049Y769747D02*
X982333Y765462D01*
X979101Y772287D02*
X986363Y765025D01*
X977688Y742419D02*
X986269D01*
X992493Y762487D02*
X998647Y756333D01*
X1001941Y768096D02*
X1093411D01*
X963143Y799021D02*
X989519Y772645D01*
X961393Y764667D02*
X966216D01*
X982333Y764410D02*
Y765462D01*
X989156Y770105D02*
X995033Y764228D01*
X980047Y758020D02*
X982948Y755119D01*
X964626Y755481D02*
X977688Y742419D01*
X988104Y767565D02*
X992493Y763176D01*
X989953Y761435D02*
X997595Y753793D01*
X1000113Y766311D02*
Y766332D01*
X980047Y758020D02*
Y762124D01*
X992312Y777725D02*
X1001941Y768096D01*
X992291Y777725D02*
X992312D01*
X991260Y775185D02*
X1000113Y766332D01*
X981896Y752579D02*
X990477D01*
X978740Y744959D02*
X987321D01*
X932561Y750189D02*
X966326D01*
X969140Y789432D02*
X988467Y770105D01*
X1082436Y734695D02*
X1131632D01*
X1068201Y720460D02*
X1082436Y734695D01*
X1075532Y716280D02*
X1145528D01*
X1076584Y713740D02*
X1146580D01*
X1077636Y711200D02*
X1147632D01*
X1137566Y729493D02*
X1189259D01*
X1080917Y725257D02*
X1136922D01*
X1138618Y726953D01*
X1082483Y703523D02*
X1154683D01*
X1005688Y710300D02*
X1073144D01*
X1081640Y702680D02*
X1082483Y703523D01*
X1138618Y726953D02*
X1188207D01*
X1260602Y654558D01*
X1019004Y720460D02*
X1068201D01*
X1017952Y717920D02*
X1069988D01*
X1074196Y707760D02*
X1077636Y711200D01*
X1054300Y723000D02*
X1075058Y743758D01*
X1004200Y707760D02*
X1074196D01*
X1135870Y727797D02*
X1137566Y729493D01*
X1079865Y727797D02*
X1135870D01*
X1069988Y717920D02*
X1079865Y727797D01*
X1071040Y715380D02*
X1080917Y725257D01*
X1016900Y715380D02*
X1071040D01*
X1020056Y723000D02*
X1054300D01*
X1014806Y702680D02*
X1081640D01*
X1189259Y729493D02*
X1261654Y657098D01*
X1073144Y710300D02*
X1076584Y713740D01*
X1131632Y734695D02*
X1132821Y735884D01*
X1147632Y711200D02*
X1150369Y713937D01*
X1146580Y713740D02*
X1149317Y716477D01*
X1145528Y716280D02*
X1148265Y719017D01*
X1182318Y761579D02*
X1268025Y675872D01*
X1094463Y765556D02*
X1100226Y771319D01*
X1183676D02*
X1276583Y678412D01*
X1099174Y773859D02*
X1196140D01*
X1093411Y768096D02*
X1099174Y773859D01*
X1126052Y761413D02*
X1126218Y761579D01*
X1179162Y753959D02*
X1265863Y667258D01*
X1181266Y759039D02*
X1267967Y672338D01*
X1129374Y753959D02*
X1179162D01*
X1126218Y761579D02*
X1182318D01*
X1000751Y761413D02*
X1126052D01*
X996543Y751253D02*
X1130260D01*
X1127104Y758873D02*
X1127270Y759039D01*
X1129208Y753793D02*
X1129374Y753959D01*
X1128156Y756333D02*
X1128322Y756499D01*
X1178109Y751419D02*
X1264810Y664718D01*
X1180214Y756499D02*
X1266915Y669798D01*
X999699Y758873D02*
X1127104D01*
X997595Y753793D02*
X1129208D01*
X1128322Y756499D02*
X1180214D01*
X998647Y756333D02*
X1128156D01*
X1130260Y751253D02*
X1130426Y751419D01*
X1178109D01*
X1196140Y773859D02*
X1289047Y680952D01*
X1127270Y759039D02*
X1181266D01*
X1100226Y771319D02*
X1183676D01*
X1022458Y819150D02*
X1077266D01*
X1086053Y827937D01*
X1175381Y822381D02*
X1221420Y868420D01*
X1003661Y800353D02*
X1022458Y819150D01*
X1132267Y822381D02*
X1175381D01*
X1139653Y811403D02*
X1177651D01*
X1000868Y765556D02*
X1094463D01*
X741680Y694036D02*
X756920Y678796D01*
X739140Y692984D02*
X754380Y677744D01*
X746760Y696141D02*
Y855236D01*
X744220Y695088D02*
Y857776D01*
X741680Y866891D02*
X747020Y872230D01*
X749300Y699770D02*
X772414Y676656D01*
X749300Y699770D02*
Y801370D01*
X739140Y873662D02*
X748123Y882644D01*
X751840Y702310D02*
X772414Y681736D01*
X741680Y694036D02*
Y866891D01*
X744220Y695088D02*
X759460Y679848D01*
X739140Y692984D02*
Y873662D01*
X754380Y703362D02*
Y798830D01*
X746760Y855236D02*
X747504Y855980D01*
X751840Y702310D02*
Y800100D01*
X749300Y801370D02*
X759717Y811787D01*
X744220Y857776D02*
X744964Y858520D01*
X746760Y696141D02*
X762000Y680900D01*
X754380Y703362D02*
X774954Y682788D01*
X1276583Y678412D02*
X1331253D01*
X696811Y879372D02*
X705420D01*
X696743Y879441D02*
X696811Y879372D01*
X686371Y879441D02*
X696743D01*
X665845Y876300D02*
X683231D01*
X686371Y879441D01*
X602217Y886665D02*
X602302D01*
X610898Y895261D01*
X564052Y841400D02*
X613332Y890680D01*
X511698Y841400D02*
X564052D01*
X602065Y582774D02*
X607937Y588646D01*
Y614043D01*
X612412Y618517D01*
X631873Y588821D02*
X634063Y586631D01*
X630821Y588821D02*
X631873D01*
X628000Y586000D02*
X630821Y588821D01*
X634063Y581505D02*
X634937Y580631D01*
X634063Y581505D02*
Y586631D01*
X622000Y586000D02*
Y596620D01*
X625937Y570819D02*
Y573937D01*
X621157Y536575D02*
X634937Y550355D01*
X625937Y573937D02*
X631000Y579000D01*
X601980Y546862D02*
X625937Y570819D01*
X638000Y568815D02*
Y584000D01*
X632186Y606806D02*
X645922D01*
X622000Y596620D02*
X632186Y606806D01*
X612412Y618517D02*
X637803D01*
X770885Y632926D02*
X772414Y631397D01*
X770885Y632926D02*
Y641238D01*
X772414Y642767D02*
Y661409D01*
X773425Y640186D02*
X774954Y641715D01*
X773425Y633978D02*
Y640186D01*
X774954Y641715D02*
Y660357D01*
Y617129D02*
Y632449D01*
X775965Y635031D02*
Y639134D01*
X777494Y616077D02*
Y633501D01*
X772414Y618181D02*
Y631397D01*
X770885Y641238D02*
X772414Y642767D01*
X775965Y639134D02*
X777494Y640663D01*
X773425Y633978D02*
X774954Y632449D01*
X777494Y640663D02*
Y659305D01*
X775965Y635031D02*
X777494Y633501D01*
Y659305D02*
X779033Y660844D01*
X774020Y612603D02*
X777494Y616077D01*
X762000Y617129D02*
Y680900D01*
X756920Y588010D02*
Y678796D01*
X774954Y660357D02*
X776493Y661896D01*
X772414Y661409D02*
X773953Y662948D01*
X759460Y607113D02*
Y679848D01*
X772414Y668591D02*
X773953Y667052D01*
X751840Y585906D02*
Y676692D01*
X767334Y613101D02*
X772414Y618181D01*
X769874Y607314D02*
X770890Y608330D01*
X754380Y586958D02*
Y677744D01*
X770890Y613065D02*
X774954Y617129D01*
X770890Y608330D02*
Y613065D01*
X772414Y680248D02*
Y681736D01*
Y680248D02*
X774954Y677708D01*
X772414Y668591D02*
Y676656D01*
X774954Y669643D02*
X776493Y668104D01*
X774954Y669643D02*
Y677708D01*
X776493Y661896D02*
Y668104D01*
X773953Y662948D02*
Y667052D01*
X777494Y670695D02*
Y678760D01*
X779033Y660844D02*
Y669156D01*
X777494Y670695D02*
X779033Y669156D01*
X601980Y483616D02*
Y546862D01*
X644000Y568802D02*
Y584000D01*
Y568802D02*
X645063Y567739D01*
X653488Y568330D02*
Y599240D01*
X652526Y567369D02*
X653488Y568330D01*
X645922Y606806D02*
X653488Y599240D01*
X642740Y550974D02*
X645063Y553297D01*
X632206Y511556D02*
X652526Y531876D01*
Y567369D01*
X669417Y503829D02*
Y545366D01*
X667063Y547720D02*
Y589257D01*
X661543Y495955D02*
X669417Y503829D01*
X667063Y547720D02*
X669417Y545366D01*
X637803Y618517D02*
X667063Y589257D01*
X974344Y927661D02*
X976953Y925052D01*
X974344Y927661D02*
Y931943D01*
X976884Y928713D02*
X989577Y916020D01*
X974344Y918339D02*
X976953Y920948D01*
X989577Y908077D02*
Y916020D01*
X976953Y920948D02*
Y925052D01*
X1075058Y743758D02*
X1133157D01*
X1132821Y735884D02*
X1133724D01*
X1136030Y739093D02*
X1136937Y740000D01*
X1133724Y735884D02*
X1136030Y738190D01*
Y739093D01*
X1182391Y743545D02*
X1263758Y662178D01*
X1133157Y743758D02*
X1133369Y743545D01*
X1182391D01*
X1182344Y740000D02*
X1262706Y659638D01*
X1136937Y740000D02*
X1182344D01*
X1174967Y706844D02*
Y710149D01*
Y706844D02*
X1180844Y700967D01*
X1184149D01*
X1181896Y703507D02*
X1185201D01*
X1173916Y711200D02*
X1174967Y710149D01*
X1182948Y706047D02*
X1186253D01*
X1174968Y713740D02*
X1177507Y711201D01*
X1186253Y706047D02*
X1247140Y645160D01*
X1176020Y716280D02*
X1180047Y712253D01*
Y708948D02*
X1182948Y706047D01*
X1177507Y707896D02*
X1181896Y703507D01*
X1180047Y708948D02*
Y712253D01*
X1177507Y707896D02*
Y711201D01*
X1153631Y713937D02*
X1156368Y711200D01*
X1148265Y719017D02*
X1155735D01*
X1154683Y703523D02*
X1157280Y706120D01*
X1156368Y711200D02*
X1173916D01*
X1158472Y716280D02*
X1176020D01*
X1150369Y713937D02*
X1153631D01*
X1157420Y713740D02*
X1174968D01*
X1154683Y716477D02*
X1157420Y713740D01*
X1155735Y719017D02*
X1158472Y716280D01*
X1149317Y716477D02*
X1154683D01*
X1157280Y706120D02*
X1165161D01*
X1083834Y829310D02*
X1110250Y855726D01*
X1181011D01*
X1218880Y893595D02*
Y926080D01*
X1181011Y855726D02*
X1218880Y893595D01*
X1007999Y821690D02*
X1076214D01*
X1083462Y828938D01*
X1007264Y820955D02*
X1007999Y821690D01*
X780965Y967593D02*
X782320Y968948D01*
Y981710D01*
X788839Y949537D02*
Y967593D01*
X786257Y970174D02*
X788839Y967593D01*
X780965Y953819D02*
Y967593D01*
X786257Y970174D02*
Y983341D01*
X780689Y985647D02*
X783951D01*
X786257Y983341D01*
X730250Y982980D02*
X735505Y977725D01*
X775307D01*
X892000Y792000D02*
X896000Y796000D01*
X775307Y977725D02*
X778383Y980801D01*
X1085235Y864743D02*
X1135636D01*
X1084389Y865589D02*
X1085235Y864743D01*
X1033233Y865589D02*
X1084389D01*
X1015964D02*
X1018306Y867932D01*
X1015208Y865589D02*
X1015964D01*
X1006205Y850039D02*
X1008731Y852565D01*
X1036968Y874606D02*
X1037059Y874515D01*
X1028446Y877146D02*
X1038020D01*
X1008731Y866491D02*
Y868272D01*
X1012202Y877146D02*
X1014651Y879595D01*
X1015703Y877055D02*
X1028354D01*
X1010421Y877146D02*
X1012202D01*
X1013577Y869526D02*
X1015358D01*
X1008731Y868272D02*
X1012525Y872066D01*
X1011271Y865439D02*
Y867220D01*
X1019332Y867932D02*
X1020835Y869435D01*
X1036007Y871975D02*
X1117468D01*
X1037059Y874515D02*
X1116416D01*
X1034955Y869435D02*
X1136736D01*
X1006191Y867543D02*
Y869324D01*
X1016755Y874515D02*
X1029406D01*
X1011473Y874606D02*
X1013254D01*
X1017807Y871975D02*
X1030458D01*
X1028354Y877055D02*
X1028446Y877146D01*
X1029406Y874515D02*
X1029498Y874606D01*
X1015358Y869526D02*
X1017807Y871975D01*
X1020835Y869435D02*
X1031510D01*
X1013254Y874606D02*
X1015703Y877055D01*
X1018306Y867932D02*
X1019332D01*
X1003651Y870376D02*
X1010421Y877146D01*
X1006191Y869324D02*
X1011473Y874606D01*
X990945Y852297D02*
X1006191Y867543D01*
X986663Y851607D02*
X1003651Y868595D01*
Y870376D01*
X1006205Y849523D02*
Y850039D01*
X1011271Y867220D02*
X1013577Y869526D01*
X1012525Y872066D02*
X1014306D01*
X1029498Y874606D02*
X1036968D01*
X1034863Y869526D02*
X1034955Y869435D01*
X1035916Y872066D02*
X1036007Y871975D01*
X1038020Y877146D02*
X1038111Y877055D01*
X1042756D01*
X1030458Y871975D02*
X1030550Y872066D01*
X1031602Y869526D02*
X1034863D01*
X1008731Y852565D02*
Y866491D01*
X1030550Y872066D02*
X1035916D01*
X1014306D02*
X1016755Y874515D01*
X1031510Y869435D02*
X1031602Y869526D01*
X982392Y737188D02*
X990600Y728980D01*
X936464Y736606D02*
X936490Y736633D01*
X959163D02*
X959719Y737188D01*
X936490Y736633D02*
X959163D01*
X959719Y737188D02*
X982392D01*
X1350890Y702517D02*
Y702847D01*
X1354617Y706574D01*
X1339475Y679450D02*
X1440180D01*
X1337371Y684530D02*
X1442284D01*
X1268025Y675872D02*
X1332305D01*
X1267967Y672338D02*
X1332363D01*
X1339475Y679450D01*
X1332305Y675872D02*
X1338423Y681990D01*
X1336319Y687070D02*
X1443336D01*
X1331253Y678412D02*
X1337371Y684530D01*
X1338423Y681990D02*
X1441232D01*
X1330201Y680952D02*
X1336319Y687070D01*
X1289047Y680952D02*
X1330201D01*
X1441232Y681990D02*
X1463584Y659638D01*
X1442284Y684530D02*
X1464636Y662178D01*
X1413637Y569885D02*
X1419860Y563662D01*
X1408069Y574167D02*
X1411331D01*
X1413637Y571861D01*
Y569885D02*
Y571861D01*
X1406672Y572770D02*
X1408069Y574167D01*
X1428466Y547663D02*
Y622674D01*
X1422400Y546100D02*
Y621556D01*
X1425926Y546610D02*
Y621622D01*
X1513840Y481584D02*
X1534160Y501904D01*
X1004357Y665480D02*
X1006595Y667718D01*
Y668689D01*
X1008466Y670560D01*
X1016000Y568077D02*
Y660400D01*
X866921Y666750D02*
X878840Y654831D01*
X866140Y666750D02*
X866921D01*
X861060Y671830D02*
X866140Y666750D01*
X873668Y670652D02*
X883920Y660400D01*
X870732Y669996D02*
X881380Y659348D01*
X870732Y669996D02*
Y670179D01*
X595503Y784098D02*
X611485D01*
X651162Y823775D01*
X1472580Y698700D02*
X1542034Y629246D01*
X1387168Y706574D02*
X1395042Y698700D01*
X1354617Y706574D02*
X1387168D01*
X959800Y489200D02*
X1010139Y438861D01*
X1542034Y506186D02*
Y629246D01*
X1474709Y438861D02*
X1542034Y506186D01*
X1395042Y698700D02*
X1472580D01*
X1010139Y438861D02*
X1474709D01*
X1003427Y820420D02*
X1003962Y820955D01*
X1007264D01*
X653702Y796751D02*
X655447Y798496D01*
X653702Y742602D02*
Y796751D01*
X655447Y852645D02*
X662983Y860181D01*
X655447Y798496D02*
Y852645D01*
X631317Y809951D02*
X648622Y827256D01*
X651162Y823775D02*
Y858025D01*
X648622Y827256D02*
Y859077D01*
X631317Y809498D02*
Y809951D01*
X935264Y736606D02*
X936464D01*
X934775Y736117D02*
X935264Y736606D01*
X778383Y983341D02*
X780689Y985647D01*
X778383Y980801D02*
Y983341D01*
X1083462Y828938D02*
X1083834Y829310D01*
X1177651Y811403D02*
X1227098Y860850D01*
X1456643Y1024253D02*
X1463120Y1030731D01*
Y1037542D01*
X1467006Y966262D02*
X1467351Y965917D01*
X1470943D01*
X1481836Y942854D02*
Y955024D01*
X1470943Y965917D02*
X1481836Y955024D01*
X965681Y685493D02*
Y703101D01*
X964592Y707781D02*
X968861Y703512D01*
X962052Y706729D02*
X965681Y703101D01*
X962052Y706729D02*
Y708023D01*
X964592Y707781D02*
Y709075D01*
X971401Y703395D02*
Y704565D01*
X969063Y706902D02*
Y709477D01*
X968861Y687881D02*
Y703512D01*
X969063Y706902D02*
X971401Y704565D01*
X681793Y771963D02*
Y818953D01*
X708032Y845192D01*
X715906Y845208D02*
Y847115D01*
X671830Y762000D02*
X681793Y771963D01*
X704768Y820286D02*
X713486Y829004D01*
X696976Y818062D02*
X710946Y832032D01*
X656242Y762000D02*
X671830D01*
X656242Y741550D02*
Y762000D01*
X662983Y860181D02*
X712343D01*
X518160Y616318D02*
X531523Y602955D01*
X534063Y600415D01*
X865632Y944880D02*
X879602Y930910D01*
X798817Y417201D02*
X927103Y545486D01*
X796713Y422281D02*
X922022Y547590D01*
X797765Y419741D02*
X924563Y546538D01*
X801055Y438745D02*
X914402Y552093D01*
X723526Y842052D02*
Y843959D01*
X720986Y843104D02*
Y845011D01*
X722376Y846400D01*
X726066Y842906D02*
X727456Y844296D01*
X716026Y804057D02*
Y829671D01*
X710946Y834970D02*
X713798Y837822D01*
X712746Y840362D02*
X714652D01*
X713486Y833918D02*
X714850Y835282D01*
X723526Y843959D02*
X724916Y845348D01*
X714850Y835282D02*
X716756D01*
X708032Y845192D02*
Y854723D01*
X714652Y840362D02*
X718446Y844156D01*
X708406Y836022D02*
X712746Y840362D01*
X718446Y844156D02*
Y846063D01*
X716026Y829671D02*
X726066Y839711D01*
X718446Y846063D02*
X719836Y847452D01*
X716756Y835282D02*
X723526Y842052D01*
X713798Y837822D02*
X715704D01*
X715906Y847115D02*
X717296Y848504D01*
X713600Y842902D02*
X715906Y845208D01*
X711694Y842902D02*
X713600D01*
X726066Y839711D02*
Y842906D01*
X715704Y837822D02*
X720986Y843104D01*
X710946Y832032D02*
Y834970D01*
X708406Y833084D02*
Y836022D01*
X713486Y829004D02*
Y833918D01*
X520700Y617370D02*
Y697230D01*
X670560Y728980D02*
X690098D01*
X774020Y607868D02*
Y612603D01*
X772915Y606763D02*
X774020Y607868D01*
X774954Y681300D02*
X777494Y678760D01*
X748121Y586033D02*
Y676819D01*
X762000Y617129D02*
X763397Y615732D01*
X764794Y595991D02*
Y608921D01*
X763397Y610318D02*
X764794Y608921D01*
X763397Y610318D02*
Y615732D01*
X987298Y805454D02*
Y812168D01*
X984758Y797596D02*
Y811116D01*
X989838Y808374D02*
Y813220D01*
X885253Y678819D02*
X888845Y682412D01*
X885253Y677227D02*
Y678819D01*
X868960Y671951D02*
X870732Y670179D01*
X881446Y679704D02*
X886694Y684952D01*
X781507Y919937D02*
X809631D01*
X779635Y918065D02*
X781507Y919937D01*
X714885Y918065D02*
X779635D01*
X994033Y695606D02*
X998197Y699770D01*
Y700286D01*
X762127Y593090D02*
Y593324D01*
X764794Y595991D01*
X756920Y485013D02*
X766773Y475160D01*
X772915Y475735D02*
Y606763D01*
X749300Y459740D02*
X756920D01*
X772915Y475735D01*
X744052Y452186D02*
X749974D01*
X741746Y454492D02*
Y472894D01*
X754380Y485528D01*
X741746Y454492D02*
X744052Y452186D01*
X745683Y456123D02*
X749300Y459740D01*
X756920Y485013D02*
Y584418D01*
X750630Y452842D02*
X769493D01*
X749974Y452186D02*
X750630Y452842D01*
X681081Y465839D02*
X705635Y441285D01*
X678584Y482600D02*
X712279Y448905D01*
X690158Y438745D02*
X801055D01*
X685621Y468379D02*
X710175Y443825D01*
X705635Y441285D02*
X798771D01*
X665480Y463423D02*
X690158Y438745D01*
X677532Y480060D02*
X711227Y446365D01*
X710175Y443825D02*
X797719D01*
X763270Y561340D02*
X769874Y567944D01*
Y607314D01*
X774954Y681300D02*
Y682788D01*
X795937Y834369D02*
Y837505D01*
X798477Y833317D02*
Y833721D01*
X800000Y835244D01*
Y836000D01*
X795937Y830777D02*
X798477Y833317D01*
X795937Y825873D02*
Y830777D01*
X804063Y839937D02*
X808000Y836000D01*
X795937Y837505D02*
X798369Y839937D01*
X762000Y571500D02*
X767334Y576834D01*
Y613101D01*
X732790Y692150D02*
X748121Y676819D01*
X735330Y693202D02*
X751840Y676692D01*
X732790Y692150D02*
Y838561D01*
X785368Y857472D02*
X789317Y853523D01*
X787908Y858524D02*
X790369Y856063D01*
X744964Y858520D02*
X751748D01*
X747504Y855980D02*
X752800D01*
X789721Y853523D02*
X791244Y852000D01*
X792000D01*
X789317Y853523D02*
X789721D01*
X776385Y872230D02*
X785794D01*
X764611D02*
X767151Y869690D01*
X747020Y872230D02*
X764611D01*
X785794D02*
X786087Y871937D01*
X773845Y874770D02*
X776385Y872230D01*
X767151Y869690D02*
X784742D01*
X772744Y874770D02*
X773845D01*
X786087Y871937D02*
X796063D01*
X790369Y864063D02*
X809505D01*
X784742Y869690D02*
X790369Y864063D01*
X760576Y603531D02*
X760857Y603250D01*
X760576Y603531D02*
Y605997D01*
X759460Y607113D02*
X760576Y605997D01*
X760730Y584200D02*
X760857D01*
X756920Y588010D02*
X760730Y584200D01*
X754380Y586958D02*
X756920Y584418D01*
X751840Y489300D02*
Y582314D01*
X754380Y485528D02*
Y583366D01*
X751840Y585906D02*
X754380Y583366D01*
X748121Y586033D02*
X751840Y582314D01*
X747159Y484619D02*
X751840Y489300D01*
X748123Y882644D02*
X752590D01*
X735330Y693202D02*
Y854257D01*
X702544Y790575D02*
X716026Y804057D01*
X806493Y855937D02*
X807465Y854965D01*
Y852535D02*
X808000Y852000D01*
X807465Y852535D02*
Y854965D01*
X719836Y847452D02*
Y871364D01*
X724916Y845348D02*
Y869260D01*
X717296Y848504D02*
Y872417D01*
X719836Y871364D02*
X741409Y892937D01*
X722376Y870312D02*
X742461Y890397D01*
X727456Y844296D02*
Y868208D01*
X731393Y839958D02*
X732790Y838561D01*
X732173Y857414D02*
X735330Y854257D01*
X717296Y872417D02*
X741753Y896874D01*
X724916Y869260D02*
X743513Y887857D01*
X722376Y846400D02*
Y870312D01*
X731393Y839958D02*
Y849540D01*
X727456Y868208D02*
X744565Y885317D01*
X774138Y887857D02*
X781932Y880063D01*
X795937D01*
X800000Y876000D01*
X809505Y864063D02*
X812063Y861505D01*
Y855937D02*
Y861505D01*
Y855937D02*
X816000Y852000D01*
X796063Y871937D02*
X800000Y868000D01*
X804063Y873760D02*
Y880063D01*
X809631Y871937D02*
X811937Y869631D01*
Y866495D02*
Y869631D01*
X814369Y864063D02*
X826833D01*
X828040Y862856D01*
X804063Y873760D02*
X805886Y871937D01*
X812063Y873097D02*
X814477Y870683D01*
X828040Y852170D02*
Y862856D01*
X814477Y870279D02*
Y870683D01*
X812063Y873097D02*
Y917505D01*
X811937Y866495D02*
X814369Y864063D01*
X816000Y868000D02*
Y868756D01*
X814477Y870279D02*
X816000Y868756D01*
X805886Y871937D02*
X809631D01*
X828063Y850675D02*
Y852147D01*
X828040Y852170D02*
X828063Y852147D01*
Y850675D02*
X832918Y845820D01*
X834390D01*
X819937Y880063D02*
X830369D01*
X834390Y845820D02*
X835937Y844273D01*
Y786495D02*
X836930Y785502D01*
Y783590D02*
Y785502D01*
X839579Y726549D02*
Y780941D01*
X836930Y783590D02*
X839579Y780941D01*
X830369Y880063D02*
X830495Y879937D01*
X816000Y884000D02*
X819937Y880063D01*
X833631Y879937D02*
X836063Y877505D01*
X830495Y879937D02*
X833631D01*
X545592Y496570D02*
Y592478D01*
X520700Y617370D02*
X545592Y592478D01*
X534063Y477131D02*
X545592Y465602D01*
X534063Y477131D02*
Y600415D01*
X862203Y955949D02*
Y964545D01*
X877852Y936252D02*
X929739D01*
X879360Y938792D02*
X930791D01*
X862203Y955949D02*
X879360Y938792D01*
X990945Y848705D02*
Y852297D01*
X990600Y848360D02*
X990945Y848705D01*
X844063Y874369D02*
Y875937D01*
X843937Y876063D02*
X844063Y875937D01*
X836064Y926739D02*
Y932895D01*
Y926739D02*
X843937Y918866D01*
X835271Y933688D02*
X836064Y932895D01*
X840001Y928370D02*
X848308D01*
X843937Y876063D02*
Y918866D01*
X844063Y874369D02*
X846432Y872000D01*
X841523Y873317D02*
Y873721D01*
X840000Y875244D02*
X841523Y873721D01*
X840000Y875244D02*
Y876000D01*
X841523Y873317D02*
X844063Y870777D01*
X899937Y824063D02*
X904000Y820000D01*
X580361Y433070D02*
X605917Y458626D01*
X571253Y420370D02*
X612140Y461257D01*
X605917Y458626D02*
Y542417D01*
X612140Y461257D02*
Y538480D01*
X979190Y695606D02*
X994033D01*
X1058672Y515874D02*
Y525405D01*
X518160Y616318D02*
Y698282D01*
X545592Y445770D02*
Y465602D01*
X643562Y839978D02*
Y867771D01*
X663038Y887246D01*
X648622Y859077D02*
X665845Y876300D01*
X702437Y741319D02*
Y754371D01*
X701675Y790575D02*
X702544D01*
X705420Y879372D02*
X731557Y905510D01*
X663038Y887246D02*
X704548D01*
X705051Y886743D01*
X709198D01*
X690098Y728980D02*
X702437Y741319D01*
X692082Y895261D02*
X714885Y918065D01*
X659003Y477377D02*
Y498983D01*
X661543Y478429D02*
Y495955D01*
X659003Y498983D02*
X665480Y505460D01*
X671593Y468379D02*
X685621D01*
X545592Y406142D02*
X594610Y357124D01*
X608175D01*
X607123Y354584D02*
X607504Y354203D01*
X618505D01*
X593558Y354584D02*
X607123D01*
X608556Y356743D02*
X617453D01*
X618505Y354203D02*
X639470Y375168D01*
X608175Y357124D02*
X608556Y356743D01*
X526288Y421854D02*
X593558Y354584D01*
X617453Y356743D02*
X636930Y376220D01*
X779272Y779672D02*
Y804840D01*
X774192Y777568D02*
Y807720D01*
X776732Y778620D02*
Y806668D01*
X741553Y484619D02*
X747159D01*
X809631Y919937D02*
X812063Y917505D01*
X1011271Y862177D02*
Y865439D01*
X1017354Y853121D02*
Y857568D01*
X1011271Y862177D02*
X1013577Y859871D01*
X1015051D01*
X1003301Y839068D02*
X1017354Y853121D01*
X1015051Y859871D02*
X1017354Y857568D01*
X987298Y805454D02*
X1012925Y779827D01*
Y776505D02*
X1013460Y775970D01*
X1012925Y776505D02*
Y779827D01*
X639470Y375168D02*
Y399212D01*
X636930Y400264D02*
X656407Y419741D01*
X610743Y361589D02*
X613049Y359283D01*
X639470Y399212D02*
X657459Y417201D01*
X623443Y396331D02*
X651933Y424821D01*
X623443Y371983D02*
Y396331D01*
X526288Y433070D02*
X526524Y432834D01*
X545592Y420370D02*
X571253D01*
X616311Y359283D02*
X625983Y368955D01*
X610743Y361589D02*
Y371983D01*
X655355Y422281D02*
X796713D01*
X526288Y421854D02*
Y432598D01*
X526524Y432834D01*
X605917Y542417D02*
X614680Y551180D01*
X657459Y417201D02*
X798817D01*
X613049Y359283D02*
X616311D01*
X545592Y406142D02*
Y420370D01*
X526524Y432834D02*
X526760Y433070D01*
X580361D01*
X665480Y480060D02*
X677532D01*
X659003Y477377D02*
X670541Y465839D01*
X675640Y482600D02*
X678584D01*
X665724Y492516D02*
X675640Y482600D01*
X614680Y363220D02*
X623443Y371983D01*
X625983Y368955D02*
Y376409D01*
X610743Y371983D02*
X614680Y375920D01*
X636930Y376220D02*
Y400264D01*
X633928Y400854D02*
X655355Y422281D01*
X670541Y465839D02*
X681081D01*
X650881Y427361D02*
X794609D01*
X642740Y525697D02*
Y550974D01*
X628269Y511226D02*
X642740Y525697D01*
X661543Y478429D02*
X671593Y468379D01*
X625983Y376409D02*
X633928Y384354D01*
X651933Y424821D02*
X795661D01*
X1327897Y622823D02*
X1340084D01*
X1305560Y645160D02*
X1327897Y622823D01*
X990600Y721360D02*
Y728980D01*
X995680Y723900D02*
Y733008D01*
X993140Y722848D02*
Y731956D01*
X1247140Y645160D02*
X1305560D01*
X1398052Y601980D02*
X1417320D01*
X927583Y736117D02*
X934775D01*
X927100Y736600D02*
X927583Y736117D01*
X927100Y755650D02*
X932561Y750189D01*
X964549Y772287D02*
X979101D01*
X963497Y769747D02*
X978049D01*
X1443336Y687070D02*
X1450448Y679958D01*
X1472060Y596847D02*
X1502087D01*
X1463584Y659638D02*
X1466214D01*
X1440180Y679450D02*
X1466850Y652780D01*
X1464636Y662178D02*
X1467266D01*
X1450448Y679958D02*
X1477311D01*
X1466214Y659638D02*
X1480261Y645591D01*
X1477311Y679958D02*
X1490900Y666369D01*
X1467266Y662178D02*
X1479916Y649528D01*
X984758Y797596D02*
X994156Y788198D01*
X989838Y808374D02*
X1003192Y795020D01*
X994156Y779979D02*
X1002031Y772104D01*
X994156Y779979D02*
Y788198D01*
X1003944Y772104D02*
X1004015Y772033D01*
X1002031Y772104D02*
X1003944D01*
X846475Y961517D02*
X860572Y947420D01*
X866684D02*
X877852Y936252D01*
X860572Y947420D02*
X866684D01*
X865017Y882983D02*
X872000Y876000D01*
X832127Y929517D02*
Y929751D01*
X828063Y925453D02*
X832127Y929517D01*
X856000Y916000D02*
Y920678D01*
X848308Y928370D02*
X856000Y920678D01*
X900000Y816000D02*
X906678D01*
X908063Y817385D01*
X928370Y746252D02*
X934974D01*
X915613Y786477D02*
X918027Y784063D01*
X914279Y786477D02*
X915613D01*
X912000Y788000D02*
X912756D01*
X918027Y784063D02*
X929505D01*
X912756Y788000D02*
X914279Y786477D01*
X904000Y804000D02*
X904756D01*
X906279Y802477D02*
X906683D01*
X904756Y804000D02*
X906279Y802477D01*
X906683D02*
X909097Y800063D01*
X698500Y787400D02*
X701675Y790575D01*
X795937Y888063D02*
X800000Y884000D01*
X790369Y888063D02*
X795937D01*
X783336Y895096D02*
X790369Y888063D01*
X624332Y506727D02*
Y536158D01*
X632206Y509595D02*
Y511556D01*
X624332Y506727D02*
X625094Y505965D01*
X628523Y505912D02*
X632206Y509595D01*
X621157Y471795D02*
Y536575D01*
X804063Y880063D02*
X808000Y884000D01*
X774192Y807720D02*
X782281Y815809D01*
X1472942Y933960D02*
X1481836Y942854D01*
X624332Y536158D02*
X640280Y552106D01*
X625094Y456184D02*
Y490962D01*
X629031Y494899D01*
X625094Y496570D02*
Y505965D01*
X628523Y500659D02*
Y505912D01*
X629031Y494899D02*
Y500151D01*
X628523Y500659D02*
X629031Y500151D01*
X656407Y419741D02*
X797765D01*
X959512Y698205D02*
Y706971D01*
X980821Y699543D02*
Y709000D01*
X971401Y703395D02*
X979190Y695606D01*
X921505Y816063D02*
X924000Y813568D01*
X928000Y812000D02*
X932063Y807937D01*
X924000Y802432D02*
X926495Y799937D01*
X932000Y778432D02*
X934495Y775937D01*
X932000Y778432D02*
Y781568D01*
X924000Y802432D02*
Y813568D01*
X915937Y816063D02*
X921505D01*
X912000Y820000D02*
X915937Y816063D01*
X929505Y784063D02*
X932000Y781568D01*
X1534160Y501904D02*
Y605790D01*
X930967Y795465D02*
X934495Y791937D01*
X1466850Y646302D02*
Y652780D01*
X1479916Y649528D02*
X1492250D01*
X800000Y762536D02*
Y788000D01*
X928000Y796000D02*
X928535Y795465D01*
X930967D01*
X820455Y971800D02*
X825658Y966597D01*
X776732Y806668D02*
X795937Y825873D01*
X779272Y804840D02*
X799465Y825033D01*
Y827465D02*
X800000Y828000D01*
X799465Y825033D02*
Y827465D01*
X1205495Y1027705D02*
X1245610D01*
X1274005Y999310D01*
X1190500Y1042700D02*
X1205495Y1027705D01*
X979424Y934042D02*
X1000367Y913099D01*
X1179959Y858266D02*
X1216340Y894647D01*
X1176374Y1043289D02*
X1186190Y1053105D01*
X1003427Y800353D02*
X1003661D01*
X1003495Y931161D02*
X1023215D01*
X997994Y920541D02*
X1003791D01*
X999558Y929439D02*
X1003159Y925837D01*
X1178907Y860806D02*
X1213800Y895699D01*
Y971800D01*
X1216340Y894647D02*
Y948940D01*
X1042756Y877055D02*
X1057395Y891694D01*
X1116416Y874515D02*
X1131055Y889154D01*
X1117468Y871975D02*
X1133595Y888102D01*
X1136736Y869435D02*
X1156455Y889154D01*
X1003192Y795020D02*
X1003300D01*
X979424Y934042D02*
Y1009424D01*
X817560Y971800D02*
X820455D01*
X1126755Y1055645D02*
X1139700Y1042700D01*
X1101845Y1008437D02*
Y1019560D01*
X1176374Y1039259D02*
Y1043289D01*
X1099305Y1009489D02*
Y1032295D01*
X1088900Y1042700D02*
X1099305Y1032295D01*
X1091440Y1001624D02*
X1099305Y1009489D01*
X1111695Y1029409D02*
X1166524D01*
X1101845Y1019560D02*
X1111695Y1029409D01*
X1186190Y1053105D02*
X1205495D01*
X1215900Y1042700D01*
X986663Y822451D02*
X1003427Y805687D01*
X1166524Y1029409D02*
X1176374Y1039259D01*
X1218880Y926080D02*
X1264600Y971800D01*
X1216340Y948940D02*
X1239200Y971800D01*
X1241300Y1038529D02*
X1276545Y1003284D01*
X1241300Y1038529D02*
Y1042700D01*
X1098745Y934246D02*
Y1001745D01*
X1014651Y879595D02*
X1024289D01*
X1197805Y935298D02*
Y984595D01*
X1147005Y909898D02*
Y1009890D01*
X1096205Y1002797D02*
X1101845Y1008437D01*
X1024289Y879595D02*
X1031995Y887301D01*
X1096205Y957106D02*
Y1002797D01*
X1031995Y887301D02*
Y892896D01*
X986663Y822451D02*
Y851607D01*
X1190500Y1017300D02*
X1200345Y1007455D01*
X1158995Y892896D02*
X1200345Y934246D01*
X1165100Y1017300D02*
X1197805Y984595D01*
X1135636Y864743D02*
X1158995Y888102D01*
X1200345Y934246D02*
Y1007455D01*
X1133595Y888102D02*
Y892896D01*
X1188400Y947701D02*
Y971800D01*
X1131055Y889154D02*
Y893948D01*
X1139700Y1017195D02*
Y1017300D01*
X1057395Y892896D02*
X1098745Y934246D01*
X1156455Y889154D02*
Y893948D01*
X1098745Y1001745D02*
X1114300Y1017300D01*
X1133595Y892896D02*
X1188400Y947701D01*
X1139700Y1017195D02*
X1147005Y1009890D01*
X1131055Y893948D02*
X1147005Y909898D01*
X1057395Y891694D02*
Y892896D01*
X1156455Y893948D02*
X1197805Y935298D01*
X1158995Y888102D02*
Y892896D01*
X1002939Y876300D02*
X1003300D01*
X1027695Y1053105D02*
X1038100Y1042700D01*
X1000245Y1030245D02*
X1012700Y1042700D01*
X1048505Y1027705D02*
X1063500Y1042700D01*
X1004765Y983965D02*
X1038100Y1017300D01*
X1004765Y965831D02*
Y983965D01*
X999558Y960624D02*
X1004765Y965831D01*
X999558Y929439D02*
Y960624D01*
X1091440Y995794D02*
Y1001624D01*
X1088900Y996846D02*
Y1017300D01*
X979424Y1009424D02*
X987300Y1017300D01*
X816000Y908000D02*
X820063Y912063D01*
X868063Y917631D02*
X868807Y918375D01*
Y926191D01*
X868063Y895937D02*
Y917631D01*
Y895937D02*
X872000Y892000D01*
D89*
X452000Y747000D02*
D03*
Y797000D02*
D03*
X600000Y315000D02*
D03*
X550000D02*
D03*
D93*
X1502300Y1027300D02*
D03*
X1527700Y963800D02*
D03*
Y989200D02*
D03*
Y1014600D02*
D03*
X1502300Y951100D02*
D03*
Y976500D02*
D03*
Y1001900D02*
D03*
D99*
X1640200Y919600D02*
D03*
X1625000Y1046100D02*
D03*
Y945000D02*
D03*
X1640200Y1020700D02*
D03*
D103*
X1591200Y1040000D02*
D03*
Y925700D02*
D03*
D104*
X1527700Y938400D02*
D03*
D105*
X1560700Y1061600D02*
D03*
Y904100D02*
D03*
D106*
X1440700Y1052550D02*
D03*
X1354300D02*
D03*
D107*
X1440700Y1010750D02*
D03*
X1354300D02*
D03*
D108*
X1426400Y1015750D02*
D03*
X1368600D02*
D03*
X482350Y898200D02*
D03*
Y956000D02*
D03*
D111*
X487350Y883900D02*
D03*
Y970300D02*
D03*
D112*
X445550Y883900D02*
D03*
Y970300D02*
D03*
D113*
X458158Y849158D02*
X468158D01*
X456000Y847000D02*
X458158Y849158D01*
X1393000Y833000D02*
X1421000Y861000D01*
X1200523Y787523D02*
X1246000Y833000D01*
X1421000Y861000D02*
Y896818D01*
X1246000Y833000D02*
X1393000D01*
X1055000Y777298D02*
Y784773D01*
X1058720Y788493D01*
X1155347D01*
X1055000Y777298D02*
X1055618Y776680D01*
X1155347Y788493D02*
X1156317Y787523D01*
X1200523D01*
X1421000Y896818D02*
X1437640Y913458D01*
D115*
X855915Y738333D02*
Y766168D01*
Y738333D02*
X860312Y733936D01*
X855915Y766168D02*
X860064Y770317D01*
X860312Y733936D02*
X867796D01*
X868732Y733000D01*
X871000Y727000D02*
Y727687D01*
X868732Y729955D02*
X871000Y727687D01*
X868732Y729955D02*
Y733000D01*
X858885Y822557D02*
X860064Y821377D01*
X858885Y822557D02*
Y827115D01*
X856000Y830000D02*
X858885Y827115D01*
X860064Y770317D02*
Y821377D01*
X867938Y812128D02*
Y825938D01*
X874000Y832000D01*
D116*
X468158Y847000D02*
Y969067D01*
Y836676D02*
Y847000D01*
X1293559Y932009D02*
X1299972Y938421D01*
Y961644D01*
X480042Y980951D02*
Y998042D01*
X468158Y836676D02*
X475834Y829000D01*
X480042Y998042D02*
X491022Y1009023D01*
X468158Y969067D02*
X480042Y980951D01*
X475834Y829000D02*
X497000D01*
X546100Y969900D02*
X554265Y961735D01*
X560965D01*
X570454Y952246D02*
X570738D01*
X560965Y961735D02*
X570454Y952246D01*
X546100Y969900D02*
Y988898D01*
X1539240Y850900D02*
X1570990D01*
X1498357Y920643D02*
X1513840Y905160D01*
Y896620D02*
Y905160D01*
Y870160D02*
Y896620D01*
Y870160D02*
X1517000Y867000D01*
Y848000D02*
Y867000D01*
Y848000D02*
X1520450Y844550D01*
X1532890D01*
X1539240Y850900D01*
X1456643Y920643D02*
Y994950D01*
Y920643D02*
X1498357D01*
X1456643D02*
X1471902Y905385D01*
Y895515D02*
Y905385D01*
X1437640Y913458D02*
X1449458D01*
X1456643Y920643D01*
X491022Y1009023D02*
X590550D01*
X497000Y829000D02*
X555593Y770406D01*
Y749634D02*
Y770406D01*
D117*
X1358194Y997456D02*
X1363738Y1003000D01*
X1347000Y991000D02*
X1353456Y997456D01*
X1358194D01*
X1363738Y1003000D02*
X1422229D01*
X1430927Y994302D01*
X874000Y832000D02*
X878000Y836000D01*
Y852825D01*
X873997Y856828D02*
X878000Y852825D01*
X862778Y856828D02*
X873997D01*
X858252Y852302D02*
X862778Y856828D01*
X848000Y852302D02*
X858252D01*
X1086800Y489200D02*
Y511481D01*
X1063355Y534925D02*
X1086800Y511481D01*
X1446010Y867796D02*
Y905087D01*
X1437640Y913458D02*
X1446010Y905087D01*
X1202512Y304744D02*
X1194048D01*
Y298396D01*
X1198280Y300512D01*
X1200396D01*
X1202512Y298396D01*
Y294164D01*
X1200396Y292048D01*
X1196164D01*
X1194048Y294164D01*
D118*
X590550Y1009023D02*
Y1045987D01*
Y972058D02*
Y1009023D01*
X681707Y995880D02*
X724133D01*
X670781Y1006806D02*
X681707Y995880D01*
X724133D02*
X727619Y999367D01*
X739685D01*
X670781Y1006806D02*
Y1050471D01*
X663341Y1057910D02*
X670781Y1050471D01*
X602473Y1057910D02*
X663341D01*
X590550Y1045987D02*
X602473Y1057910D01*
X570738Y952246D02*
X590550Y972058D01*
D119*
X1086800Y489200D02*
D03*
X782320Y543560D02*
D03*
X704850Y379730D02*
D03*
X1046160Y971800D02*
D03*
X1264600Y489200D02*
D03*
X1016000Y889000D02*
D03*
X1003300Y406400D02*
D03*
X1264600Y971800D02*
D03*
X1016000Y660400D02*
D03*
D120*
X1010600Y489200D02*
D03*
X909000D02*
D03*
X934400D02*
D03*
X985200D02*
D03*
X959800D02*
D03*
X1036000D02*
D03*
X1061400D02*
D03*
X1193800Y889000D02*
D03*
X893760Y971800D02*
D03*
X1291400Y717300D02*
D03*
X1193800Y660400D02*
D03*
X858520Y543560D02*
D03*
X755650Y405130D02*
D03*
X652780Y1033780D02*
D03*
X755650Y379730D02*
D03*
X652780Y1008380D02*
D03*
Y982980D02*
D03*
X1168400Y660400D02*
D03*
X1291400Y768100D02*
D03*
X704850Y405130D02*
D03*
X730250Y379730D02*
D03*
X652780Y957580D02*
D03*
X730250Y405130D02*
D03*
X995360Y971800D02*
D03*
X817560D02*
D03*
X842960D02*
D03*
X868360D02*
D03*
X919160D02*
D03*
X944560D02*
D03*
X969960D02*
D03*
X1020760D02*
D03*
X1239200Y489200D02*
D03*
X1213800D02*
D03*
X1188400D02*
D03*
X1163000D02*
D03*
X1137600D02*
D03*
X1266000Y717300D02*
D03*
X1291400Y742700D02*
D03*
X1266000D02*
D03*
X627380Y957580D02*
D03*
Y982980D02*
D03*
Y1008380D02*
D03*
X1168400Y889000D02*
D03*
X1143000D02*
D03*
X1117600D02*
D03*
X1092200D02*
D03*
X1066800D02*
D03*
X1041400D02*
D03*
X952500Y381000D02*
D03*
X977900D02*
D03*
X1003300D02*
D03*
X952500Y406400D02*
D03*
X977900D02*
D03*
X833120Y543560D02*
D03*
X807720D02*
D03*
X1086800Y971800D02*
D03*
X1112200D02*
D03*
X1137600D02*
D03*
X1163000D02*
D03*
X1188400D02*
D03*
X1213800D02*
D03*
X1239200D02*
D03*
X1041400Y660400D02*
D03*
X1066800D02*
D03*
X1092200D02*
D03*
X1117600D02*
D03*
X1143000D02*
D03*
D121*
X1570501Y486002D02*
D03*
X1366000D02*
D03*
D122*
X1290000Y519119D02*
D03*
X1275235Y525235D02*
D03*
X1269119Y540000D02*
D03*
X1275235Y554765D02*
D03*
X1290000Y560881D02*
D03*
X1304765Y554765D02*
D03*
X1310881Y540000D02*
D03*
X1304765Y525235D02*
D03*
X724765D02*
D03*
X730881Y540000D02*
D03*
X724765Y554765D02*
D03*
X710000Y560881D02*
D03*
X695235Y554765D02*
D03*
X689119Y540000D02*
D03*
X695235Y525235D02*
D03*
X710000Y519119D02*
D03*
Y1009119D02*
D03*
X695235Y1015235D02*
D03*
X689119Y1030000D02*
D03*
X695235Y1044765D02*
D03*
X710000Y1050881D02*
D03*
X724765Y1044765D02*
D03*
X730881Y1030000D02*
D03*
X724765Y1015235D02*
D03*
X1304765D02*
D03*
X1310881Y1030000D02*
D03*
X1304765Y1044765D02*
D03*
X1290000Y1050881D02*
D03*
X1275235Y1044765D02*
D03*
X1269119Y1030000D02*
D03*
X1275235Y1015235D02*
D03*
X1290000Y1009119D02*
D03*
X460000Y299119D02*
D03*
X445235Y305235D02*
D03*
X439119Y320000D02*
D03*
X445235Y334765D02*
D03*
X460000Y340881D02*
D03*
X474765Y334765D02*
D03*
X480881Y320000D02*
D03*
X474765Y305235D02*
D03*
X1644765D02*
D03*
X1650881Y320000D02*
D03*
X1644765Y334765D02*
D03*
X1630000Y340881D02*
D03*
X1615235Y334765D02*
D03*
X1609119Y320000D02*
D03*
X1615235Y305235D02*
D03*
X1630000Y299119D02*
D03*
X460000Y1019119D02*
D03*
X445235Y1025235D02*
D03*
X439119Y1040000D02*
D03*
X445235Y1054765D02*
D03*
X460000Y1060881D02*
D03*
X474765Y1054765D02*
D03*
X480881Y1040000D02*
D03*
X474765Y1025235D02*
D03*
D123*
X1290000Y540000D02*
D03*
X710000D02*
D03*
Y1030000D02*
D03*
X1290000D02*
D03*
X460000Y320000D02*
D03*
X1630000D02*
D03*
X460000Y1040000D02*
D03*
D124*
X1114300Y1042700D02*
D03*
X1165100D02*
D03*
X987300D02*
D03*
X1063500Y1017300D02*
D03*
X1241300D02*
D03*
X911100Y1042700D02*
D03*
X860300Y1017300D02*
D03*
X809500Y1042700D02*
D03*
X961900Y1017300D02*
D03*
X1241300Y1042700D02*
D03*
X1215900D02*
D03*
Y1017300D02*
D03*
X1190500Y1042700D02*
D03*
Y1017300D02*
D03*
X1165100D02*
D03*
X1139700Y1042700D02*
D03*
Y1017300D02*
D03*
X1114300D02*
D03*
X1088900Y1042700D02*
D03*
Y1017300D02*
D03*
X1063500Y1042700D02*
D03*
X1038100D02*
D03*
Y1017300D02*
D03*
X1012700Y1042700D02*
D03*
Y1017300D02*
D03*
X987300D02*
D03*
X961900Y1042700D02*
D03*
X936500D02*
D03*
Y1017300D02*
D03*
X911100D02*
D03*
X885700Y1042700D02*
D03*
Y1017300D02*
D03*
X860300Y1042700D02*
D03*
X834900D02*
D03*
Y1017300D02*
D03*
X809500D02*
D03*
X784100Y1042700D02*
D03*
Y1017300D02*
D03*
X758700Y1042700D02*
D03*
D125*
X1492400Y317500D02*
D03*
X1387400D02*
D03*
X528600Y1041400D02*
D03*
X1422400Y317500D02*
D03*
X1457400D02*
D03*
X563600Y1041400D02*
D03*
X1562400Y317500D02*
D03*
X1527400D02*
D03*
D126*
X1054100Y406400D02*
D03*
Y381000D02*
D03*
X825500Y406400D02*
D03*
Y381000D02*
D03*
X1028700D02*
D03*
Y406400D02*
D03*
X800100Y381000D02*
D03*
Y406400D02*
D03*
X850900Y381000D02*
D03*
X876300D02*
D03*
X901700D02*
D03*
X927100D02*
D03*
X850900Y406400D02*
D03*
X876300D02*
D03*
X901700D02*
D03*
X1130300D02*
D03*
X1104900D02*
D03*
X1079500D02*
D03*
X1155700Y381000D02*
D03*
X1130300D02*
D03*
X1104900D02*
D03*
X1079500D02*
D03*
D127*
X535738Y952246D02*
D03*
X570738D02*
D03*
D128*
X457200Y635000D02*
D03*
Y609600D02*
D03*
Y584200D02*
D03*
Y533400D02*
D03*
Y558800D02*
D03*
Y508000D02*
D03*
Y482600D02*
D03*
Y457200D02*
D03*
Y431800D02*
D03*
X482600Y457200D02*
D03*
Y558800D02*
D03*
Y584200D02*
D03*
Y482600D02*
D03*
Y431800D02*
D03*
Y533400D02*
D03*
Y508000D02*
D03*
Y635000D02*
D03*
Y609600D02*
D03*
X457200Y406400D02*
D03*
D129*
X482600D02*
D03*
D130*
X758700Y1017300D02*
D03*
D131*
X927100Y406400D02*
D03*
X1155700D02*
D03*
D132*
X1266000Y768100D02*
D03*
X627380Y1033780D02*
D03*
D133*
X901000Y948989D02*
D03*
X985909Y938396D02*
D03*
X1007237Y937116D02*
D03*
X1016000Y937260D02*
D03*
X1003311Y894579D02*
D03*
X1217000Y857000D02*
D03*
X1052000Y917000D02*
D03*
X1061000Y945000D02*
D03*
X1041000Y946000D02*
D03*
X1439814Y779389D02*
D03*
X1623000Y752000D02*
D03*
X1624000Y765000D02*
D03*
X1003427Y833735D02*
D03*
X1003301Y839068D02*
D03*
X815353Y768151D02*
D03*
X517488Y956398D02*
D03*
X697705Y811781D02*
D03*
X571508Y659741D02*
D03*
X571391Y645525D02*
D03*
X993749Y935044D02*
D03*
X688654Y869619D02*
D03*
X1310160Y583645D02*
D03*
X610928Y938472D02*
D03*
X1555983Y519846D02*
D03*
X927820Y819990D02*
D03*
X919946Y820000D02*
D03*
X1008914Y965945D02*
D03*
X991243Y955013D02*
D03*
X985909Y955040D02*
D03*
X883133Y980933D02*
D03*
X901669Y960565D02*
D03*
X932124Y962303D02*
D03*
X895000Y954000D02*
D03*
X827842Y975110D02*
D03*
X855980Y965200D02*
D03*
X1486803Y892152D02*
D03*
X773809Y847809D02*
D03*
X819830Y936142D02*
D03*
X806278Y935290D02*
D03*
X789600Y931908D02*
D03*
X1477000Y972000D02*
D03*
X1464203Y895743D02*
D03*
X1470000Y822500D02*
D03*
Y811000D02*
D03*
X1641000Y945000D02*
D03*
X1640000Y973000D02*
D03*
X1609000Y894000D02*
D03*
X1551000Y884000D02*
D03*
X1538000Y1063000D02*
D03*
X1478000Y998000D02*
D03*
X1525000Y344000D02*
D03*
X1561000Y451000D02*
D03*
X1469000Y425000D02*
D03*
X1499000Y379000D02*
D03*
Y390000D02*
D03*
X1500000Y403000D02*
D03*
X1462000Y378000D02*
D03*
X1461000Y400000D02*
D03*
X789523Y456506D02*
D03*
X616078Y393700D02*
D03*
X629991Y397311D02*
D03*
X717550Y432017D02*
D03*
X692150D02*
D03*
X644319Y398493D02*
D03*
X656497Y397382D02*
D03*
X794219Y351917D02*
D03*
X605000Y348000D02*
D03*
X559000Y354000D02*
D03*
X543000Y353000D02*
D03*
X1234417Y991108D02*
D03*
X1226000Y989000D02*
D03*
X1218000Y990000D02*
D03*
X1293559Y932009D02*
D03*
X1269333Y937915D02*
D03*
X1282674Y910564D02*
D03*
X1332484Y807720D02*
D03*
X1336782Y910378D02*
D03*
X638000Y1044063D02*
D03*
X648000Y1047000D02*
D03*
X556260Y807720D02*
D03*
X483000Y740000D02*
D03*
X481000Y820000D02*
D03*
X475000Y814000D02*
D03*
X1412000Y473000D02*
D03*
X1384000Y465000D02*
D03*
X1298420Y583645D02*
D03*
X1235777Y668731D02*
D03*
X1168000Y694000D02*
D03*
X929640Y707080D02*
D03*
X946932Y705812D02*
D03*
X896000Y804000D02*
D03*
X996000Y632000D02*
D03*
X951000Y636000D02*
D03*
X759000Y947000D02*
D03*
X764449Y950000D02*
D03*
X748978Y948856D02*
D03*
X953604Y822259D02*
D03*
X946368Y818480D02*
D03*
X962306Y828422D02*
D03*
X947000Y813000D02*
D03*
X970954Y818000D02*
D03*
X972902Y813034D02*
D03*
X958000Y815000D02*
D03*
X955597Y794405D02*
D03*
X946651Y795874D02*
D03*
X951069Y798862D02*
D03*
X946414Y788000D02*
D03*
X1256000Y793000D02*
D03*
X856627Y932574D02*
D03*
X976000Y895000D02*
D03*
X945176Y869824D02*
D03*
X888000Y908000D02*
D03*
Y900000D02*
D03*
X874167Y923387D02*
D03*
X885175Y930698D02*
D03*
X678000Y699000D02*
D03*
X664600Y718637D02*
D03*
X639468Y697786D02*
D03*
X622000Y693000D02*
D03*
X628000D02*
D03*
X631317Y704723D02*
D03*
X600000Y700922D02*
D03*
X602000Y690000D02*
D03*
X576635Y704273D02*
D03*
X540000Y696000D02*
D03*
X1555983Y636538D02*
D03*
X1512000Y492000D02*
D03*
X1473000Y540746D02*
D03*
X1473218Y546584D02*
D03*
X1450000Y539000D02*
D03*
X1493000Y540000D02*
D03*
X1483000Y585000D02*
D03*
X1458672Y507546D02*
D03*
X1500000Y495000D02*
D03*
X1446738Y548232D02*
D03*
X1462614Y541809D02*
D03*
X1499000Y505000D02*
D03*
X1491000Y509000D02*
D03*
X1477000Y504000D02*
D03*
X1450000Y510000D02*
D03*
X1521903Y537606D02*
D03*
X1538097Y538983D02*
D03*
X595000Y716000D02*
D03*
X563000Y667302D02*
D03*
X662293Y336723D02*
D03*
X826364Y711242D02*
D03*
X843554Y771000D02*
D03*
X862127Y745146D02*
D03*
X849311Y749733D02*
D03*
X862000Y738000D02*
D03*
X786178Y692028D02*
D03*
X804281Y736595D02*
D03*
X1130000Y830000D02*
D03*
X701316Y642000D02*
D03*
X1322070Y805180D02*
D03*
X995000Y709000D02*
D03*
X1006157Y720555D02*
D03*
X1495000Y745000D02*
D03*
X681000Y1059000D02*
D03*
X1349222Y809392D02*
D03*
X1349126Y855307D02*
D03*
X1362710Y808990D02*
D03*
X877000Y481000D02*
D03*
X888000Y498000D02*
D03*
X1347000Y991000D02*
D03*
X1419817Y991013D02*
D03*
X1472121Y941460D02*
D03*
X1438000Y994000D02*
D03*
X1430927Y994302D02*
D03*
X1401000Y957000D02*
D03*
X1430000Y981000D02*
D03*
X1364153Y938501D02*
D03*
X1259920D02*
D03*
X1400937Y974090D02*
D03*
X1406264Y974359D02*
D03*
X1320546Y942340D02*
D03*
X1345473Y944753D02*
D03*
X1357651D02*
D03*
X1398270Y948690D02*
D03*
X1391666Y956818D02*
D03*
X1383018Y994906D02*
D03*
X1320166Y960778D02*
D03*
X1368532Y985164D02*
D03*
X1483106Y541315D02*
D03*
X735000Y929000D02*
D03*
X746322Y922002D02*
D03*
X762000Y892000D02*
D03*
X764713Y899722D02*
D03*
X755824Y900552D02*
D03*
X750698Y868293D02*
D03*
X760188Y881380D02*
D03*
X750620Y862960D02*
D03*
X726000Y948000D02*
D03*
X740275Y935175D02*
D03*
X738598Y944634D02*
D03*
X748960Y941314D02*
D03*
X769239Y909574D02*
D03*
X764436Y913679D02*
D03*
X819000Y922000D02*
D03*
X896000Y916000D02*
D03*
X892714Y923509D02*
D03*
X777000Y821000D02*
D03*
X769469Y824238D02*
D03*
X781568Y827568D02*
D03*
X781000Y840000D02*
D03*
X872000Y772000D02*
D03*
X898000Y630000D02*
D03*
X908000Y645000D02*
D03*
X897477Y741864D02*
D03*
X878461Y743733D02*
D03*
X893895Y751113D02*
D03*
X974880Y563082D02*
D03*
X927000Y663000D02*
D03*
X934000Y672000D02*
D03*
X1341307Y654114D02*
D03*
X1330715Y654509D02*
D03*
X1353000Y669000D02*
D03*
X1351000Y620000D02*
D03*
X1352417Y643114D02*
D03*
X1198404Y589250D02*
D03*
X1229991Y603714D02*
D03*
X1008333Y636920D02*
D03*
X958171Y629581D02*
D03*
X893000Y658000D02*
D03*
X895000Y645046D02*
D03*
X879155Y673416D02*
D03*
X884132Y671497D02*
D03*
X887000Y667000D02*
D03*
X912211Y706762D02*
D03*
X888000Y729000D02*
D03*
X872000Y530000D02*
D03*
X891000Y536000D02*
D03*
X861531Y690740D02*
D03*
X880602Y760125D02*
D03*
X873000Y753000D02*
D03*
X886780Y742645D02*
D03*
X899089Y736224D02*
D03*
X871000Y727000D02*
D03*
X864432Y722432D02*
D03*
X861574Y727088D02*
D03*
X917656Y707080D02*
D03*
X872545Y687261D02*
D03*
X866642Y689214D02*
D03*
X855893Y691794D02*
D03*
X881784Y748784D02*
D03*
X893970Y758987D02*
D03*
X947000Y768000D02*
D03*
X918683Y764989D02*
D03*
X855874Y868042D02*
D03*
X872543Y647412D02*
D03*
X849334Y626237D02*
D03*
X848486Y618349D02*
D03*
X848102Y844428D02*
D03*
X848000Y852302D02*
D03*
X863874Y836000D02*
D03*
X943939Y672939D02*
D03*
X856000Y662000D02*
D03*
X868511Y650903D02*
D03*
X979197Y675513D02*
D03*
X984611D02*
D03*
X1390506Y765616D02*
D03*
X867290Y680178D02*
D03*
X873668Y673913D02*
D03*
X868425Y674894D02*
D03*
X779163Y877264D02*
D03*
X781000Y860000D02*
D03*
X775684Y860440D02*
D03*
X753484Y849916D02*
D03*
X768477Y853667D02*
D03*
X773000Y833327D02*
D03*
X1497000Y807000D02*
D03*
X904476Y726524D02*
D03*
X901838Y731275D02*
D03*
X913817Y749527D02*
D03*
X912596Y759941D02*
D03*
X1054719Y534925D02*
D03*
X441620Y814958D02*
D03*
X1106982Y591069D02*
D03*
X1143224Y597569D02*
D03*
X1270894Y630047D02*
D03*
X1233170Y621030D02*
D03*
X1255266Y584447D02*
D03*
Y610447D02*
D03*
Y597447D02*
D03*
X1238250Y612140D02*
D03*
X701926Y657966D02*
D03*
X702588Y652673D02*
D03*
X703158Y647370D02*
D03*
X714000Y615498D02*
D03*
X683869Y695131D02*
D03*
X563000Y612698D02*
D03*
X580000Y627302D02*
D03*
Y632698D02*
D03*
X597000Y612000D02*
D03*
X706000Y607000D02*
D03*
X924687Y703580D02*
D03*
X991406Y602278D02*
D03*
X1065324Y578098D02*
D03*
X1188720Y578178D02*
D03*
X1095502Y558679D02*
D03*
X1031240Y515188D02*
D03*
X1016024Y515212D02*
D03*
X1023620Y567250D02*
D03*
X1161542Y558679D02*
D03*
X1053512Y603378D02*
D03*
X1040223D02*
D03*
X1178165Y621666D02*
D03*
X1158320Y633778D02*
D03*
X1227502Y558679D02*
D03*
X1119378Y628650D02*
D03*
X1076960Y629919D02*
D03*
X1269920Y650621D02*
D03*
X856000Y836306D02*
D03*
X1473120Y1024253D02*
D03*
X1472121Y958460D02*
D03*
X1503680Y896620D02*
D03*
X1438640Y949960D02*
D03*
X1437640Y935662D02*
D03*
X1453725Y884841D02*
D03*
X1347160Y908685D02*
D03*
X1507500Y860000D02*
D03*
Y845000D02*
D03*
X1500000Y837500D02*
D03*
X1553210Y826770D02*
D03*
X1492500Y860000D02*
D03*
X1485000Y852500D02*
D03*
X1460082Y850991D02*
D03*
X1437746Y877550D02*
D03*
X1485000Y845000D02*
D03*
X1492500Y837500D02*
D03*
X1398270Y826770D02*
D03*
X1417320Y805180D02*
D03*
X1336040Y1001702D02*
D03*
X1280800Y857378D02*
D03*
X1244600Y908050D02*
D03*
X920000Y908000D02*
D03*
X936000Y876000D02*
D03*
X888000Y892000D02*
D03*
X912000Y884000D02*
D03*
X896000Y868000D02*
D03*
X928000Y852000D02*
D03*
X896000D02*
D03*
X880000Y868000D02*
D03*
X1133492Y835960D02*
D03*
X1133898Y826318D02*
D03*
X1150925Y803017D02*
D03*
X896000Y828000D02*
D03*
X888000Y820000D02*
D03*
Y804000D02*
D03*
X1417843Y783742D02*
D03*
X1401587Y666422D02*
D03*
X1492402Y600784D02*
D03*
X1458798Y599578D02*
D03*
X1386840Y786130D02*
D03*
X1389380Y709930D02*
D03*
X1367023Y787385D02*
D03*
X1376680Y743041D02*
D03*
X1394281Y666115D02*
D03*
X1361676Y650367D02*
D03*
X1580500Y476302D02*
D03*
X1633462Y368600D02*
D03*
X1459000Y410000D02*
D03*
X1481440Y555828D02*
D03*
X1450999Y555789D02*
D03*
X1447140Y484582D02*
D03*
X1427480Y509142D02*
D03*
X1389380Y471498D02*
D03*
X1344897Y369267D02*
D03*
X1159000Y794000D02*
D03*
X1135000Y747482D02*
D03*
X1132093Y739821D02*
D03*
X1325880Y730578D02*
D03*
X1134239Y731734D02*
D03*
X912000Y796000D02*
D03*
X936000Y788000D02*
D03*
X880000Y780000D02*
D03*
X904000Y772000D02*
D03*
X1329354Y685673D02*
D03*
X1340269Y593672D02*
D03*
X1318166Y699275D02*
D03*
X1325880Y696535D02*
D03*
X1322866Y668401D02*
D03*
X1337207Y522402D02*
D03*
X1305830Y410216D02*
D03*
X1257570Y426656D02*
D03*
X1223042Y392128D02*
D03*
X1298480Y313562D02*
D03*
X1152000Y710000D02*
D03*
X1132000Y689000D02*
D03*
X988697Y656141D02*
D03*
X949429D02*
D03*
X856000Y900000D02*
D03*
X832000Y908000D02*
D03*
X824000Y884000D02*
D03*
X848000Y876000D02*
D03*
X840000Y868000D02*
D03*
X832000Y860000D02*
D03*
X816000D02*
D03*
X731058Y961824D02*
D03*
X808000Y916000D02*
D03*
X707390Y970280D02*
D03*
X800000Y892000D02*
D03*
X792000Y868000D02*
D03*
X709422Y902462D02*
D03*
X702917Y883309D02*
D03*
X848000Y836000D02*
D03*
X832000Y835694D02*
D03*
X856000Y812000D02*
D03*
X848000Y820000D02*
D03*
Y788000D02*
D03*
X808000Y828000D02*
D03*
X800000Y804000D02*
D03*
X824000Y796000D02*
D03*
X700913Y794512D02*
D03*
X701600Y768604D02*
D03*
X689217Y977053D02*
D03*
X685800Y947420D02*
D03*
X664860Y941158D02*
D03*
X631317Y929488D02*
D03*
X681600Y880237D02*
D03*
X679499Y869315D02*
D03*
X647499Y866140D02*
D03*
X565762Y880872D02*
D03*
X565230Y866062D02*
D03*
X669163Y847032D02*
D03*
X690000Y843000D02*
D03*
X686689Y838200D02*
D03*
X685730Y805851D02*
D03*
X596890Y838973D02*
D03*
X559128Y859631D02*
D03*
X548264Y860298D02*
D03*
X489000Y843000D02*
D03*
X519913Y835045D02*
D03*
X474000Y840000D02*
D03*
X520060Y784098D02*
D03*
X462620Y814958D02*
D03*
X812909Y732297D02*
D03*
X762962Y751148D02*
D03*
X761317Y733250D02*
D03*
X784609Y683495D02*
D03*
X713232Y693166D02*
D03*
X681736Y725043D02*
D03*
X713994Y674624D02*
D03*
X717550Y467298D02*
D03*
X702542Y632994D02*
D03*
X703000Y628000D02*
D03*
Y617586D02*
D03*
X704850Y497902D02*
D03*
X679450D02*
D03*
X649000Y586000D02*
D03*
X656463Y565738D02*
D03*
X595000Y672000D02*
D03*
X548264Y758698D02*
D03*
X548264Y733298D02*
D03*
X458818Y756760D02*
D03*
X441620Y711958D02*
D03*
X548264Y707708D02*
D03*
X563000Y647302D02*
D03*
X462620Y711958D02*
D03*
X539750Y619808D02*
D03*
X587502Y351028D02*
D03*
X563000Y572302D02*
D03*
Y537303D02*
D03*
Y592302D02*
D03*
Y517302D02*
D03*
X538000Y605638D02*
D03*
X563000Y437368D02*
D03*
Y457302D02*
D03*
Y416433D02*
D03*
Y377302D02*
D03*
Y397302D02*
D03*
Y497302D02*
D03*
Y477302D02*
D03*
X1007921Y741172D02*
D03*
X1115000Y824000D02*
D03*
X1570990Y850900D02*
D03*
X1407287Y880110D02*
D03*
X1401953D02*
D03*
X1519682Y875030D02*
D03*
Y882592D02*
D03*
X826968Y690951D02*
D03*
X1322595Y684889D02*
D03*
X575000Y770000D02*
D03*
X657787Y940437D02*
D03*
X695112Y875504D02*
D03*
X602217Y886665D02*
D03*
X511698Y841400D02*
D03*
X635000Y736600D02*
D03*
X602065Y582774D02*
D03*
X604000Y594000D02*
D03*
X596851Y595581D02*
D03*
X595000Y606000D02*
D03*
X628000Y586000D02*
D03*
X622000D02*
D03*
X631000Y579000D02*
D03*
X638000Y584000D02*
D03*
X702542Y612272D02*
D03*
Y602580D02*
D03*
X596000Y647000D02*
D03*
X594046Y634230D02*
D03*
X575380Y693859D02*
D03*
X593000Y629000D02*
D03*
X644000Y584000D02*
D03*
X671000Y587000D02*
D03*
X675637Y584363D02*
D03*
X696190Y585434D02*
D03*
X690874Y585000D02*
D03*
X683000Y586000D02*
D03*
X692000Y695000D02*
D03*
X672000Y696000D02*
D03*
X645414D02*
D03*
X595000Y681000D02*
D03*
X1161000Y803000D02*
D03*
X795086Y970354D02*
D03*
X840623Y950026D02*
D03*
X792776Y965142D02*
D03*
X784902Y965706D02*
D03*
X777028Y965327D02*
D03*
X810683Y954436D02*
D03*
X730250Y982980D02*
D03*
X702610Y985938D02*
D03*
X935937Y828000D02*
D03*
X1286304Y803501D02*
D03*
X1258570Y802640D02*
D03*
X1284753Y789436D02*
D03*
X1408704Y783804D02*
D03*
X1376680Y810260D02*
D03*
X1486408Y752982D02*
D03*
X1606550Y750570D02*
D03*
X1607820Y741680D02*
D03*
Y731520D02*
D03*
X1518920Y678180D02*
D03*
X1494790Y725170D02*
D03*
X1493520Y717169D02*
D03*
X1487186Y693960D02*
D03*
X1471902Y895515D02*
D03*
X1478167Y900788D02*
D03*
X1446010Y867796D02*
D03*
X1445260Y788670D02*
D03*
X1370773Y906945D02*
D03*
X1271918Y906015D02*
D03*
X689024Y983135D02*
D03*
X689134Y961780D02*
D03*
X763778Y981710D02*
D03*
X751920Y981662D02*
D03*
X782320Y981710D02*
D03*
X886460Y1002152D02*
D03*
X903996Y981954D02*
D03*
X1006205Y849523D02*
D03*
X1033233Y865589D02*
D03*
X1015208D02*
D03*
X884469Y962496D02*
D03*
X1023620Y955421D02*
D03*
X513080Y905510D02*
D03*
X1350010Y466090D02*
D03*
X1225550Y678180D02*
D03*
X1324610Y576580D02*
D03*
X1327043Y416113D02*
D03*
X929640Y448310D02*
D03*
X941070Y445770D02*
D03*
X1302395Y630057D02*
D03*
X1328293Y596443D02*
D03*
X1369060Y743041D02*
D03*
X1261001Y921456D02*
D03*
X574040Y815340D02*
D03*
X562610Y807720D02*
D03*
X555593Y749634D02*
D03*
X491109Y745808D02*
D03*
X529592Y695912D02*
D03*
X1350890Y702517D02*
D03*
X1303147Y688661D02*
D03*
X1418732Y705739D02*
D03*
X1356995Y906842D02*
D03*
X1413250Y917238D02*
D03*
X509111Y784876D02*
D03*
X510748Y792200D02*
D03*
X1334628Y709739D02*
D03*
X1393750Y917238D02*
D03*
X1380750D02*
D03*
X1334592Y718566D02*
D03*
X1333500Y728980D02*
D03*
Y735330D02*
D03*
Y743204D02*
D03*
X1318630Y713215D02*
D03*
X1442640Y754239D02*
D03*
Y711647D02*
D03*
X1409700Y570230D02*
D03*
X1002726Y669417D02*
D03*
X1336040Y759460D02*
D03*
X1361440Y668020D02*
D03*
X1358680Y696791D02*
D03*
X1003427Y820420D02*
D03*
X1220470Y626110D02*
D03*
X1276893Y814221D02*
D03*
X1188720Y600382D02*
D03*
X1197266Y597447D02*
D03*
X651510Y808990D02*
D03*
X1437640Y913458D02*
D03*
X1195070Y546100D02*
D03*
X1456643Y1024253D02*
D03*
X1463120Y1037542D02*
D03*
X1467006Y966262D02*
D03*
X1456643Y994950D02*
D03*
X1456653Y981578D02*
D03*
X1447880Y994950D02*
D03*
X949960Y678053D02*
D03*
X973000Y708533D02*
D03*
X853606Y616822D02*
D03*
X704768Y820286D02*
D03*
X698500Y800100D02*
D03*
X666750Y754380D02*
D03*
X631317Y809498D02*
D03*
X595503Y784098D02*
D03*
X671703Y825500D02*
D03*
X663829Y825754D02*
D03*
X671902Y812800D02*
D03*
Y785920D02*
D03*
X694307Y837313D02*
D03*
X670560Y774700D02*
D03*
X711969Y846839D02*
D03*
X492088Y808880D02*
D03*
X498983Y777240D02*
D03*
X510748Y762280D02*
D03*
X1224219Y461010D02*
D03*
X1287780Y417830D02*
D03*
X1240132Y337650D02*
D03*
X1204713Y378636D02*
D03*
X581406Y732790D02*
D03*
X562356Y730377D02*
D03*
X670560Y728980D02*
D03*
X700649Y728101D02*
D03*
X957298Y569600D02*
D03*
X964466Y563082D02*
D03*
X699291Y763085D02*
D03*
X864870Y924560D02*
D03*
X840001Y928370D02*
D03*
X850900Y962660D02*
D03*
X866140Y960120D02*
D03*
X826394Y961766D02*
D03*
X820786Y958458D02*
D03*
X868733Y955167D02*
D03*
X832127Y929751D02*
D03*
X826793D02*
D03*
X790502Y806414D02*
D03*
X1458798Y585578D02*
D03*
X1244600Y532130D02*
D03*
X1243203Y541679D02*
D03*
X1120902Y535686D02*
D03*
X1113282Y544830D02*
D03*
X998197Y700286D02*
D03*
X762127Y593090D02*
D03*
X766773Y475160D02*
D03*
X745683Y456123D02*
D03*
X769493Y452842D02*
D03*
X1460500Y692150D02*
D03*
X838200Y566420D02*
D03*
X822960Y575310D02*
D03*
X869186Y474726D02*
D03*
X763270Y561340D02*
D03*
X762000Y571500D02*
D03*
X760857Y603250D02*
D03*
Y584200D02*
D03*
X750697Y825500D02*
D03*
X719963Y802888D02*
D03*
X751967Y815086D02*
D03*
X749753Y878707D02*
D03*
X713359Y854442D02*
D03*
X728853Y836930D02*
D03*
X708032Y854723D02*
D03*
X731393Y849540D02*
D03*
X545592Y496570D02*
D03*
X552450Y516890D02*
D03*
X545592Y471170D02*
D03*
X631317Y758698D02*
D03*
X1224280Y447040D02*
D03*
X1002411Y598462D02*
D03*
X1006348Y602234D02*
D03*
X1223010Y471170D02*
D03*
X769620Y948690D02*
D03*
X911242Y929025D02*
D03*
X900828Y930910D02*
D03*
X959876Y931936D02*
D03*
X1002157Y883920D02*
D03*
X990600Y848360D02*
D03*
X527050Y641912D02*
D03*
X528800Y618642D02*
D03*
X643562Y839978D02*
D03*
X712343Y860181D02*
D03*
X732173Y857414D02*
D03*
X773142Y883285D02*
D03*
X755780Y844192D02*
D03*
X750951Y839191D02*
D03*
Y833857D02*
D03*
X777574Y891159D02*
D03*
X707568Y890680D02*
D03*
X762000Y353187D02*
D03*
X700900Y340233D02*
D03*
X1432052Y377190D02*
D03*
X1554008Y525780D02*
D03*
X1441450Y412750D02*
D03*
X741553Y484619D02*
D03*
X759587Y776569D02*
D03*
X1242919Y666674D02*
D03*
X1013460Y775970D02*
D03*
X612178Y899198D02*
D03*
X615950Y902970D02*
D03*
X580421Y591881D02*
D03*
X676520Y565738D02*
D03*
X1402588Y737997D02*
D03*
X1544320Y638938D02*
D03*
X644017Y374778D02*
D03*
X614680Y363220D02*
D03*
X704850Y461902D02*
D03*
X665724Y492516D02*
D03*
X665480Y505460D02*
D03*
Y463423D02*
D03*
Y480060D02*
D03*
X730250Y461902D02*
D03*
X679450D02*
D03*
X979419Y723433D02*
D03*
X974391Y733251D02*
D03*
X1389380Y594360D02*
D03*
X1399540Y596900D02*
D03*
X927100Y736600D02*
D03*
X1417320Y601980D02*
D03*
X1409700Y607060D02*
D03*
X1290828Y631444D02*
D03*
X1464960Y555828D02*
D03*
X1448363Y687611D02*
D03*
X1423416Y672084D02*
D03*
X1440898Y671622D02*
D03*
X1340640Y691007D02*
D03*
X1403628Y709739D02*
D03*
X1394281Y650367D02*
D03*
X927100Y755650D02*
D03*
X936921Y732696D02*
D03*
X934720Y727837D02*
D03*
X781050Y304800D02*
D03*
X1422400Y412750D02*
D03*
X1002812Y777230D02*
D03*
X1003484Y782521D02*
D03*
X1004015Y772033D02*
D03*
X1004128Y744922D02*
D03*
X751920Y966343D02*
D03*
X934974Y746252D02*
D03*
X768096Y771398D02*
D03*
X1343249Y892461D02*
D03*
X668020Y869315D02*
D03*
X628269Y511226D02*
D03*
X698500Y774700D02*
D03*
Y787400D02*
D03*
X711073Y908685D02*
D03*
X719836Y971042D02*
D03*
X1132586Y536956D02*
D03*
X1106982Y604068D02*
D03*
Y617068D02*
D03*
X1204468Y630428D02*
D03*
X1164982Y604068D02*
D03*
X1155192Y570992D02*
D03*
X1164982Y591068D02*
D03*
X1058672Y515874D02*
D03*
X1078230Y544068D02*
D03*
X1144166Y541679D02*
D03*
X1183132Y542036D02*
D03*
X1208786Y541782D02*
D03*
X1334628Y700786D02*
D03*
X1325800Y717142D02*
D03*
X1325880Y752782D02*
D03*
X1353947Y797560D02*
D03*
X1310640Y787400D02*
D03*
X1306868Y791172D02*
D03*
X1295320Y790004D02*
D03*
X1382680Y767461D02*
D03*
X1374267Y784860D02*
D03*
X1406525Y754016D02*
D03*
X1396520Y770738D02*
D03*
X1392490Y748496D02*
D03*
X1386680Y744840D02*
D03*
X1299972Y961644D02*
D03*
X1393063Y974238D02*
D03*
X1473120Y1037542D02*
D03*
X1311402Y987044D02*
D03*
X1355056Y985803D02*
D03*
X1405344Y995503D02*
D03*
X563372Y705612D02*
D03*
X625094Y496570D02*
D03*
X621157Y471795D02*
D03*
X632460Y492760D02*
D03*
Y477520D02*
D03*
Y502920D02*
D03*
X614055Y564505D02*
D03*
X614680Y551180D02*
D03*
X612140Y538480D02*
D03*
X601980Y483616D02*
D03*
X625094Y456184D02*
D03*
X580000Y416433D02*
D03*
X955575Y705340D02*
D03*
X959512Y698205D02*
D03*
X1414321Y649018D02*
D03*
X1538097Y553466D02*
D03*
X1483366Y572744D02*
D03*
X1493440Y572818D02*
D03*
X1428647Y650216D02*
D03*
X1440898Y649018D02*
D03*
X1480900Y658495D02*
D03*
X1490900Y666369D02*
D03*
X935287Y755481D02*
D03*
X783209Y789523D02*
D03*
X980821Y699543D02*
D03*
X985520Y708533D02*
D03*
X779709Y764540D02*
D03*
X792000Y788000D02*
D03*
Y796000D02*
D03*
X1179040Y647204D02*
D03*
X1188240D02*
D03*
X1145032Y640842D02*
D03*
X1031802Y637032D02*
D03*
X1085088Y642112D02*
D03*
Y636778D02*
D03*
X1027465Y633221D02*
D03*
X824000Y812000D02*
D03*
Y804000D02*
D03*
X808000Y812000D02*
D03*
X808000Y804000D02*
D03*
X1023112Y546129D02*
D03*
Y551463D02*
D03*
X808000Y796000D02*
D03*
X800000D02*
D03*
X793105Y812608D02*
D03*
X800000Y812000D02*
D03*
Y820000D02*
D03*
X1057910Y592328D02*
D03*
X1044528Y560908D02*
D03*
X1094448Y533908D02*
D03*
X1492250Y649528D02*
D03*
X1480261Y645591D02*
D03*
X1466850Y646302D02*
D03*
X1492504Y623698D02*
D03*
X1479550D02*
D03*
X1502087Y596847D02*
D03*
X1534160Y605790D02*
D03*
X808000Y779780D02*
D03*
X1046480Y515188D02*
D03*
X1231900Y364490D02*
D03*
X711073Y928626D02*
D03*
X881380Y455802D02*
D03*
X872490Y440690D02*
D03*
X859790Y445770D02*
D03*
X698500Y742950D02*
D03*
X730250Y497902D02*
D03*
X1399833Y996652D02*
D03*
X1000367Y913099D02*
D03*
X1003427Y828294D02*
D03*
Y805687D02*
D03*
Y800353D02*
D03*
X1378774Y974708D02*
D03*
X580000Y438277D02*
D03*
X1003159Y925837D02*
D03*
X1003791Y920541D02*
D03*
X1003495Y931161D02*
D03*
X832000Y812000D02*
D03*
X840000D02*
D03*
X1531620Y855980D02*
D03*
X1488742Y815340D02*
D03*
X1483408D02*
D03*
X1487678Y879453D02*
D03*
X1502472Y816610D02*
D03*
X1497138D02*
D03*
X1300050Y984504D02*
D03*
X612140Y914019D02*
D03*
Y908685D02*
D03*
X1360170Y702310D02*
D03*
X1418732Y721739D02*
D03*
X485140Y867410D02*
D03*
X1462500Y830000D02*
D03*
X1532890Y844550D02*
D03*
X1529080Y866140D02*
D03*
X1513840Y896620D02*
D03*
X669785Y397382D02*
D03*
X657294Y375575D02*
D03*
X669785Y374778D02*
D03*
X621792Y445770D02*
D03*
X523113Y508735D02*
D03*
X526288Y458470D02*
D03*
Y433070D02*
D03*
X706040Y572818D02*
D03*
X632460Y464820D02*
D03*
X614680Y375920D02*
D03*
X627380Y431800D02*
D03*
X1124185Y908177D02*
D03*
X928851Y957142D02*
D03*
X932413Y949290D02*
D03*
X1132050Y909967D02*
D03*
X1003300Y876300D02*
D03*
X958723Y901700D02*
D03*
X1132050Y921386D02*
D03*
X1003300Y899922D02*
D03*
X1016000Y955040D02*
D03*
X1362607Y499298D02*
D03*
X1375307Y499298D02*
D03*
X1349907D02*
D03*
X1375307Y442798D02*
D03*
X1362607Y465902D02*
D03*
X1337207D02*
D03*
X664600Y743902D02*
D03*
X1520152Y563847D02*
D03*
X1397781Y717739D02*
D03*
X1424579Y713739D02*
D03*
X1349732Y737739D02*
D03*
X1355579Y729738D02*
D03*
X1349732Y721739D02*
D03*
X1355579Y713739D02*
D03*
X1374680Y696791D02*
D03*
X1366680Y702637D02*
D03*
X580000Y537303D02*
D03*
Y517302D02*
D03*
Y497302D02*
D03*
Y572302D02*
D03*
Y477302D02*
D03*
Y457302D02*
D03*
Y397302D02*
D03*
Y377302D02*
D03*
X710900Y319798D02*
D03*
X690900D02*
D03*
X621792Y420370D02*
D03*
X545592Y445770D02*
D03*
Y420370D02*
D03*
X1611358Y398600D02*
D03*
X1633462Y388600D02*
D03*
X1611358Y378600D02*
D03*
X1472942Y933960D02*
D03*
X546750Y969848D02*
D03*
X546100Y988898D02*
D03*
X550700Y940782D02*
D03*
X1345473Y923618D02*
D03*
X1439498Y959730D02*
D03*
Y942731D02*
D03*
X1447880Y981662D02*
D03*
X1063355Y534925D02*
D03*
X1053592Y570990D02*
D03*
X1374250Y917238D02*
D03*
X1387250D02*
D03*
X1389380Y493702D02*
D03*
X1356360Y922641D02*
D03*
X1607114Y699898D02*
D03*
X1472635Y753067D02*
D03*
X1620520Y699898D02*
D03*
X1442640Y767527D02*
D03*
X1442560Y740950D02*
D03*
X679450Y949912D02*
D03*
X1066800Y625982D02*
D03*
X1188165Y608378D02*
D03*
X1178165D02*
D03*
X1188165Y621666D02*
D03*
X1195658Y526660D02*
D03*
X1574502Y377300D02*
D03*
X552450Y695912D02*
D03*
Y641912D02*
D03*
X1259212Y906383D02*
D03*
X1138378Y610569D02*
D03*
X1080378Y597569D02*
D03*
Y584569D02*
D03*
X1223870Y577947D02*
D03*
X1499542Y548640D02*
D03*
X629920Y374778D02*
D03*
X1558290Y661462D02*
D03*
X1466850Y623698D02*
D03*
X1544320Y661542D02*
D03*
Y859662D02*
D03*
X526939Y820565D02*
D03*
X550592Y831867D02*
D03*
X563880Y831722D02*
D03*
X1124590Y921386D02*
D03*
X951230Y864743D02*
D03*
X952500Y877570D02*
D03*
Y886460D02*
D03*
X1003300Y795020D02*
D03*
X651510Y925830D02*
D03*
X678180Y906780D02*
D03*
X872000Y812000D02*
D03*
X949960Y905510D02*
D03*
X808000Y884000D02*
D03*
X800000Y836000D02*
D03*
Y876000D02*
D03*
X816000Y916000D02*
D03*
X840000Y884000D02*
D03*
Y908000D02*
D03*
X848000Y900000D02*
D03*
X856000Y908000D02*
D03*
X912000Y828000D02*
D03*
Y892000D02*
D03*
X920000D02*
D03*
X928000Y860000D02*
D03*
X800000Y908000D02*
D03*
X824000Y868000D02*
D03*
X832000Y876000D02*
D03*
X856000Y804000D02*
D03*
X856000Y876000D02*
D03*
X880000Y892000D02*
D03*
Y916000D02*
D03*
X896000Y908000D02*
D03*
X904000Y804000D02*
D03*
X920000Y876000D02*
D03*
X872000Y868000D02*
D03*
X848000D02*
D03*
X888000D02*
D03*
X832000D02*
D03*
X840000Y804000D02*
D03*
X816000Y812000D02*
D03*
X832000Y780000D02*
D03*
X856000Y772000D02*
D03*
X808000Y788000D02*
D03*
X824000Y828000D02*
D03*
X792306Y884000D02*
D03*
X808000Y820000D02*
D03*
X808000Y852000D02*
D03*
X824000Y900000D02*
D03*
X856000Y796000D02*
D03*
X888000Y812000D02*
D03*
X896000D02*
D03*
X904000Y788000D02*
D03*
X912000Y868000D02*
D03*
X920000Y852000D02*
D03*
X792000D02*
D03*
X800000Y788000D02*
D03*
X808000Y908000D02*
D03*
X816000Y852000D02*
D03*
X832000Y796000D02*
D03*
X856000Y884000D02*
D03*
Y892000D02*
D03*
X880000Y788000D02*
D03*
X920000Y788000D02*
D03*
Y884000D02*
D03*
X928000D02*
D03*
X808000Y860000D02*
D03*
X816000Y884000D02*
D03*
Y908000D02*
D03*
X832000Y892000D02*
D03*
X840000Y788000D02*
D03*
X848000Y804000D02*
D03*
X880000Y812000D02*
D03*
X888000Y916000D02*
D03*
X904000Y892000D02*
D03*
X936000Y892000D02*
D03*
X792000Y828000D02*
D03*
Y900000D02*
D03*
X808000Y836000D02*
D03*
X824000Y820000D02*
D03*
X856000Y860000D02*
D03*
X880000D02*
D03*
X888000Y852000D02*
D03*
X880000Y820000D02*
D03*
X888000Y828000D02*
D03*
X840000Y820000D02*
D03*
X896000Y836000D02*
D03*
X896000Y860000D02*
D03*
Y820000D02*
D03*
X856000Y819694D02*
D03*
X840000Y860000D02*
D03*
X832000Y852306D02*
D03*
Y828000D02*
D03*
X848000Y796000D02*
D03*
Y812000D02*
D03*
X904000Y780000D02*
D03*
X912000Y812000D02*
D03*
Y860000D02*
D03*
X920000Y836000D02*
D03*
X800000Y868000D02*
D03*
X808000Y892000D02*
D03*
X824000Y835694D02*
D03*
X832000Y884000D02*
D03*
Y916000D02*
D03*
X840000D02*
D03*
X848000Y884000D02*
D03*
X848000Y892000D02*
D03*
X880000Y796000D02*
D03*
X912000Y780000D02*
D03*
X920000Y812000D02*
D03*
X928000Y900000D02*
D03*
X800000Y900000D02*
D03*
X816000Y804000D02*
D03*
X896000Y900000D02*
D03*
X904000Y884000D02*
D03*
X912000Y804000D02*
D03*
X928000Y876000D02*
D03*
X872000Y884000D02*
D03*
X904000Y860000D02*
D03*
Y828000D02*
D03*
X896000Y876000D02*
D03*
X904000Y868000D02*
D03*
X872000Y796000D02*
D03*
X912000Y836000D02*
D03*
X904000Y812000D02*
D03*
X840000Y892000D02*
D03*
X920000Y868000D02*
D03*
X896000Y788000D02*
D03*
X880000Y908000D02*
D03*
X904000Y900000D02*
D03*
X816000D02*
D03*
X848000Y916000D02*
D03*
X928000Y804000D02*
D03*
Y892000D02*
D03*
X920000Y780000D02*
D03*
X936000Y916000D02*
D03*
X800000Y852000D02*
D03*
X792000Y908000D02*
D03*
X808000Y876000D02*
D03*
X800000Y916000D02*
D03*
X816000Y788000D02*
D03*
Y820000D02*
D03*
X824000Y852306D02*
D03*
Y892000D02*
D03*
X840000Y796000D02*
D03*
X872000Y804000D02*
D03*
X872000Y916000D02*
D03*
X880000Y804000D02*
D03*
X904000Y908000D02*
D03*
X920000Y900000D02*
D03*
X792000Y892000D02*
D03*
X808000Y900000D02*
D03*
X816000Y868000D02*
D03*
X824000Y916000D02*
D03*
X872000Y892000D02*
D03*
X896000Y796000D02*
D03*
X904000Y852000D02*
D03*
X912000Y788000D02*
D03*
Y820000D02*
D03*
X928000Y908000D02*
D03*
Y916000D02*
D03*
X800000Y828000D02*
D03*
X824000Y788000D02*
D03*
X824000Y908000D02*
D03*
X832000Y788000D02*
D03*
X840000Y900000D02*
D03*
X856000Y788000D02*
D03*
X896000Y892000D02*
D03*
X923478Y926205D02*
D03*
X912000Y900000D02*
D03*
X928000Y868000D02*
D03*
X792000Y836000D02*
D03*
Y860000D02*
D03*
X800000D02*
D03*
X824000D02*
D03*
X872000Y780000D02*
D03*
X871998Y852002D02*
D03*
X880000Y876000D02*
D03*
X880000Y900000D02*
D03*
X888000Y876000D02*
D03*
X920000Y796000D02*
D03*
X920000Y804000D02*
D03*
X816000Y876000D02*
D03*
Y892000D02*
D03*
X832000Y804000D02*
D03*
X872000Y788000D02*
D03*
X880000Y884000D02*
D03*
X888000Y796000D02*
D03*
X896000Y884000D02*
D03*
X904000Y820000D02*
D03*
X912000Y908000D02*
D03*
X920000Y860000D02*
D03*
X936000Y884000D02*
D03*
X935694Y900000D02*
D03*
X792000Y876000D02*
D03*
X800000Y884000D02*
D03*
X848000Y908000D02*
D03*
X872000Y900000D02*
D03*
X888000Y884000D02*
D03*
X912000Y852000D02*
D03*
Y876000D02*
D03*
Y916000D02*
D03*
X920000Y828000D02*
D03*
X792000Y916000D02*
D03*
X816000Y796000D02*
D03*
Y836000D02*
D03*
X824000Y876000D02*
D03*
X832000Y900000D02*
D03*
X856000Y916000D02*
D03*
X872000Y876000D02*
D03*
Y908000D02*
D03*
X888000Y788000D02*
D03*
X920000Y916000D02*
D03*
X928000Y836000D02*
D03*
X936000Y852000D02*
D03*
X808000Y868000D02*
D03*
X816000Y828000D02*
D03*
X840000Y876000D02*
D03*
X904000Y796000D02*
D03*
Y836000D02*
D03*
X904000Y916000D02*
D03*
X912000Y772000D02*
D03*
X920000D02*
D03*
X936000Y860000D02*
D03*
X935694Y820000D02*
D03*
Y812000D02*
D03*
Y836000D02*
D03*
X936000Y772000D02*
D03*
Y780000D02*
D03*
X928000Y772000D02*
D03*
Y780000D02*
D03*
X936000Y796000D02*
D03*
X928000Y788000D02*
D03*
X936000Y804000D02*
D03*
X928000Y796000D02*
D03*
Y812000D02*
D03*
X928000Y828000D02*
D03*
D134*
X1038000Y732000D02*
D03*
X1016896Y834937D02*
D03*
X456000Y847000D02*
D03*
X779000Y608000D02*
D03*
X1287808Y918003D02*
D03*
X1142956Y684956D02*
D03*
X972000Y923000D02*
D03*
X660000Y697000D02*
D03*
X1533000Y467000D02*
D03*
X719000Y638464D02*
D03*
X649120Y899120D02*
D03*
X1028194Y677746D02*
D03*
X1104000Y678000D02*
D03*
X1363000Y994000D02*
D03*
X1320800Y1003200D02*
D03*
X1055618Y776680D02*
D03*
X920000Y632000D02*
D03*
X880109Y767070D02*
D03*
X508000Y325000D02*
D03*
X1286000Y698000D02*
D03*
X1477000Y765000D02*
D03*
X1526000Y574000D02*
D03*
X1548000Y628000D02*
D03*
X1616000Y627000D02*
D03*
X1657000Y630000D02*
D03*
X1659000Y463000D02*
D03*
X506000Y303000D02*
D03*
X638000Y304000D02*
D03*
X639000Y325000D02*
D03*
X700000Y684000D02*
D03*
X736938Y615300D02*
D03*
X577000Y607000D02*
D03*
X715000Y588000D02*
D03*
X725000Y603000D02*
D03*
X628000Y563000D02*
D03*
X638000Y562000D02*
D03*
X691000Y724000D02*
D03*
X1400000Y1037500D02*
D03*
X1549400Y835660D02*
D03*
X1653000Y827000D02*
D03*
X1543042Y800108D02*
D03*
X1539240Y834390D02*
D03*
X1529341Y832085D02*
D03*
X1315720Y919480D02*
D03*
X1158250Y827920D02*
D03*
X1246848Y823252D02*
D03*
X1052000Y840000D02*
D03*
X955000Y844000D02*
D03*
X1039000Y840000D02*
D03*
X1027000D02*
D03*
X1545110Y786130D02*
D03*
X1572260Y690880D02*
D03*
X1549400Y732790D02*
D03*
X1496060Y754380D02*
D03*
X1191000Y799000D02*
D03*
X1184000D02*
D03*
X1198000D02*
D03*
X1126914Y778812D02*
D03*
X1159510Y735047D02*
D03*
X1142000Y722000D02*
D03*
X1124000Y766366D02*
D03*
X1032000Y742000D02*
D03*
X1027000Y732000D02*
D03*
X985000Y760072D02*
D03*
X1185000Y711000D02*
D03*
X1192000Y710000D02*
D03*
X1198000D02*
D03*
X768000Y792000D02*
D03*
X507500Y962500D02*
D03*
X522500Y952500D02*
D03*
X537500Y902500D02*
D03*
X515000Y875000D02*
D03*
X577000Y795000D02*
D03*
X559000D02*
D03*
X769000Y665000D02*
D03*
X648000Y724000D02*
D03*
X600000Y731000D02*
D03*
X589000Y750000D02*
D03*
X1619000Y818000D02*
D03*
X1598000Y862000D02*
D03*
X1606000Y848000D02*
D03*
X759333Y741998D02*
D03*
X714000Y728000D02*
D03*
X1254000Y708000D02*
D03*
X575000Y764000D02*
D03*
X604000Y914000D02*
D03*
X645391Y944046D02*
D03*
X486000Y665000D02*
D03*
X780918Y637082D02*
D03*
X1234000Y763000D02*
D03*
X1222000D02*
D03*
X1085895Y677937D02*
D03*
X1059000Y678000D02*
D03*
X1037896Y677937D02*
D03*
X1017000Y788000D02*
D03*
Y797000D02*
D03*
Y806000D02*
D03*
X1593976Y679646D02*
D03*
X1521460Y778510D02*
D03*
X739685Y999367D02*
D03*
X567500Y915000D02*
D03*
X507045Y937590D02*
D03*
X505000Y952500D02*
D03*
X527500Y905000D02*
D03*
X507822Y924560D02*
D03*
D135*
X666740Y656580D02*
D03*
X655740D02*
D03*
Y645580D02*
D03*
X666740Y634580D02*
D03*
Y645580D02*
D03*
X644740Y634580D02*
D03*
X655740D02*
D03*
X666740Y623580D02*
D03*
X655740D02*
D03*
X644740Y645580D02*
D03*
Y656580D02*
D03*
X633740Y623580D02*
D03*
Y634580D02*
D03*
Y656580D02*
D03*
Y645580D02*
D03*
X644740Y623580D02*
D03*
D136*
X885135Y731865D02*
X888000Y729000D01*
X879080Y731865D02*
X885135D01*
X876707Y734238D02*
X879080Y731865D01*
X876707Y734238D02*
Y736457D01*
X874409Y738755D02*
Y745777D01*
X867093Y753093D02*
X874409Y745777D01*
Y738755D02*
X876707Y736457D01*
X867093Y753093D02*
Y759500D01*
X867000Y759593D02*
X867093Y759500D01*
X867000Y759593D02*
Y766000D01*
X867938Y766938D01*
Y812128D01*
M02*
