M48
;Layer_Color=9474304
;FILE_FORMAT=4:4
METRIC,LZ
;TYPE=PLATED
T01F00S00C0.2032
T02F00S00C0.3000
T03F00S00C0.3048
T04F00S00C0.5080
T06F00S00C0.7000
T08F00S00C0.8900
T09F00S00C0.9000
T10F00S00C1.0000
T11F00S00C1.0200
T12F00S00C1.0668
T13F00S00C1.3000
T14F00S00C1.6000
T15F00S00C3.1000
T16F00S00C3.1800
;TYPE=NON_PLATED
T17F00S00C0.5999
T18F00S00C0.6500
T19F00S00C0.7500
T20F00S00C0.9000
T21F00S00C0.9500
T22F00S00C1.0000
T23F00S00C2.2000
T24F00S00C3.2000
%
T01
X-0007493Y-00684276
X-0006858Y-00683006
X-00061976Y-00682752
X-00056134Y-00683768
X-00049784Y-00684276
X-0004318
X-0003683Y-0068453
X-00030226Y-00684784
X-00024384Y-006858
X-00018034Y-00684022
X-00011684
X-00005334Y-0068453
X0000127
X0000762Y-00684784
X0001397Y-0068453
X0002032Y-00685038
X00026924
X00033274Y-00685292
X00038862Y-00684784
X00045212Y-00685292
X00051816
X00058166Y-00685546
X00064516Y-0068199
X00077724Y-00681482
X0008382Y-00689102
X0009017Y-00686816
X0009652Y-00687324
X00103124
X00109474Y-00687578
X00115062Y-00686562
X00121412Y-0068707
X00128016
X00134366Y-00687324
X00141224Y-0068707
X0014732Y-00686308
X0015367Y-00686562
X0016002Y-0068707
X00166624
X00172974Y-00687324
X00172466Y-00598678
X00166878Y-00599694
X00160528Y-00599186
X00153924
X00148082Y-00594868
X00141224Y-00599694
X00135128Y-00595122
X00128524Y-00597154
X00122174Y-00596646
X0011557
X0010922Y-00596392
X00103632Y-00597408
X00097282Y-005969
X00090678
X00045974Y-0059436
X00039878Y-00599694
X-0001778Y-00596646
X-0006223Y-005969
X-0006858Y-00597408
X-0007493Y-00597154
X0007112Y-0068961
X0019558Y-00560832
X00251714Y-0060579
X00301314Y-00563997
X00335788Y-00586486
X00374396Y-00555244
X00525879Y-00575481
X00517227Y-00585895
X00539242Y-00583692
X00541932Y-00609127
X0053086Y-0060579
X00540258Y-00640588
X0054463Y-0064378
X00548894Y-00648462
X00541274Y-00651256
X00561848Y-0066167
X00567874Y-00640285
X00601472Y-00628142
X00703072Y-0064389
X00725678Y-00643382
X0080264Y-00561086
X00837946Y-00559816
X00957313Y-00601784
X00975642Y-00588292
X009845Y-0061593
X00993916Y-00641586
X0105108Y-00666858
X0104038Y-0056259
X0101017Y-00553764
X0105843Y-00570204
X01079643Y-00564307
X01097497Y-00611153
X01184652Y-0060323
X012146Y-0060242
X012136Y-0058042
X012116Y-0057042
X0119405Y-0056767
X01175
X012216Y-0055542
X012526Y-0057742
X012516Y-0059042
Y-0060142
X012776Y-0063642
X01327102Y-0060312
X01363958Y-0060182
Y-0058182
X01386062Y-0059182
Y-0061182
X013136Y-0052942
X013331Y-00504118
X01308583Y-00460574
X01306608Y-0045464
X01290697Y-00441437
Y-00426954
X01272752Y-00416573
X01274503Y-00442814
X012456Y-0044042
X01235706Y-00439105
X012256Y-00439674
X01225818Y-00433836
X01215213Y-00438611
X012026Y-0044142
X01199338Y-00432188
X01203599Y-00424632
X0121756Y-00424592
X0123404
X01235966Y-00407676
X0124604Y-00407602
X012356Y-0039542
X01211398Y-00394842
Y-00380842
X0121945Y-00356722
X0123215
X01245104
X01245002Y-00379636
X01254687Y-00383573
X0128676Y-0037463
X0129692Y-00341482
X01308583Y-00343882
X0131089Y-00318958
X0129692Y-00318878
X0127152Y-0030224
X012435Y-00314051
X012335Y-00321925
X01232861Y-00334829
X0121945Y-00334118
X0124485Y-00330892
X01239786Y-0028646
X012131Y-0028827
X01200963Y-00292809
X01193498Y-00308798
Y-00331402
X01179622Y-00331829
X01165489Y-00331402
X01146881Y-00330053
Y-00314305
X01154187Y-00313998
X0114046Y-00308356
X01170377Y-00308336
Y-00274681
Y-00266681
Y-00258681
X01150381Y-00262681
X01156228Y-00270681
X0114198Y-0027049
X0112728Y-00283629
X0111928Y-00277783
X0111277Y-0027811
X0111128Y-00283629
X0110349Y-00277903
X01108179Y-00266681
X01102332Y-00258681
X01108179Y-0025145
X01106678Y-00240792
X0112166Y-00237379
X01129237
X0113928Y-00235861
X0114509Y-00231924
X01143106Y-00214804
X0113528Y-00212959
X0114912Y-00209931
X01154938Y-00191262
X01161304Y-00196616
X01170443Y-00196678
X0116992Y-0017524
X0115087Y-0015365
X0113944Y-0019429
X01126867Y-0019556
X01119623Y-00193035
X01106547Y-0018286
X01101822Y-00171028
X0111531Y-0017143
X01085084Y-001727
X0107467Y-0017524
X0105918Y-00172466
X01063498Y-00197104
X01062736Y-002032
X01062422Y-00208534
Y-00214122
X0107848Y-00227638
X01086062Y-00232164
X01086358Y-0023749
X01085642Y-00246525
X01083569Y-0025144
X01076286Y-00252036
X010784Y-00263278
X01087192Y-00261854
X01087228Y-00270681
X01085088Y-00279146
X0107848Y-00283885
X01070766Y-00281145
X0107123Y-00267205
X01075195Y-00295531
X01081954Y-00294747
X0109324Y-00289413
X01099312Y-00310642
X011056Y-0031142
X0111404Y-003124
X01114276Y-00330053
X01105017Y-00337306
X01093907Y-00326306
X01083315Y-00325911
X01075466Y-00312019
X01055747Y-00291759
X01054995Y-00350363
X0106276Y-00396775
X01080893Y-00383977
X01092868Y-00386748
X01090422Y-00401066
X01090168Y-00425196
X01081024Y-0044196
X01089807Y-00458018
X01102507Y-00481122
X01115207Y-00481122
X01127907Y-00481122
X0114198Y-00486718
X01140928Y-00503842
X011366Y-0051542
X01115207Y-00514518
X0110261Y-0051433
X01087628Y-00514518
X01127907Y-00537622
X011646Y-0050742
X0119974Y-00495838
X012026Y-0047042
X01211272Y-00472874
X012296Y-0047642
X012436Y-0047142
X012516Y-0047542
X012526Y-0048542
X012646Y-0048842
X01252142Y-0043178
X0118364Y-00449326
X0118008Y-00471278
X011623Y-0041019
X0115214Y-0038352
X0114198Y-0038606
X01145286Y-00361188
X0116992Y-0037844
X011036Y-0036042
X01155188Y-00242423
X0119516Y-0023947
X0119524Y-00226181
Y-00212892
X01192414Y-00201031
X0119786Y-0019175
X012226Y-0016942
Y-0015792
X01236008Y-0016508
X01241342
X01249738Y-0016381
X01255072
X012496Y-0017342
X012476Y-0023542
X01239008Y-00227438
X01225235Y-00227353
X0124739Y-0025525
X0124612Y-00263251
X0119524Y-00268773
X01359714Y-00280522
X0137312
X0136042Y-002489
Y-0023874
X0135915Y-0022985
X013756Y-0022842
X013766Y-0021542
X0130581Y-0015365
X0104792Y-00190417
X01037353Y-00190984
X01032745Y-00177272
X01027413Y-00177416
X01011803Y-00178689
X01008025Y-001888
X00984982Y-00304232
X0097815Y-00300736
X0098638Y-00313686
X00991616Y-00312669
X0102252Y-00329799
X01023494Y-00350373
X01043428Y-00348976
X01014222Y-00370332
X01008755Y-00383861
X01007867Y-00395973
X00969657Y-00395659
X00951004Y-0039117
X00949866Y-00382973
X0094132Y-00380038
X00940765Y-00372042
X00930765
Y-00358754
X00940765
X00957068Y-00349992
X0097307Y-0035431
X0098577Y-0035939
X0099085Y-0036828
X00982591Y-00376706
X00980102Y-00421741
X00995803Y-00438741
X009972Y-0044829
X00961386Y-00438638
X00952983Y-00439633
X00948258Y-0045376
X00931332Y-00433984
X00914142Y-00421741
X00907792Y-00409428
X00917582Y-00389352
Y-00376352
X00895824Y-00382851
X00890978Y-00369851
X00897632Y-00339578
X0091092Y-00346642
X0093164Y-00333216
X0094084
X009206Y-0028642
X009046Y-0027042
X0093472Y-00261112
X00886839Y-00248686
X00884693Y-00240599
X008876Y-00232938
X008846Y-0029142
X00871978Y-0035177
X00859582Y-00363352
Y-00376352
Y-00389351
X00832978Y-00382851
Y-00395852
X00817924Y-00402322
X00806192Y-0040943
X00797128Y-00419512
X0077622Y-0041317
X00775712Y-00428957
Y-00434291
X00768624Y-00465208
X0078384Y-00465232
X0079908
X00811272Y-00464546
X00807319Y-00445494
X00815955
X0083083Y-00436352
X00847048Y-00446512
X00848102Y-00421741
X00865882Y-0043559
X00873502Y-00444734
X00885186Y-00443464
X00896767Y-00438741
X0094132Y-00402242
X0105102Y-00396775
X01050036Y-00293116
X00837688Y-00338308
Y-00343642
X0082956Y-00350501
X008194Y-00354438
X00806112Y-00377042
X00792823
X0081051Y-00388092
X00758948Y-00378186
X00755011Y-00381958
X00780064Y-00349631
X00784402Y-00343388
X00755326Y-00311003
X00731266Y-00308356
X00733421Y-00280877
X007256Y-00271887
X00733552Y-00262636
X00740918Y-00263398
X00750824Y-0028067
X00712112Y-00282215
X0069087Y-00281168
X00692912Y-00272796
X00688495Y-00267561
X0068224Y-0027334
X00677083Y-00276635
X00673003Y-00272548
X00668147Y-00274754
X00668528Y-00258318
X00673735Y-00257161
X00669671Y-00247132
X00697484Y-00251069
X00701294Y-00243459
X00696511Y-00221277
X00719836Y-0020025
X00726938Y-00192288
X00702437Y-00179981
X00753872Y-0018161
X00753618Y-0017526
X00764794Y-00164592
X00743611Y-00159867
X00897382Y-00160528
X00655447Y-00290001
X006796Y-00321437
X0068224Y-0053211
X0069367Y-0053465
X0097688Y-0053338
X00976819Y-0051941
X0097561Y-0050925
X0063398Y-00524618
X0062509Y-0053973
X00610489Y-0053211
X00621786Y-00505694
X006246Y-0045042
X005908Y-00414
X0057556Y-0040511
X0055118Y-00381508
X0054356Y-00377698
X00545327Y-00360712
X00551937Y-00360929
X00553593Y-00353199
X00548261Y-0035306
X00536199Y-00356797
X00530207Y-00355981
X00534039Y-00335407
X00538988Y-00332994
X00577596Y-00316484
X00583406Y-00313123
X005842Y-00307848
X00629412Y-00309626
X00630101Y-00302587
X00638243Y-00306524
X00642662Y-00309511
X00646251Y-00316863
X0065151Y-00318897
X00648462Y-00298831
X00638864Y-00274557
X00638354Y-00269248
X00638937Y-00263901
X00645795Y-00239469
X00648208Y-00230632
X00644101Y-00191175
X00647827Y-00187359
X00569468Y-00235966
X00429895Y-00236041
X00423164Y-00226822
X0040767Y-0022606
X00413512Y-00235966
X00459232Y-00272288
X00458343Y-00289814
X0047244Y-00359156
X00523748Y-0037719
X00414274Y-00424434
X00404876Y-00428498
X00413258Y-00484886
X00413512Y-00498094
X00316992Y-00523494
X00280936Y-00509474
X0030607Y-00463042
X00320208Y-00422656
X00329603Y-00346561
X00339852Y-00341898
X00337838Y-00336101
X00334196Y-00332164
X00369062Y-00335534
Y-00326676
X00384048Y-003175
X00385772Y-00303784
X00336296Y-0027686
X00332232Y-00272542
X003175Y-00256667
X0031877Y-00248793
X0030926Y-0025208
X0030934Y-0023876
X0030988Y-00228346
Y-0021844
X00309118Y-00209042
X00311254Y-00199348
X00310634Y-00192008
X0030734Y-0018542
X00310515Y-00179371
X00312767Y-00168536
X00312433Y-00158665
X00316484Y-00155194
X0030734Y-00153797
X00306451Y-00162602
X00297942Y-00175514
X0027686Y-0018161
X00276925Y-00195295
X00274773Y-00206756
X00273271Y-00217773
X00277394Y-00222986
X00276352Y-00244338
X00276596Y-00252212
X00269474Y-00263398
X00267452Y-00268742
X00262341Y-00242858
X00259649Y-00228257
X00263144Y-00212763
X00264359Y-00204276
X00264033Y-00198952
X00260009Y-00179745
X00270157Y-00170533
X0027051Y-0016002
X0027686Y-00156591
Y-00166116
X00259588Y-0016002
X0028956Y-00203708
X003175Y-00222186
X00353314Y-00259334
X00436118Y-0017399
X00445107Y-00163585
X00449834Y-00166243
X00455676Y-00169672
X00460502Y-00179832
X00245Y-00175
X00244221Y-00185
X00235
X00235Y-00195
X00244755Y-00195
X00225Y-00195
X00215
Y-00185
Y-00175
Y-00165
X00225Y-00165
X00225Y-00175
Y-00185
X00225Y-00215
X00215Y-00225
Y-00235
Y-00245
X0022141Y-0025781
X00229616Y-00259334
X0023749Y-0025908
X00236728Y-00268986
X00242453Y-00268361
X00228854Y-00268478
X00214762Y-00270289
X0021041Y-00273633
X00205847Y-00270871
X00199644Y-00265938
X0020066Y-0025781
X00209972Y-00260487
X00205Y-00235
Y-00225
X00204906Y-0021516
X00195Y-00215
X00185
X00175
X00165
X00155
Y-00205
Y-00195
Y-00185
Y-00175
Y-00165
X00165
Y-00175
Y-00185
X00175Y-00185
Y-00195
X00165
Y-00205
X00175
X00185
X00195
Y-00195
X00185Y-00195
X00185Y-00185
X00175Y-00175
X00175Y-00165
X00175Y-00155
X00165
X00155Y-00155
X00145Y-00155
Y-00165
Y-00175
X00135Y-00175
Y-00165
Y-00155
X00115Y-00155
X00105
Y-00165
X00095
X00085
X00075
Y-00155
X00085
X00095
Y-00175
X00085
Y-00185
X00095
Y-00195
X00085
X00075
Y-00185
Y-00175
X00065024Y-00175024
X00065Y-00185
X00055088Y-00184912
X00045Y-00185
X00035
X00025
X00015113Y-00185
Y-00175
X00025
X00035
Y-00195
X00045
X00055
X00065
Y-00205
X00075
X00085
X00095
X00105
X00115
Y-00195
X00105
Y-00185
X00115Y-00185
Y-00175
X00115Y-00165
X00105Y-00175
Y-00215
X00095
X00085
X00075
Y-00225
X00075Y-00235
X00065Y-00235
Y-00225
X00055
Y-00215
X00045
X00035
X00025
X00015Y-00215
X00015Y-00225
X00025
Y-00235
X00015
X00015748Y-00244602
X00025Y-00245
X00035Y-00235
X00045
X00055Y-00235
X00044853Y-00225
X00035
X00035306Y-00204724
X00045Y-00205
X00055
X00065Y-00215
X00085Y-00225
X00095
Y-00235
X00085
X00095Y-00245
Y-00255
X00105Y-00245
Y-00235
Y-00225
X00115
Y-00235
Y-00245
X00117094Y-00259842
X00113063Y-00263335
X00108126Y-00265356
X0010922Y-00271018
X00124948Y-00272086
X00134112Y-00282194
X0013185Y-002987
X0013335Y-00306574
X0012446Y-0030226
X00117237Y-00303705
X0010922Y-003048
Y-0032131
X00107569Y-0032893
X00110109Y-00334212
X0011557Y-0033274
X0012319Y-0033401
X00136652Y-0032639
X0012573Y-0031369
X0011684Y-003175
X0014224Y-00300863
X0014859Y-003048
X0015494Y-00308737
X00162814Y-00309778
X00169418Y-00307594
X00175089Y-0031122
X00181122Y-00305582
X0018669Y-0031115
X00189659Y-00315581
X00195072Y-00313041
X0020574Y-0030861
X00213916Y-00307594
X0021079Y-0030226
X0020066
X00192786Y-0028702
X0018473Y-00273655
X00180158Y-00270908
X00174752Y-00272542
X0016637Y-00271526
X00164084Y-0028067
X00162306Y-00260494
X0017018Y-00260604
X00176853Y-00261774
X00175Y-00244221
Y-00235
X00185
X00185184Y-00244628
X00195Y-00235
Y-00225
X00185
X00175
X00165
X00155
Y-00235
Y-00245
X00165
Y-00235
X00145
Y-00245
X00135
Y-00235
Y-00225
X00145
Y-00215
X00135
Y-00205
X00145
Y-00195
X00135
X00135Y-00185
X00145
X00115Y-00215
X0013589Y-0025654
X00143649Y-00259114
X0014996Y-00260487
X00152472Y-00270129
X0014097Y-0026797
X00081506Y-00270764
X00081026Y-00265176
X00061976Y-00271272
X00051181Y-00270378
X00044958Y-00261874
X0003556Y-00271018
X00036322Y-00277622
X00025908Y-0029083
X00004572Y-0029464
X00005334Y-00308864
X00005842Y-00320532
X00024638Y-0032258
X00026477Y-00315976
X00026416Y-00338074
X00046736Y-00343662
X00005842Y-00345743
X-00026924Y-0036322
X-0002032Y-0037719
X00033274Y-00414528
X0003302Y-00428752
X0006223Y-00437896
X00061468Y-00444119
X00056134Y-00444754
X00050292Y-00450596
X00048058Y-00489732
X00043434Y-00493014
X00053594
X00060071Y-00493141
X00059008Y-00501015
X00023822Y-00501142
X00026924Y-00493014
X00004826Y-00498729
X-00010668Y-00498602
X00075565Y-00522859
X00094742Y-00450342
X00123001Y-00428974
X00124496Y-00422752
X00131317Y-00422403
X00129594Y-00430585
X00150114Y-00430022
X0012954Y-00382016
X00113792Y-00369316
X0010541Y-003683
X00136144Y-00349758
X00148336Y-00350266
X00159004
X0017272
X00185674Y-0035179
X00186175Y-00325913
X00167386Y-00333502
X0021336Y-00323088
X00237736Y-00323982
X00244527Y-00328504
X00256921Y-00334264
X00254312Y-00344678
X00230886Y-00339344
X00227584Y-00359918
X0022225Y-00360045
X00216154Y-00361823
X00231394Y-00363651
X00197866Y-00390826
X0022987Y-0030226
X00234839Y-0030449
X00239398Y-00301722
X00243459Y-00305181
X00235Y-00245
X00245Y-00225
X00257455Y-00233118
X00205Y-00205
X00195Y-00175
X00185791Y-00164209
X00185Y-00155
X00195
X00205Y-00155
X00065Y-00165
X00045Y-00155
X00025Y-00195
X00015
Y-00205
X00025
X00004586Y-00235204
X00015748Y-00256286
X-00004826Y-00258826
X0000127Y-00271526
X-00022606Y-00267208
X-00046482Y-00287782
X-00084074Y-00265938
X-00097282Y-00302022
X-00110236Y-00301498
X-00118872Y-00295402
X-00135128Y-00280162
X-00124714Y-00238887
X-00117094
X-00103586Y-00197912
X-00084328Y-00189676
X-00092964Y-00178816
X-0007944Y-00217232
X-00065278Y-0022606
X-0003429Y-00211328
X-000175Y-00193802
Y-00175
X-000125Y-0017
X-00014732Y-00162814
X-00014831Y-0015471
X00075Y-00245
X00073406Y-0031496
X-00116332Y-00347726
X-00116078Y-00357886
X00131064Y-00481838
X00166751Y-00526034
X00178435Y-00523494
X00183495Y-00530479
X00173772Y-00536448
X00197568Y-00536746
X00191516Y-00547878
X00228854Y-00485394
X00246126Y-00487934
X-00164054Y-00427899
Y-00421803
X-001638Y-00415453
X-00164054Y-00409103
Y-00402753
X-00162784Y-00383195
Y-00377099
X-0016253Y-00370749
Y-00364653
Y-00358557
X-00162276Y-00352207
X-0016253Y-00345603
X-00162784Y-00339507
X-00164054Y-00326045
Y-00319949
X-001638Y-00313599
X-00164054Y-00306741
Y-00300645
X-001638Y-00294295
X-00244202Y-00294794
Y-0030089
X-00244456Y-0030724
X-00244202Y-00313844
Y-0031994
X-00244456Y-0032629
X-0024471Y-00339244
Y-0034534
X-00244964Y-0035169
X-0024471Y-00358294
Y-0036439
X-00244964Y-0037074
X-0024471Y-00377344
Y-0038344
X-00244964Y-0038979
Y-0039614
Y-00402236
X-00245218Y-00408586
X-00244964Y-00441098
Y-00447194
X-00245218Y-00453544
Y-00459894
Y-0046599
X-00245472Y-0047234
X-00245218Y-00478944
Y-0048504
X-00245472Y-0049139
X-00245726Y-0050409
X-00245472Y-00510694
X-00245364Y-00517144
X-00245218Y-0052314
X-00174498Y-00042672
X-0017846Y-0003308
X-00178482Y-00027746
X-00178422Y-00017894
X-00174244Y-000127
X-00172974Y-00023114
X-00090297Y-00073914
X-0004789Y-00041264
X-00042683Y-00036057
X-00038619Y-00031993
X-00033158Y-00026532
X-00027062Y-00020436
X0000508Y-000254
X00015Y-00025
X00025
X00035
X00045
X00055
Y-00035
X00045
X00035
Y-00045
Y-00055
X00045
X00055
Y-00045
X00045
X00065
Y-00055
Y-00065
X00055
X00045
X00035
Y-00075
Y-00085
X00055
Y-00095
Y-00105
X00055Y-00115
X00065
X00075
X00085
X00095
Y-00105
X00095Y-00095
X00095Y-00085
Y-00075
X00085
X00075
Y-00065
Y-00055
Y-00045
Y-00035
Y-00025
Y-00015
X00064586
X00055
X00045
X0003556Y-00015494
X00025Y-00015
X00015
X00015494Y-00004572
X-00006372Y00000254
X-0001Y-0005
X-00007112Y-00084074
X-00009906Y-0010795
X-00005364Y-00114544
X00015Y-00115
Y-00095
Y-00075
X00025Y-00045
Y-00035
X00065
Y-00025
Y-00005
X00055334Y-00005334
X00085414Y-0001524
X00095Y-00015
Y-00025
X00085
Y-00035
X00095
X00105
X00115Y-00035
Y-00045
X00105Y-00045
Y-00055
X00114935
Y-00065
X00105
X00095
X00085
Y-00055
X00095
Y-00045
X00085
X00105Y-00025
Y-00015
X00115414
Y-00005
X00135Y-00005
Y-00015
Y-00025
X00145
Y-00035
X00135
Y-00045
Y-00055
X00145
Y-00045
X00155
Y-00055
Y-00065
Y-00075
Y-00085
Y-00095
Y-00105
Y-00115
X00135
X00145Y-00105
X00135Y-00095
X00145Y-00085
Y-00075
X00135
Y-00065
X00145
X00165Y-00065
X00175
X00175Y-00075
X00185Y-00075
X00195
Y-00085
X00185
Y-00095
X00195
Y-00105
X00185Y-00105
Y-00115
X00195
X00175
Y-00105
Y-00095
Y-00085
Y-00055
Y-00045
Y-00035
X00185
X00195
Y-00025
X00205
Y-00035
X00215
X00214884Y-000254
X00215Y-00045
X00225
X00225Y-00035
X00235
Y-00045
Y-00075
Y-00095
Y-00115
X00215Y-00105
Y-00085
Y-00075
X00205
Y-00065
Y-00055
Y-00045
X00195
Y-00055
X00185
Y-00045
Y-00065
X00195
X00215Y-00055
X00255444Y-0006342
X00245Y-00015
X00235Y-00015
X00234696Y-0000508
X00225Y-00005
X00227512Y00005969
X00236474
X00218886Y00007747
X00197656Y00009458
X00194401Y00004452
X0019Y00008411
X0018597Y00004731
X00180048Y00009944
X00164484Y00009586
X00167115Y00018923
X00156701
X00152694Y00006113
X00145Y00003229
X00155Y-00005
Y-00015
X00165
X00175
X00185
X00195
X00183991Y-00006001
X00175Y-00005
X00165Y-00025
Y-00035
X00155
Y-00025
X00145Y-00015
X00115414Y-00025045
X00095Y-00005
X001025Y0001
X00097028Y00018034
X00091186Y0002
X00083312Y00018542
X00085Y00025
X000775
X000725Y000225
X00065278Y00026416
X00065Y000575
X0007112Y0005588
X000762Y0005969
X0008255Y0005461
X0009398Y0005969
X001016Y0005588
X0010668Y0005842
X0011176Y0005588
X00123698Y00051308
X0013081Y0006096
X00138684Y00061722
X00145034Y00061468
X00153924Y00060706
X00161036
X00164881Y00065878
X00169004Y00086962
X00218948Y00067056
X00228346Y0006731
X00235712Y00066548
X00243586Y00067056
X00135344Y00018017
X00118364Y00021844
X001125Y0002
X00096386Y00025908
X00081534Y00009144
X00065Y-00075
Y-00085
Y-00095
X00075
Y-00085
X00055Y-00075
X00035Y-00105
Y-00145
X00025
X00055Y-00135
X00075
Y-00145
X00085
X00095
Y-00135
X00085
X00105
Y-00145
X00115
Y-00135
X00135Y-00135
Y-00145
X00145Y-00145
Y-00135
X00155
Y-00145
X00165
X00175
Y-00135
X00165
X00195Y-00135
X00205Y-00135
X00225Y-00145
X00244856Y-0014478
X00114935Y-00115
Y-00105
Y-00085
Y-00075
X00105
X00165Y-00055
X-00030988Y-00096266
X-00024638Y-00118364
X-00022098Y-00124206
X-00023241Y-00134112
X-0001
Y-0014
X00008128Y00042418
X00259842Y0000381
X00267208Y00002032
X0027559Y00005969
X00290068Y00006858
X00272796Y-00016764
X00266954Y-00015475
X00260096Y-0001397
X00258826Y-00021844
X00266699Y-0002921
X00267716Y-00037084
X00275844Y-00039116
X00275082Y-00047578
X00266446Y-00047498
X00276Y-00061194
X00275328Y-00069068
X00272198Y-00073533
X00264324Y-00074422
X0026Y-0007
Y-00090568
X00272142Y-00094142
X00278988Y-00091671
X00276396Y-00083644
X00275984Y-00109
X00271Y-00106
X0026035Y-0010922
X0028067Y-00122428
X00279953Y-00127971
X00278874Y-00138328
X0027491Y-00134759
X00275705Y-00143383
X0030861Y-00140843
X00311912Y-00134874
X0031115Y-00127
X0030988Y-0011938
X00297434Y-00116548
X00310642Y-0009652
X00314904Y-00092528
X00315214Y-00080772
X00309909Y-00082795
X003048Y-00084328
X00309129Y-0006052
X00315781Y-00040454
X00312025Y-00036667
X00313436Y-0002286
X00313123Y-00017535
X00279186Y-00028688
X00336388Y-00042199
X00341043Y-00046853
X00406908Y-00045974
X0042926Y-00083058
X00430403Y-00089408
X00454914Y-00078994
X00461518Y-00076962
X0047244Y-00061722
X00491998Y-0004191
X00504028Y-00032808
X00509524Y-00034036
X00516507Y-00026291
X00541254Y-00003536
X00536194Y0000254
X00548386Y00000762
X0055372Y-00000508
X00551942Y00012065
X00586176Y-0001397
X0060833Y-00002032
X00626872Y00015367
X00645668
X0065405Y00014224
X00654558Y-00031877
X00645414Y-00029014
X00634228Y-00030998
X00633222Y-00062288
X00638556
X00608076Y-00067056
X00570738Y-00051054
X005461Y-00053594
X00545084Y-00079248
X0051Y-0008925
X00499
Y-0010025
X0051
Y-0011125
X00499
Y-0012225
X0051
X00470408Y-00020828
X00488442Y00075692
X00494792Y0007239
X0030988Y00070612
X00659511Y-00034417
X00659384Y-00070358
X00676Y-00079089
X00684276Y-00079026
X00681363Y-00084447
X00691642Y-00068072
X00699516Y-0006858
X0070739Y-0007493
X00715264Y-00077724
X00719328Y-00088011
X00726455Y-00085743
X00731774Y-00085344
X00734733Y-00078867
X00727456Y-00068199
X00758698Y-00066802
X00757174Y-00072136
X00754888Y-00090932
X0075438Y-00120002
X00759714Y-00125984
X00780161Y-00127381
X00787772Y-00147889
X00855472Y-00151638
X00839724Y-00068326
X0084963Y-00054102
X00857504Y-00052324
X00866902Y-00052578
X00867918Y-00062484
X0089281Y-00061722
Y-00052578
X0089662Y-00043942
X00911098Y-00048641
X00906018Y-00082296
X0093726Y-0008128
X00966524Y-00118901
X010334Y-00121539
X01035274Y-00069856
X01024518Y-00074405
X01011811Y-00074037
X009972Y-0007237
X01013601Y-00058964
X0101252Y-00041919
X01021934Y-00042505
X00838718Y-00041666
X008136Y-0003542
X007936Y-0003442
X0077978Y-00051054
X0076962Y-00051308
X008046Y-0006342
X00763016Y-00001524
X00754126Y00025654
X0077724Y00025781
X00728218Y00007493
X00710438Y-00002032
X00728726Y-00021336
X00716055Y-00097311
X00704342Y-00101346
X00706882Y-00089916
X00670951Y-00103261
X00664874Y-00100646
X00727626Y-00118688
X00736854Y-00118237
X00729996Y-00126492
X00725021Y-00128415
X00719965Y-00134495
X00837438Y00008128
X00875284Y00013208
X00794512Y00084074
X0105265Y00004084
X01064002Y00006624
X01072766Y-00019643
X01073146Y-0003808
X01098073Y-00035667
X01110251
X01116753Y-00041919
X0110896Y-00057779
X01098073Y-00056802
X0109976Y-00071735
X01109595Y-00073578
X01123373Y-00073475
X0112685Y-00063182
X0113335
X0113985
X0114635
X0116585
X0119024Y-00066962
Y-00044758
X01192098Y-00037689
X0119124Y-0003046
X01192098Y-0002069
X0120048Y00001242
X01209252Y00001158
X01209243Y00014531
X0120048
X011906Y0001358
X01183528Y00013881
X011826Y0000058
X01171663Y00010594
X01157944Y00015083
X01152433Y00016232
X01135618Y00014486
X01121132Y00004744
X01107656Y00005383
X010996Y0001058
X0109474Y00021282
X01131374Y-00005712
X01145663Y-00006182
X01153537Y-0000633
X01158864Y-00006061
X011536Y-0002342
X01144266Y-00023602
X0115087Y-0003173
X01154553Y-0010031
X01159887
X01190346Y-0010287
X0119861Y-00112624
X01206325Y-00095579
X01216803Y-00084677
X01224502Y-00084905
X01230767Y-00079632
X01239403Y-00088268
X01240278Y-00100967
X012451Y-0012042
X012601
Y-0013542
X012526Y-0014292
X012451
X012376Y-0013542
Y-0012792
X01212682Y-00129429
X012151Y-0015042
X0128549Y-0013587
X0128422Y-0012444
X0128168Y-0011428
X01272282Y-0010539
Y-00097828
X0126644Y-000838
X0125628
X013036Y-0009642
X0129692Y-00120758
X0132359Y-0012952
X013616Y-0008642
X013936Y-0003542
X013926Y-0000742
X012296Y-0000842
X01219606Y-00014158
X01224721Y-0002196
Y-0003896
X01225542Y-0004646
X012306Y0001758
X0122572Y00043833
Y00057122
X0121572
X01209243Y00043833
X012906Y0008258
X01052572Y-00018776
X01089382Y-00070042
X01095849Y-00087959
X01101725Y-00124079
T02
X0026547Y-0043455
X0027647
Y-0042355
Y-0041255
Y-0040155
X0026547
Y-0041255
Y-0042355
X0025447
Y-0041255
Y-0040155
X0024347
Y-0041255
Y-0042355
Y-0043455
X0025447
T03
X-00236165Y-00675185
X-00242281Y-0066042
X-00236165Y-00645655
X-002214Y-00639539
X-00206635Y-00645655
X-00200519Y-0066042
X-00206635Y-00675185
X-002214Y-00681301
X-00145034Y-00655828
X-00114808Y-00657352
X-00095504Y-00631698
X00034035Y-00579185
X000488Y-00585301
X00063565Y-00579185
X00069681Y-0056442
X00063565Y-00549655
X00034035
X00027919Y-0056442
X0018669Y-0056896
X0021209Y-0056642
X00287528Y-00598932
X0030226Y-00604012
X00302006Y-00636016
X00272796Y-00633476
X00271889Y-00621175
X00324104Y-00624967
X0035052Y-00626999
X00350788Y-0063436
X00336296Y-005969
X00343154Y-0055626
X00321764Y-00550364
X00394835Y-00643655
X00388719Y-0065842
X00394835Y-00673185
X004096Y-00679301
X00424365Y-00673185
X00430481Y-0065842
X00424365Y-00643655
X004096Y-00637539
X00452374Y-00649732
X00469138Y-00636778
X0048006Y-0063754
X00490982Y-0063881
X00527304Y-00674878
X01096264Y-0057277
X01096256Y-00563136
X01089914Y-00559308
X0108966Y-00549148
X01109745Y-00554753
X01117092Y-00554228
X01367835Y-00645655
X013826Y-00639539
X01397365Y-00645655
X01403481Y-0066042
X01397365Y-00675185
X013826Y-00681301
X01367835Y-00675185
X01361719Y-0066042
X014116Y-0051742
X012856Y-0051342
X012786Y-0040642
X013006Y-0035242
X013686Y-0035342
X014096Y-0035042
X01346576Y-00300774
X0132486Y-0028954
X01302Y-0024763
X0129771Y-0019429
X01295641Y-00180312
X0127406Y-0020191
X0124866Y-0022604
X012296Y-0021542
X013716Y-0016242
X014056Y-0015342
X01168908Y-0039878
X0115697Y-00405892
X01143Y-0040386
X01149858Y-0039624
X01133094Y-00397002
X0116713Y-00422148
X01057365Y-00425655
X01063481Y-0044042
X01057365Y-00455185
X01099386Y-00331658
X010386Y-00282558
X0100711Y-0027242
X00948309Y-0027042
X009446
X009376Y-0026942
X0091211Y-00245373
X008946Y-0025842
X00895556Y-00295464
X00838495Y-00302483
X008116Y-0030242
X00790496Y-00302483
X007906Y-0024842
X007796
X007846Y-0023842
X00786384Y-00203962
X00796534Y-0020374
X00808218
X00879514Y-00199068
X008766Y-00214054
X009746Y-0021742
X009866
X00999448Y-00157168
X01027835Y-00425655
X01021719Y-0044042
X01027835Y-00455185
X010426Y-00461301
Y-00419539
X00742188Y-00327152
X00704179Y-00325791
X00701294Y-0027813
X00742442
X00676021Y-00349123
X0051181Y-003048
X00480346Y-0027105
X00482196Y-00244706
X00439076Y-00207609
X00434086Y-00183388
X00429154Y-0015967
X00410154Y-00256921
X00408432Y-00283464
X00365252
X00364236Y-0035941
X0036363Y-0039116
X0033274Y-00387985
X00333804Y-00403145
X00338484Y-00408833
X00319688Y-00413814
X00314644Y-00419183
X0031369Y-0043815
X003175Y-0044958
X0031877Y-00462558
X0031623Y-0047244
X00312801Y-00502427
X00281348Y-0049966
X00282194Y-0048514
X0028067Y-0047625
X00274615Y-00510079
X00326209Y-00530679
X00418846Y-0053975
X00432816Y-00532638
X00427228Y-00519938
X00436118Y-00517144
X0043561Y-0050165
X00465836Y-00485902
X004826Y-0048641
X00494284Y-00501396
Y-00517652
X00501396Y-00533146
X00501142Y-00545084
X00489458Y-00545465
X00465836
X00529336Y-00528955
X0054737Y-0052832
X00477365Y-00455185
X00483481Y-0044042
X00477365Y-00425655
X004626Y-00419539
X00447835Y-00425655
X00441719Y-0044042
X00447835Y-00455185
X004626Y-00461301
X00454406Y-00398272
X00465074Y-00380746
X00496316
X00495808Y-00399034
X00505714
X00436281Y-00339253
X00428916Y-00339345
X004191Y-0034163
X0041021
X00409467Y-00334029
X00332463Y-00360699
X00315479Y-00365379
X00307449Y-00352951
X00315245Y-00390525
X0026289Y-0036322
X00249174Y-0036068
X0022733Y-0041021
X00228854Y-0043561
X00207391Y-0046228
X0023241Y-00495935
X00251559
X00255778Y-00485648
X0025019Y-0047879
X0025654Y-0053086
X0024638Y-005334
X00158115Y-00514223
X0013462Y-0049657
X0012954Y-0045466
X0014797Y-0045404
X0014126Y-00430581
X00156972Y-00429514
X00175006Y-00393192
X00174752Y-00381762
X0014097Y-00383286
X00113538Y-00388366
X00114046Y-0040005
X00125222Y-00402082
X00087056Y-00405513
X00085545Y-00414211
X00095007Y-00413527
X0008763Y-0035941
X0007493Y-0035306
X0002816Y-00351615
X0001016Y-0036703
X-00004695Y-00361742
X-0000381Y-0038989
X-0002921Y-0039751
X-0002667Y-0042291
X-000508Y-0041783
X-00046155Y-00408505
X-0005334Y-00440011
X-0007497Y-0043557
X-00114235Y-00414085
X-00129Y-00420201
Y-00378439
X-00114235Y-00384555
X-00108119Y-0039932
X-0003175Y-0046228
X0002167Y-004826
X00058261Y-00484251
X00059218Y-00455894
X000488Y-00543539
X00006356Y-00263058
X-00014248Y-00184936
X-00033782Y-00164338
X-00065532Y-00205486
X-0021717Y-00205994
X-00225552
X-0025Y-00275
X-00249936Y-0028321
X-00249682Y-00332486
X-0024638Y-0041529
X-00246527Y-00428703
X-00249174Y-00497586
X-0015367Y-0049784
X-00143765Y-00414085
X-00149881Y-0039932
X-0016256Y-0039624
X-00160274Y-00389128
X-00143765Y-00384555
X-0015875Y-0033274
X-0016002Y-00284734
X-0016049Y-0027549
X-00167386Y-00076962
X-00175514Y-00072898
X-00176002Y-00063012
X-00174498Y-00052832
X-00166878Y-00053086
X-00148844Y-00056388
X-00139446Y-00056642
X-00138938Y-00012446
X-001651Y-00001524
X-00174244
X-00168148Y00008382
X-0015748
X-00141732Y00033782
X-00206635Y00044815
X-00200519Y0005958
X-00206635Y00074345
X-002214Y00080461
X-00236165Y00074345
X-00242281Y0005958
X-00236165Y00044815
X-002214Y00038699
X-00123698Y00043434
X-0012319Y00056134
X-00127762Y-00012446
X-0013081Y-00049784
X-00117348Y-00079248
X-00108966
X-00108712Y-00071882
X-00029718Y-00064008
X-00022098Y-00063754
X-00009144Y-00065532
X-00031341Y-00150368
X-00072898Y-00133858
X-00083566Y0000949
X0001524Y00034544
X00015748Y00055245
X00007112Y00055626
X00020574Y000635
X00022098Y000762
X0001511Y00073871
X00057658Y00074422
X000508Y00063246
X00057331Y00036903
X0005Y0001
X0034035Y00043297
X00369824Y0007112
X0040259Y00041656
X00441719Y0004958
X00447835Y00034815
X004626Y00028699
X00477365Y00034815
X00483481Y0004958
X00477365Y00064345
X004626Y00070461
X00447835Y00064345
X00436372Y-00022098
X00436118Y-00063754
X00439293Y-00093452
X00446786Y-00093726
X00460248Y-00096012
Y-00090424
X0047498Y-00147574
X00498348Y-00136652
X0051034Y-00136452
X004318Y-00139446
X00547624Y-00089408
X00582332Y-00091812
X00583669Y-0010295
X00583135Y-00079925
X00725492Y-00056528
X0071183Y-00140476
X01040408Y-00062417
X010426Y00028699
X01027835Y00034815
X01021719Y0004958
X01027835Y00064345
X010426Y00070461
X01057365Y00064345
X01063481Y0004958
X01057365Y00034815
X010734Y0002278
X011156Y0001358
X011526Y0005708
X0106832Y-0006094
X0128194Y-00148335
X0129184Y-0014603
X01302Y-0014476
X013586Y-0013242
X013506Y-0011842
T04
X-00171704Y-00606044
X-00159258Y-00550926
X-00104394
X-00090678Y-0059055
X00525526Y-00300228
X00540766
X00547116Y-00290068
X00546862Y-0026924
X00548365Y-0024629
X00478935Y-00215791
X00480822Y-00196215
X00460756Y-00139446
X00452628Y00010668
X00437388
T06
X-0010487Y-0004951
Y-0001451
T08
X012549Y-0002932
Y-0000392
Y0002148
Y0004688
X012803Y0003418
Y0000878
Y-0001662
Y-0004202
T09
X007051Y-0059942
X007305
X007559
Y-0057402
X007305
X007051
X007124Y-0049122
X00687
X006616
X007378
X007632
X007886
X00814
X008394
X008902
X009156
X00941
X009664
X009918
X010172
X010186Y-0026312
X01044
Y-0023772
Y-0021232
X010186
Y-0023772
X009464Y-0032002
X00921
X008956
X008702
X008448
X008194
X00794
X007686
X0061112Y-0043686
X0058572
X0056032
X0053492
X-0005635Y-0045729
Y-0048269
Y-0050809
Y-0053349
X-0008175
Y-0050809
Y-0048269
Y-0045729
X0057016Y-0000862
X0059556
X0062096
X0064636
X0067176
X0069716
X0072256
X0074796
X0077336
X0079876
X008394
X008648
X008902
X009156
X00941
X009664
X009918
X010172
X009464Y-0009142
X00921
X008956
X008702
X008448
X008194
X00794
X007686
T10
X005113Y0003688
X005367
X005621
Y0006228
X005875
X006129
Y0003688
X006383
Y0006228
X005875Y0003688
X005367Y0006228
X005113
X006637
X006891
X007145
X007399
X007653
X007907
X008161
Y0003688
X008415
X008669
Y0006228
X008923
X009177
X009431
X009685
X009939
Y0003688
X009685
X009431
X009177
X008923
X008415Y0006228
X007907Y0003688
X007653
X007399
X007145
X006891
X006637
T11
X013928Y-0006082
X013776Y-0003542
X013928Y0004028
X013776Y0006568
T12
X005527Y-0059942
X005781
Y-0057402
X005527
X006035
Y-0059942
X006289
X006543
Y-0057402
X006289
X006797
Y-0059942
X007813
X008067
Y-0057402
X007813
X008321
X008575
X008829
X009083
Y-0059942
X008829
X008575
X008321
T13
X0114Y-0066292
X01175
X0121
X01245
X0128
X01315
T14
X013133Y-0007632
Y0008118
T15
X-002214Y-0066042
X000488Y-0056442
X004096Y-0065842
X013826Y-0066042
X010426Y-0044042
X004626
X-00129Y-0039932
X-002214Y0005958
X004626Y0004958
X010426
T16
X003043Y-003043
X-000543Y000543
T17
X011186Y-00494418
X01323101
T18
X-0019925Y-0005432
Y0000348
X011212Y0003533
X01179
T19
X-0009155Y-0064062
X-002052Y-0025897
T20
X0029254Y-0066663
X0034254
X0025588Y0006796
X0020588
T21
X0018915Y-0064062
X-002052Y-0053967
T22
X0039472Y-0059207
X0049472
X01028731Y-00684636
X01106513Y-00606854
T23
X-0022226Y-0013389
T24
X013438Y-0005472
Y0005958
M30
