G04*
G04 #@! TF.GenerationSoftware,Altium Limited,Altium Designer,24.10.1 (45)*
G04*
G04 Layer_Color=8388736*
%FSLAX44Y44*%
%MOMM*%
G71*
G04*
G04 #@! TF.SameCoordinates,2A984072-E791-4F40-B98E-8DF9AE0FA605*
G04*
G04*
G04 #@! TF.FilePolarity,Negative*
G04*
G01*
G75*
%ADD27R,0.9000X1.0000*%
%ADD28R,1.7000X0.5500*%
%ADD31R,2.1600X1.5200*%
%ADD49R,1.1500X0.3000*%
%ADD50R,1.1500X0.6000*%
%ADD53R,0.7000X1.5000*%
%ADD54R,1.0000X0.8000*%
%ADD55C,0.5300*%
%ADD58R,0.6000X1.1500*%
%ADD60R,0.7600X1.2700*%
%ADD71R,0.3000X1.1500*%
%ADD74R,2.6000X1.6000*%
%ADD75R,4.9532X1.4032*%
%ADD76R,9.2964X2.5908*%
%ADD77R,1.2032X2.9532*%
%ADD78R,0.5532X2.7032*%
%ADD79R,2.7032X2.2032*%
%ADD80R,3.7032X1.8032*%
%ADD81R,2.6032X0.8032*%
%ADD82R,2.7032X0.5532*%
%ADD83R,2.2032X2.7032*%
G04:AMPARAMS|DCode=84|XSize=2.0032mm|YSize=1.3532mm|CornerRadius=0.2454mm|HoleSize=0mm|Usage=FLASHONLY|Rotation=270.000|XOffset=0mm|YOffset=0mm|HoleType=Round|Shape=RoundedRectangle|*
%AMROUNDEDRECTD84*
21,1,2.0032,0.8625,0,0,270.0*
21,1,1.5125,1.3532,0,0,270.0*
1,1,0.4907,-0.4313,-0.7563*
1,1,0.4907,-0.4313,0.7563*
1,1,0.4907,0.4313,0.7563*
1,1,0.4907,0.4313,-0.7563*
%
%ADD84ROUNDEDRECTD84*%
G04:AMPARAMS|DCode=85|XSize=1.0032mm|YSize=1.0032mm|CornerRadius=0.2016mm|HoleSize=0mm|Usage=FLASHONLY|Rotation=180.000|XOffset=0mm|YOffset=0mm|HoleType=Round|Shape=RoundedRectangle|*
%AMROUNDEDRECTD85*
21,1,1.0032,0.6000,0,0,180.0*
21,1,0.6000,1.0032,0,0,180.0*
1,1,0.4032,-0.3000,0.3000*
1,1,0.4032,0.3000,0.3000*
1,1,0.4032,0.3000,-0.3000*
1,1,0.4032,-0.3000,-0.3000*
%
%ADD85ROUNDEDRECTD85*%
G04:AMPARAMS|DCode=86|XSize=1.2032mm|YSize=1.1032mm|CornerRadius=0.2141mm|HoleSize=0mm|Usage=FLASHONLY|Rotation=270.000|XOffset=0mm|YOffset=0mm|HoleType=Round|Shape=RoundedRectangle|*
%AMROUNDEDRECTD86*
21,1,1.2032,0.6750,0,0,270.0*
21,1,0.7750,1.1032,0,0,270.0*
1,1,0.4282,-0.3375,-0.3875*
1,1,0.4282,-0.3375,0.3875*
1,1,0.4282,0.3375,0.3875*
1,1,0.4282,0.3375,-0.3875*
%
%ADD86ROUNDEDRECTD86*%
G04:AMPARAMS|DCode=87|XSize=1.6032mm|YSize=1.2032mm|CornerRadius=0.2266mm|HoleSize=0mm|Usage=FLASHONLY|Rotation=270.000|XOffset=0mm|YOffset=0mm|HoleType=Round|Shape=RoundedRectangle|*
%AMROUNDEDRECTD87*
21,1,1.6032,0.7500,0,0,270.0*
21,1,1.1500,1.2032,0,0,270.0*
1,1,0.4532,-0.3750,-0.5750*
1,1,0.4532,-0.3750,0.5750*
1,1,0.4532,0.3750,0.5750*
1,1,0.4532,0.3750,-0.5750*
%
%ADD87ROUNDEDRECTD87*%
G04:AMPARAMS|DCode=88|XSize=1.6032mm|YSize=1.2032mm|CornerRadius=0.2266mm|HoleSize=0mm|Usage=FLASHONLY|Rotation=0.000|XOffset=0mm|YOffset=0mm|HoleType=Round|Shape=RoundedRectangle|*
%AMROUNDEDRECTD88*
21,1,1.6032,0.7500,0,0,0.0*
21,1,1.1500,1.2032,0,0,0.0*
1,1,0.4532,0.5750,-0.3750*
1,1,0.4532,-0.5750,-0.3750*
1,1,0.4532,-0.5750,0.3750*
1,1,0.4532,0.5750,0.3750*
%
%ADD88ROUNDEDRECTD88*%
%ADD89R,0.9532X1.1532*%
%ADD90O,1.6032X0.6532*%
%ADD91R,2.5632X5.1432*%
%ADD92R,1.1532X0.9532*%
%ADD93R,0.7600X0.7600*%
G04:AMPARAMS|DCode=94|XSize=0.8032mm|YSize=0.8032mm|CornerRadius=0.1616mm|HoleSize=0mm|Usage=FLASHONLY|Rotation=270.000|XOffset=0mm|YOffset=0mm|HoleType=Round|Shape=RoundedRectangle|*
%AMROUNDEDRECTD94*
21,1,0.8032,0.4800,0,0,270.0*
21,1,0.4800,0.8032,0,0,270.0*
1,1,0.3232,-0.2400,-0.2400*
1,1,0.3232,-0.2400,0.2400*
1,1,0.3232,0.2400,0.2400*
1,1,0.3232,0.2400,-0.2400*
%
%ADD94ROUNDEDRECTD94*%
%ADD95R,0.8032X1.7532*%
%ADD96R,1.4032X2.0032*%
%ADD97R,0.7033X2.2032*%
%ADD98R,1.7032X1.2032*%
%ADD99R,0.7600X0.7600*%
%ADD100R,1.7532X0.8032*%
G04:AMPARAMS|DCode=101|XSize=2.1032mm|YSize=1.6032mm|CornerRadius=0mm|HoleSize=0mm|Usage=FLASHONLY|Rotation=135.000|XOffset=0mm|YOffset=0mm|HoleType=Round|Shape=Rectangle|*
%AMROTATEDRECTD101*
4,1,4,1.3104,-0.1768,0.1768,-1.3104,-1.3104,0.1768,-0.1768,1.3104,1.3104,-0.1768,0.0*
%
%ADD101ROTATEDRECTD101*%

%ADD102O,1.1032X0.4532*%
%ADD103R,2.0032X2.0032*%
%ADD104O,0.4532X1.1032*%
G04:AMPARAMS|DCode=105|XSize=1.9032mm|YSize=1.4032mm|CornerRadius=0mm|HoleSize=0mm|Usage=FLASHONLY|Rotation=45.000|XOffset=0mm|YOffset=0mm|HoleType=Round|Shape=Rectangle|*
%AMROTATEDRECTD105*
4,1,4,-0.1768,-1.1690,-1.1690,-0.1768,0.1768,1.1690,1.1690,0.1768,-0.1768,-1.1690,0.0*
%
%ADD105ROTATEDRECTD105*%

%ADD106R,2.2032X2.2032*%
G04:AMPARAMS|DCode=107|XSize=0.8032mm|YSize=0.8032mm|CornerRadius=0.1616mm|HoleSize=0mm|Usage=FLASHONLY|Rotation=180.000|XOffset=0mm|YOffset=0mm|HoleType=Round|Shape=RoundedRectangle|*
%AMROUNDEDRECTD107*
21,1,0.8032,0.4800,0,0,180.0*
21,1,0.4800,0.8032,0,0,180.0*
1,1,0.3232,-0.2400,0.2400*
1,1,0.3232,0.2400,0.2400*
1,1,0.3232,0.2400,-0.2400*
1,1,0.3232,-0.2400,-0.2400*
%
%ADD107ROUNDEDRECTD107*%
%ADD108R,5.9032X1.8032*%
%ADD109R,0.8382X1.4732*%
G04:AMPARAMS|DCode=110|XSize=1.0032mm|YSize=1.0032mm|CornerRadius=0.2016mm|HoleSize=0mm|Usage=FLASHONLY|Rotation=270.000|XOffset=0mm|YOffset=0mm|HoleType=Round|Shape=RoundedRectangle|*
%AMROUNDEDRECTD110*
21,1,1.0032,0.6000,0,0,270.0*
21,1,0.6000,1.0032,0,0,270.0*
1,1,0.4032,-0.3000,-0.3000*
1,1,0.4032,-0.3000,0.3000*
1,1,0.4032,0.3000,0.3000*
1,1,0.4032,0.3000,-0.3000*
%
%ADD110ROUNDEDRECTD110*%
%ADD111R,2.0032X1.4032*%
%ADD112C,0.2032*%
%ADD113C,0.6782*%
%ADD114C,0.5782*%
G04:AMPARAMS|DCode=115|XSize=6.0032mm|YSize=2.7032mm|CornerRadius=1.3516mm|HoleSize=0mm|Usage=FLASHONLY|Rotation=0.000|XOffset=0mm|YOffset=0mm|HoleType=Round|Shape=RoundedRectangle|*
%AMROUNDEDRECTD115*
21,1,6.0032,0.0000,0,0,0.0*
21,1,3.3000,2.7032,0,0,0.0*
1,1,2.7032,1.6500,0.0000*
1,1,2.7032,-1.6500,0.0000*
1,1,2.7032,-1.6500,0.0000*
1,1,2.7032,1.6500,0.0000*
%
%ADD115ROUNDEDRECTD115*%
G04:AMPARAMS|DCode=116|XSize=6.0032mm|YSize=2.7032mm|CornerRadius=1.3516mm|HoleSize=0mm|Usage=FLASHONLY|Rotation=270.000|XOffset=0mm|YOffset=0mm|HoleType=Round|Shape=RoundedRectangle|*
%AMROUNDEDRECTD116*
21,1,6.0032,0.0000,0,0,270.0*
21,1,3.3000,2.7032,0,0,270.0*
1,1,2.7032,0.0000,-1.6500*
1,1,2.7032,0.0000,1.6500*
1,1,2.7032,0.0000,1.6500*
1,1,2.7032,0.0000,-1.6500*
%
%ADD116ROUNDEDRECTD116*%
G04:AMPARAMS|DCode=117|XSize=6.7032mm|YSize=2.7032mm|CornerRadius=1.3516mm|HoleSize=0mm|Usage=FLASHONLY|Rotation=270.000|XOffset=0mm|YOffset=0mm|HoleType=Round|Shape=RoundedRectangle|*
%AMROUNDEDRECTD117*
21,1,6.7032,0.0000,0,0,270.0*
21,1,4.0000,2.7032,0,0,270.0*
1,1,2.7032,0.0000,-2.0000*
1,1,2.7032,0.0000,2.0000*
1,1,2.7032,0.0000,2.0000*
1,1,2.7032,0.0000,-2.0000*
%
%ADD117ROUNDEDRECTD117*%
%ADD118C,2.4032*%
%ADD119C,1.7032*%
%ADD120R,1.7032X1.7032*%
%ADD121C,0.5588*%
%ADD122C,5.5032*%
G04:AMPARAMS|DCode=123|XSize=1mm|YSize=1.8mm|CornerRadius=0.5mm|HoleSize=0mm|Usage=FLASHONLY|Rotation=270.000|XOffset=0mm|YOffset=0mm|HoleType=Round|Shape=RoundedRectangle|*
%AMROUNDEDRECTD123*
21,1,1.0000,0.8000,0,0,270.0*
21,1,0.0000,1.8000,0,0,270.0*
1,1,1.0000,-0.4000,0.0000*
1,1,1.0000,-0.4000,0.0000*
1,1,1.0000,0.4000,0.0000*
1,1,1.0000,0.4000,0.0000*
%
%ADD123ROUNDEDRECTD123*%
G04:AMPARAMS|DCode=124|XSize=1mm|YSize=2.1mm|CornerRadius=0.5mm|HoleSize=0mm|Usage=FLASHONLY|Rotation=270.000|XOffset=0mm|YOffset=0mm|HoleType=Round|Shape=RoundedRectangle|*
%AMROUNDEDRECTD124*
21,1,1.0000,1.1000,0,0,270.0*
21,1,0.0000,2.1000,0,0,270.0*
1,1,1.0000,-0.5500,0.0000*
1,1,1.0000,-0.5500,0.0000*
1,1,1.0000,0.5500,0.0000*
1,1,1.0000,0.5500,0.0000*
%
%ADD124ROUNDEDRECTD124*%
%ADD125C,0.6500*%
%ADD126C,7.2032*%
%ADD127C,0.9000*%
%ADD128R,1.7032X1.7032*%
%ADD129C,0.8032*%
%ADD130C,1.3900*%
%ADD131C,1.9032*%
%ADD132C,2.1032*%
%ADD133C,1.9304*%
%ADD134C,1.4032*%
%ADD135C,1.5700*%
%ADD136R,1.9032X1.9032*%
%ADD137R,1.8796X1.8796*%
%ADD138C,3.2000*%
%ADD139R,1.3900X1.3900*%
%ADD140C,2.4500*%
G04:AMPARAMS|DCode=141|XSize=1mm|YSize=1.8mm|CornerRadius=0.5mm|HoleSize=0mm|Usage=FLASHONLY|Rotation=180.000|XOffset=0mm|YOffset=0mm|HoleType=Round|Shape=RoundedRectangle|*
%AMROUNDEDRECTD141*
21,1,1.0000,0.8000,0,0,180.0*
21,1,0.0000,1.8000,0,0,180.0*
1,1,1.0000,0.0000,0.4000*
1,1,1.0000,0.0000,0.4000*
1,1,1.0000,0.0000,-0.4000*
1,1,1.0000,0.0000,-0.4000*
%
%ADD141ROUNDEDRECTD141*%
G04:AMPARAMS|DCode=142|XSize=1mm|YSize=2.1mm|CornerRadius=0.5mm|HoleSize=0mm|Usage=FLASHONLY|Rotation=180.000|XOffset=0mm|YOffset=0mm|HoleType=Round|Shape=RoundedRectangle|*
%AMROUNDEDRECTD142*
21,1,1.0000,1.1000,0,0,180.0*
21,1,0.0000,2.1000,0,0,180.0*
1,1,1.0000,0.0000,0.5500*
1,1,1.0000,0.0000,0.5500*
1,1,1.0000,0.0000,-0.5500*
1,1,1.0000,0.0000,-0.5500*
%
%ADD142ROUNDEDRECTD142*%
%ADD143C,1.3462*%
%ADD144C,0.7032*%
D27*
X444500Y-502000D02*
D03*
Y-518000D02*
D03*
X485500D02*
D03*
Y-502000D02*
D03*
Y-398000D02*
D03*
X444500D02*
D03*
Y-382000D02*
D03*
X485500D02*
D03*
D28*
X465000Y-495750D02*
D03*
Y-375750D02*
D03*
D31*
X296570Y-525780D02*
D03*
Y-398780D02*
D03*
Y-373380D02*
D03*
Y-474980D02*
D03*
Y-424180D02*
D03*
Y-500380D02*
D03*
Y-551180D02*
D03*
Y-449580D02*
D03*
X213970Y-551180D02*
D03*
Y-525780D02*
D03*
Y-500380D02*
D03*
Y-474980D02*
D03*
Y-449580D02*
D03*
Y-424180D02*
D03*
Y-373380D02*
D03*
Y-398780D02*
D03*
D49*
X-188500Y-7920D02*
D03*
Y-12920D02*
D03*
Y-17920D02*
D03*
Y-22920D02*
D03*
Y-27920D02*
D03*
Y-32920D02*
D03*
Y-37920D02*
D03*
Y-42920D02*
D03*
D50*
Y-1420D02*
D03*
Y-49420D02*
D03*
Y-57420D02*
D03*
Y6580D02*
D03*
D53*
X260880Y50460D02*
D03*
X245880D02*
D03*
X200880D02*
D03*
X215880D02*
D03*
X347540Y-649130D02*
D03*
X302540D02*
D03*
X287540D02*
D03*
X332540D02*
D03*
D54*
X179380Y78460D02*
D03*
Y57460D02*
D03*
X282380Y78460D02*
D03*
Y57460D02*
D03*
X266040Y-677130D02*
D03*
Y-656130D02*
D03*
X369040Y-677130D02*
D03*
Y-656130D02*
D03*
D55*
X0Y-250000D02*
D03*
Y-240000D02*
D03*
Y-230000D02*
D03*
Y-220000D02*
D03*
Y-210000D02*
D03*
Y-200000D02*
D03*
Y-190000D02*
D03*
Y-180000D02*
D03*
Y-170000D02*
D03*
Y-160000D02*
D03*
Y-150000D02*
D03*
Y-140000D02*
D03*
Y-130000D02*
D03*
Y-120000D02*
D03*
Y-110000D02*
D03*
Y-100000D02*
D03*
Y-90000D02*
D03*
Y-80000D02*
D03*
Y-70000D02*
D03*
Y-60000D02*
D03*
Y-50000D02*
D03*
Y-40000D02*
D03*
Y-30000D02*
D03*
Y-20000D02*
D03*
Y-10000D02*
D03*
Y0D02*
D03*
X10000Y-250000D02*
D03*
Y-240000D02*
D03*
Y-230000D02*
D03*
Y-220000D02*
D03*
Y-210000D02*
D03*
Y-200000D02*
D03*
Y-190000D02*
D03*
Y-180000D02*
D03*
Y-170000D02*
D03*
Y-160000D02*
D03*
Y-150000D02*
D03*
Y-140000D02*
D03*
Y-130000D02*
D03*
Y-120000D02*
D03*
Y-110000D02*
D03*
Y-100000D02*
D03*
Y-90000D02*
D03*
Y-80000D02*
D03*
Y-70000D02*
D03*
Y-60000D02*
D03*
Y-50000D02*
D03*
Y-40000D02*
D03*
Y-30000D02*
D03*
Y-20000D02*
D03*
Y-10000D02*
D03*
Y0D02*
D03*
X20000Y-250000D02*
D03*
Y-240000D02*
D03*
Y-230000D02*
D03*
Y-220000D02*
D03*
Y-210000D02*
D03*
Y-200000D02*
D03*
Y-190000D02*
D03*
Y-180000D02*
D03*
Y-170000D02*
D03*
Y-160000D02*
D03*
Y-150000D02*
D03*
Y-140000D02*
D03*
Y-130000D02*
D03*
Y-120000D02*
D03*
Y-110000D02*
D03*
Y-100000D02*
D03*
Y-90000D02*
D03*
Y-80000D02*
D03*
Y-70000D02*
D03*
Y-60000D02*
D03*
Y-50000D02*
D03*
Y-40000D02*
D03*
Y-30000D02*
D03*
Y-20000D02*
D03*
Y-10000D02*
D03*
Y0D02*
D03*
X30000Y-250000D02*
D03*
Y-240000D02*
D03*
Y-230000D02*
D03*
Y-220000D02*
D03*
Y-210000D02*
D03*
Y-200000D02*
D03*
Y-190000D02*
D03*
Y-180000D02*
D03*
Y-170000D02*
D03*
Y-160000D02*
D03*
Y-150000D02*
D03*
Y-140000D02*
D03*
Y-130000D02*
D03*
Y-120000D02*
D03*
Y-110000D02*
D03*
Y-100000D02*
D03*
Y-90000D02*
D03*
Y-80000D02*
D03*
Y-70000D02*
D03*
Y-60000D02*
D03*
Y-50000D02*
D03*
Y-40000D02*
D03*
Y-30000D02*
D03*
Y-20000D02*
D03*
Y-10000D02*
D03*
Y0D02*
D03*
X40000Y-250000D02*
D03*
Y-240000D02*
D03*
Y-230000D02*
D03*
Y-220000D02*
D03*
Y-210000D02*
D03*
Y-200000D02*
D03*
Y-190000D02*
D03*
Y-180000D02*
D03*
Y-170000D02*
D03*
Y-160000D02*
D03*
Y-150000D02*
D03*
Y-140000D02*
D03*
Y-130000D02*
D03*
Y-120000D02*
D03*
Y-110000D02*
D03*
Y-100000D02*
D03*
Y-90000D02*
D03*
Y-80000D02*
D03*
Y-70000D02*
D03*
Y-60000D02*
D03*
Y-50000D02*
D03*
Y-40000D02*
D03*
Y-30000D02*
D03*
Y-20000D02*
D03*
Y-10000D02*
D03*
Y0D02*
D03*
X50000Y-250000D02*
D03*
Y-240000D02*
D03*
Y-230000D02*
D03*
Y-220000D02*
D03*
Y-210000D02*
D03*
Y-200000D02*
D03*
Y-190000D02*
D03*
Y-180000D02*
D03*
Y-170000D02*
D03*
Y-160000D02*
D03*
Y-150000D02*
D03*
Y-140000D02*
D03*
Y-130000D02*
D03*
Y-120000D02*
D03*
Y-110000D02*
D03*
Y-100000D02*
D03*
Y-90000D02*
D03*
Y-80000D02*
D03*
Y-70000D02*
D03*
Y-60000D02*
D03*
Y-50000D02*
D03*
Y-40000D02*
D03*
Y-30000D02*
D03*
Y-20000D02*
D03*
Y-10000D02*
D03*
Y0D02*
D03*
X60000Y-250000D02*
D03*
Y-240000D02*
D03*
Y-230000D02*
D03*
Y-220000D02*
D03*
Y-210000D02*
D03*
Y-200000D02*
D03*
Y-190000D02*
D03*
Y-180000D02*
D03*
Y-170000D02*
D03*
Y-160000D02*
D03*
Y-150000D02*
D03*
Y-140000D02*
D03*
Y-130000D02*
D03*
Y-120000D02*
D03*
Y-110000D02*
D03*
Y-100000D02*
D03*
Y-90000D02*
D03*
Y-80000D02*
D03*
Y-70000D02*
D03*
Y-60000D02*
D03*
Y-50000D02*
D03*
Y-40000D02*
D03*
Y-30000D02*
D03*
Y-20000D02*
D03*
Y-10000D02*
D03*
Y0D02*
D03*
X70000Y-250000D02*
D03*
Y-240000D02*
D03*
Y-230000D02*
D03*
Y-220000D02*
D03*
Y-210000D02*
D03*
Y-200000D02*
D03*
Y-190000D02*
D03*
Y-180000D02*
D03*
Y-170000D02*
D03*
Y-160000D02*
D03*
Y-150000D02*
D03*
Y-140000D02*
D03*
Y-130000D02*
D03*
Y-120000D02*
D03*
Y-110000D02*
D03*
Y-100000D02*
D03*
Y-90000D02*
D03*
Y-80000D02*
D03*
Y-70000D02*
D03*
Y-60000D02*
D03*
Y-50000D02*
D03*
Y-40000D02*
D03*
Y-30000D02*
D03*
Y-20000D02*
D03*
Y-10000D02*
D03*
Y0D02*
D03*
X80000Y-250000D02*
D03*
Y-240000D02*
D03*
Y-230000D02*
D03*
Y-220000D02*
D03*
Y-210000D02*
D03*
Y-200000D02*
D03*
Y-190000D02*
D03*
Y-180000D02*
D03*
Y-170000D02*
D03*
Y-160000D02*
D03*
Y-150000D02*
D03*
Y-140000D02*
D03*
Y-130000D02*
D03*
Y-120000D02*
D03*
Y-110000D02*
D03*
Y-100000D02*
D03*
Y-90000D02*
D03*
Y-80000D02*
D03*
Y-70000D02*
D03*
Y-60000D02*
D03*
Y-50000D02*
D03*
Y-40000D02*
D03*
Y-30000D02*
D03*
Y-20000D02*
D03*
Y-10000D02*
D03*
Y0D02*
D03*
X90000Y-250000D02*
D03*
Y-240000D02*
D03*
Y-230000D02*
D03*
Y-220000D02*
D03*
Y-210000D02*
D03*
Y-200000D02*
D03*
Y-190000D02*
D03*
Y-180000D02*
D03*
Y-170000D02*
D03*
Y-160000D02*
D03*
Y-150000D02*
D03*
Y-140000D02*
D03*
Y-130000D02*
D03*
Y-120000D02*
D03*
Y-110000D02*
D03*
Y-100000D02*
D03*
Y-90000D02*
D03*
Y-80000D02*
D03*
Y-70000D02*
D03*
Y-60000D02*
D03*
Y-50000D02*
D03*
Y-40000D02*
D03*
Y-30000D02*
D03*
Y-20000D02*
D03*
Y-10000D02*
D03*
Y0D02*
D03*
X100000Y-250000D02*
D03*
Y-240000D02*
D03*
Y-230000D02*
D03*
Y-220000D02*
D03*
Y-210000D02*
D03*
Y-200000D02*
D03*
Y-190000D02*
D03*
Y-180000D02*
D03*
Y-170000D02*
D03*
Y-160000D02*
D03*
Y-150000D02*
D03*
Y-140000D02*
D03*
Y-130000D02*
D03*
Y-120000D02*
D03*
Y-110000D02*
D03*
Y-100000D02*
D03*
Y-90000D02*
D03*
Y-80000D02*
D03*
Y-70000D02*
D03*
Y-60000D02*
D03*
Y-50000D02*
D03*
Y-40000D02*
D03*
Y-30000D02*
D03*
Y-20000D02*
D03*
Y-10000D02*
D03*
Y0D02*
D03*
X110000Y-250000D02*
D03*
Y-240000D02*
D03*
Y-230000D02*
D03*
Y-220000D02*
D03*
Y-210000D02*
D03*
Y-200000D02*
D03*
Y-190000D02*
D03*
Y-180000D02*
D03*
Y-170000D02*
D03*
Y-160000D02*
D03*
Y-150000D02*
D03*
Y-140000D02*
D03*
Y-130000D02*
D03*
Y-120000D02*
D03*
Y-110000D02*
D03*
Y-100000D02*
D03*
Y-90000D02*
D03*
Y-80000D02*
D03*
Y-70000D02*
D03*
Y-60000D02*
D03*
Y-50000D02*
D03*
Y-40000D02*
D03*
Y-30000D02*
D03*
Y-20000D02*
D03*
Y-10000D02*
D03*
Y0D02*
D03*
X120000Y-250000D02*
D03*
Y-240000D02*
D03*
Y-230000D02*
D03*
Y-220000D02*
D03*
Y-210000D02*
D03*
Y-200000D02*
D03*
Y-190000D02*
D03*
Y-180000D02*
D03*
Y-170000D02*
D03*
Y-160000D02*
D03*
Y-150000D02*
D03*
Y-140000D02*
D03*
Y-130000D02*
D03*
Y-120000D02*
D03*
Y-110000D02*
D03*
Y-100000D02*
D03*
Y-90000D02*
D03*
Y-80000D02*
D03*
Y-70000D02*
D03*
Y-60000D02*
D03*
Y-50000D02*
D03*
Y-40000D02*
D03*
Y-30000D02*
D03*
Y-20000D02*
D03*
Y-10000D02*
D03*
Y0D02*
D03*
X130000Y-250000D02*
D03*
Y-240000D02*
D03*
Y-230000D02*
D03*
Y-220000D02*
D03*
Y-210000D02*
D03*
Y-200000D02*
D03*
Y-190000D02*
D03*
Y-180000D02*
D03*
Y-170000D02*
D03*
Y-160000D02*
D03*
Y-150000D02*
D03*
Y-140000D02*
D03*
Y-130000D02*
D03*
Y-120000D02*
D03*
Y-110000D02*
D03*
Y-100000D02*
D03*
Y-90000D02*
D03*
Y-80000D02*
D03*
Y-70000D02*
D03*
Y-60000D02*
D03*
Y-50000D02*
D03*
Y-40000D02*
D03*
Y-30000D02*
D03*
Y-20000D02*
D03*
Y-10000D02*
D03*
Y0D02*
D03*
X140000Y-250000D02*
D03*
Y-240000D02*
D03*
Y-230000D02*
D03*
Y-220000D02*
D03*
Y-210000D02*
D03*
Y-200000D02*
D03*
Y-190000D02*
D03*
Y-180000D02*
D03*
Y-170000D02*
D03*
Y-160000D02*
D03*
Y-150000D02*
D03*
Y-140000D02*
D03*
Y-130000D02*
D03*
Y-120000D02*
D03*
Y-110000D02*
D03*
Y-100000D02*
D03*
Y-90000D02*
D03*
Y-80000D02*
D03*
Y-70000D02*
D03*
Y-60000D02*
D03*
Y-50000D02*
D03*
Y-40000D02*
D03*
Y-30000D02*
D03*
Y-20000D02*
D03*
Y-10000D02*
D03*
Y0D02*
D03*
X150000Y-250000D02*
D03*
Y-240000D02*
D03*
Y-230000D02*
D03*
Y-220000D02*
D03*
Y-210000D02*
D03*
Y-200000D02*
D03*
Y-190000D02*
D03*
Y-180000D02*
D03*
Y-170000D02*
D03*
Y-160000D02*
D03*
Y-150000D02*
D03*
Y-140000D02*
D03*
Y-130000D02*
D03*
Y-120000D02*
D03*
Y-110000D02*
D03*
Y-100000D02*
D03*
Y-90000D02*
D03*
Y-80000D02*
D03*
Y-70000D02*
D03*
Y-60000D02*
D03*
Y-50000D02*
D03*
Y-40000D02*
D03*
Y-30000D02*
D03*
Y-20000D02*
D03*
Y-10000D02*
D03*
Y0D02*
D03*
X160000Y-250000D02*
D03*
Y-240000D02*
D03*
Y-230000D02*
D03*
Y-220000D02*
D03*
Y-210000D02*
D03*
Y-200000D02*
D03*
Y-190000D02*
D03*
Y-180000D02*
D03*
Y-170000D02*
D03*
Y-160000D02*
D03*
Y-150000D02*
D03*
Y-140000D02*
D03*
Y-130000D02*
D03*
Y-120000D02*
D03*
Y-110000D02*
D03*
Y-100000D02*
D03*
Y-90000D02*
D03*
Y-80000D02*
D03*
Y-70000D02*
D03*
Y-60000D02*
D03*
Y-50000D02*
D03*
Y-40000D02*
D03*
Y-30000D02*
D03*
Y-20000D02*
D03*
Y-10000D02*
D03*
Y0D02*
D03*
X170000Y-250000D02*
D03*
Y-240000D02*
D03*
Y-230000D02*
D03*
Y-220000D02*
D03*
Y-210000D02*
D03*
Y-200000D02*
D03*
Y-190000D02*
D03*
Y-180000D02*
D03*
Y-170000D02*
D03*
Y-160000D02*
D03*
Y-150000D02*
D03*
Y-140000D02*
D03*
Y-130000D02*
D03*
Y-120000D02*
D03*
Y-110000D02*
D03*
Y-100000D02*
D03*
Y-90000D02*
D03*
Y-80000D02*
D03*
Y-70000D02*
D03*
Y-60000D02*
D03*
Y-50000D02*
D03*
Y-40000D02*
D03*
Y-30000D02*
D03*
Y-20000D02*
D03*
Y-10000D02*
D03*
Y0D02*
D03*
X180000Y-250000D02*
D03*
Y-240000D02*
D03*
Y-230000D02*
D03*
Y-220000D02*
D03*
Y-210000D02*
D03*
Y-200000D02*
D03*
Y-190000D02*
D03*
Y-180000D02*
D03*
Y-170000D02*
D03*
Y-160000D02*
D03*
Y-150000D02*
D03*
Y-140000D02*
D03*
Y-130000D02*
D03*
Y-120000D02*
D03*
Y-110000D02*
D03*
Y-100000D02*
D03*
Y-90000D02*
D03*
Y-80000D02*
D03*
Y-70000D02*
D03*
Y-60000D02*
D03*
Y-50000D02*
D03*
Y-40000D02*
D03*
Y-30000D02*
D03*
Y-20000D02*
D03*
Y-10000D02*
D03*
Y0D02*
D03*
X190000Y-250000D02*
D03*
Y-240000D02*
D03*
Y-230000D02*
D03*
Y-220000D02*
D03*
Y-210000D02*
D03*
Y-200000D02*
D03*
Y-190000D02*
D03*
Y-180000D02*
D03*
Y-170000D02*
D03*
Y-160000D02*
D03*
Y-150000D02*
D03*
Y-140000D02*
D03*
Y-130000D02*
D03*
Y-120000D02*
D03*
Y-110000D02*
D03*
Y-100000D02*
D03*
Y-90000D02*
D03*
Y-80000D02*
D03*
Y-70000D02*
D03*
Y-60000D02*
D03*
Y-50000D02*
D03*
Y-40000D02*
D03*
Y-30000D02*
D03*
Y-20000D02*
D03*
Y-10000D02*
D03*
Y0D02*
D03*
X200000Y-250000D02*
D03*
Y-240000D02*
D03*
Y-230000D02*
D03*
Y-220000D02*
D03*
Y-210000D02*
D03*
Y-200000D02*
D03*
Y-190000D02*
D03*
Y-180000D02*
D03*
Y-170000D02*
D03*
Y-160000D02*
D03*
Y-150000D02*
D03*
Y-140000D02*
D03*
Y-130000D02*
D03*
Y-120000D02*
D03*
Y-110000D02*
D03*
Y-100000D02*
D03*
Y-90000D02*
D03*
Y-80000D02*
D03*
Y-70000D02*
D03*
Y-60000D02*
D03*
Y-50000D02*
D03*
Y-40000D02*
D03*
Y-30000D02*
D03*
Y-20000D02*
D03*
Y-10000D02*
D03*
Y0D02*
D03*
X210000Y-250000D02*
D03*
Y-240000D02*
D03*
Y-230000D02*
D03*
Y-220000D02*
D03*
Y-210000D02*
D03*
Y-200000D02*
D03*
Y-190000D02*
D03*
Y-180000D02*
D03*
Y-170000D02*
D03*
Y-160000D02*
D03*
Y-150000D02*
D03*
Y-140000D02*
D03*
Y-130000D02*
D03*
Y-120000D02*
D03*
Y-110000D02*
D03*
Y-100000D02*
D03*
Y-90000D02*
D03*
Y-80000D02*
D03*
Y-70000D02*
D03*
Y-60000D02*
D03*
Y-50000D02*
D03*
Y-40000D02*
D03*
Y-30000D02*
D03*
Y-20000D02*
D03*
Y-10000D02*
D03*
Y0D02*
D03*
X220000Y-250000D02*
D03*
Y-240000D02*
D03*
Y-230000D02*
D03*
Y-220000D02*
D03*
Y-210000D02*
D03*
Y-200000D02*
D03*
Y-190000D02*
D03*
Y-180000D02*
D03*
Y-170000D02*
D03*
Y-160000D02*
D03*
Y-150000D02*
D03*
Y-140000D02*
D03*
Y-130000D02*
D03*
Y-120000D02*
D03*
Y-110000D02*
D03*
Y-100000D02*
D03*
Y-90000D02*
D03*
Y-80000D02*
D03*
Y-70000D02*
D03*
Y-60000D02*
D03*
Y-50000D02*
D03*
Y-40000D02*
D03*
Y-30000D02*
D03*
Y-20000D02*
D03*
Y-10000D02*
D03*
Y0D02*
D03*
X230000Y-250000D02*
D03*
Y-240000D02*
D03*
Y-230000D02*
D03*
Y-220000D02*
D03*
Y-210000D02*
D03*
Y-200000D02*
D03*
Y-190000D02*
D03*
Y-180000D02*
D03*
Y-170000D02*
D03*
Y-160000D02*
D03*
Y-150000D02*
D03*
Y-140000D02*
D03*
Y-130000D02*
D03*
Y-120000D02*
D03*
Y-110000D02*
D03*
Y-100000D02*
D03*
Y-90000D02*
D03*
Y-80000D02*
D03*
Y-70000D02*
D03*
Y-60000D02*
D03*
Y-50000D02*
D03*
Y-40000D02*
D03*
Y-30000D02*
D03*
Y-20000D02*
D03*
Y-10000D02*
D03*
Y0D02*
D03*
X240000Y-250000D02*
D03*
Y-240000D02*
D03*
Y-230000D02*
D03*
Y-220000D02*
D03*
Y-210000D02*
D03*
Y-200000D02*
D03*
Y-190000D02*
D03*
Y-180000D02*
D03*
Y-170000D02*
D03*
Y-160000D02*
D03*
Y-150000D02*
D03*
Y-140000D02*
D03*
Y-130000D02*
D03*
Y-120000D02*
D03*
Y-110000D02*
D03*
Y-100000D02*
D03*
Y-90000D02*
D03*
Y-80000D02*
D03*
Y-70000D02*
D03*
Y-60000D02*
D03*
Y-50000D02*
D03*
Y-40000D02*
D03*
Y-30000D02*
D03*
Y-20000D02*
D03*
Y-10000D02*
D03*
Y0D02*
D03*
X250000Y-250000D02*
D03*
Y-240000D02*
D03*
Y-230000D02*
D03*
Y-220000D02*
D03*
Y-210000D02*
D03*
Y-200000D02*
D03*
Y-190000D02*
D03*
Y-180000D02*
D03*
Y-170000D02*
D03*
Y-160000D02*
D03*
Y-150000D02*
D03*
Y-140000D02*
D03*
Y-130000D02*
D03*
Y-120000D02*
D03*
Y-110000D02*
D03*
Y-100000D02*
D03*
Y-90000D02*
D03*
Y-80000D02*
D03*
Y-70000D02*
D03*
Y-60000D02*
D03*
Y-50000D02*
D03*
Y-40000D02*
D03*
Y-30000D02*
D03*
Y-20000D02*
D03*
Y-10000D02*
D03*
Y0D02*
D03*
D58*
X1182100Y24580D02*
D03*
X1118100D02*
D03*
X1174100D02*
D03*
X1126100D02*
D03*
D60*
X1018790Y-91420D02*
D03*
X1006090D02*
D03*
Y-167620D02*
D03*
X1018790D02*
D03*
X1031490D02*
D03*
X1044190D02*
D03*
Y-91420D02*
D03*
X1031490D02*
D03*
D71*
X1167600Y24580D02*
D03*
X1162600D02*
D03*
X1157600D02*
D03*
X1152600D02*
D03*
X1147600D02*
D03*
X1142600D02*
D03*
X1137600D02*
D03*
X1132600D02*
D03*
D74*
X807199Y-431780D02*
D03*
D75*
X400000Y-132400D02*
D03*
X342500D02*
D03*
X400000Y-107000D02*
D03*
Y-81600D02*
D03*
X342500Y-107000D02*
D03*
Y-81600D02*
D03*
X400000Y-56200D02*
D03*
Y-30800D02*
D03*
Y-5400D02*
D03*
Y20000D02*
D03*
X342500Y-56200D02*
D03*
Y-30800D02*
D03*
Y-5400D02*
D03*
Y20000D02*
D03*
Y-157800D02*
D03*
Y-183200D02*
D03*
Y-208600D02*
D03*
X400000Y-157800D02*
D03*
Y-183200D02*
D03*
Y-208600D02*
D03*
D76*
X603790Y-214154D02*
D03*
Y-147606D02*
D03*
D77*
X384720Y-570770D02*
D03*
X504720D02*
D03*
Y-613370D02*
D03*
X484720Y-570770D02*
D03*
Y-613370D02*
D03*
X464720Y-570770D02*
D03*
Y-613370D02*
D03*
X444720Y-570770D02*
D03*
Y-613370D02*
D03*
X424720Y-570770D02*
D03*
Y-613370D02*
D03*
X404720Y-570770D02*
D03*
Y-613370D02*
D03*
X384720D02*
D03*
D78*
X172630Y-617120D02*
D03*
Y-664120D02*
D03*
X166280Y-617120D02*
D03*
Y-664120D02*
D03*
X159930Y-617120D02*
D03*
Y-664120D02*
D03*
X153580Y-617120D02*
D03*
Y-664120D02*
D03*
X147230Y-617120D02*
D03*
Y-664120D02*
D03*
X140880Y-617120D02*
D03*
Y-664120D02*
D03*
X134530Y-617120D02*
D03*
Y-664120D02*
D03*
X128180Y-617120D02*
D03*
Y-664120D02*
D03*
X121830Y-617120D02*
D03*
Y-664120D02*
D03*
X115480Y-617120D02*
D03*
Y-664120D02*
D03*
X109130Y-617120D02*
D03*
Y-664120D02*
D03*
X102780Y-617120D02*
D03*
Y-664120D02*
D03*
X96430Y-617120D02*
D03*
Y-664120D02*
D03*
X90080Y-617120D02*
D03*
Y-664120D02*
D03*
X83730Y-617120D02*
D03*
Y-664120D02*
D03*
X77380Y-617120D02*
D03*
Y-664120D02*
D03*
X71030Y-617120D02*
D03*
Y-664120D02*
D03*
X64680Y-617120D02*
D03*
Y-664120D02*
D03*
X58330Y-617120D02*
D03*
Y-664120D02*
D03*
X51980Y-617120D02*
D03*
Y-664120D02*
D03*
X45630Y-617120D02*
D03*
Y-664120D02*
D03*
X39280Y-617120D02*
D03*
Y-664120D02*
D03*
X32930Y-617120D02*
D03*
Y-664120D02*
D03*
X26580Y-617120D02*
D03*
Y-664120D02*
D03*
X20230Y-617120D02*
D03*
Y-664120D02*
D03*
X13880Y-617120D02*
D03*
Y-664120D02*
D03*
X7530Y-617120D02*
D03*
Y-664120D02*
D03*
X1180Y-617120D02*
D03*
Y-664120D02*
D03*
X-5170Y-617120D02*
D03*
Y-664120D02*
D03*
X-11520Y-617120D02*
D03*
Y-664120D02*
D03*
X-17870Y-617120D02*
D03*
Y-664120D02*
D03*
X-24220Y-617120D02*
D03*
Y-664120D02*
D03*
X-30570Y-617120D02*
D03*
Y-664120D02*
D03*
X-36920Y-617120D02*
D03*
Y-664120D02*
D03*
X-43270Y-617120D02*
D03*
Y-664120D02*
D03*
X-49620Y-617120D02*
D03*
Y-664120D02*
D03*
X-55970Y-617120D02*
D03*
Y-664120D02*
D03*
X-62320Y-617120D02*
D03*
Y-664120D02*
D03*
X-68670Y-617120D02*
D03*
Y-664120D02*
D03*
X-75030Y-617120D02*
D03*
Y-664120D02*
D03*
D79*
X209650Y-640620D02*
D03*
X-112050D02*
D03*
D80*
X420970Y-304070D02*
D03*
X364970D02*
D03*
D81*
X379000Y-364600D02*
D03*
X415000D02*
D03*
X379000Y-377300D02*
D03*
X415000D02*
D03*
X379000Y-390000D02*
D03*
X415000D02*
D03*
X379000Y-402700D02*
D03*
X415000D02*
D03*
X379000Y-415400D02*
D03*
X415000D02*
D03*
D82*
X-181700Y-523150D02*
D03*
X-228700D02*
D03*
X-181700Y-516800D02*
D03*
X-228700D02*
D03*
X-181700Y-510450D02*
D03*
X-228700D02*
D03*
X-181700Y-504100D02*
D03*
X-228700D02*
D03*
X-181700Y-497750D02*
D03*
X-228700D02*
D03*
X-181700Y-491400D02*
D03*
X-228700D02*
D03*
X-181700Y-485050D02*
D03*
X-228700D02*
D03*
X-181700Y-478700D02*
D03*
X-228700D02*
D03*
X-181700Y-472350D02*
D03*
X-228700D02*
D03*
X-181700Y-466000D02*
D03*
X-228700D02*
D03*
X-181700Y-459650D02*
D03*
X-228700D02*
D03*
X-181700Y-453300D02*
D03*
X-228700D02*
D03*
X-181700Y-446950D02*
D03*
X-228700D02*
D03*
X-181700Y-440600D02*
D03*
X-228700D02*
D03*
X-181700Y-434250D02*
D03*
X-228700D02*
D03*
X-181700Y-427900D02*
D03*
X-228700D02*
D03*
X-181700Y-421550D02*
D03*
X-228700D02*
D03*
X-181700Y-415200D02*
D03*
X-228700D02*
D03*
X-181700Y-408850D02*
D03*
X-228700D02*
D03*
X-181700Y-402500D02*
D03*
X-228700D02*
D03*
X-181700Y-396150D02*
D03*
X-228700D02*
D03*
X-181700Y-389800D02*
D03*
X-228700D02*
D03*
X-181700Y-383450D02*
D03*
X-228700D02*
D03*
X-181700Y-377100D02*
D03*
X-228700D02*
D03*
X-181700Y-370750D02*
D03*
X-228700D02*
D03*
X-181700Y-364400D02*
D03*
X-228700D02*
D03*
X-181700Y-358050D02*
D03*
X-228700D02*
D03*
X-181700Y-351700D02*
D03*
X-228700D02*
D03*
X-181700Y-345350D02*
D03*
X-228700D02*
D03*
X-181700Y-339000D02*
D03*
X-228700D02*
D03*
X-181700Y-332650D02*
D03*
X-228700D02*
D03*
X-181700Y-326300D02*
D03*
X-228700D02*
D03*
X-181700Y-319950D02*
D03*
X-228700D02*
D03*
X-181700Y-313600D02*
D03*
X-228700D02*
D03*
X-181700Y-307250D02*
D03*
X-228700D02*
D03*
X-181700Y-300900D02*
D03*
X-228700D02*
D03*
X-181700Y-294550D02*
D03*
X-228700D02*
D03*
X-181700Y-288200D02*
D03*
X-228700D02*
D03*
X-181700Y-281850D02*
D03*
X-228700D02*
D03*
X-181700Y-275490D02*
D03*
X-228700D02*
D03*
D83*
X-205200Y-560170D02*
D03*
Y-238470D02*
D03*
D84*
X496080Y-195270D02*
D03*
X526080D02*
D03*
X496710Y-219450D02*
D03*
X526710D02*
D03*
X496080Y-244380D02*
D03*
X526080D02*
D03*
X496080Y-269780D02*
D03*
X526080D02*
D03*
D85*
X48124Y-502666D02*
D03*
X31124D02*
D03*
X33551Y74340D02*
D03*
X50552D02*
D03*
X48330Y-482430D02*
D03*
X31330D02*
D03*
X48330Y-462430D02*
D03*
X31330D02*
D03*
X47852Y-305080D02*
D03*
X30852D02*
D03*
X48330Y-422430D02*
D03*
X31330D02*
D03*
X47852Y-325080D02*
D03*
X30852D02*
D03*
X50552Y34340D02*
D03*
X33551D02*
D03*
X50552Y54340D02*
D03*
X33551D02*
D03*
X48330Y-442430D02*
D03*
X31330D02*
D03*
X48330Y-382430D02*
D03*
X31330D02*
D03*
X48330Y-362430D02*
D03*
X31330D02*
D03*
X48330Y-402430D02*
D03*
X31330D02*
D03*
X327510Y-370570D02*
D03*
X344510D02*
D03*
X327510Y-395970D02*
D03*
X344510D02*
D03*
X327510Y-421370D02*
D03*
X344510D02*
D03*
X327510Y-446770D02*
D03*
X344510D02*
D03*
X327510Y-472170D02*
D03*
X344510D02*
D03*
X327510Y-497570D02*
D03*
X344510D02*
D03*
X327510Y-522970D02*
D03*
X344510D02*
D03*
X327510Y-548370D02*
D03*
X344510D02*
D03*
D86*
X436500Y-55000D02*
D03*
X453500D02*
D03*
X576730Y-105950D02*
D03*
X559730D02*
D03*
D87*
X454000Y-10000D02*
D03*
X436000D02*
D03*
X454000Y-35000D02*
D03*
X436000D02*
D03*
D88*
X455000Y-111000D02*
D03*
Y-129000D02*
D03*
X945600Y-262420D02*
D03*
X802890Y-258950D02*
D03*
X780030D02*
D03*
X802890Y-276950D02*
D03*
X780030D02*
D03*
X945600Y-244420D02*
D03*
D89*
X575230Y-119920D02*
D03*
X561230D02*
D03*
X575230Y-90710D02*
D03*
X561230D02*
D03*
X573960Y-75470D02*
D03*
X559960D02*
D03*
D90*
X475000Y-70000D02*
D03*
Y-76500D02*
D03*
Y-83000D02*
D03*
Y-89500D02*
D03*
Y-96000D02*
D03*
Y-102500D02*
D03*
Y-109000D02*
D03*
Y-115500D02*
D03*
Y-122000D02*
D03*
Y-128500D02*
D03*
Y-135000D02*
D03*
Y-141500D02*
D03*
X534000Y-70000D02*
D03*
Y-76500D02*
D03*
Y-83000D02*
D03*
Y-89500D02*
D03*
Y-96000D02*
D03*
Y-102500D02*
D03*
Y-109000D02*
D03*
Y-115500D02*
D03*
Y-122000D02*
D03*
Y-128500D02*
D03*
Y-135000D02*
D03*
Y-141500D02*
D03*
D91*
X504500Y-105750D02*
D03*
D92*
X435000Y-127000D02*
D03*
Y-113000D02*
D03*
X1073400Y14295D02*
D03*
Y295D02*
D03*
D93*
X521720Y-53880D02*
D03*
X530920D02*
D03*
X521720Y-29750D02*
D03*
X530920D02*
D03*
D94*
X521240Y-42450D02*
D03*
X531240D02*
D03*
X497270D02*
D03*
X507270D02*
D03*
X884250Y-280650D02*
D03*
Y-267950D02*
D03*
X894250Y-280650D02*
D03*
Y-267950D02*
D03*
D95*
X479600Y-653420D02*
D03*
X489600D02*
D03*
X469600D02*
D03*
X459600D02*
D03*
D96*
X446600Y-692170D02*
D03*
X502600D02*
D03*
D97*
X1202601Y-456420D02*
D03*
X1210602D02*
D03*
X1218600D02*
D03*
X1226601D02*
D03*
X1234602D02*
D03*
X1242601D02*
D03*
X1250602D02*
D03*
X1258600D02*
D03*
X1266601D02*
D03*
X1274602D02*
D03*
X1282601D02*
D03*
X1290602D02*
D03*
X1298600D02*
D03*
X1194602D02*
D03*
D98*
X1214740Y-30460D02*
D03*
X1133460D02*
D03*
X1165740Y-14460D02*
D03*
Y-30460D02*
D03*
Y-46460D02*
D03*
X1214740Y-14460D02*
D03*
Y-46460D02*
D03*
X1133460D02*
D03*
Y-14460D02*
D03*
X1084460Y-46460D02*
D03*
Y-30460D02*
D03*
Y-14460D02*
D03*
D99*
X1088640Y14780D02*
D03*
Y5580D02*
D03*
D100*
X1375010Y-611820D02*
D03*
Y-601820D02*
D03*
Y-581820D02*
D03*
Y-591820D02*
D03*
D101*
X1097497Y-626123D02*
D03*
X1048000Y-675620D02*
D03*
X1010170Y-538795D02*
D03*
X960672Y-588292D02*
D03*
D102*
X896860Y-237590D02*
D03*
Y-242590D02*
D03*
Y-247590D02*
D03*
X927360Y-237590D02*
D03*
Y-242590D02*
D03*
Y-247590D02*
D03*
Y-252590D02*
D03*
X896860D02*
D03*
D103*
X912110Y-245090D02*
D03*
D104*
X904610Y-260340D02*
D03*
Y-229840D02*
D03*
X909610D02*
D03*
X914610D02*
D03*
X919610D02*
D03*
Y-260340D02*
D03*
X914610D02*
D03*
X909610D02*
D03*
D105*
X1058430Y-556649D02*
D03*
X978527Y-636552D02*
D03*
X999740Y-657766D02*
D03*
X1079643Y-577863D02*
D03*
X957314Y-615339D02*
D03*
X1037217Y-535436D02*
D03*
D106*
X548100Y-510520D02*
D03*
X608100D02*
D03*
D107*
X633980Y-530920D02*
D03*
Y-540920D02*
D03*
D108*
X843530Y-287044D02*
D03*
Y-240044D02*
D03*
D109*
X799080Y-431780D02*
D03*
X815559D02*
D03*
X807318D02*
D03*
D110*
X336430Y-626750D02*
D03*
Y-609750D02*
D03*
X288170Y-626750D02*
D03*
Y-609750D02*
D03*
X312300Y-626750D02*
D03*
Y-609750D02*
D03*
D111*
X1413760Y-568820D02*
D03*
Y-624820D02*
D03*
D112*
X494720Y-592070D02*
D03*
X394720D02*
D03*
X1106513Y-606854D02*
D03*
X1028731Y-684636D02*
D03*
D113*
X189150Y-640620D02*
D03*
X-205200Y-539670D02*
D03*
D114*
X-91550Y-640620D02*
D03*
X-205200Y-258970D02*
D03*
D115*
X-147260Y-180890D02*
D03*
D116*
X-177260Y-133890D02*
D03*
D117*
X-117260D02*
D03*
D118*
X-222260D02*
D03*
D119*
X-56350Y-457290D02*
D03*
Y-482690D02*
D03*
Y-508090D02*
D03*
Y-533490D02*
D03*
X-81750D02*
D03*
Y-508090D02*
D03*
Y-482690D02*
D03*
X763200Y-491220D02*
D03*
X661600D02*
D03*
X687000D02*
D03*
X737800D02*
D03*
X712400D02*
D03*
X788600D02*
D03*
X814000D02*
D03*
X946400Y-91420D02*
D03*
X646360Y-8620D02*
D03*
X1044000Y-263120D02*
D03*
X946400Y-320020D02*
D03*
X611120Y-436860D02*
D03*
X921000Y-320020D02*
D03*
X1044000Y-212320D02*
D03*
X747960Y-8620D02*
D03*
X570160D02*
D03*
X595560D02*
D03*
X620960D02*
D03*
X671760D02*
D03*
X697160D02*
D03*
X722560D02*
D03*
X773360D02*
D03*
X991800Y-491220D02*
D03*
X966400D02*
D03*
X941000D02*
D03*
X915600D02*
D03*
X890200D02*
D03*
X1018600Y-263120D02*
D03*
X1044000Y-237720D02*
D03*
X1018600D02*
D03*
X921000Y-91420D02*
D03*
X895600D02*
D03*
X870200D02*
D03*
X844800D02*
D03*
X819400D02*
D03*
X794000D02*
D03*
X705100Y-599420D02*
D03*
X730500D02*
D03*
X755900D02*
D03*
X705100Y-574020D02*
D03*
X730500D02*
D03*
X585720Y-436860D02*
D03*
X560320D02*
D03*
X839400Y-8620D02*
D03*
X864800D02*
D03*
X890200D02*
D03*
X915600D02*
D03*
X941000D02*
D03*
X966400D02*
D03*
X991800D02*
D03*
X794000Y-320020D02*
D03*
X819400D02*
D03*
X844800D02*
D03*
X870200D02*
D03*
X895600D02*
D03*
D120*
X-81750Y-457290D02*
D03*
X1018600Y-212320D02*
D03*
D121*
X48800Y-585301D02*
D03*
X34035Y-579185D02*
D03*
X27919Y-564420D02*
D03*
X34035Y-549655D02*
D03*
X48800Y-543539D02*
D03*
D03*
X63565Y-549655D02*
D03*
X69681Y-564420D02*
D03*
X63565Y-579185D02*
D03*
X-129000Y-420201D02*
D03*
X-143765Y-414085D02*
D03*
X-149881Y-399320D02*
D03*
X-143765Y-384555D02*
D03*
X-129000Y-378439D02*
D03*
D03*
X-114235Y-384555D02*
D03*
X-108119Y-399320D02*
D03*
X-114235Y-414085D02*
D03*
X-206635Y44815D02*
D03*
X-200519Y59580D02*
D03*
X-206635Y74345D02*
D03*
X-221400Y80461D02*
D03*
X-236165Y74345D02*
D03*
X-242281Y59580D02*
D03*
X-236165Y44815D02*
D03*
X-221400Y38699D02*
D03*
X-206635Y-675185D02*
D03*
X-200519Y-660420D02*
D03*
X-206635Y-645655D02*
D03*
X-221400Y-639539D02*
D03*
X-236165Y-645655D02*
D03*
X-242281Y-660420D02*
D03*
X-236165Y-675185D02*
D03*
X-221400Y-681301D02*
D03*
X409600Y-679301D02*
D03*
X394835Y-673185D02*
D03*
X388719Y-658420D02*
D03*
X394835Y-643655D02*
D03*
X409600Y-637539D02*
D03*
D03*
X424365Y-643655D02*
D03*
X430481Y-658420D02*
D03*
X424365Y-673185D02*
D03*
X1042600Y-461301D02*
D03*
X1027835Y-455185D02*
D03*
X1021719Y-440420D02*
D03*
X1027835Y-425655D02*
D03*
X1042600Y-419539D02*
D03*
X1057365Y-425655D02*
D03*
X1063481Y-440420D02*
D03*
X1057365Y-455185D02*
D03*
X477365D02*
D03*
X483481Y-440420D02*
D03*
X477365Y-425655D02*
D03*
X462600Y-419539D02*
D03*
X447835Y-425655D02*
D03*
X441719Y-440420D02*
D03*
X447835Y-455185D02*
D03*
X462600Y-461301D02*
D03*
Y28699D02*
D03*
X447835Y34815D02*
D03*
X441719Y49580D02*
D03*
X447835Y64345D02*
D03*
X462600Y70461D02*
D03*
X477365Y64345D02*
D03*
X483481Y49580D02*
D03*
X477365Y34815D02*
D03*
X1057365D02*
D03*
X1063481Y49580D02*
D03*
X1057365Y64345D02*
D03*
X1042600Y70461D02*
D03*
X1027835Y64345D02*
D03*
X1021719Y49580D02*
D03*
X1027835Y34815D02*
D03*
X1042600Y28699D02*
D03*
X1397365Y-675185D02*
D03*
X1403481Y-660420D02*
D03*
X1397365Y-645655D02*
D03*
X1382600Y-639539D02*
D03*
X1367835Y-645655D02*
D03*
X1361719Y-660420D02*
D03*
X1367835Y-675185D02*
D03*
X1382600Y-681301D02*
D03*
D122*
X48800Y-564420D02*
D03*
X-129000Y-399320D02*
D03*
X-221400Y59580D02*
D03*
Y-660420D02*
D03*
X409600Y-658420D02*
D03*
X1042600Y-440420D02*
D03*
X462600D02*
D03*
Y49580D02*
D03*
X1042600D02*
D03*
X1382600Y-660420D02*
D03*
D123*
X-236050Y17780D02*
D03*
Y-68620D02*
D03*
D124*
X-194250Y17780D02*
D03*
Y-68620D02*
D03*
D125*
X-199250Y3480D02*
D03*
Y-54320D02*
D03*
X1179000Y35330D02*
D03*
X1121200D02*
D03*
D126*
X304300Y-304300D02*
D03*
X-54300Y54300D02*
D03*
D127*
X255880Y67960D02*
D03*
X205880D02*
D03*
X342540Y-666630D02*
D03*
X292540D02*
D03*
D128*
X839400Y-491220D02*
D03*
X534920Y-436860D02*
D03*
X798760Y-8620D02*
D03*
X1017200Y-491220D02*
D03*
X768600Y-91420D02*
D03*
X755900Y-574020D02*
D03*
X1017200Y-8620D02*
D03*
X768600Y-320020D02*
D03*
D129*
X1323101Y-494418D02*
D03*
X1118600D02*
D03*
D130*
X1254900Y46880D02*
D03*
X1280300Y-16620D02*
D03*
Y8780D02*
D03*
Y34180D02*
D03*
X1254900Y-29320D02*
D03*
Y-3920D02*
D03*
Y21480D02*
D03*
D131*
X866900Y62280D02*
D03*
X917700D02*
D03*
X739900D02*
D03*
X816100Y36880D02*
D03*
X993900D02*
D03*
X663700Y62280D02*
D03*
X612900Y36880D02*
D03*
X562100Y62280D02*
D03*
X714500Y36880D02*
D03*
X993900Y62280D02*
D03*
X968500D02*
D03*
Y36880D02*
D03*
X943100Y62280D02*
D03*
Y36880D02*
D03*
X917700D02*
D03*
X892300Y62280D02*
D03*
Y36880D02*
D03*
X866900D02*
D03*
X841500Y62280D02*
D03*
Y36880D02*
D03*
X816100Y62280D02*
D03*
X790700D02*
D03*
Y36880D02*
D03*
X765300Y62280D02*
D03*
Y36880D02*
D03*
X739900D02*
D03*
X714500Y62280D02*
D03*
X689100D02*
D03*
Y36880D02*
D03*
X663700D02*
D03*
X638300Y62280D02*
D03*
Y36880D02*
D03*
X612900Y62280D02*
D03*
X587500D02*
D03*
Y36880D02*
D03*
X562100D02*
D03*
X536700Y62280D02*
D03*
Y36880D02*
D03*
X511300Y62280D02*
D03*
D132*
X1245000Y-662920D02*
D03*
X1140000D02*
D03*
X1175000D02*
D03*
X1210000D02*
D03*
X1315000D02*
D03*
X1280000D02*
D03*
D133*
X806700Y-574020D02*
D03*
Y-599420D02*
D03*
X578100Y-574020D02*
D03*
Y-599420D02*
D03*
X781300D02*
D03*
Y-574020D02*
D03*
X552700Y-599420D02*
D03*
Y-574020D02*
D03*
X603500Y-599420D02*
D03*
X628900D02*
D03*
X654300D02*
D03*
X679700D02*
D03*
X603500Y-574020D02*
D03*
X628900D02*
D03*
X654300D02*
D03*
X882900D02*
D03*
X857500D02*
D03*
X832100D02*
D03*
X908300Y-599420D02*
D03*
X882900D02*
D03*
X857500D02*
D03*
X832100D02*
D03*
D134*
X-104870Y-14510D02*
D03*
Y-49510D02*
D03*
D135*
X1392800Y-60820D02*
D03*
X1377600Y65680D02*
D03*
Y-35420D02*
D03*
X1392800Y40280D02*
D03*
D136*
X511300Y36880D02*
D03*
D137*
X679700Y-574020D02*
D03*
X908300D02*
D03*
D138*
X1343800Y59580D02*
D03*
Y-54720D02*
D03*
D139*
X1280300Y-42020D02*
D03*
D140*
X1313300Y81180D02*
D03*
Y-76320D02*
D03*
D141*
X1193300Y72130D02*
D03*
X1106900D02*
D03*
D142*
X1193300Y30330D02*
D03*
X1106900D02*
D03*
D143*
X540766Y-300228D02*
D03*
X525526D02*
D03*
X480822Y-196215D02*
D03*
X437388Y10668D02*
D03*
X478935Y-215791D02*
D03*
X548365Y-246290D02*
D03*
X-159258Y-550926D02*
D03*
X-104394D02*
D03*
X-90678Y-590550D02*
D03*
X-171704Y-606044D02*
D03*
X460756Y-139446D02*
D03*
X547116Y-290068D02*
D03*
X452628Y10668D02*
D03*
X546862Y-269240D02*
D03*
D144*
X499000Y-89250D02*
D03*
X510000D02*
D03*
X499000Y-100250D02*
D03*
X510000D02*
D03*
X499000Y-111250D02*
D03*
X510000D02*
D03*
X499000Y-122250D02*
D03*
X510000D02*
D03*
M02*
