G04*
G04 #@! TF.GenerationSoftware,Altium Limited,Altium Designer,24.10.1 (45)*
G04*
G04 Layer_Physical_Order=2*
G04 Layer_Color=36540*
%FSLAX44Y44*%
%MOMM*%
G71*
G04*
G04 #@! TF.SameCoordinates,ABE7D74E-C01C-4B96-B217-1A688C40366F*
G04*
G04*
G04 #@! TF.FilePolarity,Positive*
G04*
G01*
G75*
%ADD13C,0.2540*%
%ADD16C,0.3048*%
%ADD18C,0.1270*%
%ADD19C,0.2032*%
G04:AMPARAMS|DCode=123|XSize=1mm|YSize=1.8mm|CornerRadius=0.5mm|HoleSize=0mm|Usage=FLASHONLY|Rotation=270.000|XOffset=0mm|YOffset=0mm|HoleType=Round|Shape=RoundedRectangle|*
%AMROUNDEDRECTD123*
21,1,1.0000,0.8000,0,0,270.0*
21,1,0.0000,1.8000,0,0,270.0*
1,1,1.0000,-0.4000,0.0000*
1,1,1.0000,-0.4000,0.0000*
1,1,1.0000,0.4000,0.0000*
1,1,1.0000,0.4000,0.0000*
%
%ADD123ROUNDEDRECTD123*%
G04:AMPARAMS|DCode=124|XSize=1mm|YSize=2.1mm|CornerRadius=0.5mm|HoleSize=0mm|Usage=FLASHONLY|Rotation=270.000|XOffset=0mm|YOffset=0mm|HoleType=Round|Shape=RoundedRectangle|*
%AMROUNDEDRECTD124*
21,1,1.0000,1.1000,0,0,270.0*
21,1,0.0000,2.1000,0,0,270.0*
1,1,1.0000,-0.5500,0.0000*
1,1,1.0000,-0.5500,0.0000*
1,1,1.0000,0.5500,0.0000*
1,1,1.0000,0.5500,0.0000*
%
%ADD124ROUNDEDRECTD124*%
%ADD125C,0.6500*%
%ADD127C,0.9000*%
%ADD130C,1.3900*%
%ADD135C,1.5700*%
%ADD138C,3.2000*%
%ADD139R,1.3900X1.3900*%
%ADD140C,2.4500*%
G04:AMPARAMS|DCode=141|XSize=1mm|YSize=1.8mm|CornerRadius=0.5mm|HoleSize=0mm|Usage=FLASHONLY|Rotation=180.000|XOffset=0mm|YOffset=0mm|HoleType=Round|Shape=RoundedRectangle|*
%AMROUNDEDRECTD141*
21,1,1.0000,0.8000,0,0,180.0*
21,1,0.0000,1.8000,0,0,180.0*
1,1,1.0000,0.0000,0.4000*
1,1,1.0000,0.0000,0.4000*
1,1,1.0000,0.0000,-0.4000*
1,1,1.0000,0.0000,-0.4000*
%
%ADD141ROUNDEDRECTD141*%
G04:AMPARAMS|DCode=142|XSize=1mm|YSize=2.1mm|CornerRadius=0.5mm|HoleSize=0mm|Usage=FLASHONLY|Rotation=180.000|XOffset=0mm|YOffset=0mm|HoleType=Round|Shape=RoundedRectangle|*
%AMROUNDEDRECTD142*
21,1,1.0000,1.1000,0,0,180.0*
21,1,0.0000,2.1000,0,0,180.0*
1,1,1.0000,0.0000,0.5500*
1,1,1.0000,0.0000,0.5500*
1,1,1.0000,0.0000,-0.5500*
1,1,1.0000,0.0000,-0.5500*
%
%ADD142ROUNDEDRECTD142*%
%ADD145C,0.5080*%
%ADD146C,1.2700*%
%ADD147C,0.1524*%
%ADD150C,0.4750*%
%ADD151C,0.3750*%
G04:AMPARAMS|DCode=152|XSize=5.8mm|YSize=2.5mm|CornerRadius=1.25mm|HoleSize=0mm|Usage=FLASHONLY|Rotation=0.000|XOffset=0mm|YOffset=0mm|HoleType=Round|Shape=RoundedRectangle|*
%AMROUNDEDRECTD152*
21,1,5.8000,0.0000,0,0,0.0*
21,1,3.3000,2.5000,0,0,0.0*
1,1,2.5000,1.6500,0.0000*
1,1,2.5000,-1.6500,0.0000*
1,1,2.5000,-1.6500,0.0000*
1,1,2.5000,1.6500,0.0000*
%
%ADD152ROUNDEDRECTD152*%
G04:AMPARAMS|DCode=153|XSize=5.8mm|YSize=2.5mm|CornerRadius=1.25mm|HoleSize=0mm|Usage=FLASHONLY|Rotation=270.000|XOffset=0mm|YOffset=0mm|HoleType=Round|Shape=RoundedRectangle|*
%AMROUNDEDRECTD153*
21,1,5.8000,0.0000,0,0,270.0*
21,1,3.3000,2.5000,0,0,270.0*
1,1,2.5000,0.0000,-1.6500*
1,1,2.5000,0.0000,1.6500*
1,1,2.5000,0.0000,1.6500*
1,1,2.5000,0.0000,-1.6500*
%
%ADD153ROUNDEDRECTD153*%
G04:AMPARAMS|DCode=154|XSize=6.5mm|YSize=2.5mm|CornerRadius=1.25mm|HoleSize=0mm|Usage=FLASHONLY|Rotation=270.000|XOffset=0mm|YOffset=0mm|HoleType=Round|Shape=RoundedRectangle|*
%AMROUNDEDRECTD154*
21,1,6.5000,0.0000,0,0,270.0*
21,1,4.0000,2.5000,0,0,270.0*
1,1,2.5000,0.0000,-2.0000*
1,1,2.5000,0.0000,2.0000*
1,1,2.5000,0.0000,2.0000*
1,1,2.5000,0.0000,-2.0000*
%
%ADD154ROUNDEDRECTD154*%
%ADD155C,2.2000*%
%ADD156C,1.5000*%
%ADD157R,1.5000X1.5000*%
%ADD158C,0.3556*%
%ADD159C,5.3000*%
%ADD160C,7.0000*%
%ADD161R,1.5000X1.5000*%
%ADD162C,0.6000*%
%ADD163C,1.7000*%
%ADD164C,1.9000*%
%ADD165C,1.7272*%
%ADD166C,1.2000*%
%ADD167R,1.7000X1.7000*%
%ADD168R,1.6764X1.6764*%
%ADD169C,0.6096*%
%ADD170C,0.4064*%
%ADD171C,1.1430*%
%ADD172C,0.6000*%
%ADD173C,0.5000*%
D13*
X-178562Y-18796D02*
X-178482Y-18876D01*
Y-27746D02*
Y-18876D01*
X-178169Y-32788D02*
X-174462D01*
X-172974Y-31300D02*
Y-23114D01*
X-174462Y-32788D02*
X-172974Y-31300D01*
X-178460Y-33080D02*
X-178169Y-32788D01*
X1244850Y-108674D02*
Y-58400D01*
X1248660Y-110252D02*
Y-59978D01*
X1103084Y3305D02*
X1105660Y729D01*
X1116885D01*
X1103084Y3305D02*
Y7276D01*
X1104172Y8364D01*
Y11404D01*
X1111936Y19168D01*
X1158059Y10920D02*
Y14968D01*
X1157944Y15083D02*
X1158059Y14968D01*
Y10920D02*
X1171190Y-2212D01*
X1157653Y15374D02*
X1157944Y15083D01*
X1171190Y-34796D02*
Y-2212D01*
X1152433Y16232D02*
X1152725Y15940D01*
X1148833Y19832D02*
X1152433Y16232D01*
X1117915Y7992D02*
X1117915D01*
X1121041Y19168D02*
X1125515Y23642D01*
X1107656Y5383D02*
X1115305D01*
X1116885Y729D02*
X1120900Y4744D01*
X1115305Y5383D02*
X1117915Y7992D01*
X1111936Y19168D02*
X1121041D01*
X1121188Y11265D02*
Y13927D01*
X1117915Y7992D02*
X1121188Y11265D01*
X1120900Y4744D02*
X1121132D01*
X1121188Y13927D02*
X1127093Y19832D01*
X1159887Y-100310D02*
Y-46099D01*
X1154553Y-46045D02*
X1167380Y-33218D01*
X1154553Y-100310D02*
Y-46045D01*
X1293600Y-69340D02*
Y-32440D01*
X1261886Y-95666D02*
X1289790Y-67762D01*
X1265696Y-97244D02*
X1293600Y-69340D01*
X1286232Y-30460D02*
X1289790Y-34018D01*
Y-67762D02*
Y-34018D01*
X1287810Y-26650D02*
X1293600Y-32440D01*
X1125515Y23642D02*
X1151489D01*
X1127093Y19832D02*
X1148833D01*
X1151489Y23642D02*
X1157653Y17478D01*
X1155950Y6152D02*
X1167380Y-5278D01*
Y-33218D02*
Y-5278D01*
X1155950Y6152D02*
Y7640D01*
X1157653Y15374D02*
Y17478D01*
X1261886Y-107610D02*
Y-95666D01*
X1265696Y-106032D02*
Y-97244D01*
X1268980Y-144016D02*
Y-109316D01*
X1265696Y-106032D02*
X1268980Y-109316D01*
X1255072Y-157924D02*
X1268980Y-144016D01*
X1152725Y10865D02*
Y15940D01*
Y10865D02*
X1155950Y7640D01*
X1159887Y-46099D02*
X1171190Y-34796D01*
X1254900Y21480D02*
X1265170Y11210D01*
X1277226Y-16620D02*
X1280300D01*
X1265170Y-24944D02*
Y11210D01*
X1268980Y-23366D02*
Y-11410D01*
X1272016D02*
X1277226Y-16620D01*
X1268980Y-11410D02*
X1272016D01*
X1268980Y-23366D02*
X1272264Y-26650D01*
X1287810D01*
X1270686Y-30460D02*
X1286232D01*
X1265170Y-24944D02*
X1270686Y-30460D01*
X1261886Y-107610D02*
X1265170Y-110894D01*
Y-142438D02*
Y-110894D01*
X1249738Y-157870D02*
X1265170Y-142438D01*
X1255072Y-163810D02*
Y-157924D01*
X1249738Y-163810D02*
Y-157870D01*
X1237230Y-158512D02*
Y-155972D01*
X1236299Y-159443D02*
X1237230Y-158512D01*
X1236299Y-164788D02*
Y-159443D01*
X1232150Y-145504D02*
X1241342Y-154696D01*
Y-165080D02*
Y-154696D01*
X1228340Y-147082D02*
X1237230Y-155972D01*
X1236008Y-165080D02*
X1236299Y-164788D01*
X1228340Y-147082D02*
Y-125184D01*
X1232150Y-145504D02*
Y-126762D01*
X1228340Y-125184D02*
X1244850Y-108674D01*
X1232150Y-126762D02*
X1248660Y-110252D01*
Y-59978D02*
X1256434Y-52204D01*
X1244850Y-58400D02*
X1254900Y-48350D01*
X1256434Y-52204D02*
X1270116D01*
X1254900Y-48350D02*
Y-29320D01*
X1270116Y-52204D02*
X1280300Y-42020D01*
D16*
X1229600Y-8420D02*
X1230600Y-9420D01*
Y-56420D02*
Y-9420D01*
X1211600Y-75420D02*
X1230600Y-56420D01*
X1211600Y-113420D02*
Y-75420D01*
X1206600Y-118420D02*
X1211600Y-113420D01*
X1206600Y-153420D02*
Y-118420D01*
Y-153420D02*
X1222600Y-169420D01*
X900112Y-688372D02*
X891648D01*
X900112Y-679908D01*
Y-677792D01*
X897996Y-675676D01*
X893764D01*
X891648Y-677792D01*
D18*
X103378Y-365760D02*
X105664Y-368046D01*
Y-368554D02*
Y-368046D01*
X47244Y-268748D02*
X48895Y-267097D01*
X47244Y-337586D02*
Y-268748D01*
X48895Y-255397D02*
X50038Y-254254D01*
X48895Y-267097D02*
Y-255397D01*
X42799Y-342031D02*
X47244Y-337586D01*
X8128Y-237230D02*
X8523Y-236835D01*
X1651Y-261509D02*
Y-241429D01*
X8523Y-236835D02*
Y-232825D01*
X4191Y-251587D02*
X9271Y-256667D01*
X-17526Y-111542D02*
X2777Y-131845D01*
X-1891Y-237887D02*
X1651Y-241429D01*
X8128Y-251460D02*
Y-237230D01*
Y-232430D02*
X8523Y-232825D01*
X-4431Y-238939D02*
Y-231469D01*
X-1891Y-237887D02*
Y-232521D01*
X4191Y-251587D02*
Y-240377D01*
X-2303Y-229341D02*
Y-136241D01*
X237Y-230393D02*
Y-132897D01*
X11063Y-248589D02*
Y-132447D01*
X649Y-236835D02*
X4191Y-240377D01*
X2777Y-231445D02*
Y-131845D01*
X649Y-236835D02*
Y-233573D01*
X-1891Y-232521D02*
X237Y-230393D01*
X649Y-233573D02*
X2777Y-231445D01*
X8128Y-232430D02*
Y-133604D01*
X-4431Y-238939D02*
X-2303Y-241067D01*
Y-255781D02*
Y-241067D01*
X-4431Y-231469D02*
X-2303Y-229341D01*
X-20066Y-112594D02*
X237Y-132897D01*
X-14986Y-110490D02*
X8128Y-133604D01*
Y-251460D02*
X11811Y-255143D01*
X59690Y-240792D02*
Y-187315D01*
Y-182509D02*
X60041Y-182860D01*
Y-186964D02*
Y-182860D01*
X59690Y-187315D02*
X60041Y-186964D01*
X59690Y-182509D02*
Y-150114D01*
X638683Y-55372D02*
X659511Y-34544D01*
Y-34417D01*
X664995Y-81557D02*
X672900D01*
X675368Y-79089D01*
X676000D01*
X677426Y-84859D02*
X680951D01*
X681363Y-84447D01*
X641598Y-85494D02*
X676791D01*
X677426Y-84859D01*
X662178Y-78740D02*
X664995Y-81557D01*
X606298Y-120794D02*
X641598Y-85494D01*
X-11196Y-70485D02*
X47625D01*
X-11831Y-69850D02*
X-11196Y-70485D01*
X-21862Y-69850D02*
X-11831D01*
X47625Y-70485D02*
X48260Y-69850D01*
X725837Y-198787D02*
X836789D01*
X729136Y-209550D02*
X803432D01*
X731342Y-193294D02*
X903882D01*
X553755Y-230124D02*
X682096D01*
X600944Y-619125D02*
X958179D01*
X1054862Y-624586D02*
X1108821Y-570627D01*
X595324Y-613791D02*
X770039D01*
X770293Y-614045D01*
X948080Y-616585D02*
X972436Y-592229D01*
X605008Y-621665D02*
X605389Y-622046D01*
X350540Y-626979D02*
X597067D01*
X598226Y-621665D02*
X605008D01*
X532257Y-614045D02*
X595070D01*
X603956Y-624205D02*
X604337Y-624586D01*
X328188Y-622046D02*
X597845D01*
X770293Y-614045D02*
X945007D01*
X601996Y-616585D02*
X948080D01*
X478739Y-630015D02*
X480803Y-632079D01*
X958179Y-619125D02*
X972784Y-604520D01*
X600690Y-618871D02*
X600944Y-619125D01*
X945007Y-614045D02*
X947309Y-611743D01*
X1054735Y-632079D02*
X1116042Y-570772D01*
X526796Y-608584D02*
X532257Y-614045D01*
X597067Y-626979D02*
X599841Y-624205D01*
X604337Y-624586D02*
X1054862D01*
X597845Y-622046D02*
X598226Y-621665D01*
X480803Y-632079D02*
X1054735D01*
X601742Y-616331D02*
X601996Y-616585D01*
X595070Y-614045D02*
X595324Y-613791D01*
X599841Y-624205D02*
X603956D01*
X350788Y-634360D02*
X355133Y-630015D01*
X478739D01*
X595741Y-616966D02*
X596376Y-616331D01*
X605389Y-622046D02*
X958850D01*
X596793Y-619506D02*
X597428Y-618871D01*
X600690D01*
X318516Y-619506D02*
X596793D01*
X316012Y-616966D02*
X595741D01*
X596376Y-616331D02*
X601742D01*
X958850Y-622046D02*
X973074Y-607822D01*
X324104Y-624967D02*
X325267D01*
X328188Y-622046D01*
X-20701Y-117843D02*
Y-116733D01*
Y-117843D02*
X-2303Y-136241D01*
X-22606Y-114828D02*
X-20701Y-116733D01*
X-22606Y-114828D02*
Y-70594D01*
X-21862Y-69850D01*
X1402Y-261757D02*
X1651Y-261509D01*
X1402Y-266091D02*
X5207Y-269895D01*
X-2667Y-273157D02*
Y-268080D01*
X5207Y-278003D02*
Y-269895D01*
X-2667Y-268080D02*
X-2303Y-267716D01*
X1402Y-266091D02*
Y-261757D01*
X5207Y-278003D02*
X8636Y-281432D01*
X-1270Y-288798D02*
Y-274554D01*
X-2667Y-273157D02*
X-1270Y-274554D01*
X-52832Y-120396D02*
Y-34290D01*
X-15080Y-154460D02*
X-14831Y-154710D01*
X-52832Y-120396D02*
X-18768Y-154460D01*
X-15080D01*
X8128Y1524D02*
Y42418D01*
X1524Y-5080D02*
X8128Y1524D01*
X-11706Y-5080D02*
X1524D01*
X-27062Y-20436D02*
X-11706Y-5080D01*
X-26786Y-26532D02*
X-10414Y-10160D01*
X50508D01*
X55080Y-5588D02*
X55372D01*
X50508Y-10160D02*
X55080Y-5588D01*
X-33158Y-26532D02*
X-26786D01*
X-27167Y-31993D02*
X-15641Y-20467D01*
X-42683Y-36057D02*
X-36322Y-42418D01*
X-38619Y-31993D02*
X-27167D01*
X-15641Y-20467D02*
X64686D01*
X-36322Y-42418D02*
X5080D01*
X-52832Y-34290D02*
X889Y19431D01*
X19558Y-250936D02*
Y-246360D01*
X19050Y-258552D02*
X19685Y-257917D01*
X17379Y-252349D02*
X19685Y-254655D01*
X5842Y-319786D02*
X14117Y-311511D01*
X19558Y-250936D02*
X22225Y-253603D01*
X22098Y-259096D02*
X22225Y-258969D01*
X14823Y-252349D02*
X17379D01*
X11811Y-257917D02*
X14117Y-260223D01*
X11811Y-257917D02*
Y-255143D01*
X9271Y-258969D02*
X11536Y-261234D01*
X11063Y-248589D02*
X14823Y-252349D01*
X22098Y-289072D02*
Y-259096D01*
X11536Y-264015D02*
Y-261234D01*
X19050Y-311388D02*
Y-258552D01*
X19685Y-257917D02*
Y-254655D01*
X14117Y-311511D02*
Y-260223D01*
X9271Y-258969D02*
Y-256667D01*
X22225Y-258969D02*
Y-253603D01*
X19558Y-242844D02*
X19685Y-242971D01*
X19558Y-242844D02*
Y-171704D01*
Y-246360D02*
X19685Y-246233D01*
Y-242971D01*
X11176Y-264375D02*
X11536Y-264015D01*
X11176Y-307848D02*
Y-264375D01*
X-2303Y-255781D02*
X-889Y-257195D01*
Y-260457D02*
Y-257195D01*
X-2303Y-261871D02*
X-889Y-260457D01*
X-2303Y-267716D02*
Y-261871D01*
X1210300Y-612120D02*
X1333658D01*
X1363958Y-581820D01*
X1194050Y-595870D02*
X1210300Y-612120D01*
X1251600Y-601420D02*
X1264856D01*
X1265600Y-600676D01*
Y-550320D01*
X1242437Y-581257D02*
X1251600Y-590420D01*
X1210650Y-618470D02*
X1359412D01*
X1175000Y-582820D02*
X1210650Y-618470D01*
X1359412D02*
X1386062Y-591820D01*
X1143508Y-403860D02*
X1143762Y-403606D01*
X1150322D01*
X1143000Y-403860D02*
X1143508D01*
X1089660Y-347218D02*
X1131316D01*
X1145286Y-361188D01*
X1038600Y-296158D02*
X1089660Y-347218D01*
X1136251Y-394407D02*
X1141212D01*
X1144332Y-391287D01*
X1149941D01*
X1133094Y-397002D02*
X1133656D01*
X1136251Y-394407D01*
X1107202Y-241316D02*
X1139392D01*
X1142222Y-238486D02*
X1166348D01*
X1139392Y-241316D02*
X1142222Y-238486D01*
X566801Y-55479D02*
X567690Y-56368D01*
X487117Y-186055D02*
X567690Y-105482D01*
X566801Y-29591D02*
X582105Y-14287D01*
X567690Y-105482D02*
Y-56368D01*
X564261Y-27820D02*
X579565Y-12516D01*
X566801Y-55479D02*
Y-29591D01*
X564261Y-56531D02*
X565150Y-57420D01*
X564261Y-56531D02*
Y-27820D01*
X565150Y-104430D02*
Y-57420D01*
X486065Y-183515D02*
X565150Y-104430D01*
X560755Y-56617D02*
Y-4724D01*
Y-56617D02*
X562610Y-58472D01*
Y-103378D02*
Y-58472D01*
X555117Y-92512D02*
Y-86304D01*
X550037Y-84816D02*
Y-51963D01*
X548386Y-50312D02*
Y762D01*
Y-50312D02*
X550037Y-51963D01*
X553212Y-94417D02*
X555117Y-92512D01*
X553212Y-84399D02*
X555117Y-86304D01*
X553212Y-84399D02*
Y-1016D01*
X290406Y-134224D02*
X300961Y-144780D01*
X275445Y-134224D02*
X290406D01*
X274910Y-134759D02*
X275445Y-134224D01*
X627666Y-313448D02*
X627781Y-313563D01*
X656208Y-312926D02*
X656845Y-313563D01*
X644620Y-312926D02*
X656208D01*
X656845Y-313563D02*
X668434D01*
X643983D02*
X644620Y-312926D01*
X627781Y-313563D02*
X643983D01*
X620644Y-313448D02*
X627666D01*
X668434Y-313563D02*
X669275Y-312722D01*
X464820Y-101092D02*
X477520Y-88392D01*
X433070Y-101092D02*
X464820D01*
X465074Y-104902D02*
X481076Y-88900D01*
X430042Y-89408D02*
X430403D01*
X426486Y-85852D02*
X430042Y-89408D01*
X432471Y-73025D02*
X444536Y-85090D01*
X454985D01*
X434594Y-78740D02*
X443484Y-87630D01*
X456037D01*
X451412Y-313926D02*
X470154Y-295184D01*
X424815Y-312039D02*
X426702Y-313926D01*
X334498Y-327787D02*
X350246Y-312039D01*
X424815D01*
X426702Y-313926D02*
X451412D01*
X640768Y-235532D02*
X652092D01*
X572262Y-304038D02*
X640768Y-235532D01*
X652092D02*
X652526Y-235966D01*
X693801D01*
X632460Y-251714D02*
X640461Y-243713D01*
X636735Y-273185D02*
X638108Y-274557D01*
X635000Y-253238D02*
X640842Y-247396D01*
X632460Y-268922D02*
X636723Y-273185D01*
X636735D01*
X632460Y-268922D02*
Y-251714D01*
X635000Y-265894D02*
X638354Y-269248D01*
X635000Y-265894D02*
Y-253238D01*
X638108Y-274557D02*
X638864D01*
X609554Y-324538D02*
X620644Y-313448D01*
X719994Y-320838D02*
X736201Y-337045D01*
X612094Y-325782D02*
X615042Y-322834D01*
X681813Y-317802D02*
X720550D01*
X617174Y-328532D02*
X654627D01*
X677736Y-317500D02*
X681511D01*
X677434Y-317802D02*
X677736Y-317500D01*
X671379Y-317802D02*
X677434D01*
X655475Y-320500D02*
X665089D01*
X616094Y-325374D02*
X654193D01*
X681511Y-317500D02*
X681813Y-317802D01*
X653141Y-322834D02*
X655475Y-320500D01*
X691428Y-325374D02*
X695964Y-320838D01*
X656527Y-323040D02*
X666141D01*
X695964Y-320838D02*
X719994D01*
X667193Y-325580D02*
X667399Y-325374D01*
X615042Y-322834D02*
X653141D01*
X614634Y-326834D02*
X616094Y-325374D01*
X667399D02*
X691428D01*
X657579Y-325580D02*
X667193D01*
X654193Y-325374D02*
X656527Y-323040D01*
X654627Y-328532D02*
X657579Y-325580D01*
X676190Y-315262D02*
X677969Y-313483D01*
X676917Y-310943D02*
X682283D01*
X684062Y-312722D02*
X724172D01*
X682283Y-310943D02*
X684062Y-312722D01*
X669275D02*
X675138D01*
X681231Y-313483D02*
X683010Y-315262D01*
X723120D01*
X675138Y-312722D02*
X676917Y-310943D01*
X670327Y-315262D02*
X676190D01*
X677969Y-313483D02*
X681231D01*
X666141Y-323040D02*
X671379Y-317802D01*
X665089Y-320500D02*
X670327Y-315262D01*
X610969Y-334737D02*
X617174Y-328532D01*
X333004Y-327787D02*
X334498D01*
X321080Y-341205D02*
X329819Y-332466D01*
Y-330973D01*
X333004Y-327787D01*
X315175Y-353038D02*
X345835D01*
X324866Y-357886D02*
X327174Y-355578D01*
X356393D01*
X357514Y-354457D01*
X310662Y-344932D02*
X316228Y-350498D01*
X345835Y-353038D02*
X348601Y-350271D01*
X342668Y-350498D02*
X352425Y-340741D01*
X316228Y-350498D02*
X342668D01*
X310135Y-347998D02*
X315175Y-353038D01*
X348601Y-350271D02*
X379979D01*
X357514Y-354457D02*
X386733D01*
X379979Y-350271D02*
X408940Y-321310D01*
X352425Y-340741D02*
X382942D01*
X265684Y-354838D02*
X268750Y-357904D01*
X309519Y-357886D02*
X324866D01*
X281071Y-348615D02*
X281688Y-347998D01*
X252623Y-348615D02*
X281071D01*
X310317Y-360680D02*
X310571Y-360426D01*
X317530D02*
X322834Y-365729D01*
X281688Y-347998D02*
X310135D01*
X247924Y-343916D02*
X252623Y-348615D01*
X268750Y-357904D02*
X309501D01*
X310571Y-360426D02*
X317530D01*
X309501Y-357904D02*
X309519Y-357886D01*
X267934Y-360680D02*
X310317D01*
X260477Y-344932D02*
X310662D01*
X256286Y-340741D02*
X260477Y-344932D01*
X193441Y-309104D02*
X196703D01*
X199009Y-311411D01*
Y-312467D02*
Y-311411D01*
X186690Y-311150D02*
X191396D01*
X193441Y-309104D01*
X116840Y-317500D02*
X129667Y-330327D01*
X292606Y-341205D02*
X321080D01*
X108458Y-362188D02*
X112395Y-366125D01*
X109347Y-367411D02*
X109855Y-367919D01*
X110998Y-361136D02*
Y-347182D01*
X115241Y-365379D02*
X115423D01*
X105918Y-363982D02*
X106299Y-364363D01*
X112395Y-367163D02*
Y-366125D01*
X109347Y-367411D02*
Y-366669D01*
X106299Y-364363D02*
X107041D01*
X109347Y-366669D01*
X112395Y-367163D02*
X113792Y-368560D01*
X108458Y-362188D02*
Y-348234D01*
X113792Y-369316D02*
Y-368560D01*
X110998Y-361136D02*
X115241Y-365379D01*
X412750Y-486410D02*
X414274Y-484886D01*
Y-424434D01*
X498963Y-519977D02*
X549639D01*
X413512Y-513227D02*
Y-498094D01*
X494050Y-524891D02*
X498963Y-519977D01*
X425176Y-524891D02*
X494050D01*
X413512Y-513227D02*
X425176Y-524891D01*
X435102Y-501142D02*
X435864D01*
X494411Y-501523D02*
X495681D01*
X435737D02*
X494411D01*
X495046Y-502158D01*
X494284Y-501396D02*
X494411Y-501523D01*
X435610Y-501650D02*
X435737Y-501523D01*
X495681D02*
X495808Y-501396D01*
X424942Y-490982D02*
X435102Y-501142D01*
X249174Y-490982D02*
X424942D01*
X246126Y-487934D02*
X249174Y-490982D01*
X516890Y-415143D02*
X586375D01*
X494284Y-501396D02*
Y-437749D01*
X516890Y-415143D01*
X250083Y-335534D02*
X256052Y-329565D01*
X267395Y-321123D02*
Y-289014D01*
X236236Y-335534D02*
X250083D01*
X238201Y-329263D02*
X243360Y-324104D01*
X256052Y-329565D02*
X258953D01*
X243360Y-324104D02*
X257230D01*
X235673Y-327787D02*
X237149Y-329263D01*
X238201D01*
X659511Y-247650D02*
X669153D01*
X669671Y-247132D01*
X671302Y-243195D02*
X673608Y-245501D01*
X669778Y-243195D02*
X671302D01*
X673608Y-247025D02*
Y-245501D01*
Y-247025D02*
X673715Y-247132D01*
X699517Y-182901D02*
X702437Y-179981D01*
X698891Y-182901D02*
X699517D01*
X697054Y-184737D02*
X698891Y-182901D01*
X696156Y-184737D02*
X697054D01*
X681483Y-204978D02*
X694753Y-191709D01*
X681665Y-208389D02*
X695369Y-194684D01*
X696893D02*
X710598Y-180979D01*
X697111Y-198059D02*
X711650Y-183519D01*
X680866Y-219964D02*
X696548Y-204282D01*
X698072D02*
X713755Y-188599D01*
X699911Y-213219D02*
X716817Y-196313D01*
X712702Y-186059D02*
X715384D01*
X680615Y-200279D02*
X696156Y-184737D01*
X715859Y-193679D02*
X718540D01*
X696004Y-201234D02*
X697528D01*
X699124Y-206822D02*
X714807Y-191139D01*
X700176Y-209362D02*
X715859Y-193679D01*
X681048Y-212598D02*
X695587Y-198059D01*
X697600Y-206822D02*
X699124D01*
X709546Y-178439D02*
X712228D01*
X714807Y-191139D02*
X717488D01*
X696277Y-191709D02*
X709546Y-178439D01*
X681918Y-222504D02*
X697600Y-206822D01*
X696548Y-204282D02*
X698072D01*
X695587Y-198059D02*
X697111D01*
X711650Y-183519D02*
X714332D01*
X699001Y-213219D02*
X699911D01*
X682096Y-230124D02*
X699001Y-213219D01*
X695369Y-194684D02*
X696893D01*
X716817Y-196313D02*
X723363D01*
X682970Y-225044D02*
X698652Y-209362D01*
X694753Y-191709D02*
X696277D01*
X697528Y-201234D02*
X712702Y-186059D01*
X713755Y-188599D02*
X716436D01*
X680830Y-216408D02*
X696004Y-201234D01*
X698652Y-209362D02*
X700176D01*
X710598Y-180979D02*
X713280D01*
X665998Y-243713D02*
X666516Y-243195D01*
X640461Y-243713D02*
X665998D01*
X666516Y-243195D02*
X669778D01*
X699379Y-247396D02*
X731959D01*
X735888Y-243467D01*
X673715Y-247132D02*
X699115D01*
X699379Y-247396D01*
X638556Y-62288D02*
X638683Y-62161D01*
Y-55372D01*
X477666Y-188595D02*
X505028D01*
X593090Y-100533D01*
Y-39624D01*
X719836Y-200250D02*
X729136Y-209550D01*
X714332Y-183519D02*
X721614Y-176237D01*
X717488Y-191139D02*
X744925Y-163703D01*
X718540Y-193679D02*
X745977Y-166243D01*
X712228Y-178439D02*
X715899Y-174768D01*
X713280Y-180979D02*
X719074Y-175185D01*
X723363Y-196313D02*
X725837Y-198787D01*
X716436Y-188599D02*
X726694Y-178342D01*
X715384Y-186059D02*
X724154Y-177290D01*
X696511Y-221277D02*
X696827Y-220960D01*
X923742D01*
X644760Y-78740D02*
X662178D01*
X727309Y-192659D02*
X730707D01*
X726938Y-192288D02*
X727309Y-192659D01*
X560755Y-4724D02*
X571194Y5715D01*
X550037Y-103759D02*
Y-94000D01*
X552577Y-91460D01*
X550037Y-84816D02*
X552577Y-87356D01*
X504825Y-148971D02*
X550037Y-103759D01*
X693801Y-235966D02*
X701167Y-243332D01*
X552958Y-304038D02*
X572262D01*
X537509Y-327031D02*
X539038Y-325501D01*
X472440Y-359156D02*
X497840D01*
X537509Y-328448D02*
Y-327031D01*
X539038Y-325501D02*
X542651D01*
X497840Y-359156D02*
X552958Y-304038D01*
X265196Y-190500D02*
X272561D01*
X164189Y-219097D02*
X236599D01*
X265196Y-190500D01*
X269621Y-216297D02*
Y-208174D01*
X268296Y-205907D02*
Y-195937D01*
X267081Y-207122D02*
X268296Y-205907D01*
X267081Y-215245D02*
Y-207122D01*
X270836Y-206959D02*
Y-197794D01*
X268296Y-195937D02*
X271193Y-193040D01*
X270836Y-197794D02*
X272988Y-195642D01*
X269621Y-208174D02*
X270836Y-206959D01*
X263946Y-183073D02*
Y-176938D01*
X259588Y-172580D02*
X263946Y-176938D01*
X259588Y-172580D02*
Y-160020D01*
X252990Y-184398D02*
X255356D01*
X259588Y-187432D02*
X263946Y-183073D01*
X255356Y-184398D02*
X260009Y-179745D01*
X248451Y-188937D02*
X252990Y-184398D01*
X259588Y-187706D02*
Y-187432D01*
X237236Y-210058D02*
X259588Y-187706D01*
X314904Y-92528D02*
X314944Y-92488D01*
X368487D01*
X370043Y-90932D01*
X422910D01*
X297942Y-188976D02*
Y-175514D01*
X449870Y-272288D02*
X459232D01*
X458359Y-176149D02*
X458613Y-175895D01*
X439781D02*
X452739D01*
X452993Y-176149D01*
X454660Y-169418D02*
X455422D01*
X455676Y-169672D01*
X452993Y-176149D02*
X458359D01*
X454045Y-173609D02*
X457307D01*
X440924Y-173228D02*
X453664D01*
X454045Y-173609D01*
X457307D02*
X457688Y-173228D01*
X458613Y-175895D02*
X486283D01*
X457688Y-173228D02*
X484378D01*
X453390Y-170688D02*
X454660Y-169418D01*
X453834Y-145732D02*
X475742Y-167640D01*
X407352Y-145732D02*
X453834D01*
X475742Y-167640D02*
X486374D01*
X476195Y-186055D02*
X487117D01*
X475143Y-183515D02*
X486065D01*
X442216Y-200152D02*
X462098D01*
X474091Y-180975D02*
X485013D01*
X441164Y-202692D02*
X463569D01*
X443268Y-197612D02*
X461046D01*
X463569Y-202692D02*
X477666Y-188595D01*
X461046Y-197612D02*
X475143Y-183515D01*
X459994Y-195072D02*
X474091Y-180975D01*
X444320Y-195072D02*
X459994D01*
X462098Y-200152D02*
X476195Y-186055D01*
X486283Y-175895D02*
X514477Y-147701D01*
X437241Y-178435D02*
X439781Y-175895D01*
X431546Y-204216D02*
X433106Y-202656D01*
X310634Y-192008D02*
X323290D01*
X327038Y-199348D02*
X327805Y-200116D01*
X328857Y-197575D02*
X443231D01*
X323290Y-192008D02*
X328857Y-197575D01*
X327805Y-200116D02*
X442179D01*
X311254Y-199348D02*
X327038D01*
X307340Y-185420D02*
X320294D01*
X329910Y-195035D02*
X444283D01*
X320294Y-185420D02*
X329910Y-195035D01*
X433106Y-202656D02*
X441127D01*
X441164Y-202692D01*
X442179Y-200116D02*
X442216Y-200152D01*
X443231Y-197575D02*
X443268Y-197612D01*
X444283Y-195035D02*
X444320Y-195072D01*
X408654Y-219488D02*
X465532D01*
X402039Y-226123D02*
X407680Y-220482D01*
X407670Y-220472D02*
X408654Y-219488D01*
X160422Y-179578D02*
X228600D01*
X441976Y-170688D02*
X453390D01*
X486374Y-167640D02*
X504825Y-149189D01*
Y-148971D01*
X552577Y-91460D02*
Y-87356D01*
X484378Y-173228D02*
X553212Y-104394D01*
X438801Y-167513D02*
X441976Y-170688D01*
X449570Y-165979D02*
X449834Y-166243D01*
X449570Y-165979D02*
Y-158058D01*
X327188Y-147320D02*
X333538Y-153670D01*
X445305D01*
X343789Y-167513D02*
X438801D01*
X373624Y-170053D02*
X437749D01*
X370830Y-172847D02*
X373624Y-170053D01*
X437749D02*
X440924Y-173228D01*
X294876Y-170815D02*
X309479D01*
X294005Y-185547D02*
Y-171686D01*
X311511Y-172847D02*
X370830D01*
X294005Y-171686D02*
X294876Y-170815D01*
X309479D02*
X311511Y-172847D01*
X315087Y-178435D02*
X437241D01*
X445305Y-153670D02*
X448497Y-156862D01*
X326136Y-149860D02*
X343789Y-167513D01*
X329383Y-145923D02*
X407162D01*
X257266Y-147320D02*
X327188D01*
X300961Y-144780D02*
X328240D01*
X329383Y-145923D01*
X258318Y-149860D02*
X326136D01*
X251896Y-149098D02*
X256214Y-144780D01*
X262128D01*
X153398Y-149098D02*
X251896D01*
X262128Y-144780D02*
X265938Y-140970D01*
X228600Y-179578D02*
X258318Y-149860D01*
X252948Y-151638D02*
X257266Y-147320D01*
X237490Y-151638D02*
X252948D01*
X359280Y-273304D02*
X447294D01*
X348527Y-270891D02*
X358101D01*
X348400Y-270764D02*
X348527Y-270891D01*
X358101D02*
X358228Y-270764D01*
X323557Y-266954D02*
X348182D01*
X349579Y-268351D01*
X351683Y-263271D02*
X354945D01*
X321453Y-261874D02*
X350286D01*
X347348Y-273304D02*
X347475Y-273431D01*
X358446Y-266954D02*
X422728D01*
X349579Y-268351D02*
X357049D01*
X357394Y-264414D02*
X421676D01*
X349234D02*
X350631Y-265811D01*
X359153Y-273431D02*
X359280Y-273304D01*
X350631Y-265811D02*
X355997D01*
X338800Y-270764D02*
X348400D01*
X347475Y-273431D02*
X359153D01*
X354945Y-263271D02*
X356342Y-261874D01*
X355997Y-265811D02*
X357394Y-264414D01*
X339852Y-273304D02*
X347348D01*
X350286Y-261874D02*
X351683Y-263271D01*
X357049Y-268351D02*
X358446Y-266954D01*
X358228Y-270764D02*
X448346D01*
X322505Y-264414D02*
X349234D01*
X356342Y-261874D02*
X412262D01*
X291617Y-187935D02*
X294005Y-185547D01*
X296443Y-190475D02*
X297942Y-188976D01*
X263017Y-264287D02*
X267843Y-259461D01*
X260477Y-263235D02*
X266791Y-256921D01*
X257937Y-262183D02*
X265739Y-254381D01*
X260711Y-238921D02*
X264531D01*
X255397Y-261131D02*
X264687Y-251841D01*
X267079D01*
X262857Y-246761D02*
X264975D01*
X266791Y-256921D02*
X269183D01*
X265739Y-254381D02*
X268131D01*
X262549Y-246795D02*
X262823D01*
X260337Y-215570D02*
X263144Y-212763D01*
X247821Y-228937D02*
X260337Y-216421D01*
X255865Y-240175D02*
X259659Y-236381D01*
X258405Y-241227D02*
X260711Y-238921D01*
X259659Y-236381D02*
X260859D01*
X266027Y-249301D02*
X269875Y-245453D01*
X260859Y-236381D02*
X268224Y-229016D01*
X255346Y-229660D02*
Y-226980D01*
X267843Y-259461D02*
X270235D01*
X253518Y-231488D02*
X255346Y-229660D01*
X267079Y-251841D02*
X272415Y-246505D01*
X250571Y-250029D02*
X258405Y-242196D01*
X264531Y-238921D02*
X276529Y-226923D01*
X255865Y-241143D02*
Y-240175D01*
X268131Y-254381D02*
X274237Y-248275D01*
X260337Y-216421D02*
Y-215570D01*
X262823Y-246795D02*
X262857Y-246761D01*
X269183Y-256921D02*
X269818Y-256286D01*
X264975Y-246761D02*
X267335Y-244401D01*
X258405Y-242196D02*
Y-241227D01*
X253518Y-231876D02*
Y-231488D01*
X270235Y-259461D02*
X270870Y-258826D01*
X263635Y-249301D02*
X266027D01*
X250317Y-259027D02*
X262549Y-246795D01*
X245237Y-251771D02*
X255865Y-241143D01*
X252857Y-260079D02*
X263635Y-249301D01*
X244602Y-240792D02*
X253518Y-231876D01*
X247777Y-261297D02*
Y-257974D01*
X269875Y-245453D02*
Y-241655D01*
X272415Y-246505D02*
Y-242707D01*
X245237Y-260245D02*
Y-251771D01*
X241057Y-264424D02*
X245237Y-260245D01*
X250571Y-255180D02*
Y-250029D01*
X269818Y-256286D02*
X278090D01*
X274237Y-248275D02*
X292237D01*
X247142Y-261932D02*
X247777Y-261297D01*
X267335Y-244401D02*
Y-240603D01*
X263017Y-275431D02*
Y-264287D01*
X252857Y-263401D02*
Y-260079D01*
X254762Y-265088D02*
X255397Y-264453D01*
X247777Y-257974D02*
X250571Y-255180D01*
X257937Y-272995D02*
Y-262183D01*
X255397Y-264453D02*
Y-261131D01*
X250317Y-262349D02*
Y-259027D01*
X270870Y-258826D02*
X279142D01*
X249682Y-262984D02*
X250317Y-262349D01*
X260477Y-266557D02*
Y-263235D01*
X252222Y-264036D02*
X252857Y-263401D01*
X238984Y-264424D02*
X241057D01*
X252222Y-271526D02*
Y-264036D01*
X247142Y-269240D02*
Y-261932D01*
X249682Y-270474D02*
Y-262984D01*
X254762Y-272578D02*
Y-265088D01*
X260477Y-274379D02*
Y-266557D01*
X278090Y-256286D02*
X283424Y-250952D01*
X279142Y-258826D02*
X284222Y-253746D01*
X252155Y-282701D02*
X260477Y-274379D01*
X254695Y-283753D02*
X263017Y-275431D01*
X249615Y-281317D02*
X257937Y-272995D01*
X249615Y-287885D02*
Y-281317D01*
X268224Y-229016D02*
Y-217694D01*
X259775Y-285857D02*
X275144Y-270488D01*
X264855Y-287961D02*
X280224Y-272592D01*
X289176Y-266954D02*
X311443D01*
X275144Y-270210D02*
X286020Y-259334D01*
X280224Y-272592D02*
Y-272314D01*
X262315Y-286909D02*
X277684Y-271540D01*
X287072Y-261874D02*
X313547D01*
X277684Y-271262D02*
X287072Y-261874D01*
X265811Y-276229D02*
Y-275951D01*
X280224Y-272314D02*
X288124Y-264414D01*
X265811Y-275951D02*
X285476Y-256286D01*
X267395Y-289014D02*
X282764Y-273644D01*
X277684Y-271540D02*
Y-271262D01*
X282764Y-273366D02*
X289176Y-266954D01*
X275144Y-270488D02*
Y-270210D01*
X285476Y-256286D02*
X295620D01*
X282764Y-273644D02*
Y-273366D01*
X288124Y-264414D02*
X312495D01*
X286020Y-259334D02*
X314599D01*
X314452Y-179070D02*
X315087Y-178435D01*
X310816Y-179070D02*
X314452D01*
X310515Y-179371D02*
X310816Y-179070D01*
X275126Y-187935D02*
X291617D01*
X280722Y-233032D02*
X289345Y-224409D01*
X280699Y-229463D02*
X297056Y-213106D01*
X267335Y-240603D02*
X278475Y-229463D01*
X278498Y-233032D02*
X280722D01*
X269875Y-241655D02*
X278498Y-233032D01*
X297056Y-213106D02*
X383921D01*
X278475Y-229463D02*
X280699D01*
X289345Y-224409D02*
X314155D01*
X313583Y-76835D02*
X316845D01*
X318750Y-78740D02*
X434594D01*
X317897Y-87249D02*
X318151Y-86995D01*
X318627Y-82927D02*
X429129D01*
X313583Y-84709D02*
X316845D01*
X1026478Y9334D02*
X1048635Y-12823D01*
X316845Y-76835D02*
X318750Y-78740D01*
X316845Y-84709D02*
X318627Y-82927D01*
X318151Y-86995D02*
X320675D01*
X310040Y-82927D02*
X311801D01*
X313583Y-84709D01*
X306852Y-78740D02*
X311678D01*
X307701Y-86995D02*
X312277D01*
X311678Y-78740D02*
X313583Y-76835D01*
X312277Y-86995D02*
X312531Y-87249D01*
X317897D01*
X429129Y-82927D02*
X429260Y-83058D01*
X309909Y-82795D02*
X310040Y-82927D01*
X305034Y-84328D02*
X307701Y-86995D01*
X304800Y-84328D02*
X305034D01*
X289814Y-80264D02*
X305328D01*
X306852Y-78740D01*
X448497Y-156985D02*
X449570Y-158058D01*
X113063Y-258305D02*
X113284Y-258084D01*
X113063Y-263335D02*
Y-258305D01*
X113284Y-258084D02*
Y-256032D01*
X104190Y-266986D02*
X104431Y-267228D01*
X104190Y-266986D02*
Y-263725D01*
X104431Y-263483D01*
Y-282157D02*
Y-267228D01*
Y-263483D02*
Y-251137D01*
X118937Y-250379D02*
Y-198937D01*
X113284Y-256032D02*
X118937Y-250379D01*
X104431Y-251137D02*
X108937Y-246631D01*
X95250Y-291338D02*
X104431Y-282157D01*
X105212Y-199644D02*
X108937Y-203369D01*
X100584Y-199644D02*
X105212D01*
X108937Y-246631D02*
Y-203369D01*
X584200Y-16702D02*
X586176Y-14726D01*
X584200Y-30734D02*
Y-16702D01*
X586176Y-14726D02*
Y-13970D01*
X582105Y-5905D02*
X589026Y1016D01*
X579565Y-12516D02*
Y-4853D01*
X582105Y-14287D02*
Y-5905D01*
X579565Y-4853D02*
X587974Y3556D01*
X633222Y-62288D02*
Y-53213D01*
X215000Y-14248D02*
Y-1894D01*
X210947Y-27031D02*
X211328Y-27412D01*
X215000Y-35000D02*
X218821Y-31179D01*
X210947Y-23769D02*
X211328Y-23388D01*
X215000Y-14248D02*
X218821Y-18069D01*
X210947Y-27031D02*
Y-23769D01*
X218821Y-31179D02*
Y-18069D01*
X211328Y-28672D02*
Y-27412D01*
Y-23388D02*
Y-1814D01*
X3449Y-350647D02*
X4699D01*
X16002Y-361950D01*
Y-454950D02*
Y-361950D01*
X1143Y-348341D02*
Y-347091D01*
X1016Y-346964D02*
X1143Y-347091D01*
Y-348341D02*
X3449Y-350647D01*
X117729Y-368173D02*
X125984Y-376428D01*
X112161Y-373253D02*
X115189D01*
X109855Y-370947D02*
Y-367919D01*
Y-370947D02*
X112161Y-373253D01*
X115423Y-365379D02*
X117729Y-367685D01*
Y-368173D02*
Y-367685D01*
X115189Y-373253D02*
X137033Y-395097D01*
X121158Y-355310D02*
Y-343118D01*
X116422Y-341830D02*
Y-340778D01*
X126238Y-353206D02*
Y-345948D01*
X103632Y-343408D02*
X108458Y-348234D01*
X126238Y-345948D02*
X132207Y-339979D01*
X123698Y-344170D02*
X129667Y-338201D01*
X121158Y-343118D02*
X127127Y-337149D01*
X118618Y-356362D02*
Y-344026D01*
Y-356362D02*
X130556Y-368300D01*
X113538Y-342538D02*
Y-340070D01*
X116078Y-357596D02*
Y-345078D01*
X116422Y-341830D02*
X118618Y-344026D01*
X116078Y-357596D02*
X129322Y-370840D01*
X113538Y-342538D02*
X116078Y-345078D01*
X116422Y-340778D02*
X123190Y-334010D01*
X110998Y-343590D02*
X113538Y-346130D01*
X126238Y-353206D02*
X132442Y-359410D01*
X113538Y-358648D02*
X128778Y-373888D01*
X123698Y-354258D02*
Y-344170D01*
X127127Y-337149D02*
Y-332379D01*
X113538Y-358648D02*
Y-346130D01*
X123698Y-354258D02*
X131644Y-362204D01*
X108458Y-344642D02*
Y-342320D01*
X121158Y-355310D02*
X131608Y-365760D01*
X110998Y-343590D02*
Y-341268D01*
X108458Y-344642D02*
X110998Y-347182D01*
X125984Y-376428D02*
X224235D01*
X90932Y-348669D02*
Y-337492D01*
X98552Y-345512D02*
X103378Y-350338D01*
X96012Y-346564D02*
X100838Y-351390D01*
X96012Y-346564D02*
Y-335388D01*
X103632Y-303276D02*
X131191Y-275717D01*
X105918Y-363982D02*
Y-349286D01*
X101092Y-344460D02*
X105918Y-349286D01*
X101092Y-344460D02*
Y-326247D01*
X90932Y-348669D02*
X95250Y-352986D01*
X93472Y-347616D02*
X98298Y-352442D01*
Y-392176D02*
Y-352442D01*
X95250Y-392720D02*
Y-352986D01*
X93472Y-347616D02*
Y-336440D01*
X103378Y-365760D02*
Y-350338D01*
X100838Y-382671D02*
Y-351390D01*
X103632Y-343408D02*
Y-327299D01*
X98552Y-345512D02*
Y-325195D01*
X90932Y-337492D02*
Y-322039D01*
X96012Y-335388D02*
Y-324143D01*
X93472Y-336440D02*
Y-323091D01*
X95123Y-321440D01*
Y-315471D02*
X96012Y-314582D01*
X92583Y-314419D02*
X93472Y-313530D01*
X100203Y-323544D02*
Y-317575D01*
X90932Y-322039D02*
X92583Y-320388D01*
X102743Y-324596D02*
Y-318627D01*
X96012Y-324143D02*
X97663Y-322492D01*
Y-316523D02*
X98552Y-315634D01*
X101092Y-326247D02*
X102743Y-324596D01*
X96012Y-314582D02*
Y-299140D01*
X95123Y-321440D02*
Y-315471D01*
X92583Y-320388D02*
Y-314419D01*
X102743Y-318627D02*
X103632Y-317738D01*
X101092Y-316686D02*
Y-301244D01*
X100203Y-317575D02*
X101092Y-316686D01*
X93472Y-313530D02*
Y-298088D01*
X98552Y-315634D02*
Y-300192D01*
X105283Y-325648D02*
Y-319679D01*
X98552Y-325195D02*
X100203Y-323544D01*
X106172Y-318790D02*
Y-309862D01*
X105283Y-319679D02*
X106172Y-318790D01*
X103632Y-327299D02*
X105283Y-325648D01*
X97663Y-322492D02*
Y-316523D01*
X103632Y-317738D02*
Y-303276D01*
X109220Y-321310D02*
X115022Y-327112D01*
X106172Y-309862D02*
X106916Y-309118D01*
X124206D01*
X133481Y-302637D02*
X139192Y-296926D01*
X127913Y-298807D02*
Y-297069D01*
X124460Y-302260D02*
X127913Y-298807D01*
X130219Y-294763D02*
X130483D01*
X133909Y-291338D01*
X133350Y-315214D02*
Y-306574D01*
X127913Y-297069D02*
X130219Y-294763D01*
X131850Y-298700D02*
X132114D01*
X136936Y-293878D01*
X130687Y-302637D02*
X133481D01*
X124206Y-309118D02*
X130687Y-302637D01*
X142240Y-320294D02*
Y-300863D01*
X183693Y-296926D02*
X183878Y-296741D01*
X139192Y-296926D02*
X183693D01*
X184930Y-296741D02*
X186766Y-298577D01*
X183878Y-296741D02*
X184930D01*
X186766Y-298577D02*
X198775D01*
X199029Y-298323D01*
X197231Y-290703D02*
X199339Y-288595D01*
X195619Y-290957D02*
X195873Y-290703D01*
X197231D01*
X201041Y-298323D02*
X202946Y-296418D01*
X196671Y-293497D02*
X196925Y-293243D01*
X198283D01*
X190103Y-293497D02*
X196671D01*
X197723Y-296037D02*
X197977Y-295783D01*
X189051Y-296037D02*
X197723D01*
X199029Y-298323D02*
X201041D01*
X199335Y-295783D02*
X201443Y-293675D01*
X191155Y-290957D02*
X195619D01*
X197977Y-295783D02*
X199335D01*
X198283Y-293243D02*
X200391Y-291135D01*
X202946Y-296418D02*
X230922D01*
X254762Y-272578D01*
X275346Y-239776D02*
X285242D01*
X272415Y-242707D02*
X275346Y-239776D01*
X230073Y-293675D02*
X252222Y-271526D01*
X241995Y-274569D02*
Y-274387D01*
X199339Y-288595D02*
X227969D01*
X201443Y-293675D02*
X230073D01*
X227969Y-288595D02*
X241995Y-274569D01*
X229021Y-291135D02*
X249682Y-270474D01*
X200391Y-291135D02*
X229021D01*
X241995Y-274387D02*
X247142Y-269240D01*
X238359Y-265049D02*
X238984Y-264424D01*
X235097Y-265049D02*
X238359D01*
X232791Y-267355D02*
X235097Y-265049D01*
X220569Y-282331D02*
X232791Y-270109D01*
Y-267355D01*
X191907Y-282331D02*
X220569D01*
X233172Y-252984D02*
X235064Y-254876D01*
Y-255939D02*
Y-254876D01*
Y-255939D02*
X237490Y-258365D01*
Y-259080D02*
Y-258365D01*
X177292Y-252984D02*
X233172D01*
X252155Y-310637D02*
Y-282701D01*
X259775Y-313793D02*
Y-285857D01*
X257230Y-324104D02*
X262315Y-319019D01*
X250499Y-312293D02*
X252155Y-310637D01*
X283424Y-250952D02*
X293770D01*
X262315Y-319019D02*
Y-286909D01*
X254695Y-311689D02*
Y-283753D01*
X251551Y-314833D02*
X254695Y-311689D01*
X257235Y-284805D02*
X265811Y-276229D01*
X264855Y-320071D02*
Y-287961D01*
X257901Y-327025D02*
X264855Y-320071D01*
X257235Y-312741D02*
Y-284805D01*
X252603Y-317373D02*
X257235Y-312741D01*
X258953Y-329565D02*
X267395Y-321123D01*
X284222Y-253746D02*
X294568D01*
X253655Y-319913D02*
X259775Y-313793D01*
X292237Y-248275D02*
X296291Y-244221D01*
X314599Y-259334D02*
X315869Y-260604D01*
X324993Y-232029D02*
X439811D01*
X285242Y-239776D02*
X291338Y-233680D01*
X323342D01*
X324993Y-232029D01*
X330346Y-241808D02*
X432816D01*
X296418Y-244348D02*
X298069Y-242697D01*
X310971D01*
X301991Y-246888D02*
X303276Y-245603D01*
X303043Y-249428D02*
X304328Y-248143D01*
X303276Y-245603D02*
X311657D01*
X304328Y-248143D02*
X312709D01*
X310971Y-242697D02*
X313892Y-239776D01*
X328314D01*
X330346Y-241808D01*
X312709Y-248143D02*
X315996Y-244856D01*
X311657Y-245603D02*
X314944Y-242316D01*
X327262D01*
X315996Y-244856D02*
X326210D01*
X296418Y-256032D02*
X312567D01*
X434920Y-246888D02*
X438984Y-242824D01*
X293770Y-250952D02*
X297888Y-246834D01*
X329294Y-244348D02*
X433868D01*
X297942Y-246888D02*
X301991D01*
X327262Y-242316D02*
X329294Y-244348D01*
X294640Y-253746D02*
X298958Y-249428D01*
X303043D01*
X328242Y-246888D02*
X434920D01*
X326210Y-244856D02*
X328242Y-246888D01*
X323703Y-249428D02*
X435972D01*
X312567Y-256032D02*
X315869Y-252730D01*
X320401D01*
X323703Y-249428D01*
X340360Y-251968D02*
X437024D01*
X319131Y-260604D02*
X320401Y-259334D01*
X311443Y-266954D02*
X312713Y-268224D01*
X322287D01*
X323557Y-266954D01*
X321235Y-265684D02*
X322505Y-264414D01*
X313765Y-265684D02*
X321235D01*
X313547Y-261874D02*
X314817Y-263144D01*
X320183D01*
X320401Y-259334D02*
X332994D01*
X312495Y-264414D02*
X313765Y-265684D01*
X315869Y-260604D02*
X319131D01*
X320183Y-263144D02*
X321453Y-261874D01*
X332994Y-259334D02*
X340360Y-251968D01*
X383921Y-213106D02*
X386969Y-216154D01*
X301788Y-204216D02*
X431546D01*
X279081Y-226923D02*
X301788Y-204216D01*
X439811Y-232029D02*
X442677Y-234895D01*
X470607D01*
X538924Y-166578D01*
X471315Y-213705D02*
Y-212635D01*
X475779Y-208171D01*
X465532Y-219488D02*
X471315Y-213705D01*
X476105Y-208171D02*
X476758Y-207518D01*
X475779Y-208171D02*
X476105D01*
X538924Y-166578D02*
X557758D01*
X568398Y-155938D02*
X576852D01*
X557758Y-166578D02*
X568398Y-155938D01*
X569450Y-158478D02*
X579102D01*
X562438Y-176738D02*
X572806Y-166370D01*
X570230Y-161290D02*
X579882D01*
X559862Y-171658D02*
X570230Y-161290D01*
X572806Y-166370D02*
X582168D01*
X558810Y-169118D02*
X569450Y-158478D01*
X561386Y-174198D02*
X571754Y-163830D01*
X581116D01*
X576852Y-155938D02*
X595884Y-136906D01*
X601218Y-139954D02*
Y-118690D01*
X595884Y-136906D02*
Y-116840D01*
X603758Y-141188D02*
Y-119742D01*
X598678Y-138902D02*
Y-117638D01*
X666278Y-50038D01*
X721385D01*
X595884Y-116840D02*
X667512Y-45212D01*
X667330Y-52578D02*
X722437D01*
X606298Y-142240D02*
Y-120794D01*
X603758Y-119742D02*
X644760Y-78740D01*
X601218Y-118690D02*
X667330Y-52578D01*
X579882Y-161290D02*
X601218Y-139954D01*
X581116Y-163830D02*
X603758Y-141188D01*
X579102Y-158478D02*
X598678Y-138902D01*
X582168Y-166370D02*
X606298Y-142240D01*
X667512Y-45212D02*
X684530D01*
X722848Y3556D02*
X737052D01*
X718194Y1016D02*
X738104D01*
X654177Y-32258D02*
X654558D01*
X633222Y-53213D02*
X654177Y-32258D01*
X599694Y-101128D02*
Y-28918D01*
X600056Y-28556D01*
X599440Y-25400D02*
X617883D01*
X597027Y-100203D02*
Y-27813D01*
X599440Y-25400D01*
X781341Y-20193D02*
X783536Y-22388D01*
X810006D01*
X776842Y-22733D02*
X779037Y-24928D01*
X725424Y-11484D02*
X736673Y-22733D01*
X810006Y-22388D02*
X813816Y-18578D01*
X811058Y-24928D02*
X816610Y-19376D01*
X765683Y-20193D02*
X781341D01*
X779037Y-24928D02*
X811058D01*
X756737Y-11247D02*
X765683Y-20193D01*
X736673Y-22733D02*
X776842D01*
X749940Y-272420D02*
X890293D01*
X747217Y-275901D02*
X881961D01*
X744494Y-273177D02*
X747217Y-275901D01*
X737667D02*
X740390Y-273177D01*
X744494D01*
X866765Y9271D02*
X1026414D01*
X1048635Y-161921D02*
Y-12823D01*
X720061Y-110871D02*
X733824D01*
X716016Y-104140D02*
X728081Y-92075D01*
X733824Y-110871D02*
X736854Y-113901D01*
X651871Y-175469D02*
X723835Y-103505D01*
X650819Y-172929D02*
X722783Y-100965D01*
X733421D01*
X652923Y-178009D02*
X720061Y-110871D01*
X728081Y-92075D02*
X737878D01*
X723835Y-103505D02*
X735457D01*
X721385Y-50038D02*
X722389Y-49035D01*
X729029D02*
X731302Y-51308D01*
X722389Y-49035D02*
X729029D01*
X727977Y-51575D02*
X731647Y-55245D01*
X722437Y-52578D02*
X723441Y-51575D01*
X727977D01*
X640409Y-200279D02*
X680615D01*
X730707Y-192659D02*
X731342Y-193294D01*
X698240Y-251069D02*
X700221Y-253050D01*
X758618D01*
X697484Y-251069D02*
X698240D01*
X276785Y-620252D02*
X277531Y-619506D01*
X272812Y-620252D02*
X276785D01*
X271889Y-621175D02*
X272812Y-620252D01*
X448346Y-270764D02*
X449870Y-272288D01*
X332232Y-272542D02*
X337022D01*
X336296Y-276860D02*
X339852Y-273304D01*
X447294D02*
X458470Y-284480D01*
X337022Y-272542D02*
X338800Y-270764D01*
X422728Y-266954D02*
X423585Y-266097D01*
X421676Y-264414D02*
X422533Y-263557D01*
X423585Y-266097D02*
X494164D01*
X422533Y-263557D02*
X493112D01*
X719074Y-143828D02*
X720598Y-142304D01*
Y-138424D01*
X715899Y-137540D02*
X716783Y-138424D01*
Y-142527D02*
Y-138424D01*
X715899Y-143411D02*
X716783Y-142527D01*
X656717Y-188584D02*
X717416Y-127884D01*
X724490D01*
X414274Y-424434D02*
Y-397002D01*
X322834Y-365729D02*
X416810D01*
X480314Y-302225D02*
Y-297907D01*
X254508Y-370332D02*
X415799D01*
X416851Y-372872D02*
X485394Y-304329D01*
Y-300011D01*
X416810Y-365729D02*
X480314Y-302225D01*
X487934Y-305382D02*
Y-301063D01*
X482854Y-303277D02*
Y-298959D01*
X237841Y-375412D02*
X417904D01*
X414274Y-397002D02*
X500634Y-310642D01*
X490474Y-306434D02*
Y-302116D01*
X236789Y-377952D02*
X418956D01*
X252222Y-372872D02*
X416851D01*
X495554Y-308538D02*
Y-304220D01*
X421477Y-386207D02*
X498094Y-309590D01*
X421060Y-383032D02*
X495554Y-308538D01*
X415799Y-370332D02*
X482854Y-303277D01*
X420008Y-380492D02*
X493014Y-307486D01*
X500634Y-310642D02*
Y-306324D01*
X360533Y-386207D02*
X421477D01*
X417904Y-375412D02*
X487934Y-305382D01*
X498094Y-309590D02*
Y-305272D01*
X234685Y-383032D02*
X421060D01*
X493014Y-307486D02*
Y-303168D01*
X418956Y-377952D02*
X490474Y-306434D01*
X235737Y-380492D02*
X420008D01*
X408940Y-321310D02*
X453354D01*
X475234Y-299430D02*
Y-295803D01*
X472694Y-298378D02*
Y-294751D01*
X453354Y-321310D02*
X475234Y-299430D01*
X452592Y-318480D02*
X472694Y-298378D01*
X405203Y-318480D02*
X452592D01*
X410718Y-324612D02*
X453644D01*
X477774Y-300482D01*
Y-296855D01*
X500634Y-306324D02*
X534377Y-272581D01*
X495282Y-257795D02*
Y-234280D01*
X534377Y-272581D02*
Y-249502D01*
X485394Y-300011D02*
X518142Y-267264D01*
X475234Y-295803D02*
X507982Y-263055D01*
X526757Y-269425D02*
Y-246346D01*
X482854Y-298959D02*
X515602Y-266211D01*
X493112Y-263557D02*
X497822Y-258847D01*
X518142Y-267264D02*
Y-244184D01*
X413119Y-261017D02*
X492060D01*
X505442Y-262003D02*
Y-238488D01*
X492060Y-261017D02*
X495282Y-257795D01*
X495554Y-304220D02*
X529297Y-270477D01*
X472694Y-294751D02*
X505442Y-262003D01*
X529297Y-270477D02*
Y-247398D01*
X487934Y-301063D02*
X521099Y-267899D01*
X493014Y-303168D02*
X526757Y-269425D01*
X515602Y-266211D02*
Y-243132D01*
X497822Y-258847D02*
Y-235332D01*
X470154Y-295184D02*
Y-293699D01*
X521099Y-267899D02*
Y-244819D01*
X510522Y-264107D02*
Y-240592D01*
X507982Y-263055D02*
Y-239540D01*
X480314Y-297907D02*
X513062Y-265159D01*
X477774Y-296855D02*
X510522Y-264107D01*
X494164Y-266097D02*
X500362Y-259899D01*
X531837Y-271529D02*
Y-248450D01*
X523639Y-268951D02*
Y-245871D01*
X513062Y-265159D02*
Y-242080D01*
X500362Y-259899D02*
Y-236384D01*
X498094Y-305272D02*
X531837Y-271529D01*
X490474Y-302116D02*
X523639Y-268951D01*
X470154Y-293699D02*
X502902Y-260951D01*
Y-237436D01*
X534377Y-249502D02*
X553755Y-230124D01*
X600692Y-208389D02*
X681665D01*
X555243Y-225044D02*
X682970D01*
X553756Y-204978D02*
X681483D01*
X553102Y-216408D02*
X680830D01*
X553320Y-212598D02*
X681048D01*
X554191Y-222504D02*
X681918D01*
X553139Y-219964D02*
X680866D01*
X778684Y-52404D02*
X780034Y-51054D01*
X779780D02*
X780034D01*
X731647Y-55245D02*
X773557D01*
X776398Y-52404D02*
X778684D01*
X773557Y-55245D02*
X776398Y-52404D01*
X754507Y-57785D02*
X801075D01*
X731302Y-51308D02*
X769620D01*
X748284Y-64008D02*
X754507Y-57785D01*
X801075D02*
X802726Y-56134D01*
X922963Y-22933D02*
X985574Y-85544D01*
X1024944D02*
X1035050Y-75438D01*
X985574Y-85544D02*
X1024944D01*
X111486Y-393319D02*
X114320D01*
X119634Y-426613D02*
Y-398633D01*
X100838Y-382671D02*
X111486Y-393319D01*
X114320D02*
X119634Y-398633D01*
X131608Y-365760D02*
X227935D01*
X129322Y-370840D02*
X225831D01*
X130556Y-368300D02*
X226883D01*
X128778Y-373888D02*
X225287D01*
X80534Y-416245D02*
Y-412141D01*
X77994Y-417297D02*
Y-411089D01*
X80534Y-416245D02*
X81280Y-416990D01*
Y-490692D02*
Y-416990D01*
X77994Y-417297D02*
X78232Y-417534D01*
Y-491236D02*
Y-417534D01*
X56642Y-382270D02*
X78232Y-403860D01*
X77994Y-411089D02*
X78232Y-410852D01*
X81280Y-490692D02*
X128524Y-537936D01*
X59182Y-381218D02*
X81280Y-403316D01*
X78232Y-410852D02*
Y-403860D01*
X80534Y-412141D02*
X81280Y-411396D01*
Y-403316D01*
X78232Y-491236D02*
X122174Y-535178D01*
X174605Y-354203D02*
X176911Y-351897D01*
X146705Y-354203D02*
X174605D01*
X176911Y-351509D02*
X181964Y-346456D01*
X176911Y-351897D02*
Y-351509D01*
X169418Y-315584D02*
Y-307594D01*
X167640Y-317362D02*
X169418Y-315584D01*
X167640Y-324596D02*
Y-317362D01*
X172720Y-303022D02*
X175133Y-305435D01*
X164002Y-303022D02*
X172720D01*
X158877Y-308148D02*
X164002Y-303022D01*
X132442Y-359410D02*
X205232D01*
X144653Y-356743D02*
X204089D01*
X144399Y-351897D02*
X146705Y-354203D01*
X141859Y-353949D02*
X144653Y-356743D01*
X204089D02*
X211836Y-348996D01*
X205232Y-359410D02*
X212598Y-352044D01*
X131644Y-362204D02*
X206502D01*
X214122Y-354584D01*
X149334Y-343916D02*
X226298D01*
X148590Y-343172D02*
X149334Y-343916D01*
X144399Y-348635D02*
X145034Y-348000D01*
X144399Y-351897D02*
Y-348635D01*
X145034Y-348000D02*
Y-323088D01*
X148590Y-343172D02*
Y-304800D01*
X141859Y-347583D02*
X141986Y-347456D01*
X141859Y-353949D02*
Y-347583D01*
X141986Y-347456D02*
Y-323850D01*
X227962Y-307594D02*
X229486Y-309118D01*
X211074Y-311531D02*
X218147D01*
X218909Y-312293D02*
X250499D01*
X217095Y-314071D02*
X217857Y-314833D01*
X213916Y-307594D02*
X227962D01*
X217857Y-314833D02*
X251551D01*
X216043Y-316611D02*
X216805Y-317373D01*
X215753Y-319913D02*
X253655D01*
X218147Y-311531D02*
X218909Y-312293D01*
X210967Y-319913D02*
X211729Y-319151D01*
X203725Y-317373D02*
X209915D01*
X210677Y-316611D01*
X208863Y-314833D02*
X209625Y-314071D01*
X210677Y-316611D02*
X216043D01*
X202673Y-319913D02*
X210967D01*
X206756Y-314833D02*
X208863D01*
X211729Y-319151D02*
X214991D01*
X209625Y-314071D02*
X217095D01*
X214991Y-319151D02*
X215753Y-319913D01*
X216805Y-317373D02*
X252603D01*
X209677Y-310134D02*
X211074Y-311531D01*
X236725Y-353441D02*
X244221Y-360937D01*
X156573Y-340741D02*
X226715D01*
X235311Y-338201D02*
X289602D01*
X232517Y-343281D02*
X235057Y-340741D01*
X160147Y-334663D02*
Y-315067D01*
X225555Y-377748D02*
X225809D01*
X224235Y-376428D02*
X225555Y-377748D01*
X225809D02*
X233633Y-385572D01*
X226607Y-375208D02*
X226861D01*
X234685Y-383032D01*
X227913Y-372668D02*
X235737Y-380492D01*
X228711Y-370128D02*
X228965D01*
X226883Y-368300D02*
X228711Y-370128D01*
X228965D02*
X236789Y-377952D01*
X181964Y-346456D02*
X225246D01*
X229763Y-367588D02*
X230017D01*
X228203Y-345821D02*
X233569D01*
X236526Y-346456D02*
X244820D01*
X225246D02*
X227151Y-348361D01*
X211836Y-348996D02*
X224194D01*
X227659Y-372668D02*
X227913D01*
X226588Y-338074D02*
X229255Y-335407D01*
X212598Y-352044D02*
X223650D01*
X233569Y-345821D02*
X235474Y-343916D01*
X237288Y-332994D02*
X248904D01*
X230017Y-367588D02*
X237841Y-375412D01*
X224484Y-332994D02*
X227151Y-330327D01*
X225287Y-373888D02*
X226607Y-375208D01*
X235331Y-355981D02*
X241681Y-362331D01*
X176038Y-332994D02*
X224484D01*
X222598Y-354584D02*
X223995Y-355981D01*
X233569Y-332867D02*
X236236Y-335534D01*
X228203Y-332867D02*
X233569D01*
X227151Y-348361D02*
X234621D01*
X214122Y-354584D02*
X222598D01*
X226099Y-327787D02*
X235673D01*
X225536Y-335534D02*
X228203Y-332867D01*
X223650Y-352044D02*
X225047Y-353441D01*
X227151Y-330327D02*
X234621D01*
X223940Y-329946D02*
X226099Y-327787D01*
X234621Y-348361D02*
X236526Y-346456D01*
X226099Y-350901D02*
X235673D01*
X229255Y-335407D02*
X232517D01*
X234621Y-330327D02*
X237288Y-332994D01*
X244221Y-362732D02*
Y-360937D01*
X225047Y-353441D02*
X236725D01*
X223995Y-355981D02*
X235331D01*
X227935Y-365760D02*
X229763Y-367588D01*
X232517Y-335407D02*
X235311Y-338201D01*
X226298Y-343916D02*
X228203Y-345821D01*
X163558Y-338074D02*
X226588D01*
X174986Y-335534D02*
X225536D01*
X235057Y-340741D02*
X256286D01*
X229255Y-343281D02*
X232517D01*
X225831Y-370840D02*
X227659Y-372668D01*
X226715Y-340741D02*
X229255Y-343281D01*
X235673Y-350901D02*
X237578Y-348996D01*
X224194D02*
X226099Y-350901D01*
X235474Y-343916D02*
X247924D01*
X160147Y-334663D02*
X163558Y-338074D01*
X237578Y-348996D02*
X242824D01*
X181864Y-329946D02*
X223940D01*
X136231Y-433108D02*
X136307Y-433032D01*
Y-428605D01*
X136231Y-439718D02*
Y-433108D01*
X136307Y-428605D02*
X137033Y-427879D01*
X106364Y-421923D02*
X106934Y-421353D01*
X112014Y-423457D02*
Y-413730D01*
X116524Y-426132D02*
X117094Y-425561D01*
X114554Y-424509D02*
Y-412024D01*
X108904Y-422975D02*
X109474Y-422405D01*
X108904Y-434654D02*
Y-422975D01*
Y-434654D02*
X109474Y-435224D01*
X117094Y-425561D02*
Y-410972D01*
X116524Y-431497D02*
X117094Y-432068D01*
X106364Y-435706D02*
X106934Y-436276D01*
X117094Y-507492D02*
Y-432068D01*
X119634Y-506095D02*
Y-431016D01*
X112014Y-509596D02*
Y-434172D01*
X109474Y-422405D02*
Y-414782D01*
X76047Y-215291D02*
X76291Y-215535D01*
X116524Y-431497D02*
Y-426132D01*
X137794Y-425086D02*
Y-419720D01*
X119064Y-427184D02*
X119634Y-426613D01*
X113984Y-432549D02*
Y-425079D01*
X137033Y-418959D02*
Y-395097D01*
Y-425847D02*
X137794Y-425086D01*
X111444Y-433601D02*
Y-424027D01*
X109474Y-510648D02*
Y-435224D01*
X113984Y-432549D02*
X114554Y-433120D01*
X137033Y-427879D02*
Y-425847D01*
X114554Y-508544D02*
Y-433120D01*
X113984Y-425079D02*
X114554Y-424509D01*
X106364Y-435706D02*
Y-421923D01*
X119064Y-430445D02*
X119634Y-431016D01*
X137033Y-418959D02*
X137794Y-419720D01*
X106934Y-511700D02*
Y-436276D01*
X119064Y-430445D02*
Y-427184D01*
X111444Y-433601D02*
X112014Y-434172D01*
X106934Y-421353D02*
Y-416814D01*
X111444Y-424027D02*
X112014Y-423457D01*
X136231Y-439718D02*
X137033Y-440519D01*
Y-457764D02*
Y-440519D01*
X66949Y-372257D02*
X109474Y-414782D01*
X64409Y-374289D02*
X106934Y-416814D01*
X66949Y-372257D02*
Y-281793D01*
X241681Y-363784D02*
Y-362331D01*
X244221Y-362732D02*
X247122Y-365633D01*
X252877Y-357378D02*
X264632D01*
X241681Y-363784D02*
X246070Y-368173D01*
X251551Y-353187D02*
X252278D01*
X249809Y-365633D02*
X254508Y-370332D01*
X246070Y-368173D02*
X247523D01*
X252278Y-353187D02*
X253929Y-354838D01*
X251226Y-355727D02*
X252877Y-357378D01*
X249555Y-355727D02*
X251226D01*
X247122Y-365633D02*
X249809D01*
X244820Y-346456D02*
X251551Y-353187D01*
X242824Y-348996D02*
X249555Y-355727D01*
X247523Y-368173D02*
X252222Y-372872D01*
X253929Y-354838D02*
X265684D01*
X59436Y-493141D02*
X60071D01*
X55265Y-497312D02*
X59436Y-493141D01*
X43434Y-493014D02*
Y-452374D01*
X40259Y-346345D02*
Y-340979D01*
X30734Y-471424D02*
Y-464856D01*
X31063Y-165175D02*
X40894Y-175006D01*
X34798Y-488898D02*
Y-465328D01*
X19050Y-453172D02*
X30734Y-464856D01*
X34417Y-496749D02*
Y-489279D01*
X24638Y-450342D02*
X37338Y-463042D01*
X40259Y-346345D02*
X40894Y-346980D01*
X34798Y-497640D02*
Y-497130D01*
X39116Y-505206D02*
X47244Y-513334D01*
X34417Y-496749D02*
X34798Y-497130D01*
X26924Y-493014D02*
Y-465872D01*
X30280Y-502158D02*
X34798Y-497640D01*
X34417Y-489279D02*
X34798Y-488898D01*
X40259Y-340979D02*
X40894Y-340344D01*
X30734Y-471424D02*
X30861Y-471551D01*
X36957Y-490331D02*
X37338Y-489950D01*
Y-463042D01*
X28301Y-497205D02*
X30861Y-494645D01*
X39497D02*
X42164Y-497312D01*
X40894Y-489986D02*
Y-346980D01*
X22098Y-452628D02*
X34798Y-465328D01*
X40894Y-340344D02*
Y-175006D01*
X39497Y-491383D02*
X40894Y-489986D01*
X39497Y-494645D02*
Y-491383D01*
X30861Y-494645D02*
Y-471551D01*
X36957Y-495697D02*
X39116Y-497856D01*
Y-505206D02*
Y-497856D01*
X42164Y-497312D02*
X55265D01*
X36957Y-495697D02*
Y-490331D01*
X44704Y-451104D02*
Y-347198D01*
X43434Y-452374D02*
X44704Y-451104D01*
X57150Y-513334D02*
X60452Y-516636D01*
X47244Y-513334D02*
X57150D01*
X75184Y-523494D02*
Y-523240D01*
X74274Y-522324D02*
X75184Y-523234D01*
X74014Y-522324D02*
X74274D01*
X68326Y-516636D02*
X74014Y-522324D01*
X60452Y-516636D02*
X68326D01*
X-6731Y-584073D02*
X40386Y-631190D01*
X-6731Y-465709D02*
X7366Y-451612D01*
X-6731Y-584073D02*
Y-465709D01*
X4826Y-498729D02*
X15989D01*
X75184Y-523240D02*
X75565Y-522859D01*
X15989Y-498729D02*
X17513Y-497205D01*
X27768Y-501677D02*
X28249Y-502158D01*
X17513Y-497205D02*
X28301D01*
X28249Y-502158D02*
X30280D01*
X23937Y-501142D02*
X24472Y-501677D01*
X27768D01*
X28937Y-288291D02*
X32893Y-292247D01*
Y-339959D02*
Y-292247D01*
X28009Y-344761D02*
X28091D01*
X23207Y-349563D02*
X28009Y-344761D01*
X23207Y-353667D02*
Y-349563D01*
X28091Y-344761D02*
X32893Y-339959D01*
X28937Y-288291D02*
Y-172449D01*
X25779Y-169291D02*
X28937Y-172449D01*
X20667Y-354719D02*
X22098Y-356150D01*
X21590Y-289580D02*
X22098Y-289072D01*
X21590Y-312440D02*
Y-289580D01*
X20667Y-313363D02*
X21590Y-312440D01*
X18127Y-355771D02*
X19050Y-356694D01*
X18127Y-312311D02*
X19050Y-311388D01*
X20667Y-354719D02*
Y-313363D01*
X18127Y-355771D02*
Y-312311D01*
X22733Y-169291D02*
X25779D01*
X22098Y-452628D02*
Y-356150D01*
X23207Y-353667D02*
X24638Y-355098D01*
X19050Y-453172D02*
Y-356694D01*
X42799Y-345293D02*
X44704Y-347198D01*
X42799Y-345293D02*
Y-342031D01*
X24638Y-450342D02*
Y-355098D01*
X640842Y-247396D02*
X659257D01*
X659511Y-247650D01*
X648614Y-170389D02*
X714863Y-104140D01*
X645437Y-180549D02*
X653975D01*
X643333Y-175469D02*
X651871D01*
X644385Y-178009D02*
X652923D01*
X653975Y-180549D02*
X719462Y-115062D01*
X655027Y-183089D02*
X719845Y-118271D01*
X646489Y-183089D02*
X655027D01*
X641228Y-170389D02*
X648614D01*
X642281Y-172929D02*
X650819D01*
X719074Y-175185D02*
Y-143828D01*
X724154Y-177290D02*
Y-151892D01*
X726694Y-178342D02*
Y-154178D01*
X721614Y-176237D02*
Y-150622D01*
X715899Y-174768D02*
Y-143411D01*
X551688Y-195834D02*
X564895D01*
X507982Y-239540D02*
X551688Y-195834D01*
X510522Y-240592D02*
X552740Y-198374D01*
X641461Y-197739D02*
X646827D01*
X645775Y-195199D02*
X646456Y-194518D01*
X564895Y-195834D02*
X566211Y-194518D01*
X641832D01*
X565947Y-198374D02*
X567263Y-197058D01*
X646456Y-194518D02*
X649794D01*
X646827Y-197739D02*
X647508Y-197058D01*
X568315Y-199598D02*
X639728D01*
X513062Y-242080D02*
X554228Y-200914D01*
X641832Y-194518D02*
X642513Y-195199D01*
X639728Y-199598D02*
X640409Y-200279D01*
X566999Y-200914D02*
X568315Y-199598D01*
X649794Y-194518D02*
X654177Y-190135D01*
X642513Y-195199D02*
X645775D01*
X567263Y-197058D02*
X640780D01*
X554228Y-200914D02*
X566999D01*
X647508Y-197058D02*
X650846D01*
X640780D02*
X641461Y-197739D01*
X552740Y-198374D02*
X565947D01*
X650846Y-197058D02*
X656717Y-191187D01*
Y-188584D01*
X654177Y-190135D02*
Y-187531D01*
X632340Y-179278D02*
X641228Y-170389D01*
X634444Y-184358D02*
X643333Y-175469D01*
X635496Y-186898D02*
X644385Y-178009D01*
X636548Y-189438D02*
X645437Y-180549D01*
X654177Y-187531D02*
X719407Y-122301D01*
X637600Y-191978D02*
X646489Y-183089D01*
X633392Y-181818D02*
X642281Y-172929D01*
X548795Y-184358D02*
X634444D01*
X550900Y-189438D02*
X636548D01*
X565158Y-191978D02*
X637600D01*
X546691Y-179278D02*
X632340D01*
X549847Y-186898D02*
X635496D01*
X547743Y-181818D02*
X633392D01*
X131063Y-132081D02*
X132334Y-130810D01*
X131063Y-246631D02*
Y-132081D01*
X121412Y-266954D02*
X125730Y-262636D01*
X121412Y-161036D02*
X125730Y-165354D01*
Y-262636D02*
Y-165354D01*
X128523Y-247683D02*
Y-130049D01*
Y-247683D02*
X128651Y-247811D01*
X128523Y-130049D02*
X130302Y-128270D01*
X131063Y-246631D02*
X131191Y-246759D01*
X121920Y-262382D02*
Y-182118D01*
X120142Y-180340D02*
X121920Y-182118D01*
X119634Y-264668D02*
X121920Y-262382D01*
X128651Y-270222D02*
X128885Y-270455D01*
X128651Y-270222D02*
Y-247811D01*
X131191Y-269170D02*
X131425Y-269403D01*
X131191Y-269170D02*
Y-246759D01*
X133965Y-275821D02*
Y-268351D01*
X133731Y-276055D02*
X133965Y-275821D01*
X133731Y-276769D02*
Y-276055D01*
Y-268118D02*
X133965Y-268351D01*
X130175Y-280325D02*
X133731Y-276769D01*
Y-264267D02*
X139827Y-258171D01*
X133731Y-268118D02*
Y-264267D01*
X131425Y-274769D02*
Y-269403D01*
X128885Y-273717D02*
Y-270455D01*
X194564Y-240792D02*
X244602D01*
X271193Y-193040D02*
X273613D01*
X276178Y-190475D02*
X296443D01*
X273613Y-193040D02*
X276178Y-190475D01*
X272988Y-195642D02*
X276579D01*
X276925Y-195295D01*
X272561Y-190500D02*
X275126Y-187935D01*
X268224Y-217694D02*
X269621Y-216297D01*
X255346Y-226980D02*
X267081Y-215245D01*
X276529Y-226923D02*
X279081D01*
X189992Y-236220D02*
X194564Y-240792D01*
X189992Y-236220D02*
Y-231648D01*
X188468Y-230124D02*
X189992Y-231648D01*
X170124Y-230124D02*
X188468D01*
X165000Y-225000D02*
X170124Y-230124D01*
X795647Y-243467D02*
X798707Y-246527D01*
X735888Y-243467D02*
X795647D01*
X740918Y-263398D02*
X749940Y-272420D01*
X745977Y-166243D02*
X746395D01*
X747649Y-161397D02*
Y-160979D01*
X746395Y-166243D02*
X750189Y-162449D01*
X744925Y-163703D02*
X745343D01*
X747649Y-160979D02*
X759714Y-148914D01*
X750189Y-162031D02*
X780161Y-132059D01*
X745343Y-163703D02*
X747649Y-161397D01*
X750189Y-162449D02*
Y-162031D01*
X692156Y-272796D02*
X693668D01*
X688975Y-267081D02*
X694035D01*
X688495Y-267561D02*
X688975Y-267081D01*
X693668Y-272796D02*
X695793Y-270671D01*
X714055D01*
X695084Y-268131D02*
X715107D01*
X694035Y-267081D02*
X695084Y-268131D01*
X485394Y71374D02*
Y72644D01*
X488442Y75692D01*
X485394Y71374D02*
X491005Y65763D01*
X490220Y-8890D02*
Y25835D01*
X491005Y26620D01*
Y65763D01*
X454914Y-44196D02*
X490220Y-8890D01*
X454914Y-78994D02*
Y-44196D01*
X461518Y-45466D02*
X494792Y-12192D01*
Y72390D01*
X461518Y-76962D02*
Y-45466D01*
X305181Y-73025D02*
X432471D01*
X460228Y-83439D02*
X464201D01*
X459176Y-80899D02*
X463149D01*
X456037Y-87630D02*
X460228Y-83439D01*
X454985Y-85090D02*
X459176Y-80899D01*
X423414Y-91436D02*
X433070Y-101092D01*
X463149Y-80899D02*
X470896Y-73152D01*
X472186Y-73025D02*
X505841D01*
X470896Y-73152D02*
X472186D01*
X468900Y-78740D02*
X505968D01*
X464201Y-83439D02*
X468900Y-78740D01*
X528320Y-56388D02*
Y4572D01*
X531876Y8128D01*
X566423D01*
X300597Y79895D02*
X309880Y70612D01*
X192153Y79895D02*
X300597D01*
X167122Y54864D02*
X192153Y79895D01*
X138430Y54864D02*
X167122D01*
X123073Y57023D02*
X136271D01*
X138430Y54864D01*
X111178Y68918D02*
X123073Y57023D01*
X13399Y68918D02*
X111178D01*
X889Y56408D02*
X13399Y68918D01*
X889Y19431D02*
Y56408D01*
X7112Y55626D02*
X12446Y50292D01*
X56388D01*
X64686Y-20467D02*
X70154Y-15000D01*
X75000D01*
X5080Y-42418D02*
X17526Y-29972D01*
X70028D02*
X75000Y-25000D01*
X17526Y-29972D02*
X70028D01*
X317297Y-385572D02*
X324663Y-392938D01*
X353802D01*
X233633Y-385572D02*
X317297D01*
X353802Y-392938D02*
X360533Y-386207D01*
X154940Y-339108D02*
Y-308737D01*
X167640Y-324596D02*
X176038Y-332994D01*
X164084Y-324632D02*
Y-314350D01*
Y-324632D02*
X174986Y-335534D01*
X154940Y-339108D02*
X156573Y-340741D01*
X163349Y-313615D02*
Y-310313D01*
X162814Y-309778D02*
X163349Y-310313D01*
X289602Y-338201D02*
X292606Y-341205D01*
X163349Y-313615D02*
X164084Y-314350D01*
X248904Y-332994D02*
X254873Y-327025D01*
X175089Y-311220D02*
X175133Y-311176D01*
Y-305435D01*
X180467Y-316469D02*
X181481Y-315455D01*
X180467Y-328549D02*
Y-316469D01*
Y-328549D02*
X181864Y-329946D01*
X158877Y-313797D02*
Y-308148D01*
Y-313797D02*
X160147Y-315067D01*
X210255Y-302795D02*
X210790Y-302260D01*
X210255Y-306145D02*
Y-302795D01*
X209677Y-310134D02*
Y-306723D01*
X210255Y-306145D01*
X181481Y-315455D02*
Y-305942D01*
X201549Y-315197D02*
Y-309551D01*
X199009Y-316249D02*
Y-312467D01*
Y-316249D02*
X202673Y-319913D01*
X201549Y-315197D02*
X203725Y-317373D01*
X200660Y-308662D02*
X201549Y-309551D01*
X200660Y-308662D02*
Y-302260D01*
X181122Y-305582D02*
X181481Y-305942D01*
X624189Y21844D02*
X629555D01*
X629682Y21717D02*
X629809Y21844D01*
X699307D01*
X699434Y21717D01*
X809824Y21844D02*
X812364Y19304D01*
X699434Y21717D02*
X755757D01*
X755884Y21844D02*
X809824D01*
X755757Y21717D02*
X755884Y21844D01*
X629555D02*
X629682Y21717D01*
X621649Y19304D02*
X624189Y21844D01*
X531114Y-4826D02*
X535659Y-281D01*
Y2767D01*
X535940Y-8128D02*
X540532Y-3536D01*
X541254D01*
X737052Y3556D02*
X738449Y4953D01*
X738104Y1016D02*
X739501Y2413D01*
X707755Y4445D02*
X721959D01*
X717305Y1905D02*
X718194Y1016D01*
X738449Y4953D02*
X765699D01*
X708807Y1905D02*
X717305D01*
X764647Y2413D02*
X765808Y1252D01*
X706866Y3556D02*
X707755Y4445D01*
X707918Y1016D02*
X708807Y1905D01*
X721959Y4445D02*
X722848Y3556D01*
X667140Y1016D02*
X707918D01*
X739501Y2413D02*
X764647D01*
X765699Y4953D02*
X766860Y3792D01*
X668192Y3556D02*
X706866D01*
X606699Y1905D02*
X666251D01*
X667303Y4445D02*
X668192Y3556D01*
X666251Y1905D02*
X667140Y1016D01*
X604758Y3556D02*
X605647Y4445D01*
X605810Y1016D02*
X606699Y1905D01*
X587974Y3556D02*
X604758D01*
X589026Y1016D02*
X605810D01*
X605647Y4445D02*
X667303D01*
X556260Y-5627D02*
X570396Y8509D01*
X556260Y-30226D02*
Y-5627D01*
X553212Y-1016D02*
X553720Y-508D01*
X566423Y8128D02*
X575059Y16764D01*
X766860Y3792D02*
X808754D01*
X765808Y1252D02*
X798340D01*
X654050Y14224D02*
X696468D01*
X655681Y10287D02*
X656824Y11430D01*
X807974Y16510D02*
X816356Y8128D01*
X650224Y8890D02*
X651367Y7747D01*
X622701Y16764D02*
X625241Y19304D01*
X652419Y10287D02*
X655681D01*
X805760Y13970D02*
X816610Y3120D01*
X586541Y5715D02*
X589716Y8890D01*
X651367Y7747D02*
X656733D01*
X809026Y19050D02*
X812074Y16002D01*
X656824Y11430D02*
X697266D01*
X656733Y7747D02*
X657876Y8890D01*
X695416Y16764D02*
X697702Y19050D01*
X588664Y11430D02*
X651276D01*
X697266D02*
X699806Y13970D01*
X698318Y8890D02*
X700858Y11430D01*
X696468Y14224D02*
X698754Y16510D01*
X812364Y19304D02*
X869188D01*
X698754Y16510D02*
X807974D01*
X657078Y16764D02*
X695416D01*
X804708Y11430D02*
X813816Y2322D01*
X625241Y19304D02*
X628503D01*
X816356Y8128D02*
X836930D01*
X651276Y11430D02*
X652419Y10287D01*
X699806Y13970D02*
X805760D01*
X700858Y11430D02*
X804708D01*
X589716Y8890D02*
X650224D01*
X697702Y19050D02*
X809026D01*
X657876Y8890D02*
X698318D01*
X641497Y16764D02*
X644037Y19304D01*
X628503D02*
X631043Y16764D01*
X812074Y16002D02*
X860034D01*
X644037Y19304D02*
X654538D01*
X657078Y16764D01*
X553613Y19304D02*
X621649D01*
X575059Y16764D02*
X622701D01*
X631043D02*
X641497D01*
X808754Y3792D02*
X809752Y2794D01*
X585743Y8509D02*
X588664Y11430D01*
X816610Y-19376D02*
Y3120D01*
X798340Y1252D02*
X799084Y508D01*
X813816Y-18578D02*
Y2322D01*
X809752Y-19050D02*
Y2794D01*
X836930Y8128D02*
X837184Y7874D01*
X860034Y16002D02*
X866765Y9271D01*
X719462Y-115062D02*
X725407D01*
X833120Y-74930D02*
X839724Y-68326D01*
X833361Y-100094D02*
Y-99042D01*
X833120Y-98801D02*
X833361Y-99042D01*
X833120Y-98801D02*
Y-74930D01*
X753110Y-100838D02*
X832617D01*
X833361Y-100094D01*
X740985Y-112963D02*
X753110Y-100838D01*
X754162Y-103378D02*
X853461D01*
X749046Y-115678D02*
X756266Y-108458D01*
X746066Y-115067D02*
X755214Y-105918D01*
X855257D01*
X743525Y-114015D02*
X754162Y-103378D01*
X756266Y-108458D02*
X856309D01*
X740985Y-121412D02*
Y-112963D01*
X746066Y-126171D02*
Y-115067D01*
X743525Y-125118D02*
Y-114015D01*
X749046Y-127000D02*
Y-115678D01*
X856309Y-108458D02*
X859285Y-105482D01*
X735076Y-123444D02*
X738953D01*
X740985Y-121412D01*
X732167Y-120534D02*
X735076Y-123444D01*
X732167Y-120534D02*
Y-117661D01*
X729257Y-114751D02*
X732167Y-117661D01*
X725718Y-114751D02*
X729257D01*
X725407Y-115062D02*
X725718Y-114751D01*
X724027Y-132989D02*
X735655D01*
X743525Y-125118D01*
X721614Y-150622D02*
X746066Y-126171D01*
X724154Y-151892D02*
X749046Y-127000D01*
X726694Y-154178D02*
X753618Y-127254D01*
Y-120002D02*
X754380D01*
X753618Y-120650D02*
X753845Y-120877D01*
Y-121293D02*
Y-120877D01*
X753618Y-121520D02*
X753845Y-121293D01*
X753618Y-127254D02*
Y-121520D01*
X759714Y-148914D02*
Y-125984D01*
X719845Y-118271D02*
X727209D01*
X727626Y-118688D01*
X725805Y-122301D02*
X729996Y-126492D01*
X719407Y-122301D02*
X725805D01*
X714863Y-104140D02*
X716016D01*
X735457Y-103505D02*
X761492Y-77470D01*
X822855D01*
X715899Y-137540D02*
Y-132994D01*
X718464Y-130429D02*
X721467D01*
X715899Y-132994D02*
X718464Y-130429D01*
X719965Y-134495D02*
X720371Y-134901D01*
X539135Y-172466D02*
X542483Y-169118D01*
X540187Y-175006D02*
X543535Y-171658D01*
X540731Y-178054D02*
X544587Y-174198D01*
X541783Y-180594D02*
X545639Y-176738D01*
X500362Y-236384D02*
X549847Y-186898D01*
X492742Y-233228D02*
X546691Y-179278D01*
X542483Y-169118D02*
X558810D01*
X538251Y-178054D02*
X540731D01*
X537681Y-175006D02*
X540187D01*
X543535Y-171658D02*
X559862D01*
X502902Y-237436D02*
X550900Y-189438D01*
X487807Y-248793D02*
X492742Y-243858D01*
X539303Y-180594D02*
X541783D01*
X495282Y-234280D02*
X547743Y-181818D01*
X492742Y-243858D02*
Y-233228D01*
X545639Y-176738D02*
X562438D01*
X544587Y-174198D02*
X561386D01*
X536629Y-172466D02*
X539135D01*
X497822Y-235332D02*
X548795Y-184358D01*
X518142Y-244184D02*
X554300Y-208026D01*
X505442Y-238488D02*
X550636Y-193294D01*
X554300Y-208026D02*
X600329D01*
X550636Y-193294D02*
X563843D01*
X565158Y-191978D01*
X515602Y-243132D02*
X553756Y-204978D01*
X529297Y-247398D02*
X554191Y-222504D01*
X521099Y-244819D02*
X553320Y-212598D01*
X523639Y-245871D02*
X553102Y-216408D01*
X526757Y-246346D02*
X553139Y-219964D01*
X531837Y-248450D02*
X555243Y-225044D01*
X264632Y-357378D02*
X267934Y-360680D01*
X254873Y-327025D02*
X257901D01*
X922020Y-22352D02*
X922782Y-23114D01*
X877316Y-22352D02*
X922020D01*
X874268Y-19304D02*
X877316Y-22352D01*
X855395Y-3633D02*
X861042Y2014D01*
X867467D01*
X874268Y-4787D01*
Y-19304D02*
Y-4787D01*
X855395Y-12573D02*
X856234Y-13412D01*
X855395Y-12573D02*
Y-3633D01*
X856234Y-22352D02*
Y-13412D01*
X864800Y-21152D02*
Y-11106D01*
X864108Y-10414D02*
X864800Y-11106D01*
X841236Y-44716D02*
X864800Y-21152D01*
X816859Y-37729D02*
X840857D01*
X856234Y-22352D01*
X841236Y-45434D02*
Y-44716D01*
X837565Y-49104D02*
X841236Y-45434D01*
X853567Y-72685D02*
Y-50693D01*
X850503Y-50165D02*
X860048Y-40620D01*
X853567Y-50693D02*
X860318Y-43942D01*
X857504Y-73030D02*
Y-52324D01*
X860048Y-40620D02*
X894374D01*
X860318Y-43942D02*
X896620D01*
X847999Y-50165D02*
X850503D01*
X813437Y-41151D02*
X816859Y-37729D01*
X783765Y-41151D02*
X813437D01*
X780701Y-38087D02*
X783765Y-41151D01*
X691655Y-38087D02*
X780701D01*
X684530Y-45212D02*
X691655Y-38087D01*
X838718Y-42384D02*
Y-41666D01*
X831767Y-49335D02*
X838718Y-42384D01*
X906526Y-48280D02*
X910737D01*
X911098Y-48641D01*
X898251Y-40005D02*
X906526Y-48280D01*
X894989Y-40005D02*
X898251D01*
X894374Y-40620D02*
X894989Y-40005D01*
X481076Y-85072D02*
X481820Y-84328D01*
X510830D02*
X535940Y-59218D01*
X481076Y-88900D02*
Y-85072D01*
X481820Y-84328D02*
X510830D01*
X535940Y-59218D02*
Y-8128D01*
X477520Y-88392D02*
Y-82532D01*
X478264Y-81788D01*
X431038Y-104902D02*
X465074D01*
X421386Y-95250D02*
X431038Y-104902D01*
X320294Y-95250D02*
X421386D01*
X319024Y-96520D02*
X320294Y-95250D01*
X310642Y-96520D02*
X319024D01*
X531114Y-60452D02*
Y-4826D01*
X478264Y-81788D02*
X509778D01*
X531114Y-60452D01*
X505968Y-78740D02*
X528320Y-56388D01*
X422910Y-90932D02*
X423414Y-91436D01*
X423414D01*
X321818Y-85852D02*
X426486D01*
X320675Y-86995D02*
X321818Y-85852D01*
X263937Y-90535D02*
X274765Y-79707D01*
X553212Y-104394D02*
Y-94417D01*
X448497Y-156985D02*
Y-156862D01*
X485013Y-180975D02*
X562610Y-103378D01*
X514660Y-147701D02*
X519049Y-143312D01*
Y-143129D02*
X557784Y-104394D01*
X519049Y-143312D02*
Y-143129D01*
X736854Y-118237D02*
Y-113901D01*
X724490Y-127884D02*
X725021Y-128415D01*
X721467Y-130429D02*
X724027Y-132989D01*
X720371Y-138197D02*
X720598Y-138424D01*
X720371Y-138197D02*
Y-134901D01*
X853461Y-103378D02*
X854205Y-102634D01*
X855257Y-105918D02*
X856745Y-104430D01*
X854205Y-102634D02*
Y-76965D01*
X780161Y-132059D02*
Y-127381D01*
X458470Y-289687D02*
Y-284480D01*
X458343Y-289814D02*
X458470Y-289687D01*
X480144Y-249659D02*
X484247D01*
X485113Y-248793D01*
X487807D01*
X440199D02*
X479278D01*
X480144Y-249659D01*
X131191Y-275002D02*
X131425Y-274769D01*
X126578Y-276023D02*
X128885Y-273717D01*
X126313Y-276023D02*
X126578D01*
X131191Y-275717D02*
Y-275002D01*
X119126Y-265648D02*
Y-265156D01*
X101092Y-301244D02*
X126313Y-276023D01*
X119126Y-265156D02*
X119614Y-264668D01*
X530207Y-356451D02*
X535325Y-361569D01*
X530207Y-356451D02*
Y-355981D01*
X534487Y-334959D02*
Y-331470D01*
X537509Y-328448D01*
X534039Y-335407D02*
X534487Y-334959D01*
X543199Y-328783D02*
X580692D01*
X538988Y-332994D02*
X543199Y-328783D01*
X505841Y-73025D02*
X522732Y-56134D01*
X300482Y-77724D02*
X305181Y-73025D01*
X514477Y-147701D02*
X514660D01*
X733649Y-322199D02*
X753085D01*
X760311Y-329425D01*
X896638D01*
X724172Y-312722D02*
X733649Y-322199D01*
X543393Y-326243D02*
X581744D01*
X582618Y-327117D01*
X607813D01*
X609554Y-325376D01*
Y-324538D01*
X542651Y-325501D02*
X543393Y-326243D01*
X723120Y-315262D02*
X734441Y-326583D01*
Y-327970D02*
Y-326583D01*
Y-327970D02*
X738830Y-332359D01*
X737384Y-334505D02*
X737778Y-334899D01*
X747536Y-337045D02*
X830857D01*
X738830Y-332359D02*
X745038D01*
X737253Y-334505D02*
X737384D01*
X747142Y-337439D02*
X747536Y-337045D01*
X736332D02*
X736726Y-337439D01*
X736201Y-337045D02*
X736332D01*
X737778Y-334899D02*
X746090D01*
X745038Y-332359D02*
X745432Y-331965D01*
X895586D01*
X746090Y-334899D02*
X746484Y-334505D01*
X833885D01*
X736726Y-337439D02*
X747142D01*
X729614Y-275901D02*
X737667D01*
X195908Y-128524D02*
X227612D01*
X942395Y-362691D02*
X950777Y-354310D01*
X973070D01*
X1048635Y-161921D02*
X1059180Y-172466D01*
X290309Y-77167D02*
X290866Y-77724D01*
X300482D01*
X522732Y-56134D02*
Y12192D01*
X526034Y15494D01*
X273713Y-77167D02*
X290309D01*
X263937Y-92198D02*
Y-90535D01*
X227612Y-128524D02*
X263937Y-92198D01*
X265938Y-94778D02*
X276396Y-84320D01*
Y-83644D01*
X274765Y-79707D02*
X289257D01*
X247015Y-78359D02*
X272521D01*
X289257Y-79707D02*
X289814Y-80264D01*
X272521Y-78359D02*
X273713Y-77167D01*
X265938Y-140970D02*
Y-94778D01*
X869188Y19304D02*
X875284Y13208D01*
X549803Y15494D02*
X553613Y19304D01*
X526034Y15494D02*
X549803D01*
X557784Y-104394D02*
Y-31750D01*
X245618Y-79756D02*
X247015Y-78359D01*
X245618Y-90170D02*
Y-79756D01*
X169926Y-122682D02*
X209514D01*
X167132Y-119634D02*
X208970D01*
X218948Y-109656D01*
X222504Y-109692D02*
Y-49276D01*
X209514Y-122682D02*
X222504Y-109692D01*
X218948Y-109656D02*
Y-51054D01*
X210058Y-125730D02*
X245618Y-90170D01*
X1038600Y-296158D02*
Y-284728D01*
X1037590Y-283718D02*
X1038600Y-284728D01*
X915475Y-209101D02*
X990219Y-283845D01*
X1011469Y-275065D02*
X1100430D01*
X1052595Y-277605D02*
X1064042Y-289052D01*
X1038600Y-282558D02*
X1038738Y-282420D01*
X1018414Y-283718D02*
X1024527Y-277605D01*
X1052595D01*
X1038738Y-282420D02*
X1053818D01*
X1007110Y-272525D02*
X1079817D01*
X990346Y-283718D02*
X1018414D01*
X1079817Y-272525D02*
X1086551Y-265791D01*
X1064042Y-289052D02*
X1087311D01*
X1095693Y-297434D01*
X1136922D01*
X1137666Y-296690D01*
Y-283676D01*
X1154597Y-266744D01*
X1162440D01*
X1170377Y-274681D01*
X995680Y-547624D02*
X1081024Y-462280D01*
Y-441960D01*
X505968Y-558800D02*
Y-548368D01*
X506712Y-547624D01*
X995680D01*
X500634Y-564134D02*
X505968Y-558800D01*
X339949Y-560060D02*
X344023Y-564134D01*
X500634D01*
X274076Y-560060D02*
X339949D01*
X202946Y-631190D02*
X274076Y-560060D01*
X40386Y-631190D02*
X202946D01*
X309880Y-619506D02*
X320802Y-608584D01*
X277531Y-619506D02*
X309880D01*
X320802Y-608584D02*
X526796D01*
X7366Y-451612D02*
Y-402844D01*
X6604Y-402082D02*
X7366Y-402844D01*
X-7366Y-382778D02*
X5860D01*
X6604Y-383522D01*
Y-402082D02*
Y-383522D01*
X-26924Y-363220D02*
X-7366Y-382778D01*
X31063Y-165175D02*
Y-139589D01*
X11063Y-132447D02*
X24573Y-118937D01*
X56631D01*
X25203Y-126690D02*
X46792D01*
X51562Y-121920D01*
X88936D01*
X-8163Y-108937D02*
X61063D01*
X-9150Y-107950D02*
X-8163Y-108937D01*
X-9906Y-107950D02*
X-9150D01*
X-17526Y-92964D02*
X-14478Y-89916D01*
X-20066Y-81026D02*
X-17018Y-77978D01*
X-14986Y-98788D02*
X-14242Y-98044D01*
X-17526Y-111542D02*
Y-92964D01*
X-20066Y-112594D02*
Y-81026D01*
X-14986Y-110490D02*
Y-98788D01*
X-14242Y-98044D02*
X6985D01*
X67056Y-89662D02*
X69215Y-87503D01*
X57531Y-79883D02*
X59563Y-77851D01*
X23114Y-98937D02*
X67471D01*
X8001Y-99060D02*
X23114D01*
X6985Y-98044D02*
X8001Y-99060D01*
X7112Y-89662D02*
X67056D01*
X-14478Y-89916D02*
X6858D01*
X7112Y-89662D01*
X-17018Y-77978D02*
X254D01*
X1651Y-79883D02*
X57531D01*
X254Y-78486D02*
X1651Y-79883D01*
X61063Y-108937D02*
X75000Y-95000D01*
X70104Y-96304D02*
Y-91694D01*
X67471Y-98937D02*
X70104Y-96304D01*
X16002Y-454950D02*
X26924Y-465872D01*
X67712Y-110596D02*
X71120Y-107188D01*
X56631Y-118937D02*
X60233Y-115334D01*
Y-114199D01*
X63836Y-110596D01*
X67712D01*
X71120Y-107188D02*
X82804D01*
X90566Y-99426D01*
X96142D01*
X103904Y-91663D01*
Y-90463D01*
X113304Y-81063D01*
X115025D01*
X145000Y-25000D02*
X149606Y-29606D01*
Y-48514D02*
Y-29606D01*
X803432Y-209550D02*
X805114Y-211233D01*
X811322D01*
X813004Y-209550D01*
X829564D01*
X836789Y-198787D02*
X842024Y-204021D01*
X917579D02*
X988623Y-275065D01*
X912639Y-197973D02*
X916147Y-201481D01*
X988623Y-275065D02*
X1002241D01*
X916147Y-201481D02*
X918631D01*
X842024Y-204021D02*
X917579D01*
X989676Y-272525D02*
X1007005D01*
X918631Y-201481D02*
X989676Y-272525D01*
X830013Y-209101D02*
X915475D01*
X829564Y-209550D02*
X830013Y-209101D01*
X975503Y-308169D02*
X990313D01*
X946519Y-337153D02*
X975503Y-308169D01*
X990313D02*
X991081Y-308937D01*
X960372Y-339693D02*
X986380Y-313686D01*
X991081Y-312135D02*
X991616Y-312669D01*
X991081Y-312135D02*
Y-308937D01*
X913560Y-413365D02*
X958645Y-368280D01*
X990850D01*
X963943Y-359390D02*
X985770D01*
X947354Y-375979D02*
X963943Y-359390D01*
X975227Y-298569D02*
X977394Y-300736D01*
X978150D01*
X946422Y-337153D02*
X946519D01*
X947309Y-606220D02*
X972377Y-581152D01*
X382942Y-340741D02*
X405203Y-318480D01*
X145975Y-282194D02*
X158242Y-269927D01*
Y-263144D01*
X134112Y-282194D02*
X145975D01*
X151063Y-255965D02*
Y-193369D01*
Y-255965D02*
X158242Y-263144D01*
X974479Y-298569D02*
X975227D01*
X958393Y-282483D02*
X974479Y-298569D01*
X1008025Y-188800D02*
Y-183652D01*
Y-189077D02*
Y-188800D01*
X970997Y-117368D02*
Y-93218D01*
X1007872Y-189230D02*
X1008025Y-189077D01*
X1004401Y-180028D02*
Y-150773D01*
X970997Y-117368D02*
X1004401Y-150773D01*
Y-180028D02*
X1008025Y-183652D01*
X937260Y-81280D02*
X959059D01*
X970997Y-93218D01*
X943628Y-339947D02*
X946422Y-337153D01*
X925006Y-339693D02*
X927800Y-342487D01*
X944680D02*
X947474Y-339693D01*
X960372D01*
X926058Y-337153D02*
X928852Y-339947D01*
X903314Y-339693D02*
X925006D01*
X927800Y-342487D02*
X944680D01*
X904366Y-337153D02*
X926058D01*
X896638Y-329425D02*
X904366Y-337153D01*
X928852Y-339947D02*
X943628D01*
X976209Y-296029D02*
X983369D01*
X934180Y-326556D02*
X940840Y-333216D01*
X931640D02*
Y-317359D01*
X916637Y-302357D02*
X931640Y-317359D01*
X917690Y-299817D02*
X934180Y-316307D01*
X474980Y-204978D02*
X492252D01*
X386969Y-216154D02*
X463804D01*
X474980Y-204978D01*
X493286Y-207536D02*
X599694Y-101128D01*
X476758Y-207518D02*
X493268D01*
X492252Y-204978D02*
X597027Y-100203D01*
X471605Y-237490D02*
X536629Y-172466D01*
X487028Y-225658D02*
X537681Y-175006D01*
X473481Y-242824D02*
X538251Y-178054D01*
X474025Y-245872D02*
X539303Y-180594D01*
X472429Y-240284D02*
X487039Y-225673D01*
X437932Y-240284D02*
X472429D01*
X438984Y-242824D02*
X473481D01*
X439528Y-245872D02*
X474025D01*
X733421Y-100965D02*
X750824Y-83562D01*
Y-65278D01*
X828510Y-58674D02*
X837565Y-49619D01*
X826770Y-56134D02*
X831767Y-51137D01*
X845693Y-52471D02*
X847999Y-50165D01*
X837565Y-49619D02*
Y-49104D01*
X822855Y-77470D02*
X845693Y-54632D01*
Y-52471D01*
X831767Y-51137D02*
Y-49335D01*
X737878Y-92075D02*
X740291Y-89662D01*
X741132D01*
X725424Y-11484D02*
Y-8382D01*
X571194Y5715D02*
X586541D01*
X570396Y8509D02*
X585743D01*
X750133Y-11247D02*
X756737D01*
X748792Y-9906D02*
X750133Y-11247D01*
X784588Y-19848D02*
X808954D01*
X775916Y-11176D02*
X784588Y-19848D01*
X808954D02*
X809752Y-19050D01*
X775716Y-11176D02*
X775916D01*
X799084Y-3302D02*
Y508D01*
X584200Y-30734D02*
X593090Y-39624D01*
X556260Y-30226D02*
X557784Y-31750D01*
X914098Y-287354D02*
X918969Y-282483D01*
X898018Y-280145D02*
X917715D01*
X899070Y-277605D02*
X916663D01*
X890293Y-272420D02*
X898018Y-280145D01*
X917715D02*
X917917Y-279943D01*
X960123D01*
X891345Y-269880D02*
X899070Y-277605D01*
X916663D02*
X916865Y-277403D01*
X901635Y-287354D02*
X914098D01*
X918969Y-282483D02*
X958393D01*
X916865Y-277403D02*
X961175D01*
X966457Y-282685D01*
X960123Y-279943D02*
X976209Y-296029D01*
X1074928Y-303530D02*
X1147064D01*
X1096256Y-563380D02*
Y-563136D01*
X1055116Y-604520D02*
X1096256Y-563380D01*
X1062327Y-592229D02*
X1089914Y-564642D01*
Y-561467D02*
Y-559308D01*
Y-564642D02*
Y-561467D01*
X1116042Y-570772D02*
Y-564388D01*
X1117092Y-563338D02*
Y-555244D01*
X1116042Y-564388D02*
X1117092Y-563338D01*
X1116838Y-554990D02*
X1117092Y-555244D01*
X1108821Y-570627D02*
Y-556982D01*
X1061212Y-607822D02*
X1096264Y-572770D01*
X973074Y-607822D02*
X1061212D01*
X1108821Y-556982D02*
X1110305Y-555498D01*
X1046053Y-589163D02*
X1085145Y-550071D01*
X1088737D02*
X1089660Y-549148D01*
X1085145Y-550071D02*
X1088737D01*
X1044176Y-589163D02*
X1046053D01*
X1036165Y-581152D02*
X1044176Y-589163D01*
X972377Y-581152D02*
X1036165D01*
X947309Y-611743D02*
Y-606220D01*
X1134809Y-514885D02*
X1136065D01*
X1136600Y-515420D01*
X1134600Y-514676D02*
X1134809Y-514885D01*
X1134600Y-514676D02*
Y-482247D01*
X1167130Y-422148D02*
X1187196Y-402082D01*
X972436Y-592229D02*
X1062327D01*
X1156970Y-405892D02*
X1163955Y-398907D01*
Y-396728D01*
X1166856Y-393827D01*
X1178937Y-338082D02*
X1183559Y-333460D01*
Y-330198D01*
X1181934Y-328573D02*
Y-252222D01*
X1173570Y-254744D02*
X1174314Y-255488D01*
X1178937Y-382175D02*
Y-338082D01*
X1165181Y-388747D02*
X1173857Y-380071D01*
X1158875Y-394624D02*
X1164752Y-388747D01*
X1167285Y-393827D02*
X1178937Y-382175D01*
X1166233Y-391287D02*
X1176397Y-381123D01*
X1166856Y-393827D02*
X1167285D01*
X1179394Y-326489D02*
Y-253274D01*
X1187196Y-326651D02*
Y-242824D01*
X1174506Y-331377D02*
X1179394Y-326489D01*
X1177046Y-389408D02*
X1184474Y-381980D01*
X1187196Y-326651D02*
X1188639Y-328094D01*
X1174314Y-324385D02*
Y-255488D01*
X1169426Y-329273D02*
X1174314Y-324385D01*
X1184474Y-381980D02*
Y-336137D01*
X1187196Y-402082D02*
Y-337007D01*
X1186099Y-334512D02*
Y-329146D01*
X1177046Y-390642D02*
Y-389408D01*
X1161415Y-396105D02*
Y-395676D01*
X1184474Y-327521D02*
X1186099Y-329146D01*
X1176854Y-325437D02*
Y-254326D01*
X1181934Y-328573D02*
X1183559Y-330198D01*
X1184474Y-336137D02*
X1186099Y-334512D01*
X1171966Y-330325D02*
X1176854Y-325437D01*
X1112242Y-254744D02*
X1173570D01*
X1157942Y-395986D02*
X1158875Y-395053D01*
X1188639Y-335564D02*
Y-328094D01*
X1158875Y-395053D02*
Y-394624D01*
X1161415Y-395676D02*
X1165804Y-391287D01*
X1187196Y-337007D02*
X1188639Y-335564D01*
X1165804Y-391287D02*
X1166233D01*
X1174732Y-252204D02*
X1176854Y-254326D01*
X1184474Y-327521D02*
Y-251170D01*
X1158994Y-398526D02*
X1161415Y-396105D01*
X1164752Y-388747D02*
X1165181D01*
X1175785Y-249664D02*
X1179394Y-253274D01*
X1149941Y-391287D02*
X1169426Y-371802D01*
X1149858Y-396240D02*
X1150112Y-395986D01*
X1171966Y-374918D02*
X1173857Y-376809D01*
X1155402Y-398526D02*
X1158994D01*
X1176397Y-381123D02*
Y-375757D01*
X1173857Y-380071D02*
Y-376809D01*
X1150322Y-403606D02*
X1155402Y-398526D01*
X1150112Y-395986D02*
X1157942D01*
X1174506Y-373866D02*
X1176397Y-375757D01*
X1171966Y-374918D02*
Y-330325D01*
X1174506Y-373866D02*
Y-331377D01*
X1169426Y-371802D02*
Y-329273D01*
X1113024Y-247900D02*
X1117328Y-252204D01*
X1112637Y-247513D02*
X1113024Y-247900D01*
X1183640Y-250336D02*
X1184474Y-251170D01*
X1176837Y-247124D02*
X1181934Y-252222D01*
X1166348Y-238486D02*
X1174986Y-247124D01*
X1183640Y-250336D02*
Y-244602D01*
X1172192Y-249664D02*
X1175785D01*
X1174986Y-247124D02*
X1176837D01*
X1113024Y-247900D02*
X1113024D01*
X1117328Y-252204D02*
X1174732D01*
X1169053Y-246525D02*
X1172192Y-249664D01*
X1113689Y-244973D02*
X1115241Y-246525D01*
X1169053D01*
X1147773Y-225447D02*
X1148894Y-226568D01*
X1170940D02*
X1187196Y-242824D01*
X1168654Y-229616D02*
X1183640Y-244602D01*
X1148894Y-226568D02*
X1170940D01*
X1142407Y-225447D02*
X1147773D01*
X1104727Y-244973D02*
X1113689D01*
X1105779Y-247513D02*
X1112637D01*
X1083569Y-251440D02*
X1101852D01*
X1108179Y-251450D02*
X1111473Y-254744D01*
X1103175Y-246525D02*
X1104727Y-244973D01*
X1085642Y-246525D02*
X1103175D01*
X1111473Y-254744D02*
X1112242D01*
X1101852Y-251440D02*
X1105779Y-247513D01*
X1106678Y-240792D02*
X1107202Y-241316D01*
X1168908Y-398780D02*
X1177046Y-390642D01*
X1148350Y-229616D02*
X1168654D01*
X1146721Y-227987D02*
X1148350Y-229616D01*
X1143459Y-227987D02*
X1146721D01*
X1142338Y-229108D02*
X1143459Y-227987D01*
X1086358Y-237490D02*
X1094740Y-229108D01*
X1142338D01*
X1141286Y-226568D02*
X1142407Y-225447D01*
X1091658Y-226568D02*
X1141286D01*
X1009305Y-294025D02*
X1265600Y-550320D01*
X1086062Y-232164D02*
X1091658Y-226568D01*
X923742Y-220960D02*
X996807Y-294025D01*
X994703Y-299105D02*
X1007201D01*
X978283Y-282685D02*
X994703Y-299105D01*
X1007201D02*
X1017204Y-309108D01*
X966457Y-282685D02*
X978283D01*
X1008253Y-296565D02*
X1157522Y-445834D01*
X939610Y-240420D02*
X995755Y-296565D01*
X909969Y-240420D02*
X939610D01*
X996807Y-294025D02*
X1009305D01*
X995755Y-296565D02*
X1008253D01*
X1053818Y-282420D02*
X1074928Y-303530D01*
X1156228Y-294366D02*
Y-270681D01*
X1147064Y-303530D02*
X1156228Y-294366D01*
X1035300Y-74676D02*
Y-69881D01*
X437024Y-251968D02*
X440199Y-248793D01*
X741132Y-89662D02*
X748030Y-82764D01*
X853567Y-72685D02*
X856745Y-75863D01*
X849630Y-72390D02*
Y-54102D01*
Y-72390D02*
X854205Y-76965D01*
X857504Y-73030D02*
X859285Y-74811D01*
X856745Y-104430D02*
Y-75863D01*
X859285Y-105482D02*
Y-74811D01*
X903882Y-193294D02*
X908561Y-197973D01*
X600329Y-208026D02*
X600692Y-208389D01*
X107034Y-331718D02*
Y-329465D01*
X107569Y-328930D01*
X106172Y-340034D02*
Y-332581D01*
X107034Y-331718D01*
X106172Y-340034D02*
X108458Y-342320D01*
X110109Y-340379D02*
X110998Y-341268D01*
X110109Y-340379D02*
Y-334212D01*
X115570Y-338038D02*
Y-332740D01*
X113538Y-340070D02*
X115570Y-338038D01*
X121860Y-327112D02*
X127127Y-332379D01*
X115022Y-327112D02*
X121860D01*
X129667Y-338201D02*
Y-330327D01*
X125730Y-313690D02*
X132207Y-320167D01*
Y-339979D02*
Y-320167D01*
X133350Y-315214D02*
X141986Y-323850D01*
X395668Y-338174D02*
X409484Y-324358D01*
X410718D01*
X395668Y-345522D02*
Y-338174D01*
X386733Y-354457D02*
X395668Y-345522D01*
X142240Y-320294D02*
X145034Y-323088D01*
X215011Y68687D02*
X218206Y71882D01*
X218801Y67417D02*
X222885D01*
X211328Y45466D02*
Y51816D01*
X208026Y42164D02*
X211328Y45466D01*
Y51816D02*
X215011Y55499D01*
X218694Y67310D02*
X218801Y67417D01*
X215011Y55499D02*
Y68687D01*
X218206Y71882D02*
X219202D01*
X222885Y67417D02*
X226715Y71247D01*
X239649Y63373D02*
Y69469D01*
X235240Y65786D02*
X235712D01*
X210566Y2540D02*
Y41112D01*
X235240Y65786D01*
X214122Y37846D02*
X239649Y63373D01*
X214122Y2794D02*
Y37846D01*
X221107Y73787D02*
X238923D01*
X219202Y71882D02*
X221107Y73787D01*
X226715Y71247D02*
X237871D01*
X239649Y69469D01*
X238923Y73787D02*
X243051Y69659D01*
Y67337D02*
Y69659D01*
X208026Y1488D02*
Y42164D01*
Y1488D02*
X211328Y-1814D01*
X205000Y-35000D02*
X211328Y-28672D01*
X210566Y2540D02*
X215000Y-1894D01*
X214122Y2794D02*
X219294Y-2378D01*
Y-4861D02*
Y-2378D01*
Y-4861D02*
X225000Y-10568D01*
Y-35000D02*
Y-10568D01*
X165000Y-15000D02*
X174060Y-24060D01*
X174244Y-23876D02*
X175768Y-25400D01*
X189484Y-35560D02*
Y-26144D01*
X188740Y-25400D02*
X189484Y-26144D01*
X175768Y-25400D02*
X188740D01*
X189484Y-35560D02*
X193802Y-39878D01*
X197358D01*
X198937Y-48569D02*
X199898Y-49530D01*
X198937Y-48569D02*
Y-41457D01*
X197358Y-39878D02*
X198937Y-41457D01*
X199898Y-49530D02*
X217424D01*
X218948Y-51054D01*
X175000Y-15000D02*
X180330Y-20330D01*
X198374Y-20320D02*
X200406Y-22352D01*
X180340Y-20320D02*
X198374D01*
X200406Y-38354D02*
Y-22352D01*
X202184Y-40132D02*
X219220D01*
X200406Y-38354D02*
X202184Y-40132D01*
X219220D02*
X219964Y-40876D01*
Y-46736D02*
Y-40876D01*
Y-46736D02*
X222504Y-49276D01*
X161798Y-130810D02*
X169926Y-122682D01*
X158496Y-128270D02*
X167132Y-119634D01*
X158937Y-85495D02*
X174432Y-70000D01*
X85598Y-185598D02*
Y-185420D01*
Y-185598D02*
X88937Y-188937D01*
Y-198411D02*
Y-188937D01*
X115000Y-195000D02*
X118937Y-198937D01*
X52788Y-124460D02*
X89988D01*
X54130Y-130302D02*
X94996D01*
X53078Y-127762D02*
X91897D01*
X89988Y-124460D02*
X91766Y-122682D01*
X88936Y-121920D02*
X91063Y-119793D01*
X48019Y-129229D02*
X52788Y-124460D01*
X92886Y-122682D02*
X93235Y-122333D01*
X91766Y-122682D02*
X92886D01*
X91897Y-127762D02*
X94786Y-124873D01*
X93235Y-122333D02*
X103001D01*
X91063Y-119793D02*
X101949D01*
X49071Y-131770D02*
X53078Y-127762D01*
X50123Y-134310D02*
X54130Y-130302D01*
X104053Y-124873D02*
X106244Y-122682D01*
X94786Y-124873D02*
X104053D01*
X120033Y-268897D02*
X121694Y-267236D01*
X95000Y-185000D02*
X99660Y-180340D01*
X120142D01*
X115669Y-269670D02*
X118872Y-266466D01*
Y-265902D02*
X119126Y-265648D01*
X118872Y-266466D02*
Y-265902D01*
X98964Y-161036D02*
X121412D01*
X95000Y-165000D02*
X98964Y-161036D01*
X551426Y-381262D02*
X559399Y-389235D01*
X549549Y-385445D02*
X551307D01*
X550037Y-375067D02*
X552541Y-377571D01*
X555117Y-380147D02*
Y-379877D01*
X551307Y-385445D02*
X557637Y-391775D01*
X547243Y-383139D02*
X549549Y-385445D01*
X555117Y-380147D02*
X561665Y-386695D01*
X552811Y-377571D02*
X555117Y-379877D01*
X552541Y-377571D02*
X552811D01*
X544068Y-378206D02*
X547243Y-381381D01*
Y-383139D02*
Y-381381D01*
X557637Y-391775D02*
X732962D01*
X543560Y-378206D02*
X544068D01*
X559399Y-389235D02*
X735990D01*
X546191Y-371221D02*
X546243D01*
X536539Y-361569D02*
X546191Y-371221D01*
X550037Y-375067D02*
Y-375015D01*
X546243Y-371221D02*
X550037Y-375015D01*
X536199Y-357243D02*
X563111Y-384155D01*
X735990Y-389235D02*
X775712Y-428957D01*
X732962Y-391775D02*
X775478Y-434291D01*
X775712D01*
X546026Y-340286D02*
X554990Y-331323D01*
X547624Y-351282D02*
Y-342428D01*
X548640Y-341412D01*
X544324Y-354691D02*
Y-342136D01*
X548640Y-341376D02*
X556153Y-333863D01*
X548640Y-341412D02*
Y-341376D01*
X544324Y-354691D02*
X546631Y-356997D01*
X544324Y-342136D02*
X546100Y-340360D01*
X553321Y-353568D02*
X553720D01*
X549892Y-356997D02*
X553321Y-353568D01*
X545370Y-360712D02*
X549524Y-364866D01*
X545327Y-360712D02*
X545370D01*
X546631Y-356997D02*
X549892D01*
X549524Y-364866D02*
X736664D01*
X551937Y-360929D02*
X737009D01*
X752245Y-345694D01*
X736664Y-364866D02*
X753297Y-348234D01*
X547727Y-352525D02*
X548261Y-353060D01*
X547624Y-351282D02*
X547727Y-351385D01*
Y-352525D02*
Y-351385D01*
X554990Y-331323D02*
X579640D01*
X556153Y-333863D02*
X578588D01*
X753297Y-348234D02*
X777924D01*
X779321Y-349631D01*
X780064D01*
X784402Y-343553D02*
Y-343388D01*
X752245Y-345694D02*
X782261D01*
X784402Y-343553D01*
X837454Y-343642D02*
X837688D01*
X579462Y-334737D02*
X610969D01*
X830857Y-337045D02*
X837454Y-343642D01*
X578588Y-333863D02*
X579462Y-334737D01*
X614634Y-327480D02*
Y-326834D01*
X833885Y-334505D02*
X837688Y-338308D01*
X720550Y-317802D02*
X737253Y-334505D01*
X609917Y-332197D02*
X614634Y-327480D01*
X579640Y-331323D02*
X580514Y-332197D01*
X609917D01*
X536199Y-357243D02*
Y-356797D01*
X561665Y-386695D02*
X755841D01*
X563111Y-384155D02*
X743561D01*
X535325Y-361569D02*
X536539D01*
X895586Y-331965D02*
X903314Y-339693D01*
X612094Y-326428D02*
Y-325782D01*
X581566Y-329657D02*
X608865D01*
X612094Y-326428D01*
X580692Y-328783D02*
X581566Y-329657D01*
X122174Y23602D02*
X122301Y23475D01*
Y20213D02*
Y23475D01*
X122174Y20086D02*
X122301Y20213D01*
X122174Y-31242D02*
Y20086D01*
Y23602D02*
Y41148D01*
X755396Y-60706D02*
X801746D01*
X802726Y-56134D02*
X826770D01*
X801746Y-60706D02*
X803778Y-58674D01*
X828510D01*
X750824Y-65278D02*
X755396Y-60706D01*
X748284Y-71592D02*
Y-64008D01*
X748030Y-71846D02*
X748284Y-71592D01*
X748030Y-82764D02*
Y-71846D01*
X1100430Y-275065D02*
X1103267Y-277903D01*
X1103490D01*
X1004548Y-277373D02*
X1009162D01*
X1007005Y-272525D02*
X1007110Y-272420D01*
X1009162Y-277373D02*
X1011469Y-275065D01*
X174886Y-250578D02*
Y-244335D01*
Y-250578D02*
X177292Y-252984D01*
X174886Y-244335D02*
X175000Y-244221D01*
X189504Y-284734D02*
X191907Y-282331D01*
X159682Y-223604D02*
X164189Y-219097D01*
X155000Y-235000D02*
X159682Y-230318D01*
Y-223604D01*
X193369Y-228937D02*
X247821D01*
X189432Y-225000D02*
X193369Y-228937D01*
X185000Y-225000D02*
X189432D01*
X137140Y-284734D02*
X189504D01*
X130175Y-283825D02*
X132481Y-286131D01*
X130175Y-283825D02*
Y-280325D01*
X132481Y-286131D02*
X135743D01*
X139827Y-258171D02*
Y-239827D01*
X135000Y-235000D02*
X139827Y-239827D01*
X117237Y-303705D02*
X132271Y-288671D01*
X136795D01*
X136922Y-288544D02*
X188742D01*
X136795Y-288671D02*
X136922Y-288544D01*
X135743Y-286131D02*
X137140Y-284734D01*
X133909Y-291338D02*
X143764D01*
X136936Y-293878D02*
X144816D01*
X188742Y-288544D02*
X191155Y-290957D01*
X151063Y-193369D02*
X154980Y-189452D01*
X180548D01*
X185000Y-185000D01*
X165495Y-198937D02*
X216631D01*
X158937Y-205495D02*
X165495Y-198937D01*
X158937Y-216631D02*
Y-205495D01*
X155000Y-220568D02*
X158937Y-216631D01*
X155000Y-225000D02*
Y-220568D01*
X225495Y-188937D02*
X248451D01*
X220000Y-194432D02*
X225495Y-188937D01*
X220000Y-195568D02*
Y-194432D01*
X216631Y-198937D02*
X220000Y-195568D01*
X169418Y-210582D02*
Y-210058D01*
X237236D01*
X230191Y-158937D02*
X237490Y-151638D01*
X114021Y-125730D02*
X148688Y-91063D01*
X154505D01*
X106788Y-125730D02*
X114021D01*
X154505Y-91063D02*
X158937Y-86631D01*
Y-85495D01*
X178937Y-66631D02*
Y-60077D01*
X175568Y-70000D02*
X178937Y-66631D01*
X174432Y-70000D02*
X175568D01*
X81026Y-87376D02*
Y-71864D01*
X78232Y-90170D02*
X81026Y-87376D01*
X115025Y-81063D02*
X125025Y-71063D01*
X134505D01*
X139485Y-66083D01*
Y-60515D01*
X145000Y-55000D01*
X120503Y-65000D02*
X135000D01*
X70104Y-91694D02*
X71628Y-90170D01*
X78232D01*
X82024Y-70866D02*
X114637D01*
X81026Y-71864D02*
X82024Y-70866D01*
X114637D02*
X120503Y-65000D01*
X69088Y-87376D02*
Y-62738D01*
X71882Y-59944D02*
X122054D01*
X69088Y-62738D02*
X71882Y-59944D01*
X59436Y-77724D02*
Y-54102D01*
X63754Y-49784D02*
X148336D01*
X59436Y-54102D02*
X63754Y-49784D01*
X53594Y-40640D02*
X121412D01*
X50927Y-67183D02*
Y-43307D01*
X48260Y-69850D02*
X50927Y-67183D01*
Y-43307D02*
X53594Y-40640D01*
X105374Y-101564D02*
X115461Y-91477D01*
X107950Y-118328D02*
Y-102580D01*
X105410Y-116332D02*
Y-101600D01*
X107950Y-102580D02*
X116513Y-94017D01*
X101949Y-119793D02*
X105410Y-116332D01*
X106136Y-120142D02*
X107950Y-118328D01*
X105105Y-127413D02*
X106788Y-125730D01*
X105192Y-120142D02*
X106136D01*
X103001Y-122333D02*
X105192Y-120142D01*
X94996Y-130302D02*
X97885Y-127413D01*
X106244Y-122682D02*
X107188D01*
X97885Y-127413D02*
X105105D01*
X110998Y-103124D02*
X117565Y-96557D01*
X107188Y-122682D02*
X110998Y-118872D01*
Y-103124D01*
X115461Y-91477D02*
X117618D01*
X123988Y-84582D02*
X130986D01*
X121412Y-87158D02*
X123988Y-84582D01*
X121412Y-87683D02*
Y-87158D01*
X38882Y-131770D02*
X49071D01*
X26255Y-129229D02*
X48019D01*
X39878Y-134366D02*
X39934Y-134310D01*
X50123D01*
X16510Y-135382D02*
X25203Y-126690D01*
X31063Y-139589D02*
X38882Y-131770D01*
X20066Y-135418D02*
X26255Y-129229D01*
X16510Y-168656D02*
Y-135382D01*
X20066Y-166624D02*
Y-135418D01*
X127875Y-96557D02*
X135495Y-88937D01*
X118670Y-94017D02*
X123952Y-88735D01*
X117565Y-96557D02*
X127875D01*
X123952Y-88735D02*
Y-88210D01*
X116513Y-94017D02*
X118670D01*
X123952Y-88210D02*
X125040Y-87122D01*
X135495Y-88937D02*
X146304D01*
X117618Y-91477D02*
X121412Y-87683D01*
X125040Y-87122D02*
X132850D01*
X138909Y-81063D01*
X146467Y-89100D02*
X148937Y-86631D01*
X130986Y-84582D02*
X138937Y-76631D01*
X168937Y-66631D02*
Y-55091D01*
X156631Y-78937D02*
X168937Y-66631D01*
X180086Y-58928D02*
Y-41910D01*
X178937Y-60077D02*
X180086Y-58928D01*
X169672Y-54356D02*
Y-45720D01*
X148937Y-86631D02*
Y-85495D01*
X155495Y-78937D01*
X156631D01*
X168937Y-55091D02*
X169672Y-54356D01*
X160020Y-65548D02*
Y-40020D01*
X138909Y-81063D02*
X144505D01*
X150271Y-75297D01*
Y-74162D01*
X153911Y-70521D01*
X155046D01*
X160020Y-65548D01*
X148937Y-61063D02*
X155000Y-55000D01*
X138937Y-76631D02*
Y-72373D01*
X142308Y-69002D01*
X146565D01*
X148937Y-66631D01*
Y-61063D01*
X350520Y-626999D02*
X350540Y-626979D01*
X310932Y-622046D02*
X316012Y-616966D01*
X302006Y-636016D02*
X318516Y-619506D01*
X297541Y-633476D02*
X308971Y-622046D01*
X310932D01*
X272796Y-633476D02*
X297541D01*
X972784Y-604520D02*
X1055116D01*
X186689Y-293675D02*
X189051Y-296037D01*
X145019Y-293675D02*
X186689D01*
X187741Y-291135D02*
X190103Y-293497D01*
X143967Y-291135D02*
X187741D01*
X314155Y-224409D02*
X315869Y-226123D01*
X143764Y-291338D02*
X143967Y-291135D01*
X144816Y-293878D02*
X145019Y-293675D01*
X315869Y-226123D02*
X402039D01*
X247396Y-290104D02*
X249615Y-287885D01*
X247396Y-308374D02*
Y-290104D01*
X229486Y-309118D02*
X246652D01*
X120033Y-272739D02*
Y-268897D01*
Y-272739D02*
X121358Y-274064D01*
X100838Y-295636D02*
X121358Y-275116D01*
Y-274064D01*
X98298Y-292572D02*
X115669Y-275201D01*
Y-269670D01*
X100838Y-297906D02*
Y-295636D01*
X178937Y-158937D02*
X230191D01*
X175000Y-155000D02*
X178937Y-158937D01*
X192253Y-132180D02*
X195908Y-128524D01*
X183388Y-132180D02*
X192253D01*
X172871Y-140565D02*
X175003D01*
X168937Y-144499D02*
X172871Y-140565D01*
X175003D02*
X183388Y-132180D01*
X165000Y-145000D02*
X165501Y-144499D01*
X168937D01*
X175768Y-125730D02*
X210058D01*
X170561Y-130937D02*
X175768Y-125730D01*
X170561Y-136525D02*
Y-130937D01*
X166878Y-140208D02*
X170561Y-136525D01*
X141205Y-140208D02*
X166878D01*
X132334Y-130810D02*
X161798D01*
X130302Y-128270D02*
X158496D01*
X165000Y-215000D02*
X169418Y-210582D01*
X155000Y-185000D02*
X160422Y-179578D01*
X150114Y-152382D02*
X153398Y-149098D01*
X150114Y-176530D02*
Y-152382D01*
X145581Y-181063D02*
X150114Y-176530D01*
X138937Y-181063D02*
X145581D01*
X135000Y-185000D02*
X138937Y-181063D01*
X138937Y-142476D02*
X141205Y-140208D01*
X138937Y-171063D02*
Y-142476D01*
X135000Y-175000D02*
X138937Y-171063D01*
X630839Y-527760D02*
X633980Y-524618D01*
X136144Y-458653D02*
X137033Y-457764D01*
X136144Y-476758D02*
Y-458653D01*
X96012Y-299140D02*
X98298Y-296854D01*
X98552Y-300192D02*
X100838Y-297906D01*
X93472Y-298088D02*
X95250Y-296310D01*
Y-291338D01*
X98298Y-296854D02*
Y-292572D01*
X131064Y-481838D02*
X136144Y-476758D01*
X50038Y-254254D02*
Y-171704D01*
X39878Y-161544D02*
X50038Y-171704D01*
X39878Y-161544D02*
Y-134366D01*
X20066Y-166624D02*
X22733Y-169291D01*
X16510Y-168656D02*
X19558Y-171704D01*
X1016Y-346964D02*
Y-302768D01*
X2540Y-301244D01*
X5842Y-320532D02*
Y-319786D01*
X10160Y-308864D02*
X11176Y-307848D01*
X5334Y-308864D02*
X10160D01*
X178562Y-40386D02*
X180086Y-41910D01*
X170386Y-40386D02*
X178562D01*
X165000Y-35000D02*
X170386Y-40386D01*
X159428Y-35476D02*
X169672Y-45720D01*
X159428Y-35476D02*
Y-29428D01*
X155000Y-25000D02*
X159428Y-29428D01*
X155000Y-35000D02*
X160020Y-40020D01*
X8636Y-300228D02*
Y-281432D01*
X2540Y-301244D02*
X7620D01*
X8636Y-300228D01*
X-1270Y-288798D02*
X4572Y-294640D01*
X126998Y-55000D02*
X135000D01*
X122054Y-59944D02*
X126998Y-55000D01*
X148336Y-49784D02*
X149606Y-48514D01*
X74676Y-135128D02*
X75184D01*
X59690Y-150114D02*
X74676Y-135128D01*
X121412Y-40640D02*
X125772Y-45000D01*
X135000D01*
X56388Y50292D02*
X62992Y43688D01*
X63282Y46990D02*
X120904D01*
X55662Y54610D02*
X63282Y46990D01*
X62992Y43688D02*
X119634D01*
X40386Y54610D02*
X55662D01*
X119634Y43688D02*
X122174Y41148D01*
Y-31242D02*
X130810Y-39878D01*
X139878D01*
X145000Y-45000D01*
X21590Y63500D02*
X31496D01*
X40386Y54610D01*
X120904Y46990D02*
X125222Y42672D01*
Y-20790D02*
Y42672D01*
Y-20790D02*
X133896Y-29464D01*
X139464D01*
X145000Y-35000D01*
X437134Y-237490D02*
X471605D01*
X432816Y-241808D02*
X437134Y-237490D01*
X433868Y-244348D02*
X437932Y-240284D01*
X435972Y-249428D02*
X439528Y-245872D01*
X246652Y-309118D02*
X247396Y-308374D01*
X205740Y-313817D02*
X206756Y-314833D01*
X205740Y-313817D02*
Y-308610D01*
X412262Y-261874D02*
X413119Y-261017D01*
X59182Y-381218D02*
Y-281178D01*
X64409Y-374289D02*
Y-279761D01*
X95250Y-392720D02*
X114554Y-412024D01*
X80754Y-382470D02*
Y-290086D01*
Y-382470D02*
X112014Y-413730D01*
X98298Y-392176D02*
X117094Y-410972D01*
X96012Y-195256D02*
X96800Y-196044D01*
X96012Y-195256D02*
Y-195072D01*
X96800Y-196044D02*
X96984D01*
X100584Y-199644D01*
X88937Y-198411D02*
X90424Y-199898D01*
X96774D01*
X100584Y-203708D01*
X86106Y-205350D02*
Y-204978D01*
X86291Y-205535D02*
X88441D01*
X86106Y-205350D02*
X86291Y-205535D01*
X88441D02*
X90170Y-207264D01*
Y-243586D02*
Y-207264D01*
X74608Y-215392D02*
X75946D01*
X76291Y-215535D02*
X78883D01*
X80772Y-217424D01*
Y-244983D02*
Y-217424D01*
X67773Y-195535D02*
X69596Y-197358D01*
X65278Y-195072D02*
X65741Y-195535D01*
X67773D01*
X69596Y-242824D02*
Y-197358D01*
X117094Y-507492D02*
X166878Y-557276D01*
X114554Y-508544D02*
X160528Y-554518D01*
X109474Y-510648D02*
X141224Y-542398D01*
X112014Y-509596D02*
X153924Y-551506D01*
X119634Y-506095D02*
X172466Y-558927D01*
X106934Y-511700D02*
X135128Y-539894D01*
X172466Y-598678D02*
Y-558927D01*
X135128Y-595122D02*
Y-539894D01*
X160528Y-599186D02*
Y-554518D01*
X166878Y-599694D02*
Y-557276D01*
X128524Y-597154D02*
Y-537936D01*
X153924Y-599186D02*
Y-551506D01*
X141224Y-599694D02*
Y-542398D01*
X122174Y-596646D02*
Y-535178D01*
X100584Y-270256D02*
Y-203708D01*
X80754Y-290086D02*
X100584Y-270256D01*
X76708Y-272034D02*
Y-257048D01*
X90170Y-243586D01*
X66949Y-281793D02*
X76708Y-272034D01*
X72336Y-253419D02*
X80772Y-244983D01*
X72336Y-271834D02*
Y-253419D01*
X64409Y-279761D02*
X72336Y-271834D01*
X68580Y-243840D02*
X69596Y-242824D01*
X68580Y-271780D02*
Y-243840D01*
X59182Y-281178D02*
X68580Y-271780D01*
X56642Y-243840D02*
X59690Y-240792D01*
X56642Y-382270D02*
Y-243840D01*
X1054957Y-403777D02*
X1124136Y-472956D01*
X1125308D01*
X1054957Y-403777D02*
Y-370777D01*
X1125308Y-472956D02*
X1134600Y-482247D01*
X983369Y-296029D02*
X1016485Y-329145D01*
Y-332305D02*
X1054957Y-370777D01*
X1016485Y-332305D02*
Y-329145D01*
X798707Y-246527D02*
X883430D01*
X1127907Y-537622D02*
X1150024Y-515504D01*
X1113153Y-441746D02*
X1150024Y-478618D01*
Y-515504D02*
Y-478618D01*
X1057497Y-401494D02*
Y-358433D01*
X1097749Y-441746D02*
X1113153D01*
X1057497Y-401494D02*
X1097749Y-441746D01*
X1242437Y-581257D02*
Y-544102D01*
X1157522Y-459187D02*
X1242437Y-544102D01*
X1194050Y-595870D02*
Y-567670D01*
X1175000Y-582820D02*
Y-567670D01*
X1035274Y-69856D02*
X1035300Y-69881D01*
X1157522Y-459187D02*
Y-445834D01*
X1017204Y-317185D02*
X1047365Y-347345D01*
Y-348301D02*
Y-347345D01*
X1017204Y-317185D02*
Y-309108D01*
X896555Y-282274D02*
X901635Y-287354D01*
X894451D02*
X909453Y-302357D01*
X916637D01*
X895503Y-284814D02*
X910505Y-299817D01*
X731790Y-284814D02*
X895503D01*
X934180Y-326556D02*
Y-316307D01*
X910505Y-299817D02*
X917690D01*
X879532Y-269880D02*
X891345D01*
X869134Y-259482D02*
X879532Y-269880D01*
X730738Y-287354D02*
X894451D01*
X888334Y-282274D02*
X896555D01*
X758618Y-253050D02*
X765050Y-259482D01*
X869134D01*
X881961Y-275901D02*
X888334Y-282274D01*
X714055Y-270671D02*
X730738Y-287354D01*
X715107Y-268131D02*
X731790Y-284814D01*
X1002241Y-275065D02*
X1004548Y-277373D01*
X885208Y-244749D02*
X905640D01*
X883430Y-246527D02*
X885208Y-244749D01*
X905640D02*
X909969Y-240420D01*
X908561Y-197973D02*
X912639D01*
X725600Y-271887D02*
X729614Y-275901D01*
X1047365Y-348301D02*
X1057497Y-358433D01*
X1086551Y-265791D02*
X1088823D01*
X1091933Y-262681D01*
X1150381D01*
X880675Y-362691D02*
X942395D01*
X805137Y-438228D02*
X880675Y-362691D01*
X657554Y-438228D02*
X805137D01*
X644241Y-424915D02*
X657554Y-438228D01*
X596147Y-424915D02*
X644241D01*
X586375Y-415143D02*
X596147Y-424915D01*
X939811Y-375979D02*
X947354D01*
X922501Y-393288D02*
X939811Y-375979D01*
X848590Y-458450D02*
X913751Y-393288D01*
X922501D01*
X646011Y-458450D02*
X848590D01*
X615016Y-427455D02*
X646011Y-458450D01*
X569725Y-427455D02*
X615016D01*
X560320Y-436860D02*
X569725Y-427455D01*
X843499Y-469169D02*
X899303Y-413365D01*
X597819Y-436860D02*
X630129Y-469169D01*
X843499D01*
X585720Y-436860D02*
X597819D01*
X899303Y-413365D02*
X913560D01*
X549639Y-519977D02*
X557421Y-527760D01*
X630839D01*
X755841Y-386695D02*
X758948Y-383588D01*
Y-378186D01*
X745758Y-381958D02*
X755011D01*
X743561Y-384155D02*
X745758Y-381958D01*
D19*
X538723Y-654812D02*
X539485Y-655574D01*
X543825Y-654812D02*
X1094232D01*
X539485Y-655574D02*
X543063D01*
X484378Y-654812D02*
X538723D01*
X543063Y-655574D02*
X543825Y-654812D01*
X-117856Y-550926D02*
X-104394D01*
X-124968Y-607822D02*
Y-558038D01*
X-117856Y-550926D01*
X-124968Y-607822D02*
X-120650Y-612140D01*
X-73914D01*
X-23622Y-662432D01*
X188214D01*
X215138Y-689356D01*
X449834D01*
X484378Y-654812D01*
X1094232D02*
X1133602Y-615442D01*
Y-580898D01*
X1161288Y-553212D01*
X1203452D01*
X1226058Y-575818D01*
Y-599948D02*
Y-575818D01*
Y-599948D02*
X1231848Y-605738D01*
X1270052D01*
X1272032Y-603758D01*
Y-547370D01*
X1124204Y-399542D02*
X1272032Y-547370D01*
X1124204Y-399542D02*
Y-388377D01*
X1149604Y-362977D02*
Y-353314D01*
X1124204Y-388377D02*
X1149604Y-362977D01*
X1138756Y-342466D02*
X1149604Y-353314D01*
X1099386Y-341275D02*
Y-331658D01*
Y-341275D02*
X1100576Y-342466D01*
X1138756D01*
D123*
X-236050Y17780D02*
D03*
Y-68620D02*
D03*
D124*
X-194250Y17780D02*
D03*
Y-68620D02*
D03*
D125*
X-199250Y3480D02*
D03*
Y-54320D02*
D03*
X1179000Y35330D02*
D03*
X1121200D02*
D03*
D127*
X255880Y67960D02*
D03*
X205880D02*
D03*
X342540Y-666630D02*
D03*
X292540D02*
D03*
D130*
X1254900Y46880D02*
D03*
X1280300Y-16620D02*
D03*
Y8780D02*
D03*
Y34180D02*
D03*
X1254900Y-29320D02*
D03*
Y-3920D02*
D03*
Y21480D02*
D03*
D135*
X1392800Y-60820D02*
D03*
X1377600Y65680D02*
D03*
Y-35420D02*
D03*
X1392800Y40280D02*
D03*
D138*
X1343800Y59580D02*
D03*
Y-54720D02*
D03*
D139*
X1280300Y-42020D02*
D03*
D140*
X1313300Y81180D02*
D03*
Y-76320D02*
D03*
D141*
X1193300Y72130D02*
D03*
X1106900D02*
D03*
D142*
X1193300Y30330D02*
D03*
X1106900D02*
D03*
D145*
X193294Y-381762D02*
X197866Y-386334D01*
Y-390826D02*
Y-386334D01*
Y-430784D02*
Y-392430D01*
X174752Y-381762D02*
X193294D01*
X229108Y-485648D02*
Y-466018D01*
X231104Y-464022D02*
X232084Y-463042D01*
X229108Y-466018D02*
X231104Y-464022D01*
X231140Y-464058D01*
X197866Y-430784D02*
X231104Y-464022D01*
X306531Y-463042D02*
Y-406121D01*
X232084Y-463042D02*
X306070D01*
X306531Y-406121D02*
X309507Y-403145D01*
X333804D01*
X-108712Y-79502D02*
Y-71882D01*
X-117348Y-79248D02*
X-108966D01*
X-139700D02*
X-117348D01*
X-165608Y-53340D02*
X-139700Y-79248D01*
X-165100Y-52070D02*
Y-1524D01*
X-174438Y-53280D02*
X-167072D01*
X-174498Y-53340D02*
X-174438Y-53280D01*
X-173482Y-1778D02*
X-173422Y-1718D01*
X-165294D02*
X-165100Y-1524D01*
X-173422Y-1718D02*
X-165294D01*
X921000Y-92042D02*
Y-91420D01*
Y-132084D02*
Y-92042D01*
X855472Y-151638D02*
X901446D01*
X921000Y-132084D01*
D146*
X-72390Y-192278D02*
Y-134366D01*
X-72898Y-133858D02*
X-72390Y-134366D01*
Y-133350D02*
Y-65786D01*
X-72898Y-133858D02*
X-72390Y-133350D01*
X-104140Y-49276D02*
X-88900D01*
X-72390Y-65786D01*
X-97282Y-217170D02*
X-72390Y-192278D01*
X-104388Y-49028D02*
X-66028Y-10668D01*
X-162052Y-217170D02*
X-97282D01*
X-184150Y-239268D02*
X-162052Y-217170D01*
X-184150Y-593598D02*
Y-239268D01*
Y-593598D02*
X-171704Y-606044D01*
X451358Y10668D02*
X452628Y9398D01*
X422910Y24130D02*
X436372Y10668D01*
X422910Y88150D02*
X509270D01*
X422910Y24130D02*
Y88150D01*
X188734D02*
X422910D01*
X436372Y10668D02*
X451358D01*
X921000Y-92042D02*
X925457Y-96500D01*
Y-128277D02*
X974600Y-177420D01*
X925457Y-128277D02*
Y-96500D01*
X510477Y64199D02*
Y86943D01*
X509270Y88150D02*
X510477Y86943D01*
X510286Y64008D02*
X510477Y64199D01*
X511300Y62280D02*
X536700D01*
X176276Y75692D02*
X188734Y88150D01*
X74Y86868D02*
X104902D01*
X116078Y75692D02*
X176276D01*
X104902Y86868D02*
X116078Y75692D01*
X-7366Y79429D02*
X74Y86868D01*
X-7366Y40960D02*
Y79429D01*
X-12700Y35626D02*
X-7366Y40960D01*
X-12700Y21336D02*
Y35626D01*
X-44704Y-10668D02*
X-12700Y21336D01*
X-66028Y-10668D02*
X-44704D01*
X974600Y-217420D02*
X986600D01*
X974600D02*
Y-177420D01*
D147*
X600056Y-28556D02*
X625959D01*
X638292Y-26934D02*
X641096Y-24130D01*
X627581Y-26934D02*
X638292D01*
X625959Y-28556D02*
X627581Y-26934D01*
X639609Y-21590D02*
X639863Y-21336D01*
X617883Y-25400D02*
X624427D01*
X628237Y-21590D01*
X639609D01*
X881497Y-294065D02*
X892929Y-305496D01*
X586769Y-294065D02*
X881497D01*
X574129Y-306705D02*
X586769Y-294065D01*
X757174Y-72136D02*
X757660Y-71650D01*
X759968Y-71420D02*
X825133D01*
X759184Y-67288D02*
X762646D01*
X758698Y-66802D02*
X759184Y-67288D01*
X762646D02*
X763778Y-68420D01*
X757660Y-71650D02*
X759738D01*
X759968Y-71420D01*
X523748Y-337020D02*
X554063Y-306705D01*
X574129D01*
X523748Y-377190D02*
Y-337020D01*
X653716Y-21336D02*
X657780Y-25400D01*
X641096Y-24130D02*
X652558D01*
X657130Y-28702D01*
X639863Y-21336D02*
X653716D01*
X657780Y-25400D02*
X671322D01*
X671449Y-25527D01*
X671576Y-25400D02*
X775737D01*
X775088Y-28702D02*
X784870Y-38484D01*
X657130Y-28702D02*
X775088D01*
X775737Y-25400D02*
X784757Y-34420D01*
X763778Y-68420D02*
X822536D01*
X843026Y-51367D02*
X846895Y-47498D01*
X840232Y-50209D02*
X845737Y-44704D01*
X863900Y-28702D02*
X915049D01*
X845737Y-44704D02*
X846252D01*
X860600Y-30356D01*
X865057Y-31496D02*
X913892D01*
X860600Y-30356D02*
X862246D01*
X863900Y-28702D01*
X846895Y-47498D02*
X849055D01*
X865057Y-31496D01*
X1018661Y-178040D02*
X1035669Y-195048D01*
X1018661Y-178040D02*
Y-157309D01*
X976458Y-115106D02*
X1018661Y-157309D01*
X1011294Y-174625D02*
X1013486D01*
X1015867Y-179197D02*
X1036548Y-199878D01*
X1007068Y-170399D02*
X1011294Y-174625D01*
X1013486D02*
X1015867Y-177006D01*
Y-179197D02*
Y-177006D01*
X950348Y-329552D02*
X975100Y-304800D01*
X984414D01*
X984982Y-304232D01*
X973664Y-116264D02*
X1007068Y-149668D01*
X973664Y-116264D02*
Y-91268D01*
X1007068Y-170399D02*
Y-149668D01*
X976458Y-115106D02*
Y-90111D01*
X915049Y-28702D02*
X976458Y-90111D01*
X913892Y-31496D02*
X973664Y-91268D01*
X950251Y-329552D02*
X950348D01*
X929957Y-337280D02*
X942523D01*
X908271Y-320771D02*
X921985Y-334486D01*
X927163D01*
X892929Y-305496D02*
X894557D01*
X927163Y-334486D02*
X929957Y-337280D01*
X942523D02*
X950251Y-329552D01*
X908271Y-320771D02*
Y-319211D01*
X894557Y-305496D02*
X908271Y-319211D01*
X1036548Y-199878D02*
X1054977D01*
X822536Y-68420D02*
X840232Y-50724D01*
X825133Y-71420D02*
X843026Y-53527D01*
X840232Y-50724D02*
Y-50209D01*
X843026Y-53527D02*
Y-51367D01*
X795283Y-38484D02*
X798347Y-35420D01*
X1061815Y-193040D02*
X1074189D01*
X1053838Y-190246D02*
X1065991D01*
X1074189Y-193040D02*
X1087671Y-179558D01*
X1065991Y-190246D02*
X1079473Y-176764D01*
X1049036Y-195048D02*
X1053838Y-190246D01*
X1035669Y-195048D02*
X1049036D01*
X1054977Y-199878D02*
X1061815Y-193040D01*
X1110611Y-151308D02*
Y-78309D01*
X1089148Y-172771D02*
X1110611Y-151308D01*
X1089148Y-174383D02*
Y-172771D01*
X1079473Y-176764D02*
X1086767D01*
X1087671Y-179558D02*
X1087925D01*
X1091942Y-175541D01*
Y-175287D02*
X1097758Y-169471D01*
X1086767Y-176764D02*
X1089148Y-174383D01*
X1091942Y-175541D02*
Y-175287D01*
X1100265Y-166964D02*
X1113405Y-153824D01*
X1097758Y-169344D02*
X1100138Y-166964D01*
X1100265D01*
X1097758Y-169471D02*
Y-169344D01*
X1120817Y-22016D02*
X1135438Y-7395D01*
X1123612Y-48413D02*
Y-23173D01*
X1120817Y-43889D02*
Y-22016D01*
X1123612Y-23173D02*
X1138232Y-8553D01*
X1120273Y-44434D02*
X1120817Y-43889D01*
X1122786Y-49238D02*
X1123612Y-48413D01*
X1120273Y-47800D02*
Y-44434D01*
X1122786Y-68314D02*
Y-49238D01*
X1119992Y-67157D02*
Y-48081D01*
X1120273Y-47800D01*
X1158864Y-6061D02*
Y-5910D01*
X1152278Y676D02*
X1158864Y-5910D01*
X1149325Y-2118D02*
X1153537Y-6330D01*
X1143980Y-2118D02*
X1149325D01*
X1142822Y676D02*
X1152278D01*
X1135438Y-6708D02*
X1142822Y676D01*
X1135438Y-7395D02*
Y-6708D01*
X1113405Y-153824D02*
Y-79467D01*
X1118096Y-74776D02*
Y-73005D01*
X1115302Y-71848D02*
X1119992Y-67157D01*
X1110611Y-78309D02*
X1115302Y-73619D01*
X1113405Y-79467D02*
X1118096Y-74776D01*
X1115302Y-73619D02*
Y-71848D01*
X1118096Y-73005D02*
X1122786Y-68314D01*
X1138232Y-8553D02*
Y-7866D01*
X1143980Y-2118D01*
X784757Y-34420D02*
X793600D01*
X784870Y-38484D02*
X795283D01*
X798347Y-35420D02*
X813600D01*
D150*
X189150Y-640620D02*
D03*
X-205200Y-539670D02*
D03*
D151*
X-91550Y-640620D02*
D03*
X-205200Y-258970D02*
D03*
D152*
X-147260Y-180890D02*
D03*
D153*
X-177260Y-133890D02*
D03*
D154*
X-117260D02*
D03*
D155*
X-222260D02*
D03*
D156*
X-56350Y-457290D02*
D03*
Y-482690D02*
D03*
Y-508090D02*
D03*
Y-533490D02*
D03*
X-81750D02*
D03*
Y-508090D02*
D03*
Y-482690D02*
D03*
X763200Y-491220D02*
D03*
X661600D02*
D03*
X687000D02*
D03*
X737800D02*
D03*
X712400D02*
D03*
X788600D02*
D03*
X814000D02*
D03*
X946400Y-91420D02*
D03*
X646360Y-8620D02*
D03*
X1044000Y-263120D02*
D03*
X946400Y-320020D02*
D03*
X611120Y-436860D02*
D03*
X921000Y-320020D02*
D03*
X1044000Y-212320D02*
D03*
X747960Y-8620D02*
D03*
X570160D02*
D03*
X595560D02*
D03*
X620960D02*
D03*
X671760D02*
D03*
X697160D02*
D03*
X722560D02*
D03*
X773360D02*
D03*
X991800Y-491220D02*
D03*
X966400D02*
D03*
X941000D02*
D03*
X915600D02*
D03*
X890200D02*
D03*
X1018600Y-263120D02*
D03*
X1044000Y-237720D02*
D03*
X1018600D02*
D03*
X921000Y-91420D02*
D03*
X895600D02*
D03*
X870200D02*
D03*
X844800D02*
D03*
X819400D02*
D03*
X794000D02*
D03*
X705100Y-599420D02*
D03*
X730500D02*
D03*
X755900D02*
D03*
X705100Y-574020D02*
D03*
X730500D02*
D03*
X585720Y-436860D02*
D03*
X560320D02*
D03*
X839400Y-8620D02*
D03*
X864800D02*
D03*
X890200D02*
D03*
X915600D02*
D03*
X941000D02*
D03*
X966400D02*
D03*
X991800D02*
D03*
X794000Y-320020D02*
D03*
X819400D02*
D03*
X844800D02*
D03*
X870200D02*
D03*
X895600D02*
D03*
D157*
X-81750Y-457290D02*
D03*
X1018600Y-212320D02*
D03*
D158*
X48800Y-585301D02*
D03*
X34035Y-579185D02*
D03*
X27919Y-564420D02*
D03*
X34035Y-549655D02*
D03*
X48800Y-543539D02*
D03*
D03*
X63565Y-549655D02*
D03*
X69681Y-564420D02*
D03*
X63565Y-579185D02*
D03*
X-129000Y-420201D02*
D03*
X-143765Y-414085D02*
D03*
X-149881Y-399320D02*
D03*
X-143765Y-384555D02*
D03*
X-129000Y-378439D02*
D03*
D03*
X-114235Y-384555D02*
D03*
X-108119Y-399320D02*
D03*
X-114235Y-414085D02*
D03*
X-206635Y44815D02*
D03*
X-200519Y59580D02*
D03*
X-206635Y74345D02*
D03*
X-221400Y80461D02*
D03*
X-236165Y74345D02*
D03*
X-242281Y59580D02*
D03*
X-236165Y44815D02*
D03*
X-221400Y38699D02*
D03*
X-206635Y-675185D02*
D03*
X-200519Y-660420D02*
D03*
X-206635Y-645655D02*
D03*
X-221400Y-639539D02*
D03*
X-236165Y-645655D02*
D03*
X-242281Y-660420D02*
D03*
X-236165Y-675185D02*
D03*
X-221400Y-681301D02*
D03*
X409600Y-679301D02*
D03*
X394835Y-673185D02*
D03*
X388719Y-658420D02*
D03*
X394835Y-643655D02*
D03*
X409600Y-637539D02*
D03*
D03*
X424365Y-643655D02*
D03*
X430481Y-658420D02*
D03*
X424365Y-673185D02*
D03*
X1042600Y-461301D02*
D03*
X1027835Y-455185D02*
D03*
X1021719Y-440420D02*
D03*
X1027835Y-425655D02*
D03*
X1042600Y-419539D02*
D03*
X1057365Y-425655D02*
D03*
X1063481Y-440420D02*
D03*
X1057365Y-455185D02*
D03*
X477365D02*
D03*
X483481Y-440420D02*
D03*
X477365Y-425655D02*
D03*
X462600Y-419539D02*
D03*
X447835Y-425655D02*
D03*
X441719Y-440420D02*
D03*
X447835Y-455185D02*
D03*
X462600Y-461301D02*
D03*
Y28699D02*
D03*
X447835Y34815D02*
D03*
X441719Y49580D02*
D03*
X447835Y64345D02*
D03*
X462600Y70461D02*
D03*
X477365Y64345D02*
D03*
X483481Y49580D02*
D03*
X477365Y34815D02*
D03*
X1057365D02*
D03*
X1063481Y49580D02*
D03*
X1057365Y64345D02*
D03*
X1042600Y70461D02*
D03*
X1027835Y64345D02*
D03*
X1021719Y49580D02*
D03*
X1027835Y34815D02*
D03*
X1042600Y28699D02*
D03*
X1397365Y-675185D02*
D03*
X1403481Y-660420D02*
D03*
X1397365Y-645655D02*
D03*
X1382600Y-639539D02*
D03*
X1367835Y-645655D02*
D03*
X1361719Y-660420D02*
D03*
X1367835Y-675185D02*
D03*
X1382600Y-681301D02*
D03*
D159*
X48800Y-564420D02*
D03*
X-129000Y-399320D02*
D03*
X-221400Y59580D02*
D03*
Y-660420D02*
D03*
X409600Y-658420D02*
D03*
X1042600Y-440420D02*
D03*
X462600D02*
D03*
Y49580D02*
D03*
X1042600D02*
D03*
X1382600Y-660420D02*
D03*
D160*
X304300Y-304300D02*
D03*
X-54300Y54300D02*
D03*
D161*
X839400Y-491220D02*
D03*
X534920Y-436860D02*
D03*
X798760Y-8620D02*
D03*
X1017200Y-491220D02*
D03*
X768600Y-91420D02*
D03*
X755900Y-574020D02*
D03*
X1017200Y-8620D02*
D03*
X768600Y-320020D02*
D03*
D162*
X1323101Y-494418D02*
D03*
X1118600D02*
D03*
D163*
X866900Y62280D02*
D03*
X917700D02*
D03*
X739900D02*
D03*
X816100Y36880D02*
D03*
X993900D02*
D03*
X663700Y62280D02*
D03*
X612900Y36880D02*
D03*
X562100Y62280D02*
D03*
X714500Y36880D02*
D03*
X993900Y62280D02*
D03*
X968500D02*
D03*
Y36880D02*
D03*
X943100Y62280D02*
D03*
Y36880D02*
D03*
X917700D02*
D03*
X892300Y62280D02*
D03*
Y36880D02*
D03*
X866900D02*
D03*
X841500Y62280D02*
D03*
Y36880D02*
D03*
X816100Y62280D02*
D03*
X790700D02*
D03*
Y36880D02*
D03*
X765300Y62280D02*
D03*
Y36880D02*
D03*
X739900D02*
D03*
X714500Y62280D02*
D03*
X689100D02*
D03*
Y36880D02*
D03*
X663700D02*
D03*
X638300Y62280D02*
D03*
Y36880D02*
D03*
X612900Y62280D02*
D03*
X587500D02*
D03*
Y36880D02*
D03*
X562100D02*
D03*
X536700Y62280D02*
D03*
Y36880D02*
D03*
X511300Y62280D02*
D03*
D164*
X1245000Y-662920D02*
D03*
X1140000D02*
D03*
X1175000D02*
D03*
X1210000D02*
D03*
X1315000D02*
D03*
X1280000D02*
D03*
D165*
X806700Y-574020D02*
D03*
Y-599420D02*
D03*
X578100Y-574020D02*
D03*
Y-599420D02*
D03*
X781300D02*
D03*
Y-574020D02*
D03*
X552700Y-599420D02*
D03*
Y-574020D02*
D03*
X603500Y-599420D02*
D03*
X628900D02*
D03*
X654300D02*
D03*
X679700D02*
D03*
X603500Y-574020D02*
D03*
X628900D02*
D03*
X654300D02*
D03*
X882900D02*
D03*
X857500D02*
D03*
X832100D02*
D03*
X908300Y-599420D02*
D03*
X882900D02*
D03*
X857500D02*
D03*
X832100D02*
D03*
D166*
X-104870Y-14510D02*
D03*
Y-49510D02*
D03*
D167*
X511300Y36880D02*
D03*
D168*
X679700Y-574020D02*
D03*
X908300D02*
D03*
D169*
X474980Y-147574D02*
D03*
X314644Y-419183D02*
D03*
X321764Y-550364D02*
D03*
X338484Y-408833D02*
D03*
X333804Y-403145D02*
D03*
X501142Y-545084D02*
D03*
X255778Y-485648D02*
D03*
X494284Y-501396D02*
D03*
X-167386Y-76962D02*
D03*
X465836Y-485902D02*
D03*
X701294Y-278130D02*
D03*
X-148844Y-56388D02*
D03*
X1133094Y-397002D02*
D03*
X-176002Y-63012D02*
D03*
X582332Y-91812D02*
D03*
X-145034Y-655828D02*
D03*
X460248Y-96012D02*
D03*
Y-90424D02*
D03*
X742442Y-278130D02*
D03*
X-14248Y-184936D02*
D03*
X363630Y-391160D02*
D03*
X156972Y-429514D02*
D03*
X480346Y-271050D02*
D03*
X1156970Y-405892D02*
D03*
X1149858Y-396240D02*
D03*
X436372Y-22098D02*
D03*
X1143000Y-403860D02*
D03*
X319688Y-413814D02*
D03*
X232410Y-495935D02*
D03*
X-53340Y-440011D02*
D03*
X274615Y-510079D02*
D03*
X340350Y43297D02*
D03*
X251559Y-495935D02*
D03*
X15110Y73871D02*
D03*
X1117092Y-554228D02*
D03*
X527304Y-674878D02*
D03*
X501396Y-533146D02*
D03*
X249174Y-360680D02*
D03*
X1109745Y-554753D02*
D03*
X1096264Y-572770D02*
D03*
X547370Y-528320D02*
D03*
X22098Y76200D02*
D03*
X1089660Y-549148D02*
D03*
X482196Y-244706D02*
D03*
X-123698Y43434D02*
D03*
X326209Y-530679D02*
D03*
X175006Y-393192D02*
D03*
X15748Y55245D02*
D03*
X7112Y55626D02*
D03*
X125222Y-402082D02*
D03*
X227330Y-410210D02*
D03*
X435610Y-501650D02*
D03*
X482600Y-486410D02*
D03*
X141260Y-430581D02*
D03*
X428916Y-339345D02*
D03*
X436281Y-339253D02*
D03*
X-225552Y-205994D02*
D03*
X87056Y-405513D02*
D03*
X490982Y-638810D02*
D03*
X95007Y-413527D02*
D03*
X704179Y-325791D02*
D03*
X-174244Y-1524D02*
D03*
X318770Y-462558D02*
D03*
X58261Y-484251D02*
D03*
X281348Y-499660D02*
D03*
X59218Y-455894D02*
D03*
X452374Y-649732D02*
D03*
X-175514Y-72898D02*
D03*
X-33782Y-164338D02*
D03*
X-157480Y8382D02*
D03*
X-31341Y-150368D02*
D03*
X-22098Y-63754D02*
D03*
X-29718Y-64008D02*
D03*
X-117348Y-79248D02*
D03*
X-108712Y-71882D02*
D03*
X-139446Y-56642D02*
D03*
X-108966Y-79248D02*
D03*
X-165100Y-1524D02*
D03*
X282194Y-485140D02*
D03*
X85545Y-414211D02*
D03*
X583135Y-79925D02*
D03*
X436118Y-63754D02*
D03*
X1099386Y-331658D02*
D03*
X-174498Y-52832D02*
D03*
X439293Y-93452D02*
D03*
X-166878Y-53086D02*
D03*
X-141732Y33782D02*
D03*
X315245Y-390525D02*
D03*
X-83566Y9490D02*
D03*
X-127762Y-12446D02*
D03*
X-65532Y-205486D02*
D03*
X-130810Y-49784D02*
D03*
X-9144Y-65532D02*
D03*
X315479Y-365379D02*
D03*
X-138938Y-12446D02*
D03*
X786384Y-203962D02*
D03*
X-72898Y-133858D02*
D03*
X-217170Y-205994D02*
D03*
X489458Y-545465D02*
D03*
X332463Y-360699D02*
D03*
X583669Y-102950D02*
D03*
X50000Y10000D02*
D03*
X-158750Y-332740D02*
D03*
X-153670Y-497840D02*
D03*
X-246380Y-415290D02*
D03*
X-246527Y-428703D02*
D03*
X-29210Y-397510D02*
D03*
X-50800Y-417830D02*
D03*
X-26670Y-422910D02*
D03*
X-46155Y-408505D02*
D03*
X-31750Y-462280D02*
D03*
X-4695Y-361742D02*
D03*
X74930Y-353060D02*
D03*
X-3810Y-389890D02*
D03*
X147970Y-454040D02*
D03*
X129540Y-454660D02*
D03*
X134620Y-496570D02*
D03*
X317500Y-449580D02*
D03*
X113538Y-388366D02*
D03*
X186690Y-568960D02*
D03*
X280670Y-476250D02*
D03*
X114046Y-400050D02*
D03*
X212090Y-566420D02*
D03*
X250190Y-478790D02*
D03*
X256540Y-530860D02*
D03*
X246380Y-533400D02*
D03*
X313690Y-438150D02*
D03*
X316230Y-472440D02*
D03*
X469138Y-636778D02*
D03*
X158115Y-514223D02*
D03*
X547624Y-89408D02*
D03*
X28160Y-351615D02*
D03*
X343154Y-556260D02*
D03*
X495808Y-399034D02*
D03*
X454406Y-398272D02*
D03*
X465074Y-380746D02*
D03*
X496316D02*
D03*
X505714Y-399034D02*
D03*
X410210Y-341630D02*
D03*
X419100D02*
D03*
X480060Y-637540D02*
D03*
X408432Y-283464D02*
D03*
X365252D02*
D03*
X431800Y-139446D02*
D03*
X15240Y34544D02*
D03*
X50800Y63246D02*
D03*
X57658Y74422D02*
D03*
X20574Y63500D02*
D03*
X402590Y41656D02*
D03*
X434086Y-183388D02*
D03*
X-250000Y-275000D02*
D03*
X-249936Y-283210D02*
D03*
X-249682Y-332486D02*
D03*
X-249174Y-497586D02*
D03*
X-74970Y-435570D02*
D03*
X-160274Y-389128D02*
D03*
X-160490Y-275490D02*
D03*
X-160020Y-284734D02*
D03*
X-162560Y-396240D02*
D03*
X87630Y-359410D02*
D03*
X-168148Y8382D02*
D03*
X174752Y-381762D02*
D03*
X1168908Y-398780D02*
D03*
X57331Y36903D02*
D03*
X207391Y-462280D02*
D03*
X1167130Y-422148D02*
D03*
X409467Y-334029D02*
D03*
X364236Y-359410D02*
D03*
X262890Y-363220D02*
D03*
X21670Y-482600D02*
D03*
X10160Y-367030D02*
D03*
X228854Y-435610D02*
D03*
X140970Y-383286D02*
D03*
X511810Y-304800D02*
D03*
X312801Y-502427D02*
D03*
X410154Y-256921D02*
D03*
X742188Y-327152D02*
D03*
X307449Y-352951D02*
D03*
X436118Y-517144D02*
D03*
X446786Y-93726D02*
D03*
X429154Y-159670D02*
D03*
X1096256Y-563136D02*
D03*
X-114808Y-657352D02*
D03*
X1089914Y-559308D02*
D03*
X510340Y-136452D02*
D03*
X498348Y-136652D02*
D03*
X-95504Y-631698D02*
D03*
X332740Y-387985D02*
D03*
X-123190Y56134D02*
D03*
X494284Y-517652D02*
D03*
X439076Y-207609D02*
D03*
X369824Y71120D02*
D03*
X796534Y-203740D02*
D03*
X465836Y-545465D02*
D03*
X6356Y-263058D02*
D03*
X676021Y-349123D02*
D03*
X1073400Y22780D02*
D03*
X725492Y-56528D02*
D03*
X529336Y-528955D02*
D03*
X271889Y-621175D02*
D03*
X336296Y-596900D02*
D03*
X287528Y-598932D02*
D03*
X302260Y-604012D02*
D03*
X711830Y-140476D02*
D03*
X948309Y-270420D02*
D03*
X1038600Y-282558D02*
D03*
X879514Y-199068D02*
D03*
X324104Y-624967D02*
D03*
X1274060Y-201910D02*
D03*
X876600Y-214054D02*
D03*
X1068320Y-60940D02*
D03*
X1007110Y-272420D02*
D03*
X350788Y-634360D02*
D03*
X350520Y-626999D02*
D03*
X272796Y-633476D02*
D03*
X302006Y-636016D02*
D03*
X427228Y-519938D02*
D03*
X432816Y-532638D02*
D03*
X418846Y-539750D02*
D03*
X790600Y-248420D02*
D03*
X1040408Y-62417D02*
D03*
X895556Y-295464D02*
D03*
X1285600Y-513420D02*
D03*
X1115600Y13580D02*
D03*
X808218Y-203740D02*
D03*
X1229600Y-215420D02*
D03*
X1278600Y-406420D02*
D03*
X1300600Y-352420D02*
D03*
X1368600Y-353420D02*
D03*
X1409600Y-350420D02*
D03*
X1411600Y-517420D02*
D03*
X1152600Y57080D02*
D03*
X1302000Y-144760D02*
D03*
X1405600Y-153420D02*
D03*
X1295641Y-180312D02*
D03*
X1291840Y-146030D02*
D03*
X1281940Y-148335D02*
D03*
X999448Y-157168D02*
D03*
X1297710Y-194290D02*
D03*
X1324860Y-289540D02*
D03*
X1302000Y-247630D02*
D03*
X1248660Y-226040D02*
D03*
X912110Y-245373D02*
D03*
X894600Y-258420D02*
D03*
X784600Y-238420D02*
D03*
X779600Y-248420D02*
D03*
X937600Y-269420D02*
D03*
X944600Y-270420D02*
D03*
X1371600Y-162420D02*
D03*
X1350600Y-118420D02*
D03*
X1358600Y-132420D02*
D03*
X986600Y-217420D02*
D03*
X974600D02*
D03*
X838495Y-302483D02*
D03*
X811600Y-302420D02*
D03*
X790496Y-302483D02*
D03*
X1346576Y-300774D02*
D03*
D170*
X-14732Y-162814D02*
D03*
X306070Y-463042D02*
D03*
X228854Y-485394D02*
D03*
X197866Y-390826D02*
D03*
X-5364Y-114544D02*
D03*
X33020Y-428752D02*
D03*
X33274Y-414528D02*
D03*
X135000Y-195000D02*
D03*
X44958Y-261874D02*
D03*
X51181Y-270378D02*
D03*
X4586Y-235204D02*
D03*
X55088Y-184912D02*
D03*
X509524Y-34036D02*
D03*
X516507Y-26291D02*
D03*
X659511Y-34417D02*
D03*
X664874Y-100646D02*
D03*
X676000Y-79089D02*
D03*
X681363Y-84447D02*
D03*
X670951Y-103261D02*
D03*
X704342Y-101346D02*
D03*
X634228Y-30998D02*
D03*
X645414Y-29014D02*
D03*
X684276Y-79026D02*
D03*
X659384Y-70358D02*
D03*
X753872Y-181610D02*
D03*
X753618Y-175260D02*
D03*
X691642Y-68072D02*
D03*
X-244202Y-294794D02*
D03*
X258826Y-21844D02*
D03*
X-135128Y-280162D02*
D03*
X541932Y-609127D02*
D03*
X601472Y-628142D02*
D03*
X567874Y-640285D02*
D03*
X539242Y-583692D02*
D03*
X525879Y-575481D02*
D03*
X517227Y-585895D02*
D03*
X530860Y-605790D02*
D03*
X725678Y-643382D02*
D03*
X703072Y-643890D02*
D03*
X541274Y-651256D02*
D03*
X544630Y-643780D02*
D03*
X540258Y-640588D02*
D03*
X548894Y-648462D02*
D03*
X561848Y-661670D02*
D03*
X837946Y-559816D02*
D03*
X802640Y-561086D02*
D03*
X-22098Y-124206D02*
D03*
X-23241Y-134112D02*
D03*
X-17500Y-193802D02*
D03*
X-34290Y-211328D02*
D03*
X-24638Y-118364D02*
D03*
X1270Y-271526D02*
D03*
X-22606Y-267208D02*
D03*
X-46482Y-287782D02*
D03*
X5842Y-345743D02*
D03*
X-116078Y-357886D02*
D03*
X-116332Y-347726D02*
D03*
X-47890Y-41264D02*
D03*
X-84328Y-189676D02*
D03*
X-14831Y-154710D02*
D03*
X-90297Y-73914D02*
D03*
X-178482Y-27746D02*
D03*
X-178460Y-33080D02*
D03*
X-172974Y-23114D02*
D03*
X-178422Y-17894D02*
D03*
X-174498Y-42672D02*
D03*
X-174244Y-12700D02*
D03*
X-30988Y-96266D02*
D03*
X8128Y42418D02*
D03*
X55334Y-5334D02*
D03*
X-38619Y-31993D02*
D03*
X-27062Y-20436D02*
D03*
X-42683Y-36057D02*
D03*
X-6372Y254D02*
D03*
X-33158Y-26532D02*
D03*
X-103586Y-197912D02*
D03*
X15748Y-256286D02*
D03*
Y-244602D02*
D03*
X35306Y-204724D02*
D03*
X-4826Y-258826D02*
D03*
X26477Y-315976D02*
D03*
X24638Y-322580D02*
D03*
X228854Y-268478D02*
D03*
X545084Y-79248D02*
D03*
X-79440Y-217232D02*
D03*
X1251600Y-590420D02*
D03*
Y-601420D02*
D03*
X1093907Y-326306D02*
D03*
X1145090Y-231924D02*
D03*
X1139280Y-235861D02*
D03*
X1135280Y-212959D02*
D03*
X1129237Y-237379D02*
D03*
X648208Y-230632D02*
D03*
X570738Y-51054D02*
D03*
X608076Y-67056D02*
D03*
X546100Y-53594D02*
D03*
X491998Y-41910D02*
D03*
X406908Y-45974D02*
D03*
X311912Y-134874D02*
D03*
X629412Y-309626D02*
D03*
X630101Y-302587D02*
D03*
X583406Y-313123D02*
D03*
X584200Y-307848D02*
D03*
X577596Y-316484D02*
D03*
X430403Y-89408D02*
D03*
X385772Y-303784D02*
D03*
X384048Y-317500D02*
D03*
X369062Y-335534D02*
D03*
Y-326676D02*
D03*
X645795Y-239469D02*
D03*
X638937Y-263901D02*
D03*
X655447Y-290001D02*
D03*
X648462Y-298831D02*
D03*
X638243Y-306524D02*
D03*
X642662Y-309511D02*
D03*
X679600Y-321437D02*
D03*
X651510Y-318897D02*
D03*
X646251Y-316863D02*
D03*
X337838Y-336101D02*
D03*
X334196Y-332164D02*
D03*
X329603Y-346561D02*
D03*
X339852Y-341898D02*
D03*
X213360Y-323088D02*
D03*
X195072Y-313041D02*
D03*
X116840Y-317500D02*
D03*
X73406Y-314960D02*
D03*
X81506Y-270764D02*
D03*
X105410Y-368300D02*
D03*
X625090Y-539730D02*
D03*
X374396Y-555244D02*
D03*
X413258Y-484886D02*
D03*
X413512Y-498094D02*
D03*
X244527Y-328504D02*
D03*
X256921Y-334264D02*
D03*
X254312Y-344678D02*
D03*
X668528Y-258318D02*
D03*
X673735Y-257161D02*
D03*
X669671Y-247132D02*
D03*
X702437Y-179981D02*
D03*
X647827Y-187359D02*
D03*
X638556Y-62288D02*
D03*
X633222D02*
D03*
X504028Y-32808D02*
D03*
X719836Y-200250D02*
D03*
X696511Y-221277D02*
D03*
X726938Y-192288D02*
D03*
X733552Y-262636D02*
D03*
X743611Y-159867D02*
D03*
X764794Y-164592D02*
D03*
X754888Y-90932D02*
D03*
X758698Y-66802D02*
D03*
X757174Y-72136D02*
D03*
X297434Y-116548D02*
D03*
X280670Y-122428D02*
D03*
X279953Y-127971D02*
D03*
X274910Y-134759D02*
D03*
X278874Y-138328D02*
D03*
X668147Y-274754D02*
D03*
X673003Y-272548D02*
D03*
X470408Y-20828D02*
D03*
X569468Y-235966D02*
D03*
X472440Y-359156D02*
D03*
X264033Y-198952D02*
D03*
X264359Y-204276D02*
D03*
X274773Y-206756D02*
D03*
X260009Y-179745D02*
D03*
X314904Y-92528D02*
D03*
X259588Y-160020D02*
D03*
X260350Y-109220D02*
D03*
X297942Y-175514D02*
D03*
X459232Y-272288D02*
D03*
X455676Y-169672D02*
D03*
X460502Y-179832D02*
D03*
X449834Y-166243D02*
D03*
X445107Y-163585D02*
D03*
X308610Y-140843D02*
D03*
X275705Y-143383D02*
D03*
X307340Y-153797D02*
D03*
X276860Y-156591D02*
D03*
X306451Y-162602D02*
D03*
X353314Y-259334D02*
D03*
X311150Y-127000D02*
D03*
X267452Y-268742D02*
D03*
X269474Y-263398D02*
D03*
X263144Y-212763D02*
D03*
X257455Y-233118D02*
D03*
X259649Y-228257D02*
D03*
X262341Y-242858D02*
D03*
X276596Y-252212D02*
D03*
X312767Y-168536D02*
D03*
X310515Y-179371D02*
D03*
X316484Y-155194D02*
D03*
X315214Y-80772D02*
D03*
X309909Y-82795D02*
D03*
X304800Y-84328D02*
D03*
X315781Y-40454D02*
D03*
X312025Y-36667D02*
D03*
X313436Y-22860D02*
D03*
X313123Y-17535D02*
D03*
X341043Y-46853D02*
D03*
X336388Y-42199D02*
D03*
X117094Y-259842D02*
D03*
X113063Y-263335D02*
D03*
X108126Y-265356D02*
D03*
X109220Y-271018D02*
D03*
X608330Y-2032D02*
D03*
X586176Y-13970D02*
D03*
X266446Y-47498D02*
D03*
X-7112Y-84074D02*
D03*
X97028Y18034D02*
D03*
X96386Y25908D02*
D03*
X214884Y-25400D02*
D03*
X244856Y-144780D02*
D03*
X-20320Y-377190D02*
D03*
X113792Y-369316D02*
D03*
X109220Y-321310D02*
D03*
X131850Y-298700D02*
D03*
X133350Y-306574D02*
D03*
X142240Y-300863D02*
D03*
X242453Y-268361D02*
D03*
X236728Y-268986D02*
D03*
X237490Y-259080D02*
D03*
X229616Y-259334D02*
D03*
X276352Y-244338D02*
D03*
X309260Y-252080D02*
D03*
X318770Y-248793D02*
D03*
X309880Y-218440D02*
D03*
X309118Y-209042D02*
D03*
X309880Y-228346D02*
D03*
X728218Y7493D02*
D03*
X654558Y-31877D02*
D03*
X728726Y-21336D02*
D03*
X726455Y-85743D02*
D03*
X731774Y-85344D02*
D03*
X794512Y84074D02*
D03*
X1052650Y4084D02*
D03*
X1064002Y6624D02*
D03*
X734733Y-78867D02*
D03*
X719328Y-88011D02*
D03*
X716055Y-97311D02*
D03*
X706882Y-89916D02*
D03*
X715264Y-77724D02*
D03*
X707390Y-74930D02*
D03*
X727456Y-68199D02*
D03*
X699516Y-68580D02*
D03*
X644101Y-191175D02*
D03*
X697484Y-251069D02*
D03*
X701294Y-243459D02*
D03*
X335788Y-586486D02*
D03*
X320208Y-422656D02*
D03*
X404876Y-428498D02*
D03*
X332232Y-272542D02*
D03*
X336296Y-276860D02*
D03*
X414274Y-424434D02*
D03*
X779780Y-51054D02*
D03*
X769620Y-51308D02*
D03*
X129540Y-382016D02*
D03*
X185674Y-351790D02*
D03*
X172720Y-350266D02*
D03*
X169418Y-307594D02*
D03*
X159004Y-350266D02*
D03*
X148336D02*
D03*
X229870Y-302260D02*
D03*
X136144Y-349758D02*
D03*
X213916Y-307594D02*
D03*
X230886Y-339344D02*
D03*
X231394Y-363651D02*
D03*
X227584Y-359918D02*
D03*
X150114Y-430022D02*
D03*
X123001Y-428974D02*
D03*
X129594Y-430585D02*
D03*
X131317Y-422403D02*
D03*
X124496Y-422752D02*
D03*
X94742Y-450342D02*
D03*
X246126Y-487934D02*
D03*
X60071Y-493141D02*
D03*
X53594Y-493014D02*
D03*
X43434D02*
D03*
X26924D02*
D03*
X48058Y-489732D02*
D03*
X55880Y-521081D02*
D03*
X50292Y-450596D02*
D03*
X-10668Y-498602D02*
D03*
X4826Y-498729D02*
D03*
X75565Y-522859D02*
D03*
X61468Y-444119D02*
D03*
X62230Y-437896D02*
D03*
X23937Y-501142D02*
D03*
X56134Y-444754D02*
D03*
X55372Y-502412D02*
D03*
X26416Y-338074D02*
D03*
X25908Y-290830D02*
D03*
X46736Y-343662D02*
D03*
X638864Y-274557D02*
D03*
X638354Y-269248D02*
D03*
X690870Y-281168D02*
D03*
X472440Y-61722D02*
D03*
X140970Y-267970D02*
D03*
X276925Y-195295D02*
D03*
X740918Y-263398D02*
D03*
X692912Y-272796D02*
D03*
X688495Y-267561D02*
D03*
X488442Y75692D02*
D03*
X494792Y72390D02*
D03*
X454914Y-78994D02*
D03*
X309880Y70612D02*
D03*
X65278Y26416D02*
D03*
X45000Y-25000D02*
D03*
X35000D02*
D03*
X15000D02*
D03*
X25000D02*
D03*
X-92964Y-178816D02*
D03*
X280936Y-509474D02*
D03*
X316992Y-523494D02*
D03*
X178435D02*
D03*
X183495Y-530479D02*
D03*
X173772Y-536448D02*
D03*
X166751Y-526034D02*
D03*
X237736Y-323982D02*
D03*
X154940Y-308737D02*
D03*
X167386Y-333502D02*
D03*
X175089Y-311220D02*
D03*
X162814Y-309778D02*
D03*
X216154Y-361823D02*
D03*
X221410Y-257810D02*
D03*
X214762Y-270289D02*
D03*
X210410Y-273633D02*
D03*
X205847Y-270871D02*
D03*
X189659Y-315581D02*
D03*
X186175Y-325913D02*
D03*
X199644Y-265938D02*
D03*
X181122Y-305582D02*
D03*
X180158Y-270908D02*
D03*
X209972Y-260487D02*
D03*
X934720Y-261112D02*
D03*
X777240Y25781D02*
D03*
X536194Y2540D02*
D03*
X541254Y-3536D02*
D03*
X710438Y-2032D02*
D03*
X553720Y-508D02*
D03*
X548386Y762D02*
D03*
X763016Y-1524D02*
D03*
X654050Y14224D02*
D03*
X645668Y15367D02*
D03*
X626872D02*
D03*
X754126Y25654D02*
D03*
X839724Y-68326D02*
D03*
X754380Y-120002D02*
D03*
X759714Y-125984D02*
D03*
X727626Y-118688D02*
D03*
X719965Y-134495D02*
D03*
X857504Y-52324D02*
D03*
X906018Y-82296D02*
D03*
X838718Y-41666D02*
D03*
X867918Y-62484D02*
D03*
X892810Y-61722D02*
D03*
X911098Y-48641D02*
D03*
X892810Y-52578D02*
D03*
X866902D02*
D03*
X429260Y-83058D02*
D03*
X423164Y-226822D02*
D03*
X436118Y-173990D02*
D03*
X461518Y-76962D02*
D03*
X736854Y-118237D02*
D03*
X729996Y-126492D02*
D03*
X725021Y-128415D02*
D03*
X787772Y-147889D02*
D03*
X780161Y-127381D02*
D03*
X458343Y-289814D02*
D03*
X429895Y-236041D02*
D03*
X124948Y-272086D02*
D03*
X530207Y-355981D02*
D03*
X534039Y-335407D02*
D03*
X538988Y-332994D02*
D03*
X548261Y-353060D02*
D03*
X677083Y-276635D02*
D03*
X806112Y-377042D02*
D03*
X792823D02*
D03*
X731266Y-308356D02*
D03*
X750824Y-280670D02*
D03*
X1032745Y-177272D02*
D03*
X1027413Y-177416D02*
D03*
X1011803Y-178689D02*
D03*
X957068Y-349992D02*
D03*
X1074670Y-175240D02*
D03*
X1059180Y-172466D02*
D03*
X272142Y-94142D02*
D03*
X276396Y-83644D02*
D03*
X278988Y-91671D02*
D03*
X875284Y13208D02*
D03*
X1145286Y-361188D02*
D03*
X1081024Y-441960D02*
D03*
X-26924Y-363220D02*
D03*
X-9906Y-107950D02*
D03*
X991616Y-312669D02*
D03*
X986380Y-313686D02*
D03*
X1014222Y-370332D02*
D03*
X1008755Y-383861D02*
D03*
X952983Y-439633D02*
D03*
X931332Y-433984D02*
D03*
X969657Y-395659D02*
D03*
X914142Y-421741D02*
D03*
X1007867Y-395973D02*
D03*
X990850Y-368280D02*
D03*
X982591Y-376706D02*
D03*
X985770Y-359390D02*
D03*
X978150Y-300736D02*
D03*
X984982Y-304232D02*
D03*
X1090168Y-425196D02*
D03*
X984500Y-615930D02*
D03*
X993916Y-641586D02*
D03*
X957313Y-601784D02*
D03*
X1090422Y-401066D02*
D03*
X1183640Y-449326D02*
D03*
X251714Y-605790D02*
D03*
X184730Y-273655D02*
D03*
X162306Y-260494D02*
D03*
X176853Y-261774D02*
D03*
X170180Y-260604D02*
D03*
X152472Y-270129D02*
D03*
X149960Y-260487D02*
D03*
X174752Y-272542D02*
D03*
X166370Y-271526D02*
D03*
X966524Y-118901D02*
D03*
X897382Y-160528D02*
D03*
X1105600Y-311420D02*
D03*
X937260Y-81280D02*
D03*
X1050036Y-293116D02*
D03*
X1154938Y-191262D02*
D03*
X940840Y-333216D02*
D03*
X931640D02*
D03*
X523748Y-377190D02*
D03*
X855472Y-151638D02*
D03*
X997200Y-72370D02*
D03*
X1008025Y-188800D02*
D03*
X1224721Y-21960D02*
D03*
X1219606Y-14158D02*
D03*
X551942Y12065D02*
D03*
X1149120Y-209931D02*
D03*
X1192414Y-201031D02*
D03*
X1195240Y-212892D02*
D03*
X1106547Y-182860D02*
D03*
X920600Y-286420D02*
D03*
X1099312Y-310642D02*
D03*
X1140460Y-308356D02*
D03*
X1146881Y-314305D02*
D03*
X1087628Y-514518D02*
D03*
X1102507Y-481122D02*
D03*
X1079643Y-564307D02*
D03*
X1115207Y-514518D02*
D03*
X1140928Y-503842D02*
D03*
X1136600Y-515420D02*
D03*
X1170377Y-258681D02*
D03*
Y-308336D02*
D03*
Y-266681D02*
D03*
X1179622Y-331829D02*
D03*
X1170377Y-274681D02*
D03*
X1165489Y-331402D02*
D03*
X1155188Y-242423D02*
D03*
X1195240Y-268773D02*
D03*
X1108179Y-251450D02*
D03*
X1180080Y-471278D02*
D03*
X1033400Y-121539D02*
D03*
X1011811Y-74037D02*
D03*
X1024518Y-74405D02*
D03*
X1073146Y-38080D02*
D03*
X1094740Y21282D02*
D03*
X169004Y86962D02*
D03*
X25000Y-45000D02*
D03*
X197568Y-536746D02*
D03*
X849630Y-54102D02*
D03*
X896620Y-43942D02*
D03*
X107569Y-328930D02*
D03*
X110109Y-334212D02*
D03*
X115570Y-332740D02*
D03*
X123190Y-334010D02*
D03*
X125730Y-313690D02*
D03*
X148590Y-304800D02*
D03*
X218948Y67056D02*
D03*
X228346Y67310D02*
D03*
X235712Y66548D02*
D03*
X243586Y67056D02*
D03*
X551180Y-381508D02*
D03*
X543560Y-377698D02*
D03*
X775712Y-428957D02*
D03*
X215000Y-45000D02*
D03*
X775712Y-434291D02*
D03*
X225000Y-45000D02*
D03*
X545327Y-360712D02*
D03*
X551937Y-360929D02*
D03*
X553593Y-353199D02*
D03*
X780064Y-349631D02*
D03*
X784402Y-343388D02*
D03*
X837688Y-343642D02*
D03*
X175000Y-45000D02*
D03*
X837688Y-338308D02*
D03*
X175000Y-35000D02*
D03*
X185000Y-55000D02*
D03*
X279186Y-28688D02*
D03*
X310642Y-96520D02*
D03*
X275082Y-47578D02*
D03*
X266699Y-29210D02*
D03*
X275844Y-39116D02*
D03*
X272796Y-16764D02*
D03*
X276000Y-61194D02*
D03*
X275328Y-69068D02*
D03*
X267716Y-37084D02*
D03*
X260096Y-13970D02*
D03*
X266954Y-15475D02*
D03*
X259842Y3810D02*
D03*
X267208Y2032D02*
D03*
X275590Y5969D02*
D03*
X290068Y6858D02*
D03*
X536199Y-356797D02*
D03*
X164881Y65878D02*
D03*
X236474Y5969D02*
D03*
X183991Y-6001D02*
D03*
X234696Y-5080D02*
D03*
X194401Y4452D02*
D03*
X197656Y9458D02*
D03*
X165000Y-65000D02*
D03*
X155000Y-65000D02*
D03*
X152694Y6113D02*
D03*
X156701Y18923D02*
D03*
X167115D02*
D03*
X180048Y9944D02*
D03*
X164484Y9586D02*
D03*
X185970Y4731D02*
D03*
X118364Y21844D02*
D03*
X135344Y18017D02*
D03*
X161036Y60706D02*
D03*
X153924D02*
D03*
X145034Y61468D02*
D03*
X130810Y60960D02*
D03*
X138684Y61722D02*
D03*
X145000Y3229D02*
D03*
X227512Y5969D02*
D03*
X112500Y20000D02*
D03*
X1165850Y-63182D02*
D03*
X1103490Y-277903D02*
D03*
X1085088Y-279146D02*
D03*
X1106678Y-240792D02*
D03*
X1085642Y-246525D02*
D03*
X1083569Y-251440D02*
D03*
X1076286Y-252036D02*
D03*
X1086358Y-237490D02*
D03*
X1086062Y-232164D02*
D03*
X1062422Y-208534D02*
D03*
Y-214122D02*
D03*
X1063498Y-197104D02*
D03*
X1062736Y-203200D02*
D03*
X148082Y-594868D02*
D03*
X837438Y8128D02*
D03*
X804600Y-63420D02*
D03*
X190000Y8411D02*
D03*
X85414Y-15240D02*
D03*
X64586Y-15000D02*
D03*
X35560Y-15494D02*
D03*
X15494Y-4572D02*
D03*
X273271Y-217773D02*
D03*
X134112Y-282194D02*
D03*
X264324Y-74422D02*
D03*
X255444Y-63420D02*
D03*
X260000Y-70000D02*
D03*
X272198Y-73533D02*
D03*
X1058430Y-570204D02*
D03*
X1051020Y-396775D02*
D03*
X301314Y-563997D02*
D03*
X222250Y-360045D02*
D03*
X413512Y-235966D02*
D03*
X245000Y-225000D02*
D03*
X309340Y-238760D02*
D03*
X91186Y20000D02*
D03*
X83312Y18542D02*
D03*
X277394Y-222986D02*
D03*
X192786Y-287020D02*
D03*
X35560Y-271018D02*
D03*
X36322Y-277622D02*
D03*
X143649Y-259114D02*
D03*
X-10000Y-134112D02*
D03*
Y-140000D02*
D03*
X-118872Y-295402D02*
D03*
X-97282Y-302022D02*
D03*
X-110236Y-301498D02*
D03*
X-124714Y-238887D02*
D03*
X-117094D02*
D03*
X-84074Y-265938D02*
D03*
X-65278Y-226060D02*
D03*
X95000Y-65000D02*
D03*
X1219450Y-334118D02*
D03*
X1290697Y-426954D02*
D03*
X1246040Y-407602D02*
D03*
X105000Y-55000D02*
D03*
X1308583Y-343882D02*
D03*
X1254687Y-383573D02*
D03*
X115000Y-35000D02*
D03*
X1229600Y-476420D02*
D03*
X115000Y-45000D02*
D03*
X1251600Y-475420D02*
D03*
X1243600Y-471420D02*
D03*
X115414Y-15000D02*
D03*
X1202600Y-441420D02*
D03*
X155000Y-15000D02*
D03*
X1245600Y-440420D02*
D03*
X682240Y-273340D02*
D03*
X93980Y59690D02*
D03*
X101600Y55880D02*
D03*
X106680Y58420D02*
D03*
X111760Y55880D02*
D03*
X123698Y51308D02*
D03*
X260000Y-90568D02*
D03*
X164084Y-280670D02*
D03*
X244221Y-185000D02*
D03*
X1232150Y-356722D02*
D03*
X1211398Y-394842D02*
D03*
Y-380842D02*
D03*
X1245104Y-356722D02*
D03*
X311254Y-199348D02*
D03*
X244755Y-195000D02*
D03*
X235000Y-185000D02*
D03*
X610489Y-532110D02*
D03*
X633980Y-524618D02*
D03*
X317500Y-256667D02*
D03*
X109220Y-304800D02*
D03*
X131064Y-481838D02*
D03*
X25000Y-175000D02*
D03*
X15113Y-185000D02*
D03*
Y-175000D02*
D03*
X5842Y-320532D02*
D03*
X5334Y-308864D02*
D03*
X4572Y-294640D02*
D03*
X243459Y-305181D02*
D03*
X234839Y-304490D02*
D03*
X239398Y-301722D02*
D03*
X117237Y-303705D02*
D03*
X-12500Y-170000D02*
D03*
X65024Y-175024D02*
D03*
X61976Y-271272D02*
D03*
X44853Y-225000D02*
D03*
X95000Y-145000D02*
D03*
X172974Y-687324D02*
D03*
X95000Y-175000D02*
D03*
X166624Y-687070D02*
D03*
X95000Y-185000D02*
D03*
X160020Y-687070D02*
D03*
X85000Y-135000D02*
D03*
X153670Y-686562D02*
D03*
X75000Y-155000D02*
D03*
X141224Y-687070D02*
D03*
X45000Y-215000D02*
D03*
X134366Y-687324D02*
D03*
X85000Y-195000D02*
D03*
X128016Y-687070D02*
D03*
X75000Y-215000D02*
D03*
X121412Y-687070D02*
D03*
X55000Y-225000D02*
D03*
X115062Y-686562D02*
D03*
X65000Y-195000D02*
D03*
X109474Y-687578D02*
D03*
X45000Y-235000D02*
D03*
X103124Y-687324D02*
D03*
X96520D02*
D03*
X90170Y-686816D02*
D03*
X81026Y-265176D02*
D03*
X103632Y-597408D02*
D03*
X109220Y-596392D02*
D03*
X97282Y-596900D02*
D03*
X135128Y-595122D02*
D03*
X141224Y-599694D02*
D03*
X128524Y-597154D02*
D03*
X160528Y-599186D02*
D03*
X124460Y-302260D02*
D03*
X135890Y-256540D02*
D03*
X122174Y-596646D02*
D03*
X115570D02*
D03*
X153924Y-599186D02*
D03*
X195580Y-560832D02*
D03*
X191516Y-547878D02*
D03*
X136652Y-326390D02*
D03*
X309129Y-60520D02*
D03*
X218886Y7747D02*
D03*
X81534Y9144D02*
D03*
X1102610Y-514330D02*
D03*
X976819Y-519410D02*
D03*
X95000Y-25000D02*
D03*
X975610Y-509250D02*
D03*
X95000Y-15000D02*
D03*
X1164600Y-507420D02*
D03*
X105000Y-15000D02*
D03*
X175000Y-5000D02*
D03*
X135000Y-5000D02*
D03*
Y-15000D02*
D03*
Y-25000D02*
D03*
X407670Y-226060D02*
D03*
X175000Y-65000D02*
D03*
X205000Y-55000D02*
D03*
Y-65000D02*
D03*
X1040380Y-562590D02*
D03*
X185000Y-75000D02*
D03*
X205000Y-25000D02*
D03*
X1240278Y-100967D02*
D03*
X195000Y-25000D02*
D03*
X1272282Y-97828D02*
D03*
X1284220Y-124440D02*
D03*
X185000Y-15000D02*
D03*
X1215100Y-150420D02*
D03*
X1197860Y-191750D02*
D03*
X1215720Y57122D02*
D03*
X1209243Y43833D02*
D03*
X309880Y-119380D02*
D03*
X1101725Y-124079D02*
D03*
X65000Y-185000D02*
D03*
X172466Y-598678D02*
D03*
X166878Y-599694D02*
D03*
X95000Y-165000D02*
D03*
X85000Y-185000D02*
D03*
X90678Y-596900D02*
D03*
X85000Y-205000D02*
D03*
X95000Y-195000D02*
D03*
X75000Y-205000D02*
D03*
X58166Y-685546D02*
D03*
X51816Y-685292D02*
D03*
X45212D02*
D03*
X65000Y-235000D02*
D03*
X38862Y-684784D02*
D03*
X33274Y-685292D02*
D03*
X55000Y-205000D02*
D03*
X-5334Y-684530D02*
D03*
X85000Y-235000D02*
D03*
X1270Y-684530D02*
D03*
X75000Y-225000D02*
D03*
X7620Y-684784D02*
D03*
X75000Y-235000D02*
D03*
X13970Y-684530D02*
D03*
X65000Y-225000D02*
D03*
X20320Y-685038D02*
D03*
X55000Y-215000D02*
D03*
X26924Y-685038D02*
D03*
X95000Y-255000D02*
D03*
X85000Y-165000D02*
D03*
Y-145000D02*
D03*
X95000Y-135000D02*
D03*
X75000Y-175000D02*
D03*
Y-185000D02*
D03*
X15000Y-205000D02*
D03*
Y-225000D02*
D03*
X25000Y-215000D02*
D03*
X-30226Y-684784D02*
D03*
X-36830Y-684530D02*
D03*
X-56134Y-683768D02*
D03*
X-49784Y-684276D02*
D03*
X-43180D02*
D03*
X-24384Y-685800D02*
D03*
X147320Y-686308D02*
D03*
X39878Y-599694D02*
D03*
X45974Y-594360D02*
D03*
X83820Y-689102D02*
D03*
X77724Y-681482D02*
D03*
X71120Y-689610D02*
D03*
X64516Y-681990D02*
D03*
X-18034Y-684022D02*
D03*
X-17780Y-596646D02*
D03*
X-62230Y-596900D02*
D03*
X-68580Y-597408D02*
D03*
X-74930Y-597154D02*
D03*
Y-684276D02*
D03*
X-61976Y-682752D02*
D03*
X-68580Y-683006D02*
D03*
X-11684Y-684022D02*
D03*
X-17500Y-175000D02*
D03*
X25000Y-185000D02*
D03*
X15000Y-195000D02*
D03*
X45000D02*
D03*
X45000Y-185000D02*
D03*
X-164054Y-300645D02*
D03*
Y-306741D02*
D03*
X-162784Y-339507D02*
D03*
X-164054Y-326045D02*
D03*
Y-319949D02*
D03*
X-163800Y-313599D02*
D03*
Y-294295D02*
D03*
X75000Y-15000D02*
D03*
X65000Y-65000D02*
D03*
X55000Y-35000D02*
D03*
Y-55000D02*
D03*
X-162276Y-352207D02*
D03*
X-162530Y-358557D02*
D03*
X-162784Y-383195D02*
D03*
Y-377099D02*
D03*
X-162530Y-370749D02*
D03*
Y-364653D02*
D03*
Y-345603D02*
D03*
X75000Y-25000D02*
D03*
X35000Y-45000D02*
D03*
X-164054Y-409103D02*
D03*
Y-427899D02*
D03*
Y-421803D02*
D03*
X-163800Y-415453D02*
D03*
X-164054Y-402753D02*
D03*
X55000Y-15000D02*
D03*
X5080Y-25400D02*
D03*
X45000Y-35000D02*
D03*
X65000D02*
D03*
X55000Y-45000D02*
D03*
X45000Y-15000D02*
D03*
X-244710Y-345340D02*
D03*
X-244964Y-351690D02*
D03*
X-244710Y-358294D02*
D03*
Y-364390D02*
D03*
X-244964Y-370740D02*
D03*
X-245218Y-408586D02*
D03*
X-244964Y-402236D02*
D03*
Y-396140D02*
D03*
Y-389790D02*
D03*
X-244710Y-383440D02*
D03*
Y-377344D02*
D03*
Y-339244D02*
D03*
X35000Y-35000D02*
D03*
X25000Y-15000D02*
D03*
X15000D02*
D03*
X-244456Y-307240D02*
D03*
X-244202Y-300890D02*
D03*
X-244456Y-326290D02*
D03*
X-244202Y-319940D02*
D03*
Y-313844D02*
D03*
X-245218Y-453544D02*
D03*
X-244964Y-447194D02*
D03*
Y-441098D02*
D03*
X-245472Y-472340D02*
D03*
X-245218Y-465990D02*
D03*
Y-459894D02*
D03*
Y-478944D02*
D03*
Y-485040D02*
D03*
X-245472Y-491390D02*
D03*
X-245726Y-504090D02*
D03*
X-245472Y-510694D02*
D03*
X-245218Y-523140D02*
D03*
X-245364Y-517144D02*
D03*
X317500Y-222186D02*
D03*
X312433Y-158665D02*
D03*
X275984Y-109000D02*
D03*
X289560Y-203708D02*
D03*
X200660Y-257810D02*
D03*
X270157Y-170533D02*
D03*
X204906Y-215160D02*
D03*
X185791Y-164209D02*
D03*
X105000Y-35000D02*
D03*
X115414Y-25045D02*
D03*
Y-5000D02*
D03*
X114935Y-115000D02*
D03*
Y-85000D02*
D03*
Y-105000D02*
D03*
Y-75000D02*
D03*
Y-55000D02*
D03*
Y-65000D02*
D03*
X135000Y-115000D02*
D03*
X95000Y-245000D02*
D03*
X75000D02*
D03*
X155000Y-215000D02*
D03*
Y-205000D02*
D03*
X185184Y-244628D02*
D03*
X175000Y-244221D02*
D03*
X155000Y-245000D02*
D03*
Y-235000D02*
D03*
X165000Y-245000D02*
D03*
X215000D02*
D03*
X155000Y-35000D02*
D03*
X175000Y-55000D02*
D03*
X225000Y-5000D02*
D03*
X235000Y-15000D02*
D03*
X195000Y-45000D02*
D03*
X205000Y-35000D02*
D03*
X72500Y22500D02*
D03*
X77500Y25000D02*
D03*
X85000D02*
D03*
X71120Y55880D02*
D03*
X102500Y10000D02*
D03*
X65000Y-5000D02*
D03*
X85000Y-25000D02*
D03*
X95000Y-5000D02*
D03*
X105000Y-25000D02*
D03*
X155000Y-5000D02*
D03*
X82550Y54610D02*
D03*
X76200Y59690D02*
D03*
X65000Y57500D02*
D03*
X185000Y-95000D02*
D03*
X135000Y-145000D02*
D03*
X195000Y-135000D02*
D03*
X185000Y-115000D02*
D03*
Y-105000D02*
D03*
X155000Y-75000D02*
D03*
X175000D02*
D03*
X175000Y-85000D02*
D03*
X185000D02*
D03*
X215000D02*
D03*
Y-105000D02*
D03*
X195000Y-95000D02*
D03*
Y-85000D02*
D03*
X95000Y-205000D02*
D03*
X45000Y-155000D02*
D03*
X15000Y-115000D02*
D03*
Y-75000D02*
D03*
Y-95000D02*
D03*
X35000Y-105000D02*
D03*
X55000Y-115000D02*
D03*
X75000D02*
D03*
X115000Y-165000D02*
D03*
X165000Y-185000D02*
D03*
X215000Y-235000D02*
D03*
X235000Y-195000D02*
D03*
X145000Y-175000D02*
D03*
X215000Y-185000D02*
D03*
Y-165000D02*
D03*
Y-175000D02*
D03*
X225000D02*
D03*
Y-185000D02*
D03*
Y-195000D02*
D03*
X215000D02*
D03*
X195000D02*
D03*
X155000Y-185000D02*
D03*
X145000Y-195000D02*
D03*
X155000D02*
D03*
X165000D02*
D03*
X175000D02*
D03*
Y-185000D02*
D03*
X185000D02*
D03*
X175000Y-175000D02*
D03*
Y-155000D02*
D03*
X165000Y-145000D02*
D03*
X185000Y-155000D02*
D03*
X195000D02*
D03*
X175000Y-145000D02*
D03*
Y-135000D02*
D03*
X115000Y-135000D02*
D03*
X135000Y-135000D02*
D03*
X145000D02*
D03*
X155000D02*
D03*
Y-145000D02*
D03*
X145000D02*
D03*
X165000Y-155000D02*
D03*
Y-165000D02*
D03*
Y-175000D02*
D03*
X155000D02*
D03*
Y-165000D02*
D03*
X145000D02*
D03*
Y-155000D02*
D03*
X135000D02*
D03*
Y-165000D02*
D03*
Y-175000D02*
D03*
X145000Y-185000D02*
D03*
X135000D02*
D03*
X185000Y-195000D02*
D03*
X15000Y-215000D02*
D03*
X15000Y-235000D02*
D03*
X25000D02*
D03*
X35000D02*
D03*
X115000Y-205000D02*
D03*
Y-145000D02*
D03*
Y-155000D02*
D03*
Y-175000D02*
D03*
Y-185000D02*
D03*
Y-195000D02*
D03*
X105000Y-205000D02*
D03*
Y-195000D02*
D03*
X65000Y-205000D02*
D03*
X35000Y-215000D02*
D03*
X25000Y-225000D02*
D03*
Y-205000D02*
D03*
X35000Y-185000D02*
D03*
X25000Y-195000D02*
D03*
X35000D02*
D03*
X55000D02*
D03*
X105000Y-175000D02*
D03*
Y-165000D02*
D03*
Y-155000D02*
D03*
Y-145000D02*
D03*
X75000Y-165000D02*
D03*
X85000Y-155000D02*
D03*
X75000Y-135000D02*
D03*
X105000D02*
D03*
X135000Y-45000D02*
D03*
Y-55000D02*
D03*
Y-65000D02*
D03*
X105000D02*
D03*
X95000Y-75000D02*
D03*
X75000Y-55000D02*
D03*
X85000D02*
D03*
X95000D02*
D03*
X105000Y-45000D02*
D03*
X95000Y-35000D02*
D03*
X85000D02*
D03*
X75000D02*
D03*
Y-45000D02*
D03*
X85000D02*
D03*
X65000Y-25000D02*
D03*
Y-45000D02*
D03*
X45000Y-55000D02*
D03*
Y-45000D02*
D03*
X35000Y-85000D02*
D03*
Y-75000D02*
D03*
Y-65000D02*
D03*
X45000D02*
D03*
X55000D02*
D03*
X75000D02*
D03*
Y-75000D02*
D03*
X65000Y-85000D02*
D03*
X75000Y-95000D02*
D03*
X307340Y-185420D02*
D03*
X310634Y-192008D02*
D03*
X276860Y-181610D02*
D03*
Y-166116D02*
D03*
X270510Y-160020D02*
D03*
X210790Y-302260D02*
D03*
X205740Y-308610D02*
D03*
X200660Y-302260D02*
D03*
X186690Y-311150D02*
D03*
X215000Y-225000D02*
D03*
X205000D02*
D03*
Y-235000D02*
D03*
X195000D02*
D03*
X185000D02*
D03*
Y-225000D02*
D03*
X165000Y-215000D02*
D03*
Y-225000D02*
D03*
X175000D02*
D03*
Y-235000D02*
D03*
X145000Y-245000D02*
D03*
Y-225000D02*
D03*
X155000D02*
D03*
X145000Y-235000D02*
D03*
X115000Y-245000D02*
D03*
X105000D02*
D03*
X25000D02*
D03*
X55000Y-235000D02*
D03*
X85000Y-225000D02*
D03*
X105000Y-215000D02*
D03*
X95000D02*
D03*
X85000D02*
D03*
X95000Y-235000D02*
D03*
Y-225000D02*
D03*
X105000D02*
D03*
X135000Y-35000D02*
D03*
X95000Y-45000D02*
D03*
X55000Y-75000D02*
D03*
X65000D02*
D03*
Y-55000D02*
D03*
X135000Y-75000D02*
D03*
X105000D02*
D03*
X85000D02*
D03*
X75000Y-85000D02*
D03*
X95000D02*
D03*
X271000Y-106000D02*
D03*
X235000Y-95000D02*
D03*
Y-115000D02*
D03*
Y-75000D02*
D03*
X215000D02*
D03*
X205000D02*
D03*
X195000D02*
D03*
X185000Y-65000D02*
D03*
X195000D02*
D03*
X245000Y-15000D02*
D03*
X215000Y-35000D02*
D03*
X225000D02*
D03*
X235000Y-45000D02*
D03*
X215000Y-55000D02*
D03*
X195000D02*
D03*
X165000D02*
D03*
X185000Y-45000D02*
D03*
Y-35000D02*
D03*
X195000D02*
D03*
Y-15000D02*
D03*
X175000D02*
D03*
X165000D02*
D03*
Y-25000D02*
D03*
Y-35000D02*
D03*
X145000Y-55000D02*
D03*
Y-45000D02*
D03*
Y-35000D02*
D03*
Y-25000D02*
D03*
Y-15000D02*
D03*
X155000Y-25000D02*
D03*
Y-45000D02*
D03*
Y-55000D02*
D03*
X205000Y-45000D02*
D03*
X235000Y-35000D02*
D03*
Y-245000D02*
D03*
X225000Y-215000D02*
D03*
X185000D02*
D03*
X195000Y-225000D02*
D03*
Y-215000D02*
D03*
Y-205000D02*
D03*
X185000D02*
D03*
X175000D02*
D03*
X165000D02*
D03*
X145000D02*
D03*
Y-215000D02*
D03*
X135000D02*
D03*
Y-205000D02*
D03*
Y-225000D02*
D03*
Y-235000D02*
D03*
X115000D02*
D03*
Y-225000D02*
D03*
Y-215000D02*
D03*
X135000Y-245000D02*
D03*
X165000Y-235000D02*
D03*
X245000Y-175000D02*
D03*
X225000Y-165000D02*
D03*
Y-145000D02*
D03*
X205000Y-155000D02*
D03*
X165000Y-135000D02*
D03*
X175000Y-165000D02*
D03*
X35000Y-175000D02*
D03*
Y-145000D02*
D03*
X55000Y-95000D02*
D03*
Y-105000D02*
D03*
Y-85000D02*
D03*
X65000Y-95000D02*
D03*
X95000Y-95000D02*
D03*
X95000Y-115000D02*
D03*
Y-105000D02*
D03*
X85000Y-115000D02*
D03*
X65000D02*
D03*
X55000Y-135000D02*
D03*
X25000Y-145000D02*
D03*
X75000D02*
D03*
X85000Y-175000D02*
D03*
X35000Y-225000D02*
D03*
X105000Y-235000D02*
D03*
X65000Y-215000D02*
D03*
X45000Y-205000D02*
D03*
X75000Y-195000D02*
D03*
X105000Y-185000D02*
D03*
X65000Y-165000D02*
D03*
X95000Y-155000D02*
D03*
X85000Y-65000D02*
D03*
X205000Y-205000D02*
D03*
X175000Y-215000D02*
D03*
X195000Y-175000D02*
D03*
X155000Y-155000D02*
D03*
X175000Y-115000D02*
D03*
X155000D02*
D03*
Y-105000D02*
D03*
X145000D02*
D03*
X135000Y-95000D02*
D03*
X205000Y-135000D02*
D03*
X195000Y-115000D02*
D03*
Y-105000D02*
D03*
X175000D02*
D03*
Y-95000D02*
D03*
X155000D02*
D03*
X145000Y-85000D02*
D03*
X155000D02*
D03*
X145000Y-65000D02*
D03*
Y-75000D02*
D03*
X-10000Y-50000D02*
D03*
X35000Y-55000D02*
D03*
X25000Y-35000D02*
D03*
X55000Y-25000D02*
D03*
X1171663Y10594D02*
D03*
X813600Y-35420D02*
D03*
X793600Y-34420D02*
D03*
X1375600Y-228420D02*
D03*
X1376600Y-215420D02*
D03*
X1062760Y-396775D02*
D03*
X1308583Y-460574D02*
D03*
X1239403Y-88268D02*
D03*
X1229600Y-8420D02*
D03*
X1216803Y-84677D02*
D03*
X1222600Y-157920D02*
D03*
Y-169420D02*
D03*
X1393600Y-35420D02*
D03*
X1392600Y-7420D02*
D03*
X1361600Y-86420D02*
D03*
X1303600Y-96420D02*
D03*
X1290600Y82580D02*
D03*
X1230600Y17580D02*
D03*
X1277600Y-636420D02*
D03*
X1313600Y-529420D02*
D03*
X1221600Y-555420D02*
D03*
X1252600Y-577420D02*
D03*
X1214600Y-602420D02*
D03*
X1213600Y-580420D02*
D03*
X1021934Y-42505D02*
D03*
X1035274Y-69856D02*
D03*
X1085084Y-172700D02*
D03*
X1089382Y-70042D02*
D03*
X1264600Y-488420D02*
D03*
X1225600Y-439674D02*
D03*
X1225818Y-433836D02*
D03*
X1235600Y-395420D02*
D03*
X1211272Y-472874D02*
D03*
X1252600Y-485420D02*
D03*
X1199338Y-432188D02*
D03*
X1215213Y-438611D02*
D03*
X1202600Y-470420D02*
D03*
X1274503Y-442814D02*
D03*
X1290697Y-441437D02*
D03*
X1247600Y-235420D02*
D03*
X1101822Y-171028D02*
D03*
X1115310Y-171430D02*
D03*
X1099600Y10580D02*
D03*
X1224721Y-38960D02*
D03*
X1190600Y13580D02*
D03*
X1183528Y13881D02*
D03*
X1153600Y-23420D02*
D03*
X1182600Y580D02*
D03*
X1116753Y-41919D02*
D03*
X1012520D02*
D03*
X1153537Y-6330D02*
D03*
X1158864Y-6061D02*
D03*
X1098073Y-35667D02*
D03*
X1110251D02*
D03*
X1150870Y-31730D02*
D03*
X1144266Y-23602D02*
D03*
X1135618Y14486D02*
D03*
X1072766Y-19643D02*
D03*
X1121132Y4744D02*
D03*
X1235706Y-439105D02*
D03*
X1083315Y-325911D02*
D03*
X1103600Y-360420D02*
D03*
X1105017Y-337306D02*
D03*
X951004Y-391170D02*
D03*
X624600Y-450420D02*
D03*
X1143106Y-214804D02*
D03*
X1249600Y-173420D02*
D03*
X807319Y-445494D02*
D03*
X859582Y-389351D02*
D03*
X895824Y-382851D02*
D03*
X1023494Y-350373D02*
D03*
X817924Y-402322D02*
D03*
X941320Y-402242D02*
D03*
X848102Y-421741D02*
D03*
X783840Y-465232D02*
D03*
X768624Y-465208D02*
D03*
X776220Y-413170D02*
D03*
X930765Y-358754D02*
D03*
X910920Y-346642D02*
D03*
X980102Y-421741D02*
D03*
X871978Y-351770D02*
D03*
X829560Y-350501D02*
D03*
X1022520Y-329799D02*
D03*
X1225720Y43833D02*
D03*
X1256280Y-83800D02*
D03*
X1191240Y-30460D02*
D03*
X1190240Y-44758D02*
D03*
X1206325Y-95579D02*
D03*
X1099760Y-71735D02*
D03*
X1260100Y-120420D02*
D03*
Y-135420D02*
D03*
X1252600Y-142920D02*
D03*
X1305810Y-153650D02*
D03*
X1245100Y-120420D02*
D03*
X1237600Y-127920D02*
D03*
X1212682Y-129429D02*
D03*
X1190346Y-102870D02*
D03*
X1237600Y-135420D02*
D03*
X1245100Y-142920D02*
D03*
X1150870Y-153650D02*
D03*
X1169920Y-175240D02*
D03*
X1170443Y-196678D02*
D03*
X1154187Y-313998D02*
D03*
X1245002Y-379636D02*
D03*
X1139440Y-194290D02*
D03*
X1141980Y-270490D02*
D03*
X1119623Y-193035D02*
D03*
X1114276Y-330053D02*
D03*
X1333100Y-504118D02*
D03*
X1386062Y-611820D02*
D03*
X1211600Y-570420D02*
D03*
X1234040Y-424592D02*
D03*
X1203599Y-424632D02*
D03*
X1199740Y-495838D02*
D03*
X1097497Y-611153D02*
D03*
X887600Y-232938D02*
D03*
X884693Y-240599D02*
D03*
X886839Y-248686D02*
D03*
X1081954Y-294747D02*
D03*
X1092868Y-386748D02*
D03*
X1070766Y-281145D02*
D03*
X1078480Y-283885D02*
D03*
X1075466Y-312019D02*
D03*
X1089807Y-458018D02*
D03*
X1010170Y-553764D02*
D03*
X975642Y-588292D02*
D03*
X1051080Y-666858D02*
D03*
X904600Y-270420D02*
D03*
X884600Y-291420D02*
D03*
X1323590Y-129520D02*
D03*
X1159887Y-100310D02*
D03*
X1154553D02*
D03*
X1272282Y-105390D02*
D03*
X1075195Y-295531D02*
D03*
X1037353Y-190984D02*
D03*
X1161304Y-196616D02*
D03*
X1239008Y-227438D02*
D03*
X1359150Y-229850D02*
D03*
X1360420Y-238740D02*
D03*
Y-248900D02*
D03*
X1271520Y-302240D02*
D03*
X1247390Y-255250D02*
D03*
X1246120Y-263251D02*
D03*
X1239786Y-286460D02*
D03*
X1224502Y-84905D02*
D03*
X1230767Y-79632D02*
D03*
X1198610Y-112624D02*
D03*
X1123373Y-73475D02*
D03*
X682240Y-532110D02*
D03*
X693670Y-534650D02*
D03*
X1054995Y-350363D02*
D03*
X1080893Y-383977D02*
D03*
X1121660Y-237379D02*
D03*
X1013601Y-58964D02*
D03*
X1055747Y-291759D02*
D03*
X1109595Y-73578D02*
D03*
X1087228Y-270681D02*
D03*
X1146350Y-63182D02*
D03*
X1133350D02*
D03*
X1087192Y-261854D02*
D03*
X1071230Y-267205D02*
D03*
X1195240Y-226181D02*
D03*
X1162300Y-410190D02*
D03*
X755326Y-311003D02*
D03*
X1114040Y-312400D02*
D03*
X1111280Y-283629D02*
D03*
X973070Y-354310D02*
D03*
X941320Y-380038D02*
D03*
X949866Y-382973D02*
D03*
X1190240Y-66962D02*
D03*
X1209243Y14531D02*
D03*
X1209252Y1158D02*
D03*
X1200480Y14531D02*
D03*
X725600Y-271887D02*
D03*
X997200Y-448290D02*
D03*
X995803Y-438741D02*
D03*
X873502Y-444734D02*
D03*
X865882Y-435590D02*
D03*
X1213100Y-288270D02*
D03*
X590800Y-414000D02*
D03*
X575560Y-405110D02*
D03*
X621786Y-505694D02*
D03*
X976880Y-533380D02*
D03*
X755011Y-381958D02*
D03*
X758948Y-378186D02*
D03*
X1184652Y-603230D02*
D03*
X1306608Y-454640D02*
D03*
X1194050Y-567670D02*
D03*
X1296920Y-341482D02*
D03*
X1141980Y-386060D02*
D03*
X1152140Y-383520D02*
D03*
X1169920Y-378440D02*
D03*
X1043428Y-348976D02*
D03*
X1217560Y-424592D02*
D03*
X1200963Y-292809D02*
D03*
X1193498Y-308798D02*
D03*
X1093240Y-289413D02*
D03*
X1156228Y-270681D02*
D03*
X1146881Y-330053D02*
D03*
X1175000Y-567670D02*
D03*
X1095849Y-87959D02*
D03*
X885186Y-443464D02*
D03*
X859582Y-376352D02*
D03*
Y-363352D02*
D03*
X917582Y-376352D02*
D03*
X907792Y-409428D02*
D03*
X917582Y-389352D02*
D03*
X811272Y-464546D02*
D03*
X830830Y-436352D02*
D03*
X896767Y-438741D02*
D03*
X961386Y-438638D02*
D03*
X1078400Y-263278D02*
D03*
X1078480Y-227638D02*
D03*
X1047920Y-190417D02*
D03*
X1126867Y-195560D02*
D03*
X1052572Y-18776D02*
D03*
X1145663Y-6182D02*
D03*
X1225720Y57122D02*
D03*
X1107656Y5383D02*
D03*
X1157944Y15083D02*
D03*
X712112Y-282215D02*
D03*
X1235966Y-407676D02*
D03*
X1193498Y-331402D02*
D03*
X1233500Y-321925D02*
D03*
X1243500Y-314051D02*
D03*
X733421Y-280877D02*
D03*
X897632Y-339578D02*
D03*
X810510Y-388092D02*
D03*
X797128Y-419512D02*
D03*
X847048Y-446512D02*
D03*
X1244850Y-330892D02*
D03*
X1232861Y-334829D02*
D03*
X1286760Y-374630D02*
D03*
X799080Y-465232D02*
D03*
X1152433Y16232D02*
D03*
X1131374Y-5712D02*
D03*
X1241342Y-165080D02*
D03*
X1236008D02*
D03*
X1255072Y-163810D02*
D03*
X1249738D02*
D03*
X1112770Y-278110D02*
D03*
X1285490Y-135870D02*
D03*
X1281680Y-114280D02*
D03*
X1266440Y-83800D02*
D03*
X1115207Y-481122D02*
D03*
X1127907Y-481122D02*
D03*
Y-537622D02*
D03*
X1272752Y-416573D02*
D03*
X1150381Y-262681D02*
D03*
X1102332Y-258681D02*
D03*
X1108179Y-266681D02*
D03*
X1127280Y-283629D02*
D03*
X1119280Y-277783D02*
D03*
X1363958Y-581820D02*
D03*
X1386062Y-591820D02*
D03*
X1363958Y-601820D02*
D03*
X1225542Y-46460D02*
D03*
X1098073Y-56802D02*
D03*
X1192098Y-20690D02*
D03*
Y-37689D02*
D03*
X1200480Y1242D02*
D03*
X815955Y-445494D02*
D03*
X806192Y-409430D02*
D03*
X1126850Y-63182D02*
D03*
X1139850D02*
D03*
X1141980Y-486718D02*
D03*
X1108960Y-57779D02*
D03*
X1359714Y-280522D02*
D03*
X1225235Y-227353D02*
D03*
X1373120Y-280522D02*
D03*
X1195160Y-239470D02*
D03*
X819400Y-354438D02*
D03*
X940765Y-372042D02*
D03*
X930765D02*
D03*
X940765Y-358754D02*
D03*
X948258Y-453760D02*
D03*
X1327102Y-603120D02*
D03*
X890978Y-369851D02*
D03*
X832978Y-382851D02*
D03*
Y-395852D02*
D03*
X1252142Y-431780D02*
D03*
X1310890Y-318958D02*
D03*
X1219450Y-356722D02*
D03*
X1296920Y-318878D02*
D03*
Y-120758D02*
D03*
D171*
X540766Y-300228D02*
D03*
X525526D02*
D03*
X480822Y-196215D02*
D03*
X437388Y10668D02*
D03*
X478935Y-215791D02*
D03*
X548365Y-246290D02*
D03*
X-159258Y-550926D02*
D03*
X-104394D02*
D03*
X-90678Y-590550D02*
D03*
X-171704Y-606044D02*
D03*
X460756Y-139446D02*
D03*
X547116Y-290068D02*
D03*
X452628Y10668D02*
D03*
X546862Y-269240D02*
D03*
D172*
X265470Y-401550D02*
D03*
X276470Y-423550D02*
D03*
Y-434550D02*
D03*
Y-412550D02*
D03*
Y-401550D02*
D03*
X265470Y-434550D02*
D03*
Y-423550D02*
D03*
X254470Y-401550D02*
D03*
X243470D02*
D03*
X254470Y-412550D02*
D03*
X265470D02*
D03*
X243470Y-423550D02*
D03*
Y-412550D02*
D03*
X254470Y-423550D02*
D03*
Y-434550D02*
D03*
X243470D02*
D03*
D173*
X499000Y-89250D02*
D03*
X510000D02*
D03*
X499000Y-100250D02*
D03*
X510000D02*
D03*
X499000Y-111250D02*
D03*
X510000D02*
D03*
X499000Y-122250D02*
D03*
X510000D02*
D03*
M02*
