G04*
G04 #@! TF.GenerationSoftware,Altium Limited,Altium Designer,24.10.1 (45)*
G04*
G04 Layer_Color=16711935*
%FSLAX44Y44*%
%MOMM*%
G71*
G04*
G04 #@! TF.SameCoordinates,ABE7D74E-C01C-4B96-B217-1A688C40366F*
G04*
G04*
G04 #@! TF.FilePolarity,Positive*
G04*
G01*
G75*
%ADD15C,0.3050*%
%ADD260C,0.1778*%
D15*
X-248700Y99580D02*
G03*
X-261400Y86880I0J-12700D01*
G01*
Y-687720D02*
G03*
X-248700Y-700420I12700J0D01*
G01*
X1422600Y86880D02*
G03*
X1409900Y99580I-12700J0D01*
G01*
Y-700420D02*
G03*
X1422600Y-687720I0J12700D01*
G01*
X-248380Y-700420D02*
X1409900Y-700420D01*
X-261400Y-320420D02*
Y86880D01*
Y-687720D02*
Y-320420D01*
X-249650Y99580D02*
X1409900Y99580D01*
X1422600Y-687720D02*
Y86880D01*
D260*
X1284340Y-575593D02*
Y-584057D01*
X1282647Y-585750D01*
X1279262D01*
X1277569Y-584057D01*
Y-575593D01*
X1274183D02*
X1267412D01*
Y-577286D01*
X1274183Y-584057D01*
Y-585750D01*
X1144523Y-10140D02*
X1152987D01*
X1154680Y-11833D01*
Y-15218D01*
X1152987Y-16911D01*
X1144523D01*
X1154680Y-20297D02*
Y-23682D01*
Y-21990D01*
X1144523D01*
X1146216Y-20297D01*
Y-28761D02*
X1144523Y-30454D01*
Y-33839D01*
X1146216Y-35532D01*
X1147909D01*
X1149602Y-33839D01*
Y-32146D01*
Y-33839D01*
X1151294Y-35532D01*
X1152987D01*
X1154680Y-33839D01*
Y-30454D01*
X1152987Y-28761D01*
M02*
