G04*
G04 #@! TF.GenerationSoftware,Altium Limited,Altium Designer,24.10.1 (45)*
G04*
G04 Layer_Physical_Order=4*
G04 Layer_Color=6736896*
%FSLAX44Y44*%
%MOMM*%
G71*
G04*
G04 #@! TF.SameCoordinates,98639135-FE56-4FAC-94B5-B9978FB97537*
G04*
G04*
G04 #@! TF.FilePolarity,Positive*
G04*
G01*
G75*
%ADD59C,0.1270*%
%ADD60C,0.3048*%
%ADD64C,0.5080*%
%ADD65C,1.2700*%
%ADD66C,0.1524*%
%ADD69C,0.4750*%
%ADD70C,0.3750*%
G04:AMPARAMS|DCode=71|XSize=5.8mm|YSize=2.5mm|CornerRadius=1.25mm|HoleSize=0mm|Usage=FLASHONLY|Rotation=0.000|XOffset=0mm|YOffset=0mm|HoleType=Round|Shape=RoundedRectangle|*
%AMROUNDEDRECTD71*
21,1,5.8000,0.0000,0,0,0.0*
21,1,3.3000,2.5000,0,0,0.0*
1,1,2.5000,1.6500,0.0000*
1,1,2.5000,-1.6500,0.0000*
1,1,2.5000,-1.6500,0.0000*
1,1,2.5000,1.6500,0.0000*
%
%ADD71ROUNDEDRECTD71*%
G04:AMPARAMS|DCode=72|XSize=5.8mm|YSize=2.5mm|CornerRadius=1.25mm|HoleSize=0mm|Usage=FLASHONLY|Rotation=270.000|XOffset=0mm|YOffset=0mm|HoleType=Round|Shape=RoundedRectangle|*
%AMROUNDEDRECTD72*
21,1,5.8000,0.0000,0,0,270.0*
21,1,3.3000,2.5000,0,0,270.0*
1,1,2.5000,0.0000,-1.6500*
1,1,2.5000,0.0000,1.6500*
1,1,2.5000,0.0000,1.6500*
1,1,2.5000,0.0000,-1.6500*
%
%ADD72ROUNDEDRECTD72*%
G04:AMPARAMS|DCode=73|XSize=6.5mm|YSize=2.5mm|CornerRadius=1.25mm|HoleSize=0mm|Usage=FLASHONLY|Rotation=270.000|XOffset=0mm|YOffset=0mm|HoleType=Round|Shape=RoundedRectangle|*
%AMROUNDEDRECTD73*
21,1,6.5000,0.0000,0,0,270.0*
21,1,4.0000,2.5000,0,0,270.0*
1,1,2.5000,0.0000,-2.0000*
1,1,2.5000,0.0000,2.0000*
1,1,2.5000,0.0000,2.0000*
1,1,2.5000,0.0000,-2.0000*
%
%ADD73ROUNDEDRECTD73*%
%ADD74C,2.2000*%
%ADD75C,1.5000*%
%ADD76R,1.5000X1.5000*%
%ADD77C,0.3556*%
%ADD78C,5.3000*%
G04:AMPARAMS|DCode=79|XSize=1mm|YSize=1.8mm|CornerRadius=0.5mm|HoleSize=0mm|Usage=FLASHONLY|Rotation=270.000|XOffset=0mm|YOffset=0mm|HoleType=Round|Shape=RoundedRectangle|*
%AMROUNDEDRECTD79*
21,1,1.0000,0.8000,0,0,270.0*
21,1,0.0000,1.8000,0,0,270.0*
1,1,1.0000,-0.4000,0.0000*
1,1,1.0000,-0.4000,0.0000*
1,1,1.0000,0.4000,0.0000*
1,1,1.0000,0.4000,0.0000*
%
%ADD79ROUNDEDRECTD79*%
G04:AMPARAMS|DCode=80|XSize=1mm|YSize=2.1mm|CornerRadius=0.5mm|HoleSize=0mm|Usage=FLASHONLY|Rotation=270.000|XOffset=0mm|YOffset=0mm|HoleType=Round|Shape=RoundedRectangle|*
%AMROUNDEDRECTD80*
21,1,1.0000,1.1000,0,0,270.0*
21,1,0.0000,2.1000,0,0,270.0*
1,1,1.0000,-0.5500,0.0000*
1,1,1.0000,-0.5500,0.0000*
1,1,1.0000,0.5500,0.0000*
1,1,1.0000,0.5500,0.0000*
%
%ADD80ROUNDEDRECTD80*%
%ADD81C,0.6500*%
%ADD82C,7.0000*%
%ADD83C,0.9000*%
%ADD84R,1.5000X1.5000*%
%ADD85C,0.6000*%
%ADD86C,1.3900*%
%ADD87C,1.7000*%
%ADD88C,1.9000*%
%ADD89C,1.7272*%
%ADD90C,1.2000*%
%ADD91C,1.5700*%
%ADD92R,1.7000X1.7000*%
%ADD93R,1.6764X1.6764*%
%ADD94C,3.2000*%
%ADD95R,1.3900X1.3900*%
%ADD96C,2.4500*%
G04:AMPARAMS|DCode=97|XSize=1mm|YSize=1.8mm|CornerRadius=0.5mm|HoleSize=0mm|Usage=FLASHONLY|Rotation=180.000|XOffset=0mm|YOffset=0mm|HoleType=Round|Shape=RoundedRectangle|*
%AMROUNDEDRECTD97*
21,1,1.0000,0.8000,0,0,180.0*
21,1,0.0000,1.8000,0,0,180.0*
1,1,1.0000,0.0000,0.4000*
1,1,1.0000,0.0000,0.4000*
1,1,1.0000,0.0000,-0.4000*
1,1,1.0000,0.0000,-0.4000*
%
%ADD97ROUNDEDRECTD97*%
G04:AMPARAMS|DCode=98|XSize=1mm|YSize=2.1mm|CornerRadius=0.5mm|HoleSize=0mm|Usage=FLASHONLY|Rotation=180.000|XOffset=0mm|YOffset=0mm|HoleType=Round|Shape=RoundedRectangle|*
%AMROUNDEDRECTD98*
21,1,1.0000,1.1000,0,0,180.0*
21,1,0.0000,2.1000,0,0,180.0*
1,1,1.0000,0.0000,0.5500*
1,1,1.0000,0.0000,0.5500*
1,1,1.0000,0.0000,-0.5500*
1,1,1.0000,0.0000,-0.5500*
%
%ADD98ROUNDEDRECTD98*%
%ADD99C,0.4064*%
%ADD100C,0.6096*%
%ADD101C,1.1430*%
%ADD102C,0.6000*%
%ADD103C,0.5000*%
D59*
X1161850Y1048308D02*
G03*
X1162011Y1048254I3075J8888D01*
G01*
X1139525Y1047791D02*
G03*
X1146205Y1050576I0J9405D01*
G01*
X1088499Y1047794D02*
G03*
X1088725Y1047791I226J9402D01*
G01*
X980754Y896330D02*
G03*
X980345Y896398I-409J-1202D01*
G01*
X710335Y643594D02*
Y671926D01*
X707795Y679105D02*
Y708422D01*
X712494Y673359D02*
Y676620D01*
X704874Y670202D02*
X705255Y669821D01*
X704874Y679777D02*
X705255Y680157D01*
X712875Y644646D02*
Y672978D01*
X705255Y641490D02*
Y669821D01*
X715542Y681446D02*
X720368Y676620D01*
X712875Y677001D02*
Y706318D01*
X710335Y678053D02*
Y707370D01*
X718082Y646624D02*
X718463Y646243D01*
X718082Y646624D02*
Y667481D01*
X723162Y684603D02*
X727988Y679777D01*
X707795Y642542D02*
Y670873D01*
X715542Y645572D02*
X715923Y645191D01*
X723162Y665376D02*
X727988Y670202D01*
X709954Y672307D02*
Y677672D01*
X723162Y684603D02*
Y701850D01*
X704874Y670202D02*
Y679777D01*
X718082Y703954D02*
X729678Y715550D01*
X722908Y672307D02*
Y677672D01*
X720622Y683550D02*
Y702902D01*
X712494Y673359D02*
X712875Y672978D01*
X718463Y557706D02*
X786933Y489236D01*
X720368Y673359D02*
Y676620D01*
X727988Y670202D02*
Y679777D01*
X709954Y677672D02*
X710335Y678053D01*
X707414Y671255D02*
X707795Y670873D01*
X715542Y681446D02*
Y705006D01*
X720622Y683550D02*
X725448Y678724D01*
X707414Y671255D02*
Y678724D01*
X700175Y639386D02*
Y667717D01*
X718082Y682498D02*
Y703954D01*
X715542Y705006D02*
X728626Y718090D01*
X720622Y647676D02*
Y666429D01*
X723162Y648728D02*
Y665376D01*
X702334Y669150D02*
Y673839D01*
X712494Y676620D02*
X712875Y677001D01*
X709954Y672307D02*
X710335Y671926D01*
X699794Y668098D02*
Y672787D01*
X718082Y682498D02*
X722908Y677672D01*
X725448Y671255D02*
Y678724D01*
X707414D02*
X707795Y679105D01*
X701191Y674982D02*
X702334Y673839D01*
X698651Y673930D02*
X699794Y672787D01*
X702715Y640438D02*
Y668769D01*
X715542Y668533D02*
X720368Y673359D01*
X715923Y556654D02*
X785881Y486696D01*
X720622Y666429D02*
X725448Y671255D01*
X705255Y680157D02*
Y709474D01*
X702334Y669150D02*
X702715Y668769D01*
X699794Y668098D02*
X700175Y667717D01*
X718082Y667481D02*
X722908Y672307D01*
X715542Y645572D02*
Y668533D01*
X545525Y633127D02*
X553215D01*
X516078Y600088D02*
X546577Y630587D01*
X554268D02*
X558565Y634884D01*
X566185Y631728D02*
Y634922D01*
X513538Y601140D02*
X545525Y633127D01*
X518618Y572836D02*
Y591345D01*
X546577Y630587D02*
X554268D01*
X553215Y633127D02*
X556025Y635937D01*
X558565Y634884D02*
Y638078D01*
X518618Y591345D02*
X561105Y633832D01*
X563645Y632780D02*
Y635974D01*
X526947Y596082D02*
X563645Y632780D01*
X529487Y595030D02*
X566185Y631728D01*
X561105Y633832D02*
Y637026D01*
X556025Y635937D02*
Y639130D01*
X529487Y570151D02*
Y595030D01*
X526947Y569099D02*
Y596082D01*
X563588Y653877D02*
Y708466D01*
X548353Y646731D02*
X552850D01*
X505918Y604296D02*
X548353Y646731D01*
X553902Y644191D02*
X563588Y653877D01*
X554954Y641651D02*
X566654Y653351D01*
X550457Y641651D02*
X554954D01*
X510998Y602192D02*
X550457Y641651D01*
X498298Y577551D02*
Y610499D01*
X500838Y609447D02*
X553864Y662473D01*
X500838Y576499D02*
Y609447D01*
X578509Y650837D02*
Y711834D01*
X560522Y654403D02*
Y708992D01*
X575736Y651657D02*
Y712653D01*
X581049Y649785D02*
Y710781D01*
X572786Y652299D02*
Y713296D01*
X569720Y652825D02*
Y713821D01*
X549405Y644191D02*
X553902D01*
X552850Y646731D02*
X560522Y654403D01*
X556025Y639130D02*
X569720Y652825D01*
X558565Y638078D02*
X572786Y652299D01*
X503378Y575447D02*
Y608395D01*
X508458Y573343D02*
Y603244D01*
X549405Y644191D01*
X551324Y663525D02*
Y710570D01*
X561105Y637026D02*
X575736Y651657D01*
X505918Y574395D02*
Y604296D01*
X557456Y662473D02*
Y709518D01*
X563645Y635974D02*
X578509Y650837D01*
X566654Y653351D02*
Y707940D01*
X498298Y610499D02*
X551324Y663525D01*
X553864Y662473D02*
Y709518D01*
X510998Y569680D02*
Y602192D01*
X566185Y634922D02*
X581049Y649785D01*
X503378Y608395D02*
X557456Y662473D01*
X516078Y571784D02*
Y600088D01*
X513538Y570732D02*
Y601140D01*
X620038Y695885D02*
Y705009D01*
X606449Y718598D02*
X620038Y705009D01*
X602893Y717328D02*
X617498Y702723D01*
Y694833D02*
Y702723D01*
X559586Y802311D02*
X560348Y801549D01*
X557046Y801259D02*
X557456Y800849D01*
X557046Y801259D02*
Y806625D01*
X563142Y792691D02*
Y797993D01*
X561892Y807879D02*
X563650D01*
X565809Y797068D02*
X570000Y801259D01*
X559586Y802311D02*
Y805573D01*
X570000Y801259D02*
Y803561D01*
X567460Y802311D02*
Y804613D01*
X563650Y807879D02*
X583030Y827259D01*
X565809Y793616D02*
Y797068D01*
X563142Y797993D02*
X567460Y802311D01*
X559586Y805573D02*
X561892Y807879D01*
X570000Y803561D02*
X593318Y826879D01*
X560348Y797735D02*
Y801549D01*
X557456Y797034D02*
Y800849D01*
X567460Y804613D02*
X588161Y825314D01*
X565809Y793616D02*
X566444Y792981D01*
X557456Y807035D02*
Y809051D01*
X588161Y825314D02*
Y836216D01*
X557046Y806625D02*
X557456Y807035D01*
X528515Y830816D02*
X533501D01*
X519071Y835692D02*
X520468Y837089D01*
X533501Y830816D02*
X533551Y830866D01*
X527231Y835692D02*
X538123D01*
X520468Y837089D02*
X525834D01*
X524781Y834549D02*
X528515Y830816D01*
X515009Y830612D02*
X517583D01*
X521520Y834549D02*
X524781D01*
X525834Y837089D02*
X527231Y835692D01*
X516497D02*
X519071D01*
X517583Y830612D02*
X521520Y834549D01*
X527963Y825024D02*
X532555D01*
X515009Y826548D02*
X526439D01*
X532555Y825024D02*
X532682Y825151D01*
X534948D02*
X538415Y828618D01*
X532682Y825151D02*
X534948D01*
X526439Y826548D02*
X527963Y825024D01*
X469543Y785146D02*
X515009Y830612D01*
X566825Y870236D02*
X572540Y875951D01*
X578606Y878852D02*
Y890207D01*
X572540Y875951D02*
X575704D01*
X561747Y907066D02*
X578606Y890207D01*
X575704Y875951D02*
X578606Y878852D01*
X1019910Y1039485D02*
X1029544D01*
X1017376Y1040543D02*
X1020295Y1043462D01*
X1042772D01*
X1047215Y1039019D01*
X1034672Y1030764D02*
X1052494D01*
X1035725Y1033304D02*
X1051442D01*
X1020962Y1036945D02*
X1028492D01*
X1029544Y1039485D02*
X1035725Y1033304D01*
X1028492Y1036945D02*
X1034672Y1030764D01*
X1177447Y1031399D02*
X1178076D01*
X1218216Y969161D02*
X1222907Y964470D01*
X1143065Y1039837D02*
X1150110Y1041295D01*
X1143326Y1037297D02*
X1144228Y1037407D01*
X1102951Y1036216D02*
X1104004Y1036216D01*
X1167924Y1046327D02*
X1168172Y1046078D01*
X1102710Y1032865D02*
X1103763D01*
X1154423Y1038755D02*
X1162348Y1032865D01*
X1102338Y1033236D02*
X1102710Y1032865D01*
X1144228Y1037407D02*
X1151162Y1038755D01*
X1146731Y1050576D02*
X1150838D01*
X1162348Y1032865D02*
X1172221Y1032865D01*
X1150838Y1050576D02*
X1158956Y1049309D01*
X1099096Y1036479D02*
X1102338Y1033236D01*
X1158956Y1049309D02*
X1161850Y1048308D01*
X1103763Y1032865D02*
X1143326Y1037297D01*
X1155475Y1041295D02*
X1163979Y1036802D01*
X1162011Y1048254D02*
X1167924Y1046327D01*
X1168172Y1046078D02*
X1168374Y1045877D01*
X1100148Y1039019D02*
X1102951Y1036216D01*
X1151162Y1038755D02*
X1154423D01*
X1104004Y1036216D02*
X1142219Y1039745D01*
X1150110Y1041295D02*
X1155475D01*
X1142219Y1039745D02*
X1143065Y1039837D01*
X970793Y1039654D02*
X1002783D01*
X1003672Y1040543D01*
X962430Y1043337D02*
X965732Y1040035D01*
X1047215Y1039019D02*
X1100148D01*
X1003672Y1040543D02*
X1017376D01*
X970412Y1040035D02*
X970793Y1039654D01*
X965732Y1040035D02*
X970412D01*
X1146205Y1050576D02*
X1146731Y1050576D01*
X1088725Y1047791D02*
X1139525D01*
X1069999Y1051320D02*
X1073156Y1048163D01*
X1088499Y1047794D01*
X1069999Y1051320D02*
Y1064058D01*
X1201537Y988850D02*
Y990070D01*
X1200237Y991370D02*
X1201537Y990070D01*
Y988850D02*
X1202841Y987546D01*
Y986790D02*
Y987546D01*
X1183021Y991370D02*
X1200237D01*
X1176050Y1030002D02*
X1177447Y1031399D01*
X1170321Y1030002D02*
X1176050D01*
X1177414Y995992D02*
X1177949Y995458D01*
X1173155Y995992D02*
X1177414D01*
X1243779Y869347D02*
X1266722D01*
X1276374Y875407D02*
Y886365D01*
X1242727Y866807D02*
X1267774D01*
X1240032Y869503D02*
X1242727Y866807D01*
X1272437Y875062D02*
Y884206D01*
X1266722Y869347D02*
X1272437Y875062D01*
X1201317Y868712D02*
X1235979D01*
X1267774Y866807D02*
X1276374Y875407D01*
X1195508Y874520D02*
X1201317Y868712D01*
X1272183Y890556D02*
X1276374Y886365D01*
X1259483Y802418D02*
X1278914Y821849D01*
X1269695Y898611D02*
X1278914Y889393D01*
Y821849D02*
Y889393D01*
X1269513Y898611D02*
X1269695D01*
X1262176Y905949D02*
X1269513Y898611D01*
X1210207Y997744D02*
Y1002334D01*
X1201265Y993934D02*
X1206778Y988421D01*
X1199396Y999395D02*
X1216557Y982234D01*
X1200448Y1001935D02*
X1220756Y981627D01*
X1206778Y975031D02*
Y988421D01*
X1220756Y974261D02*
Y981627D01*
X1216557Y978460D02*
Y982234D01*
X1169476Y1001935D02*
X1200448D01*
X1181992Y993934D02*
X1201265D01*
X1170528Y999395D02*
X1199396D01*
X1208066Y1004475D02*
X1210207Y1002334D01*
X777391Y1043972D02*
X791531D01*
X725097Y1054336D02*
X740279Y1039154D01*
X779633D01*
X781023Y1040543D02*
X785285D01*
X779633Y1039154D02*
X781023Y1040543D01*
X1059237Y452463D02*
X1086169Y425531D01*
X1086439D01*
X1043698Y490335D02*
X1044444D01*
X1036150Y497882D02*
X1043698Y490335D01*
X1035963Y480092D02*
X1036217D01*
X1034747Y481722D02*
X1035792Y480677D01*
Y479921D02*
X1035963Y480092D01*
X1035792Y479921D02*
Y480677D01*
X1057553Y465201D02*
X1072634Y450120D01*
X1057553Y465201D02*
Y470912D01*
X1056848Y454770D02*
Y454852D01*
X1072634Y450120D02*
X1463897D01*
X1056848Y454770D02*
X1059155Y452463D01*
X1055902Y455799D02*
X1056848Y454852D01*
X1059155Y452463D02*
X1059237D01*
X1036344Y480219D02*
X1046885Y469678D01*
X1034747Y481722D02*
Y481816D01*
X818248Y497882D02*
X1036150D01*
X1034585Y486696D02*
X1049425Y471856D01*
X1035637Y489236D02*
X1051965Y472908D01*
X1033123Y495342D02*
X1057553Y470912D01*
X1049425Y453386D02*
Y460026D01*
X1045488Y458395D02*
X1046885Y456998D01*
X1051965Y466646D02*
X1055902Y462709D01*
X1045488Y461657D02*
X1046885Y463054D01*
X1040408Y456291D02*
Y456343D01*
X1046885Y463054D02*
Y469678D01*
X1055902Y455799D02*
Y462709D01*
X1045488Y458395D02*
Y461657D01*
X1042948Y457343D02*
Y457395D01*
X1051965Y456998D02*
X1053362Y458395D01*
X1016949Y483394D02*
X1042948Y457395D01*
X1044345Y449975D02*
Y455946D01*
X1041805Y448923D02*
Y454894D01*
X1049425Y464126D02*
X1049588Y463963D01*
X1051056D01*
X1035836Y460915D02*
X1040408Y456343D01*
X1051965Y466646D02*
Y472908D01*
X1040408Y456291D02*
X1041805Y454894D01*
X1053362Y458395D02*
Y461657D01*
X1051965Y454438D02*
Y456998D01*
X1046885Y451027D02*
Y456998D01*
X1051056Y463963D02*
X1053362Y461657D01*
X1042948Y457343D02*
X1044345Y455946D01*
X1049425Y464126D02*
Y471856D01*
Y453386D02*
X1088956Y413855D01*
X1051965Y454438D02*
X1085112Y421291D01*
X1090008Y416395D01*
X1503174D01*
X1080667Y404400D02*
X1081372Y403695D01*
X1056537Y415068D02*
X1059331D01*
X1062660Y421501D02*
X1063194Y422036D01*
X1055648Y421291D02*
X1060453D01*
X1058063Y418352D02*
X1058208Y418497D01*
X1060664Y421501D02*
X1062660D01*
X1062613Y417354D02*
X1067459D01*
X1061469Y418497D02*
X1062613Y417354D01*
X1058208Y418497D02*
X1061469D01*
X1051511Y418352D02*
X1058063D01*
X1059331Y415068D02*
X1059839Y414560D01*
X1060453Y421291D02*
X1060664Y421501D01*
X1053743Y425228D02*
X1058823D01*
X1056283Y415322D02*
Y415576D01*
Y415322D02*
X1056537Y415068D01*
X1055521Y421418D02*
X1055648Y421291D01*
X1080413Y404146D02*
X1080667Y404400D01*
X1022120Y456851D02*
X1053743Y425228D01*
X1017929Y448342D02*
X1050695Y415576D01*
X1019834Y454311D02*
X1052727Y421418D01*
X1018981Y450882D02*
X1051511Y418352D01*
X798564Y454311D02*
X1019834D01*
X798401Y450882D02*
X1018981D01*
X799616Y456851D02*
X1022120D01*
X797348Y448342D02*
X1017929D01*
X785591Y483394D02*
X1016949D01*
X817196Y495342D02*
X1033123D01*
X984401Y520126D02*
X988240Y516287D01*
X1008023Y515652D02*
Y520351D01*
X987449Y525304D02*
X1015135D01*
X986687Y526066D02*
X987449Y525304D01*
X984401Y520126D02*
Y520351D01*
X1019707Y520478D02*
Y520732D01*
X988240Y516287D02*
X989354D01*
X1015135Y525304D02*
X1019707Y520732D01*
Y520478D02*
X1140103D01*
X989354Y516287D02*
X989989Y515652D01*
X1007769D01*
X1156613D02*
X1168678Y527717D01*
X1008023Y515652D02*
X1156613D01*
X1168551Y527844D02*
Y649256D01*
X732488Y851053D02*
X744128Y839413D01*
X732488Y851053D02*
Y856987D01*
X735122Y852011D02*
X746668Y840465D01*
X735122Y852011D02*
Y865603D01*
X732582Y857081D02*
Y864551D01*
X732488Y856987D02*
X732582Y857081D01*
X781582Y794945D02*
Y815324D01*
X780838Y816068D02*
X781582Y815324D01*
X780779Y816068D02*
X780838D01*
X777093Y819754D02*
X780779Y816068D01*
X757502Y820965D02*
X766215Y812252D01*
X769569Y734922D02*
X771295Y736648D01*
X766215Y759258D02*
Y812252D01*
X760119Y753162D02*
X766215Y759258D01*
X772184Y733945D02*
X773835Y735596D01*
X760042Y822017D02*
X768755Y813304D01*
X765122Y824339D02*
X773835Y815626D01*
X762582Y823069D02*
X771295Y814356D01*
X767029Y735974D02*
X768755Y737700D01*
X773835Y735596D02*
Y815626D01*
X771295Y736648D02*
Y814356D01*
X768755Y737700D02*
Y813304D01*
X503009Y875637D02*
X506079D01*
X497128Y872447D02*
Y873645D01*
X499434Y875951D02*
X502696D01*
X497128Y873645D02*
X499434Y875951D01*
X502696D02*
X503009Y875637D01*
X437282Y803815D02*
X476854Y843387D01*
X478742D02*
X488212Y852857D01*
X476854Y843387D02*
X478742D01*
X488212Y852857D02*
Y857119D01*
X497128Y862443D02*
Y872447D01*
X505611Y861838D02*
Y871577D01*
X511810Y877776D01*
X542187Y897922D02*
X548283Y891826D01*
X528979Y897922D02*
X542187D01*
X548283Y886746D02*
Y891826D01*
X567502Y876755D02*
Y897499D01*
X528399Y904526D02*
X560475D01*
X567502Y897499D01*
X527129Y907066D02*
X561747D01*
X510111Y890048D02*
X527129Y907066D01*
X561229Y875816D02*
X566563D01*
X567502Y876755D01*
X558443Y867950D02*
Y873030D01*
X556919Y866426D02*
X558443Y867950D01*
X528979Y866426D02*
X556919D01*
X558443Y873030D02*
X561229Y875816D01*
X558951Y878872D02*
Y884460D01*
X553565Y870816D02*
X553744Y870995D01*
Y873665D01*
X558951Y878872D01*
X565660Y870281D02*
X565706Y870236D01*
X563786Y870281D02*
X565660D01*
X565706Y870236D02*
X566825D01*
X526947Y878364D02*
X529399Y880816D01*
X526947Y868458D02*
Y878364D01*
X529399Y880816D02*
X533678D01*
X526947Y868458D02*
X528979Y866426D01*
X490752Y850571D02*
Y856067D01*
X430788Y795941D02*
X436121D01*
X409324Y789205D02*
X414658D01*
X464844Y837343D02*
X480338Y852837D01*
Y857389D01*
X490752Y867803D01*
X436121Y795941D02*
X490752Y850571D01*
Y867803D02*
Y881031D01*
X472718Y855993D02*
Y860545D01*
X473607Y861434D01*
X457224Y840499D02*
X472718Y855993D01*
X473607Y861434D02*
Y1001409D01*
X488212Y857119D02*
X493292Y862199D01*
X478687Y859330D02*
Y999305D01*
X477798Y858441D02*
X478687Y859330D01*
X490752Y856067D02*
X497128Y862443D01*
X476147Y860382D02*
Y1000357D01*
X475258Y859493D02*
X476147Y860382D01*
X462304Y838395D02*
X477798Y853889D01*
Y858441D01*
X459764Y839447D02*
X475258Y854941D01*
Y859493D01*
X476020Y787559D02*
X515009Y826548D01*
X441349Y642870D02*
X476020Y677541D01*
X463066Y774299D02*
X463447Y773918D01*
X463066Y781769D02*
X463447Y782150D01*
Y787671D01*
X468146Y776403D02*
Y779665D01*
X466495Y781606D02*
Y786408D01*
X463066Y774299D02*
Y781769D01*
X466495Y675918D02*
Y774462D01*
X476020Y677541D02*
Y787559D01*
X465606Y775351D02*
Y780717D01*
X469543Y674656D02*
Y775006D01*
Y781062D02*
Y785146D01*
X463447Y677181D02*
Y773918D01*
X465606Y775351D02*
X466495Y774462D01*
X468146Y779665D02*
X469543Y781062D01*
X468146Y776403D02*
X469543Y775006D01*
X465606Y780717D02*
X466495Y781606D01*
X483259Y1010952D02*
X484402Y1012095D01*
X487049Y1007015D02*
X498518D01*
X485073Y1009174D02*
X485616D01*
X484402Y1012095D02*
X500622D01*
X485545Y1006126D02*
X486160D01*
X487049Y1007015D01*
X498518D02*
X499407Y1006126D01*
X485997Y1009555D02*
X499571D01*
X485616Y1009174D02*
X485997Y1009555D01*
X500622Y1012095D02*
X501003Y1011714D01*
X544463D01*
X499952Y1009174D02*
X545515D01*
X499407Y1006126D02*
X578255D01*
X499571Y1009555D02*
X499952Y1009174D01*
X432840Y873665D02*
Y873987D01*
X434237Y875384D01*
Y876140D01*
X427760Y881816D02*
X430828Y884885D01*
X424458Y865283D02*
X432840Y873665D01*
X430300Y878947D02*
X434618Y883265D01*
X427760Y875769D02*
Y881816D01*
X419378Y867387D02*
X427760Y875769D01*
X430300Y874717D02*
Y878947D01*
X421918Y866335D02*
X430300Y874717D01*
X430828Y884885D02*
Y988894D01*
X417071Y862743D02*
X419378Y865049D01*
Y867387D01*
X415786Y860203D02*
X418124D01*
X414734Y862743D02*
X417071D01*
X421918Y863997D02*
Y866335D01*
X418124Y860203D02*
X421918Y863997D01*
X303863Y841788D02*
X393779D01*
X304915Y839248D02*
X394831D01*
X421811Y813848D02*
X455720Y847757D01*
X465606Y857643D02*
X471067Y863104D01*
X463066Y856174D02*
Y858695D01*
X454668Y850297D02*
X457188D01*
X463066Y858695D02*
X468527Y864156D01*
X420759Y816388D02*
X454668Y850297D01*
X457188D02*
X463066Y856174D01*
X455084Y855377D02*
X457986Y858278D01*
X455720Y847757D02*
X458241D01*
X465606Y855122D01*
X452564Y855377D02*
X455084D01*
X457986Y858278D02*
Y860799D01*
X460526Y859747D02*
X465987Y865208D01*
X456137Y852837D02*
X460526Y857226D01*
Y859747D01*
X453616Y852837D02*
X456137D01*
X465606Y855122D02*
Y857643D01*
X457986Y860799D02*
X463447Y866260D01*
X419707Y818928D02*
X453616Y852837D01*
X418655Y821468D02*
X452564Y855377D01*
X428268Y991455D02*
Y991902D01*
Y991455D02*
X430828Y988894D01*
X455935Y1030002D02*
X475639D01*
X479946Y1033066D02*
X482116Y1030897D01*
X484801Y1037143D02*
X484872Y1037214D01*
Y1038749D02*
X485407Y1039284D01*
X491503Y1026490D02*
Y1045380D01*
X475639Y1030002D02*
X475882Y1029759D01*
X484872Y1037214D02*
Y1038749D01*
X482116Y1024287D02*
Y1030897D01*
X479946Y1033066D02*
Y1033823D01*
X484801Y1023380D02*
Y1037143D01*
X468527Y1003514D02*
X491503Y1026490D01*
X465987Y1004566D02*
X484801Y1023380D01*
X463447Y1005618D02*
X482116Y1024287D01*
X434237Y1008303D02*
X455935Y1030002D01*
X424171Y884859D02*
X425601Y886289D01*
Y887000D01*
X424171Y882663D02*
Y884859D01*
X388376Y846868D02*
X424171Y882663D01*
X415441Y867442D02*
X415441D01*
X414517D02*
X415441D01*
Y868365D01*
X392727Y844328D02*
X403586Y855187D01*
Y856510D01*
X414517Y867442D01*
X414979Y867904D02*
X415441Y867442D01*
X301758Y846868D02*
X388376D01*
X416838Y857663D02*
X419176D01*
X395883Y836708D02*
X416838Y857663D01*
X424458Y862945D02*
Y865283D01*
X394831Y839248D02*
X415786Y860203D01*
X393779Y841788D02*
X414734Y862743D01*
X419176Y857663D02*
X424458Y862945D01*
X499364Y882931D02*
X502265Y885833D01*
X509270Y885397D02*
X528399Y904526D01*
X519430Y876943D02*
X528725Y886238D01*
X516279Y871469D02*
X519430Y874620D01*
X499364Y881769D02*
Y882931D01*
X513485Y862528D02*
Y872267D01*
X516890Y879991D02*
X532027Y895128D01*
X509270Y878828D02*
Y885397D01*
X514350Y876724D02*
Y883293D01*
X509675Y862310D02*
Y872049D01*
X506079Y875637D02*
X509270Y878828D01*
X493292Y875697D02*
X499364Y881769D01*
X514350Y883293D02*
X528979Y897922D01*
X511810Y884345D02*
X528181Y900716D01*
X516890Y875672D02*
Y879991D01*
X516279Y861730D02*
Y871469D01*
X511810Y877776D02*
Y884345D01*
X513485Y872267D02*
X516890Y875672D01*
X528181Y900716D02*
X560221D01*
X509675Y872049D02*
X514350Y876724D01*
X502265Y885833D02*
X503428D01*
X519430Y874620D02*
Y876943D01*
X503428Y885833D02*
X507643Y890048D01*
X463447Y866260D02*
Y1005618D01*
X344358Y821468D02*
X418655D01*
X1584468Y711506D02*
X1612472Y739510D01*
X1085822Y1005237D02*
X1092240D01*
X1086874Y1007777D02*
X1091188D01*
X1084770Y1002697D02*
X1093292D01*
X1081613Y995077D02*
X1096448D01*
X1036576Y1010571D02*
X1038989Y1012984D01*
X1083718Y1000157D02*
X1094344D01*
X1082666Y997617D02*
X1095396D01*
X1080561Y992537D02*
X1097500D01*
X1079509Y989997D02*
X1098552D01*
X1071393Y999014D02*
X1081269D01*
X1085477Y1009174D02*
X1086874Y1007777D01*
X1070341Y1001554D02*
X1082321D01*
X1084425Y1006634D02*
X1085822Y1005237D01*
X1083373Y1004094D02*
X1084770Y1002697D01*
X1099350Y990251D02*
X1100493Y991394D01*
X1059859Y1012984D02*
X1063034Y1016159D01*
X1097754Y992791D02*
X1098298D01*
X1096702Y995331D02*
X1097246D01*
X1092494Y1005491D02*
X1093038D01*
X1095142Y1000411D02*
X1096285Y1001554D01*
X1097500Y992537D02*
X1097754Y992791D01*
X1098552Y989997D02*
X1098806Y990251D01*
X1063034Y1016159D02*
X1082084D01*
X1087672Y1010571D02*
X1090934D01*
X1082084Y1016159D02*
X1087672Y1010571D01*
X1213968Y1012222D02*
X1226564Y999625D01*
X1090934Y1010571D02*
X1092585Y1012222D01*
X1094344Y1000157D02*
X1094598Y1000411D01*
X1080217Y996474D02*
X1081613Y995077D01*
X1097246Y995331D02*
X1098389Y996474D01*
X1100493Y991394D02*
X1103292D01*
X1093637Y1009682D02*
X1148781D01*
X1091986Y1008031D02*
X1093637Y1009682D01*
X1092240Y1005237D02*
X1092494Y1005491D01*
X1094090Y1002951D02*
X1095614Y1004475D01*
X1099441Y993934D02*
X1104344D01*
X1095396Y997617D02*
X1095650Y997871D01*
X1093546Y1002951D02*
X1094090D01*
X1096285Y1001554D02*
X1107501D01*
X1079164Y993934D02*
X1080561Y992537D01*
X1068237Y1006634D02*
X1084425D01*
X1078112Y991394D02*
X1079509Y989997D01*
X1096194Y997871D02*
X1097337Y999014D01*
X1091188Y1007777D02*
X1091441Y1008031D01*
X1082321Y1001554D02*
X1083718Y1000157D01*
X1073497Y993934D02*
X1079164D01*
X1081269Y999014D02*
X1082666Y997617D01*
X1093038Y1005491D02*
X1094689Y1007142D01*
X1095650Y997871D02*
X1096194D01*
X1094598Y1000411D02*
X1095142D01*
X1069289Y1004094D02*
X1083373D01*
X1098806Y990251D02*
X1099350D01*
X1074549Y991394D02*
X1078112D01*
X1098298Y992791D02*
X1099441Y993934D01*
X1093292Y1002697D02*
X1093546Y1002951D01*
X1097337Y999014D02*
X1106449D01*
X1091441Y1008031D02*
X1091986D01*
X1095614Y1004475D02*
X1134113D01*
X1096448Y995077D02*
X1096702Y995331D01*
X1098389Y996474D02*
X1105396D01*
X1072445D02*
X1080217D01*
X1067185Y1009174D02*
X1085477D01*
X1092585Y1012222D02*
X1147729D01*
X1038989Y1012984D02*
X1059859D01*
X1094689Y1007142D02*
X1149833D01*
X1105396Y996474D02*
X1112128Y989743D01*
X1114232Y994823D02*
X1162364D01*
X1104344Y993934D02*
X1111076Y987203D01*
X1106449Y999014D02*
X1113180Y992283D01*
X1111076Y987203D02*
X1167958D01*
X1166906Y989743D02*
X1173155Y995992D01*
X1112128Y989743D02*
X1166906D01*
X1167958Y987203D02*
X1171895Y991140D01*
X1113180Y992283D02*
X1163416D01*
X1162364Y994823D02*
X1169476Y1001935D01*
X1107501Y1001554D02*
X1114232Y994823D01*
X1163416Y992283D02*
X1170528Y999395D01*
X1069452Y1000665D02*
X1070341Y1001554D01*
X1043143Y995585D02*
X1071556D01*
X1042091Y998125D02*
X1070504D01*
X1045247Y990505D02*
X1073660D01*
X1066295Y1008285D02*
X1067185Y1009174D01*
X1068400Y1003205D02*
X1069289Y1004094D01*
X1072608Y993045D02*
X1073497Y993934D01*
X1039986Y1003205D02*
X1068400D01*
X1073660Y990505D02*
X1074549Y991394D01*
X1044195Y993045D02*
X1072608D01*
X1038934Y1005745D02*
X1067348D01*
X1068237Y1006634D01*
X1070504Y998125D02*
X1071393Y999014D01*
X1071556Y995585D02*
X1072445Y996474D01*
X1037882Y1008285D02*
X1066295D01*
X1041039Y1000665D02*
X1069452D01*
X924711Y1020604D02*
X925473Y1019842D01*
X923441Y1020604D02*
X924711D01*
X856385Y1087660D02*
X923441Y1020604D01*
X851811Y1087660D02*
X856385D01*
X847603Y1077500D02*
X849672D01*
X818077Y1081300D02*
X843802D01*
X849672Y1077500D02*
X935144Y992029D01*
X848655Y1080040D02*
X850725D01*
X936196Y994569D01*
X843802Y1081300D02*
X847603Y1077500D01*
X849707Y1082580D02*
X851777D01*
X937248Y997109D01*
X845907Y1086380D02*
X849707Y1082580D01*
X844953Y1094518D02*
X851811Y1087660D01*
X846959Y1088920D02*
X850759Y1085120D01*
X821233Y1088920D02*
X846959D01*
X844855Y1083840D02*
X848655Y1080040D01*
X850759Y1085120D02*
X852829D01*
X820181Y1086380D02*
X845907D01*
X819129Y1083840D02*
X844855D01*
X852829Y1085120D02*
X932077Y1005872D01*
X937248Y997109D02*
X956734D01*
X936196Y994569D02*
X957786D01*
X935144Y992029D02*
X958839D01*
X932077Y1005872D02*
X951488D01*
X949095Y967518D02*
Y976281D01*
X948968Y976408D02*
X949095Y976281D01*
X959509Y961930D02*
X982623D01*
X952905Y968534D02*
X959509Y961930D01*
X952905Y968534D02*
Y982014D01*
X952161Y982758D02*
X952905Y982014D01*
X947825Y982758D02*
X952161D01*
X1164360Y826347D02*
X1164413Y826294D01*
X1199793D01*
X1134113Y1004475D02*
X1138998Y999591D01*
X1163540D01*
X1164692Y980345D02*
X1172947Y988600D01*
X1103292Y991394D02*
X1114341Y980345D01*
X1164692D01*
X855954Y695869D02*
X1075253D01*
X857006Y693329D02*
X1074201D01*
X752499Y687610D02*
X844102D01*
X755801Y690150D02*
X843050D01*
X854901Y698409D02*
X1076741D01*
X846206Y682530D02*
X857006Y693329D01*
X844102Y687610D02*
X854901Y698409D01*
X742593Y682530D02*
X846206D01*
X843050Y690150D02*
X853849Y700949D01*
X845154Y685070D02*
X855954Y695869D01*
X853849Y700949D02*
X1080551D01*
X744117Y685070D02*
X845154D01*
X733556Y738791D02*
X735862Y741097D01*
X730926Y738791D02*
X733556D01*
X728005Y735870D02*
X730926Y738791D01*
X735862Y741097D02*
Y743726D01*
X713637Y752774D02*
Y759984D01*
X627912Y695885D02*
Y697623D01*
X627150Y695123D02*
X627912Y695885D01*
X615847Y481362D02*
X621064Y486580D01*
X627912Y697623D02*
X628547Y698258D01*
X627150Y675398D02*
Y695123D01*
X620038Y695885D02*
X621064Y694858D01*
X617498Y694833D02*
X618525Y693806D01*
X621064Y486580D02*
Y694858D01*
X618525Y490644D02*
Y693806D01*
X1130685Y529769D02*
X1150771Y549855D01*
Y644938D01*
X1135741Y530384D02*
X1154327D01*
X1156482Y532539D02*
Y542828D01*
X1154327Y530384D02*
X1156482Y532539D01*
X1132586Y527229D02*
X1135741Y530384D01*
X1155744Y519609D02*
X1166011Y529876D01*
X1142024Y522149D02*
X1152696D01*
X1159022Y528475D01*
X1140972Y519609D02*
X1155744D01*
X1159022Y528475D02*
Y543881D01*
X1166011Y529876D02*
Y646716D01*
X931823Y567976D02*
X931950Y568103D01*
Y580803D01*
X931823Y580930D02*
X931950Y580803D01*
X931823Y567976D02*
X932077Y567722D01*
X753352Y720630D02*
X766469Y733747D01*
Y735287D01*
X754404Y718090D02*
X769009Y732695D01*
X771549Y733183D02*
X772184Y733818D01*
X771549Y731643D02*
Y733183D01*
X766469Y735287D02*
X767029Y735847D01*
Y735974D01*
X759155Y739120D02*
X760238Y740203D01*
X759155Y733636D02*
Y739120D01*
X755456Y715550D02*
X771549Y731643D01*
X769569Y734795D02*
Y734922D01*
X769009Y732695D02*
Y734235D01*
X753388Y727869D02*
X759155Y733636D01*
X772184Y733818D02*
Y733945D01*
X769009Y734235D02*
X769569Y734795D01*
X765687Y710089D02*
X767395D01*
X782598Y725291D02*
Y793929D01*
X767395Y710089D02*
X782598Y725291D01*
X1211640Y883533D02*
X1215815Y879358D01*
X1216867Y881898D02*
X1229888D01*
X1212692Y886073D02*
X1216867Y881898D01*
X1229888D02*
X1253878Y905889D01*
X1215815Y879358D02*
X1219045D01*
X1222071Y876332D01*
X980357Y886073D02*
X1212692D01*
X1098527Y883533D02*
X1211640D01*
X1222071Y876332D02*
X1227913D01*
X1166392Y878457D02*
X1196906D01*
X1144896Y1020165D02*
X1165790D01*
X1093836Y1023779D02*
X1097773Y1019842D01*
X1098825Y1022382D02*
X1143521D01*
X1143844Y1022705D01*
X1096721Y1017302D02*
X1145625D01*
X1092784Y1021239D02*
X1096721Y1017302D01*
X1145948Y1017625D02*
X1164738D01*
X1161582Y1010005D02*
X1161904Y1009682D01*
X1148052Y1012545D02*
X1162634D01*
X1149833Y1007142D02*
X1150156Y1007465D01*
X1147000Y1015085D02*
X1163686D01*
X1162634Y1012545D02*
X1162956Y1012222D01*
X1097773Y1019842D02*
X1144573D01*
X1163686Y1015085D02*
X1164009Y1014762D01*
X1143844Y1022705D02*
X1166842D01*
X1144573Y1019842D02*
X1144896Y1020165D01*
X1164738Y1017625D02*
X1165061Y1017302D01*
X1166842Y1022705D02*
X1167165Y1022382D01*
X1165790Y1020165D02*
X1166113Y1019842D01*
X1147729Y1012222D02*
X1148052Y1012545D01*
X1094888Y1026319D02*
X1098825Y1022382D01*
X1160529Y1007465D02*
X1160852Y1007142D01*
X1150156Y1007465D02*
X1160529D01*
X1146677Y1014762D02*
X1147000Y1015085D01*
X1148781Y1009682D02*
X1149104Y1010005D01*
X1145625Y1017302D02*
X1145948Y1017625D01*
X1149104Y1010005D02*
X1161582D01*
X1095669Y1014762D02*
X1146677D01*
X1091732Y1018699D02*
X1095669Y1014762D01*
X1005776Y1035463D02*
X1019480D01*
X1018428Y1038003D02*
X1019910Y1039485D01*
X1004724Y1038003D02*
X1018428D01*
X1019480Y1035463D02*
X1020962Y1036945D01*
X1034781Y1023144D02*
X1055651D01*
X1054599Y1025684D02*
X1057774Y1028859D01*
X1032677Y1028224D02*
X1053547D01*
X1031316Y1023271D02*
X1033729Y1025684D01*
X1032368Y1020731D02*
X1034781Y1023144D01*
X1053547Y1028224D02*
X1056721Y1031399D01*
X1056703Y1020604D02*
X1059878Y1023779D01*
X1033420Y1018191D02*
X1035833Y1020604D01*
X1030264Y1025811D02*
X1032677Y1028224D01*
X1057755Y1018064D02*
X1060930Y1021239D01*
X1035524Y1013111D02*
X1037937Y1015524D01*
X1058807D01*
X1033729Y1025684D02*
X1054599D01*
X1034472Y1015651D02*
X1036885Y1018064D01*
X1035833Y1020604D02*
X1056703D01*
X1058807Y1015524D02*
X1061982Y1018699D01*
X1055651Y1023144D02*
X1058826Y1026319D01*
X1036885Y1018064D02*
X1057755D01*
X1058826Y1026319D02*
X1094888D01*
X1061982Y1018699D02*
X1091732D01*
X1059878Y1023779D02*
X1093836D01*
X1056721Y1031399D02*
X1096992D01*
X1095940Y1028859D02*
X1099554Y1025245D01*
X1057774Y1028859D02*
X1095940D01*
X1096992Y1031399D02*
X1100606Y1027785D01*
X1060930Y1021239D02*
X1092784D01*
X1171895Y991140D02*
X1179199D01*
X1172947Y988600D02*
X1180251D01*
X1215043Y841544D02*
Y844506D01*
X1215076Y844539D01*
X1199793Y826294D02*
X1215043Y841544D01*
X1163540Y999591D02*
X1168424Y1004475D01*
X1180251Y988600D02*
X1183021Y991370D01*
X1179199Y991140D02*
X1181992Y993934D01*
X1168424Y1004475D02*
X1208066D01*
X1234155Y893350D02*
X1248798Y907993D01*
X1253878Y905889D02*
Y906811D01*
X1233103Y895890D02*
X1246258Y909045D01*
X1248798Y907993D02*
Y908915D01*
X1235207Y890810D02*
X1251338Y906941D01*
X1248798Y908915D02*
X1257490Y917607D01*
X1243718Y910097D02*
Y911019D01*
X1253878Y906811D02*
X1259594Y912527D01*
X1243718Y911019D02*
X1255386Y922687D01*
X1251338Y906941D02*
Y907863D01*
X1227913Y876332D02*
X1256418Y904837D01*
X1246258Y909967D02*
X1256438Y920147D01*
X1256418Y904837D02*
Y905759D01*
X1246258Y909045D02*
Y909967D01*
X1251338Y907863D02*
X1258542Y915067D01*
X1232051Y898430D02*
X1243718Y910097D01*
X1256418Y905759D02*
X1260646Y909987D01*
X1052494Y1030764D02*
X1055669Y1033939D01*
X991428Y1003671D02*
X1014709D01*
X994455Y1006211D02*
X1015761D01*
X1212916Y1009682D02*
X1222018Y1000580D01*
X999716Y1018911D02*
X1021022D01*
X993688Y1010571D02*
X995508Y1008751D01*
X1016813D02*
X1017533Y1008031D01*
X1013246Y1030383D02*
X1019638Y1023991D01*
X996560Y1011291D02*
X1017865D01*
X1012194Y1027843D02*
X1018586Y1021451D01*
X1022074D01*
X995792Y1015651D02*
X997612Y1013831D01*
X1019638Y1023991D02*
X1023126D01*
X996844Y1018191D02*
X998664Y1016371D01*
X1023126Y1023991D02*
X1023846Y1023271D01*
X1017865Y1011291D02*
X1018585Y1010571D01*
X1014298Y1032923D02*
X1020690Y1026531D01*
X997896Y1020731D02*
X999716Y1018911D01*
X991005Y1004094D02*
X991428Y1003671D01*
X1018917Y1013831D02*
X1019638Y1013111D01*
X1015761Y1006211D02*
X1016481Y1005491D01*
X1021022Y1018911D02*
X1021742Y1018191D01*
X1020690Y1026531D02*
X1024178D01*
X1014709Y1003671D02*
X1015429Y1002951D01*
X1022074Y1021451D02*
X1022794Y1020731D01*
X998664Y1016371D02*
X1019969D01*
X994740Y1013111D02*
X996560Y1011291D01*
X992635Y1008031D02*
X994455Y1006211D01*
X1024178Y1026531D02*
X1024898Y1025811D01*
X1211202Y1007142D02*
X1217065Y1001280D01*
X997612Y1013831D02*
X1018917D01*
X1019969Y1016371D02*
X1020690Y1015651D01*
X995508Y1008751D02*
X1016813D01*
X1023846Y1023271D02*
X1031316D01*
X1017533Y1008031D02*
X1037628D01*
X1020690Y1015651D02*
X1034472D01*
X1021742Y1018191D02*
X1033420D01*
X1018585Y1010571D02*
X1036576D01*
X1024898Y1025811D02*
X1030264D01*
X1022794Y1020731D02*
X1032368D01*
X1016481Y1005491D02*
X1038680D01*
X1019638Y1013111D02*
X1035524D01*
X1015429Y1002951D02*
X1039733D01*
X1039986Y1003205D01*
X1051442Y1033304D02*
X1054617Y1036479D01*
X988322Y997617D02*
X1041583D01*
X1038680Y1005491D02*
X1038934Y1005745D01*
X1044739Y989997D02*
X1045247Y990505D01*
X1040531Y1000157D02*
X1041039Y1000665D01*
X1037628Y1008031D02*
X1037882Y1008285D01*
X986218Y992537D02*
X1043687D01*
X1044195Y993045D01*
X1042635Y995077D02*
X1043143Y995585D01*
X1041583Y997617D02*
X1042091Y998125D01*
X985166Y989997D02*
X1044739D01*
X987270Y995077D02*
X1042635D01*
X989374Y1000157D02*
X1040531D01*
X1098044Y1033939D02*
X1101658Y1030325D01*
X1169998D01*
X1099554Y1025245D02*
X1167894D01*
X1055669Y1033939D02*
X1098044D01*
X1054617Y1036479D02*
X1099096D01*
X1100606Y1027785D02*
X1168946D01*
X984929Y1004602D02*
X989374Y1000157D01*
X983877Y1002062D02*
X988322Y997617D01*
X982825Y999522D02*
X987270Y995077D01*
X980721Y994442D02*
X985166Y989997D01*
X981773Y996982D02*
X986218Y992537D01*
X961995Y1019715D02*
X966059Y1015651D01*
X960943Y1017175D02*
X965007Y1013111D01*
X951254Y1031145D02*
X955064Y1027335D01*
X952306Y1033685D02*
X956116Y1029875D01*
X953358Y1036225D02*
X957168Y1032415D01*
X1004360Y1023271D02*
X1008932Y1027843D01*
X970267Y1025811D02*
X1003308D01*
X1007880Y1030383D01*
X971319Y1028351D02*
X1002256D01*
X969215Y1023271D02*
X1004360D01*
X1006828Y1032923D02*
X1014298D01*
X1002256Y1028351D02*
X1006828Y1032923D01*
X1000152Y1033431D02*
X1004724Y1038003D01*
X973423Y1033431D02*
X1000152D01*
X1007880Y1030383D02*
X1013246D01*
X1001204Y1030891D02*
X1005776Y1035463D01*
X1008932Y1027843D02*
X1012194D01*
X972371Y1030891D02*
X1001204D01*
X1235718Y872043D02*
X1241084D01*
X1236770Y869503D02*
X1240032D01*
X1235979Y868712D02*
X1236770Y869503D01*
X1204111Y871252D02*
X1234927D01*
X1235718Y872043D01*
X990261Y707422D02*
X991005Y706678D01*
Y706660D02*
Y706678D01*
X987738Y707422D02*
X990261D01*
X903783Y791377D02*
X987738Y707422D01*
X903783Y791377D02*
Y795151D01*
X888389Y810546D02*
X903783Y795151D01*
X849781Y810546D02*
X888389D01*
X832742Y813086D02*
X847241D01*
X809054Y809799D02*
X829455D01*
X832742Y813086D01*
X847241D02*
X849781Y810546D01*
X801311Y817541D02*
X809054Y809799D01*
X790291Y820536D02*
X793286Y817541D01*
X801311D01*
X790291Y820536D02*
Y821013D01*
X782544Y828760D02*
X790291Y821013D01*
X774389Y828760D02*
X782544D01*
X768501Y834649D02*
X774389Y828760D01*
X768501Y834649D02*
Y873776D01*
X769263Y874538D01*
Y883499D01*
X767502Y885260D02*
X769263Y883499D01*
X771041Y872724D02*
X776375Y878058D01*
X771041Y851404D02*
Y872724D01*
X778661Y865233D02*
Y869568D01*
X776121Y853508D02*
Y870620D01*
X773581Y871672D02*
X779454Y877545D01*
X778661Y869568D02*
X785051Y875958D01*
X773581Y852456D02*
Y871672D01*
X776121Y870620D02*
X782511Y877010D01*
X776121Y853508D02*
X777772Y851857D01*
X771041Y851404D02*
X772692Y849753D01*
X778661Y865233D02*
X778984Y864910D01*
X773581Y852456D02*
X775232Y850805D01*
X778984Y859912D02*
Y864910D01*
X779454Y877545D02*
Y879623D01*
X776375Y878058D02*
Y879110D01*
X782511Y877010D02*
Y888214D01*
X772097Y883388D02*
X776375Y879110D01*
X785051Y875958D02*
Y889266D01*
X763854Y873463D02*
X766723Y876332D01*
Y882447D01*
X763854Y870818D02*
Y873463D01*
X772097Y883388D02*
Y888753D01*
X774637Y884440D02*
X779454Y879623D01*
X774637Y884440D02*
Y887701D01*
X778984Y859912D02*
X781906Y856990D01*
X787591Y862440D02*
Y890516D01*
Y862440D02*
X788440Y861591D01*
X772565Y889221D02*
Y890976D01*
X772097Y888753D02*
X772565Y889221D01*
X774637Y887701D02*
X775105Y888169D01*
Y892028D01*
X769136Y897997D02*
X775105Y892028D01*
X766596Y896945D02*
X772565Y890976D01*
X775232Y849519D02*
X779026Y845725D01*
X771803Y898922D02*
X782511Y888214D01*
X782090Y896017D02*
X787591Y890516D01*
X774851Y899466D02*
X785051Y889266D01*
X782090Y896017D02*
Y941483D01*
X718463Y899954D02*
Y911486D01*
X767502Y885260D02*
Y892447D01*
X753207Y906741D02*
X767502Y892447D01*
X715195Y914753D02*
X718463Y911486D01*
X706743Y918242D02*
X710232Y914753D01*
X707541Y921036D02*
X711284Y917293D01*
X710232Y914753D02*
X715195D01*
X711284Y917293D02*
X741520D01*
X706139Y918242D02*
X706743D01*
X698679Y915702D02*
X705691D01*
X766596Y896945D02*
Y918643D01*
X769136Y897997D02*
Y917591D01*
X708811Y903256D02*
Y912582D01*
X741520Y917293D02*
X752072Y906741D01*
X753207D01*
X705691Y915702D02*
X708811Y912582D01*
X771803Y898922D02*
Y902986D01*
X774851Y899466D02*
Y903530D01*
X707541Y921036D02*
Y922408D01*
X693926Y936022D02*
X707541Y922408D01*
X663203Y936022D02*
X693926D01*
X658291Y931109D02*
X663203Y936022D01*
X654648Y926331D02*
X658291Y929974D01*
X627997Y920816D02*
X633512Y926331D01*
X654648D01*
X623565Y920816D02*
X627997D01*
X658291Y929974D02*
Y931109D01*
X1223665Y491796D02*
Y510846D01*
X1200805Y533706D02*
X1223665Y510846D01*
X1212769Y529418D02*
Y530615D01*
X1249065Y491796D02*
Y493123D01*
X1212769Y529418D02*
X1249065Y493123D01*
X1212239Y531146D02*
X1212769Y530615D01*
X1162963Y627853D02*
Y646172D01*
X1155851Y620741D02*
X1162963Y627853D01*
X1087362Y721773D02*
X1162963Y646172D01*
X1063091Y721773D02*
X1087362D01*
X981734Y790933D02*
X1031463Y741204D01*
X981734Y790933D02*
Y795159D01*
X965318Y811574D02*
X981734Y795159D01*
X984274Y793961D02*
X1034491Y743744D01*
X966588Y814115D02*
X984274Y796429D01*
Y793961D02*
Y796429D01*
X1031463Y741204D02*
X1047024D01*
X971558Y889667D02*
X976924D01*
X978067Y890810D02*
X1235207D01*
X975872Y892207D02*
X977014Y893350D01*
X972610Y892207D02*
X975872D01*
X966985Y893350D02*
X971467D01*
X975231Y900081D02*
X975872D01*
X978178Y897134D02*
X978914Y896398D01*
X975872Y900081D02*
X978178Y897775D01*
X977014Y893350D02*
X1234155D01*
X970415Y890810D02*
X971558Y889667D01*
X978178Y897134D02*
Y897775D01*
X971467Y893350D02*
X972610Y892207D01*
X953895Y921417D02*
X975231Y900081D01*
X965933Y890810D02*
X970415D01*
X976924Y889667D02*
X978067Y890810D01*
X979829Y885545D02*
X980357Y886073D01*
X964206Y902765D02*
Y905414D01*
X963672Y902231D02*
X964206Y902765D01*
X964325Y905533D02*
Y907395D01*
X964206Y905414D02*
X964325Y905533D01*
X952843Y918877D02*
X964325Y907395D01*
X781906Y856990D02*
X783339D01*
X785646Y854684D01*
Y854266D02*
Y854684D01*
Y854266D02*
X787899Y852014D01*
X779042Y793893D02*
X780058Y792877D01*
Y729540D02*
Y792877D01*
X778407Y795778D02*
X779042Y795143D01*
X781582Y794945D02*
X782598Y793929D01*
X779042Y793893D02*
Y795143D01*
X787899Y845322D02*
Y852014D01*
X778280Y799227D02*
X778407Y799100D01*
Y795778D02*
Y799100D01*
X778280Y799227D02*
Y804593D01*
X778407Y804720D01*
Y814848D01*
X832148Y988981D02*
X835409D01*
X837331Y987059D02*
X848708D01*
X848420Y991521D02*
X936268Y903673D01*
X794699Y987059D02*
X830226D01*
X835409Y988981D02*
X837331Y987059D01*
X792393Y988346D02*
X795568Y991521D01*
X830226Y987059D02*
X832148Y988981D01*
X795568Y991521D02*
X848420D01*
X790374Y979185D02*
X791324Y978235D01*
X799031D02*
X799715Y977551D01*
X829608D01*
X830878Y978821D01*
X791324Y978235D02*
X799031D01*
X830878Y978821D02*
X852194D01*
X752774Y979185D02*
X790374D01*
X750468Y976879D02*
X752774Y979185D01*
X852194Y978821D02*
X931569Y899446D01*
X839262Y1054239D02*
X841013D01*
X842644Y1052608D02*
X847495D01*
X839961Y1051699D02*
X842354Y1049306D01*
X845609D01*
X838738Y1054762D02*
X839262Y1054239D01*
X838210Y1051699D02*
X839961D01*
X837686Y1052222D02*
X838210Y1051699D01*
X841013Y1054239D02*
X842644Y1052608D01*
X824401Y1044988D02*
X830370Y1039019D01*
X813208Y1032669D02*
X813625Y1033086D01*
X830370Y1039019D02*
X852303D01*
X813625Y1033086D02*
X851052D01*
X819936Y1036225D02*
X851505D01*
X773698Y1034753D02*
X775782Y1032669D01*
X813208D01*
X852303Y1039019D02*
X952379Y938943D01*
X823242Y1052222D02*
X837686D01*
X810175Y1045986D02*
X819936Y1036225D01*
X833112Y1054762D02*
X838738D01*
X819773Y1068102D02*
X833112Y1054762D01*
X851505Y1036225D02*
X866619Y1021111D01*
X831219Y1067848D02*
X837970Y1061097D01*
X824345Y1067848D02*
X831219D01*
X832271Y1070388D02*
X842685Y1059974D01*
X754989Y1078262D02*
X813931D01*
X825397Y1070388D02*
X832271D01*
X842685Y1059974D02*
X843431D01*
X837970Y1059123D02*
Y1061097D01*
Y1059123D02*
X840167Y1056926D01*
X813931Y1078262D02*
X824345Y1067848D01*
X814983Y1080802D02*
X825397Y1070388D01*
X843939Y1059466D02*
X852865D01*
X840167Y1056926D02*
X851813D01*
X843431Y1059974D02*
X843939Y1059466D01*
X864555Y1004856D02*
X870456D01*
X978914Y896398D02*
X980345D01*
X948313Y921417D02*
X953895D01*
X945412Y924318D02*
Y929900D01*
X980754Y896330D02*
X980756Y896330D01*
X957858Y926280D02*
X967801Y916337D01*
X949223Y931323D02*
X952416D01*
X962938Y928384D02*
X984764Y906558D01*
X866248Y994696D02*
X935252Y925692D01*
X960398Y927332D02*
X968853Y918877D01*
X873150Y1007396D02*
X949223Y931323D01*
X937792Y921162D02*
X945157Y913797D01*
X955318Y925228D02*
X981360Y899185D01*
X940332Y922214D02*
X946209Y916337D01*
X870456Y1004856D02*
X945412Y929900D01*
X965478Y929436D02*
X973932Y920982D01*
X946209Y916337D02*
X951791D01*
X954520Y936403D02*
X960398Y930526D01*
X955573Y938943D02*
X962938Y931578D01*
X950739Y913797D02*
X955212Y909324D01*
X868352Y999776D02*
X940332Y927796D01*
X950275Y933863D02*
X953468D01*
X864079Y1020059D02*
X950275Y933863D01*
X980756Y896330D02*
X982043Y895890D01*
X942872Y923266D02*
Y928848D01*
X952416Y931323D02*
X955318Y928421D01*
X957858Y926280D02*
Y929473D01*
X937792Y921162D02*
Y926744D01*
X947261Y918877D02*
X952843D01*
X951791Y916337D02*
X957752Y910376D01*
X867300Y997236D02*
X937792Y926744D01*
X962938Y928384D02*
Y931578D01*
X935252Y920110D02*
X944105Y911257D01*
X949687D01*
X953468Y933863D02*
X957858Y929473D01*
X955318Y925228D02*
Y928421D01*
X942872Y923266D02*
X947261Y918877D01*
X866619Y1021111D02*
X951327Y936403D01*
X956625Y941483D02*
X965478Y932630D01*
X949687Y911257D02*
X952672Y908272D01*
X935252Y920110D02*
Y925692D01*
X960398Y927332D02*
Y930526D01*
X945157Y913797D02*
X950739D01*
X845609Y1049306D02*
X953431Y941483D01*
X952379Y938943D02*
X955573D01*
X965478Y929436D02*
Y932630D01*
X945412Y924318D02*
X948313Y921417D01*
X951327Y936403D02*
X954520D01*
X940332Y922214D02*
Y927796D01*
X869404Y1002316D02*
X942872Y928848D01*
X953431Y941483D02*
X956625D01*
X847313Y1149817D02*
X948460Y1048671D01*
X949984Y1041666D02*
Y1043337D01*
X867633Y1121950D02*
X947444Y1042139D01*
X848384Y1144937D02*
X949984Y1043337D01*
X948460Y1048671D02*
X956988D01*
X865529Y1116870D02*
X942364Y1040035D01*
X849527Y1156240D02*
X954556Y1051211D01*
Y1038765D02*
X958366Y1034955D01*
X947444Y1040614D02*
X951833Y1036225D01*
X952885Y1038765D02*
X954556D01*
X942364Y1038510D02*
Y1040035D01*
X866581Y1119410D02*
X944904Y1041087D01*
X949984Y1041666D02*
X952885Y1038765D01*
X951833Y1036225D02*
X953358D01*
X944904Y1039562D02*
X950781Y1033685D01*
X717193Y1149817D02*
X847313D01*
X947444Y1040614D02*
Y1042139D01*
X964680Y1037495D02*
X969360D01*
X944904Y1039562D02*
Y1041087D01*
X958366Y1034955D02*
X968307D01*
X949729Y1031145D02*
X951254D01*
X942364Y1038510D02*
X949729Y1031145D01*
X950781Y1033685D02*
X952306D01*
X950436Y1008412D02*
X951579Y1009555D01*
X956734Y997109D02*
X959147Y999522D01*
X982825D01*
X951488Y1005872D02*
X952631Y1007015D01*
X947372Y1017175D02*
X960943D01*
X969360Y1037495D02*
X973423Y1033431D01*
X968307Y1034955D02*
X972371Y1030891D01*
X957168Y1032415D02*
X967255D01*
X956116Y1029875D02*
X966203D01*
X948332Y1013492D02*
X949475Y1014635D01*
X963955Y1010571D02*
X993688D01*
X967255Y1032415D02*
X971319Y1028351D01*
X952631Y1007015D02*
X956734D01*
X947462Y1013492D02*
X948332D01*
X962176Y1004657D02*
X962231Y1004602D01*
X965007Y1013111D02*
X994740D01*
X966203Y1029875D02*
X970267Y1025811D01*
X949384Y1010952D02*
X950527Y1012095D01*
X967111Y1018191D02*
X996844D01*
X867571Y1104160D02*
X949476Y1022255D01*
X965151Y1027335D02*
X969215Y1023271D01*
X961252Y994442D02*
X980721D01*
X957786Y994569D02*
X960200Y996982D01*
X946410Y1010952D02*
X949384D01*
X962903Y1008031D02*
X992635D01*
X865466Y1099080D02*
X947372Y1017175D01*
X949475Y1014635D02*
X959891D01*
X950528Y1024795D02*
X964099D01*
X959636Y1003605D02*
Y1004113D01*
X949476Y1022255D02*
X963047D01*
X968163Y1020731D02*
X997896D01*
X861257Y1114066D02*
X950528Y1024795D01*
X951579Y1009555D02*
X957786D01*
X956734Y1007015D02*
X959636Y1004113D01*
Y1003605D02*
X961179Y1002062D01*
X945358Y1008412D02*
X950436D01*
X966059Y1015651D02*
X995792D01*
X962176Y1004657D02*
Y1005165D01*
X959890Y1042285D02*
X964680Y1037495D01*
X950527Y1012095D02*
X958839D01*
X854759Y1099080D02*
X865466D01*
X955064Y1027335D02*
X965151D01*
X958839Y992029D02*
X961252Y994442D01*
X958839Y1012095D02*
X962903Y1008031D01*
X948424Y1019715D02*
X961995D01*
X964099Y1024795D02*
X968163Y1020731D01*
X960200Y996982D02*
X981773D01*
X959891Y1014635D02*
X963955Y1010571D01*
X957786Y1009555D02*
X962176Y1005165D01*
X866518Y1101620D02*
X948424Y1019715D01*
X963047Y1022255D02*
X967111Y1018191D01*
X962430Y1043337D02*
Y1046822D01*
X959890Y1042285D02*
Y1045769D01*
X954556Y1051211D02*
X958040D01*
X962430Y1046822D01*
X956988Y1048671D02*
X959890Y1045769D01*
X710589Y1156240D02*
X849527D01*
X922298Y849017D02*
X928521Y855240D01*
X922298Y838125D02*
Y849017D01*
X973932Y920982D02*
X985816Y909098D01*
X851052Y1033086D02*
X864079Y1020059D01*
X866619Y1021111D02*
Y1021111D01*
X864079Y1020059D02*
Y1020059D01*
X973932Y920982D02*
Y920982D01*
X967801Y916337D02*
X967801D01*
X982660Y901478D02*
X1124012D01*
X1124119Y901482D01*
X967801Y916337D02*
X982660Y901478D01*
X1124119Y901482D02*
X1124279Y901496D01*
X721934Y1034753D02*
X773698D01*
X968853Y918877D02*
X968853D01*
X801303Y1015778D02*
X850040D01*
X862450Y999776D02*
X868352D01*
X981608Y898938D02*
X981948Y898852D01*
X851093Y1018318D02*
X864555Y1004856D01*
X865607Y1007396D02*
X873150D01*
X848988Y1013238D02*
X862450Y999776D01*
X806433Y1020858D02*
X852145D01*
X981948Y898852D02*
X983621Y898430D01*
X861398Y997236D02*
X867300D01*
X981360Y899185D02*
X981608Y898938D01*
X847936Y1010698D02*
X861398Y997236D01*
X800251Y1018318D02*
X851093D01*
X863502Y1002316D02*
X869404D01*
X805862Y1010698D02*
X847936D01*
X850040Y1015778D02*
X863502Y1002316D01*
X852145Y1020858D02*
X865607Y1007396D01*
X804533Y1013238D02*
X848988D01*
X984764Y906558D02*
X1122069D01*
X982043Y895890D02*
X1233103D01*
X983621Y898430D02*
X1232051D01*
X985816Y909098D02*
X1121017D01*
X968853Y918877D02*
X983712Y904018D01*
X1123121D01*
X1123318Y904084D01*
X1124981Y904644D01*
X1124279Y901496D02*
X1125661Y901732D01*
X1000784Y912531D02*
X1001677Y911638D01*
X1000784Y912531D02*
Y926243D01*
X1008830Y920782D02*
Y930134D01*
X1001677Y911638D02*
X1119965D01*
X987921Y947452D02*
X1006290Y929082D01*
X1010354Y919258D02*
X1115755D01*
X1121017Y909098D02*
X1155561Y943642D01*
X988719Y950246D02*
X1008830Y930134D01*
X1005737Y914178D02*
X1118913D01*
X1003750Y916164D02*
X1005737Y914178D01*
X986869Y944912D02*
X1003750Y928030D01*
X1011370Y923830D02*
X1013402Y921798D01*
X1003750Y916164D02*
Y928030D01*
X1122069Y906558D02*
X1156613Y941102D01*
X1013402Y921798D02*
X1114703D01*
X1006290Y917942D02*
X1007515Y916718D01*
X1117860D01*
X1008830Y920782D02*
X1010354Y919258D01*
X1006290Y917942D02*
Y929082D01*
X1011370Y923830D02*
Y933182D01*
X982623Y961930D02*
X1011370Y933182D01*
X620214Y803212D02*
X627134Y810132D01*
X602893Y780574D02*
X620214Y797895D01*
X622754Y798829D02*
Y802091D01*
X622996Y802333D01*
X639596Y806629D02*
X642582Y809615D01*
X622996Y802333D02*
Y802402D01*
X639088Y802057D02*
Y803835D01*
X642136Y803291D02*
Y804831D01*
X641628Y802783D02*
X642136Y803291D01*
X622754Y798829D02*
X622996Y798588D01*
Y796359D02*
Y798588D01*
X639088Y803835D02*
X639596Y804343D01*
X642136Y804831D02*
X645122Y807817D01*
X639596Y804343D02*
Y806629D01*
X641628Y799481D02*
Y802783D01*
X620214Y797895D02*
Y803212D01*
X622996Y802402D02*
X628186Y807592D01*
X606449Y779812D02*
X622996Y796359D01*
X628166Y810132D02*
X630625Y812590D01*
X630907D01*
X631677Y810050D02*
X631959D01*
X629218Y807592D02*
X631677Y810050D01*
X637502Y819185D02*
Y872447D01*
X628186Y807592D02*
X629218D01*
X640042Y818133D02*
Y883143D01*
X627134Y810132D02*
X628166D01*
X613815Y771668D02*
X641628Y799481D01*
X631722Y794691D02*
X639088Y802057D01*
X610513Y771958D02*
X631722Y793167D01*
X610513Y719360D02*
Y771958D01*
X613815Y720884D02*
Y771668D01*
X631722Y793167D02*
Y794691D01*
X1168374Y1045877D02*
X1171832D01*
X1172856Y1045369D01*
X1179945Y1045242D01*
X1069999Y1064058D02*
X1070624Y1064683D01*
X1070761Y1070388D02*
X1170837D01*
X1175155Y1066070D01*
X1179945Y1045242D02*
X1183537D01*
X1192681Y1036098D01*
X1180997Y1047782D02*
X1236516D01*
X1175155Y1053624D02*
Y1065857D01*
Y1053624D02*
X1180997Y1047782D01*
X1167165Y1022382D02*
X1223959D01*
X1165061Y1017302D02*
X1216072D01*
X1161904Y1009682D02*
X1212916D01*
X1164009Y1014762D02*
X1215020D01*
X1167894Y1025245D02*
X1168217Y1024922D01*
X1162956Y1012222D02*
X1213968D01*
X1168946Y1027785D02*
X1169269Y1027462D01*
X1241739D01*
X1160852Y1007142D02*
X1211202D01*
X1168217Y1024922D02*
X1240687D01*
X1169998Y1030325D02*
X1170321Y1030002D01*
X1166113Y1019842D02*
X1222907D01*
X862310Y1091460D02*
X945358Y1008412D01*
X864414Y1096540D02*
X947462Y1013492D01*
X863362Y1094000D02*
X946410Y1010952D01*
X782872Y1021747D02*
X783380Y1022255D01*
X786641D01*
X787150Y1021747D01*
X791588D01*
X761516D02*
X782872D01*
X708565Y1069101D02*
Y1074227D01*
Y1069101D02*
X723330Y1054336D01*
X725097D01*
X769136Y917591D02*
X769898Y918353D01*
X766596Y918643D02*
X767358Y919405D01*
X771803Y925406D02*
X772438Y924771D01*
X771803Y916666D02*
X772438Y917301D01*
X774851Y916122D02*
X774978Y916249D01*
X772438Y917301D02*
Y924771D01*
X774851Y925950D02*
Y944912D01*
X771803Y908606D02*
Y916666D01*
X774851Y908062D02*
Y916122D01*
X766723Y923302D02*
Y928656D01*
X951381Y533178D02*
X1019961D01*
X769263Y924354D02*
Y933228D01*
Y924354D02*
X769898Y923719D01*
X771803Y925406D02*
Y943642D01*
X774978Y916249D02*
Y925823D01*
X1066062Y537623D02*
X1073916Y529769D01*
X1019961Y533178D02*
X1041569D01*
X766723Y923302D02*
X767358Y922667D01*
X774851Y925950D02*
X774978Y925823D01*
X1061871Y541814D02*
X1066062Y537623D01*
X769898Y918353D02*
Y923719D01*
X767358Y919405D02*
Y922667D01*
X628547Y698258D02*
Y701326D01*
X636167Y698258D02*
X637056Y697369D01*
X639596Y674346D02*
Y698421D01*
X636167Y698258D02*
Y698532D01*
X637056Y675398D02*
Y697369D01*
X632376Y670719D02*
X637056Y675398D01*
X627150D02*
X628547Y674001D01*
X638707Y673457D02*
X639596Y674346D01*
X638707Y699310D02*
Y700818D01*
Y699310D02*
X639596Y698421D01*
X774553Y818702D02*
Y819764D01*
Y818702D02*
X778347Y814908D01*
X757502Y840407D02*
X777093Y820816D01*
X778347Y814908D02*
X778407Y814848D01*
X752263Y842054D02*
X774553Y819764D01*
X778347Y814908D02*
X778347D01*
X777093Y819754D02*
Y820816D01*
X748181Y806482D02*
X751356Y803307D01*
X744498Y765187D02*
X751356Y772045D01*
Y803307D01*
X743482Y767763D02*
Y798969D01*
X741958Y766239D02*
X743482Y767763D01*
Y798969D02*
X743912Y799399D01*
Y810497D01*
X740053Y814356D02*
X743912Y810497D01*
X1173123Y1033304D02*
Y1033939D01*
X1245259Y980312D02*
Y987253D01*
X1245020Y980073D02*
X1245259Y980312D01*
X1254308Y980472D02*
X1258721Y984884D01*
X1250339Y980472D02*
X1254308D01*
X1270133Y784130D02*
X1419503D01*
X1567278Y1071531D02*
X1606521Y1110774D01*
X1253298Y995401D02*
X1256181Y998283D01*
X1253298Y986949D02*
Y995401D01*
X1237893Y977805D02*
X1238257Y978169D01*
Y989405D01*
X1150263Y957358D02*
X1229040D01*
X1152404Y951262D02*
X1230128D01*
X1151315Y954818D02*
X1230092D01*
X1156613Y941102D02*
X1234337D01*
X1238946Y967264D02*
X1276603D01*
X1231545Y965114D02*
X1234620Y968189D01*
X1230128Y951262D02*
X1240617Y961750D01*
X1243699Y954056D02*
X1271349D01*
X1153456Y948722D02*
X1231180D01*
X1230092Y954818D02*
X1239565Y964290D01*
X1240617Y961750D02*
X1274932D01*
X1239565Y964290D02*
X1275984D01*
X1234620Y968189D02*
Y968505D01*
X1234337Y941102D02*
X1244751Y951516D01*
X1241594Y959136D02*
X1273453D01*
X1231545Y963454D02*
Y965114D01*
X1232233Y946182D02*
X1242647Y956596D01*
X1155561Y943642D02*
X1233285D01*
X1244751Y951516D02*
X1270296D01*
X1242647Y956596D02*
X1272401D01*
X1154509Y946182D02*
X1232233D01*
X1229040Y957358D02*
X1238946Y967264D01*
X1233285Y943642D02*
X1243699Y954056D01*
X1231180Y948722D02*
X1241594Y959136D01*
X1225447Y976656D02*
X1227733Y978942D01*
X1225447Y975900D02*
Y976656D01*
X1227733Y978942D02*
Y980722D01*
X1226102Y968915D02*
X1229462D01*
X1220756Y974261D02*
X1226102Y968915D01*
X1229462D02*
X1232989Y972442D01*
X1253485D01*
X1268881Y987838D01*
X1233321Y988600D02*
X1233829Y988092D01*
X1233321Y988600D02*
Y992664D01*
X1229104Y996880D02*
X1233321Y992664D01*
X1225955Y990886D02*
X1226300Y991231D01*
Y994823D01*
X1226935Y995458D01*
X1226564Y995828D02*
X1226935Y995458D01*
X1222018Y986437D02*
Y1000580D01*
Y986437D02*
X1227733Y980722D01*
X1206778Y975031D02*
X1221276Y960533D01*
X1222907Y1019842D02*
X1240953Y1001795D01*
X1241842D02*
X1246021Y997617D01*
X1244870Y1004335D02*
X1249958Y999248D01*
X1242005Y1004335D02*
X1244870D01*
X1249958Y991952D02*
Y999248D01*
X1240953Y1001795D02*
X1241842D01*
X1245259Y987253D02*
X1249958Y991952D01*
X1223959Y1022382D02*
X1242005Y1004335D01*
X1236808Y990853D02*
X1238257Y989405D01*
X1236808Y990853D02*
Y992768D01*
X1236074Y993503D02*
X1236808Y992768D01*
X1217065Y999008D02*
Y1001280D01*
Y999008D02*
X1218081Y997992D01*
Y997236D02*
Y997992D01*
X1229104Y996880D02*
Y1000677D01*
X1236074Y993503D02*
Y997300D01*
X1216072Y1017302D02*
X1236074Y997300D01*
X1226564Y995828D02*
Y999625D01*
X1215020Y1014762D02*
X1229104Y1000677D01*
X1241739Y1027462D02*
X1258721Y1010480D01*
Y984884D02*
Y1010480D01*
X1097040Y882047D02*
X1098527Y883533D01*
X977436Y882047D02*
X1097040D01*
X1162786Y874520D02*
X1195508D01*
X1162666Y874640D02*
X1162786Y874520D01*
X1241084Y872043D02*
X1243779Y869347D01*
X949857Y541814D02*
X1061871D01*
X1048282Y536861D02*
X1057914Y527229D01*
X945793Y545878D02*
X949857Y541814D01*
X1047901Y536861D02*
X1048282D01*
X721257Y524434D02*
X797348Y448342D01*
X796296Y445802D02*
X1002435D01*
X782072Y460026D02*
X796296Y445802D01*
X721257Y524434D02*
Y529514D01*
X770279Y460026D02*
X782072D01*
X750031Y506435D02*
Y511515D01*
Y506435D02*
X799616Y456851D01*
X723797Y525486D02*
Y530566D01*
Y525486D02*
X798401Y450882D01*
X747438Y505436D02*
Y510516D01*
Y505436D02*
X798564Y454311D01*
X703223Y551140D02*
X723797Y530566D01*
X714428Y536343D02*
X721257Y529514D01*
X708303Y553244D02*
X750031Y511515D01*
X705763Y552192D02*
X747438Y510516D01*
X1018600Y463963D02*
X1021648Y460915D01*
X852809Y463963D02*
X1018600D01*
X813947Y461931D02*
X818773Y466757D01*
X850015D02*
X852809Y463963D01*
X818773Y466757D02*
X850015D01*
X710843Y554550D02*
X803462Y461931D01*
X813947D01*
X941983Y827092D02*
Y838994D01*
X970469Y882682D02*
X976801D01*
X977436Y882047D01*
X971066Y791099D02*
X976130Y786035D01*
X941983Y827092D02*
X973606Y795469D01*
X939443Y826040D02*
X971066Y794417D01*
X968526Y790047D02*
Y792639D01*
X973606Y792151D02*
X977182Y788575D01*
X980500D01*
X936903Y824262D02*
X968526Y792639D01*
X971066Y791099D02*
Y794417D01*
X973606Y792151D02*
Y795469D01*
X968526Y790047D02*
X975078Y783495D01*
X976130Y786035D02*
X979448D01*
X944523Y828144D02*
Y836220D01*
X948460Y829775D02*
X964120Y814115D01*
X961092Y811574D02*
X965318D01*
X975078Y783495D02*
X977670D01*
X964120Y814115D02*
X966588D01*
X944523Y828144D02*
X961092Y811574D01*
X1034491Y743744D02*
X1045972D01*
X977670Y783495D02*
X1034693Y726472D01*
X979448Y786035D02*
X1029359Y736124D01*
X980500Y788575D02*
X1030411Y738664D01*
X952672Y900478D02*
X970469Y882682D01*
X627785Y481362D02*
X631087Y484664D01*
X625118Y668869D02*
X628547Y672299D01*
X627658Y663714D02*
X631087Y660285D01*
X625118Y662662D02*
X628547Y659233D01*
X625118Y662662D02*
Y668869D01*
X628547Y487712D02*
Y659233D01*
Y672299D02*
Y674001D01*
X630559Y670719D02*
X632376D01*
X627658Y667817D02*
X630559Y670719D01*
X627658Y663714D02*
Y667817D01*
X631087Y484664D02*
Y660285D01*
X638707Y639711D02*
Y673457D01*
X613815Y720884D02*
X636167Y698532D01*
X609243Y481362D02*
X618525Y490644D01*
X710335Y707370D02*
X719531Y716566D01*
X687348Y716927D02*
Y717181D01*
X700302Y715167D02*
Y715657D01*
X713113Y719106D02*
X718865D01*
X719531Y716566D02*
X719918D01*
X708176Y712395D02*
Y717761D01*
X703097Y717963D02*
X709320Y724186D01*
X712061Y721646D02*
X717813D01*
X702608Y717963D02*
X703097D01*
X689245Y719078D02*
Y722670D01*
X686586Y716165D02*
X687348Y716927D01*
X707795Y708422D02*
X710716Y711343D01*
X687348Y717181D02*
X689245Y719078D01*
X705255Y709474D02*
X708176Y712395D01*
X710716Y716709D02*
X713113Y719106D01*
X710716Y711343D02*
Y716709D01*
X708176Y717761D02*
X712061Y721646D01*
X700302Y715657D02*
X702608Y717963D01*
X720583Y714026D02*
X720970D01*
X698651Y713516D02*
X700302Y715167D01*
X712875Y706318D02*
X720583Y714026D01*
X682649Y707878D02*
X686586Y711815D01*
Y716165D01*
X679474Y725230D02*
Y740206D01*
X680109Y708930D02*
X684046Y712867D01*
X682014Y737666D02*
X684790Y740442D01*
X677569Y659162D02*
X688273Y648458D01*
X680109Y670084D02*
X690523Y659670D01*
X677569Y659162D02*
Y709982D01*
X682014Y726282D02*
Y737666D01*
X682250Y742982D02*
X700864D01*
X682014Y726282D02*
X684046Y724250D01*
Y712867D02*
Y724250D01*
X679474Y740206D02*
X682250Y742982D01*
X681506Y713919D02*
Y723198D01*
X677569Y709982D02*
X681506Y713919D01*
X684790Y740442D02*
X697635D01*
X679474Y725230D02*
X681506Y723198D01*
X682649Y672624D02*
Y707878D01*
X680109Y670084D02*
Y708930D01*
X695841Y729266D02*
X714657D01*
X689245Y722670D02*
X695841Y729266D01*
X673378Y706105D02*
Y718995D01*
X670838Y707157D02*
Y717943D01*
X660424Y688645D02*
Y740459D01*
X662964Y689697D02*
Y739407D01*
X671981Y720392D02*
X673378Y718995D01*
X669441Y719340D02*
X670838Y717943D01*
X669441Y719340D02*
Y742292D01*
X748162Y763283D02*
X748435Y763556D01*
X747165Y758622D02*
X748162Y759619D01*
Y763283D01*
X669568Y705887D02*
X670838Y707157D01*
X669568Y678374D02*
Y705887D01*
X672108Y704835D02*
X673378Y706105D01*
X672108Y677322D02*
Y704835D01*
X660424Y688645D02*
X664488Y684581D01*
X662964Y739407D02*
X674158Y750602D01*
X671981Y720392D02*
Y741240D01*
X660424Y740459D02*
X673106Y753142D01*
X662964Y689697D02*
X667028Y685633D01*
X728190Y751745D02*
X733104D01*
X735208Y746665D02*
X742085Y753541D01*
X730294Y746665D02*
X735208D01*
X718105Y743490D02*
X719935D01*
X719157Y740950D02*
X720987D01*
X733104Y751745D02*
X734719Y753360D01*
X720209Y738410D02*
X722039D01*
X718883Y746030D02*
X728242Y755389D01*
X720987Y740950D02*
X729242Y749205D01*
X717053Y746030D02*
X718883D01*
X722039Y738410D02*
X730294Y746665D01*
X734156Y749205D02*
X737259Y752308D01*
X719935Y743490D02*
X728190Y751745D01*
X729242Y749205D02*
X734156D01*
X735862Y743726D02*
X744625Y752489D01*
X742085Y753541D02*
Y760746D01*
X728242Y755389D02*
Y759101D01*
X750845Y707295D02*
X753388D01*
X749982Y706432D02*
X750845Y707295D01*
X743612Y712375D02*
X755492D01*
X755619Y712248D01*
X746683Y706432D02*
X749982D01*
X746149Y705898D02*
X746683Y706432D01*
X753388Y707295D02*
X754785Y705898D01*
X754440Y709835D02*
X754567Y709708D01*
X744664Y714915D02*
X754238D01*
X744029Y715550D02*
X744664Y714915D01*
X745081Y718090D02*
X745716Y717455D01*
X731782Y710470D02*
X741925D01*
X745716Y717455D02*
X753186D01*
X741925Y710470D02*
X742560Y709835D01*
X753186Y717455D02*
X753821Y718090D01*
X746133Y720630D02*
X746768Y719995D01*
X752134D01*
X727574Y720630D02*
X746133D01*
X752769D02*
X753352D01*
X747185Y723170D02*
X747820Y722535D01*
X751081D01*
X753388Y724841D02*
Y727869D01*
X726522Y723170D02*
X747185D01*
X754873Y715550D02*
X755456D01*
X754238Y714915D02*
X754873Y715550D01*
X751081Y722535D02*
X753388Y724841D01*
X742560Y709835D02*
X754440D01*
X753821Y718090D02*
X754404D01*
X749959Y690150D02*
Y702165D01*
X728626Y718090D02*
X745081D01*
X730730Y713010D02*
X742977D01*
X752134Y719995D02*
X752769Y720630D01*
X729678Y715550D02*
X744029D01*
X742977Y713010D02*
X743612Y712375D01*
X638707Y485934D02*
Y561744D01*
X637628Y562822D02*
X638707Y561744D01*
X637628Y562822D02*
Y638632D01*
X638707Y639711D01*
X765306Y709708D02*
X765687Y710089D01*
X754567Y709708D02*
X765306D01*
X669441Y678247D02*
X669568Y678374D01*
X666901Y679299D02*
X667028Y679426D01*
X664488Y680478D02*
Y684581D01*
X669441Y659804D02*
Y678247D01*
X671981Y660856D02*
Y677195D01*
X672108Y677322D01*
X667028Y679426D02*
Y685633D01*
X666901Y658752D02*
Y679299D01*
X664361Y657700D02*
Y680351D01*
X664488Y680478D01*
X688110Y637082D02*
Y641510D01*
X685733Y643887D02*
Y647104D01*
X688110Y637082D02*
X689253Y635939D01*
X690650Y638135D02*
Y642562D01*
X688273Y644939D02*
X690650Y642562D01*
X683193Y642834D02*
X685570Y640458D01*
X690813Y645991D02*
Y649510D01*
X683193Y642834D02*
Y646052D01*
X685570Y636030D02*
X686713Y634887D01*
X688273Y644939D02*
Y648458D01*
X678113Y640730D02*
X680490Y638353D01*
X695730Y640239D02*
Y644666D01*
X683030Y634978D02*
Y639406D01*
X680653Y641782D02*
X683030Y639406D01*
X693190Y639187D02*
X695603Y636774D01*
X695730Y640239D02*
X698143Y637826D01*
X693353Y647043D02*
X695730Y644666D01*
X678113Y640730D02*
Y643948D01*
X693190Y639187D02*
Y643614D01*
X690813Y645991D02*
X693190Y643614D01*
X693353Y647043D02*
Y650562D01*
X690650Y638135D02*
X693063Y635722D01*
X680490Y633926D02*
Y638353D01*
X685733Y643887D02*
X688110Y641510D01*
X683030Y634978D02*
X684173Y633835D01*
X680653Y641782D02*
Y645000D01*
X685570Y636030D02*
Y640458D01*
X680490Y633926D02*
X681633Y632783D01*
X501420Y569897D02*
X505918Y574395D01*
Y455763D02*
Y560032D01*
X503960Y565583D02*
X508458Y561085D01*
X529487Y570151D02*
X529868Y569770D01*
Y564404D02*
Y569770D01*
X529487Y564023D02*
X529868Y564404D01*
X493800Y561375D02*
X498298Y556876D01*
X496340Y572001D02*
X500838Y576499D01*
X501420Y564531D02*
X505918Y560032D01*
X513538Y570732D02*
X514374Y569897D01*
X516914Y563479D02*
Y570949D01*
X503378Y477331D02*
Y558980D01*
X516078Y571784D02*
X516914Y570949D01*
X518618Y561591D02*
X519454Y562427D01*
X498880Y563479D02*
Y570949D01*
X493800Y561375D02*
Y573053D01*
X503960Y568845D02*
X508458Y573343D01*
X503960Y565583D02*
Y568845D01*
X500838Y478383D02*
Y557928D01*
X513538Y458919D02*
Y563695D01*
X516078Y459971D02*
Y562644D01*
X526947Y569099D02*
X527328Y568718D01*
X513538Y563695D02*
X514374Y564531D01*
X518618Y461023D02*
Y561591D01*
X519454Y562427D02*
Y572001D01*
X496340Y562427D02*
Y572001D01*
X511834Y565583D02*
Y568845D01*
X498880Y563479D02*
X503378Y558980D01*
X496340Y562427D02*
X500838Y557928D01*
X510998Y564748D02*
X511834Y565583D01*
X526947Y456287D02*
Y565075D01*
X493800Y573053D02*
X498298Y577551D01*
X516078Y562644D02*
X516914Y563479D01*
X514374Y564531D02*
Y569897D01*
X527328Y565456D02*
Y568718D01*
X508458Y456815D02*
Y561085D01*
X498880Y570949D02*
X503378Y575447D01*
X510998Y457867D02*
Y564748D01*
X518618Y572836D02*
X519454Y572001D01*
X526947Y565075D02*
X527328Y565456D01*
X529487Y457339D02*
Y564023D01*
X501420Y564531D02*
Y569897D01*
X498298Y479435D02*
Y556876D01*
X510998Y569680D02*
X511834Y568845D01*
X551458Y719887D02*
X553998Y717347D01*
X548410Y785511D02*
X551458Y782463D01*
Y719887D02*
Y782463D01*
X563904Y729119D02*
Y791929D01*
X566444Y730171D02*
X571778Y724837D01*
X563904Y729119D02*
X569238Y723785D01*
X575736Y712653D02*
X579398Y716315D01*
X566444Y730171D02*
Y792981D01*
X581049Y733526D02*
X584478Y730097D01*
X574318Y718419D02*
Y725889D01*
X572786Y731012D02*
X576858Y726941D01*
X569720Y730486D02*
Y788296D01*
X584478Y714211D02*
Y730097D01*
X564640Y709519D02*
Y715926D01*
X581049Y733526D02*
Y779994D01*
X572786Y731012D02*
Y787769D01*
X566654Y707940D02*
X567180Y708466D01*
X575736Y731654D02*
X579398Y727993D01*
X578509Y711834D02*
X581938Y715263D01*
X575736Y731654D02*
Y781865D01*
X578509Y732474D02*
Y781046D01*
X564640Y715926D02*
X569238Y720523D01*
X581049Y710781D02*
X584478Y714211D01*
X572786Y713296D02*
X576858Y717367D01*
X567180Y714874D02*
X571778Y719471D01*
X578509Y732474D02*
X581938Y729045D01*
X569720Y730486D02*
X574318Y725889D01*
X581938Y715263D02*
Y729045D01*
X569720Y713821D02*
X574318Y718419D01*
X569238Y720523D02*
Y723785D01*
X571778Y719471D02*
Y724837D01*
X579398Y716315D02*
Y727993D01*
X567180Y708466D02*
Y714874D01*
X576858Y717367D02*
Y726941D01*
X563588Y708466D02*
X564640Y709519D01*
X384707Y479845D02*
X407574Y456978D01*
X381659Y595393D02*
X463447Y677181D01*
X378611Y596655D02*
X460399Y678443D01*
X378611Y477320D02*
X405049Y450882D01*
X375563Y597918D02*
X457351Y679706D01*
X375563Y476058D02*
X403787Y447834D01*
X387755Y592868D02*
X469543Y674656D01*
X390295Y482160D02*
X409889Y462566D01*
X372515Y599180D02*
X454303Y680968D01*
X387755Y481108D02*
X408837Y460026D01*
X372515Y474795D02*
X402524Y444786D01*
X372515Y474795D02*
Y599180D01*
X378611Y477320D02*
Y596655D01*
X384707Y479845D02*
Y594130D01*
X390295Y591598D02*
X441349Y642652D01*
X381659Y478583D02*
X406312Y453930D01*
X384707Y594130D02*
X466495Y675918D01*
X390295Y482160D02*
Y591598D01*
X375563Y476058D02*
Y597918D01*
X387755Y481108D02*
Y592868D01*
X381659Y478583D02*
Y595393D01*
X1209191Y784404D02*
X1209435Y784648D01*
X1209191Y764100D02*
Y784404D01*
X1196906Y878457D02*
X1204111Y871252D01*
X1419503Y784130D02*
X1420773Y782860D01*
X1425472D01*
X1434616Y773716D01*
X1259464Y915067D02*
X1269878Y925481D01*
X1260516Y912527D02*
X1270930Y922941D01*
X1261568Y909987D02*
X1271982Y920401D01*
X1256438Y920147D02*
X1257360D01*
X1259594Y912527D02*
X1260516D01*
X1256308Y922687D02*
X1266722Y933101D01*
X1260646Y909987D02*
X1261568D01*
X1258542Y915067D02*
X1259464D01*
X1257360Y920147D02*
X1267774Y930561D01*
X1255386Y922687D02*
X1256308D01*
X1258412Y917607D02*
X1268826Y928021D01*
X1257490Y917607D02*
X1258412D01*
X583843Y1078262D02*
Y1092232D01*
X578509Y1072928D02*
X583843Y1078262D01*
X487105Y1017846D02*
X494689Y1025430D01*
X486451Y1017846D02*
X487105D01*
X471067Y1002461D02*
X486451Y1017846D01*
X483513Y1004094D02*
X485545Y1006126D01*
X484311Y1008412D02*
X485073Y1009174D01*
X484275Y1008412D02*
X484311D01*
X473607Y1001409D02*
X483204Y1011007D01*
X484021Y1008158D02*
X484275Y1008412D01*
X476147Y1000357D02*
X483984Y1008195D01*
X478687Y999305D02*
X483494Y1004112D01*
X434237Y891116D02*
X434618Y890735D01*
X434237Y891116D02*
Y1008303D01*
X434618Y883265D02*
Y890735D01*
X697000Y542322D02*
Y546586D01*
X695603Y547983D02*
X697000Y546586D01*
X695603Y547983D02*
Y636774D01*
X706621Y536343D02*
X714428D01*
X703477Y539487D02*
Y547294D01*
X700937Y538435D02*
Y546241D01*
X703477Y539487D02*
X706621Y536343D01*
X700937Y538435D02*
X701525Y537847D01*
Y535871D02*
X702059Y535337D01*
X701525Y535871D02*
Y537847D01*
X695019Y522891D02*
X697544Y525416D01*
X692428Y533940D02*
Y536740D01*
X693967Y525431D02*
X697606Y529070D01*
X688399Y527737D02*
Y537298D01*
X685859Y526685D02*
X689653Y522891D01*
X692336Y529368D02*
Y533848D01*
X692428Y533940D01*
X697544Y525416D02*
X710223D01*
X690706Y525431D02*
X693967D01*
X685859Y526685D02*
Y529205D01*
X689653Y522891D02*
X695019D01*
X688399Y527737D02*
X690706Y525431D01*
X697606Y529070D02*
X716133D01*
X681379Y533686D02*
X685859Y529205D01*
X688399Y537298D02*
X689253Y538151D01*
X685850Y540316D02*
Y543491D01*
X685316Y539782D02*
X685850Y540316D01*
X681379Y533686D02*
Y545568D01*
X678839Y529876D02*
Y546620D01*
X685850Y543491D02*
X686713Y544354D01*
Y634887D01*
X689253Y538151D02*
Y635939D01*
X692428Y536740D02*
X693063Y537375D01*
Y635722D01*
X723543Y613188D02*
X730909Y605822D01*
X698143Y549035D02*
X700937Y546241D01*
X698143Y549035D02*
Y637826D01*
X700683Y550088D02*
Y638878D01*
Y550088D02*
X703477Y547294D01*
X703223Y551140D02*
Y639930D01*
X705763Y552192D02*
Y640982D01*
X730909Y601484D02*
Y605822D01*
X713383Y555602D02*
Y644138D01*
Y555602D02*
X785591Y483394D01*
X723543Y594138D02*
X727988Y598583D01*
X723543Y559810D02*
Y594138D01*
X710335Y643594D02*
X710843Y643086D01*
X705255Y641490D02*
X705763Y640982D01*
X723543Y559810D02*
X783068Y500285D01*
X723543Y613188D02*
Y648347D01*
X723162Y648728D02*
X723543Y648347D01*
X718463Y557706D02*
Y646243D01*
X712875Y644646D02*
X713383Y644138D01*
X728007Y598583D02*
X730909Y601484D01*
X721003Y558758D02*
X782016Y497745D01*
X700175Y639386D02*
X700683Y638878D01*
X720622Y647676D02*
X721003Y647295D01*
Y558758D02*
Y647295D01*
X715923Y556654D02*
Y645191D01*
X702715Y640438D02*
X703223Y639930D01*
X707795Y642542D02*
X708303Y642034D01*
X710843Y554550D02*
Y643086D01*
X708303Y553244D02*
Y642034D01*
X727988Y598583D02*
X728007D01*
X664361Y657700D02*
X678113Y643948D01*
X684173Y548362D02*
Y633835D01*
X669441Y659804D02*
X683193Y646052D01*
X671981Y660856D02*
X685733Y647104D01*
X681633Y549414D02*
Y632783D01*
X666901Y658752D02*
X680653Y645000D01*
X690523Y649800D02*
X690813Y649510D01*
X693353Y650562D02*
X693571Y650780D01*
Y661702D01*
X690523Y649800D02*
Y659670D01*
X678839Y546620D02*
X681633Y549414D01*
X681379Y545568D02*
X684173Y548362D01*
X678839Y529876D02*
X690777Y517938D01*
X710081D01*
X682649Y672624D02*
X693571Y661702D01*
X695603Y688772D02*
Y722626D01*
X700048Y735090D02*
Y738029D01*
X700792Y734346D02*
X712553D01*
X685951Y732314D02*
X699232D01*
X711244Y736886D02*
X715181Y740823D01*
X704740Y739903D02*
X707757Y736886D01*
X711244D01*
X713605Y731806D02*
X720209Y738410D01*
X699703Y726726D02*
X715709D01*
X700048Y735090D02*
X700792Y734346D01*
X699232Y732314D02*
X699740Y731806D01*
X713605D01*
X712553Y734346D02*
X719157Y740950D01*
X695603Y722626D02*
X699703Y726726D01*
X747165Y749042D02*
Y758622D01*
X749969Y748254D02*
Y757833D01*
X755049Y746150D02*
Y753660D01*
X714657Y729266D02*
X721261Y735870D01*
X744625Y752489D02*
Y761798D01*
X747165Y745450D02*
X749969Y748254D01*
X749705Y744398D02*
X752509Y747202D01*
X752245Y743345D02*
X755049Y746150D01*
X715438Y740823D02*
X718105Y743490D01*
X717484Y748570D02*
X718228Y749314D01*
X716001Y748570D02*
X717484D01*
X718228Y749314D02*
Y758985D01*
X752245Y741567D02*
Y743345D01*
X706848Y743363D02*
X714386D01*
X752509Y747202D02*
Y754864D01*
X760119Y743585D02*
X760238Y743465D01*
X715181Y740823D02*
X715438D01*
X744625Y746502D02*
X747165Y749042D01*
X721261Y735870D02*
X728005D01*
X707900Y745903D02*
X713334D01*
X749705Y742619D02*
Y744398D01*
X760238Y740203D02*
Y743465D01*
X760119Y743585D02*
Y753162D01*
X747165Y743672D02*
Y745450D01*
X714386Y743363D02*
X717053Y746030D01*
X713334Y745903D02*
X716001Y748570D01*
X744625Y744724D02*
Y746502D01*
X739418Y759821D02*
Y767291D01*
X734719Y754434D02*
X736878Y756593D01*
X737259Y753382D02*
X739545Y755668D01*
X739418Y759821D02*
X739545Y759694D01*
Y755668D02*
Y759694D01*
X736878Y756593D02*
Y768343D01*
X744498Y761925D02*
Y765187D01*
Y761925D02*
X744625Y761798D01*
X741958Y760873D02*
Y766239D01*
X737263Y768728D02*
Y802413D01*
X752509Y754864D02*
X757802Y760157D01*
X741958Y760873D02*
X742085Y760746D01*
X736878Y768343D02*
X737263Y768728D01*
X739418Y767291D02*
X739975Y767848D01*
X749969Y757833D02*
X753403Y761268D01*
X755049Y753660D02*
X762024Y760635D01*
X739975Y767848D02*
Y808006D01*
X669441Y742292D02*
X675211Y748062D01*
X697635D01*
X677442Y755448D02*
Y757668D01*
X671981Y741240D02*
X676263Y745522D01*
X675135Y753142D02*
X677442Y755448D01*
X673106Y753142D02*
X675135D01*
X698687Y745522D02*
X699545Y746380D01*
X676263Y745522D02*
X698687D01*
X706593Y746297D02*
X707505D01*
X699545Y746380D02*
X706511D01*
X707505Y746297D02*
X707900Y745903D01*
X695228Y750602D02*
X697635Y753009D01*
X674158Y750602D02*
X695228D01*
X697635Y748062D02*
X700175Y750602D01*
Y755154D01*
X700864Y742982D02*
X701722Y743840D01*
X697635Y740442D02*
X700048Y738029D01*
X678712Y758938D02*
Y789728D01*
X677442Y757668D02*
X678712Y758938D01*
X737259Y752308D02*
Y753382D01*
X719918Y716566D02*
X726522Y723170D01*
X717813Y721646D02*
X724417Y728250D01*
X732834Y707930D02*
X737900D01*
X736387Y725710D02*
X752245Y741567D01*
X724417Y728250D02*
X735335D01*
X720622Y702902D02*
X730730Y713010D01*
X737900Y707930D02*
X740059Y705771D01*
X734283Y730790D02*
X747165Y743672D01*
X720970Y714026D02*
X727574Y720630D01*
X715709Y726726D02*
X722313Y733330D01*
X725469Y725710D02*
X736387D01*
X718865Y719106D02*
X725469Y725710D01*
X740059Y705771D02*
X740815D01*
X733231Y733330D02*
X744625Y744724D01*
X723162Y701850D02*
X731782Y710470D01*
X735335Y728250D02*
X749705Y742619D01*
X734719Y694468D02*
Y703993D01*
X723365Y730790D02*
X734283D01*
X716761Y724186D02*
X723365Y730790D01*
X722313Y733330D02*
X733231D01*
X730782Y705878D02*
X732834Y707930D01*
X698651Y689316D02*
X701191Y686777D01*
X730782Y694341D02*
Y705878D01*
X698651Y689316D02*
Y713516D01*
X709320Y724186D02*
X716761D01*
X757802Y760157D02*
Y763932D01*
X734719Y753360D02*
Y754434D01*
X731925Y814356D02*
X740053D01*
X730410Y809266D02*
X737263Y802413D01*
X720384Y791861D02*
Y796485D01*
Y791861D02*
X720495Y791750D01*
X720384Y796485D02*
X728536Y804638D01*
X698651Y673930D02*
Y685724D01*
X701191Y674982D02*
Y686777D01*
X710223Y525416D02*
X714145Y521494D01*
Y504984D02*
Y521494D01*
X695603Y688772D02*
X698651Y685724D01*
X709192Y753035D02*
Y765236D01*
X715288Y761925D02*
X718228Y758985D01*
X706453Y743757D02*
X706848Y743363D01*
X701722Y743840D02*
X705459D01*
X708224Y750234D02*
X708758Y750769D01*
X706511Y746380D02*
X706593Y746297D01*
X708758Y750769D02*
Y752602D01*
X705459Y743840D02*
X705541Y743757D01*
X706453D01*
X708758Y752602D02*
X709192Y753035D01*
X707414Y767014D02*
Y787120D01*
X712748Y760873D02*
X713637Y759984D01*
X712748Y760873D02*
Y774625D01*
X707414Y767014D02*
X709192Y765236D01*
X707414Y787120D02*
X709771Y789477D01*
X753403Y761268D02*
Y761326D01*
X725418Y761925D02*
Y762931D01*
X720495Y767854D02*
X725418Y762931D01*
Y761925D02*
X728242Y759101D01*
X720495Y767854D02*
Y791750D01*
X728536Y804638D02*
Y805329D01*
X697635Y753009D02*
Y756718D01*
X703731Y758710D02*
Y787029D01*
X700175Y755154D02*
X703731Y758710D01*
X712981Y782733D02*
X715288Y780427D01*
X703731Y787029D02*
X707231Y790530D01*
X695418Y804042D02*
X700673Y798787D01*
X711732Y787846D02*
X712311Y788425D01*
Y795895D01*
X711732Y796475D02*
X712311Y795895D01*
X709192Y795423D02*
X709771Y794843D01*
X700673Y798787D02*
X702235D01*
X714272Y785035D02*
Y786794D01*
Y797527D02*
X714851Y796947D01*
X714272Y797527D02*
Y814229D01*
X702235Y798787D02*
X707231Y793791D01*
X709192Y795423D02*
Y796050D01*
X711732Y796475D02*
Y803815D01*
X714272Y786794D02*
X714851Y787373D01*
X707231Y790530D02*
Y793791D01*
X709771Y789477D02*
Y794843D01*
X714851Y787373D02*
Y796947D01*
X711732Y783713D02*
Y787846D01*
X718209Y817404D02*
X726346Y809266D01*
X730410D01*
X1447951Y778034D02*
Y842332D01*
X1216557Y978460D02*
X1218216Y976801D01*
Y969161D02*
Y976801D01*
X962231Y1004602D02*
X984929D01*
X961179Y1002062D02*
X983877D01*
X1094510Y1077881D02*
X1105559Y1088930D01*
Y1098836D01*
X1070507Y1077881D02*
X1094510D01*
X1066933Y1067068D02*
Y1067594D01*
X1067863Y1067490D02*
X1070761Y1070388D01*
X1066951Y1067594D02*
X1067054Y1067490D01*
X1067863D01*
X1236516Y1047782D02*
X1245660Y1038638D01*
X1192681Y1036098D02*
X1257705D01*
X1245660Y1038638D02*
X1519579D01*
X1240687Y1024922D02*
X1256181Y1009428D01*
X1173123Y1033304D02*
X1173885Y1032542D01*
X1268754Y1076611D02*
X1281073Y1064292D01*
X1281581D01*
X1268754Y1098270D02*
X1268870Y1098386D01*
X1268754Y1076611D02*
Y1098270D01*
X1268870Y1098386D02*
Y1113071D01*
X1267611Y1114330D02*
X1268870Y1113071D01*
X1233065Y1128096D02*
X1246831Y1114330D01*
X1267611D01*
X1274944Y949751D02*
X1277243Y947452D01*
X1270925Y951389D02*
X1272563Y949751D01*
X1271476Y953929D02*
X1271977D01*
X1273029Y956469D02*
X1274667Y954831D01*
X1272528Y956469D02*
X1273029D01*
X1273580Y959009D02*
X1274081D01*
X1275719Y957371D01*
X1274932Y961750D02*
X1276771Y959911D01*
X1271977Y953929D02*
X1273615Y952291D01*
X1272563Y949751D02*
X1274944D01*
X1273615Y952291D02*
X1275996D01*
X1275984Y964290D02*
X1277824Y962451D01*
X1278100Y957371D02*
X1280399Y955072D01*
X1277791Y944912D02*
X1309247D01*
X1275719Y957371D02*
X1278100D01*
X1246930Y943261D02*
X1260061D01*
X1276771Y959911D02*
X1279152D01*
X1277048Y954831D02*
X1279347Y952532D01*
X1281451Y957612D02*
X1468666D01*
X1280204Y962451D02*
X1282503Y960152D01*
X1279152Y959911D02*
X1281451Y957612D01*
X1282503Y960152D02*
X1467614D01*
X1275996Y952291D02*
X1278295Y949992D01*
X1274756Y941877D02*
X1277791Y944912D01*
X1243273Y941877D02*
X1245546D01*
X1260061Y943261D02*
X1261445Y941877D01*
X1274756D01*
X1278876Y964991D02*
X1281256D01*
X1278295Y949992D02*
X1471822D01*
X1280399Y955072D02*
X1469718D01*
X1270424Y951389D02*
X1270925D01*
X1277243Y947452D02*
X1472874D01*
X1245546Y941877D02*
X1246930Y943261D01*
X1274667Y954831D02*
X1277048D01*
X1277824Y962451D02*
X1280204D01*
X1309247Y944912D02*
X1313819Y940340D01*
X1279347Y952532D02*
X1470770D01*
X1242752Y941356D02*
X1243273Y941877D01*
X1281256Y964991D02*
X1283555Y962692D01*
X1276603Y967264D02*
X1278876Y964991D01*
X1283555Y962692D02*
X1466561D01*
X1271498Y935895D02*
X1279910D01*
X1271244Y935641D02*
X1271498Y935895D01*
X1282268Y931069D02*
X1284401D01*
X1266722Y933101D02*
X1280708D01*
X1281053Y937038D02*
X1287062D01*
X1280708Y933101D02*
X1281216Y933609D01*
X1281760Y930561D02*
X1282268Y931069D01*
X1268826Y928021D02*
X1282812D01*
X1283320Y928529D01*
X1285453D01*
X1281216Y933609D02*
X1283349D01*
X1279910Y935895D02*
X1281053Y937038D01*
X1267774Y930561D02*
X1281760D01*
X1250445Y935641D02*
X1271244D01*
X1229131Y961041D02*
X1231545Y963454D01*
X1273453Y959136D02*
X1273580Y959009D01*
X1225213Y961041D02*
X1229131D01*
X1224705Y960533D02*
X1225213Y961041D01*
X1221276Y960533D02*
X1224705D01*
X1235226Y927513D02*
X1236770D01*
X1236899Y927384D01*
X1240161D02*
X1240290Y927513D01*
X1236899Y927384D02*
X1240161D01*
X1240290Y927513D02*
X1242318D01*
X775592Y725075D02*
X780058Y729540D01*
X1287021Y1006782D02*
X1379011D01*
X1385467Y1013238D01*
X949095Y967518D02*
X966367Y950246D01*
X984909Y942118D02*
X1000784Y926243D01*
X966367Y950246D02*
X988719D01*
X1114703Y921798D02*
X1150263Y957358D01*
X1115755Y919258D02*
X1151315Y954818D01*
X963827Y944912D02*
X986869D01*
X964879Y947452D02*
X987921D01*
X851813Y1056926D02*
X963827Y944912D01*
X852865Y1059466D02*
X964879Y947452D01*
X851559Y1052354D02*
X961795Y942118D01*
X984909D01*
X1119965Y911638D02*
X1154509Y946182D01*
X1125661Y901732D02*
X1159664Y935735D01*
X1124981Y904644D02*
X1158899Y938562D01*
X1118913Y914178D02*
X1153456Y948722D01*
X1117860Y916718D02*
X1152404Y951262D01*
X847495Y1052354D02*
X851559D01*
X957752Y902582D02*
Y910376D01*
X955212Y901530D02*
Y909324D01*
X952672Y900478D02*
Y908272D01*
X955212Y901530D02*
X965933Y890810D01*
X957752Y902582D02*
X966985Y893350D01*
X937792Y837363D02*
X939443Y835712D01*
X935252Y836311D02*
X936903Y834660D01*
X935252Y836311D02*
Y900516D01*
X848708Y987059D02*
X935252Y900516D01*
X937792Y837363D02*
Y901568D01*
X936268Y903092D02*
X937792Y901568D01*
X936903Y824262D02*
Y834660D01*
X941729Y838994D02*
X941983D01*
X939443Y826040D02*
Y835712D01*
X944523Y889794D02*
X946555Y891826D01*
X954683D01*
X838294Y994696D02*
X866248D01*
X827694Y1005296D02*
X838294Y994696D01*
X796624Y1011099D02*
X801303Y1015778D01*
X795806Y1013873D02*
X800251Y1018318D01*
X764945Y1007396D02*
X767231Y1009682D01*
X787190Y1011099D02*
X796624D01*
X736488Y1006879D02*
X737005Y1007396D01*
X767231Y1009682D02*
X785773D01*
X737005Y1007396D02*
X764945D01*
X785773Y1009682D02*
X787190Y1011099D01*
X1271349Y954056D02*
X1271476Y953929D01*
X1272401Y956596D02*
X1272528Y956469D01*
X1270296Y951516D02*
X1270424Y951389D01*
X1471822Y949992D02*
X1480302Y958472D01*
X1472874Y947452D02*
X1481354Y955932D01*
X1470770Y952532D02*
X1479250Y961012D01*
X1269878Y925481D02*
X1301139D01*
X1271982Y920401D02*
X1303243D01*
X1242318Y927513D02*
X1250445Y935641D01*
X1722116Y926944D02*
X1733665Y915396D01*
X1301139Y925481D02*
X1302536Y926878D01*
X1666356Y921864D02*
X1701361Y886859D01*
X1303243Y920401D02*
X1304640Y921798D01*
X1302191Y922941D02*
X1303588Y924338D01*
X1684120Y924404D02*
X1716425Y892100D01*
X1302536Y926878D02*
X1303513D01*
X1270930Y922941D02*
X1302191D01*
X1239179Y938562D02*
X1241973Y941356D01*
X1158899Y938562D02*
X1239179D01*
X1241973Y941356D02*
X1242752D01*
X1228451Y934288D02*
X1235226Y927513D01*
X1284401Y931069D02*
X1285290Y931958D01*
X1285453Y928529D02*
X1286342Y929418D01*
X1303588Y924338D02*
X1304565D01*
X1304640Y921798D02*
X1305617D01*
X1287062Y937038D02*
X1292396Y942372D01*
X1286342Y929418D02*
X1302461D01*
X1284238Y934498D02*
X1300356D01*
X1283349Y933609D02*
X1284238Y934498D01*
X1285290Y931958D02*
X1301409D01*
X1640964Y932024D02*
X1653313Y944373D01*
X1642016Y929484D02*
X1654365Y941833D01*
X1303513Y926878D02*
X1303579Y926944D01*
X1304631Y924404D02*
X1684120D01*
X1305617Y921798D02*
X1305683Y921864D01*
X1300356Y934498D02*
X1301118Y935260D01*
X1302527Y929484D02*
X1642016D01*
X1301409Y931958D02*
X1301475Y932024D01*
X1304565Y924338D02*
X1304631Y924404D01*
X1308194Y942372D02*
X1312766Y937800D01*
X1301475Y932024D02*
X1640964D01*
X1302461Y929418D02*
X1302527Y929484D01*
X1303579Y926944D02*
X1722116D01*
X1301118Y935260D02*
X1566018D01*
X1305683Y921864D02*
X1666356D01*
X1292396Y942372D02*
X1308194D01*
X1566018Y935260D02*
X1579070Y948312D01*
X1312766Y937800D02*
X1470406D01*
X1483458Y950852D01*
X1469354Y940340D02*
X1482406Y953392D01*
X1313819Y940340D02*
X1469354D01*
X1268881Y987838D02*
X1452523D01*
X1468666Y957612D02*
X1500318Y989265D01*
X1443633Y773716D02*
X1447951Y778034D01*
X1434616Y773716D02*
X1443633D01*
X1034693Y726472D02*
X1057014D01*
X1030411Y738664D02*
X1048076D01*
X1029359Y736124D02*
X1049128D01*
X944523Y836220D02*
X945666Y837363D01*
Y840625D01*
X647449Y792099D02*
Y794635D01*
X645143Y789793D02*
X647449Y792099D01*
Y794635D02*
X647662Y794847D01*
X642608Y789793D02*
X645143D01*
X616355Y763540D02*
X642608Y789793D01*
X1003197Y723932D02*
X1058066D01*
X931950Y780811D02*
X993909Y718852D01*
X988572Y713772D02*
X1062274D01*
X1057014Y726472D02*
X1059935Y729393D01*
X994961Y721392D02*
X1059118D01*
X1061222Y716312D02*
X1064143Y719233D01*
X993909Y718852D02*
X1060170D01*
X1063091Y721773D01*
X1059118Y721392D02*
X1062039Y724313D01*
X930934Y777399D02*
X992021Y716312D01*
X897025Y830104D02*
X1003197Y723932D01*
X1058066D02*
X1060987Y726853D01*
X927485Y774859D02*
X988572Y713772D01*
X1062274D02*
X1065195Y716693D01*
X992021Y716312D02*
X1061222D01*
X934490Y781863D02*
X994961Y721392D01*
X1059935Y729393D02*
X1061760D01*
X1079016Y716693D02*
X1150771Y644938D01*
X1062039Y724313D02*
X1088414D01*
X1065195Y716693D02*
X1079016D01*
X1083588Y719233D02*
X1158391Y644430D01*
X1061760Y729393D02*
X1065951Y733584D01*
X1060987Y726853D02*
X1090954D01*
X1168551Y649256D01*
X1088414Y724313D02*
X1166011Y646716D01*
X1064143Y719233D02*
X1083588D01*
X1062667Y736124D02*
X1117134D01*
X1063915Y745645D02*
X1063922D01*
X1065823Y743744D01*
X1120291D01*
X1064771Y741204D02*
X1119239D01*
X1063719Y738664D02*
X1118187D01*
X1060766Y738025D02*
X1062667Y736124D01*
X1060759Y738025D02*
X1060766D01*
X1061818Y740565D02*
X1063719Y738664D01*
X1062870Y743105D02*
X1064771Y741204D01*
X1061811Y740565D02*
X1061818D01*
X1062863Y743105D02*
X1062870D01*
X1059612Y739172D02*
X1060759Y738025D01*
X1058759Y743617D02*
X1061811Y740565D01*
X1059811Y746157D02*
X1062863Y743105D01*
X1060863Y748697D02*
X1063915Y745645D01*
X1249831Y742581D02*
Y757460D01*
X1271221Y721191D02*
X1285952D01*
X1249831Y742581D02*
X1271221Y721191D01*
X1209191Y764100D02*
X1361235Y612056D01*
X1466823D01*
X1315325Y686086D02*
Y691818D01*
X1315617Y678798D02*
Y686086D01*
X1378246Y630859D02*
X1383364Y625741D01*
X1315617Y678798D02*
X1363556Y630859D01*
X1378246D01*
X1285952Y721191D02*
X1315325Y691818D01*
X1272945Y754412D02*
X1272978Y754379D01*
Y753900D02*
Y754379D01*
X1270677Y751599D02*
X1272978Y753900D01*
X1270677Y738646D02*
Y751599D01*
Y738646D02*
X1276501Y732822D01*
X1298141D01*
X1306904Y724059D01*
Y722035D02*
Y724059D01*
X1447951Y842332D02*
X1489112Y883493D01*
X1269389Y784874D02*
X1270133Y784130D01*
X1269389Y784874D02*
Y785146D01*
X1571895Y887500D02*
X1577745Y893350D01*
X1528853Y883493D02*
X1529156Y883190D01*
X1543073Y891064D02*
X1545737Y888400D01*
X1551524Y883190D02*
X1555834Y887500D01*
X1545737Y888400D02*
X1545978D01*
X1529156Y883190D02*
X1551524D01*
X1545978Y888524D02*
Y888780D01*
X1555834Y887500D02*
X1571895D01*
X1489112Y883493D02*
X1528853D01*
X1545978Y888780D02*
X1556815Y899616D01*
X1584194D01*
X1472005Y906396D02*
X1487337Y891064D01*
X1543073D01*
X1474367Y756952D02*
X1488083Y743236D01*
X1552576Y880650D02*
X1556886Y884960D01*
X1593187D01*
X1474367Y756952D02*
Y865156D01*
X1584194Y899616D02*
X1593235Y890576D01*
X716036Y984753D02*
X723910Y976879D01*
X1560470Y779558D02*
X1567077D01*
X1555113Y778305D02*
X1559216D01*
X1534664Y778443D02*
X1554975D01*
X1559216Y778305D02*
X1560470Y779558D01*
X1554061Y775765D02*
X1560268D01*
X1561522Y777018D02*
X1568129D01*
X1553923Y775903D02*
X1554061Y775765D01*
X1533612Y775903D02*
X1553923D01*
X1554975Y778443D02*
X1555113Y778305D01*
X1560268Y775765D02*
X1561522Y777018D01*
X1599589Y640366D02*
X1663851Y704628D01*
X1599589Y623856D02*
Y640366D01*
X1397444Y631496D02*
X1431461D01*
X1436774Y626183D01*
X1471548D01*
X1512224Y700345D02*
X1611249D01*
X1509415Y697536D02*
X1512224Y700345D01*
X1507363Y708966D02*
X1611612D01*
X1504823Y706426D02*
X1507363Y708966D01*
X1504335Y706426D02*
X1504823D01*
X1496715Y765080D02*
X1497321D01*
X1499802Y767561D01*
X1491367Y759238D02*
X1500445D01*
X1502985Y761778D01*
X1490623Y759982D02*
X1491367Y759238D01*
X1490623Y759982D02*
Y764556D01*
X1502985Y761778D02*
X1503577D01*
X1617115Y632238D02*
X1649119D01*
X1608733Y640620D02*
X1617115Y632238D01*
X1667153Y523780D02*
Y614204D01*
X1649119Y632238D02*
X1667153Y614204D01*
X1569871Y426498D02*
X1667153Y523780D01*
X1546411Y421164D02*
X1551745Y426498D01*
X1529485Y421164D02*
X1546411D01*
X1559687Y429038D02*
X1598208Y467559D01*
X1528433Y423704D02*
X1545358D01*
X1550692Y429038D02*
X1559687D01*
X1545358Y423704D02*
X1550692Y429038D01*
X1551745Y426498D02*
X1569871D01*
X1555066Y410048D02*
X1630085D01*
X1547079Y409246D02*
X1552962Y415128D01*
X1549183Y404166D02*
X1555066Y410048D01*
X1543165Y414326D02*
X1552797Y423958D01*
X1555315Y406706D02*
X1644035D01*
X1553849Y421418D02*
X1600891D01*
X1544217Y411786D02*
X1553849Y421418D01*
X1552962Y415128D02*
X1594602D01*
X1548131Y406706D02*
X1554014Y412588D01*
X1552797Y423958D02*
X1596251D01*
X1554014Y412588D02*
X1595654D01*
X1550235Y401626D02*
X1555315Y406706D01*
X1522647Y414326D02*
X1529485Y421164D01*
X1438513Y479096D02*
X1496134Y421475D01*
X1497914Y403695D02*
X1502523Y399086D01*
X1535797D02*
X1538337Y401626D01*
X1502122Y413855D02*
X1506731Y409246D01*
X1531589D02*
X1534129Y411786D01*
X1501070Y411315D02*
X1505679Y406706D01*
X1532641D02*
X1535181Y409246D01*
X1533693Y404166D02*
X1536233Y406706D01*
X1500018Y408775D02*
X1504627Y404166D01*
X1534745Y401626D02*
X1537285Y404166D01*
X1498966Y406235D02*
X1503575Y401626D01*
X1496134Y421475D02*
X1505278D01*
X1509887Y416866D01*
X1521595D01*
X1463897Y450120D02*
X1495081Y418935D01*
X1503174Y416395D02*
X1507783Y411786D01*
X1505679Y406706D02*
X1532641D01*
X1504627Y404166D02*
X1533693D01*
X1503575Y401626D02*
X1534745D01*
X1524603Y411786D02*
X1527143Y414326D01*
X1507783Y411786D02*
X1524603D01*
X1521595Y416866D02*
X1528433Y423704D01*
X1527143Y414326D02*
X1543165D01*
X1508835D02*
X1522647D01*
X1535181Y409246D02*
X1547079D01*
X1081372Y403695D02*
X1497914D01*
X1534129Y411786D02*
X1544217D01*
X1538337Y401626D02*
X1550235D01*
X1537285Y404166D02*
X1549183D01*
X1506731Y409246D02*
X1531589D01*
X1085799Y406235D02*
X1498966D01*
X1088956Y413855D02*
X1502122D01*
X1504226Y418935D02*
X1508835Y414326D01*
X1536233Y406706D02*
X1548131D01*
X1495081Y418935D02*
X1504226D01*
X1087904Y411315D02*
X1501070D01*
X1502523Y399086D02*
X1535797D01*
X1086851Y408775D02*
X1500018D01*
X1484457Y449886D02*
X1503065D01*
X1439692Y494651D02*
X1484457Y449886D01*
X1442232Y497678D02*
X1475878Y464032D01*
X1513225Y419406D02*
X1558945Y465126D01*
X1511737Y419406D02*
X1513225D01*
X1500550Y430201D02*
X1506510D01*
X1509668Y421475D02*
X1511737Y419406D01*
X1508870Y421475D02*
X1509668D01*
X1505860Y424486D02*
X1508870Y421475D01*
X1496715Y424486D02*
X1505860D01*
X1439565Y481636D02*
X1496715Y424486D01*
X1437152Y493599D02*
X1500550Y430201D01*
X1558945Y465126D02*
Y503226D01*
X1506510Y430201D02*
X1512481Y424230D01*
X1608987Y664750D02*
X1678837Y734600D01*
Y767643D01*
X1694708Y566080D02*
X1721632Y539156D01*
Y488267D02*
Y539156D01*
X1694708Y608993D02*
X1702205Y616490D01*
X1716683Y483318D02*
X1721632Y488267D01*
X1716683Y395256D02*
Y483318D01*
X1694708Y566080D02*
Y608993D01*
X1709571Y388144D02*
X1716683Y395256D01*
X1561489Y388144D02*
X1709571D01*
X1553361Y396272D02*
X1561489Y388144D01*
X1500529Y396272D02*
X1553361D01*
X1497481Y399320D02*
X1500529Y396272D01*
X1379117Y399320D02*
X1497481D01*
X1368195Y388398D02*
X1379117Y399320D01*
X1059839Y388398D02*
X1368195D01*
X1002435Y445802D02*
X1059839Y388398D01*
X771188Y725075D02*
X775592D01*
X758361Y712248D02*
X771188Y725075D01*
X755619Y712248D02*
X758361D01*
X688237Y816791D02*
X703143Y801885D01*
X688237Y816791D02*
Y896144D01*
X703143Y801885D02*
X703357D01*
X684808Y802906D02*
Y808621D01*
X679093Y814336D02*
X684808Y808621D01*
Y802906D02*
X689380Y798334D01*
X679093Y814336D02*
Y915288D01*
X668425Y811308D02*
X680998Y798735D01*
X668425Y811308D02*
Y915956D01*
X711732Y783713D02*
X712712Y782733D01*
X698905Y816642D02*
X711732Y803815D01*
X703357Y801885D02*
X709192Y796050D01*
X714272Y785035D02*
X717828Y781479D01*
X708811Y819690D02*
X714272Y814229D01*
X689380Y764973D02*
X697635Y756718D01*
X689380Y764973D02*
Y798334D01*
X678712Y789728D02*
X680998Y792014D01*
Y798735D01*
X1483458Y950852D02*
X1607345D01*
X1428393Y917734D02*
X1588921D01*
X1415947Y905288D02*
X1428393Y917734D01*
X1597602Y889376D02*
Y909052D01*
X1588921Y917734D02*
X1597602Y909052D01*
X1593187Y884960D02*
X1597602Y889376D01*
X1528104Y880650D02*
X1552576D01*
X1527801Y880953D02*
X1528104Y880650D01*
X1490164Y880953D02*
X1527801D01*
X1474367Y865156D02*
X1490164Y880953D01*
X1488083Y743236D02*
X1521865D01*
X1536363Y757734D01*
X1614869D01*
X1617429Y755174D02*
X1617877D01*
X1614869Y757734D02*
X1617429Y755174D01*
X1499802Y767561D02*
X1500700D01*
X1510919Y777780D01*
X1490623Y764556D02*
X1506387Y780320D01*
X1452523Y987838D02*
X1455825Y984536D01*
X1527199Y877348D02*
X1527531Y877016D01*
X1552534D01*
X1554854Y879336D01*
X1590640D01*
X1590957Y879019D01*
X1643098D01*
X1644476Y880396D01*
X1696617D01*
X1698141Y878872D01*
X1675553Y766858D02*
X1676297Y767602D01*
Y768695D01*
X1668423Y766858D02*
X1675553D01*
X1676297Y768695D02*
X1698141Y790539D01*
Y878872D01*
X1678837Y767643D02*
X1717662Y806468D01*
X1659025Y757460D02*
X1668423Y766858D01*
X1506387Y780320D02*
X1532787D01*
X1510919Y777780D02*
X1531735D01*
X1533612Y775903D01*
X1532787Y780320D02*
X1534664Y778443D01*
X1567077Y779558D02*
X1571141Y783622D01*
X1569105Y777993D02*
X1588221D01*
X1568129Y777018D02*
X1569105Y777993D01*
X1571141Y783622D02*
Y785525D01*
X1592091Y806475D01*
X1599801D02*
X1604397Y811071D01*
X1624470D01*
X1625113Y810429D01*
X1649122D02*
X1650001Y811308D01*
X1625113Y810429D02*
X1649122D01*
X1650001Y811308D02*
X1674011D01*
X1592091Y806475D02*
X1599801D01*
X1674011Y811308D02*
X1677690Y814987D01*
Y842299D01*
X1675932Y844057D02*
X1677690Y842299D01*
X1675932Y844057D02*
Y871415D01*
X1673503Y873844D02*
X1675932Y871415D01*
X1673503Y873844D02*
Y874554D01*
X1542716Y1019960D02*
X1683671D01*
X1450237Y906396D02*
X1472005D01*
X1441165Y830774D02*
Y897232D01*
X1450237Y906304D01*
X1228277Y934288D02*
X1228451D01*
X1159664Y935735D02*
X1226830D01*
X1228277Y934288D01*
X1256181Y998283D02*
Y1009428D01*
X1257705Y1036098D02*
X1287021Y1006782D01*
X1528732Y1047791D02*
X1544054D01*
X1567278Y1071014D01*
Y1071531D01*
X1519579Y1038638D02*
X1528732Y1047791D01*
X1606521Y1110774D02*
X1707539D01*
X1536161Y1039166D02*
X1629001D01*
X1497778Y1000783D02*
X1536161Y1039166D01*
X1495238Y1001835D02*
X1535109Y1041706D01*
X1500318Y999731D02*
X1537213Y1036626D01*
X1535109Y1041706D02*
X1615587D01*
X1537213Y1036626D02*
X1664395D01*
X1738037Y1128046D02*
X1738781Y1127302D01*
X1707539Y1110774D02*
X1724811Y1128046D01*
X1738781Y1083215D02*
Y1127302D01*
X1724811Y1128046D02*
X1738037D01*
X1762144Y1015020D02*
Y1059851D01*
X1738781Y1083215D02*
X1762144Y1059851D01*
X1759604Y1009956D02*
Y1030649D01*
X1747897Y1042357D02*
X1759604Y1030649D01*
X1762144Y1015020D02*
X1829769Y947396D01*
X1747897Y1042357D02*
Y1047499D01*
X1807992Y924377D02*
Y964596D01*
X1726187Y1063037D02*
X1727499D01*
X1736190Y1059207D02*
X1747897Y1047499D01*
X1759604Y1009956D02*
X1777385Y992176D01*
X1727499Y1063037D02*
X1731328Y1059207D01*
X1736190D01*
X1777385Y992176D02*
X1780412D01*
X1807992Y964596D01*
X1723880Y1065343D02*
X1726187Y1063037D01*
X1829769Y947396D02*
X1869165D01*
X1439165Y828774D02*
X1441165Y830774D01*
X1439165Y779396D02*
Y828774D01*
X1492191Y551298D02*
X1606193D01*
X1598208Y467559D02*
Y501509D01*
X1494175Y556566D02*
X1628504D01*
X1633772Y551298D01*
X1680742Y641616D02*
X1680865Y641493D01*
Y619821D02*
Y641493D01*
X1680742Y641616D02*
Y645719D01*
X1680865Y645842D01*
Y655626D01*
X1670582Y661975D02*
X1671975Y663368D01*
X1670582Y657872D02*
X1671975Y656479D01*
Y663368D02*
Y665298D01*
Y614523D02*
Y656479D01*
X1670582Y657872D02*
Y661975D01*
X1626465Y807134D02*
X1688942D01*
X1479250Y961012D02*
X1603137D01*
X1481354Y955932D02*
X1605241D01*
X1480302Y958472D02*
X1604189D01*
X1482406Y953392D02*
X1606293D01*
X680091Y1141780D02*
X696129D01*
X710589Y1156240D01*
X670457Y1151414D02*
X680091Y1141780D01*
X567333Y1151414D02*
X670457D01*
X557173Y1141254D02*
X567333Y1151414D01*
X557173Y1070769D02*
Y1141254D01*
X578509Y1037876D02*
X580541Y1035844D01*
X578509Y1037876D02*
Y1072928D01*
X580541Y1035844D02*
X586637D01*
X557173Y1070769D02*
X567502Y1060440D01*
Y1038469D02*
Y1060440D01*
Y1038469D02*
X570127Y1035844D01*
X574953D01*
X578001Y1032796D01*
Y1017048D02*
X579017Y1016032D01*
X578001Y1017048D02*
Y1032796D01*
X587907Y1016032D02*
X588669Y1015270D01*
X579017Y1016032D02*
X587907D01*
X588669Y990352D02*
Y1015270D01*
X583565Y985248D02*
X588669Y990352D01*
X583565Y980816D02*
Y985248D01*
X494689Y1025430D02*
X568179D01*
X573565Y1030816D01*
X545515Y1009174D02*
X551865Y1015524D01*
X568857D01*
X544463Y1011714D02*
X553565Y1020816D01*
X568857Y1015524D02*
X573565Y1010816D01*
X578255Y1006126D02*
X583565Y1000816D01*
X1052727Y421418D02*
X1055521D01*
X1021648Y460915D02*
X1035836D01*
X783068Y500285D02*
X815845D01*
X786933Y489236D02*
X1035637D01*
X785881Y486696D02*
X1034585D01*
X782016Y497745D02*
X814793D01*
X757802Y763932D02*
X757963Y764094D01*
X1050695Y415576D02*
X1056283D01*
X1059767Y439452D02*
X1087904Y411315D01*
X1057662Y434372D02*
X1085799Y406235D01*
X1058715Y436912D02*
X1086851Y408775D01*
X1469718Y955072D02*
X1502858Y988213D01*
X1052177Y739172D02*
X1059612D01*
X1051977Y746157D02*
X1059811D01*
X1053029Y743617D02*
X1058759D01*
X1050925Y748697D02*
X1060863D01*
X1045972Y743744D02*
X1050925Y748697D01*
X1049128Y736124D02*
X1052177Y739172D01*
X1048076Y738664D02*
X1053029Y743617D01*
X1047024Y741204D02*
X1051977Y746157D01*
X1116082Y733584D02*
X1203345Y646321D01*
X1065951Y733584D02*
X1116082D01*
X1074201Y693329D02*
X1094125Y673406D01*
X1075253Y695869D02*
X1109365Y661758D01*
X1076741Y698409D02*
X1118078Y657072D01*
X1080551Y700949D02*
X1140351Y641149D01*
X1347098Y681123D02*
X1350360Y677861D01*
X1306904Y722035D02*
X1347098Y681842D01*
Y681123D02*
Y681842D01*
X809903Y1065562D02*
X823242Y1052222D01*
X817269Y1044988D02*
X824401D01*
X717997Y1030816D02*
X721934Y1034753D01*
X807637Y1068102D02*
X819773D01*
X811935Y1050322D02*
X817269Y1044988D01*
X833888Y968534D02*
X856639D01*
X773492Y974753D02*
X782886Y965359D01*
X830837D01*
X833144Y967665D02*
Y967790D01*
X830837Y965359D02*
X833144Y967665D01*
Y967790D02*
X833888Y968534D01*
X792016Y1022175D02*
X795277D01*
X791588Y1021747D02*
X792016Y1022175D01*
X795706Y1021747D02*
X805544D01*
X795277Y1022175D02*
X795706Y1021747D01*
X793726Y1042575D02*
X794044D01*
X795298Y1047421D02*
Y1047739D01*
X792583Y1041432D02*
X793726Y1042575D01*
X791531Y1043972D02*
X792674Y1045115D01*
X797455Y1045986D02*
X810175D01*
X795298Y1047739D02*
X797881Y1050322D01*
X794044Y1042575D02*
X797455Y1045986D01*
X792991Y1045115D02*
X795298Y1047421D01*
X792674Y1045115D02*
X792991D01*
X805544Y1021747D02*
X806433Y1020858D01*
X701596Y1016879D02*
X773998D01*
X777004Y1013873D02*
X795806D01*
X773998Y1016879D02*
X777004Y1013873D01*
X757833Y1025430D02*
X761516Y1021747D01*
X777973Y1000792D02*
X789583D01*
X773147Y995966D02*
X777973Y1000792D01*
X788242Y1008559D02*
X797676D01*
X797318Y1001808D02*
X798219D01*
X803807Y1007396D01*
X786825Y1007142D02*
X788242Y1008559D01*
X789583Y1000685D02*
X796196D01*
X797676Y1008559D02*
X798870Y1009753D01*
X796196Y1000685D02*
X797318Y1001808D01*
X698651Y1019824D02*
Y1035336D01*
Y1019824D02*
X701596Y1016879D01*
X785285Y1040543D02*
X786174Y1041432D01*
X784914Y1059843D02*
X790633Y1065562D01*
X778661Y1051846D02*
Y1052334D01*
X784914Y1058587D01*
Y1059843D01*
X786174Y1041432D02*
X792583D01*
X761389Y1075722D02*
X800017D01*
X807637Y1068102D01*
X1117134Y736124D02*
X1205885Y647374D01*
X1118187Y738664D02*
X1182284Y674567D01*
X790633Y1065562D02*
X809903D01*
X760002Y1074335D02*
X761389Y1075722D01*
X756108Y1066260D02*
X760002Y1070154D01*
Y1074335D01*
X753217Y1066260D02*
X756108D01*
X700528Y1062599D02*
Y1072108D01*
X702556Y1059815D02*
Y1060571D01*
X700528Y1062599D02*
X702556Y1060571D01*
X704733Y1066610D02*
Y1070348D01*
X704534Y1070547D02*
X704733Y1070348D01*
Y1066610D02*
X708557Y1062786D01*
X749324Y1055057D02*
X753297Y1051084D01*
X749324Y1055057D02*
Y1062367D01*
X753217Y1066260D01*
X712486Y1084291D02*
X725943D01*
X711434Y1086831D02*
X724890D01*
X725973Y1087914D01*
X728047Y1079211D02*
X728875Y1080040D01*
X723838Y1089371D02*
X724921Y1090454D01*
X708282Y1090864D02*
X709330Y1091911D01*
X722786D01*
X720682Y1096991D02*
X722019Y1098328D01*
X699785Y1083244D02*
X711439D01*
X706178Y1095944D02*
X707226Y1096991D01*
X713543Y1078164D02*
X714590Y1079211D01*
X709334Y1088324D02*
X710382Y1089371D01*
X708278Y1094451D02*
X721734D01*
X694975Y1093404D02*
X707230D01*
X726995Y1081751D02*
X727823Y1082580D01*
X703688Y1080704D02*
X712491D01*
X701970Y1106104D02*
X703017Y1107151D01*
X684838Y1111184D02*
X699866D01*
X718578Y1102071D02*
X719915Y1103408D01*
X687719Y1118804D02*
X688767Y1119851D01*
X694703Y1114771D02*
X713317D01*
X714370Y1112231D02*
X715706Y1113568D01*
X715422Y1109691D02*
X716758Y1111028D01*
X711439Y1083244D02*
X712486Y1084291D01*
X721734Y1094451D02*
X723071Y1095788D01*
X704074Y1101024D02*
X705122Y1102071D01*
X722786Y1091911D02*
X724123Y1093248D01*
X714590Y1079211D02*
X728047D01*
X697079Y1088324D02*
X709334D01*
X689046Y1101024D02*
X704074D01*
X696027Y1090864D02*
X708282D01*
X691150Y1095944D02*
X706178D01*
X690098Y1098484D02*
X705126D01*
X685890Y1108644D02*
X700918D01*
X716474Y1107151D02*
X717810Y1108488D01*
X712491Y1080704D02*
X713538Y1081751D01*
X712983Y1070285D02*
X718922D01*
X698131Y1085784D02*
X710387D01*
X713317Y1114771D02*
X714654Y1116108D01*
X725943Y1084291D02*
X726771Y1085120D01*
X693656Y1113724D02*
X694703Y1114771D01*
X688767Y1119851D02*
X711213D01*
X701965Y1109691D02*
X715422D01*
X703022Y1103564D02*
X704070Y1104611D01*
X719630Y1099531D02*
X720967Y1100868D01*
X707230Y1093404D02*
X708278Y1094451D01*
X703017Y1107151D02*
X716474D01*
X689819Y1117311D02*
X712265D01*
X713538Y1081751D02*
X726995D01*
X687994Y1103564D02*
X703022D01*
X707226Y1096991D02*
X720682D01*
X700918Y1108644D02*
X701965Y1109691D01*
X700913Y1112231D02*
X714370D01*
X706494Y1078164D02*
X713543D01*
X711213Y1119851D02*
X713003Y1121641D01*
X710387Y1085784D02*
X711434Y1086831D01*
X712966Y1070268D02*
X712983Y1070285D01*
X705126Y1098484D02*
X706174Y1099531D01*
X712265Y1117311D02*
X713602Y1118648D01*
X710382Y1089371D02*
X723838D01*
X688771Y1116264D02*
X689819Y1117311D01*
X686942Y1106104D02*
X701970D01*
X705122Y1102071D02*
X718578D01*
X699866Y1111184D02*
X700913Y1112231D01*
X706174Y1099531D02*
X719630D01*
X704070Y1104611D02*
X717526D01*
X718863Y1105948D01*
X855811Y1101620D02*
X866518D01*
X729617Y1107218D02*
X850213D01*
X723703Y1108488D02*
X729281Y1114066D01*
X731721Y1102138D02*
X848109D01*
X733826Y1097058D02*
X846005D01*
X730669Y1104678D02*
X849161D01*
X846005Y1097058D02*
X851603Y1091460D01*
X849161Y1104678D02*
X854759Y1099080D01*
X851603Y1091460D02*
X862310D01*
X852655Y1094000D02*
X863362D01*
X851266Y1109758D02*
X856863Y1104160D01*
X850213Y1107218D02*
X855811Y1101620D01*
X848109Y1102138D02*
X853707Y1096540D01*
X737621Y1094518D02*
X844953D01*
X853707Y1096540D02*
X864414D01*
X856863Y1104160D02*
X867571D01*
X729281Y1114066D02*
X861257D01*
X732774Y1099598D02*
X847057D01*
X852655Y1094000D01*
X727441Y1119410D02*
X858615D01*
X858824Y1119619D01*
X859667Y1116870D02*
X859876Y1117079D01*
X857772Y1122159D02*
X866084D01*
X865031Y1119619D02*
X865240Y1119410D01*
X722651Y1111028D02*
X728493Y1116870D01*
X866084Y1122159D02*
X866292Y1121950D01*
X721599Y1113568D02*
X727441Y1119410D01*
X859876Y1117079D02*
X863979D01*
X864188Y1116870D01*
X721436Y1121950D02*
X857563D01*
X858824Y1119619D02*
X865031D01*
X728493Y1116870D02*
X859667D01*
X715594Y1116108D02*
X721436Y1121950D01*
X865240Y1119410D02*
X866581D01*
X866292Y1121950D02*
X867633D01*
X857563D02*
X857772Y1122159D01*
X864188Y1116870D02*
X865529D01*
X737018Y1085882D02*
X817087D01*
X738070Y1083342D02*
X816035D01*
X728963Y1095788D02*
X732774Y1099598D01*
X817087Y1085882D02*
X819129Y1083840D01*
X818139Y1088422D02*
X820181Y1086380D01*
X731866Y1087914D02*
X734914Y1090962D01*
X732664Y1085120D02*
X735966Y1088422D01*
X816035Y1083342D02*
X818077Y1081300D01*
X723071Y1095788D02*
X728963D01*
X724123Y1093248D02*
X730016D01*
X733826Y1097058D01*
X819191Y1090962D02*
X821233Y1088920D01*
X733716Y1082580D02*
X737018Y1085882D01*
X728565Y1109758D02*
X851266D01*
X735966Y1088422D02*
X818139D01*
X734768Y1080040D02*
X738070Y1083342D01*
X734914Y1090962D02*
X819191D01*
X673620Y1079159D02*
X675263Y1080802D01*
X667322Y1073560D02*
X672921Y1079159D01*
X685153Y1094772D02*
X689979D01*
X675263Y1080802D02*
X676896D01*
X672921Y1079159D02*
X673620D01*
X667322Y1072802D02*
Y1073560D01*
X679202Y1084742D02*
Y1088821D01*
X676896Y1080802D02*
X679202Y1083108D01*
Y1084742D01*
X681742Y1084088D02*
X681760Y1084071D01*
X681742Y1084088D02*
Y1087350D01*
X679202Y1088821D02*
X685153Y1094772D01*
X681760Y1082073D02*
Y1084071D01*
X679112Y1079426D02*
X681760Y1082073D01*
X681742Y1087350D02*
X681760Y1087367D01*
X698745Y1075760D02*
X703688Y1080704D01*
X698612Y1075760D02*
X698745D01*
X679112Y1074431D02*
Y1079426D01*
X675196Y1070515D02*
X679112Y1074431D01*
X669628Y1067992D02*
X672889D01*
X675196Y1070298D02*
Y1070515D01*
X672889Y1067992D02*
X675196Y1070298D01*
X689526Y1079426D02*
X692174Y1082073D01*
X686986Y1080478D02*
X689634Y1083126D01*
X697254Y1079969D02*
Y1081314D01*
X702549Y1074129D02*
Y1074219D01*
X692174Y1082073D02*
Y1083418D01*
X694631Y1077346D02*
X697254Y1079969D01*
X700528Y1072108D02*
X702549Y1074129D01*
X686986Y1071169D02*
Y1080478D01*
X689526Y1070117D02*
Y1079426D01*
X702549Y1074219D02*
X706494Y1078164D01*
X694714Y1081021D02*
Y1082366D01*
X692091Y1069090D02*
Y1078398D01*
X689634Y1083126D02*
Y1084470D01*
X694631Y1068038D02*
Y1077346D01*
X692091Y1078398D02*
X694714Y1081021D01*
X682334Y1066518D02*
X686986Y1071169D01*
X673817Y1050816D02*
X692091Y1069090D01*
X683387Y1063978D02*
X689526Y1070117D01*
X690450Y1063857D02*
X694631Y1068038D01*
X681760Y1087367D02*
Y1087787D01*
X672453Y1090962D02*
X677751D01*
X681760Y1087787D02*
X686205Y1092232D01*
X677751Y1090962D02*
X684101Y1097312D01*
X679977Y1066518D02*
X682334D01*
X681029Y1063978D02*
X683387D01*
X673565Y1050816D02*
X673817D01*
X679628Y1049079D02*
Y1052889D01*
X690523Y1063784D01*
X697254Y1081314D02*
X698925Y1082985D01*
X694714Y1082366D02*
X698131Y1085784D01*
X644277Y1068483D02*
X644872D01*
X643533Y1067739D02*
X644277Y1068483D01*
X646073Y1026140D02*
Y1066091D01*
X643820Y1071023D02*
X646487Y1073690D01*
X644872Y1068483D02*
X646487Y1070098D01*
X640664Y1078643D02*
X645946Y1083925D01*
X646487Y1070098D02*
X652926D01*
X643533Y1027192D02*
Y1067739D01*
X645946Y1085029D02*
X670929Y1110012D01*
X643406Y1084977D02*
Y1086081D01*
X637056Y1081183D02*
X639612D01*
X640993Y1069300D02*
X642716Y1071023D01*
X643820D01*
X643406Y1086081D02*
X669877Y1112552D01*
X618895Y1063022D02*
X637056Y1081183D01*
X648486Y1083977D02*
X652278Y1087769D01*
X640612Y1076103D02*
X641716D01*
X636004Y1083723D02*
X638559D01*
X639560Y1078643D02*
X640664D01*
X639612Y1081183D02*
X643406Y1084977D01*
X630042Y1065533D02*
X640612Y1076103D01*
X642768Y1073563D02*
X649100Y1079895D01*
X627502Y1066585D02*
X639560Y1078643D01*
X641664Y1073563D02*
X642768D01*
X646073Y1066091D02*
X647539Y1067558D01*
X638559Y1083723D02*
X640866Y1086029D01*
X638199Y1070098D02*
X641664Y1073563D01*
X640866Y1088585D02*
X667373Y1115092D01*
X645946Y1083925D02*
Y1085029D01*
X624160Y1071879D02*
X636004Y1083723D01*
X641716Y1076103D02*
X648486Y1082873D01*
Y1083977D01*
X649100Y1079895D02*
X655540D01*
X646487Y1073690D02*
X652926D01*
X647539Y1067558D02*
X654709D01*
X640866Y1086029D02*
Y1088585D01*
X713003Y1121641D02*
Y1145954D01*
X717029Y1149980D01*
X719915Y1103408D02*
X725807D01*
X724755Y1105948D02*
X728565Y1109758D01*
X720967Y1100868D02*
X726859D01*
X736605Y1093502D02*
X737621Y1094518D01*
X725973Y1087914D02*
X731866D01*
X725807Y1103408D02*
X729617Y1107218D01*
X722019Y1098328D02*
X727911D01*
X731068Y1090708D02*
X733862Y1093502D01*
X729136Y1070816D02*
X739122Y1080802D01*
X715706Y1113568D02*
X721599D01*
X733862Y1093502D02*
X736605D01*
X730101Y1090708D02*
X731068D01*
X726859Y1100868D02*
X730669Y1104678D01*
X727823Y1082580D02*
X733716D01*
X727911Y1098328D02*
X731721Y1102138D01*
X718863Y1105948D02*
X724755D01*
X728875Y1080040D02*
X734768D01*
X726771Y1085120D02*
X732664D01*
X717810Y1108488D02*
X723703D01*
X716758Y1111028D02*
X722651D01*
X739122Y1080802D02*
X814983D01*
X729847Y1090454D02*
X730101Y1090708D01*
X689979Y1094772D02*
X691150Y1095944D01*
X661186Y1090471D02*
X675646Y1104932D01*
X684718Y1107472D02*
X685890Y1108644D01*
X669877Y1112552D02*
X682614D01*
X685770Y1104932D02*
X686942Y1106104D01*
X676699Y1102392D02*
X686822D01*
X675646Y1104932D02*
X685770D01*
X654279Y1087769D02*
X673981Y1107472D01*
X688927Y1097312D02*
X690098Y1098484D01*
X673981Y1107472D02*
X684718D01*
X663726Y1089419D02*
X676699Y1102392D01*
X686822D02*
X687994Y1103564D01*
X680510Y1117632D02*
X681682Y1118804D01*
X686205Y1092232D02*
X693803D01*
X666266Y1088367D02*
X677751Y1099852D01*
X667373Y1115092D02*
X681562D01*
X683666Y1110012D02*
X684838Y1111184D01*
X687875Y1099852D02*
X689046Y1101024D01*
X684101Y1097312D02*
X688927D01*
X670929Y1110012D02*
X683666D01*
X677751Y1099852D02*
X687875D01*
X681562Y1115092D02*
X682734Y1116264D01*
X682614Y1112552D02*
X683786Y1113724D01*
X665631Y1117632D02*
X680510D01*
X658773Y1110774D02*
X665631Y1117632D01*
X681682Y1118804D02*
X687719D01*
X683786Y1113724D02*
X693656D01*
X682734Y1116264D02*
X688771D01*
X652926Y1073690D02*
X663726Y1084489D01*
X661186Y1085541D02*
Y1090471D01*
X652926Y1070098D02*
X666266Y1083437D01*
X668806Y1080217D02*
Y1087315D01*
X663726Y1084489D02*
Y1089419D01*
X655540Y1079895D02*
X661186Y1085541D01*
X668806Y1087315D02*
X672453Y1090962D01*
X666266Y1083437D02*
Y1088367D01*
X665327Y1076738D02*
X668806Y1080217D01*
X663889Y1076738D02*
X665327D01*
X654709Y1067558D02*
X663889Y1076738D01*
X666744Y1065108D02*
X669628Y1067992D01*
X659443Y1065108D02*
X666744D01*
X651934Y1064753D02*
X659088D01*
X669749Y1062568D02*
X671934Y1064753D01*
X659198Y1060816D02*
X660950Y1062568D01*
X669749D01*
X659088Y1064753D02*
X659443Y1065108D01*
X673242Y1064753D02*
X674093Y1065604D01*
X671934Y1064753D02*
X673242D01*
X663565Y1069045D02*
X667322Y1072802D01*
X674093Y1065604D02*
X679063D01*
X1680477Y1006571D02*
X1684415Y1002634D01*
X1467614Y960152D02*
X1497778Y990317D01*
X1502858Y988213D02*
Y998679D01*
X1500318Y989265D02*
Y999731D01*
X1466561Y962692D02*
X1495238Y991369D01*
X724921Y1090454D02*
X729847D01*
X714654Y1116108D02*
X715594D01*
X714542Y1118648D02*
X716502Y1120608D01*
X713602Y1118648D02*
X714542D01*
X716502Y1120608D02*
Y1144627D01*
X718922Y1070285D02*
X719453Y1070816D01*
X699527Y1082985D02*
X699785Y1083244D01*
X692174Y1083418D02*
X697079Y1088324D01*
X693803Y1092232D02*
X694975Y1093404D01*
X719453Y1070816D02*
X729136D01*
X689634Y1084470D02*
X696027Y1090864D01*
X698925Y1082985D02*
X699527D01*
X652278Y1087769D02*
X654279D01*
X597502Y1047569D02*
Y1053583D01*
X607088Y1047293D02*
Y1048117D01*
X597502Y1041311D02*
Y1043977D01*
X589628Y1052447D02*
X597502Y1060321D01*
X602639Y1055128D02*
Y1066550D01*
X594898Y1046581D02*
X597502Y1043977D01*
Y1047569D02*
X600099Y1044972D01*
X602603Y1046384D02*
X603565D01*
X607916Y1048945D02*
Y1052207D01*
X602639Y1066550D02*
X605814Y1069725D01*
X589628Y1049185D02*
Y1052447D01*
X600099Y1044282D02*
Y1044972D01*
X597502Y1060321D02*
Y1068685D01*
Y1053583D02*
X600099Y1056180D01*
X587088Y1053499D02*
X588923Y1055334D01*
X589628Y1049185D02*
X592232Y1046581D01*
X600042Y1048945D02*
X602603Y1046384D01*
X587088Y1048133D02*
Y1053499D01*
X603565Y1090060D02*
Y1090816D01*
X587088Y1048133D02*
X588923Y1046298D01*
X607088Y1053035D02*
Y1067407D01*
X600042Y1048945D02*
Y1052531D01*
X607088Y1053035D02*
X607916Y1052207D01*
X603565Y1090060D02*
X605814Y1087811D01*
X588923Y1055334D02*
Y1072166D01*
X600099Y1056180D02*
Y1074960D01*
X605814Y1069725D02*
Y1087811D01*
X588923Y1037604D02*
Y1046298D01*
X600042Y1052531D02*
X602639Y1055128D01*
X607088Y1048117D02*
X607916Y1048945D01*
X592232Y1046581D02*
X594898D01*
X607088Y1047293D02*
X613565Y1040816D01*
X603565Y1046384D02*
X608017Y1041932D01*
X609628Y1054753D02*
Y1062447D01*
Y1054753D02*
X613565Y1050816D01*
X811915Y827564D02*
X822845D01*
X780312Y845725D02*
X805331Y820706D01*
X780078Y848265D02*
X781364D01*
X777772Y850571D02*
X780078Y848265D01*
X781364D02*
X806383Y823246D01*
X777974Y843185D02*
X779260D01*
X800586Y838893D02*
X811915Y827564D01*
X772692Y848467D02*
X777974Y843185D01*
X794328Y838893D02*
X800586D01*
X772692Y848467D02*
Y849753D01*
X792022Y841199D02*
X794328Y838893D01*
X777772Y850571D02*
Y851857D01*
X787899Y845322D02*
X792022Y841199D01*
X779260Y843185D02*
X804279Y818166D01*
X792022Y841199D02*
Y841199D01*
X775232Y849519D02*
Y850805D01*
X779026Y845725D02*
X780312D01*
X655598Y786269D02*
Y804851D01*
Y780975D02*
X656614Y781991D01*
X655598Y786269D02*
X656614Y785253D01*
X655598Y772329D02*
Y780975D01*
X656614Y781991D02*
Y785253D01*
X774216Y904165D02*
Y907427D01*
X771676Y908479D02*
X771803Y908606D01*
X758214Y965359D02*
X782090Y941483D01*
X774216Y907427D02*
X774851Y908062D01*
X774216Y904165D02*
X774851Y903530D01*
X771676Y903113D02*
Y908479D01*
Y903113D02*
X771803Y902986D01*
X765010Y954753D02*
X774851Y944912D01*
X944523Y841768D02*
Y889794D01*
X782889Y991394D02*
X782979D01*
X783233Y991140D01*
X786289D01*
X773474Y1001861D02*
X774009Y1002396D01*
X723565Y1000816D02*
X769437D01*
X770482Y1001861D02*
X773474D01*
X769437Y1000816D02*
X770482Y1001861D01*
X786289Y991140D02*
X789083Y988346D01*
X792393D01*
X785245Y987059D02*
X786499Y985806D01*
X783195Y987059D02*
X785245D01*
X786499Y985806D02*
X793446D01*
X794699Y987059D01*
X723910Y976879D02*
X750468D01*
X701191Y995966D02*
X773147D01*
X765489Y1004348D02*
X768283Y1007142D01*
X739509Y1004348D02*
X765489D01*
X1044345Y449975D02*
X1057408Y436912D01*
X1046885Y451027D02*
X1058460Y439452D01*
X1041805Y448923D02*
X1056356Y434372D01*
X1596251Y423958D02*
X1617599Y445306D01*
X1648825Y472944D02*
Y476024D01*
X1601943Y418878D02*
X1676280Y493215D01*
X1598351Y418878D02*
X1601943D01*
X1651365Y471892D02*
Y474972D01*
X1617599Y445306D02*
X1621187D01*
X1651365Y474972D02*
X1673740Y497347D01*
X1599403Y416338D02*
X1602995D01*
X1648825Y476024D02*
X1671200Y498399D01*
X1600891Y421418D02*
X1651365Y471892D01*
X1678820Y492163D02*
Y610592D01*
X1621187Y445306D02*
X1648825Y472944D01*
X1594602Y415128D02*
X1598351Y418878D01*
X1595654Y412588D02*
X1599403Y416338D01*
X1602995D02*
X1678820Y492163D01*
X1683900Y573296D02*
X1719092Y538104D01*
X1683900Y573296D02*
Y608488D01*
X1681360Y566448D02*
Y609540D01*
X1671200Y498399D02*
Y565832D01*
X1673740Y497347D02*
Y612696D01*
X1670705Y566327D02*
X1671200Y565832D01*
X1681360Y566448D02*
X1682175Y565634D01*
X1670705Y566327D02*
Y612458D01*
X1671200Y612953D01*
X1673740Y612696D02*
X1680865Y619821D01*
X1676280Y493215D02*
Y611644D01*
X1678820Y610592D02*
X1724784Y656556D01*
X1683900Y608488D02*
X1727228Y651816D01*
X1676280Y611644D02*
X1722244Y657608D01*
X1671200Y613749D02*
X1671975Y614523D01*
X1671200Y612953D02*
Y613749D01*
X1681360Y609540D02*
X1769780Y697960D01*
X814793Y497745D02*
X817196Y495342D01*
X815845Y500285D02*
X818248Y497882D01*
X754785Y691166D02*
Y705898D01*
X757502Y840407D02*
Y872447D01*
X753565Y876384D02*
Y880816D01*
Y876384D02*
X757502Y872447D01*
X1058460Y439452D02*
X1059767D01*
X1056356Y434372D02*
X1057662D01*
X1057408Y436912D02*
X1058715D01*
X752263Y842054D02*
Y865710D01*
X749628Y868345D02*
X752263Y865710D01*
X749628Y868345D02*
Y874753D01*
X743565Y880816D02*
X749628Y874753D01*
X743565Y870816D02*
X749451Y864930D01*
Y840010D02*
X757088Y832373D01*
X749451Y840010D02*
Y864930D01*
X746668Y839201D02*
Y840465D01*
X741588Y837097D02*
Y838361D01*
X735195Y844753D02*
X741588Y838361D01*
X744128Y838149D02*
Y839413D01*
X746668Y839201D02*
X756036Y829833D01*
X744128Y838149D02*
X754984Y827293D01*
X741588Y837097D02*
X753932Y824753D01*
X931978Y829751D02*
X932077Y829850D01*
X930672Y829751D02*
X931978D01*
X922298Y838125D02*
X930672Y829751D01*
X712712Y782733D02*
X712981D01*
X715288Y777165D02*
Y780427D01*
X716431Y774716D02*
X717828Y776113D01*
Y781479D01*
X712748Y774625D02*
X715288Y777165D01*
X716431Y766330D02*
Y774716D01*
X550950Y786563D02*
Y792405D01*
X553864Y800105D02*
Y811047D01*
X547648Y797481D02*
X551324Y801157D01*
X558062Y790587D02*
Y796429D01*
X550188Y793167D02*
Y796429D01*
X558062Y790587D02*
X558824Y789825D01*
X563142Y792691D02*
X563904Y791929D01*
X551324Y801157D02*
Y816127D01*
X547648Y791639D02*
Y797481D01*
X557456Y797034D02*
X558062Y796429D01*
X557456Y709518D02*
X559078Y711140D01*
X560348Y797735D02*
X560602Y797481D01*
X550188Y796429D02*
X553864Y800105D01*
X547648Y791639D02*
X548410Y790877D01*
X550188Y793167D02*
X550950Y792405D01*
X560602Y791639D02*
X561364Y790877D01*
X560602Y791639D02*
Y797481D01*
X551324Y816127D02*
X559205Y824008D01*
X553864Y811047D02*
X568095Y825278D01*
X561364Y720758D02*
X561618Y720504D01*
X558824Y719706D02*
Y789825D01*
X556284Y718653D02*
Y781229D01*
X550950Y786563D02*
X556284Y781229D01*
X560522Y708992D02*
X561618Y710088D01*
X548410Y785511D02*
Y790877D01*
X561364Y720758D02*
Y790877D01*
X556284Y718653D02*
X556538Y718400D01*
X558824Y719706D02*
X559078Y719452D01*
X553864Y709518D02*
X556538Y712192D01*
X630907Y812590D02*
X637502Y819185D01*
X631959Y810050D02*
X640042Y818133D01*
X642582Y809615D02*
Y893031D01*
X647662Y794847D02*
Y905223D01*
X616355Y723170D02*
Y763540D01*
X302810Y844328D02*
X392727D01*
X305967Y836708D02*
X395883D01*
X408204Y784493D02*
X413538D01*
X432860Y803815D01*
X354765Y771521D02*
X391640D01*
X414658Y789205D02*
X431808Y806355D01*
X354510Y759075D02*
X393922D01*
X354765Y752217D02*
X390656D01*
X393922Y759075D02*
X430788Y795941D01*
X390656Y752217D02*
X431840Y793401D01*
X388882Y765171D02*
X408204Y784493D01*
X391640Y771521D02*
X409324Y789205D01*
X354510Y765171D02*
X388882D01*
X431840Y793401D02*
X437174D01*
X354510Y739771D02*
X392942D01*
X418600Y770271D02*
X421228D01*
X419652Y767731D02*
X422280D01*
X395446Y745867D02*
X412266Y762687D01*
X355780Y726309D02*
X383072D01*
X354510Y745867D02*
X395446D01*
X383072Y726309D02*
X417346Y760583D01*
X412266Y762687D02*
Y767529D01*
X417346Y765425D02*
X419652Y767731D01*
X417548Y772811D02*
X420176D01*
X414806Y766477D02*
X418600Y770271D01*
X414806Y761635D02*
Y766477D01*
X412266Y767529D02*
X417548Y772811D01*
X417346Y760583D02*
Y765425D01*
X392942Y739771D02*
X414806Y761635D01*
X301014Y846124D02*
X301758Y846868D01*
X302067Y843584D02*
X302810Y844328D01*
X303119Y841044D02*
X303863Y841788D01*
X304171Y838504D02*
X304915Y839248D01*
X301141Y831882D02*
X305967Y836708D01*
X301141Y666020D02*
Y831882D01*
X441933Y823664D02*
X446355D01*
X464844Y834969D02*
Y837343D01*
X431808Y806355D02*
X436230D01*
X349619Y808768D02*
X427037D01*
X428089Y806228D02*
X442985Y821124D01*
X432860Y803815D02*
X437282D01*
X440881Y826204D02*
X445303D01*
X422280Y767731D02*
X516279Y861730D01*
X493292Y862199D02*
Y875697D01*
X436230Y806355D02*
X464844Y834969D01*
X442985Y821124D02*
X447407D01*
X350671Y806228D02*
X428089D01*
X421228Y770271D02*
X513485Y862528D01*
X348567Y811308D02*
X425985D01*
X440881Y826204D01*
X437174Y793401D02*
X505611Y861838D01*
X427037Y808768D02*
X441933Y823664D01*
X420176Y772811D02*
X509675Y862310D01*
X445303Y826204D02*
X457224Y838125D01*
X446355Y823664D02*
X459764Y837073D01*
X471067Y863104D02*
Y1002461D01*
X345410Y818928D02*
X419707D01*
X457224Y838125D02*
Y840499D01*
X468527Y864156D02*
Y1003514D01*
X459764Y837073D02*
Y839447D01*
X447407Y821124D02*
X462304Y836021D01*
X346462Y816388D02*
X420759D01*
X347514Y813848D02*
X421811D01*
X465987Y865208D02*
Y1004566D01*
X462304Y836021D02*
Y838395D01*
X658392Y807645D02*
Y856149D01*
X658265Y856276D02*
Y925516D01*
X663565Y930816D01*
X658265Y856276D02*
X658392Y856149D01*
X717502Y986879D02*
X783015D01*
X713565Y990816D02*
X717502Y986879D01*
X783015D02*
X783195Y987059D01*
X703565Y990816D02*
X707997D01*
X714060Y984753D01*
X716036D01*
X700429Y986060D02*
X707033D01*
X708303Y984790D01*
Y977932D02*
Y984790D01*
X753719Y1076992D02*
X754989Y1078262D01*
X739725Y1074960D02*
X741757Y1076992D01*
X753719D01*
X846225Y1146842D02*
X848257Y1144810D01*
X718717Y1146842D02*
X846225D01*
X716502Y1144627D02*
X718717Y1146842D01*
X676807Y1046258D02*
X679628Y1049079D01*
X643787Y1023854D02*
X646073Y1026140D01*
X643787Y1007142D02*
Y1023854D01*
X642263Y1005618D02*
X643787Y1007142D01*
X613565Y1000816D02*
X618367Y1005618D01*
X642263D01*
X640739Y1024398D02*
X643533Y1027192D01*
X640739Y1019334D02*
Y1024398D01*
X637437Y1016032D02*
X640739Y1019334D01*
X623565Y1010816D02*
X628781Y1016032D01*
X637437D01*
X618895Y1047528D02*
X620673Y1045750D01*
X626007D01*
X618895Y1047528D02*
Y1063022D01*
X627277Y1045242D02*
X628547Y1043972D01*
Y1035834D02*
Y1043972D01*
X626007Y1045750D02*
X626515Y1045242D01*
X627277D01*
X628547Y1035834D02*
X633565Y1030816D01*
X640993Y1028244D02*
Y1069300D01*
X633565Y1020816D02*
X640993Y1028244D01*
X630042Y1054753D02*
Y1065533D01*
Y1054753D02*
X633979Y1050816D01*
X751934Y974753D02*
X773492D01*
X645122Y807817D02*
Y900905D01*
X640606Y905420D02*
X645122Y900905D01*
X639977Y895636D02*
X642582Y893031D01*
X595019Y895636D02*
X639977D01*
X636929Y915956D02*
X647662Y905223D01*
X595619Y885222D02*
X637963D01*
X640042Y883143D01*
X589628Y874753D02*
X635196D01*
X593903Y881154D02*
Y883505D01*
X595619Y885222D01*
X635196Y874753D02*
X637502Y872447D01*
X593565Y880816D02*
X593903Y881154D01*
X607973Y915956D02*
X636929D01*
X655598Y804851D02*
X658392Y807645D01*
X1859820Y825293D02*
X1901005Y784108D01*
X1859820Y825293D02*
Y832926D01*
X1835946Y717997D02*
X1901005Y783056D01*
Y784108D01*
X1778499Y825249D02*
X1798648D01*
X1766165Y830396D02*
X1773353D01*
X1778499Y825249D01*
X1821216Y718349D02*
X1821568Y717997D01*
X1816761D02*
X1817113Y718349D01*
X1803438Y717997D02*
X1816761D01*
X1817113Y718349D02*
X1821216D01*
X1821568Y717997D02*
X1835946D01*
X1767684Y682243D02*
X1803438Y717997D01*
X1852843Y839903D02*
X1859820Y832926D01*
X1813302Y839903D02*
X1852843D01*
X1798648Y825249D02*
X1813302Y839903D01*
X1758281Y682243D02*
X1767684D01*
X1727855Y651816D02*
X1758281Y682243D01*
X1727228Y651816D02*
X1727855D01*
X1719092Y489319D02*
Y538104D01*
X1699280Y469507D02*
X1719092Y489319D01*
X1699280Y461951D02*
Y469507D01*
X1644035Y406706D02*
X1699280Y461951D01*
X732415Y885984D02*
X757618D01*
X762786Y880816D01*
X729893Y895890D02*
X752923D01*
X762997Y885816D01*
X763354D01*
X766723Y882447D01*
X727088Y893085D02*
X729893Y895890D01*
X762582Y823069D02*
Y824551D01*
X760042Y822017D02*
Y823499D01*
X726636Y853059D02*
Y858319D01*
X727502Y859185D01*
X724548Y865401D02*
X727502Y862447D01*
X724548Y865401D02*
Y893869D01*
X727088Y866453D02*
Y893085D01*
Y866453D02*
X730042Y863499D01*
Y858133D02*
Y863499D01*
X729176Y857267D02*
X730042Y858133D01*
X729176Y854111D02*
Y857267D01*
X729948Y848519D02*
Y853339D01*
X753932Y824753D02*
X755195D01*
X757502Y822447D01*
Y820965D02*
Y822447D01*
X754984Y827293D02*
X756248D01*
X756036Y829833D02*
X757300D01*
X718463Y899954D02*
X724548Y893869D01*
X727408Y847467D02*
X728877Y845997D01*
X727408Y847467D02*
Y852287D01*
X727502Y859185D02*
Y862447D01*
X757088Y832373D02*
X758352D01*
X726636Y853059D02*
X727408Y852287D01*
X756248Y827293D02*
X760042Y823499D01*
X733714Y844753D02*
X735195D01*
X729628Y867505D02*
Y883197D01*
X758352Y832373D02*
X765122Y825603D01*
X733565Y867160D02*
Y870816D01*
Y867160D02*
X735122Y865603D01*
X728877Y817404D02*
Y845997D01*
X729948Y848519D02*
X733714Y844753D01*
X765122Y824339D02*
Y825603D01*
X729628Y867505D02*
X732582Y864551D01*
X757300Y829833D02*
X762582Y824551D01*
X729176Y854111D02*
X729948Y853339D01*
X729628Y883197D02*
X732415Y885984D01*
X1716552Y496515D02*
Y537052D01*
X1716557Y693238D02*
X1722244Y687551D01*
X1671975Y665298D02*
X1702171Y695494D01*
X1687970Y565634D02*
X1716552Y537052D01*
X1682175Y565634D02*
X1687970D01*
X1716557Y693238D02*
Y727460D01*
X1630085Y410048D02*
X1716552Y496515D01*
X1769780Y697960D02*
X1772075D01*
X1722244Y657608D02*
Y687551D01*
X730782Y694341D02*
X742593Y682530D01*
X734719Y694468D02*
X744117Y685070D01*
X815765Y830104D02*
X821793D01*
X788440Y857429D02*
X815765Y830104D01*
X788440Y857429D02*
Y861591D01*
X1073916Y529769D02*
X1130685D01*
X1129054Y533706D02*
Y534462D01*
X1130955Y536363D01*
Y614385D01*
X1056862Y524689D02*
X1139484D01*
X1057914Y527229D02*
X1132586D01*
X1139484Y524689D02*
X1142024Y522149D01*
X1153311Y580713D02*
Y628047D01*
X1156482Y546421D02*
Y581134D01*
X1155851Y581765D02*
Y620741D01*
Y581765D02*
X1156482Y581134D01*
X1153942Y545368D02*
Y580082D01*
X1153311Y580713D02*
X1153942Y580082D01*
X1153311Y628047D02*
X1158391Y633127D01*
X1153942Y545368D02*
X1156482Y542828D01*
X1048935Y525812D02*
X1055739D01*
X1056862Y524689D01*
X1156482Y546421D02*
X1159022Y543881D01*
X1158391Y633127D02*
Y644430D01*
X1140351Y618150D02*
Y641149D01*
X1041569Y533178D02*
X1048935Y525812D01*
X1140103Y520478D02*
X1140972Y519609D01*
X1139228Y613765D02*
Y617027D01*
X1140351Y618150D01*
X1094125Y660706D02*
Y673406D01*
X937411Y526066D02*
X986687D01*
X924945Y777399D02*
X930934D01*
X922044Y780300D02*
Y787051D01*
X885595Y823500D02*
X922044Y787051D01*
Y780300D02*
X924945Y777399D01*
X906323Y796021D02*
Y799179D01*
X919504Y779248D02*
Y782840D01*
Y779248D02*
X923893Y774859D01*
X885559Y819944D02*
X906323Y799179D01*
Y796021D02*
X919504Y782840D01*
X923893Y774859D02*
X927485D01*
X841871Y819944D02*
X885559D01*
X831949Y828580D02*
X887699D01*
X888715Y827564D02*
X888789D01*
X887699Y828580D02*
X888715Y827564D01*
X833001Y831120D02*
X888751D01*
X889767Y830104D01*
X832457Y826040D02*
X886647D01*
X887737Y825024D02*
X925456Y787305D01*
X887663Y825024D02*
X887737D01*
X889767Y830104D02*
X897025D01*
X888789Y827564D02*
X926508Y789845D01*
X886647Y826040D02*
X887663Y825024D01*
X829536Y823119D02*
X832457Y826040D01*
X840855Y820960D02*
X841871Y819944D01*
X831640Y818039D02*
X834561Y820960D01*
X817896Y823246D02*
X818023Y823119D01*
X821793Y830104D02*
X825222Y833533D01*
X806383Y823246D02*
X817896D01*
X833509Y823500D02*
X885595D01*
X825222Y833533D02*
X830588D01*
Y820579D02*
X833509Y823500D01*
X826274Y830993D02*
X829536D01*
X822845Y827564D02*
X826274Y830993D01*
X814602Y820706D02*
X814729Y820579D01*
X818023Y823119D02*
X829536D01*
Y830993D02*
X831949Y828580D01*
X834561Y820960D02*
X840855D01*
X830588Y833533D02*
X833001Y831120D01*
X814729Y820579D02*
X830588D01*
X807998Y818039D02*
X831640D01*
X805331Y820706D02*
X814602D01*
X807871Y818166D02*
X807998Y818039D01*
X804279Y818166D02*
X807871D01*
X760482Y942009D02*
X769263Y933228D01*
X757833Y937546D02*
X766723Y928656D01*
X703565Y950816D02*
X712372Y942009D01*
X760482D01*
X708303Y937546D02*
X757833D01*
X925456Y787305D02*
X929048D01*
X931950Y784403D01*
X926508Y789845D02*
X930100D01*
X934490Y785455D01*
Y781863D02*
Y785455D01*
X931950Y780811D02*
Y784403D01*
X699159Y946690D02*
Y975222D01*
Y946690D02*
X708303Y937546D01*
X678265Y926116D02*
X687983D01*
X689253Y909352D02*
Y924846D01*
X687983Y926116D02*
X689253Y924846D01*
X673565Y930816D02*
X678265Y926116D01*
X693565Y980816D02*
X699159Y975222D01*
X708811Y950002D02*
X712631Y946182D01*
X708811Y950002D02*
Y953294D01*
X769263Y946182D02*
X771803Y943642D01*
X712631Y946182D02*
X769263D01*
X706271Y955834D02*
X708811Y953294D01*
X703565Y960660D02*
X706271Y957954D01*
Y955834D02*
Y957954D01*
X703565Y960660D02*
Y960816D01*
X708811Y957612D02*
X711670Y954753D01*
X708811Y957612D02*
Y962946D01*
X711670Y954753D02*
X765010D01*
X706271Y965486D02*
X708811Y962946D01*
X703565Y970660D02*
Y970816D01*
Y970660D02*
X706271Y967954D01*
Y965486D02*
Y967954D01*
X708811Y967010D02*
Y972852D01*
Y967010D02*
X710462Y965359D01*
X758214D01*
X705763Y975900D02*
X708811Y972852D01*
X705763Y975900D02*
Y977862D01*
X703565Y980060D02*
Y980816D01*
Y980060D02*
X705763Y977862D01*
X708303Y977932D02*
X710589Y975646D01*
X721551D01*
X540155Y895128D02*
X541232Y894051D01*
X543965Y891064D02*
Y891172D01*
X541232Y893905D02*
X543965Y891172D01*
X541232Y893905D02*
Y894051D01*
X532027Y895128D02*
X540155D01*
X529487Y457339D02*
X576731Y410095D01*
X526947Y456287D02*
X570381Y412853D01*
X754785Y691166D02*
X755801Y690150D01*
X749959D02*
X752499Y687610D01*
X583565Y880816D02*
X589628Y874753D01*
X593495Y890810D02*
Y894112D01*
X595019Y895636D01*
X603655Y901732D02*
Y904526D01*
X604549Y905420D01*
X640606D01*
X603909Y911892D02*
X607973Y915956D01*
X558465Y838764D02*
Y842867D01*
X559205Y824008D02*
Y838024D01*
X558465Y838764D02*
X559205Y838024D01*
Y863632D02*
X561491Y865918D01*
X558465Y842867D02*
X559205Y843607D01*
Y863632D01*
X587145Y793762D02*
X609517Y816134D01*
X584605Y790734D02*
Y797084D01*
X587145Y789682D02*
Y793762D01*
X568095Y838488D02*
X568371Y838764D01*
X568095Y825278D02*
Y838488D01*
Y843143D02*
Y858806D01*
X568371Y838764D02*
Y842867D01*
X568095Y843143D02*
X568371Y842867D01*
X557456Y809051D02*
X578509Y830104D01*
X576223Y791206D02*
Y798318D01*
X573683Y792258D02*
Y799370D01*
X569720Y788296D02*
X573683Y792258D01*
Y799370D02*
X589939Y815626D01*
X572786Y787769D02*
X576223Y791206D01*
Y798318D02*
X589721Y811816D01*
X595273D01*
X593318Y826879D02*
Y830181D01*
X593495Y830358D01*
X589939Y815626D02*
X595491D01*
X584605Y797084D02*
X597051Y809530D01*
X609517Y816134D02*
X616609D01*
X578509Y781046D02*
X587145Y789682D01*
X575736Y781865D02*
X584605Y790734D01*
X590265Y789210D02*
X601369D01*
X581049Y779994D02*
X590265Y789210D01*
X601369D02*
X628293Y816134D01*
X622197Y468408D02*
Y481362D01*
X627785Y469424D02*
Y481362D01*
X615847Y468916D02*
Y481362D01*
X622197D02*
X628547Y487712D01*
X634135Y469170D02*
Y481362D01*
X638707Y485934D01*
X728877Y817404D02*
X731925Y814356D01*
X718209Y817404D02*
Y861028D01*
X720241Y863060D01*
Y891826D01*
X708811Y903256D02*
X720241Y891826D01*
X715288Y765187D02*
X716431Y766330D01*
X715288Y761925D02*
Y765187D01*
X708811Y819690D02*
Y884206D01*
X708049Y884968D02*
X708811Y884206D01*
X708049Y884968D02*
Y889032D01*
X699050Y898031D02*
Y899083D01*
Y898031D02*
X708049Y889032D01*
X699050Y899083D02*
X699159Y899192D01*
Y904018D01*
X698905Y816642D02*
Y891043D01*
X693327Y896621D02*
X698905Y891043D01*
X697127Y906050D02*
X699159Y904018D01*
X689253Y909352D02*
X692555Y906050D01*
X697127D01*
X692191Y896621D02*
X693327D01*
X688017Y900796D02*
X692191Y896621D01*
X688017Y900796D02*
Y906364D01*
X683565Y910816D02*
X688017Y906364D01*
X683565Y900816D02*
X688237Y896144D01*
X673565Y920816D02*
X679093Y915288D01*
X663565Y920816D02*
X668425Y915956D01*
X655852Y740061D02*
Y772075D01*
X655217Y739426D02*
X655852Y740061D01*
X655598Y772329D02*
X655852Y772075D01*
X693565Y920816D02*
X698679Y915702D01*
X693565Y930816D02*
X706139Y918242D01*
X803807Y1008642D02*
X805862Y1010698D01*
X801048Y1009753D02*
X804533Y1013238D01*
X739604Y1074960D02*
X739725D01*
X657502Y1054753D02*
X673070D01*
X737451Y1073563D02*
X738207D01*
X739604Y1074960D01*
X680115Y1063064D02*
X681029Y1063978D01*
X677502Y1060669D02*
X679897Y1063064D01*
X680115D01*
X673070Y1054753D02*
X677502Y1059185D01*
Y1060669D01*
X679063Y1065604D02*
X679977Y1066518D01*
X653565Y1060816D02*
X659198D01*
X653565Y1050816D02*
X657502Y1054753D01*
X681062Y1011341D02*
X683039D01*
X670893Y1015268D02*
X677136D01*
X683039Y1011341D02*
X683565Y1010816D01*
X677136Y1015268D02*
X681062Y1011341D01*
X668933Y1017227D02*
Y1043718D01*
Y1017227D02*
X670893Y1015268D01*
X586637Y1035844D02*
X588415Y1034066D01*
X588923Y1037604D02*
X590429Y1036098D01*
X588415Y1027208D02*
Y1034066D01*
X589181Y1026442D02*
X589685Y1025938D01*
X588415Y1027208D02*
X589181Y1026442D01*
X589685Y1025938D02*
X596289D01*
X598582Y1023644D01*
X600737D02*
X603565Y1020816D01*
X598582Y1023644D02*
X600737D01*
X598321Y1028478D02*
X600099Y1026700D01*
X609449D01*
X590711Y1087914D02*
X591599Y1087025D01*
Y1087015D02*
Y1087025D01*
X591717Y1074960D02*
Y1086898D01*
X591599Y1087015D02*
X591717Y1086898D01*
X588923Y1072166D02*
X591717Y1074960D01*
X590429Y1036098D02*
X596797D01*
X598321Y1034574D01*
Y1028478D02*
Y1034574D01*
X609449Y1026700D02*
X613565Y1030816D01*
X603565Y1031108D02*
Y1035248D01*
X597502Y1041311D02*
X603565Y1035248D01*
X600099Y1044282D02*
X603565Y1040816D01*
X596065Y1070122D02*
X597502Y1068685D01*
X596065Y1070122D02*
Y1090816D01*
X620437Y996238D02*
X623721Y999522D01*
X609987Y996238D02*
X620437D01*
X609243Y996982D02*
X609987Y996238D01*
X609243Y996982D02*
Y1014508D01*
X610513Y1015778D01*
X616101D01*
X618133Y1017810D01*
Y1033050D01*
X614304Y1036879D02*
X618133Y1033050D01*
X611934Y1036879D02*
X614304D01*
X608017Y1040796D02*
Y1041932D01*
Y1040796D02*
X611934Y1036879D01*
X1616095Y546406D02*
X1621175Y551486D01*
X1495384Y546406D02*
X1616095D01*
X650455Y1110774D02*
X658773D01*
X607088Y1067407D02*
X650455Y1110774D01*
X621656Y1071879D02*
X624160D01*
X616355Y1066578D02*
X621656Y1071879D01*
X609628Y1062447D02*
X613759Y1066578D01*
X616355D01*
X627502Y1054753D02*
Y1066585D01*
X623565Y1050816D02*
X627502Y1054753D01*
X648613Y1025088D02*
Y1061432D01*
X651934Y1064753D01*
X647089Y1023564D02*
X648613Y1025088D01*
X632028Y1026879D02*
X636036D01*
X647089Y1003332D02*
Y1023564D01*
X638199Y1029042D02*
Y1070098D01*
X636036Y1026879D02*
X638199Y1029042D01*
X625598Y1016441D02*
X628342Y1019185D01*
Y1023193D01*
X671473Y1046258D02*
X676807D01*
X680871Y1045750D02*
X695349D01*
X678077Y1042956D02*
X680871Y1045750D01*
X695349D02*
X700429Y1050830D01*
X668933Y1043718D02*
X671473Y1046258D01*
X708557Y1047020D02*
Y1062786D01*
X628342Y1023193D02*
X632028Y1026879D01*
X613920Y1011171D02*
X617502D01*
X622772Y1016441D01*
X625598D01*
X613565Y1010816D02*
X613920Y1011171D01*
X644573Y1000816D02*
X647089Y1003332D01*
X633500Y1000816D02*
X644573D01*
X928521Y855240D02*
Y896652D01*
X856639Y968534D02*
X928521Y896652D01*
X944523Y841768D02*
X945666Y840625D01*
X926235Y839756D02*
Y842804D01*
X931569Y848138D01*
Y899446D01*
X803807Y1007396D02*
Y1008642D01*
X798870Y1009753D02*
X801048D01*
X768283Y1007142D02*
X786825D01*
X698651Y1010162D02*
Y1013492D01*
Y1010162D02*
X701934Y1006879D01*
X725610Y1004339D02*
X739500D01*
X739509Y1004348D01*
X723070Y1006879D02*
X725610Y1004339D01*
X701934Y1006879D02*
X723070D01*
X731934D02*
X736488D01*
X726725Y1008412D02*
X730401D01*
X723565Y1010816D02*
X724321D01*
X730401Y1008412D02*
X731934Y1006879D01*
X724321Y1010816D02*
X726725Y1008412D01*
X748763Y971582D02*
X751934Y974753D01*
X725615Y971582D02*
X748763D01*
X721551Y975646D02*
X725615Y971582D01*
X698651Y987838D02*
X700429Y986060D01*
X698651Y987838D02*
Y993172D01*
X693565Y1000060D02*
X695603Y998022D01*
Y996220D02*
Y998022D01*
Y996220D02*
X698651Y993172D01*
X693565Y1000060D02*
Y1000816D01*
X698143Y999014D02*
Y1004348D01*
Y999014D02*
X701191Y995966D01*
X687983Y1007904D02*
Y1012984D01*
Y1007904D02*
X690015Y1005872D01*
X696619D01*
X698143Y1004348D01*
X1120291Y743744D02*
X1182701Y681334D01*
X1119239Y741204D02*
X1182175Y678268D01*
X1442105Y503198D02*
Y518926D01*
X1369410Y591621D02*
X1442105Y518926D01*
X1442232Y497678D02*
Y503071D01*
X1442105Y503198D02*
X1442232Y503071D01*
X1289869Y594161D02*
X1292409Y591621D01*
X1288020Y594161D02*
X1289869D01*
X1292409Y591621D02*
X1369410D01*
X1285895Y596286D02*
Y596334D01*
X1278470Y603759D02*
X1285895Y596334D01*
Y596286D02*
X1288020Y594161D01*
X1263343Y681334D02*
X1278470Y666207D01*
X1182701Y681334D02*
X1263343D01*
X1278470Y603759D02*
Y666207D01*
X1439565Y502146D02*
Y517874D01*
X1368358Y589081D02*
X1439565Y517874D01*
X1439692Y494651D02*
Y502019D01*
X1439565Y502146D02*
X1439692Y502019D01*
X1288817Y591621D02*
X1291357Y589081D01*
X1286968Y591621D02*
X1288817D01*
X1291357Y589081D02*
X1368358D01*
X1283355Y595234D02*
Y595282D01*
X1275930Y602707D02*
X1283355Y595282D01*
Y595234D02*
X1286968Y591621D01*
X1262817Y678268D02*
X1275930Y665155D01*
X1182175Y678268D02*
X1262817D01*
X1275930Y602707D02*
Y665155D01*
X1415435Y483768D02*
Y509576D01*
X1436163Y481636D02*
X1439565D01*
X1415435Y483768D02*
X1417694Y481509D01*
X1436036D02*
X1436163Y481636D01*
X1417694Y481509D02*
X1436036D01*
X1205885Y601760D02*
X1206629Y601016D01*
X1205885Y601760D02*
Y647374D01*
X1295303Y572032D02*
X1326531Y540804D01*
X1295303Y572032D02*
Y574359D01*
X1384207Y540804D02*
X1415435Y509576D01*
X1326531Y540804D02*
X1384207D01*
X1256685Y601016D02*
X1273700Y584001D01*
X1206629Y601016D02*
X1256685D01*
X1285660Y584001D02*
X1295303Y574359D01*
X1273700Y584001D02*
X1285660D01*
X1437152Y493599D02*
Y500967D01*
X1437025Y501094D02*
X1437152Y500967D01*
X1290305Y586541D02*
X1367306D01*
X1287765Y589081D02*
X1290305Y586541D01*
X1437025Y501094D02*
Y516822D01*
X1367306Y586541D02*
X1437025Y516822D01*
X1280815Y594182D02*
Y594230D01*
X1273390Y601655D02*
X1280815Y594230D01*
X1285916Y589081D02*
X1287765D01*
X1280815Y594182D02*
X1285916Y589081D01*
X1262926Y674567D02*
X1273390Y664103D01*
X1182284Y674567D02*
X1262926D01*
X1273390Y601655D02*
Y664103D01*
X936268Y903092D02*
Y903673D01*
X1203345Y600708D02*
Y646321D01*
X699413Y1044988D02*
X706525D01*
X688237Y1016322D02*
Y1033812D01*
X699413Y1044988D01*
X703223Y1050830D02*
X703477Y1050576D01*
X678077Y1022890D02*
X687983Y1012984D01*
X700429Y1050830D02*
X703223D01*
X678077Y1022890D02*
Y1042956D01*
X689035Y1015524D02*
X696619D01*
X688237Y1016322D02*
X689035Y1015524D01*
X706525Y1044988D02*
X708557Y1047020D01*
X696619Y1015524D02*
X698651Y1013492D01*
X708303Y1026700D02*
Y1034574D01*
Y1026700D02*
X709573Y1025430D01*
X757833D01*
X708303Y1034574D02*
X710081Y1036352D01*
X719101D01*
X704131Y1040816D02*
X713237D01*
X698651Y1035336D02*
X704131Y1040816D01*
X719101Y1036352D02*
X722781Y1040032D01*
Y1040162D01*
X713565Y1030816D02*
X717997D01*
X797881Y1050322D02*
X811935D01*
X1742306Y948312D02*
X1758843Y964849D01*
X1579070Y948312D02*
X1742306D01*
X1767550Y967988D02*
X1790847D01*
X1743934Y944373D02*
X1767550Y967988D01*
X1653313Y944373D02*
X1743934D01*
X1758253Y941376D02*
X1802785D01*
X1654365Y941833D02*
X1757796D01*
X1758253Y941376D01*
X1716425Y874066D02*
Y892100D01*
X1727808Y1109649D02*
X1728343Y1109115D01*
X1729205Y1104569D02*
Y1105839D01*
X1728343Y1106702D02*
Y1109115D01*
Y1106702D02*
X1729205Y1105839D01*
X1805452Y917734D02*
Y921837D01*
X1807992Y924377D01*
X1805452Y917734D02*
X1807992Y915194D01*
Y887675D02*
Y915194D01*
X1736618Y875209D02*
X1795526D01*
X1807992Y887675D01*
X1731538Y870129D02*
X1736618Y875209D01*
X1725108Y1069832D02*
Y1077479D01*
Y1100472D02*
X1729205Y1104569D01*
X1723871Y1078716D02*
X1725108Y1077479D01*
X1723880Y1068605D02*
X1725108Y1069832D01*
Y1083214D02*
Y1100472D01*
X1723880Y1065343D02*
Y1068605D01*
X1723871Y1081977D02*
X1725108Y1083214D01*
X1723871Y1078716D02*
Y1081977D01*
X1701361Y883561D02*
Y886859D01*
Y883561D02*
X1714794Y870129D01*
X1731538D01*
X627023Y865918D02*
X628293Y864648D01*
Y816134D02*
Y864648D01*
X617371Y856012D02*
X618641Y854742D01*
Y818166D02*
Y854742D01*
X608481Y820706D02*
Y846106D01*
X596797Y838486D02*
X598829Y836454D01*
Y818964D02*
Y836454D01*
X578509Y830104D02*
Y845597D01*
X616609Y816134D02*
X618641Y818166D01*
X597178Y809403D02*
X608481Y820706D01*
X1495238Y991369D02*
Y1001835D01*
X1637198Y981417D02*
X1658415Y1002634D01*
X1627134Y981417D02*
X1637198D01*
X1604189Y958472D02*
X1627134Y981417D01*
X603909Y910876D02*
Y911892D01*
X616355Y723170D02*
X638707Y700818D01*
X594365Y840772D02*
X596651Y838486D01*
X596797D01*
X593749Y840772D02*
X594365D01*
X583565Y840812D02*
X588161Y836216D01*
X573565Y850541D02*
Y850816D01*
Y850541D02*
X578509Y845597D01*
X593652Y863756D02*
X595813Y865918D01*
X627023D01*
X593565Y860816D02*
X593652Y860903D01*
Y863756D01*
X603909Y850678D02*
X608481Y846106D01*
X603655Y830358D02*
X603909Y830104D01*
X583030Y829799D02*
X584097Y830866D01*
X583030Y827259D02*
Y829799D01*
X568857Y865664D02*
X573429Y870236D01*
X569628Y860339D02*
X572930D01*
X573429Y860838D01*
X568095Y858806D02*
X569628Y860339D01*
X583589Y856774D02*
Y860838D01*
X610513Y719360D02*
X628547Y701326D01*
X606449Y718598D02*
Y779812D01*
X602893Y717328D02*
Y780574D01*
X609243Y468916D02*
Y481362D01*
X584351Y856012D02*
X617371D01*
X583589Y856774D02*
X584351Y856012D01*
X595273Y811816D02*
X603909Y820452D01*
Y830104D01*
X595491Y815626D02*
X598829Y818964D01*
X566063Y865664D02*
X568857D01*
X561491Y865918D02*
X565809D01*
X566063Y865664D01*
X576731Y380270D02*
Y410095D01*
X570381Y380524D02*
Y412853D01*
X563777Y380524D02*
Y415865D01*
X518618Y461023D02*
X563777Y415865D01*
X557427Y381032D02*
Y418623D01*
X516078Y459971D02*
X557427Y418623D01*
X551839Y380524D02*
Y420619D01*
X513538Y458919D02*
X551839Y420619D01*
X505738Y445167D02*
Y445167D01*
Y445167D02*
X513231Y437674D01*
Y381286D02*
Y437674D01*
X491768Y472905D02*
X498298Y479435D01*
X504994Y445911D02*
Y445911D01*
Y445911D02*
X505738Y445167D01*
X491768Y459137D02*
Y472905D01*
Y459137D02*
X504994Y445911D01*
X519835Y381286D02*
Y434662D01*
X494308Y471853D02*
X500838Y478383D01*
X494308Y460189D02*
Y471853D01*
X507534Y446963D02*
X519835Y434662D01*
X494308Y460189D02*
X507534Y446963D01*
Y446963D02*
Y446963D01*
X526185Y381032D02*
Y431904D01*
X496848Y470801D02*
X503378Y477331D01*
X496848Y461241D02*
X526185Y431904D01*
X496848Y461241D02*
Y470801D01*
X532535Y381286D02*
Y429146D01*
X505918Y455763D02*
X532535Y429146D01*
X538885Y380778D02*
Y426388D01*
X508458Y456815D02*
X538885Y426388D01*
X545489Y380778D02*
Y423376D01*
X510998Y457867D02*
X545489Y423376D01*
X561618Y710088D02*
Y720504D01*
X559078Y711140D02*
Y719452D01*
X556538Y712192D02*
Y718400D01*
X553998Y713244D02*
Y717347D01*
X551324Y710570D02*
X553998Y713244D01*
X553617Y880650D02*
Y881412D01*
X538415Y832174D02*
X542187Y835946D01*
X538415Y828618D02*
Y832174D01*
X542187Y835946D02*
X546505D01*
X548537Y837978D02*
Y845788D01*
X552652Y849903D02*
Y850626D01*
X548537Y845788D02*
X552652Y849903D01*
X546505Y835946D02*
X548537Y837978D01*
X543203Y840772D02*
X543711D01*
X538123Y835692D02*
X543203Y840772D01*
X516802Y841026D02*
X533551D01*
X542949Y859822D02*
Y860584D01*
X538885Y855758D02*
X542949Y859822D01*
X522913Y855758D02*
X538885D01*
X457351Y790196D02*
X522913Y855758D01*
X542441Y850424D02*
X542695D01*
X537615Y845598D02*
X542441Y850424D01*
X523682Y860838D02*
X533043D01*
X466495Y786408D02*
X512219Y832132D01*
X512937D02*
X516497Y835692D01*
X512219Y832132D02*
X512937D01*
X463447Y787671D02*
X516802Y841026D01*
X517782Y845598D02*
X537615D01*
X509261Y837078D02*
X517782Y845598D01*
X508543Y837078D02*
X509261D01*
X454303Y791459D02*
X523682Y860838D01*
X538123Y886238D02*
X543711Y880650D01*
X528725Y886238D02*
X538123D01*
X548283Y886746D02*
X553617Y881412D01*
X507643Y890048D02*
X510111D01*
X562253Y887762D02*
Y898684D01*
X558951Y884460D02*
X562253Y887762D01*
X560221Y900716D02*
X562253Y898684D01*
X490752Y881031D02*
X499515Y889794D01*
X441349Y642652D02*
Y642870D01*
X414171Y462566D02*
X414679Y462058D01*
X409889Y462566D02*
X414171D01*
X408837Y460026D02*
X413119D01*
X413627Y459518D01*
X445921D01*
X492911Y412528D01*
X414679Y462058D02*
X466749D01*
X442619Y456978D02*
X487069Y412528D01*
X407574Y456978D02*
X442619D01*
X439825Y453930D02*
X481227Y412528D01*
X406312Y453930D02*
X439825D01*
X506881Y381794D02*
Y421926D01*
X466749Y462058D02*
X506881Y421926D01*
X460399Y788933D02*
X508543Y837078D01*
X460399Y678443D02*
Y788933D01*
X457351Y679706D02*
Y790196D01*
X454303Y680968D02*
Y791459D01*
X405049Y450882D02*
X437031D01*
X475385Y412528D01*
X403787Y447834D02*
X434237D01*
X469543Y412528D01*
X402524Y444786D02*
X431443D01*
X463701Y412528D01*
X487069Y384214D02*
Y412528D01*
Y384214D02*
X488339Y382944D01*
Y381032D02*
Y382944D01*
X481227Y381794D02*
Y412528D01*
Y381794D02*
X481735Y381286D01*
X463701Y384722D02*
Y412528D01*
X462431Y383452D02*
X463701Y384722D01*
X462431Y382048D02*
Y383452D01*
X469543Y382302D02*
Y412528D01*
X468781Y381540D02*
X469543Y382302D01*
X475385Y381540D02*
Y412528D01*
X492911Y386633D02*
Y412528D01*
Y386633D02*
X494181Y385364D01*
Y380016D02*
Y385364D01*
X312825Y789934D02*
X344358Y821468D01*
X315365Y788882D02*
X345410Y818928D01*
X317905Y787830D02*
X346462Y816388D01*
X320445Y786778D02*
X347514Y813848D01*
X322985Y785726D02*
X348567Y811308D01*
X325525Y784674D02*
X349619Y808768D01*
X328065Y783622D02*
X350671Y806228D01*
X312825Y719528D02*
Y789934D01*
X315365Y720939D02*
Y788882D01*
X322985Y725173D02*
Y785726D01*
X312825Y719528D02*
X349732Y682621D01*
X315365Y720939D02*
X347587Y688717D01*
X317905Y722350D02*
Y787830D01*
Y722350D02*
X345188Y695067D01*
X320445Y723762D02*
Y786778D01*
Y723762D02*
X343044Y701163D01*
X322985Y725173D02*
X340899Y707259D01*
X325525Y726584D02*
Y784674D01*
Y726584D02*
X338500Y713609D01*
X328065Y727996D02*
Y783622D01*
Y727996D02*
X335848Y720213D01*
X349732Y682621D02*
X355780D01*
X347587Y688717D02*
X355780D01*
X345188Y695067D02*
X356035D01*
X343044Y701163D02*
X356035D01*
X340899Y707259D02*
X356035D01*
X338500Y713609D02*
X356288D01*
X335848Y720213D02*
X356035D01*
X301014Y846124D02*
X301014D01*
X300271Y845380D02*
X301014Y846124D01*
X300271Y845380D02*
X300271D01*
X299527Y844636D02*
X300271Y845380D01*
X299527Y844636D02*
X299527D01*
X298783Y843892D02*
X299527Y844636D01*
X298783Y843892D02*
X298783D01*
X289646Y834756D02*
X298783Y843892D01*
X302066Y843584D02*
X302067D01*
X301323Y842840D02*
X302066Y843584D01*
X301323Y842840D02*
X301323D01*
X300579Y842096D02*
X301323Y842840D01*
X300579Y842096D02*
X300579D01*
X292520Y834037D02*
X300579Y842096D01*
X303119Y841044D02*
X303119D01*
X302375Y840300D02*
X303119Y841044D01*
X302375Y840300D02*
X302375D01*
X295393Y833319D02*
X302375Y840300D01*
X295393Y660272D02*
Y833319D01*
Y660272D02*
X305303Y650363D01*
X304171Y838504D02*
X304171D01*
X298267Y832600D02*
X304171Y838504D01*
X298267Y663146D02*
Y832600D01*
Y663146D02*
X304700Y656713D01*
X354510D01*
X301141Y666020D02*
X304098Y663063D01*
X354510D01*
X305303Y650363D02*
X354765D01*
X289646Y654525D02*
Y834756D01*
X292520Y657399D02*
Y834037D01*
X289646Y654525D02*
X306254Y637917D01*
X354510D01*
X292520Y657399D02*
X305905Y644013D01*
X354510D01*
X1753041Y972621D02*
X1757968Y977547D01*
X1542129Y1019373D02*
X1542716Y1019960D01*
X1524139D02*
X1538281D01*
X1538867Y1019373D02*
X1542129D01*
X1538281Y1019960D02*
X1538867Y1019373D01*
X1502858Y998679D02*
X1524139Y1019960D01*
X1683671D02*
X1701165Y1037454D01*
X1709032Y1070333D02*
X1719045Y1080346D01*
X1699534Y1070333D02*
X1709032D01*
X1672597Y1043396D02*
X1699534Y1070333D01*
X1671165Y1043396D02*
X1672597D01*
X1664395Y1036626D02*
X1671165Y1043396D01*
X1701165Y1037454D02*
Y1066396D01*
X1652818Y1084505D02*
X1658624D01*
X1664228Y1059634D02*
Y1078901D01*
X1658624Y1084505D02*
X1664228Y1078901D01*
X1643634Y1069753D02*
X1649352Y1075471D01*
Y1081039D01*
X1643634Y1068929D02*
Y1069753D01*
X1641328Y1066623D02*
X1643634Y1068929D01*
X1649352Y1081039D02*
X1652818Y1084505D01*
X1640504Y1066623D02*
X1641328D01*
X1615587Y1041706D02*
X1640504Y1066623D01*
X1491635Y711506D02*
X1584468D01*
X1639318Y728414D02*
Y785804D01*
X1611249Y700345D02*
X1639318Y728414D01*
X1139228Y613765D02*
X1140351Y612642D01*
Y560122D02*
Y612642D01*
X1350360Y677861D02*
X1351078D01*
X1397444Y631496D01*
X1588221Y777993D02*
X1593108Y782880D01*
Y783561D02*
X1600744Y791197D01*
X1593760Y770285D02*
X1596913Y767132D01*
X1824910Y750795D02*
X1857899D01*
X1878982Y771878D01*
Y772591D01*
X1891685Y785294D01*
X1790085Y742896D02*
Y763576D01*
X1752345Y705157D02*
X1790085Y742896D01*
X1658389Y986183D02*
X1749332D01*
X1631615Y959410D02*
X1658389Y986183D01*
X1613363Y956870D02*
X1680028D01*
X1680308Y957150D02*
X1746973D01*
X1680028Y956870D02*
X1680308Y957150D01*
X1746973D02*
X1753041Y963218D01*
X1607345Y950852D02*
X1613363Y956870D01*
X1628186Y978877D02*
X1641158D01*
X1664915Y1002634D02*
X1664915D01*
X1641158Y978877D02*
X1664915Y1002634D01*
X1412006Y483605D02*
X1416642Y478969D01*
X1404350Y517069D02*
X1412006Y509413D01*
Y483605D02*
Y509413D01*
X1322408Y517069D02*
X1404350D01*
X1437215Y479096D02*
X1438513D01*
X1437088Y478969D02*
X1437215Y479096D01*
X1416642Y478969D02*
X1437088D01*
X1593108Y782880D02*
Y783561D01*
X1600744Y791197D02*
X1610527D01*
X1626465Y807134D01*
X1717662Y806468D02*
Y829869D01*
X1713805Y833726D02*
Y839635D01*
Y833726D02*
X1717662Y829869D01*
X1596913Y767132D02*
X1618889D01*
X1632605Y753416D01*
X1603137Y961012D02*
X1632097Y989972D01*
Y994883D01*
X1636778Y734132D02*
Y782263D01*
X1631335Y787706D02*
X1636778Y782263D01*
X1637845Y787277D02*
X1639318Y785804D01*
X1637845Y787277D02*
Y788033D01*
X1611612Y708966D02*
X1636778Y734132D01*
X1383364Y625741D02*
X1392976D01*
X1396364Y622352D01*
X1403751D01*
X1730034Y781483D02*
X1755468D01*
X1757594Y779356D02*
X1758351D01*
X1755468Y781483D02*
X1757594Y779356D01*
X1205577Y598476D02*
X1255633D01*
X1270850Y583259D01*
Y568627D02*
Y583259D01*
X1203345Y600708D02*
X1205577Y598476D01*
X1270850Y568627D02*
X1322408Y517069D01*
X1491447Y536434D02*
X1495445Y532436D01*
X1491447Y536434D02*
Y550554D01*
X1492191Y551298D01*
X1724784Y685363D02*
X1744578Y705157D01*
X1724784Y656556D02*
Y685363D01*
X1719988Y760955D02*
X1725011Y765978D01*
X1702171Y732403D02*
X1703749Y733981D01*
X1725011Y776460D02*
X1730034Y781483D01*
X1716557Y727460D02*
X1731665Y742568D01*
Y777546D01*
X1772075Y697960D02*
X1824910Y750795D01*
X1702171Y695494D02*
Y732403D01*
X1725011Y765978D02*
Y776460D01*
X1710432Y760955D02*
X1719988D01*
X1703749Y754272D02*
X1710432Y760955D01*
X1703749Y733981D02*
Y754272D01*
X1744578Y705157D02*
X1752345D01*
X1109365Y651816D02*
Y661758D01*
X1118078Y627262D02*
Y657072D01*
Y627262D02*
X1130955Y614385D01*
X1612311Y959410D02*
X1631615D01*
X1605241Y955932D02*
X1628186Y978877D01*
X1632097Y994883D02*
X1643785Y1006571D01*
X1606293Y953392D02*
X1612311Y959410D01*
X1753041Y963218D02*
Y972621D01*
X1497778Y990317D02*
Y1000783D01*
X1643785Y1006571D02*
X1680477D01*
X1629001Y1039166D02*
X1649939Y1060104D01*
D60*
X498974Y937292D02*
X655471D01*
X494718Y933036D02*
X498974Y937292D01*
X655471D02*
X663565Y945386D01*
Y960816D01*
X1452561Y377444D02*
Y390140D01*
X1446213Y383792D01*
X1454677D01*
D64*
X1437251Y682306D02*
X1440722Y685778D01*
X1459885D01*
X1483165Y688754D02*
Y714396D01*
X1492165Y723396D01*
X1543810Y669041D02*
X1569585D01*
X1459885Y685778D02*
X1480189D01*
X1351543Y682964D02*
X1387122D01*
X1392964Y677122D02*
X1428543D01*
X1433727Y682306D01*
X1437251D01*
X1387122Y682964D02*
X1392964Y677122D01*
X1480189Y685778D02*
X1488782D01*
X1513165Y661396D01*
X1536165D01*
X1543810Y669041D01*
X1480189Y685778D02*
X1483165Y688754D01*
X1492165Y723396D02*
X1555437D01*
X1561993Y716840D01*
D65*
X1831865Y989496D02*
Y1053664D01*
X1835297Y1057096D01*
X1831865Y1143803D02*
X1835297Y1140371D01*
X1831865Y1143803D02*
Y1146996D01*
X1835297Y1057096D02*
Y1140371D01*
D66*
X1141716Y1045324D02*
G03*
X1146020Y1047020I-2191J11872D01*
G01*
X1143908Y1042991D02*
G03*
X1146435Y1044033I-4383J14205D01*
G01*
X1175531Y1040800D02*
G03*
X1175539Y1040797I683J1362D01*
G01*
X1151162Y1047020D02*
X1157043Y1046756D01*
X1146020Y1047020D02*
X1151162D01*
X1157784Y1046710D02*
X1166819Y1043660D01*
X1156580Y1043962D02*
X1165662Y1040866D01*
X1146801Y1044226D02*
X1150005D01*
X1156580Y1043962D01*
X1166819Y1043660D02*
X1167136Y1043343D01*
X1165979Y1040549D02*
X1166747Y1039781D01*
X1157043Y1046756D02*
X1157784Y1046710D01*
X1167136Y1043343D02*
X1167269Y1043210D01*
X1165662Y1040866D02*
X1165979Y1040549D01*
X1105132Y1043021D02*
X1140630Y1045124D01*
X1141870Y1042412D02*
X1143077Y1042734D01*
X1101253Y1041686D02*
X1103158Y1039781D01*
X1106735D02*
X1140885Y1042330D01*
X1146435Y1044033D02*
X1146801Y1044226D01*
X1103869Y1043021D02*
X1105132Y1043021D01*
X1140630Y1045124D02*
X1141716Y1045324D01*
X1140885Y1042330D02*
X1141870Y1042412D01*
X1102410Y1044480D02*
X1103869Y1043021D01*
X1103158Y1039781D02*
X1106735D01*
X1143077Y1042734D02*
X1143908Y1042991D01*
X1170710Y1039781D02*
X1171414Y1039077D01*
X1166747Y1039781D02*
X1170710D01*
X1171414Y1039077D02*
X1172488Y1038003D01*
X1171414Y1039077D02*
X1171414D01*
X493927Y947452D02*
X494614D01*
X492911D02*
X493927D01*
X494614D02*
X496392Y945674D01*
X498150D01*
X499166Y944658D01*
X637437D01*
X496467Y941864D02*
X642009D01*
X1273199Y996907D02*
Y1011460D01*
X1275739Y993680D02*
Y994367D01*
X1277263Y999014D02*
Y1012768D01*
X1273199Y996907D02*
X1275739Y994367D01*
X1067733Y1044480D02*
X1102410D01*
X1066576Y1041686D02*
X1101253D01*
X1054759Y1053503D02*
X1066576Y1041686D01*
X1054759Y1053503D02*
Y1068356D01*
X1059818Y1052394D02*
X1067733Y1044480D01*
X1167269Y1043210D02*
X1170727D01*
X1171694Y1042725D01*
X1175531Y1040800D01*
X1174806Y1038003D02*
X1177346Y1035463D01*
X1179886D01*
X1178503Y1038257D02*
X1181043D01*
X1175539Y1040797D02*
X1175963D01*
X1178503Y1038257D01*
X1172488Y1038003D02*
X1174806D01*
X1179886Y1035463D02*
X1185220Y1030129D01*
X1181043Y1038257D02*
X1181297Y1038003D01*
X1182648D01*
X1059818Y1052394D02*
Y1062280D01*
X1182648Y1038003D02*
X1187728Y1032923D01*
X1185220Y1030129D02*
X1242844D01*
X1187728Y1032923D02*
X1244001D01*
X1244871Y1032053D01*
X1242844Y1030129D02*
X1243713Y1029259D01*
X1244871Y1032053D02*
X1257978D01*
X1243713Y1029259D02*
X1255558D01*
X1273278Y1011539D01*
X1273199Y1011460D02*
X1273278Y1011539D01*
X1257978Y1032053D02*
X1277263Y1012768D01*
X637437Y944658D02*
X640739Y947960D01*
Y959136D01*
X642009Y941864D02*
X646581Y946436D01*
Y963832D01*
X639059Y960816D02*
X640739Y959136D01*
X633500Y960816D02*
X639059D01*
X646581Y963832D02*
X653565Y970816D01*
D69*
X707715Y425196D02*
D03*
X313365Y526146D02*
D03*
D70*
X427015Y425196D02*
D03*
X313365Y806846D02*
D03*
D71*
X371305Y884926D02*
D03*
D72*
X341305Y931926D02*
D03*
D73*
X401305D02*
D03*
D74*
X296305D02*
D03*
D75*
X462215Y608526D02*
D03*
Y583126D02*
D03*
Y557726D02*
D03*
Y532326D02*
D03*
X436815D02*
D03*
Y557726D02*
D03*
Y583126D02*
D03*
X1281765Y574596D02*
D03*
X1180165D02*
D03*
X1205565D02*
D03*
X1256365D02*
D03*
X1230965D02*
D03*
X1307165D02*
D03*
X1332565D02*
D03*
X1464965Y974396D02*
D03*
X1164925Y1057196D02*
D03*
X1562565Y802696D02*
D03*
X1464965Y745796D02*
D03*
X1129685Y628956D02*
D03*
X1439565Y745796D02*
D03*
X1562565Y853496D02*
D03*
X1266525Y1057196D02*
D03*
X1088725D02*
D03*
X1114125D02*
D03*
X1139525D02*
D03*
X1190325D02*
D03*
X1215725D02*
D03*
X1241125D02*
D03*
X1291925D02*
D03*
X1510365Y574596D02*
D03*
X1484965D02*
D03*
X1459565D02*
D03*
X1434165D02*
D03*
X1408765D02*
D03*
X1537165Y802696D02*
D03*
X1562565Y828096D02*
D03*
X1537165D02*
D03*
X1439565Y974396D02*
D03*
X1414165D02*
D03*
X1388765D02*
D03*
X1363365D02*
D03*
X1337965D02*
D03*
X1312565D02*
D03*
X1223665Y466396D02*
D03*
X1249065D02*
D03*
X1274465D02*
D03*
X1223665Y491796D02*
D03*
X1249065D02*
D03*
X1104285Y628956D02*
D03*
X1078885D02*
D03*
X1357965Y1057196D02*
D03*
X1383365D02*
D03*
X1408765D02*
D03*
X1434165D02*
D03*
X1459565D02*
D03*
X1484965D02*
D03*
X1510365D02*
D03*
X1312565Y745796D02*
D03*
X1337965D02*
D03*
X1363365D02*
D03*
X1388765D02*
D03*
X1414165D02*
D03*
D76*
X436815Y608526D02*
D03*
X1537165Y853496D02*
D03*
D77*
X567365Y480515D02*
D03*
X552600Y486631D02*
D03*
X546484Y501396D02*
D03*
X552600Y516161D02*
D03*
X567365Y522276D02*
D03*
D03*
X582130Y516161D02*
D03*
X588245Y501396D02*
D03*
X582130Y486631D02*
D03*
X389565Y645615D02*
D03*
X374800Y651731D02*
D03*
X368684Y666496D02*
D03*
X374800Y681261D02*
D03*
X389565Y687376D02*
D03*
D03*
X404330Y681261D02*
D03*
X410445Y666496D02*
D03*
X404330Y651731D02*
D03*
X311930Y1110631D02*
D03*
X318045Y1125396D02*
D03*
X311930Y1140161D02*
D03*
X297165Y1146276D02*
D03*
X282400Y1140161D02*
D03*
X276284Y1125396D02*
D03*
X282400Y1110631D02*
D03*
X297165Y1104515D02*
D03*
X311930Y390631D02*
D03*
X318045Y405396D02*
D03*
X311930Y420161D02*
D03*
X297165Y426276D02*
D03*
X282400Y420161D02*
D03*
X276284Y405396D02*
D03*
X282400Y390631D02*
D03*
X297165Y384515D02*
D03*
X928165Y386515D02*
D03*
X913400Y392631D02*
D03*
X907284Y407396D02*
D03*
X913400Y422161D02*
D03*
X928165Y428276D02*
D03*
D03*
X942930Y422161D02*
D03*
X949045Y407396D02*
D03*
X942930Y392631D02*
D03*
X1561165Y604515D02*
D03*
X1546400Y610631D02*
D03*
X1540284Y625396D02*
D03*
X1546400Y640161D02*
D03*
X1561165Y646276D02*
D03*
X1575930Y640161D02*
D03*
X1582045Y625396D02*
D03*
X1575930Y610631D02*
D03*
X995930D02*
D03*
X1002045Y625396D02*
D03*
X995930Y640161D02*
D03*
X981165Y646276D02*
D03*
X966400Y640161D02*
D03*
X960284Y625396D02*
D03*
X966400Y610631D02*
D03*
X981165Y604515D02*
D03*
Y1094515D02*
D03*
X966400Y1100631D02*
D03*
X960284Y1115396D02*
D03*
X966400Y1130161D02*
D03*
X981165Y1136276D02*
D03*
X995930Y1130161D02*
D03*
X1002045Y1115396D02*
D03*
X995930Y1100631D02*
D03*
X1575930D02*
D03*
X1582045Y1115396D02*
D03*
X1575930Y1130161D02*
D03*
X1561165Y1136276D02*
D03*
X1546400Y1130161D02*
D03*
X1540284Y1115396D02*
D03*
X1546400Y1100631D02*
D03*
X1561165Y1094515D02*
D03*
X1915930Y390631D02*
D03*
X1922045Y405396D02*
D03*
X1915930Y420161D02*
D03*
X1901165Y426276D02*
D03*
X1886400Y420161D02*
D03*
X1880284Y405396D02*
D03*
X1886400Y390631D02*
D03*
X1901165Y384515D02*
D03*
D78*
X567365Y501396D02*
D03*
X389565Y666496D02*
D03*
X297165Y1125396D02*
D03*
Y405396D02*
D03*
X928165Y407396D02*
D03*
X1561165Y625396D02*
D03*
X981165D02*
D03*
Y1115396D02*
D03*
X1561165D02*
D03*
X1901165Y405396D02*
D03*
D79*
X282515Y1083596D02*
D03*
Y997196D02*
D03*
D80*
X324315Y1083596D02*
D03*
Y997196D02*
D03*
D81*
X319315Y1069296D02*
D03*
Y1011496D02*
D03*
X1697565Y1101146D02*
D03*
X1639765D02*
D03*
D82*
X822865Y761516D02*
D03*
X464265Y1120116D02*
D03*
D83*
X774445Y1133776D02*
D03*
X724445D02*
D03*
X861105Y399186D02*
D03*
X811105D02*
D03*
D84*
X1357965Y574596D02*
D03*
X1053485Y628956D02*
D03*
X1317325Y1057196D02*
D03*
X1535765Y574596D02*
D03*
X1287165Y974396D02*
D03*
X1274465Y491796D02*
D03*
X1535765Y1057196D02*
D03*
X1287165Y745796D02*
D03*
D85*
X1841666Y571397D02*
D03*
X1637165D02*
D03*
D86*
X1773465Y1112696D02*
D03*
X1798865Y1049196D02*
D03*
Y1074596D02*
D03*
Y1099996D02*
D03*
X1773465Y1036496D02*
D03*
Y1061896D02*
D03*
Y1087296D02*
D03*
D87*
X1385465Y1128096D02*
D03*
X1436265D02*
D03*
X1258465D02*
D03*
X1334665Y1102696D02*
D03*
X1512465D02*
D03*
X1182265Y1128096D02*
D03*
X1131465Y1102696D02*
D03*
X1080665Y1128096D02*
D03*
X1233065Y1102696D02*
D03*
X1512465Y1128096D02*
D03*
X1487065D02*
D03*
Y1102696D02*
D03*
X1461665Y1128096D02*
D03*
Y1102696D02*
D03*
X1436265D02*
D03*
X1410865Y1128096D02*
D03*
Y1102696D02*
D03*
X1385465D02*
D03*
X1360065Y1128096D02*
D03*
Y1102696D02*
D03*
X1334665Y1128096D02*
D03*
X1309265D02*
D03*
Y1102696D02*
D03*
X1283865Y1128096D02*
D03*
Y1102696D02*
D03*
X1258465D02*
D03*
X1233065Y1128096D02*
D03*
X1207665D02*
D03*
Y1102696D02*
D03*
X1182265D02*
D03*
X1156865Y1128096D02*
D03*
Y1102696D02*
D03*
X1131465Y1128096D02*
D03*
X1106065D02*
D03*
Y1102696D02*
D03*
X1080665D02*
D03*
X1055265Y1128096D02*
D03*
Y1102696D02*
D03*
X1029865Y1128096D02*
D03*
D88*
X1763565Y402896D02*
D03*
X1658565D02*
D03*
X1693565D02*
D03*
X1728565D02*
D03*
X1833565D02*
D03*
X1798565D02*
D03*
D89*
X1325265Y491796D02*
D03*
Y466396D02*
D03*
X1096665Y491796D02*
D03*
Y466396D02*
D03*
X1299865D02*
D03*
Y491796D02*
D03*
X1071265Y466396D02*
D03*
Y491796D02*
D03*
X1122065Y466396D02*
D03*
X1147465D02*
D03*
X1172865D02*
D03*
X1198265D02*
D03*
X1122065Y491796D02*
D03*
X1147465D02*
D03*
X1172865D02*
D03*
X1401465D02*
D03*
X1376065D02*
D03*
X1350665D02*
D03*
X1426865Y466396D02*
D03*
X1401465D02*
D03*
X1376065D02*
D03*
X1350665D02*
D03*
D90*
X413695Y1051306D02*
D03*
Y1016306D02*
D03*
D91*
X1911365Y1004996D02*
D03*
X1896165Y1131496D02*
D03*
Y1030396D02*
D03*
X1911365Y1106096D02*
D03*
D92*
X1029865Y1102696D02*
D03*
D93*
X1198265Y491796D02*
D03*
X1426865D02*
D03*
D94*
X1862365Y1125396D02*
D03*
Y1011096D02*
D03*
D95*
X1798865Y1023796D02*
D03*
D96*
X1831865Y1146996D02*
D03*
Y989496D02*
D03*
D97*
X1711865Y1137946D02*
D03*
X1625465D02*
D03*
D98*
X1711865Y1096146D02*
D03*
X1625465D02*
D03*
D99*
X1468431Y682843D02*
D03*
X1459330Y693773D02*
D03*
X1459885Y685778D02*
D03*
X542387Y564674D02*
D03*
X577573Y564801D02*
D03*
X503833Y903002D02*
D03*
X824635Y602774D02*
D03*
X747419Y580422D02*
D03*
X716431Y674989D02*
D03*
X513200Y951272D02*
D03*
X551585Y637064D02*
D03*
X551839Y651288D02*
D03*
X653565Y870816D02*
D03*
X563523Y803942D02*
D03*
X569746Y795437D02*
D03*
X523151Y830612D02*
D03*
X573653Y880904D02*
D03*
X1028089Y1031780D02*
D03*
X1035072Y1039525D02*
D03*
X1178076Y1031399D02*
D03*
X1183439Y965170D02*
D03*
X1194565Y986727D02*
D03*
X1199928Y981369D02*
D03*
X1189516Y962555D02*
D03*
X1222907Y964470D02*
D03*
X1152793Y1034818D02*
D03*
X1163979Y1036802D02*
D03*
X1202841Y986790D02*
D03*
X1177949Y995458D02*
D03*
X1272437Y884206D02*
D03*
X1272183Y890556D02*
D03*
X1210207Y997744D02*
D03*
X274363Y771022D02*
D03*
X777391Y1043972D02*
D03*
X383437Y785654D02*
D03*
X1060497Y456689D02*
D03*
X1120037Y437674D02*
D03*
X1086439Y425531D02*
D03*
X1057807Y482124D02*
D03*
X1044444Y490335D02*
D03*
X1035792Y479921D02*
D03*
X1049425Y460026D02*
D03*
X1244243Y422434D02*
D03*
X1221637Y421926D02*
D03*
X1059839Y414560D02*
D03*
X1063194Y422036D02*
D03*
X1058823Y425228D02*
D03*
X1067459Y417354D02*
D03*
X1080413Y404146D02*
D03*
X1356511Y506000D02*
D03*
X1321205Y504730D02*
D03*
X496467Y941610D02*
D03*
X495324Y931704D02*
D03*
X501065Y872014D02*
D03*
X484275Y854488D02*
D03*
X493927Y947452D02*
D03*
X519835Y794290D02*
D03*
X495959Y798608D02*
D03*
X472083Y778034D02*
D03*
X524407Y720072D02*
D03*
X402487Y707930D02*
D03*
X402233Y718090D02*
D03*
X470675Y1024552D02*
D03*
X434237Y876140D02*
D03*
X503734Y911106D02*
D03*
X428268Y991902D02*
D03*
X340083Y1038070D02*
D03*
X340104Y1032736D02*
D03*
X345591Y1042702D02*
D03*
X340143Y1047922D02*
D03*
X344067Y1023144D02*
D03*
X344321Y1053116D02*
D03*
X487577Y969550D02*
D03*
X526693Y1108234D02*
D03*
X573899Y1060482D02*
D03*
X479946Y1033823D02*
D03*
X491503Y1045380D02*
D03*
X475882Y1029759D02*
D03*
X512193Y1066070D02*
D03*
X485407Y1039284D02*
D03*
X414979Y867904D02*
D03*
X534313Y809530D02*
D03*
Y821214D02*
D03*
X553871Y861092D02*
D03*
X513739Y806990D02*
D03*
X545042Y749840D02*
D03*
X543203Y743236D02*
D03*
X747419Y797338D02*
D03*
X1063649Y986568D02*
D03*
X439124Y848584D02*
D03*
X1770165Y475396D02*
D03*
Y464396D02*
D03*
X1612472Y739510D02*
D03*
X1663655Y833892D02*
D03*
X1657845Y829955D02*
D03*
X1653845Y852857D02*
D03*
X1647801Y828436D02*
D03*
X1166773Y835184D02*
D03*
X1089303Y1014762D02*
D03*
X1126641Y998760D02*
D03*
X1064665Y1012222D02*
D03*
X1010563Y1023906D02*
D03*
X925473Y1019842D02*
D03*
X830477Y930942D02*
D03*
X1147977Y756190D02*
D03*
X1148666Y763229D02*
D03*
X1101971Y752693D02*
D03*
X1102765Y757968D02*
D03*
X1096161Y749332D02*
D03*
X948968Y976408D02*
D03*
X904337Y762032D02*
D03*
X902613Y748316D02*
D03*
X887627Y730282D02*
D03*
Y739139D02*
D03*
X1164360Y826347D02*
D03*
X1157502Y801915D02*
D03*
X1174012Y775815D02*
D03*
X1167027Y766985D02*
D03*
X1156807Y759292D02*
D03*
X1161227Y756305D02*
D03*
X1198165Y744379D02*
D03*
X1170075Y746919D02*
D03*
X1164816Y748953D02*
D03*
X856402Y729715D02*
D03*
X852760Y733652D02*
D03*
X848168Y719255D02*
D03*
X858417Y723918D02*
D03*
X731925Y742728D02*
D03*
X713637Y752774D02*
D03*
X635405Y748316D02*
D03*
X591971Y750856D02*
D03*
X600071Y795052D02*
D03*
X623975Y697516D02*
D03*
X1143655Y526086D02*
D03*
X892961Y510572D02*
D03*
X931823Y580930D02*
D03*
X932077Y567722D02*
D03*
X763092Y737311D02*
D03*
X775486Y731552D02*
D03*
X772877Y721138D02*
D03*
X1187093Y807498D02*
D03*
X1192300Y808655D02*
D03*
X1188236Y818684D02*
D03*
X1221002Y885835D02*
D03*
X1166392Y878457D02*
D03*
X1157121Y1003528D02*
D03*
X1151787D02*
D03*
X1022593Y1033008D02*
D03*
X1238401Y865566D02*
D03*
X1215076Y844539D02*
D03*
X1245503Y873528D02*
D03*
X1252117Y803180D02*
D03*
X1262176Y905949D02*
D03*
X1283359Y901224D02*
D03*
X1273453Y974884D02*
D03*
X1277263Y999014D02*
D03*
X1275739Y993680D02*
D03*
X815999Y949268D02*
D03*
X799235Y943388D02*
D03*
X798518Y937845D02*
D03*
X793475Y931057D02*
D03*
X797438Y927487D02*
D03*
X1186712Y791061D02*
D03*
X1191568Y793268D02*
D03*
X988973Y1044988D02*
D03*
X1088033Y829850D02*
D03*
X991005Y706660D02*
D03*
X782598Y866864D02*
D03*
X782924Y861540D02*
D03*
X793338Y859060D02*
D03*
X778574Y886070D02*
D03*
X833469Y973288D02*
D03*
X778153Y905796D02*
D03*
X778915Y956596D02*
D03*
X816507Y890302D02*
D03*
X977797Y793528D02*
D03*
X974241Y896144D02*
D03*
X979067Y885984D02*
D03*
X968399Y899573D02*
D03*
X963672Y902231D02*
D03*
X827175Y924973D02*
D03*
X794270Y922433D02*
D03*
X825905Y912019D02*
D03*
X795425Y909225D02*
D03*
X825016Y903214D02*
D03*
X871879Y806482D02*
D03*
X829715Y938816D02*
D03*
X786017Y797074D02*
D03*
X788038Y802418D02*
D03*
X781709Y853053D02*
D03*
X776020Y832697D02*
D03*
X778214Y837559D02*
D03*
X780906Y822958D02*
D03*
X795161Y813604D02*
D03*
X831332Y897280D02*
D03*
X829080Y886444D02*
D03*
X835049Y910622D02*
D03*
X833779Y985044D02*
D03*
X828474Y983020D02*
D03*
X823365Y981488D02*
D03*
X834345Y1025362D02*
D03*
X830590Y1029149D02*
D03*
X832001Y1042956D02*
D03*
X831687Y1048281D02*
D03*
X859607Y1018963D02*
D03*
X854953Y1023617D02*
D03*
X635659Y805974D02*
D03*
X631628Y802480D02*
D03*
X626691Y800460D02*
D03*
X627785Y794798D02*
D03*
X1126895Y1063784D02*
D03*
X1104741Y1051846D02*
D03*
X785011Y1018318D02*
D03*
X511453Y981742D02*
D03*
X615593Y1083850D02*
D03*
X614951Y1091724D02*
D03*
X733449Y1040416D02*
D03*
X763421Y921036D02*
D03*
X498245Y688626D02*
D03*
X632357Y696500D02*
D03*
X627785Y744506D02*
D03*
X650415Y767116D02*
D03*
X651915Y759242D02*
D03*
X660805Y764953D02*
D03*
X761018Y797455D02*
D03*
X755293Y796830D02*
D03*
X756055Y806736D02*
D03*
X748181Y806482D02*
D03*
X794917Y821478D02*
D03*
X827825Y813736D02*
D03*
X837335Y817023D02*
D03*
X828445Y847376D02*
D03*
X827683Y856774D02*
D03*
X828445Y837470D02*
D03*
X1246783Y1073309D02*
D03*
X1173123Y1033939D02*
D03*
X1247291Y1044480D02*
D03*
X1245020Y980073D02*
D03*
X1250339Y980472D02*
D03*
X1313077Y1149890D02*
D03*
X1571214Y1069900D02*
D03*
X1582567Y1072440D02*
D03*
X1253298Y986949D02*
D03*
X1237893Y977805D02*
D03*
X1234620Y968505D02*
D03*
X1225447Y975900D02*
D03*
X1233829Y988092D02*
D03*
X1225955Y990886D02*
D03*
X1246021Y997617D02*
D03*
X1218081Y997236D02*
D03*
X1162666Y874640D02*
D03*
X1216049Y814747D02*
D03*
X1219859Y822357D02*
D03*
X854353Y479330D02*
D03*
X838773Y643160D02*
D03*
X923441Y637318D02*
D03*
X850797Y793274D02*
D03*
X854861Y788956D02*
D03*
X932839Y641382D02*
D03*
X1298345Y1014762D02*
D03*
X1288185Y1014508D02*
D03*
X648105Y683800D02*
D03*
X704239Y714026D02*
D03*
X691285Y715550D02*
D03*
X687983Y758222D02*
D03*
X677569Y715550D02*
D03*
X666901D02*
D03*
X748435Y763556D02*
D03*
X654709Y716058D02*
D03*
X732481Y758222D02*
D03*
X749451Y726472D02*
D03*
X749959Y702165D02*
D03*
X746149Y705898D02*
D03*
X668679Y635794D02*
D03*
X641565Y636841D02*
D03*
X648159Y635231D02*
D03*
X649882Y643413D02*
D03*
X643061Y643064D02*
D03*
X613307Y615474D02*
D03*
X764691Y577882D02*
D03*
X578636Y572675D02*
D03*
X572159Y572802D02*
D03*
X561999D02*
D03*
X545489D02*
D03*
X566623Y576084D02*
D03*
X568857Y615220D02*
D03*
X507897Y567214D02*
D03*
X523391Y567087D02*
D03*
X594130Y542957D02*
D03*
X580033Y621697D02*
D03*
X580795Y627920D02*
D03*
X574699Y621062D02*
D03*
X544981Y727742D02*
D03*
X544473Y774986D02*
D03*
X565301Y722154D02*
D03*
X1157429Y791258D02*
D03*
X1156919Y796568D02*
D03*
X1209435Y784648D02*
D03*
X991005Y1004094D02*
D03*
X659535Y797846D02*
D03*
X795490Y870520D02*
D03*
X1259483Y802418D02*
D03*
X1211477Y793020D02*
D03*
X1207060Y798255D02*
D03*
X1007007Y1141508D02*
D03*
X1013357Y1138206D02*
D03*
X973479Y986822D02*
D03*
X828445Y1136428D02*
D03*
X583843Y1092232D02*
D03*
X563565Y1040816D02*
D03*
X553565D02*
D03*
X533565D02*
D03*
X543565D02*
D03*
X425601Y887000D02*
D03*
X799501Y556342D02*
D03*
X835557Y542322D02*
D03*
X697000D02*
D03*
X702059Y535337D02*
D03*
X692336Y529368D02*
D03*
X685316Y539782D02*
D03*
X756301Y741834D02*
D03*
X673505Y757079D02*
D03*
X685951Y732314D02*
D03*
X693654Y754595D02*
D03*
X681379Y756038D02*
D03*
X734719Y703993D02*
D03*
X739975Y808006D02*
D03*
X733326Y795527D02*
D03*
X728975Y792183D02*
D03*
X724411Y794945D02*
D03*
X708224Y750234D02*
D03*
X704740Y739903D02*
D03*
X718209Y799878D02*
D03*
X699687Y760234D02*
D03*
X698722Y794908D02*
D03*
X728536Y805329D02*
D03*
X1453285Y804704D02*
D03*
X1295805Y1091597D02*
D03*
X1054759Y1068356D02*
D03*
X1059818Y1062280D02*
D03*
X1229003Y1063784D02*
D03*
X1072285Y1065308D02*
D03*
X1066951Y1066578D02*
D03*
X1281581Y1064292D02*
D03*
X1172615Y1080040D02*
D03*
X1164233Y1081183D02*
D03*
X1145437D02*
D03*
X1272691Y1091470D02*
D03*
X1358289Y997490D02*
D03*
X1272945Y945814D02*
D03*
X1278279Y939832D02*
D03*
X1246191Y947128D02*
D03*
X1238530Y931321D02*
D03*
X1376069Y1013492D02*
D03*
X1424583Y983520D02*
D03*
X1357283Y1024150D02*
D03*
X1386483Y1003332D02*
D03*
X1411375Y1004094D02*
D03*
X1429663Y1017175D02*
D03*
X1411375Y1013238D02*
D03*
X1385467D02*
D03*
X947825Y982758D02*
D03*
X941729Y838994D02*
D03*
X954683Y891826D02*
D03*
X980083Y988854D02*
D03*
X1255419Y947579D02*
D03*
X1248561Y939324D02*
D03*
X1243586Y937401D02*
D03*
X1306337Y917927D02*
D03*
X1298726Y938435D02*
D03*
X976908Y776002D02*
D03*
X948460Y829775D02*
D03*
X643512Y793730D02*
D03*
X1048772Y709835D02*
D03*
X1052603Y730409D02*
D03*
X1057553Y732822D02*
D03*
X1066826Y712756D02*
D03*
X1195647Y789180D02*
D03*
X1324677Y688774D02*
D03*
X1311388D02*
D03*
X1249831Y757460D02*
D03*
X1269389Y785146D02*
D03*
X1551310Y888544D02*
D03*
X1545978Y888400D02*
D03*
X1530367Y887127D02*
D03*
X1475633Y715824D02*
D03*
X1593235Y890576D02*
D03*
X1577745Y893350D02*
D03*
X790707Y971674D02*
D03*
X794961Y982172D02*
D03*
X797553Y974145D02*
D03*
X1393849Y1079024D02*
D03*
X1663851Y704628D02*
D03*
X1599589Y623856D02*
D03*
X491641Y702596D02*
D03*
X508659Y957866D02*
D03*
X1510181Y753147D02*
D03*
X1504944Y752130D02*
D03*
X1532787Y695484D02*
D03*
X1527320Y681955D02*
D03*
X1471548Y626183D02*
D03*
X1449897Y631832D02*
D03*
X1488222Y670157D02*
D03*
X1432707Y644074D02*
D03*
X1526431Y669843D02*
D03*
X1509415Y697536D02*
D03*
X1501156Y689110D02*
D03*
X1504335Y706426D02*
D03*
X1496715Y765080D02*
D03*
X1503547Y761584D02*
D03*
X1608733Y640620D02*
D03*
X1503065Y449886D02*
D03*
X1512481Y424230D02*
D03*
X1475878Y464032D02*
D03*
X1608987Y664750D02*
D03*
X1702205Y616490D02*
D03*
X770279Y460026D02*
D03*
X703294Y792160D02*
D03*
X680871Y805322D02*
D03*
X695418Y804042D02*
D03*
X688745Y805212D02*
D03*
X671037Y795687D02*
D03*
X668525Y805329D02*
D03*
X693317Y793274D02*
D03*
X684935Y794290D02*
D03*
X1485089Y946915D02*
D03*
X1415947Y905288D02*
D03*
X1624165Y754396D02*
D03*
X1455825Y984536D02*
D03*
X1568601Y772700D02*
D03*
X1673503Y874554D02*
D03*
X1459405Y732600D02*
D03*
X1450205D02*
D03*
X1042313Y688626D02*
D03*
X1374037Y914178D02*
D03*
X1515765Y993446D02*
D03*
X1526590Y877016D02*
D03*
X1743286Y1043856D02*
D03*
X1738171Y1051658D02*
D03*
X1070507Y1077881D02*
D03*
X1667685Y855885D02*
D03*
X1710979Y864784D02*
D03*
X1713805Y852923D02*
D03*
X1625112Y882956D02*
D03*
X1439165Y779396D02*
D03*
X1617877Y755174D02*
D03*
X1659025Y757460D02*
D03*
X1665445Y751511D02*
D03*
X1606193Y551298D02*
D03*
X1621072Y584694D02*
D03*
X1598208Y501509D02*
D03*
X1633772Y551298D02*
D03*
X1659493Y561973D02*
D03*
X1655165Y550396D02*
D03*
X1688942Y807134D02*
D03*
Y757480D02*
D03*
Y799134D02*
D03*
X1698187Y733987D02*
D03*
X1688942Y791134D02*
D03*
X1684054Y734414D02*
D03*
X1673753Y823393D02*
D03*
X1713805Y797043D02*
D03*
X1626743Y814366D02*
D03*
X1698645Y594538D02*
D03*
X1551965Y944277D02*
D03*
X1530376Y991778D02*
D03*
X1543082Y991411D02*
D03*
X1591711Y1027736D02*
D03*
X1613305Y1087098D02*
D03*
X687569Y1152778D02*
D03*
X543565Y1020816D02*
D03*
X716133Y529070D02*
D03*
X1368195Y1011714D02*
D03*
X1415185Y1021874D02*
D03*
X626134Y736886D02*
D03*
X628674Y731604D02*
D03*
X634135Y733076D02*
D03*
X641755Y731806D02*
D03*
X644295Y752126D02*
D03*
X667155Y761016D02*
D03*
X737513Y1132872D02*
D03*
X746911Y1133126D02*
D03*
X754277Y1132364D02*
D03*
X762151Y1132872D02*
D03*
X1069745Y684308D02*
D03*
X1062125Y688118D02*
D03*
X1294277Y636858D02*
D03*
X733565Y1020816D02*
D03*
X1294277Y631524D02*
D03*
X743565Y1020816D02*
D03*
X1063892Y705104D02*
D03*
X1070502Y704886D02*
D03*
X1072158Y712616D02*
D03*
X1298629Y716185D02*
D03*
X1302967Y722428D02*
D03*
X1356253Y722174D02*
D03*
X693565Y1020816D02*
D03*
X1356253Y727508D02*
D03*
X693565Y1030816D02*
D03*
X703565Y1010816D02*
D03*
X797751Y1037128D02*
D03*
X829207Y969296D02*
D03*
X793647Y1018238D02*
D03*
X785263Y1036606D02*
D03*
X794409Y1026700D02*
D03*
X791361Y1049052D02*
D03*
X794565Y1004622D02*
D03*
X793893Y996748D02*
D03*
X786281Y1028732D02*
D03*
X778661Y1051846D02*
D03*
X785519Y1050340D02*
D03*
X778407Y1069626D02*
D03*
X785773Y1067848D02*
D03*
X794155Y1071785D02*
D03*
X808633Y1072674D02*
D03*
X1054764Y709019D02*
D03*
X683446Y1131693D02*
D03*
X755039Y1071785D02*
D03*
X702556Y1059815D02*
D03*
X753261Y1060736D02*
D03*
X712966Y1070268D02*
D03*
X716221Y1075274D02*
D03*
X683565Y1000816D02*
D03*
X673565Y1000816D02*
D03*
X671259Y1071929D02*
D03*
X675265Y1084739D02*
D03*
X685679D02*
D03*
X698612Y1075760D02*
D03*
X683049Y1075402D02*
D03*
X704534Y1070547D02*
D03*
X636929Y1087660D02*
D03*
X653909Y1083832D02*
D03*
X679601Y1126522D02*
D03*
X672489D02*
D03*
X663599Y1127284D02*
D03*
X649375Y1126776D02*
D03*
X657249Y1127538D02*
D03*
X663565Y1069045D02*
D03*
X746077Y1071785D02*
D03*
X631065Y1085816D02*
D03*
X1684415Y1002634D02*
D03*
X1622054Y787913D02*
D03*
X1603653Y786670D02*
D03*
X1625243Y825024D02*
D03*
X1604207Y819290D02*
D03*
X1602134Y814376D02*
D03*
X1594851Y813780D02*
D03*
X1604923Y828326D02*
D03*
X1604627Y833652D02*
D03*
X1580987Y857282D02*
D03*
Y851694D02*
D03*
X1582063Y868712D02*
D03*
X1581301Y862616D02*
D03*
X666647Y470948D02*
D03*
X1356003Y1073944D02*
D03*
X1323165Y1002396D02*
D03*
X708565Y1074227D02*
D03*
X603979Y1050576D02*
D03*
X583151Y1050816D02*
D03*
X554125Y1050322D02*
D03*
X534059Y1061244D02*
D03*
X791836Y848043D02*
D03*
X652677Y783622D02*
D03*
X782889Y991394D02*
D03*
X774009Y1002396D02*
D03*
X778565Y995816D02*
D03*
X790763Y992283D02*
D03*
X1576994Y495611D02*
D03*
X1569585Y669041D02*
D03*
X819879Y501819D02*
D03*
X740815Y705771D02*
D03*
X932077Y829850D02*
D03*
X763565Y840816D02*
D03*
X827905Y827056D02*
D03*
X609751Y1085816D02*
D03*
X601877Y1084358D02*
D03*
X795959Y842830D02*
D03*
X711351Y778796D02*
D03*
X554125Y794798D02*
D03*
X554887Y788194D02*
D03*
X662214Y806701D02*
D03*
X508565Y931704D02*
D03*
Y925816D02*
D03*
X399693Y770414D02*
D03*
X421283Y763794D02*
D03*
X408329Y764318D02*
D03*
X393851Y826929D02*
D03*
X401471D02*
D03*
X434491Y799878D02*
D03*
X453287Y839756D02*
D03*
X613565Y1000816D02*
D03*
X1738015Y731698D02*
D03*
X1809262Y638862D02*
D03*
X1764605Y658214D02*
D03*
X623565Y1010816D02*
D03*
X1827148Y721934D02*
D03*
X1773251Y682243D02*
D03*
X633565Y1030816D02*
D03*
X1748165Y589396D02*
D03*
X633565Y1020816D02*
D03*
X1770165Y590396D02*
D03*
X1762165Y594396D02*
D03*
X633979Y1050816D02*
D03*
X1721165Y624396D02*
D03*
X673565Y1050816D02*
D03*
X1764165Y625396D02*
D03*
X1200805Y792476D02*
D03*
X612545Y1125506D02*
D03*
X620165Y1121696D02*
D03*
X625245Y1124236D02*
D03*
X630325Y1121696D02*
D03*
X642263Y1117124D02*
D03*
X778565Y975248D02*
D03*
X682649Y785146D02*
D03*
X762786Y880816D02*
D03*
X1750715Y709094D02*
D03*
X1729962Y670974D02*
D03*
Y684974D02*
D03*
X1763669Y709094D02*
D03*
X829818Y866468D02*
D03*
X763320Y870816D02*
D03*
X753565Y880816D02*
D03*
X1129054Y533706D02*
D03*
X1152545Y541198D02*
D03*
X836065Y809149D02*
D03*
X627785Y761016D02*
D03*
X649629Y583978D02*
D03*
X543565Y890816D02*
D03*
X533678Y880816D02*
D03*
Y890816D02*
D03*
X524407Y745284D02*
D03*
X523899Y756952D02*
D03*
X523137Y771176D02*
D03*
X762024Y760635D02*
D03*
X753403Y761326D02*
D03*
X757963Y764094D02*
D03*
X635802Y762111D02*
D03*
X506065Y895816D02*
D03*
X583589Y890792D02*
D03*
X580541Y794544D02*
D03*
X563418Y840816D02*
D03*
X613565Y920816D02*
D03*
X691539Y378492D02*
D03*
X613565Y890816D02*
D03*
X685189Y378746D02*
D03*
X613565Y880816D02*
D03*
X678585Y378746D02*
D03*
X603565Y930816D02*
D03*
X672235Y379254D02*
D03*
X593565Y910816D02*
D03*
X659789Y378746D02*
D03*
X563565Y850816D02*
D03*
X652931Y378492D02*
D03*
X603565Y870816D02*
D03*
X646581Y378746D02*
D03*
X593565Y850816D02*
D03*
X639977Y378746D02*
D03*
X573565Y840816D02*
D03*
X633627Y379254D02*
D03*
X583565Y870816D02*
D03*
X628039Y378238D02*
D03*
X563565Y830816D02*
D03*
X621689Y378492D02*
D03*
X615085D02*
D03*
X608735Y379000D02*
D03*
X599591Y800640D02*
D03*
X622197Y468408D02*
D03*
X627785Y469424D02*
D03*
X615847Y468916D02*
D03*
X653693Y470694D02*
D03*
X659789Y466122D02*
D03*
X647089Y468662D02*
D03*
X679093Y466630D02*
D03*
X643025Y763556D02*
D03*
X654455Y809276D02*
D03*
X640739Y469170D02*
D03*
X634135D02*
D03*
X672489Y466630D02*
D03*
X714145Y504984D02*
D03*
X710081Y517938D02*
D03*
X655217Y739426D02*
D03*
X827694Y1005296D02*
D03*
X737451Y1073563D02*
D03*
X600099Y1074960D02*
D03*
X1621175Y551486D02*
D03*
X1495384Y546406D02*
D03*
X613565Y1040816D02*
D03*
X1494175Y556566D02*
D03*
X613565Y1050816D02*
D03*
X1683165Y558396D02*
D03*
X623565Y1050816D02*
D03*
X693565Y1060816D02*
D03*
X653565Y1060816D02*
D03*
Y1050816D02*
D03*
Y1040816D02*
D03*
X926235Y839756D02*
D03*
X693565Y1000816D02*
D03*
X723565Y1010816D02*
D03*
Y1000816D02*
D03*
X1558945Y503226D02*
D03*
X703565Y990816D02*
D03*
X723565Y1040816D02*
D03*
X1758843Y964849D02*
D03*
X713565Y1040816D02*
D03*
X1790847Y967988D02*
D03*
X1802785Y941376D02*
D03*
X703565Y1050816D02*
D03*
X1733665Y915396D02*
D03*
X1716425Y874066D02*
D03*
X1734285Y1122938D02*
D03*
X1727808Y1109649D02*
D03*
X828445Y946436D02*
D03*
X1620290Y941737D02*
D03*
X583565Y880816D02*
D03*
X691031Y467138D02*
D03*
X685443Y466122D02*
D03*
X613565Y900816D02*
D03*
X603565Y880816D02*
D03*
X609243Y468916D02*
D03*
X603565Y860816D02*
D03*
X613565Y870816D02*
D03*
X593565Y860816D02*
D03*
X576731Y380270D02*
D03*
X570381Y380524D02*
D03*
X563777D02*
D03*
X583565Y830816D02*
D03*
X557427Y381032D02*
D03*
X551839Y380524D02*
D03*
X573565Y860816D02*
D03*
X513231Y381286D02*
D03*
X603565Y830816D02*
D03*
X519835Y381286D02*
D03*
X593565Y840816D02*
D03*
X526185Y381032D02*
D03*
X593565Y830816D02*
D03*
X532535Y381286D02*
D03*
X583565Y840816D02*
D03*
X538885Y380778D02*
D03*
X573565Y850816D02*
D03*
X545489Y380778D02*
D03*
X613565Y810816D02*
D03*
X603565Y900816D02*
D03*
Y920816D02*
D03*
X613565Y930816D02*
D03*
X593565Y890816D02*
D03*
Y880816D02*
D03*
X533565Y860816D02*
D03*
Y840816D02*
D03*
X543565Y850816D02*
D03*
X488339Y381032D02*
D03*
X481735Y381286D02*
D03*
X462431Y382048D02*
D03*
X468781Y381540D02*
D03*
X475385D02*
D03*
X494181Y380016D02*
D03*
X665885Y379508D02*
D03*
X558443Y466122D02*
D03*
X564539Y471456D02*
D03*
X602385Y376714D02*
D03*
X596289Y384334D02*
D03*
X589685Y376206D02*
D03*
X583081Y383826D02*
D03*
X500531Y381794D02*
D03*
X500785Y469170D02*
D03*
X456335Y468916D02*
D03*
X449985Y468408D02*
D03*
X443635Y468662D02*
D03*
Y381540D02*
D03*
X456589Y383064D02*
D03*
X449985Y382810D02*
D03*
X506881Y381794D02*
D03*
X501065Y890816D02*
D03*
X543565Y880816D02*
D03*
X533565Y870816D02*
D03*
X563565D02*
D03*
X563565Y880816D02*
D03*
X354510Y765171D02*
D03*
Y759075D02*
D03*
X355780Y726309D02*
D03*
X354510Y739771D02*
D03*
Y745867D02*
D03*
X354765Y752217D02*
D03*
Y771521D02*
D03*
X593565Y1050816D02*
D03*
X583565Y1000816D02*
D03*
X573565Y1030816D02*
D03*
Y1010816D02*
D03*
X356288Y713609D02*
D03*
X356035Y707259D02*
D03*
X355780Y682621D02*
D03*
Y688717D02*
D03*
X356035Y695067D02*
D03*
Y701163D02*
D03*
Y720213D02*
D03*
X593565Y1040816D02*
D03*
X553565Y1020816D02*
D03*
X354510Y656713D02*
D03*
Y637917D02*
D03*
Y644013D02*
D03*
X354765Y650363D02*
D03*
X354510Y663063D02*
D03*
X573565Y1050816D02*
D03*
X523645Y1040416D02*
D03*
X563565Y1030816D02*
D03*
X583565D02*
D03*
X573565Y1020816D02*
D03*
X563565Y1050816D02*
D03*
X273855Y720476D02*
D03*
X273601Y714126D02*
D03*
X273855Y707522D02*
D03*
Y701426D02*
D03*
X273601Y695076D02*
D03*
X273347Y657230D02*
D03*
X273601Y663580D02*
D03*
Y669676D02*
D03*
Y676026D02*
D03*
X273855Y682376D02*
D03*
Y688472D02*
D03*
Y726572D02*
D03*
X553565Y1030816D02*
D03*
X543565Y1050816D02*
D03*
X533565D02*
D03*
X274109Y758576D02*
D03*
X274363Y764926D02*
D03*
X274109Y739526D02*
D03*
X274363Y745876D02*
D03*
Y751972D02*
D03*
X273347Y612272D02*
D03*
X273601Y618622D02*
D03*
Y624718D02*
D03*
X273093Y593476D02*
D03*
X273347Y599826D02*
D03*
Y605922D02*
D03*
Y586872D02*
D03*
Y580776D02*
D03*
X273093Y574426D02*
D03*
X272839Y561726D02*
D03*
X273093Y555122D02*
D03*
X273347Y542676D02*
D03*
X273201Y548672D02*
D03*
X836065Y843629D02*
D03*
X830998Y907151D02*
D03*
X794548Y956816D02*
D03*
X808125Y862108D02*
D03*
X719225Y808006D02*
D03*
X788722Y895283D02*
D03*
X723471Y850656D02*
D03*
X704356Y901607D02*
D03*
X623565Y1030816D02*
D03*
X633979Y1040771D02*
D03*
Y1060816D02*
D03*
X633500Y950816D02*
D03*
Y980816D02*
D03*
Y960816D02*
D03*
Y990816D02*
D03*
Y1010816D02*
D03*
Y1000816D02*
D03*
X653565Y950816D02*
D03*
X613565Y820816D02*
D03*
X593565D02*
D03*
X673565Y850816D02*
D03*
Y860816D02*
D03*
X703748Y821188D02*
D03*
X693565Y821595D02*
D03*
X673565Y820816D02*
D03*
Y830816D02*
D03*
X683565Y820816D02*
D03*
X733565D02*
D03*
X673565Y1030816D02*
D03*
X693565Y1010816D02*
D03*
X743565Y1060816D02*
D03*
X753565Y1050816D02*
D03*
X713565Y1020816D02*
D03*
X723565Y1030816D02*
D03*
X591065Y1088316D02*
D03*
X596065Y1090816D02*
D03*
X603565D02*
D03*
X589685Y1121696D02*
D03*
X621065Y1075816D02*
D03*
X583565Y1060816D02*
D03*
X603565Y1040816D02*
D03*
X613565Y1060816D02*
D03*
X623565Y1040816D02*
D03*
X673565Y1060816D02*
D03*
X601115Y1120426D02*
D03*
X594765Y1125506D02*
D03*
X583565Y1123316D02*
D03*
X703565Y970816D02*
D03*
X653565Y920816D02*
D03*
X713565Y930816D02*
D03*
X703565Y950816D02*
D03*
Y960816D02*
D03*
X673565Y990816D02*
D03*
X693565D02*
D03*
X693565Y980816D02*
D03*
X703565D02*
D03*
X733565D02*
D03*
Y960816D02*
D03*
X713565Y970816D02*
D03*
Y980816D02*
D03*
X613565Y860816D02*
D03*
X563565Y910816D02*
D03*
X533565Y950816D02*
D03*
Y990816D02*
D03*
Y970816D02*
D03*
X553565Y960816D02*
D03*
X573565Y950816D02*
D03*
X593565D02*
D03*
X633565Y900816D02*
D03*
X683565Y880816D02*
D03*
X733565Y830816D02*
D03*
X753565Y870816D02*
D03*
X663565Y890816D02*
D03*
X733565Y880816D02*
D03*
Y900816D02*
D03*
Y890816D02*
D03*
X743565D02*
D03*
Y880816D02*
D03*
Y870816D02*
D03*
X733565D02*
D03*
X713565D02*
D03*
X673565Y880816D02*
D03*
X663565Y870816D02*
D03*
X673565D02*
D03*
X683565D02*
D03*
X693565D02*
D03*
Y880816D02*
D03*
X703565D02*
D03*
X693565Y890816D02*
D03*
Y910816D02*
D03*
X683565Y920816D02*
D03*
X703565Y910816D02*
D03*
X713565D02*
D03*
X693565Y920816D02*
D03*
Y930816D02*
D03*
X633565Y930816D02*
D03*
X653565Y930816D02*
D03*
X663565D02*
D03*
X673565D02*
D03*
Y920816D02*
D03*
X663565D02*
D03*
X683565Y910816D02*
D03*
Y900816D02*
D03*
Y890816D02*
D03*
X673565D02*
D03*
Y900816D02*
D03*
X663565D02*
D03*
Y910816D02*
D03*
X653565D02*
D03*
Y900816D02*
D03*
Y890816D02*
D03*
X663565Y880816D02*
D03*
X653565D02*
D03*
X703565Y870816D02*
D03*
X533565Y850816D02*
D03*
X533565Y830816D02*
D03*
X543565D02*
D03*
X553565D02*
D03*
X633565Y860816D02*
D03*
Y920816D02*
D03*
Y910816D02*
D03*
Y890816D02*
D03*
Y880816D02*
D03*
Y870816D02*
D03*
X623565Y860816D02*
D03*
Y870816D02*
D03*
X583565Y860816D02*
D03*
X553565Y850816D02*
D03*
X543565Y840816D02*
D03*
Y860816D02*
D03*
X553565Y880816D02*
D03*
X543565Y870816D02*
D03*
X553565D02*
D03*
X573565D02*
D03*
X623565Y890816D02*
D03*
Y900816D02*
D03*
Y910816D02*
D03*
Y920816D02*
D03*
X593565Y900816D02*
D03*
X603565Y910816D02*
D03*
X593565Y930816D02*
D03*
X623565D02*
D03*
X653565Y1020816D02*
D03*
Y1010816D02*
D03*
Y1000816D02*
D03*
X623565D02*
D03*
X613565Y990816D02*
D03*
X593565Y1010816D02*
D03*
X603565D02*
D03*
X613565D02*
D03*
X623565Y1020816D02*
D03*
X613565Y1030816D02*
D03*
X603565D02*
D03*
X593565D02*
D03*
Y1020816D02*
D03*
X603565D02*
D03*
X583565Y1040816D02*
D03*
Y1020816D02*
D03*
X563565Y1010816D02*
D03*
Y1020816D02*
D03*
X553565Y980816D02*
D03*
Y990816D02*
D03*
Y1000816D02*
D03*
X563565D02*
D03*
X573565D02*
D03*
X593565D02*
D03*
Y990816D02*
D03*
X583565Y980816D02*
D03*
X593565Y970816D02*
D03*
X825905Y880396D02*
D03*
X829199Y873807D02*
D03*
X795425Y884206D02*
D03*
Y899700D02*
D03*
X789075Y905796D02*
D03*
X729355Y763556D02*
D03*
X724305Y757206D02*
D03*
X719225Y763556D02*
D03*
X705255Y754666D02*
D03*
X733565Y840816D02*
D03*
X723565D02*
D03*
Y830816D02*
D03*
X713565D02*
D03*
X703565D02*
D03*
Y840816D02*
D03*
X683565Y850816D02*
D03*
Y840816D02*
D03*
X693565D02*
D03*
Y830816D02*
D03*
X663565Y820816D02*
D03*
Y840816D02*
D03*
X673565D02*
D03*
X663565Y830816D02*
D03*
X633565Y820816D02*
D03*
X623565D02*
D03*
X543565D02*
D03*
X573565Y830816D02*
D03*
X603565Y840816D02*
D03*
X623565Y850816D02*
D03*
X613565D02*
D03*
X603565D02*
D03*
X613565Y830816D02*
D03*
Y840816D02*
D03*
X623565D02*
D03*
X653565Y1030816D02*
D03*
X613565Y1020816D02*
D03*
X573565Y990816D02*
D03*
X583565D02*
D03*
Y1010816D02*
D03*
X653565Y990816D02*
D03*
X623565D02*
D03*
X603565D02*
D03*
X593565Y980816D02*
D03*
X613565D02*
D03*
X789565Y959816D02*
D03*
X753565Y970816D02*
D03*
Y950816D02*
D03*
Y990816D02*
D03*
X733565D02*
D03*
X723565D02*
D03*
X713565D02*
D03*
X703565Y1000816D02*
D03*
X713565D02*
D03*
X763565Y1050816D02*
D03*
X733565Y1030816D02*
D03*
X743565D02*
D03*
X753565Y1020816D02*
D03*
X733565Y1010816D02*
D03*
X713565D02*
D03*
X683565D02*
D03*
X703565Y1020816D02*
D03*
Y1030816D02*
D03*
X713565D02*
D03*
Y1050816D02*
D03*
X693565D02*
D03*
X683565D02*
D03*
Y1040816D02*
D03*
Y1030816D02*
D03*
X663565Y1010816D02*
D03*
Y1020816D02*
D03*
Y1030816D02*
D03*
Y1040816D02*
D03*
Y1050816D02*
D03*
X673565Y1040816D02*
D03*
Y1020816D02*
D03*
Y1010816D02*
D03*
X723565Y1020816D02*
D03*
X753565Y1030816D02*
D03*
Y820816D02*
D03*
X743565Y850816D02*
D03*
X703565D02*
D03*
X713565Y840816D02*
D03*
Y850816D02*
D03*
Y860816D02*
D03*
X703565D02*
D03*
X693565D02*
D03*
X683565D02*
D03*
X663565D02*
D03*
Y850816D02*
D03*
X653565D02*
D03*
Y860816D02*
D03*
Y840816D02*
D03*
Y830816D02*
D03*
X633565D02*
D03*
Y840816D02*
D03*
Y850816D02*
D03*
X653565Y820816D02*
D03*
X683565Y830816D02*
D03*
X763565Y890816D02*
D03*
X743565Y900816D02*
D03*
Y920816D02*
D03*
X723565Y910816D02*
D03*
X683565Y930816D02*
D03*
X693565Y900816D02*
D03*
X553565Y890816D02*
D03*
Y920816D02*
D03*
X573565Y970816D02*
D03*
Y960816D02*
D03*
Y980816D02*
D03*
X583565Y970816D02*
D03*
X613565Y970816D02*
D03*
X613565Y950816D02*
D03*
Y960816D02*
D03*
X603565Y950816D02*
D03*
X583565D02*
D03*
X573565Y930816D02*
D03*
X543565Y920816D02*
D03*
X593565D02*
D03*
X603565Y890816D02*
D03*
X553565Y840816D02*
D03*
X623565Y830816D02*
D03*
X583565Y850816D02*
D03*
X563565Y860816D02*
D03*
X593565Y870816D02*
D03*
X623565Y880816D02*
D03*
X583565Y900816D02*
D03*
X613565Y910816D02*
D03*
X603565Y1000816D02*
D03*
X723565Y860816D02*
D03*
X693565Y850816D02*
D03*
X713565Y890816D02*
D03*
X673565Y910816D02*
D03*
X693565Y950816D02*
D03*
X673565D02*
D03*
Y960816D02*
D03*
X663565D02*
D03*
X653565Y970816D02*
D03*
X723565Y930816D02*
D03*
X713565Y950816D02*
D03*
Y960816D02*
D03*
X693565D02*
D03*
Y970816D02*
D03*
X673565D02*
D03*
X663565Y980816D02*
D03*
X673565D02*
D03*
X663565Y1000816D02*
D03*
Y990816D02*
D03*
X508565Y1015816D02*
D03*
X553565Y1010816D02*
D03*
X543565Y1030816D02*
D03*
X573565Y1040816D02*
D03*
X1690228Y1076409D02*
D03*
X1332165Y1030396D02*
D03*
X1312165Y1031396D02*
D03*
X1894165Y837396D02*
D03*
X1895165Y850396D02*
D03*
X1581325Y669041D02*
D03*
X1827148Y605242D02*
D03*
X1757968Y977547D02*
D03*
X1748165Y1057396D02*
D03*
X1735367Y981139D02*
D03*
X1741165Y907896D02*
D03*
Y896396D02*
D03*
X1912165Y1030396D02*
D03*
X1911165Y1058396D02*
D03*
X1880165Y979396D02*
D03*
X1822165Y969396D02*
D03*
X1809165Y1148396D02*
D03*
X1749165Y1083396D02*
D03*
X1796165Y429396D02*
D03*
X1832165Y536396D02*
D03*
X1740165Y510396D02*
D03*
X1771165Y488396D02*
D03*
X1733165Y463396D02*
D03*
X1732165Y485396D02*
D03*
X1540498Y1023310D02*
D03*
X1553839Y995960D02*
D03*
X1603649Y893116D02*
D03*
X1607947Y995774D02*
D03*
X1783165Y577396D02*
D03*
X1744165Y626142D02*
D03*
X1744383Y631979D02*
D03*
X1754165Y670396D02*
D03*
X1729836Y592942D02*
D03*
X1771165Y580396D02*
D03*
X1717903Y633628D02*
D03*
X1733778Y627205D02*
D03*
X1721165Y595396D02*
D03*
X1793068Y623002D02*
D03*
X1809262Y624379D02*
D03*
X1766165Y830396D02*
D03*
X1620387Y894788D02*
D03*
X1633875Y894386D02*
D03*
X1618165Y1076396D02*
D03*
X1743286Y1026856D02*
D03*
X1709165Y1079396D02*
D03*
X1702092Y1079697D02*
D03*
X1672165Y1042396D02*
D03*
X1701165Y1066396D02*
D03*
X1635318Y1023897D02*
D03*
X1531085D02*
D03*
X1672102Y1059486D02*
D03*
X1677429Y1059755D02*
D03*
X1616638Y1030149D02*
D03*
X1628816D02*
D03*
X1669435Y1034086D02*
D03*
X1662831Y1042214D02*
D03*
X1654183Y1080302D02*
D03*
X1591330Y1046173D02*
D03*
X1639697Y1070560D02*
D03*
X1754271Y626711D02*
D03*
X1601880Y739905D02*
D03*
X1622165Y705396D02*
D03*
X1623582Y728510D02*
D03*
X1469568Y674646D02*
D03*
X1143165Y615396D02*
D03*
X1661671Y851012D02*
D03*
X1768165Y892396D02*
D03*
X1325884Y620321D02*
D03*
X1378147Y676464D02*
D03*
X1414389Y682964D02*
D03*
X1542059Y715443D02*
D03*
X1336489Y663494D02*
D03*
X1459885Y663574D02*
D03*
X1366667Y644074D02*
D03*
X1302405Y600583D02*
D03*
X1287189Y600608D02*
D03*
X1294785Y652646D02*
D03*
X1449330Y707062D02*
D03*
X1429485Y719174D02*
D03*
X1498667Y644074D02*
D03*
X1390543Y714046D02*
D03*
X1348125Y715315D02*
D03*
X1541085Y736017D02*
D03*
X1744285Y1109649D02*
D03*
X1774845Y982016D02*
D03*
X1709805Y1035356D02*
D03*
X1708805Y1021058D02*
D03*
X1724890Y970237D02*
D03*
X1618325Y994081D02*
D03*
X1778665Y945396D02*
D03*
Y930396D02*
D03*
X1771165Y922896D02*
D03*
X1824375Y912166D02*
D03*
X1763665Y945396D02*
D03*
X1756165Y937896D02*
D03*
X1731247Y936387D02*
D03*
X1708911Y962946D02*
D03*
X1756165Y930396D02*
D03*
X1763665Y922896D02*
D03*
X1669435Y912166D02*
D03*
X1688485Y890576D02*
D03*
X1689008Y869138D02*
D03*
X1672752Y751818D02*
D03*
X1763567Y686180D02*
D03*
X1658005Y871526D02*
D03*
X1660545Y795326D02*
D03*
X1638188Y872781D02*
D03*
X1632841Y735763D02*
D03*
X1851665Y561698D02*
D03*
X1904627Y453996D02*
D03*
X1730165Y495396D02*
D03*
X1752605Y641224D02*
D03*
X1722164Y641184D02*
D03*
X1718305Y569978D02*
D03*
X1616062Y454663D02*
D03*
X1406165Y832878D02*
D03*
X1403258Y825216D02*
D03*
X1405404Y817130D02*
D03*
X1600519Y771069D02*
D03*
X1611433Y679067D02*
D03*
X1589330Y784671D02*
D03*
X1597045Y781930D02*
D03*
X1594031Y753797D02*
D03*
X1608372Y607798D02*
D03*
X1528734Y512051D02*
D03*
X1494207Y477523D02*
D03*
X1569645Y398958D02*
D03*
X1423165Y795396D02*
D03*
X1403165Y774396D02*
D03*
X1842155Y936296D02*
D03*
X1678452Y965506D02*
D03*
X1673118D02*
D03*
X1790847Y960426D02*
D03*
X1593760Y770285D02*
D03*
X1555917Y874831D02*
D03*
X1679869Y869200D02*
D03*
X1757573Y838378D02*
D03*
X1877715Y835966D02*
D03*
X1878985Y827076D02*
D03*
Y816916D02*
D03*
X1790085Y763576D02*
D03*
X1765955Y810566D02*
D03*
X1764685Y802565D02*
D03*
X1758351Y779356D02*
D03*
X1743067Y980911D02*
D03*
X1749332Y986183D02*
D03*
X1717175Y953192D02*
D03*
X1641938Y992341D02*
D03*
X1200805Y533706D02*
D03*
X1212235Y531166D02*
D03*
X1573560Y715453D02*
D03*
X1599458Y681839D02*
D03*
X1640225Y828436D02*
D03*
X1532166Y1006851D02*
D03*
X1574312Y774056D02*
D03*
X1628160Y992238D02*
D03*
X1605793Y795134D02*
D03*
X1664915Y1002634D02*
D03*
X1651915D02*
D03*
X1605757Y803962D02*
D03*
X1589795Y798611D02*
D03*
X1713805Y839635D02*
D03*
X1680865Y655626D02*
D03*
X1273891Y754813D02*
D03*
X1632605Y753416D02*
D03*
X1629845Y782186D02*
D03*
X1491635Y711506D02*
D03*
X1708805Y998854D02*
D03*
X1727808Y1080346D02*
D03*
X1727817Y1066974D02*
D03*
X1719045Y1080346D02*
D03*
X1244165Y793929D02*
D03*
X1515765Y617526D02*
D03*
X1514368Y627074D02*
D03*
X1392067Y621082D02*
D03*
X1384447Y630226D02*
D03*
X1731665Y777546D02*
D03*
X1109365Y651816D02*
D03*
X1094125Y660706D02*
D03*
X1140351Y560122D02*
D03*
X1495445Y532436D02*
D03*
X1273576Y683858D02*
D03*
X1277513Y687630D02*
D03*
X1703217Y462586D02*
D03*
X1825173Y611176D02*
D03*
X1712615Y498146D02*
D03*
X1815485Y724334D02*
D03*
X1660545Y679756D02*
D03*
X1670705Y682296D02*
D03*
X1688485Y687376D02*
D03*
X1561993Y716840D02*
D03*
X1736125Y641224D02*
D03*
X1719527Y773007D02*
D03*
X1712063Y757018D02*
D03*
X1611805Y776403D02*
D03*
X1674793Y795134D02*
D03*
X1665445Y735763D02*
D03*
X1693565Y498146D02*
D03*
X1614414Y977857D02*
D03*
X1403751Y622352D02*
D03*
X1378147Y689464D02*
D03*
Y702464D02*
D03*
X1436147Y689464D02*
D03*
X1426357Y656388D02*
D03*
X1436147Y676464D02*
D03*
X1329837Y601270D02*
D03*
X1349395Y629464D02*
D03*
X1415331Y627074D02*
D03*
X1479951Y627178D02*
D03*
X1596965Y802538D02*
D03*
X1597045Y838178D02*
D03*
X1566485Y875399D02*
D03*
X1645432Y870256D02*
D03*
X1571137Y1047040D02*
D03*
X1664228Y1059634D02*
D03*
X1744285Y1122938D02*
D03*
X1626221Y1071198D02*
D03*
X1676509Y1080899D02*
D03*
X1230677Y783601D02*
D03*
X1754531Y658139D02*
D03*
X1712063Y734414D02*
D03*
X1752065Y743891D02*
D03*
X1762065Y751765D02*
D03*
X1251986Y784939D02*
D03*
X1416196Y726238D02*
D03*
X1329075Y677724D02*
D03*
X1315693Y646303D02*
D03*
X1365613Y619304D02*
D03*
X1763415Y734924D02*
D03*
X1751425Y730987D02*
D03*
X1805325Y691186D02*
D03*
X1317645Y600583D02*
D03*
X1670998Y1082048D02*
D03*
X1649939Y1060104D02*
D03*
X1759906Y900736D02*
D03*
X1754572D02*
D03*
X1773636Y902006D02*
D03*
X1768302D02*
D03*
X1631335Y787706D02*
D03*
X1804055Y929946D02*
D03*
X1800245Y951536D02*
D03*
X1785005Y982016D02*
D03*
X1633772Y584694D02*
D03*
X1646472Y584694D02*
D03*
Y528194D02*
D03*
X1791317Y649242D02*
D03*
X1668946Y803134D02*
D03*
X1620897Y807134D02*
D03*
X1626743Y799134D02*
D03*
X1645845Y782186D02*
D03*
X1637845Y788033D02*
D03*
X1882523Y483996D02*
D03*
X1904627Y473996D02*
D03*
X1882523Y463996D02*
D03*
X1744107Y1019356D02*
D03*
X1616638Y1009014D02*
D03*
X1710663Y1045126D02*
D03*
Y1028126D02*
D03*
X1719045Y1067058D02*
D03*
X1334520Y620321D02*
D03*
X1324757Y656386D02*
D03*
X1645415Y1002634D02*
D03*
X1658415D02*
D03*
X1660545Y579098D02*
D03*
X1627525Y1008037D02*
D03*
X1878279Y785294D02*
D03*
X1743800Y838463D02*
D03*
X1891685Y785294D02*
D03*
X1713725Y826346D02*
D03*
X1337965Y711378D02*
D03*
X1449330Y693773D02*
D03*
X1459330Y707062D02*
D03*
X1466823Y612056D02*
D03*
X1845667Y462696D02*
D03*
X1409543Y695964D02*
D03*
X1351543Y682964D02*
D03*
Y669964D02*
D03*
X1770707Y634036D02*
D03*
X1829455Y746858D02*
D03*
X1738015Y709094D02*
D03*
X1815485Y746938D02*
D03*
Y945058D02*
D03*
D100*
X993545Y918242D02*
D03*
X833209Y646633D02*
D03*
X840329Y515452D02*
D03*
X857049Y656983D02*
D03*
X852369Y662671D02*
D03*
X1019707Y520732D02*
D03*
X774343Y580168D02*
D03*
X1012849Y564420D02*
D03*
X351179Y988854D02*
D03*
X984401Y579914D02*
D03*
X1219859Y787686D02*
D03*
X369721Y1009428D02*
D03*
X1651659Y668814D02*
D03*
X342562Y1002804D02*
D03*
X1100897Y974004D02*
D03*
X373531Y409988D02*
D03*
X978813Y969804D02*
D03*
Y975392D02*
D03*
X1261007Y787686D02*
D03*
X504317Y880880D02*
D03*
X882195Y674656D02*
D03*
X675537Y636302D02*
D03*
X998911Y794766D02*
D03*
X1675535Y659924D02*
D03*
X1668423Y669576D02*
D03*
X954937Y1043718D02*
D03*
X1661565Y661956D02*
D03*
X838253Y652001D02*
D03*
X750975Y569881D02*
D03*
X465225Y625805D02*
D03*
X793179Y555737D02*
D03*
X858915Y1109113D02*
D03*
X770124Y569881D02*
D03*
X533675Y1139686D02*
D03*
X1635657Y511588D02*
D03*
X1045869Y390938D02*
D03*
X1019961Y532670D02*
D03*
X767739Y705136D02*
D03*
X1628309Y511063D02*
D03*
X1614829Y493046D02*
D03*
X1065935Y537496D02*
D03*
X540663Y1142016D02*
D03*
X1608225Y516668D02*
D03*
X1000761Y821110D02*
D03*
X394867Y1109250D02*
D03*
X844774Y535136D02*
D03*
X693571Y672624D02*
D03*
X534313Y1121061D02*
D03*
X525677Y1121442D02*
D03*
X643787Y663734D02*
D03*
X745895Y655606D02*
D03*
X954175Y564166D02*
D03*
X1001165Y579406D02*
D03*
X659825Y635235D02*
D03*
X947481Y726471D02*
D03*
X954846Y726562D02*
D03*
X293013Y859822D02*
D03*
X605621Y660303D02*
D03*
X1009547Y427006D02*
D03*
X613572Y652289D02*
D03*
X1222744Y740025D02*
D03*
X344321Y1064292D02*
D03*
X837335Y603258D02*
D03*
X576826Y581565D02*
D03*
X799913Y566156D02*
D03*
X577782Y609921D02*
D03*
X970939Y416084D02*
D03*
X343051Y992918D02*
D03*
X484783Y901478D02*
D03*
X361085Y1074198D02*
D03*
X487224Y915448D02*
D03*
X496467Y1002062D02*
D03*
X488847Y1001808D02*
D03*
X401217Y986568D02*
D03*
X409853Y993934D02*
D03*
X379119Y1009174D02*
D03*
X409599Y986568D02*
D03*
X353465Y1064292D02*
D03*
X800759Y580676D02*
D03*
X604109Y651605D02*
D03*
X1101700Y985891D02*
D03*
X954683Y1002062D02*
D03*
X1617950Y734158D02*
D03*
X344067Y1012984D02*
D03*
X957858Y972363D02*
D03*
X351687Y1012730D02*
D03*
X376833Y1099598D02*
D03*
X833810Y675291D02*
D03*
X434999Y1075306D02*
D03*
X390803Y1053370D02*
D03*
X453033Y860330D02*
D03*
X387755Y1016032D02*
D03*
X509421Y1000284D02*
D03*
X834044Y700437D02*
D03*
X379627Y1053370D02*
D03*
X1304949Y861854D02*
D03*
X445667Y931958D02*
D03*
X301395Y859822D02*
D03*
X1008023Y520351D02*
D03*
X851028Y705117D02*
D03*
X1102233Y962866D02*
D03*
X568565Y1075816D02*
D03*
X359815Y733076D02*
D03*
X364895Y567976D02*
D03*
X272185Y650526D02*
D03*
X272038Y637113D02*
D03*
X489355Y668306D02*
D03*
X467765Y647986D02*
D03*
X491895Y642906D02*
D03*
X472409Y657311D02*
D03*
X486815Y603536D02*
D03*
X513870Y704073D02*
D03*
X593495Y712756D02*
D03*
X514755Y675926D02*
D03*
X666535Y611776D02*
D03*
X648105Y611156D02*
D03*
X653185Y569246D02*
D03*
X836065Y616236D02*
D03*
X632103Y677450D02*
D03*
X705255Y496856D02*
D03*
X799235Y589566D02*
D03*
X632611Y665766D02*
D03*
X730655Y499396D02*
D03*
X768755Y587026D02*
D03*
X775105Y534956D02*
D03*
X764945Y532416D02*
D03*
X832255Y627666D02*
D03*
X834795Y593376D02*
D03*
X987703Y429038D02*
D03*
X676680Y551593D02*
D03*
X1066189Y976408D02*
D03*
X546725Y714201D02*
D03*
X861719Y509556D02*
D03*
X1014373Y666782D02*
D03*
X972971Y667544D02*
D03*
X983639Y685070D02*
D03*
X1014881D02*
D03*
X1024279Y666782D02*
D03*
X928775Y724186D02*
D03*
X937665D02*
D03*
X998625Y428276D02*
D03*
X926997Y782352D02*
D03*
X883817D02*
D03*
X950365Y926370D02*
D03*
X533805Y1100360D02*
D03*
X569365Y1129062D02*
D03*
X576223Y1140238D02*
D03*
X539139Y1129316D02*
D03*
X921155Y1107472D02*
D03*
X952651Y882428D02*
D03*
X268565Y790816D02*
D03*
X268629Y782606D02*
D03*
X268883Y733330D02*
D03*
X269391Y568230D02*
D03*
X443595Y630246D02*
D03*
X358291Y676688D02*
D03*
X358075Y790326D02*
D03*
X358545Y781082D02*
D03*
X356005Y669576D02*
D03*
X606195Y706406D02*
D03*
X350417Y1074198D02*
D03*
X693317Y684054D02*
D03*
X1687473Y667036D02*
D03*
X575896Y1102719D02*
D03*
X725956Y603536D02*
D03*
X1685695Y643668D02*
D03*
X928031Y731787D02*
D03*
X882801Y706406D02*
D03*
X781455Y702596D02*
D03*
X540235Y583216D02*
D03*
X528725Y698786D02*
D03*
X747419Y630206D02*
D03*
X659535Y682530D02*
D03*
X1030375Y761016D02*
D03*
X831366Y563389D02*
D03*
X928719Y808895D02*
D03*
X1260753Y738664D02*
D03*
X826014Y712865D02*
D03*
X954683Y548672D02*
D03*
X965351Y972090D02*
D03*
X947719Y906146D02*
D03*
X1614821Y502680D02*
D03*
X403757Y408464D02*
D03*
X1608479Y506508D02*
D03*
X1028904Y929364D02*
D03*
X1016913Y929164D02*
D03*
X423061Y434118D02*
D03*
X851305Y677831D02*
D03*
X395375Y1121950D02*
D03*
X1012849Y548164D02*
D03*
X957640Y858207D02*
D03*
X888389Y1136936D02*
D03*
X1315099Y862076D02*
D03*
X984401Y520351D02*
D03*
X524920Y802758D02*
D03*
X1194586Y716693D02*
D03*
X1591965Y1088596D02*
D03*
X1244057Y1009288D02*
D03*
X1047901Y536861D02*
D03*
X790453Y444640D02*
D03*
X854861Y468916D02*
D03*
X806093Y466884D02*
D03*
X820825Y461804D02*
D03*
X1230394Y925340D02*
D03*
X1466874Y795396D02*
D03*
X1557165Y783258D02*
D03*
X1398079Y866748D02*
D03*
X842669Y440849D02*
D03*
X1792625Y863906D02*
D03*
X1395165Y851762D02*
D03*
X1586885Y1004876D02*
D03*
X1525675Y793396D02*
D03*
X869352Y431456D02*
D03*
X869085Y438817D02*
D03*
X791361Y432340D02*
D03*
X820571Y429800D02*
D03*
X945793Y545878D02*
D03*
X951381Y533178D02*
D03*
X937411Y526066D02*
D03*
X1309165Y817396D02*
D03*
X1558973Y1003399D02*
D03*
X1414121Y770352D02*
D03*
X1804165Y552396D02*
D03*
X1634165Y1079396D02*
D03*
X1326783Y862076D02*
D03*
X1748165Y850396D02*
D03*
X1797165Y659396D02*
D03*
X1819165Y713396D02*
D03*
X1887165Y712396D02*
D03*
X1928165Y715396D02*
D03*
X1930165Y548396D02*
D03*
X1671165Y1122896D02*
D03*
X1820565Y921056D02*
D03*
X1924165Y912396D02*
D03*
X1814206Y885504D02*
D03*
X1810405Y919786D02*
D03*
X1800505Y917481D02*
D03*
X1518013Y908647D02*
D03*
X1816275Y871526D02*
D03*
X1843425Y776276D02*
D03*
X1820565Y818186D02*
D03*
X1767225Y839776D02*
D03*
X1430675Y820443D02*
D03*
X1413165Y807396D02*
D03*
X1303165Y827396D02*
D03*
X1298165Y817396D02*
D03*
X1456165Y796396D02*
D03*
X1463165Y795396D02*
D03*
X1890165Y903396D02*
D03*
X1869165Y947396D02*
D03*
X1877165Y933396D02*
D03*
X1505165Y848396D02*
D03*
X1493165D02*
D03*
X1357060Y763333D02*
D03*
X1330165Y763396D02*
D03*
X1309060Y763333D02*
D03*
X1865141Y765041D02*
D03*
D101*
X1059331Y765588D02*
D03*
X1044091D02*
D03*
X999387Y869601D02*
D03*
X955953Y1076484D02*
D03*
X997500Y850025D02*
D03*
X1066929Y819525D02*
D03*
X359307Y514890D02*
D03*
X414171D02*
D03*
X427887Y475266D02*
D03*
X346861Y459772D02*
D03*
X979321Y926370D02*
D03*
X1065681Y775748D02*
D03*
X971193Y1076484D02*
D03*
X1065427Y796576D02*
D03*
D102*
X784035Y664266D02*
D03*
X795035Y642266D02*
D03*
Y631266D02*
D03*
Y653266D02*
D03*
Y664266D02*
D03*
X784035Y631266D02*
D03*
Y642266D02*
D03*
X773035Y664266D02*
D03*
X762035D02*
D03*
X773035Y653266D02*
D03*
X784035D02*
D03*
X762035Y642266D02*
D03*
Y653266D02*
D03*
X773035Y642266D02*
D03*
Y631266D02*
D03*
X762035D02*
D03*
D103*
X1017565Y976566D02*
D03*
X1028565D02*
D03*
X1017565Y965566D02*
D03*
X1028565D02*
D03*
X1017565Y954566D02*
D03*
X1028565D02*
D03*
X1017565Y943566D02*
D03*
X1028565D02*
D03*
M02*
