M48
;Layer_Color=9474304
;FILE_FORMAT=4:4
METRIC,LZ
;TYPE=PLATED
T01F00S00C0.2032
T02F00S00C0.3000
T03F00S00C0.3048
T04F00S00C0.5080
T06F00S00C0.7000
T08F00S00C0.8900
T09F00S00C0.9000
T10F00S00C1.0000
T11F00S00C1.0200
T12F00S00C1.0668
T13F00S00C1.3000
T14F00S00C1.6000
T15F00S00C2.0500
T16F00S00C3.1000
T17F00S00C3.1800
;TYPE=NON_PLATED
T18F00S00C0.5999
T19F00S00C0.6500
T20F00S00C0.7500
T21F00S00C0.9000
T22F00S00C0.9500
T23F00S00C1.0000
T24F00S00C2.2000
T25F00S00C3.2000
%
T01
X00443635Y0038154
X00449985Y0038281
X00456589Y00383064
X00462431Y00382048
X00468781Y0038154
X00475385
X00481735Y00381286
X00488339Y00381032
X00494181Y00380016
X00500531Y00381794
X00506881
X00513231Y00381286
X00519835
X00526185Y00381032
X00532535Y00381286
X00538885Y00380778
X00545489
X00551839Y00380524
X00557427Y00381032
X00563777Y00380524
X00570381
X00576731Y0038027
X00583081Y00383826
X00596289Y00384334
X00602385Y00376714
X00608735Y00379
X00615085Y00378492
X00621689
X00628039Y00378238
X00633627Y00379254
X00639977Y00378746
X00646581
X00652931Y00378492
X00659789Y00378746
X00665885Y00379508
X00672235Y00379254
X00678585Y00378746
X00685189
X00691539Y00378492
X00589685Y00376206
X01616062Y00454663
X01598208Y00501509
X01606193Y00551298
X01621175Y00551486
X01633772Y00551298
X01655165Y00550396
X01659493Y00561973
X01660545Y00579098
X01646472Y00584694
X01633772Y00584694
X01621072Y00584694
X01608372Y00607798
X01599589Y00623856
X01608733Y0064062
X01608987Y0066475
X01611433Y00679067
X01599458Y00681839
X01622165Y00705396
X01623582Y0072851
X01632841Y00735763
X01632605Y00753416
X01624165Y00754396
X01617877Y00755174
X01612472Y0073951
X0160188Y00739905
X01594031Y00753797
X0159376Y00770285
X01600519Y00771069
X01597045Y0078193
X0158933Y00784671
X01603653Y0078667
X01611805Y00776403
X01622054Y00787913
X01631335Y00787706
X01637845Y00788033
X01629845Y00782186
X01645845
X01659025Y0075746
X01665445Y00751511
X01672752Y00751818
X01688942Y0075748
X01712063Y00757018
Y00734414
X01698187Y00733987
X01684054Y00734414
X01665445Y00735763
X01663851Y00704628
X01660545Y00679756
X01670705Y00682296
X01688485Y00687376
X01680865Y00655626
X01722164Y00641184
X01717903Y00633628
X01721165Y00624396
X01733778Y00627205
X01744165Y00626142
X01744383Y00631979
X01754271Y00626711
X01764165Y00625396
X01770707Y00634036
X01752605Y00641224
X01736125
X01754531Y00658139
X01764605Y00658214
X01754165Y00670396
X01729962Y00670974
Y00684974
X01738015Y00709094
X01750715
X01763669
X01763567Y0068618
X01773251Y00682243
X01805325Y00691186
X01815485Y00724334
X01827148Y00721934
X01829455Y00746858
X01815485Y00746938
X01790085Y00763576
X01762065Y00751765
X01752065Y00743891
X01751425Y00730987
X01738015Y00731698
X01763415Y00734924
X01758351Y00779356
X01731665Y00777546
X01719527Y00773007
X01688942Y00791134
X01702205Y0061649
X01698645Y00594538
X01721165Y00595396
X01729836Y00592942
X01748165Y00589396
X01762165Y00594396
X01770165Y00590396
X01771165Y00580396
X01783165Y00577396
X01793068Y00623002
X01809262Y00624379
Y00638862
X01791317Y00649242
X01825173Y00611176
X01827148Y00605242
X01851665Y00561698
X01832165Y00536396
X01845667Y00462696
X01882523Y00463996
Y00483996
X01904627Y00473996
Y00453996
X01796165Y00429396
X01770165Y00464396
Y00475396
X01771165Y00488396
X01732165Y00485396
X01730165Y00495396
X01712615Y00498146
X01693565
X01703217Y00462586
X01733165Y00463396
X01740165Y00510396
X01718305Y00569978
X01683165Y00558396
X01646472Y00528194
X01878279Y00785294
X01891685
X01574312Y00774056
X01568601Y007727
X0157356Y00715453
X01561993Y0071684
X01542059Y00715443
X01541085Y00736017
X01510181Y00753147
X01504944Y0075213
X01503547Y00761584
X01496715Y0076508
X01491635Y00711506
X01504335Y00706426
X01509415Y00697536
X01501156Y0068911
X01488222Y00670157
X01469568Y00674646
X01468431Y00682843
X01459885Y00685778
X0145933Y00693773
X0144933
Y00707062
X0145933
X01475633Y00715824
X01459405Y007326
X01450205
X01429485Y00719174
X01416196Y00726238
X01409543Y00695964
X01414389Y00682964
X01436147Y00689464
Y00676464
X01426357Y00656388
X01432707Y00644074
X01449897Y00631832
X01471548Y00626183
X01479951Y00627178
X01466823Y00612056
X01515765Y00617526
X01514368Y00627074
X01498667Y00644074
X01526431Y00669843
X0152732Y00681955
X01532787Y00695484
X01569585Y00669041
X01581325
X01459885Y00663574
X01415331Y00627074
X01403751Y00622352
X01392067Y00621082
X01384447Y00630226
X01365613Y00619304
X01366667Y00644074
X01349395Y00629464
X0133452Y00620321
X01325884
X01329837Y0060127
X01317645Y00600583
X01302405
X01287189Y00600608
X01294277Y00631524
Y00636858
X01294785Y00652646
X01315693Y00646303
X01324757Y00656386
X01336489Y00663494
X01351543Y00669964
Y00682964
X01329075Y00677724
X01324677Y00688774
X01311388
X01277513Y0068763
X01273576Y00683858
X01298629Y00716185
X01302967Y00722428
X01337965Y00711378
X01348125Y00715315
X01356253Y00722174
Y00727508
X01378147Y00702464
Y00689464
Y00676464
X01390543Y00714046
X01403165Y00774396
X01439165Y00779396
X01269389Y00785146
X01251986Y00784939
X01230677Y00783601
X01209435Y00784648
X01211477Y0079302
X01200805Y00792476
X01195647Y0078918
X01191568Y00793268
X01198165Y00744379
X01249831Y0075746
X01273891Y00754813
X01212235Y00531166
X01200805Y00533706
X01221637Y00421926
X01244243Y00422434
X01321205Y0050473
X01356511Y00506
X01475878Y00464032
X01494207Y00477523
X01503065Y00449886
X01512481Y0042423
X01569645Y00398958
X01576994Y00495611
X01558945Y00503226
X01528734Y00512051
X01495445Y00532436
X01495384Y00546406
X01494175Y00556566
X01152545Y00541198
X01143655Y00526086
X01129054Y00533706
X01140351Y00560122
X01143165Y00615396
X01109365Y00651816
X01094125Y00660706
X01069745Y00684308
X01062125Y00688118
X01063892Y00705104
X01070502Y00704886
X01072158Y00712616
X01066826Y00712756
X01054764Y00709019
X01048772Y00709835
X01052603Y00730409
X01057553Y00732822
X01096161Y00749332
X01101971Y00752693
X01102765Y00757968
X01147977Y0075619
X01148666Y00763229
X01156807Y00759292
X01161227Y00756305
X01164816Y00748953
X01170075Y00746919
X01167027Y00766985
X01174012Y00775815
X01186712Y00791061
X01157429Y00791258
X00977797Y00793528
X00976908Y00776002
X00991005Y0070666
X01042313Y00688626
X00932839Y00641382
X00923441Y00637318
X00931823Y0058093
X00932077Y00567722
X00892961Y00510572
X00854353Y0047933
X00819879Y00501819
X00835557Y00542322
X00799501Y00556342
X00824635Y00602774
X00838773Y0064316
X00848168Y00719255
X00858417Y00723918
X00856402Y00729715
X0085276Y00733652
X00887627Y00730282
Y00739139
X00902613Y00748316
X00904337Y00762032
X00854861Y00788956
X00850797Y00793274
X01044444Y00490335
X01035792Y00479921
X01057807Y00482124
X01060497Y00456689
X01049425Y00460026
X01058823Y00425228
X01063194Y00422036
X01067459Y00417354
X01059839Y0041456
X01080413Y00404146
X01086439Y00425531
X01120037Y00437674
X00770279Y00460026
X00691031Y00467138
X00685443Y00466122
X00679093Y0046663
X00672489
X00666647Y00470948
X00659789Y00466122
X00653693Y00470694
X00647089Y00468662
X00640739Y0046917
X00634135
X00627785Y00469424
X00622197Y00468408
X00615847Y00468916
X00609243
X00564539Y00471456
X00558443Y00466122
X00500785Y0046917
X00456335Y00468916
X00449985Y00468408
X00443635Y00468662
X00507897Y00567214
X00523391Y00567087
X00542387Y00564674
X00545489Y00572802
X00561999
X00566623Y00576084
X00572159Y00572802
X00578636Y00572675
X00577573Y00564801
X0059413Y00542957
X00613307Y00615474
X00580033Y00621697
X00574699Y00621062
X00568857Y0061522
X00580795Y0062792
X00551585Y00637064
X00551839Y00651288
X00544981Y00727742
X00543203Y00743236
X00545042Y0074984
X00524407Y00745284
X00523899Y00756952
X00523137Y00771176
X00544473Y00774986
X00554887Y00788194
X00591971Y00750856
X00627785Y00744506
X00626134Y00736886
X00628674Y00731604
X00634135Y00733076
X00641755Y00731806
X00655217Y00739426
X00651915Y00759242
X00650415Y00767116
X00643025Y00763556
X00635802Y00762111
X00627785Y00761016
X00635405Y00748316
X00644295Y00752126
X00660805Y00764953
X00667155Y00761016
X00673505Y00757079
X00681379Y00756038
X00687983Y00758222
X00693654Y00754595
X00699687Y00760234
X00705255Y00754666
X00708224Y00750234
X00713637Y00752774
X00724305Y00757206
X00732481Y00758222
X00729355Y00763556
X00719225
X00711351Y00778796
X00703294Y0079216
X00693317Y00793274
X00682649Y00785146
X00652677Y00783622
X00643512Y0079373
X00728975Y00792183
X00748435Y00763556
X00753403Y00761326
X00757963Y00764094
X00762024Y00760635
X00763092Y00737311
X00756301Y00741834
X00749451Y00726472
X00746149Y00705898
X00740815Y00705771
X00734719Y00703993
X00749959Y00702165
X00772877Y00721138
X00775486Y00731552
X00731925Y00742728
X0070474Y00739903
X00704239Y00714026
X00691285Y0071555
X00677569
X00666901
X00654709Y00716058
X00648105Y006838
X00632357Y006965
X00623975Y00697516
X00643061Y00643064
X00649882Y00643413
X00648159Y00635231
X00641565Y00636841
X00668679Y00635794
X00649629Y00583978
X00685316Y00539782
X00697Y00542322
X00702059Y00535337
X00692336Y00529368
X00716133Y0052907
X00710081Y00517938
X00714145Y00504984
X00747419Y00580422
X00764691Y00577882
X00716431Y00674989
X00685951Y00732314
X00565301Y00722154
X00524407Y00720072
X00491641Y00702596
X00498245Y00688626
X00402487Y0070793
X00402233Y0071809
X00408329Y00764318
X00421283Y00763794
X00399693Y00770414
X00472083Y00778034
X00383437Y00785654
X00354765Y00771521
X0035451Y00765171
Y00759075
X00354765Y00752217
X0035451Y00745867
Y00739771
X0035578Y00726309
X00356035Y00720213
X00356288Y00713609
X00356035Y00707259
Y00701163
Y00695067
X0035578Y00688717
Y00682621
X0035451Y00663063
Y00656713
X00354765Y00650363
X0035451Y00644013
Y00637917
X00273601Y00624718
Y00618622
X00273347Y00612272
Y00605922
Y00599826
X00273093Y00593476
X00273347Y00586872
Y00580776
X00273093Y00574426
X00272839Y00561726
X00273093Y00555122
X00273201Y00548672
X00273347Y00542676
Y0065723
X00273601Y0066358
Y00669676
Y00676026
X00273855Y00682376
Y00688472
X00273601Y00695076
X00273855Y00701426
Y00707522
X00273601Y00714126
X00273855Y00720476
Y00726572
X00274109Y00739526
X00274363Y00745876
Y00751972
X00274109Y00758576
X00274363Y00764926
Y00771022
X00393851Y00826929
X00344067Y01023144
X00340104Y01032736
X00340083Y0103807
X00340143Y01047922
X00344321Y01053116
X00345591Y01042702
X00428268Y00991902
X00470675Y01024552
X00475882Y01029759
X00479946Y01033823
X00485407Y01039284
X00491503Y0104538
X00523645Y01040416
X00533565Y01040816
X00543565
X00553565
X00563565
X00573565
Y01030816
X00563565
X00553565
Y01020816
Y01010816
X00563565
X00573565
Y01020816
X00563565
X00583565
Y01010816
Y01000816
X00573565
X00563565
X00553565
Y00990816
Y00980816
X00573565
Y00970816
Y00960816
X00573565Y00950816
X00583565
X00593565
X00603565
X00613565
Y00960816
X00613565Y00970816
X00613565Y00980816
Y00990816
X00603565
X00593565
Y01000816
Y01010816
Y01020816
Y01030816
Y01040816
Y01050816
X00583151
X00573565
X00563565
X00554125Y01050322
X00543565Y01050816
X00533565
X00534059Y01061244
X00512193Y0106607
X00508565Y01015816
X00511453Y00981742
X00508659Y00957866
X005132Y00951272
X00533565Y00950816
Y00970816
Y00990816
X00543565Y01020816
Y01030816
X00583565
Y01040816
Y01060816
X00573899Y01060482
X00603979Y01050576
X00613565Y01050816
Y01040816
X00603565
Y01030816
X00613565
X00623565
X00633565Y01030816
Y01020816
X00623565Y01020816
Y01010816
X006335
Y01000816
X00623565
X00613565
X00603565
Y01010816
X00613565
Y01020816
X00603565
X00623565Y01040816
Y01050816
X00633979
Y01060816
X00653565Y01060816
Y01050816
Y01040816
X00663565
Y01030816
X00653565
Y01020816
Y01010816
X00663565
Y01020816
X00673565
Y01010816
Y01000816
Y00990816
Y00980816
Y00970816
Y00960816
Y00950816
X00653565
X00663565Y00960816
X00653565Y00970816
X00663565Y00980816
Y00990816
X00653565
Y01000816
X00663565
X00683565Y01000816
X00693565
X00693565Y00990816
X00703565Y00990816
X00713565
Y00980816
X00703565
Y00970816
X00713565
Y00960816
X00703565Y00960816
Y00950816
X00713565
X00693565
Y00960816
Y00970816
Y00980816
Y01010816
Y01020816
Y01030816
X00703565
X00713565
Y01040816
X00723565
Y01030816
X00733565
X00733449Y01040416
X00733565Y01020816
X00743565
X00743565Y01030816
X00753565
Y01020816
Y00990816
Y00970816
Y00950816
X00733565Y00960816
Y00980816
Y00990816
X00723565
Y01000816
Y01010816
Y01020816
X00713565
Y01010816
X00703565
Y01020816
Y01000816
X00713565
X00733565Y01010816
X00774009Y01002396
X00778565Y00995816
X00782889Y00991394
X00790763Y00992283
X00790707Y00971674
X00789565Y00959816
X00778915Y00956596
X00778565Y00975248
X00785011Y01018318
X00793647Y01018238
X00786281Y01028732
X00785263Y01036606
X00785519Y0105034
X00791361Y01049052
X00778661Y01051846
X00777391Y01043972
X00763565Y01050816
X00753565Y01050816
X00753261Y01060736
X00743565Y01060816
X00746077Y01071785
X00755039
X00737451Y01073563
X00716221Y01075274
X00712966Y01070268
X00708565Y01074227
X00704534Y01070547
X00698612Y0107576
X00683049Y01075402
X00685679Y01084739
X00675265
X00671259Y01071929
X00663565Y01069045
X00673565Y01060816
Y01050816
X00683565
X00693565
X00703565
X00713565
X00702556Y01059815
X00693565Y01060816
X00683565Y01040816
Y01030816
X00673565
Y01040816
X00663565Y01050816
X00633979Y01040771
X00613565Y01060816
X00621065Y01075816
X00615593Y0108385
X00609751Y01085816
X00601877Y01084358
X00603565Y01090816
X00596065
X00591065Y01088316
X00583843Y01092232
X00583565Y01123316
X00589685Y01121696
X00594765Y01125506
X00601115Y01120426
X00612545Y01125506
X00620165Y01121696
X00625245Y01124236
X00630325Y01121696
X00642263Y01117124
X00649375Y01126776
X00657249Y01127538
X00663599Y01127284
X00672489Y01126522
X00679601
X00683446Y01131693
X00687569Y01152778
X00737513Y01132872
X00746911Y01133126
X00754277Y01132364
X00762151Y01132872
X00778407Y01069626
X00785773Y01067848
X00793475Y00931057
X00789075Y00905796
X00788722Y00895283
X00778574Y0088607
X00763565Y00890816
X00762786Y00880816
X00753565
X00753565Y00870816
X0076332Y00870816
X00743565Y00870816
X00733565
Y00880816
Y00890816
Y00900816
X00743565Y00900816
X00743565Y00890816
Y00880816
X00743565Y00850816
X00733565Y00840816
Y00830816
Y00820816
X00739975Y00808006
X00748181Y00806482
X00756055Y00806736
X00755293Y0079683
X00761018Y00797455
X00747419Y00797338
X00733326Y00795527
X00724411Y00794945
X00718209Y00799878
X00719225Y00808006
X00728536Y00805329
X00723565Y00830816
Y00840816
X00723471Y00850656
X00713565Y00850816
X00703565
X00693565
X00683565
X00673565
Y00860816
Y00870816
Y00880816
Y00890816
Y00900816
X00683565
Y00890816
Y00880816
X00693565Y00880816
Y00870816
X00683565
Y00860816
X00693565
X00703565
X00713565
Y00870816
X00703565Y00870816
X00703565Y00880816
X00693565Y00890816
X00693565Y00900816
X00693565Y00910816
X00683565
Y00920816
X00693565
Y00930816
X00683565
X00673565
X00663565
X00653565
Y00920816
X00663565Y00920816
X00673565
Y00910816
X00663565Y00910816
Y00900816
Y00890816
X00653565Y00890816
Y00900816
Y00910816
X00633565Y00910816
X00623565
Y00900816
X00613565
X00603565
X00593565
Y00910816
X00603565
X00613565
Y00920816
X00603565
Y00930816
X00613565
X00623565
Y00920816
X00633565
Y00930816
X006335Y00950816
Y00960816
Y00980816
Y00990816
X00623565
X00583565
Y00980816
Y00970816
X00593565
Y00980816
X00573565Y00990816
X00553565Y00960816
Y00920816
X00543565
Y00890816
X00533678
Y00880816
X00543565Y00880816
X00553565
X00563565
X00563565Y00870816
X00573565
X00583565
Y00880816
X00573653Y00880904
X00583589Y00890792
X00593565Y00890816
Y00880816
Y00870816
X00603565
X00603565Y00880816
X00613565
Y00870816
X00623565
X00633565
Y00860816
X00623565
X00613565
X00603565
X00593565
X00583565
X00573565
X00563565
X00553871Y00861092
X00553565Y00870816
X00543565
X00533565
Y00860816
X00543565
Y00850816
X00533565Y00850816
X00533565Y00840816
X00543565
Y00830816
X00533565
X00534313Y00821214
X00543565Y00820816
X00553565Y00830816
X00563565
X00573565Y00830816
Y00840816
X00583565
Y00830816
X00593565Y00830816
X00593565Y00840816
Y00850816
X00603565
X00613565
X00623565
Y00840816
X00613565
X00603565
Y00830816
X00613565
Y00820816
Y00810816
X00623565Y00820816
Y00830816
X00633565
Y00820816
X00635659Y00805974
X00631628Y0080248
X00626691Y0080046
X00627785Y00794798
X00600071Y00795052
X00599591Y0080064
X00580541Y00794544
X00569746Y00795437
X00563523Y00803942
X00554125Y00794798
X00534313Y0080953
X00513739Y0080699
X00519835Y0079429
X00495959Y00798608
X00523151Y00830612
X00553565Y00840816
X00563418
X00563565Y00850816
X00573565
X00583565
X00553565
X00553565Y00890816
X00563565Y00910816
X00573565Y00930816
X00593565
Y00920816
X00583565Y00900816
X00603565Y00890816
X00613565
X00623565
X00633565Y00890816
X00633565Y00900816
X00633565Y00880816
X00623565Y00880816
X00653565
X00663565
Y00870816
Y00860816
X00653565
X00653565Y00870816
X00653565Y00850816
X00663565
Y00840816
X00653565
Y00830816
X00663565
Y00820816
X00653565
X00654455Y00809276
X00662214Y00806701
X00668525Y00805329
X00671037Y00795687
X00659535Y00797846
X00680871Y00805322
X00688745Y00805212
X00695418Y00804042
X00698722Y00794908
X00684935Y0079429
X00683565Y00820816
Y00830816
X00673565
Y00820816
Y00840816
X00683565
X00693565
X00703565
X00713565
Y00830816
X00703565
X00703748Y00821188
X00693565Y00821595
Y00830816
X00723565Y00860816
X00713565Y00890816
X00704356Y00901607
X00703565Y00910816
X00713565
X00723565Y00910816
Y00930816
X00713565Y00930816
X00743565Y00920816
X00763421Y00921036
X00778153Y00905796
X00782598Y00866864
X00782924Y0086154
X00781709Y00853053
X00791836Y00848043
X00793338Y0085906
X00778214Y00837559
X0077602Y00832697
X00780906Y00822958
X00788038Y00802418
X00786017Y00797074
X00753565Y00820816
X00763565Y00840816
X00633565
Y00850816
X00593565Y00820816
X00484275Y00854488
X00501065Y00872014
Y00890816
X00506065Y00895816
X00503833Y00903002
X00503734Y00911106
X00508565Y00925816
Y00931704
X00495324
X00496467Y0094161
X00493927Y00947452
X00487577Y0096955
X00425601Y00887
X00434237Y0087614
X00414979Y00867904
X00439124Y00848584
X00453287Y00839756
X00434491Y00799878
X00401471Y00826929
X00526693Y01108234
X00614951Y01091724
X00631065Y01085816
X00636929Y0108766
X00653909Y01083832
X00600099Y0107496
X00683565Y01010816
X00794565Y01004622
X00793893Y00996748
X00794961Y00982172
X00797553Y00974145
X00794548Y00956816
X00799235Y00943388
X00798518Y00937845
X00797438Y00927487
X0079427Y00922433
X00795425Y00909225
Y008997
Y00884206
X0079549Y0087052
X00808125Y00862108
X00827683Y00856774
X00828445Y00847376
Y0083747
X00827905Y00827056
X00827825Y00813736
X00837335Y00817023
X00836065Y00809149
Y00843629
X00829818Y00866468
X00829199Y00873807
X00825905Y00880396
X0082908Y00886444
X00831332Y0089728
X00830998Y00907151
X00835049Y00910622
X00825905Y00912019
X00825016Y00903214
X00816507Y00890302
X00827175Y00924973
X00830477Y00930942
X00829715Y00938816
X00828445Y00946436
X00815999Y00949268
X00829207Y00969296
X00833469Y00973288
X00833779Y00985044
X00828474Y0098302
X00823365Y00981488
X00827694Y01005296
X00834345Y01025362
X0083059Y01029149
X00832001Y01042956
X00831687Y01048281
X00797751Y01037128
X00794409Y010267
X00794155Y01071785
X00808633Y01072674
X00828445Y01136428
X00854953Y01023617
X00859607Y01018963
X00925473Y01019842
X00947825Y00982758
X00948968Y00976408
X00973479Y00986822
X00980083Y00988854
X00991005Y01004094
X01010563Y01023906
X01022593Y01033008
X01028089Y0103178
X01035072Y01039525
X01059818Y0106228
X01054759Y01068356
X01066951Y01066578
X01072285Y01065308
X01070507Y01077881
X01104741Y01051846
X01126895Y01063784
X01145437Y01081183
X01164233
X01172615Y0108004
X01173123Y01033939
X01178076Y01031399
X01163979Y01036802
X01152793Y01034818
X01151787Y01003528
X01157121
X01177949Y00995458
X01183439Y0096517
X01189516Y00962555
X01126641Y0099876
X01089303Y01014762
X01064665Y01012222
X01063649Y00986568
X01028565Y00976566
X01017565
Y00965566
X01028565
Y00954566
X01017565
Y00943566
X01028565
X00974241Y00896144
X00968399Y00899573
X00963672Y00902231
X00954683Y00891826
X00979067Y00885984
X00941729Y00838994
X0094846Y00829775
X00932077Y0082985
X00926235Y00839756
X00871879Y00806482
X00795161Y00813604
X00794917Y00821478
X00795959Y0084283
X01088033Y0082985
X0116436Y00826347
X01166773Y00835184
X01188236Y00818684
X01187093Y00807498
X01157502Y00801915
X01156919Y00796568
X01162666Y0087464
X01166392Y00878457
X00988973Y01044988
X01007007Y01141508
X01013357Y01138206
X01229003Y01063784
X01246783Y01073309
X01247291Y0104448
X01246021Y00997617
X01253298Y00986949
X01250339Y00980472
X0124502Y00980073
X01237893Y00977805
X0123462Y00968505
X01222907Y0096447
X01225447Y009759
X01225955Y00990886
X01233829Y00988092
X01218081Y00997236
X01210207Y00997744
X01202841Y0098679
X01199928Y00981369
X01194565Y00986727
X01275739Y0099368
X01277263Y00999014
X01288185Y01014508
X01298345Y01014762
X01312165Y01031396
X01332165Y01030396
X01357283Y0102415
X01368195Y01011714
X01376069Y01013492
X01385467Y01013238
X01386483Y01003332
X01411375Y01004094
Y01013238
X01415185Y01021874
X01429663Y01017175
X01424583Y0098352
X01455825Y00984536
X01485089Y00946915
X01551965Y00944277
X01553839Y0099596
X01543082Y00991411
X01530376Y00991778
X01515765Y00993446
X01532166Y01006851
X01531085Y01023897
X01540498Y0102331
X01571137Y0104704
X01571214Y010699
X01582567Y0107244
X01577745Y0089335
X01582063Y00868712
X01581301Y00862616
X01580987Y00857282
Y00851694
X01566485Y00875399
X01555917Y00874831
X0155131Y00888544
X01545978Y008884
X01530367Y00887127
X0152659Y00877016
X01415947Y00905288
X01374037Y00914178
X01306337Y00917927
X01298726Y00938435
X01278279Y00939832
X01272945Y00945814
X01255419Y00947579
X01246191Y00947128
X01248561Y00939324
X01243586Y00937401
X0123853Y00931321
X01262176Y00905949
X01272183Y00890556
X01272437Y00884206
X01283359Y00901224
X01245503Y00873528
X01238401Y00865566
X01221002Y00885835
X01215076Y00844539
X01219859Y00822357
X01216049Y00814747
X0120706Y00798255
X011923Y00808655
X01252117Y0080318
X01259483Y00802418
X01244165Y00793929
X01423165Y00795396
X01453285Y00804704
X01405404Y0081713
X01403258Y00825216
X01406165Y00832878
X01358289Y0099749
X01323165Y01002396
X01273453Y00974884
X01281581Y01064292
X01272691Y0109147
X01295805Y01091597
X01313077Y0114989
X01356003Y01073944
X01393849Y01079024
X01618165Y01076396
X01626221Y01071198
X01639697Y0107056
X01649939Y01060104
X01664228Y01059634
X01672102Y01059486
X01677429Y01059755
X01676509Y01080899
X01670998Y01082048
X01654183Y01080302
X01690228Y01076409
X01702092Y01079697
X01709165Y01079396
X01719045Y01080346
X01727808
X01727817Y01066974
X01719045Y01067058
X01701165Y01066396
X01710663Y01045126
X01709805Y01035356
X01710663Y01028126
X01708805Y01021058
Y00998854
X01684415Y01002634
X01664915
X01658415
X01651915
X01645415
X01641938Y00992341
X0162816Y00992238
X01618325Y00994081
X01607947Y00995774
X01616638Y01009014
X01627525Y01008037
X01628816Y01030149
X01616638
X01635318Y01023897
X01669435Y01034086
X01672165Y01042396
X01662831Y01042214
X0159133Y01046173
X01591711Y01027736
X01614414Y00977857
X0162029Y00941737
X01620387Y00894788
X01633875Y00894386
X01625112Y00882956
X01638188Y00872781
X01645432Y00870256
X01658005Y00871526
X01673503Y00874554
X01679869Y008692
X01689008Y00869138
X01688485Y00890576
X01669435Y00912166
X01673118Y00965506
X01678452
X01708911Y00962946
X01717175Y00953192
X0172489Y00970237
X01735367Y00981139
X01743067Y00980911
X01749332Y00986183
X01757968Y00977547
X01758843Y00964849
X01763665Y00945396
X01778665
Y00930396
X01771165Y00922896
X01763665
X01756165Y00930396
Y00937896
X01731247Y00936387
X01733665Y00915396
X01741165Y00907896
Y00896396
X01754572Y00900736
X01759906
X01768302Y00902006
X01773636
X01768165Y00892396
X01766165Y00830396
X01757573Y00838378
X017438Y00838463
X01713805Y00839635
Y00852923
X01710979Y00864784
X01716425Y00874066
X01713725Y00826346
X01713805Y00797043
X01688942Y00799134
Y00807134
X01668946Y00803134
X01674793Y00795134
X01660545Y00795326
X01657845Y00829955
X01663655Y00833892
X01661671Y00851012
X01653845Y00852857
X01667685Y00855885
X01673753Y00823393
X01647801Y00828436
X01640225
X01625243Y00825024
X01626743Y00814366
X01620897Y00807134
X01626743Y00799134
X01605793Y00795134
X01605757Y00803962
X01596965Y00802538
X01589795Y00798611
X01594851Y0081378
X01602134Y00814376
X01604207Y0081929
X01604923Y00828326
X01604627Y00833652
X01597045Y00838178
X01593235Y00890576
X01603649Y00893116
X01613305Y01087098
X01727808Y01109649
X01744285
Y01122938
X01734285
X01749165Y01083396
X01748165Y01057396
X01738171Y01051658
X01743286Y01043856
Y01026856
X01744107Y01019356
X01774845Y00982016
X01785005
X01790847Y00967988
Y00960426
X01800245Y00951536
X01802785Y00941376
X01804055Y00929946
X01815485Y00945058
X01822165Y00969396
X01842155Y00936296
X01824375Y00912166
X01880165Y00979396
X01912165Y01030396
X01911165Y01058396
X01809165Y01148396
X01877715Y00835966
X01878985Y00827076
Y00816916
X01894165Y00837396
X01895165Y00850396
X01765955Y00810566
X01764685Y00802565
T02
X00795035Y00631266
Y00642266
Y00653266
Y00664266
X00784035
X00773035
X00762035
Y00653266
Y00642266
X00773035
X00784035
Y00653266
X00773035
Y00631266
X00784035
X00762035
T03
X002824Y00390631
X00297165Y00384515
X0031193Y00390631
X009134Y00392631
X00928165Y00386515
X0094293Y00392631
X01045869Y00390938
X018864Y00390631
X01901165Y00384515
X0191593Y00390631
X01922045Y00405396
X0191593Y00420161
X01901165Y00426276
X018864Y00420161
X01880284Y00405396
X01930165Y00548396
X01804165Y00552396
X01797165Y00659396
X01819165Y00713396
X01887165Y00712396
X01928165Y00715396
X01865141Y00765041
X01843425Y00776276
X01687473Y00667036
X01675535Y00659924
X01661565Y00661956
X01668423Y00669576
X01651659Y00668814
X01685695Y00643668
X0161795Y00734158
X01608225Y00516668
X01608479Y00506508
X01614821Y0050268
X01614829Y00493046
X01628309Y00511063
X01635657Y00511588
X0157593Y00610631
X01561165Y00604515
X015464Y00610631
X01540284Y00625396
X015464Y00640161
X01561165Y00646276
X0157593Y00640161
X01582045Y00625396
X01557165Y00783258
X01525675Y00793396
X01414121Y00770352
X0135706Y00763333
X01330165Y00763396
X0130906Y00763333
X01261007Y00787686
X01219859
X01222744Y00740025
X01260753Y00738664
X01194586Y00716693
X01030375Y00761016
X01014881Y0068507
X01014373Y00666782
X01024279
X00972971Y00667544
X00983639Y0068507
X00981165Y00646276
X0099593Y00640161
X01002045Y00625396
X0099593Y00610631
X00981165Y00604515
X009664Y00610631
X00960284Y00625396
X009664Y00640161
X00984401Y00579914
X01001165Y00579406
X01012849Y0056442
Y00548164
X01019961Y0053267
X01019707Y00520732
X01008023Y00520351
X00984401
X00951381Y00533178
X00945793Y00545878
X00954683Y00548672
X00954175Y00564166
X00937411Y00526066
X00861719Y00509556
X00840329Y00515452
X00844774Y00535136
X00831366Y00563389
X00834795Y00593376
X00837335Y00603258
X00836065Y00616236
X00832255Y00627666
X00833209Y00646633
X00838253Y00652001
X00857049Y00656983
X00852369Y00662671
X00851305Y00677831
X0083381Y00675291
X00834044Y00700437
X00826014Y00712865
X00851028Y00705117
X00882801Y00706406
X00882195Y00674656
X00928775Y00724186
X00928031Y00731787
X00937665Y00724186
X00947481Y00726471
X00954846Y00726562
X00926997Y00782352
X00883817
X00799235Y00589566
X00800759Y00580676
X00799913Y00566156
X00806093Y00466884
X00820825Y00461804
X00820571Y004298
X00842669Y00440849
X00869085Y00438817
X00869352Y00431456
X00854861Y00468916
X009134Y00422161
X00907284Y00407396
X00928165Y00428276
X0094293Y00422161
X00949045Y00407396
X00970939Y00416084
X00987703Y00429038
X00998625Y00428276
X01009547Y00427006
X01047901Y00536861
X01065935Y00537496
X00793179Y00555737
X00770124Y00569881
X00774343Y00580168
X00768755Y00587026
X00750975Y00569881
X00764945Y00532416
X00775105Y00534956
X00730655Y00499396
X00705255Y00496856
X0067668Y00551593
X00653185Y00569246
X00648105Y00611156
X00666535Y00611776
X00659825Y00635235
X00675537Y00636302
X00693571Y00672624
X00693317Y00684054
X00659535Y0068253
X00632103Y0067745
X00632611Y00665766
X00643787Y00663734
X00605621Y00660303
X00604109Y00651605
X00613572Y00652289
X00606195Y00706406
X00593495Y00712756
X00546725Y00714201
X00528725Y00698786
X0051387Y00704073
X00514755Y00675926
X00489355Y00668306
X00491895Y00642906
X00467765Y00647986
X00472409Y00657311
X00465225Y00625805
X00443595Y00630246
X0040433Y00651731
X00410445Y00666496
X0040433Y00681261
X00486815Y00603536
X00540235Y00583216
X00576826Y00581565
X00577782Y00609921
X00567365Y00522276
X005526Y00516161
X00546484Y00501396
X005526Y00486631
X00567365Y00480515
X0058213Y00486631
X00588245Y00501396
X0058213Y00516161
X00725956Y00603536
X00747419Y00630206
X00745895Y00655606
X00767739Y00705136
X00781455Y00702596
X00790453Y0044464
X00791361Y0043234
X00423061Y00434118
X00403757Y00408464
X00373531Y00409988
X00318045Y00405396
X0031193Y00420161
X00297165Y00426276
X002824Y00420161
X00276284Y00405396
X00269391Y0056823
X00272038Y00637113
X00272185Y00650526
X00268883Y0073333
X00268629Y00782606
X00268565Y00790816
X00358075Y00790326
X00358545Y00781082
X00359815Y00733076
X00358291Y00676688
X00356005Y00669576
X00368684Y00666496
X003748Y00651731
X00389565Y00645615
Y00687376
X003748Y00681261
X00364895Y00567976
X00301395Y00859822
X00293013
X00343051Y00992918
X00342562Y01002804
X00344067Y01012984
X00351687Y0101273
X00369721Y01009428
X00379119Y01009174
X00387755Y01016032
X00390803Y0105337
X00379627
X00353465Y01064292
X00344321
X00350417Y01074198
X00361085
X00376833Y01099598
X00394867Y0110925
X00395375Y0112195
X00318045Y01125396
X0031193Y01110631
X00297165Y01104515
X002824Y01110631
X00276284Y01125396
X002824Y01140161
X00297165Y01146276
X0031193Y01140161
X00351179Y00988854
X00401217Y00986568
X00409599
X00409853Y00993934
X00488847Y01001808
X00496467Y01002062
X00509421Y01000284
X00487224Y00915448
X00484783Y00901478
X00504317Y0088088
X00453033Y0086033
X00445667Y00931958
X00434999Y01075306
X00533805Y0110036
X00534313Y01121061
X00525677Y01121442
X00539139Y01129316
X00540663Y01142016
X00533675Y01139686
X00576223Y01140238
X00569365Y01129062
X00575896Y01102719
X00568565Y01075816
X0052492Y00802758
X00928719Y00808895
X0095764Y00858207
X00952651Y00882428
X00947719Y00906146
X00950365Y0092637
X00993545Y00918242
X01016913Y00929164
X01028904Y00929364
X01066189Y00976408
X01100897Y00974004
X01102233Y00962866
X011017Y00985891
X00978813Y00975392
Y00969804
X00965351Y0097209
X00957858Y00972363
X00954683Y01002062
X00954937Y01043718
X009664Y01100631
X00981165Y01094515
X0099593Y01100631
X01002045Y01115396
X0099593Y01130161
X00981165Y01136276
X009664Y01130161
X00960284Y01115396
X00921155Y01107472
X00888389Y01136936
X00858915Y01109113
X01000761Y0082111
X00998911Y00794766
X01298165Y00817396
X01309165
X01303165Y00827396
X01304949Y00861854
X01315099Y00862076
X01326783
X01398079Y00866748
X01395165Y00851762
X01413165Y00807396
X01430675Y00820443
X01456165Y00796396
X01463165Y00795396
X01466874
X01493165Y00848396
X01505165
X01518013Y00908647
X01558973Y01003399
X01586885Y01004876
X0157593Y01100631
X01582045Y01115396
X0157593Y01130161
X01561165Y01136276
X015464Y01130161
X01540284Y01115396
X015464Y01100631
X01561165Y01094515
X01244057Y01009288
X01230394Y0092534
X01591965Y01088596
X01634165Y01079396
X01671165Y01122896
X01800505Y00917481
X01810405Y00919786
X01820565Y00921056
X01814206Y00885504
X01816275Y00871526
X01792625Y00863906
X01767225Y00839776
X01748165Y00850396
X01820565Y00818186
X01890165Y00903396
X01924165Y00912396
X01877165Y00933396
X01869165Y00947396
T04
X01044091Y00765588
X01059331
X01065681Y00775748
X00414171Y0051489
X00427887Y00475266
X00346861Y00459772
X00359307Y0051489
X009975Y00850025
X00999387Y00869601
X00979321Y0092637
X00971193Y01076484
X00955953
X01066929Y00819525
X01065427Y00796576
T06
X00413695Y01016306
Y01051306
T08
X01773465Y01036496
Y01061896
Y01087296
Y01112696
X01798865Y01099996
Y01074596
Y01049196
Y01023796
T09
X01223665Y00466396
X01249065
X01274465
Y00491796
X01249065
X01223665
X01230965Y00574596
X01205565
X01256365
X01281765
X01307165
X01332565
X01357965
X01408765
X01434165
X01459565
X01484965
X01510365
X01535765
X01464965Y00745796
X01439565
X01414165
X01388765
X01363365
X01337965
X01312565
X01287165
X01129685Y00628956
X01104285
X01078885
X01053485
X01180165Y00574596
X00462215Y00583126
Y00608526
X00436815
Y00583126
Y00557726
X00462215
Y00532326
X00436815
X01088725Y01057196
X01114125
X01139525
X01164925
X01190325
X01215725
X01241125
X01266525
X01291925
X01317325
X01357965
X01383365
X01408765
X01434165
X01459565
X01484965
X01510365
X01535765
X01464965Y00974396
X01439565
X01414165
X01388765
X01363365
X01337965
X01312565
X01287165
X01537165Y00853496
X01562565
Y00828096
Y00802696
X01537165
Y00828096
T10
X01029865Y01102696
X01055265
X01080665
Y01128096
X01106065
X01131465
Y01102696
X01156865
X01182265
Y01128096
X01156865
X01106065Y01102696
X01055265Y01128096
X01029865
X01207665
X01233065
X01258465
X01283865
X01309265
X01334665
Y01102696
X01360065
X01385465
Y01128096
X01410865
X01436265
X01461665
X01487065
X01512465
Y01102696
X01487065
X01461665
X01436265
X01410865
X01360065Y01128096
X01309265Y01102696
X01283865
X01258465
X01233065
X01207665
T11
X01911365Y01004996
X01896165Y01030396
X01911365Y01106096
X01896165Y01131496
T12
X01198265Y00466396
Y00491796
X01299865
X01325265
Y00466396
X01299865
X01350665
Y00491796
X01376065
X01401465
X01426865
Y00466396
X01401465
X01376065
X01172865
X01147465
X01122065
X01096665
Y00491796
X01071265
Y00466396
X01122065Y00491796
X01147465
X01172865
T13
X01658565Y00402896
X01693565
X01728565
X01763565
X01798565
X01833565
T14
X01831865Y00989496
Y01146996
T15
X003Y003
X019
Y01225
X003
T16
X01901165Y00405396
X01561165Y00625396
X00981165
X00928165Y00407396
X00567365Y00501396
X00389565Y00666496
X00297165Y00405396
Y01125396
X00981165Y01115396
X01561165
T17
X00822865Y00761516
X00464265Y01120116
T18
X01637165Y00571397
X01841666
T19
X00319315Y01011496
Y01069296
X01639765Y01101146
X01697565
T20
X00427015Y00425196
X00313365Y00806846
T21
X00811105Y00399186
X00861105
X00774445Y01133776
X00724445
T22
X00707715Y00425196
X00313365Y00526146
T23
X01547296Y0038118
X01625078Y00458962
X01013285Y00473746
X00913285
T24
X00296305Y00931926
T25
X01862365Y01011096
Y01125396
M30
