G04*
G04 #@! TF.GenerationSoftware,Altium Limited,Altium Designer,23.10.1 (27)*
G04*
G04 Layer_Physical_Order=2*
G04 Layer_Color=36540*
%FSLAX44Y44*%
%MOMM*%
G71*
G04*
G04 #@! TF.SameCoordinates,1E8E639B-A9AB-46FE-9B68-82187C007E20*
G04*
G04*
G04 #@! TF.FilePolarity,Positive*
G04*
G01*
G75*
%ADD10C,0.2540*%
%ADD15C,0.1270*%
%ADD16C,0.2032*%
%ADD89C,0.9000*%
%ADD93C,1.3900*%
%ADD99C,1.5700*%
%ADD103C,3.2000*%
%ADD104R,1.3900X1.3900*%
%ADD105C,2.4500*%
G04:AMPARAMS|DCode=106|XSize=1mm|YSize=1.8mm|CornerRadius=0.5mm|HoleSize=0mm|Usage=FLASHONLY|Rotation=180.000|XOffset=0mm|YOffset=0mm|HoleType=Round|Shape=RoundedRectangle|*
%AMROUNDEDRECTD106*
21,1,1.0000,0.8000,0,0,180.0*
21,1,0.0000,1.8000,0,0,180.0*
1,1,1.0000,0.0000,0.4000*
1,1,1.0000,0.0000,0.4000*
1,1,1.0000,0.0000,-0.4000*
1,1,1.0000,0.0000,-0.4000*
%
%ADD106ROUNDEDRECTD106*%
G04:AMPARAMS|DCode=107|XSize=1mm|YSize=2.1mm|CornerRadius=0.5mm|HoleSize=0mm|Usage=FLASHONLY|Rotation=180.000|XOffset=0mm|YOffset=0mm|HoleType=Round|Shape=RoundedRectangle|*
%AMROUNDEDRECTD107*
21,1,1.0000,1.1000,0,0,180.0*
21,1,0.0000,2.1000,0,0,180.0*
1,1,1.0000,0.0000,0.5500*
1,1,1.0000,0.0000,0.5500*
1,1,1.0000,0.0000,-0.5500*
1,1,1.0000,0.0000,-0.5500*
%
%ADD107ROUNDEDRECTD107*%
%ADD108C,0.6500*%
G04:AMPARAMS|DCode=112|XSize=1mm|YSize=2.1mm|CornerRadius=0.5mm|HoleSize=0mm|Usage=FLASHONLY|Rotation=270.000|XOffset=0mm|YOffset=0mm|HoleType=Round|Shape=RoundedRectangle|*
%AMROUNDEDRECTD112*
21,1,1.0000,1.1000,0,0,270.0*
21,1,0.0000,2.1000,0,0,270.0*
1,1,1.0000,-0.5500,0.0000*
1,1,1.0000,-0.5500,0.0000*
1,1,1.0000,0.5500,0.0000*
1,1,1.0000,0.5500,0.0000*
%
%ADD112ROUNDEDRECTD112*%
G04:AMPARAMS|DCode=113|XSize=1mm|YSize=1.8mm|CornerRadius=0.5mm|HoleSize=0mm|Usage=FLASHONLY|Rotation=270.000|XOffset=0mm|YOffset=0mm|HoleType=Round|Shape=RoundedRectangle|*
%AMROUNDEDRECTD113*
21,1,1.0000,0.8000,0,0,270.0*
21,1,0.0000,1.8000,0,0,270.0*
1,1,1.0000,-0.4000,0.0000*
1,1,1.0000,-0.4000,0.0000*
1,1,1.0000,0.4000,0.0000*
1,1,1.0000,0.4000,0.0000*
%
%ADD113ROUNDEDRECTD113*%
%ADD116C,0.1524*%
%ADD117C,0.5080*%
%ADD118C,0.3048*%
%ADD119C,1.2700*%
%ADD120R,1.5000X1.5000*%
%ADD121C,1.5000*%
%ADD122C,0.6000*%
%ADD123C,0.3556*%
%ADD124C,5.3000*%
%ADD125C,1.7000*%
%ADD126C,1.9000*%
%ADD127C,1.7272*%
%ADD128C,1.2000*%
%ADD129C,1.5500*%
%ADD130R,1.5500X1.5500*%
%ADD131R,1.7000X1.7000*%
%ADD132R,1.6764X1.6764*%
%ADD133R,1.5000X1.5000*%
%ADD134R,1.7272X1.7272*%
%ADD135C,0.4064*%
%ADD136C,0.6096*%
%ADD137C,0.6000*%
G36*
X950630Y874771D02*
X951653Y874347D01*
X959935Y866065D01*
X942025Y848155D01*
X938484D01*
X938360Y848368D01*
X938095Y849425D01*
X938799Y850130D01*
X939302Y851343D01*
Y852657D01*
X938799Y853870D01*
X937870Y854799D01*
X936657Y855302D01*
X935343D01*
X934130Y854799D01*
X933201Y853870D01*
X932698Y852657D01*
Y851343D01*
X933201Y850130D01*
X933905Y849425D01*
X933640Y848368D01*
X933516Y848155D01*
X930484D01*
X930360Y848368D01*
X930095Y849425D01*
X930799Y850130D01*
X931302Y851343D01*
Y852657D01*
X930799Y853870D01*
X929870Y854799D01*
X928657Y855302D01*
X927343D01*
X926130Y854799D01*
X925201Y853870D01*
X924698Y852657D01*
Y851343D01*
X925201Y850130D01*
X925905Y849425D01*
X925640Y848368D01*
X925516Y848155D01*
X922485D01*
X922360Y848368D01*
X922095Y849425D01*
X922799Y850130D01*
X923302Y851343D01*
Y852657D01*
X922799Y853870D01*
X921870Y854799D01*
X920657Y855302D01*
X919343D01*
X918130Y854799D01*
X917201Y853870D01*
X916698Y852657D01*
Y851343D01*
X917201Y850130D01*
X917905Y849425D01*
X917640Y848368D01*
X917515Y848155D01*
X914484D01*
X914360Y848368D01*
X914095Y849425D01*
X914799Y850130D01*
X915302Y851343D01*
Y852657D01*
X914799Y853870D01*
X913870Y854799D01*
X912657Y855302D01*
X911343D01*
X910130Y854799D01*
X909201Y853870D01*
X908698Y852657D01*
Y851343D01*
X909201Y850130D01*
X909905Y849425D01*
X909640Y848368D01*
X909516Y848155D01*
X906485D01*
X906360Y848368D01*
X906095Y849425D01*
X906799Y850130D01*
X907302Y851343D01*
Y852657D01*
X906799Y853870D01*
X905871Y854799D01*
X904657Y855302D01*
X903343D01*
X902130Y854799D01*
X901201Y853870D01*
X900698Y852657D01*
Y851343D01*
X901201Y850130D01*
X901905Y849425D01*
X901640Y848368D01*
X901516Y848155D01*
X898484D01*
X898360Y848368D01*
X898095Y849425D01*
X898799Y850130D01*
X899302Y851343D01*
Y852657D01*
X898799Y853870D01*
X897870Y854799D01*
X896657Y855302D01*
X895343D01*
X894130Y854799D01*
X893201Y853870D01*
X892698Y852657D01*
Y851343D01*
X893201Y850130D01*
X894130Y849201D01*
X894733Y848951D01*
X894832Y848760D01*
X894920Y847549D01*
X894920Y847549D01*
X881379Y834008D01*
X867998D01*
X867149Y835278D01*
X867176Y835343D01*
Y836657D01*
X866673Y837870D01*
X865744Y838799D01*
X864531Y839302D01*
X863217D01*
X862004Y838799D01*
X861075Y837870D01*
X860572Y836657D01*
Y836325D01*
X859674Y835787D01*
X859302Y836044D01*
Y836963D01*
X858799Y838176D01*
X857870Y839105D01*
X856657Y839608D01*
X855343D01*
X854130Y839105D01*
X853201Y838176D01*
X852698Y836963D01*
Y835649D01*
X852156Y835360D01*
X851302Y836266D01*
Y836657D01*
X850799Y837870D01*
X849871Y838799D01*
X848657Y839302D01*
X847343D01*
X846130Y838799D01*
X845201Y837870D01*
X844698Y836657D01*
Y835343D01*
X844725Y835278D01*
X843876Y834008D01*
X842237D01*
X842237Y834008D01*
X841444Y833850D01*
X840772Y833401D01*
X840772Y833401D01*
X836475Y829104D01*
X834989Y829413D01*
X834799Y829871D01*
X833870Y830799D01*
X832874Y831212D01*
X832858Y831300D01*
Y832394D01*
X832874Y832482D01*
X833870Y832895D01*
X834799Y833824D01*
X835302Y835037D01*
Y836351D01*
X834799Y837564D01*
X833870Y838493D01*
X832657Y838996D01*
X831343D01*
X830130Y838493D01*
X829201Y837564D01*
X828698Y836351D01*
Y835037D01*
X829201Y833824D01*
X830130Y832895D01*
X831126Y832482D01*
X831142Y832394D01*
Y831300D01*
X831126Y831212D01*
X830130Y830799D01*
X829201Y829871D01*
X828698Y828657D01*
Y827343D01*
X829201Y826130D01*
X830130Y825201D01*
X830587Y825011D01*
X830896Y823525D01*
X830535Y823164D01*
X830086Y822492D01*
X829928Y821699D01*
X829928Y821699D01*
Y814598D01*
X829201Y813870D01*
X828884Y813105D01*
X827720Y812568D01*
X827428Y812541D01*
X827302Y812624D01*
Y812657D01*
X826799Y813870D01*
X825871Y814799D01*
X824657Y815302D01*
X823343D01*
X822130Y814799D01*
X821201Y813870D01*
X820698Y812657D01*
Y811343D01*
X821201Y810130D01*
X822130Y809201D01*
X823343Y808698D01*
X823376D01*
X823459Y808572D01*
X823432Y808280D01*
X822895Y807116D01*
X822130Y806799D01*
X821201Y805871D01*
X820698Y804657D01*
Y803343D01*
X821201Y802130D01*
X822130Y801201D01*
X823343Y800698D01*
X823376D01*
X823459Y800572D01*
X823432Y800280D01*
X822895Y799116D01*
X822130Y798799D01*
X821201Y797870D01*
X820698Y796657D01*
Y795343D01*
X821201Y794130D01*
X822130Y793201D01*
X823343Y792698D01*
X824657D01*
X825871Y793201D01*
X826799Y794130D01*
X827302Y795343D01*
Y795590D01*
X828457Y796696D01*
X828698Y796657D01*
Y795343D01*
X829201Y794130D01*
X830130Y793201D01*
X831343Y792698D01*
X832657D01*
X833870Y793201D01*
X834799Y794130D01*
X835302Y795343D01*
Y796055D01*
X836000Y796446D01*
X836336Y796257D01*
X836698Y795815D01*
Y795343D01*
X837201Y794130D01*
X838130Y793201D01*
X839343Y792698D01*
X840657D01*
X841870Y793201D01*
X842799Y794130D01*
X843302Y795343D01*
Y796055D01*
X844000Y796446D01*
X844336Y796257D01*
X844698Y795815D01*
Y795343D01*
X845201Y794130D01*
X846130Y793201D01*
X847343Y792698D01*
X848657D01*
X849871Y793201D01*
X850799Y794130D01*
X851302Y795343D01*
Y796055D01*
X852000Y796446D01*
X852336Y796257D01*
X852698Y795815D01*
Y795343D01*
X853201Y794130D01*
X854130Y793201D01*
X855343Y792698D01*
X856657D01*
X857870Y793201D01*
X858799Y794130D01*
X858827Y794197D01*
X860325Y794495D01*
X863182Y791639D01*
Y766444D01*
X863329Y765700D01*
X863751Y765070D01*
X871495Y757326D01*
X871197Y755827D01*
X871130Y755799D01*
X870201Y754870D01*
X869698Y753657D01*
Y752343D01*
X870201Y751130D01*
X871130Y750201D01*
X872343Y749698D01*
X873657D01*
X874870Y750201D01*
X875799Y751130D01*
X875827Y751197D01*
X877326Y751495D01*
X877473Y751348D01*
X877474Y751347D01*
X878104Y750926D01*
X878526Y749547D01*
X878482Y749441D01*
Y748127D01*
X878502Y748079D01*
X877804Y747035D01*
X876590Y746532D01*
X875661Y745603D01*
X875159Y744390D01*
Y743076D01*
X875661Y741863D01*
X876590Y740934D01*
X877804Y740431D01*
X879118D01*
X880331Y740934D01*
X881260Y741863D01*
X881763Y743076D01*
Y744390D01*
X881743Y744438D01*
X882441Y745482D01*
X883654Y745985D01*
X883909Y746240D01*
X884975Y746235D01*
X884910Y745444D01*
X883981Y744515D01*
X883478Y743302D01*
Y741988D01*
X883981Y740774D01*
X884910Y739846D01*
X886124Y739343D01*
X887437D01*
X888651Y739846D01*
X889580Y740774D01*
X890082Y741988D01*
Y742660D01*
X890203Y743366D01*
X891210Y743898D01*
X893371D01*
X894220Y742628D01*
X894175Y742521D01*
Y741207D01*
X894678Y739994D01*
X895607Y739065D01*
X896047Y737508D01*
X895787Y736881D01*
Y735568D01*
X896290Y734354D01*
X897219Y733425D01*
X897697Y733227D01*
X898536Y731932D01*
Y730618D01*
X899038Y729405D01*
X899967Y728476D01*
X900281Y728346D01*
X901174Y727181D01*
Y725867D01*
X901676Y724654D01*
X902605Y723725D01*
X903819Y723222D01*
X905133D01*
X906346Y723725D01*
X907275Y724654D01*
X907778Y725867D01*
Y727181D01*
X907275Y728395D01*
X906346Y729324D01*
X906032Y729454D01*
X905140Y730618D01*
Y731932D01*
X904637Y733146D01*
X903708Y734074D01*
X903229Y734273D01*
X902391Y735568D01*
Y736881D01*
X901888Y738095D01*
X900959Y739024D01*
X900662Y740077D01*
X901532Y741105D01*
X901914Y741053D01*
X903413D01*
X904656Y739810D01*
X904729Y739440D01*
X905150Y738810D01*
X935584Y708376D01*
X936214Y707955D01*
X936957Y707807D01*
X942810D01*
X943658Y706537D01*
X943630Y706469D01*
Y705156D01*
X944133Y703942D01*
X945062Y703013D01*
X946275Y702510D01*
X947589D01*
X948802Y703013D01*
X949731Y703942D01*
X950234Y705156D01*
Y706060D01*
X951178Y707116D01*
X951243Y707160D01*
X951457Y707157D01*
X952273Y705997D01*
Y704684D01*
X952776Y703470D01*
X953705Y702541D01*
X954918Y702038D01*
X956232D01*
X957446Y702541D01*
X958374Y703470D01*
X958877Y704684D01*
Y705997D01*
X958653Y706537D01*
X959437Y707807D01*
X960650D01*
X976765Y691693D01*
X976765Y691693D01*
X977395Y691272D01*
X978138Y691124D01*
X1127931D01*
X1128780Y689854D01*
X1128698Y689657D01*
Y688343D01*
X1129201Y687130D01*
X1130130Y686201D01*
X1131343Y685698D01*
X1132657D01*
X1133870Y686201D01*
X1134799Y687130D01*
X1135302Y688343D01*
Y689657D01*
X1135220Y689854D01*
X1136069Y691124D01*
X1140763D01*
X1141598Y690155D01*
X1141319Y688952D01*
X1140510Y688617D01*
X1139295Y687402D01*
X1138638Y685815D01*
Y684097D01*
X1139295Y682510D01*
X1140510Y681295D01*
X1142097Y680638D01*
X1143815D01*
X1145402Y681295D01*
X1146617Y682510D01*
X1146982Y683392D01*
X1148447Y683722D01*
X1155480Y676690D01*
X1156110Y676269D01*
X1156853Y676121D01*
X1156853Y676121D01*
X1163233D01*
X1165677Y673677D01*
X1152943Y660943D01*
X1151770Y661429D01*
Y661555D01*
X1151172Y663785D01*
X1150018Y665785D01*
X1148385Y667418D01*
X1146385Y668572D01*
X1144155Y669170D01*
X1141845D01*
X1139615Y668572D01*
X1137615Y667418D01*
X1135982Y665785D01*
X1134828Y663785D01*
X1134230Y661555D01*
Y659245D01*
X1134828Y657015D01*
X1135324Y656155D01*
X1134689Y655055D01*
X1125911D01*
X1125276Y656155D01*
X1125772Y657015D01*
X1126370Y659245D01*
Y661555D01*
X1125772Y663785D01*
X1124618Y665785D01*
X1122985Y667418D01*
X1120985Y668572D01*
X1118755Y669170D01*
X1116445D01*
X1114215Y668572D01*
X1112215Y667418D01*
X1110582Y665785D01*
X1109428Y663785D01*
X1108830Y661555D01*
Y659245D01*
X1109428Y657015D01*
X1109924Y656155D01*
X1109289Y655055D01*
X1100511D01*
X1099876Y656155D01*
X1100372Y657015D01*
X1100970Y659245D01*
Y661555D01*
X1100372Y663785D01*
X1099218Y665785D01*
X1097585Y667418D01*
X1095585Y668572D01*
X1093355Y669170D01*
X1091045D01*
X1088815Y668572D01*
X1086815Y667418D01*
X1085182Y665785D01*
X1084028Y663785D01*
X1083430Y661555D01*
Y659245D01*
X1084028Y657015D01*
X1084524Y656155D01*
X1083889Y655055D01*
X1075111D01*
X1074476Y656155D01*
X1074972Y657015D01*
X1075570Y659245D01*
Y661555D01*
X1074972Y663785D01*
X1073818Y665785D01*
X1072185Y667418D01*
X1070185Y668572D01*
X1067955Y669170D01*
X1065645D01*
X1063415Y668572D01*
X1061415Y667418D01*
X1059782Y665785D01*
X1058628Y663785D01*
X1058030Y661555D01*
Y659245D01*
X1058628Y657015D01*
X1059124Y656155D01*
X1058489Y655055D01*
X1049711D01*
X1049076Y656155D01*
X1049572Y657015D01*
X1050170Y659245D01*
Y661555D01*
X1049572Y663785D01*
X1048418Y665785D01*
X1046785Y667418D01*
X1044785Y668572D01*
X1042555Y669170D01*
X1040245D01*
X1038015Y668572D01*
X1036015Y667418D01*
X1034382Y665785D01*
X1033228Y663785D01*
X1032630Y661555D01*
Y659245D01*
X1033228Y657015D01*
X1033724Y656155D01*
X1033089Y655055D01*
X1024770D01*
Y669170D01*
X1008292D01*
X1007230Y669170D01*
X1006028Y669334D01*
X1006028Y670074D01*
X1005525Y671287D01*
X1004596Y672216D01*
X1003383Y672719D01*
X1002069D01*
X1000855Y672216D01*
X999927Y671287D01*
X999424Y670074D01*
Y668760D01*
X999927Y667547D01*
X1000855Y666618D01*
X1002069Y666115D01*
X1003383D01*
X1004596Y666618D01*
X1005525Y667547D01*
X1006028Y668760D01*
X1007230Y668596D01*
X1007230Y667928D01*
X1007230Y667900D01*
Y655055D01*
X992286D01*
X991999Y655484D01*
Y656798D01*
X991496Y658011D01*
X990567Y658940D01*
X989354Y659443D01*
X988040D01*
X986827Y658940D01*
X985898Y658011D01*
X985870Y657943D01*
X984371Y657645D01*
X972946Y669071D01*
X972316Y669492D01*
X971572Y669640D01*
X947106D01*
X946580Y670910D01*
X946738Y671068D01*
X947241Y672282D01*
Y673596D01*
X946738Y674809D01*
X945809Y675738D01*
X944595Y676241D01*
X943282D01*
X942068Y675738D01*
X941139Y674809D01*
X940637Y673596D01*
Y672282D01*
X941139Y671068D01*
X941298Y670910D01*
X940771Y669640D01*
X937969D01*
X937123Y670910D01*
X937302Y671343D01*
Y672657D01*
X936799Y673870D01*
X935870Y674799D01*
X934657Y675302D01*
X933343D01*
X932776Y675067D01*
X932602Y675183D01*
X931859Y675331D01*
X911045D01*
X909307Y677069D01*
X908677Y677490D01*
X907934Y677637D01*
X901128D01*
X901127Y677638D01*
X900384Y677490D01*
X899754Y677069D01*
X899754Y677069D01*
X892627Y669941D01*
X892354Y669533D01*
X891326Y668505D01*
X889827Y668803D01*
X889799Y668870D01*
X888870Y669799D01*
X887657Y670302D01*
X887382Y670714D01*
X887434Y670841D01*
Y672154D01*
X886932Y673368D01*
X886003Y674297D01*
X884789Y674799D01*
X883475D01*
X882349Y674333D01*
X881955Y675286D01*
X881026Y676215D01*
X879812Y676718D01*
X878498D01*
X877285Y676215D01*
X876789Y675720D01*
X876468Y675784D01*
X875539Y676712D01*
X874325Y677215D01*
X873011D01*
X871798Y676712D01*
X870726Y677263D01*
X870296Y677694D01*
X870204Y677732D01*
X870089Y678308D01*
X870592Y679522D01*
Y680835D01*
X870089Y682049D01*
X869160Y682978D01*
X867947Y683480D01*
X866633D01*
X865419Y682978D01*
X864491Y682049D01*
X863988Y680835D01*
Y679522D01*
X864491Y678308D01*
X865419Y677379D01*
X865511Y677341D01*
X865626Y676765D01*
X865123Y675551D01*
Y674238D01*
X865626Y673024D01*
X866555Y672095D01*
X867769Y671592D01*
X869082D01*
X869593Y671804D01*
X870869Y672043D01*
X871798Y671114D01*
X873011Y670611D01*
X874325D01*
X875539Y671114D01*
X876034Y671610D01*
X876356Y671546D01*
X877285Y670617D01*
X878498Y670114D01*
X879812D01*
X880938Y670581D01*
X881333Y669627D01*
X882262Y668698D01*
X882390Y668645D01*
X882878Y667334D01*
X882613Y666942D01*
X862480D01*
X862479Y666942D01*
X861736Y666795D01*
X861106Y666373D01*
X861106Y666373D01*
X859132Y664400D01*
X858270D01*
X857870Y664799D01*
X856657Y665302D01*
X855343D01*
X854130Y664799D01*
X853201Y663870D01*
X852698Y662657D01*
Y661343D01*
X853201Y660130D01*
X854130Y659201D01*
X855343Y658698D01*
X855753Y657428D01*
X855580Y657256D01*
X855159Y656626D01*
X855011Y655882D01*
Y655849D01*
X854408Y655246D01*
X830822D01*
X830518Y655550D01*
X829887Y655972D01*
X829144Y656119D01*
X783883D01*
X783140Y655972D01*
X782510Y655550D01*
X782205Y655246D01*
X770108D01*
X769364Y655098D01*
X769301Y655055D01*
X765118D01*
X765054Y655098D01*
X764311Y655246D01*
X762317D01*
X752766Y664796D01*
Y714746D01*
X752618Y715489D01*
X752197Y716119D01*
X748702Y719614D01*
Y768505D01*
X755262Y775064D01*
X756760Y774766D01*
X756788Y774698D01*
X757717Y773770D01*
X758930Y773267D01*
X759919D01*
X760745Y772543D01*
X760984Y772199D01*
Y770462D01*
X761469Y768653D01*
X762405Y767031D01*
X763729Y765707D01*
X765351Y764771D01*
X767160Y764286D01*
X769032D01*
X770841Y764771D01*
X772463Y765707D01*
X773787Y767031D01*
X774723Y768653D01*
X775208Y770462D01*
Y772334D01*
X774723Y774143D01*
X773787Y775765D01*
X772463Y777089D01*
X770841Y778025D01*
X769961Y778261D01*
X770003Y779565D01*
X770133Y779590D01*
X770763Y780011D01*
X778850Y788099D01*
X780348Y787801D01*
X780410Y787653D01*
X781339Y786724D01*
X782552Y786221D01*
X783866D01*
X785079Y786724D01*
X786008Y787653D01*
X786511Y788866D01*
Y788946D01*
X787781Y789472D01*
X788698Y788555D01*
Y787343D01*
X789201Y786130D01*
X790130Y785201D01*
X791343Y784698D01*
X792657D01*
X793870Y785201D01*
X794799Y786130D01*
X795302Y787343D01*
Y788657D01*
X794799Y789871D01*
X793870Y790799D01*
X792657Y791302D01*
X792624D01*
X792541Y791428D01*
X792568Y791720D01*
X793105Y792884D01*
X793870Y793201D01*
X794799Y794130D01*
X795116Y794895D01*
X796280Y795432D01*
X796572Y795459D01*
X796698Y795376D01*
Y795343D01*
X797201Y794130D01*
X798130Y793201D01*
X799343Y792698D01*
X800657D01*
X801870Y793201D01*
X802799Y794130D01*
X803116Y794895D01*
X804280Y795432D01*
X804572Y795459D01*
X804698Y795376D01*
Y795343D01*
X805201Y794130D01*
X806130Y793201D01*
X807343Y792698D01*
X808657D01*
X809871Y793201D01*
X810799Y794130D01*
X811302Y795343D01*
Y796657D01*
X810799Y797870D01*
X809871Y798799D01*
X808657Y799302D01*
X808624D01*
X808541Y799428D01*
X808568Y799720D01*
X809105Y800884D01*
X809871Y801201D01*
X810799Y802130D01*
X811302Y803343D01*
Y803376D01*
X811428Y803459D01*
X811720Y803432D01*
X812884Y802895D01*
X813201Y802130D01*
X814130Y801201D01*
X815343Y800698D01*
X816657D01*
X817870Y801201D01*
X818799Y802130D01*
X819302Y803343D01*
Y804657D01*
X818799Y805871D01*
X817870Y806799D01*
X816657Y807302D01*
X815343D01*
X815021Y807169D01*
X814197Y807724D01*
X813879Y808070D01*
Y815930D01*
X815149Y816778D01*
X815343Y816698D01*
X816657D01*
X817870Y817201D01*
X818799Y818130D01*
X819302Y819343D01*
Y820657D01*
X818799Y821870D01*
X817870Y822799D01*
X816657Y823302D01*
X815343D01*
X815169Y823804D01*
X816179Y824698D01*
X816657D01*
X817870Y825201D01*
X818799Y826130D01*
X819302Y827343D01*
Y828657D01*
X818799Y829871D01*
X817870Y830799D01*
X816657Y831302D01*
X815343D01*
X814130Y830799D01*
X813399Y830871D01*
X813310Y831004D01*
X811004Y833310D01*
X810871Y833399D01*
X810799Y834130D01*
X811302Y835343D01*
Y836657D01*
X810799Y837870D01*
X809871Y838799D01*
X808657Y839302D01*
X807343D01*
X806130Y838799D01*
X805201Y837870D01*
X804698Y836657D01*
Y835343D01*
X804196Y835169D01*
X803302Y836179D01*
Y836657D01*
X802799Y837870D01*
X801870Y838799D01*
X800657Y839302D01*
X799343D01*
X798130Y838799D01*
X797201Y837870D01*
X796698Y836657D01*
Y835343D01*
X796196Y835169D01*
X795302Y836179D01*
Y836657D01*
X794799Y837870D01*
X793870Y838799D01*
X792657Y839302D01*
X791343D01*
X790130Y838799D01*
X789201Y837870D01*
X788698Y836657D01*
Y835343D01*
X788778Y835149D01*
X787930Y833879D01*
X780369D01*
X779626Y833732D01*
X778996Y833310D01*
X777197Y831511D01*
X776120Y832231D01*
X776302Y832670D01*
Y833984D01*
X775799Y835197D01*
X774870Y836126D01*
X773657Y836629D01*
X772343D01*
X771130Y836126D01*
X770201Y835197D01*
X769698Y833984D01*
Y832670D01*
X770201Y831457D01*
X770270Y831387D01*
X769744Y830117D01*
X767838D01*
X767095Y829969D01*
X766961Y829879D01*
X764369D01*
X763626Y829732D01*
X762996Y829310D01*
X757191Y823505D01*
X754819D01*
X753971Y824775D01*
X753999Y824843D01*
Y826157D01*
X753496Y827370D01*
X752567Y828299D01*
X751354Y828802D01*
X750040D01*
X748827Y828299D01*
X747898Y827370D01*
X747395Y826157D01*
Y824843D01*
X747442Y824730D01*
X747443Y824718D01*
X746807Y823357D01*
X746177Y822936D01*
X724051Y800810D01*
X722974Y801529D01*
X723265Y802231D01*
Y803545D01*
X722762Y804759D01*
X721833Y805687D01*
X720620Y806190D01*
X719306D01*
X718093Y805687D01*
X717164Y804759D01*
X716661Y803545D01*
Y802231D01*
X717164Y801018D01*
X718093Y800089D01*
X719306Y799586D01*
X720620D01*
X721322Y799877D01*
X722041Y798800D01*
X718553Y795312D01*
X718132Y794682D01*
X717984Y793939D01*
Y676937D01*
X717095Y676607D01*
X716714Y676573D01*
X715864Y677423D01*
X714651Y677926D01*
X713337D01*
X712124Y677423D01*
X711850Y677150D01*
X708000Y681000D01*
X711000Y684000D01*
Y689142D01*
X712270Y689990D01*
X712575Y689864D01*
X713889D01*
X715102Y690367D01*
X716031Y691296D01*
X716534Y692509D01*
Y693823D01*
X716031Y695036D01*
X715102Y695965D01*
X713889Y696468D01*
X712575D01*
X712270Y696342D01*
X711000Y697190D01*
Y843328D01*
X711313Y843537D01*
X712626D01*
X713840Y844040D01*
X714769Y844969D01*
X715271Y846182D01*
Y847496D01*
X714769Y848709D01*
X713840Y849638D01*
X713281Y849870D01*
X713533Y851140D01*
X714016D01*
X715229Y851643D01*
X716158Y852571D01*
X716661Y853785D01*
Y855099D01*
X716158Y856312D01*
X715229Y857241D01*
X715263Y858602D01*
X715645Y859524D01*
Y860838D01*
X715142Y862051D01*
X714213Y862980D01*
X713000Y863483D01*
X711686D01*
X711000Y863942D01*
Y868000D01*
X714473Y868486D01*
X755947Y874293D01*
X759613Y870627D01*
X760243Y870206D01*
X760315Y870191D01*
X760365Y869009D01*
X760344Y868891D01*
X759739Y868486D01*
X755096Y863842D01*
X753674Y864217D01*
X753419Y864830D01*
X752662Y865588D01*
X753498Y866423D01*
X754000Y867636D01*
Y868950D01*
X753498Y870164D01*
X752569Y871093D01*
X751355Y871595D01*
X750042D01*
X748828Y871093D01*
X747899Y870164D01*
X747396Y868950D01*
Y867636D01*
X747899Y866423D01*
X748656Y865666D01*
X747821Y864830D01*
X747318Y863617D01*
Y862303D01*
X747821Y861089D01*
X748284Y860627D01*
X747758Y859357D01*
X734901D01*
X734044Y860213D01*
X732830Y860716D01*
X731516D01*
X730303Y860213D01*
X729374Y859285D01*
X728871Y858071D01*
Y856757D01*
X729374Y855544D01*
X730303Y854615D01*
X731516Y854112D01*
X732830D01*
X734044Y854615D01*
X734901Y855472D01*
X749066D01*
X749552Y854298D01*
X744286Y849032D01*
X735224D01*
X734695Y849561D01*
Y850197D01*
X734192Y851411D01*
X733263Y852339D01*
X732050Y852842D01*
X730736D01*
X729523Y852339D01*
X728594Y851411D01*
X728091Y850197D01*
Y848883D01*
X728594Y847670D01*
X729523Y846741D01*
X730736Y846238D01*
X732050D01*
X732385Y846377D01*
X733046Y845717D01*
X733676Y845295D01*
X734420Y845148D01*
X745090D01*
X745833Y845295D01*
X746463Y845717D01*
X749158Y848411D01*
X750656Y848113D01*
X750684Y848046D01*
X751613Y847117D01*
X752069Y846928D01*
X752790Y846244D01*
X752704Y845395D01*
X752478Y844849D01*
Y843535D01*
X752492Y843502D01*
X751608Y842493D01*
X750294D01*
X749081Y841990D01*
X748152Y841061D01*
X747649Y839848D01*
Y838534D01*
X748152Y837321D01*
X748948Y836524D01*
X748152Y835727D01*
X747649Y834514D01*
Y833200D01*
X748152Y831987D01*
X749081Y831058D01*
X750294Y830555D01*
X751608D01*
X752821Y831058D01*
X753750Y831987D01*
X754253Y833200D01*
Y834514D01*
X753750Y835727D01*
X752954Y836524D01*
X753750Y837321D01*
X754253Y838534D01*
Y839848D01*
X754239Y839882D01*
X755123Y840890D01*
X756437D01*
X757650Y841393D01*
X758579Y842322D01*
X759082Y843535D01*
Y844849D01*
X758579Y846062D01*
X757650Y846991D01*
X757195Y847180D01*
X756474Y847864D01*
X756560Y848713D01*
X756786Y849259D01*
Y850573D01*
X756283Y851786D01*
X755354Y852715D01*
X755286Y852743D01*
X754988Y854241D01*
X763377Y862630D01*
X771643D01*
X772491Y861360D01*
X772382Y861097D01*
Y859783D01*
X772885Y858570D01*
X773814Y857641D01*
X775027Y857138D01*
X776341D01*
X777555Y857641D01*
X777773Y857860D01*
X778201Y858130D01*
X779130Y857201D01*
X780343Y856698D01*
X781657D01*
X782870Y857201D01*
X783799Y858130D01*
X783803Y858138D01*
X783884Y858197D01*
X785286Y858400D01*
X788996Y854690D01*
X789129Y854601D01*
X789201Y853870D01*
X788698Y852657D01*
Y851343D01*
X788430Y850942D01*
X778381D01*
X778381Y850942D01*
X777638Y850795D01*
X777008Y850373D01*
X775828Y850459D01*
X775679Y850608D01*
X774466Y851111D01*
X773152D01*
X771939Y850608D01*
X771010Y849679D01*
X770507Y848466D01*
Y847152D01*
X771010Y845939D01*
X771939Y845010D01*
X773152Y844507D01*
X774466D01*
X775679Y845010D01*
X776608Y845939D01*
X776800Y846401D01*
X777725D01*
X778468Y846549D01*
X779098Y846970D01*
X779186Y847058D01*
X788628D01*
X788996Y846690D01*
X789626Y846269D01*
X790369Y846121D01*
X817631D01*
X818374Y846269D01*
X819004Y846690D01*
X819372Y847058D01*
X820694D01*
X821437Y847206D01*
X822067Y847627D01*
X823445Y849004D01*
X824657D01*
X825871Y849507D01*
X826799Y850436D01*
X827302Y851649D01*
Y852963D01*
X826799Y854176D01*
X825871Y855105D01*
X824874Y855518D01*
X824858Y855606D01*
Y856700D01*
X824874Y856788D01*
X825871Y857201D01*
X826799Y858130D01*
X827302Y859343D01*
Y860657D01*
X826799Y861870D01*
X825871Y862799D01*
X825105Y863116D01*
X824568Y864280D01*
X824541Y864572D01*
X824624Y864698D01*
X824657D01*
X825871Y865201D01*
X826799Y866130D01*
X827302Y867343D01*
Y868657D01*
X827248Y868788D01*
X827980Y870024D01*
X828089Y870075D01*
X828743Y870206D01*
X829373Y870627D01*
X831445Y872698D01*
X832657D01*
X833870Y873201D01*
X834799Y874130D01*
X835160Y875000D01*
X836840D01*
X837201Y874130D01*
X838130Y873201D01*
X839343Y872698D01*
X840657D01*
X841870Y873201D01*
X842799Y874130D01*
X843160Y875000D01*
X844840D01*
X845201Y874130D01*
X846130Y873201D01*
X847343Y872698D01*
X848657D01*
X849871Y873201D01*
X850799Y874130D01*
X851160Y875000D01*
X852840D01*
X853201Y874130D01*
X854130Y873201D01*
X855343Y872698D01*
X856657D01*
X857870Y873201D01*
X858799Y874130D01*
X859160Y875000D01*
X868840D01*
X869201Y874130D01*
X870130Y873201D01*
X871343Y872698D01*
X872657D01*
X873870Y873201D01*
X874799Y874130D01*
X875160Y875000D01*
X876840D01*
X877201Y874130D01*
X878130Y873201D01*
X879343Y872698D01*
X880657D01*
X881870Y873201D01*
X882799Y874130D01*
X883160Y875000D01*
X884840D01*
X885201Y874130D01*
X886130Y873201D01*
X887343Y872698D01*
X888657D01*
X889871Y873201D01*
X890799Y874130D01*
X891160Y875000D01*
X892840D01*
X893201Y874130D01*
X894130Y873201D01*
X895343Y872698D01*
X896657D01*
X897870Y873201D01*
X898799Y874130D01*
X899160Y875000D01*
X908840D01*
X909201Y874130D01*
X910130Y873201D01*
X911343Y872698D01*
X912657D01*
X913870Y873201D01*
X914799Y874130D01*
X915160Y875000D01*
X916840D01*
X917201Y874130D01*
X918130Y873201D01*
X919343Y872698D01*
X920657D01*
X921870Y873201D01*
X922799Y874130D01*
X923160Y875000D01*
X924840D01*
X925201Y874130D01*
X926130Y873201D01*
X927343Y872698D01*
X928657D01*
X929871Y873201D01*
X930799Y874130D01*
X931160Y875000D01*
X932840D01*
X933201Y874130D01*
X934130Y873201D01*
X935343Y872698D01*
X936657D01*
X937870Y873201D01*
X938799Y874130D01*
X939160Y875000D01*
X950400D01*
X950630Y874771D01*
D02*
G37*
G36*
X765212Y815907D02*
X760900Y811595D01*
X760688D01*
X759945Y811448D01*
X759314Y811026D01*
X725582Y777294D01*
X724409Y777780D01*
Y792082D01*
X749407Y817081D01*
X764726D01*
X765212Y815907D01*
D02*
G37*
%LPC*%
G36*
X945833Y873126D02*
X944519D01*
X943305Y872624D01*
X942376Y871695D01*
X941874Y870481D01*
Y869167D01*
X942376Y867954D01*
X943305Y867025D01*
X944519Y866522D01*
X945833D01*
X947046Y867025D01*
X947975Y867954D01*
X948478Y869167D01*
Y870481D01*
X947975Y871695D01*
X947046Y872624D01*
X945833Y873126D01*
D02*
G37*
G36*
X856531Y871344D02*
X855217D01*
X854004Y870841D01*
X853075Y869912D01*
X852572Y868698D01*
Y867385D01*
X853075Y866171D01*
X854004Y865242D01*
X855217Y864740D01*
X856531D01*
X857744Y865242D01*
X858673Y866171D01*
X859176Y867385D01*
Y868698D01*
X858673Y869912D01*
X857744Y870841D01*
X856531Y871344D01*
D02*
G37*
G36*
X912657Y871302D02*
X911343D01*
X910130Y870799D01*
X909201Y869870D01*
X908698Y868657D01*
Y867343D01*
X909201Y866130D01*
X910130Y865201D01*
X911343Y864698D01*
X912657D01*
X913870Y865201D01*
X914799Y866130D01*
X915302Y867343D01*
Y868657D01*
X914799Y869870D01*
X913870Y870799D01*
X912657Y871302D01*
D02*
G37*
G36*
X904657D02*
X903343D01*
X902130Y870799D01*
X901201Y869870D01*
X900698Y868657D01*
Y867343D01*
X901201Y866130D01*
X902130Y865201D01*
X903343Y864698D01*
X904657D01*
X905870Y865201D01*
X906799Y866130D01*
X907302Y867343D01*
Y868657D01*
X906799Y869870D01*
X905870Y870799D01*
X904657Y871302D01*
D02*
G37*
G36*
X896657D02*
X895343D01*
X894130Y870799D01*
X893201Y869870D01*
X892698Y868657D01*
Y867343D01*
X893201Y866130D01*
X894130Y865201D01*
X895343Y864698D01*
X896657D01*
X897870Y865201D01*
X898799Y866130D01*
X899302Y867343D01*
Y868657D01*
X898799Y869870D01*
X897870Y870799D01*
X896657Y871302D01*
D02*
G37*
G36*
X880657D02*
X879343D01*
X878130Y870799D01*
X877201Y869870D01*
X876698Y868657D01*
Y867343D01*
X877201Y866130D01*
X878130Y865201D01*
X879343Y864698D01*
X880657D01*
X881870Y865201D01*
X882799Y866130D01*
X883302Y867343D01*
Y868657D01*
X882799Y869870D01*
X881870Y870799D01*
X880657Y871302D01*
D02*
G37*
G36*
X840657D02*
X839343D01*
X838130Y870799D01*
X837201Y869870D01*
X836698Y868657D01*
Y867343D01*
X837201Y866130D01*
X838130Y865201D01*
X839343Y864698D01*
X840657D01*
X841870Y865201D01*
X842799Y866130D01*
X843302Y867343D01*
Y868657D01*
X842799Y869870D01*
X841870Y870799D01*
X840657Y871302D01*
D02*
G37*
G36*
X928657Y871302D02*
X927343D01*
X926130Y870799D01*
X925201Y869870D01*
X924698Y868657D01*
Y867343D01*
X925201Y866130D01*
X926130Y865201D01*
X927343Y864698D01*
X928657D01*
X929870Y865201D01*
X930799Y866130D01*
X931302Y867343D01*
Y868657D01*
X930799Y869870D01*
X929870Y870799D01*
X928657Y871302D01*
D02*
G37*
G36*
X920657D02*
X919343D01*
X918130Y870799D01*
X917201Y869870D01*
X916698Y868657D01*
Y867343D01*
X917201Y866130D01*
X918130Y865201D01*
X919343Y864698D01*
X920657D01*
X921870Y865201D01*
X922799Y866130D01*
X923302Y867343D01*
Y868657D01*
X922799Y869870D01*
X921870Y870799D01*
X920657Y871302D01*
D02*
G37*
G36*
X951887Y868045D02*
X950573D01*
X949360Y867542D01*
X948431Y866613D01*
X947928Y865400D01*
Y864086D01*
X948431Y862873D01*
X949360Y861944D01*
X950573Y861441D01*
X951887D01*
X953100Y861944D01*
X954029Y862873D01*
X954532Y864086D01*
Y865400D01*
X954029Y866613D01*
X953100Y867542D01*
X951887Y868045D01*
D02*
G37*
G36*
X904657Y863302D02*
X903343D01*
X902130Y862799D01*
X901201Y861870D01*
X900698Y860657D01*
Y859343D01*
X901201Y858130D01*
X902130Y857201D01*
X903343Y856698D01*
X904657D01*
X905870Y857201D01*
X906799Y858130D01*
X907302Y859343D01*
Y860657D01*
X906799Y861870D01*
X905870Y862799D01*
X904657Y863302D01*
D02*
G37*
G36*
X896657D02*
X895343D01*
X894130Y862799D01*
X893201Y861870D01*
X892698Y860657D01*
Y859343D01*
X893201Y858130D01*
X894130Y857201D01*
X895343Y856698D01*
X896657D01*
X897870Y857201D01*
X898799Y858130D01*
X899302Y859343D01*
Y860657D01*
X898799Y861870D01*
X897870Y862799D01*
X896657Y863302D01*
D02*
G37*
G36*
X840657D02*
X839343D01*
X838130Y862799D01*
X837201Y861870D01*
X836698Y860657D01*
Y859343D01*
X837201Y858130D01*
X838130Y857201D01*
X839343Y856698D01*
X840657D01*
X841870Y857201D01*
X842799Y858130D01*
X843302Y859343D01*
Y860657D01*
X842799Y861870D01*
X841870Y862799D01*
X840657Y863302D01*
D02*
G37*
G36*
X936657Y863302D02*
X935343D01*
X934130Y862799D01*
X933201Y861870D01*
X932698Y860657D01*
Y859343D01*
X933201Y858130D01*
X934130Y857201D01*
X935343Y856698D01*
X936657D01*
X937870Y857201D01*
X938799Y858130D01*
X939302Y859343D01*
Y860657D01*
X938799Y861870D01*
X937870Y862799D01*
X936657Y863302D01*
D02*
G37*
G36*
X928657D02*
X927343D01*
X926130Y862799D01*
X925201Y861870D01*
X924698Y860657D01*
Y859343D01*
X925201Y858130D01*
X926130Y857201D01*
X927343Y856698D01*
X928657D01*
X929870Y857201D01*
X930799Y858130D01*
X931302Y859343D01*
Y860657D01*
X930799Y861870D01*
X929870Y862799D01*
X928657Y863302D01*
D02*
G37*
G36*
X920657D02*
X919343D01*
X918130Y862799D01*
X917201Y861870D01*
X916698Y860657D01*
Y859343D01*
X917201Y858130D01*
X918130Y857201D01*
X919343Y856698D01*
X920657D01*
X921870Y857201D01*
X922799Y858130D01*
X923302Y859343D01*
Y860657D01*
X922799Y861870D01*
X921870Y862799D01*
X920657Y863302D01*
D02*
G37*
G36*
X912657D02*
X911343D01*
X910130Y862799D01*
X909201Y861870D01*
X908698Y860657D01*
Y859343D01*
X909201Y858130D01*
X910130Y857201D01*
X911343Y856698D01*
X912657D01*
X913870Y857201D01*
X914799Y858130D01*
X915302Y859343D01*
Y860657D01*
X914799Y861870D01*
X913870Y862799D01*
X912657Y863302D01*
D02*
G37*
G36*
X880657D02*
X879343D01*
X878130Y862799D01*
X877201Y861870D01*
X876698Y860657D01*
Y859343D01*
X877201Y858130D01*
X878130Y857201D01*
X879343Y856698D01*
X880657D01*
X881870Y857201D01*
X882799Y858130D01*
X883302Y859343D01*
Y860657D01*
X882799Y861870D01*
X881870Y862799D01*
X880657Y863302D01*
D02*
G37*
G36*
X856657D02*
X855343D01*
X854130Y862799D01*
X853201Y861870D01*
X852698Y860657D01*
Y859343D01*
X853201Y858130D01*
X854130Y857201D01*
X855343Y856698D01*
X856657D01*
X857870Y857201D01*
X858799Y858130D01*
X859302Y859343D01*
Y860657D01*
X858799Y861870D01*
X857870Y862799D01*
X856657Y863302D01*
D02*
G37*
G36*
X769134Y856969D02*
X767820D01*
X766607Y856466D01*
X765678Y855537D01*
X765175Y854324D01*
Y853010D01*
X765678Y851796D01*
X766607Y850867D01*
X767820Y850365D01*
X769134D01*
X770347Y850867D01*
X771276Y851796D01*
X771779Y853010D01*
Y854324D01*
X771276Y855537D01*
X770347Y856466D01*
X769134Y856969D01*
D02*
G37*
G36*
X832657Y863302D02*
X831343D01*
X830130Y862799D01*
X829201Y861870D01*
X828698Y860657D01*
Y859343D01*
X829201Y858130D01*
X830130Y857201D01*
X831126Y856788D01*
X831142Y856701D01*
X831142Y855606D01*
X831126Y855518D01*
X830130Y855105D01*
X829201Y854176D01*
X828698Y852963D01*
Y851649D01*
X829201Y850436D01*
X830130Y849507D01*
X831343Y849004D01*
X832657D01*
X833870Y849507D01*
X834799Y850436D01*
X835302Y851649D01*
Y852963D01*
X834799Y854176D01*
X833870Y855105D01*
X832874Y855518D01*
X832858Y855605D01*
X832858Y856700D01*
X832874Y856788D01*
X833870Y857201D01*
X834799Y858130D01*
X835302Y859343D01*
Y860657D01*
X834799Y861870D01*
X833870Y862799D01*
X832657Y863302D01*
D02*
G37*
G36*
X848657Y855604D02*
X847343D01*
X846130Y855101D01*
X845201Y854172D01*
X844698Y852959D01*
Y851645D01*
X845201Y850431D01*
X846130Y849502D01*
X847343Y849000D01*
X848657D01*
X849870Y849502D01*
X850799Y850431D01*
X851302Y851645D01*
Y852959D01*
X850799Y854172D01*
X849870Y855101D01*
X848657Y855604D01*
D02*
G37*
G36*
X872655Y855304D02*
X871341D01*
X870128Y854801D01*
X869199Y853872D01*
X868696Y852659D01*
Y851345D01*
X869199Y850131D01*
X870128Y849202D01*
X871341Y848700D01*
X872655D01*
X873869Y849202D01*
X874798Y850131D01*
X875300Y851345D01*
Y852659D01*
X874798Y853872D01*
X873869Y854801D01*
X872655Y855304D01*
D02*
G37*
G36*
X888657Y855302D02*
X887343D01*
X886130Y854799D01*
X885201Y853870D01*
X884698Y852657D01*
Y851343D01*
X885201Y850130D01*
X886130Y849201D01*
X887343Y848698D01*
X888657D01*
X889871Y849201D01*
X890799Y850130D01*
X891302Y851343D01*
Y852657D01*
X890799Y853870D01*
X889871Y854799D01*
X888657Y855302D01*
D02*
G37*
G36*
X848759Y847730D02*
X847445D01*
X846232Y847227D01*
X845303Y846298D01*
X844800Y845085D01*
Y843771D01*
X845303Y842557D01*
X846232Y841628D01*
X847445Y841126D01*
X848759D01*
X849973Y841628D01*
X850901Y842557D01*
X851404Y843771D01*
Y845085D01*
X850901Y846298D01*
X849973Y847227D01*
X848759Y847730D01*
D02*
G37*
G36*
X781657Y843302D02*
X780343D01*
X779130Y842799D01*
X778201Y841870D01*
X777698Y840657D01*
Y839343D01*
X778201Y838130D01*
X779130Y837201D01*
X780343Y836698D01*
X781657D01*
X782870Y837201D01*
X783799Y838130D01*
X784302Y839343D01*
Y840657D01*
X783799Y841870D01*
X782870Y842799D01*
X781657Y843302D01*
D02*
G37*
G36*
X729510Y840232D02*
X728196D01*
X726983Y839729D01*
X726054Y838800D01*
X725551Y837587D01*
Y836273D01*
X726054Y835060D01*
X726983Y834131D01*
X728196Y833628D01*
X729510D01*
X730723Y834131D01*
X731652Y835060D01*
X732155Y836273D01*
Y837587D01*
X731652Y838800D01*
X730723Y839729D01*
X729510Y840232D01*
D02*
G37*
G36*
X816657Y839302D02*
X815343D01*
X814130Y838799D01*
X813201Y837870D01*
X812698Y836657D01*
Y835343D01*
X813201Y834130D01*
X814130Y833201D01*
X815343Y832698D01*
X816657D01*
X817870Y833201D01*
X818799Y834130D01*
X819302Y835343D01*
Y836657D01*
X818799Y837870D01*
X817870Y838799D01*
X816657Y839302D01*
D02*
G37*
G36*
X824657Y838996D02*
X823343D01*
X822130Y838493D01*
X821201Y837564D01*
X820698Y836351D01*
Y835037D01*
X821201Y833824D01*
X822130Y832895D01*
X823343Y832392D01*
X824657D01*
X825871Y832895D01*
X826799Y833824D01*
X827302Y835037D01*
Y836351D01*
X826799Y837564D01*
X825871Y838493D01*
X824657Y838996D01*
D02*
G37*
G36*
Y823302D02*
X823343D01*
X822130Y822799D01*
X821201Y821870D01*
X820698Y820657D01*
Y819343D01*
X821201Y818130D01*
X822130Y817201D01*
X823343Y816698D01*
X824657D01*
X825871Y817201D01*
X826799Y818130D01*
X827302Y819343D01*
Y820657D01*
X826799Y821870D01*
X825871Y822799D01*
X824657Y823302D01*
D02*
G37*
G36*
X816657Y799302D02*
X815343D01*
X814130Y798799D01*
X813201Y797870D01*
X812698Y796657D01*
Y795343D01*
X813201Y794130D01*
X814130Y793201D01*
X815343Y792698D01*
X816657D01*
X817870Y793201D01*
X818799Y794130D01*
X819302Y795343D01*
Y796657D01*
X818799Y797870D01*
X817870Y798799D01*
X816657Y799302D01*
D02*
G37*
G36*
Y791302D02*
X815343D01*
X814130Y790799D01*
X813201Y789871D01*
X812698Y788657D01*
Y787343D01*
X813037Y786525D01*
X812015Y785674D01*
X810745Y786407D01*
X808936Y786892D01*
X807064D01*
X805255Y786407D01*
X803986Y785674D01*
X802963Y786525D01*
X803302Y787343D01*
Y788657D01*
X802799Y789871D01*
X801870Y790799D01*
X800657Y791302D01*
X799343D01*
X798130Y790799D01*
X797201Y789871D01*
X796698Y788657D01*
Y787343D01*
X797201Y786130D01*
X798130Y785201D01*
X799343Y784698D01*
X800657D01*
X801394Y785003D01*
X801923Y784508D01*
X802203Y783964D01*
X801373Y782525D01*
X800888Y780716D01*
Y778844D01*
X801373Y777035D01*
X802309Y775413D01*
X803633Y774089D01*
X805255Y773153D01*
X807064Y772668D01*
X808936D01*
X810745Y773153D01*
X812367Y774089D01*
X813691Y775413D01*
X814627Y777035D01*
X815112Y778844D01*
Y780716D01*
X814627Y782525D01*
X813797Y783964D01*
X814077Y784508D01*
X814606Y785003D01*
X815343Y784698D01*
X816657D01*
X817870Y785201D01*
X818799Y786130D01*
X819302Y787343D01*
Y788657D01*
X818799Y789871D01*
X817870Y790799D01*
X816657Y791302D01*
D02*
G37*
G36*
X856657D02*
X855343D01*
X854130Y790799D01*
X853201Y789871D01*
X852698Y788657D01*
Y787343D01*
X853201Y786130D01*
X854130Y785201D01*
X855343Y784698D01*
X856657D01*
X857870Y785201D01*
X858799Y786130D01*
X859302Y787343D01*
Y788657D01*
X858799Y789871D01*
X857870Y790799D01*
X856657Y791302D01*
D02*
G37*
G36*
X848657D02*
X847343D01*
X846130Y790799D01*
X845201Y789871D01*
X844698Y788657D01*
Y787343D01*
X845201Y786130D01*
X846130Y785201D01*
X847343Y784698D01*
X848657D01*
X849871Y785201D01*
X850799Y786130D01*
X851302Y787343D01*
Y788657D01*
X850799Y789871D01*
X849871Y790799D01*
X848657Y791302D01*
D02*
G37*
G36*
X840657D02*
X839343D01*
X838130Y790799D01*
X837201Y789871D01*
X836698Y788657D01*
Y787343D01*
X837201Y786130D01*
X838130Y785201D01*
X839343Y784698D01*
X840657D01*
X841870Y785201D01*
X842799Y786130D01*
X843302Y787343D01*
Y788657D01*
X842799Y789871D01*
X841870Y790799D01*
X840657Y791302D01*
D02*
G37*
G36*
X832657D02*
X831343D01*
X830130Y790799D01*
X829201Y789871D01*
X828698Y788657D01*
Y787343D01*
X829201Y786130D01*
X830130Y785201D01*
X831343Y784698D01*
X832657D01*
X833870Y785201D01*
X834799Y786130D01*
X835302Y787343D01*
Y788657D01*
X834799Y789871D01*
X833870Y790799D01*
X832657Y791302D01*
D02*
G37*
G36*
X824657D02*
X823343D01*
X822130Y790799D01*
X821201Y789871D01*
X820698Y788657D01*
Y787343D01*
X821201Y786130D01*
X822130Y785201D01*
X823343Y784698D01*
X824657D01*
X825871Y785201D01*
X826799Y786130D01*
X827302Y787343D01*
Y788657D01*
X826799Y789871D01*
X825871Y790799D01*
X824657Y791302D01*
D02*
G37*
G36*
X844211Y774302D02*
X842897D01*
X841684Y773799D01*
X840755Y772870D01*
X840252Y771657D01*
Y770343D01*
X840755Y769130D01*
X841684Y768201D01*
X842897Y767698D01*
X844211D01*
X845424Y768201D01*
X846353Y769130D01*
X846856Y770343D01*
Y771657D01*
X846353Y772870D01*
X845424Y773799D01*
X844211Y774302D01*
D02*
G37*
G36*
X816010Y771453D02*
X814696D01*
X813482Y770950D01*
X812553Y770022D01*
X812051Y768808D01*
Y767494D01*
X812553Y766281D01*
X813482Y765352D01*
X814696Y764849D01*
X816010D01*
X817223Y765352D01*
X818152Y766281D01*
X818655Y767494D01*
Y768808D01*
X818152Y770022D01*
X817223Y770950D01*
X816010Y771453D01*
D02*
G37*
G36*
X780366Y767842D02*
X779052D01*
X777838Y767339D01*
X776909Y766410D01*
X776407Y765197D01*
Y763883D01*
X776909Y762670D01*
X777838Y761741D01*
X779052Y761238D01*
X780366D01*
X781579Y761741D01*
X782508Y762670D01*
X783011Y763883D01*
Y765197D01*
X782508Y766410D01*
X781579Y767339D01*
X780366Y767842D01*
D02*
G37*
G36*
X763619Y754450D02*
X762305D01*
X761092Y753947D01*
X760163Y753018D01*
X759660Y751805D01*
Y750491D01*
X760163Y749277D01*
X761092Y748348D01*
X762305Y747846D01*
X763619D01*
X764833Y748348D01*
X765761Y749277D01*
X766264Y750491D01*
Y751805D01*
X765761Y753018D01*
X764833Y753947D01*
X763619Y754450D01*
D02*
G37*
G36*
X862784Y748448D02*
X861470D01*
X860256Y747945D01*
X859327Y747016D01*
X858825Y745802D01*
Y744489D01*
X859327Y743275D01*
X860256Y742346D01*
X860401Y742286D01*
Y740912D01*
X860130Y740799D01*
X859201Y739870D01*
X858698Y738657D01*
Y737343D01*
X859201Y736130D01*
X860130Y735201D01*
X861343Y734698D01*
X862657D01*
X863870Y735201D01*
X864799Y736130D01*
X865302Y737343D01*
Y738657D01*
X864799Y739870D01*
X863870Y740799D01*
X863726Y740859D01*
Y742234D01*
X863997Y742346D01*
X864926Y743275D01*
X865429Y744489D01*
Y745802D01*
X864926Y747016D01*
X863997Y747945D01*
X862784Y748448D01*
D02*
G37*
G36*
X761974Y736552D02*
X760661D01*
X759447Y736050D01*
X758518Y735121D01*
X758015Y733907D01*
Y732594D01*
X758518Y731380D01*
X759447Y730451D01*
X760661Y729948D01*
X761974D01*
X763188Y730451D01*
X764117Y731380D01*
X764619Y732594D01*
Y733907D01*
X764117Y735121D01*
X763188Y736050D01*
X761974Y736552D01*
D02*
G37*
G36*
X813566Y735599D02*
X812253D01*
X811039Y735096D01*
X810110Y734167D01*
X809607Y732953D01*
Y731640D01*
X810110Y730426D01*
X811039Y729497D01*
X812253Y728995D01*
X813566D01*
X814780Y729497D01*
X815709Y730426D01*
X816211Y731640D01*
Y732953D01*
X815709Y734167D01*
X814780Y735096D01*
X813566Y735599D01*
D02*
G37*
G36*
X888657Y732302D02*
X887343D01*
X886130Y731799D01*
X885201Y730870D01*
X884698Y729657D01*
Y728343D01*
X885201Y727130D01*
X886130Y726201D01*
X887343Y725698D01*
X888657D01*
X889870Y726201D01*
X890799Y727130D01*
X891302Y728343D01*
Y729657D01*
X890799Y730870D01*
X889870Y731799D01*
X888657Y732302D01*
D02*
G37*
G36*
X871657Y730302D02*
X870343D01*
X869130Y729799D01*
X868201Y728870D01*
X867698Y727657D01*
Y726343D01*
X868201Y725130D01*
X869130Y724201D01*
X870343Y723698D01*
X871657D01*
X872870Y724201D01*
X873799Y725130D01*
X874302Y726343D01*
Y727657D01*
X873799Y728870D01*
X872870Y729799D01*
X871657Y730302D01*
D02*
G37*
G36*
X862231Y730390D02*
X860917D01*
X859704Y729888D01*
X858775Y728959D01*
X858272Y727745D01*
Y726432D01*
X858775Y725218D01*
X859704Y724289D01*
X860172Y724095D01*
X861130Y723089D01*
Y721775D01*
X861633Y720562D01*
X862562Y719633D01*
X863775Y719130D01*
X865089D01*
X866303Y719633D01*
X867232Y720562D01*
X867734Y721775D01*
Y723089D01*
X867232Y724303D01*
X866303Y725231D01*
X865834Y725426D01*
X864876Y726432D01*
Y727745D01*
X864373Y728959D01*
X863444Y729888D01*
X862231Y730390D01*
D02*
G37*
G36*
X827020Y714544D02*
X825707D01*
X824493Y714041D01*
X823564Y713112D01*
X823062Y711898D01*
Y710585D01*
X823564Y709371D01*
X824493Y708442D01*
X825707Y707940D01*
X827020D01*
X828234Y708442D01*
X829163Y709371D01*
X829666Y710585D01*
Y711898D01*
X829163Y713112D01*
X828234Y714041D01*
X827020Y714544D01*
D02*
G37*
G36*
X930297Y710382D02*
X928983D01*
X927770Y709879D01*
X926841Y708951D01*
X926376Y707829D01*
X926076Y707372D01*
X925344Y706882D01*
X924030D01*
X922817Y706379D01*
X922173Y705736D01*
X921888Y705451D01*
X920786Y706008D01*
X920958Y706423D01*
Y707737D01*
X920455Y708951D01*
X919526Y709879D01*
X918313Y710382D01*
X916999D01*
X915785Y709879D01*
X914856Y708951D01*
X914283Y709360D01*
X914081Y709562D01*
X912868Y710064D01*
X911554D01*
X910340Y709562D01*
X909411Y708633D01*
X908909Y707419D01*
Y706105D01*
X909411Y704892D01*
X910340Y703963D01*
X911554Y703460D01*
X912868D01*
X914081Y703963D01*
X915010Y704892D01*
X915583Y704483D01*
X915785Y704281D01*
X916999Y703778D01*
X918313D01*
X919526Y704281D01*
X920170Y704924D01*
X920455Y705210D01*
X921557Y704652D01*
X921385Y704237D01*
Y702923D01*
X921888Y701710D01*
X922817Y700781D01*
X924030Y700278D01*
X925344D01*
X926557Y700781D01*
X927486Y701710D01*
X927951Y702831D01*
X928251Y703289D01*
X928983Y703778D01*
X930297D01*
X931510Y704281D01*
X932439Y705210D01*
X932942Y706423D01*
Y707737D01*
X932439Y708951D01*
X931510Y709879D01*
X930297Y710382D01*
D02*
G37*
G36*
X960169Y701507D02*
X958855D01*
X957642Y701004D01*
X956713Y700075D01*
X956210Y698862D01*
Y697548D01*
X956713Y696334D01*
X957642Y695406D01*
X958855Y694903D01*
X960169D01*
X961383Y695406D01*
X962311Y696334D01*
X962814Y697548D01*
Y698862D01*
X962311Y700075D01*
X961383Y701004D01*
X960169Y701507D01*
D02*
G37*
G36*
X856549Y695096D02*
X855236D01*
X854022Y694594D01*
X853093Y693665D01*
X852591Y692451D01*
Y691137D01*
X853093Y689924D01*
X854022Y688995D01*
X855236Y688492D01*
X856549D01*
X857372Y688833D01*
X858732Y688870D01*
X859661Y687941D01*
X860874Y687438D01*
X862188D01*
X862394Y687523D01*
X863843Y687344D01*
X864772Y686415D01*
X865986Y685912D01*
X867299D01*
X868119Y686252D01*
X868555Y686388D01*
X869611Y685717D01*
X869746Y685391D01*
X870675Y684462D01*
X871888Y683959D01*
X873202D01*
X874416Y684462D01*
X875344Y685391D01*
X875847Y686605D01*
Y687918D01*
X875344Y689132D01*
X874416Y690061D01*
X873202Y690563D01*
X871888D01*
X871068Y690224D01*
X870633Y690087D01*
X869577Y690759D01*
X869442Y691085D01*
X868513Y692014D01*
X867299Y692516D01*
X865986D01*
X865780Y692431D01*
X864331Y692610D01*
X863402Y693539D01*
X862188Y694042D01*
X860874D01*
X860051Y693701D01*
X858692Y693665D01*
X857763Y694594D01*
X856549Y695096D01*
D02*
G37*
G36*
X785265Y686797D02*
X783952D01*
X782738Y686294D01*
X781809Y685365D01*
X781307Y684152D01*
Y682838D01*
X781809Y681624D01*
X782738Y680695D01*
X783952Y680193D01*
X785265D01*
X786479Y680695D01*
X787408Y681624D01*
X787911Y682838D01*
Y684152D01*
X787408Y685365D01*
X786479Y686294D01*
X785265Y686797D01*
D02*
G37*
G36*
X985268Y678815D02*
X983954D01*
X982741Y678312D01*
X981904Y677476D01*
X981067Y678312D01*
X979854Y678815D01*
X978540D01*
X977327Y678312D01*
X976398Y677383D01*
X975895Y676170D01*
Y674856D01*
X976398Y673643D01*
X977327Y672714D01*
X978540Y672211D01*
X979854D01*
X981067Y672714D01*
X981904Y673550D01*
X982741Y672714D01*
X983954Y672211D01*
X985268D01*
X986482Y672714D01*
X987411Y673643D01*
X987913Y674856D01*
Y676170D01*
X987411Y677383D01*
X986482Y678312D01*
X985268Y678815D01*
D02*
G37*
G36*
X950617Y681355D02*
X949303D01*
X948090Y680852D01*
X947161Y679923D01*
X946658Y678710D01*
Y677396D01*
X947161Y676183D01*
X948090Y675254D01*
X949303Y674751D01*
X950617D01*
X951830Y675254D01*
X952759Y676183D01*
X953262Y677396D01*
Y678710D01*
X952759Y679923D01*
X951830Y680852D01*
X950617Y681355D01*
D02*
G37*
G36*
X1059859Y682318D02*
X1058141D01*
X1056554Y681661D01*
X1055339Y680446D01*
X1054682Y678859D01*
Y677141D01*
X1055339Y675554D01*
X1056554Y674339D01*
X1058141Y673682D01*
X1059859D01*
X1061446Y674339D01*
X1062661Y675554D01*
X1063318Y677141D01*
Y678859D01*
X1062661Y680446D01*
X1061446Y681661D01*
X1059859Y682318D01*
D02*
G37*
G36*
X1086754Y682255D02*
X1085037D01*
X1083450Y681598D01*
X1082235Y680383D01*
X1081578Y678796D01*
Y677078D01*
X1082235Y675491D01*
X1083450Y674276D01*
X1085037Y673619D01*
X1086754D01*
X1088342Y674276D01*
X1089556Y675491D01*
X1090213Y677078D01*
Y678796D01*
X1089556Y680383D01*
X1088342Y681598D01*
X1086754Y682255D01*
D02*
G37*
G36*
X1038754D02*
X1037037D01*
X1035450Y681598D01*
X1034235Y680383D01*
X1033577Y678796D01*
Y677078D01*
X1034235Y675491D01*
X1035450Y674276D01*
X1037037Y673619D01*
X1038754D01*
X1040341Y674276D01*
X1041556Y675491D01*
X1042214Y677078D01*
Y678796D01*
X1041556Y680383D01*
X1040341Y681598D01*
X1038754Y682255D01*
D02*
G37*
G36*
X769859Y669318D02*
X768141D01*
X766554Y668661D01*
X765339Y667446D01*
X764682Y665859D01*
Y664141D01*
X765339Y662554D01*
X766554Y661339D01*
X768141Y660682D01*
X769859D01*
X771446Y661339D01*
X772661Y662554D01*
X773318Y664141D01*
Y665859D01*
X772661Y667446D01*
X771446Y668661D01*
X769859Y669318D01*
D02*
G37*
%LPD*%
D10*
X803771Y985505D02*
X897251D01*
X802087Y989569D02*
X895568D01*
X788800Y970534D02*
X803771Y985505D01*
X787116Y974598D02*
X802087Y989569D01*
X897251Y985505D02*
X907426Y995680D01*
X895568Y989569D02*
X905743Y999744D01*
X1492250Y871746D02*
Y922020D01*
X1496060Y870168D02*
Y920442D01*
X905743Y999744D02*
X1265333D01*
X907426Y995680D02*
X1263650D01*
X1265333Y999744D02*
X1282954Y982123D01*
X1263650Y995680D02*
X1278890Y980440D01*
X746844Y953188D02*
X751364Y957707D01*
X749680Y961771D02*
X759174D01*
X720778Y953188D02*
X746844D01*
X772001Y974598D02*
X787116D01*
X760857Y957707D02*
X773684Y970534D01*
X751364Y957707D02*
X760857D01*
X745161Y957252D02*
X749680Y961771D01*
X759174D02*
X772001Y974598D01*
X649986Y687927D02*
X695621Y642292D01*
X701024D01*
X701316Y642000D01*
X1350484Y983725D02*
X1353060Y981149D01*
X1364285D01*
X1350484Y983725D02*
Y987696D01*
X1351572Y988784D01*
Y991824D01*
X1359336Y999588D01*
X1405459Y991339D02*
Y995388D01*
X1405344Y995503D02*
X1405459Y995388D01*
Y991339D02*
X1418590Y978208D01*
X1405052Y995795D02*
X1405344Y995503D01*
X1418590Y945624D02*
Y978208D01*
X1399833Y996652D02*
X1400125Y996360D01*
X1396233Y1000252D02*
X1399833Y996652D01*
X1365314Y988412D02*
X1365315D01*
X1368441Y999588D02*
X1372915Y1004062D01*
X1355056Y985803D02*
X1362705D01*
X1364285Y981149D02*
X1368300Y985164D01*
X1362705Y985803D02*
X1365314Y988412D01*
X1359336Y999588D02*
X1368441D01*
X1368588Y991685D02*
Y994347D01*
X1365315Y988412D02*
X1368588Y991685D01*
X1368300Y985164D02*
X1368532D01*
X1368588Y994347D02*
X1374493Y1000252D01*
X707056Y939466D02*
X720778Y953188D01*
X719094Y957252D02*
X745161D01*
X705373Y943530D02*
X719094Y957252D01*
X696046Y647614D02*
X702914D01*
X654050Y689610D02*
X696046Y647614D01*
X702914D02*
X703158Y647370D01*
X1407287Y880110D02*
Y934321D01*
X1401953Y934375D02*
X1414780Y947202D01*
X1401953Y880110D02*
Y934375D01*
X773684Y970534D02*
X788800D01*
X1289304Y946150D02*
X1306227D01*
X1304544Y942086D02*
X1324610Y922020D01*
Y819933D02*
Y922020D01*
X1306227Y946150D02*
X1328674Y923703D01*
X1287621Y942086D02*
X1304544D01*
X1328674Y818250D02*
Y923703D01*
X1317498Y807074D02*
X1328674Y818250D01*
X1313434Y808757D02*
X1324610Y819933D01*
X1308528Y791934D02*
X1313434Y796839D01*
Y808757D01*
X1311402Y788574D02*
Y789060D01*
X1317498Y795156D01*
X1308043Y791934D02*
X1308528D01*
X1317498Y795156D02*
Y807074D01*
X1541000Y911080D02*
Y947980D01*
X1509286Y884754D02*
X1537190Y912658D01*
X1513096Y883176D02*
X1541000Y911080D01*
X1533632Y949960D02*
X1537190Y946402D01*
Y912658D02*
Y946402D01*
X1535210Y953770D02*
X1541000Y947980D01*
X697564Y939466D02*
X707056D01*
X695880Y943530D02*
X705373D01*
X1372915Y1004062D02*
X1398889D01*
X1374493Y1000252D02*
X1396233D01*
X1398889Y1004062D02*
X1405052Y997898D01*
X626745Y756804D02*
Y838835D01*
X622681Y755121D02*
Y837152D01*
X624332Y731615D02*
Y753470D01*
X628396Y733298D02*
Y755153D01*
Y733298D02*
X654050Y707644D01*
X624332Y731615D02*
X649986Y705961D01*
X589026Y870807D02*
X622681Y837152D01*
X593090Y872490D02*
X626745Y838835D01*
X622681Y755121D02*
X624332Y753470D01*
X626745Y756804D02*
X628396Y755153D01*
X654050Y689610D02*
Y707644D01*
X649986Y687927D02*
Y705961D01*
X599059Y900049D02*
X610915D01*
X613729Y904113D02*
X614110Y903732D01*
X614776D02*
X615538Y902970D01*
X610915Y900049D02*
X611766Y899198D01*
X615538Y902970D02*
X615950D01*
X597376Y904113D02*
X613729D01*
X611766Y899198D02*
X612178D01*
X589026Y895763D02*
X597376Y904113D01*
X614110Y903732D02*
X614776D01*
X593090Y894080D02*
X599059Y900049D01*
X1310640Y787400D02*
Y787812D01*
X1306868Y791172D02*
X1307281D01*
X1310640Y787812D02*
X1311402Y788574D01*
X1307281Y791172D02*
X1308043Y791934D01*
X1403350Y986572D02*
X1414780Y975142D01*
Y947202D02*
Y975142D01*
X1403350Y986572D02*
Y988060D01*
X1405052Y995795D02*
Y997898D01*
X1509286Y872810D02*
Y884754D01*
X1513096Y874388D02*
Y883176D01*
X1516380Y836404D02*
Y871104D01*
X1513096Y874388D02*
X1516380Y871104D01*
X1502472Y822495D02*
X1516380Y836404D01*
X1400125Y991285D02*
Y996360D01*
Y991285D02*
X1403350Y988060D01*
X1407287Y934321D02*
X1418590Y945624D01*
X1502300Y1001900D02*
X1512570Y991630D01*
X1524626Y963800D02*
X1527700D01*
X1512570Y955476D02*
Y991630D01*
X1516380Y957054D02*
Y969010D01*
X1519416D02*
X1524626Y963800D01*
X1516380Y969010D02*
X1519416D01*
X1516380Y957054D02*
X1519664Y953770D01*
X1535210D01*
X1518086Y949960D02*
X1533632D01*
X1512570Y955476D02*
X1518086Y949960D01*
X1509286Y872810D02*
X1512570Y869526D01*
Y837982D02*
Y869526D01*
X1497138Y822550D02*
X1512570Y837982D01*
X1502472Y816610D02*
Y822495D01*
X1497138Y816610D02*
Y822550D01*
X1484630Y821908D02*
Y824448D01*
X1483699Y820977D02*
X1484630Y821908D01*
X1483699Y815632D02*
Y820977D01*
X1479550Y834916D02*
X1488742Y825724D01*
Y815340D02*
Y825724D01*
X1475740Y833338D02*
X1484630Y824448D01*
X1483408Y815340D02*
X1483699Y815632D01*
X1475740Y833338D02*
Y855236D01*
X1479550Y834916D02*
Y853658D01*
X1475740Y855236D02*
X1492250Y871746D01*
X1479550Y853658D02*
X1496060Y870168D01*
Y920442D02*
X1503834Y928216D01*
X1492250Y922020D02*
X1502300Y932070D01*
X1503834Y928216D02*
X1517516D01*
X1502300Y932070D02*
Y951100D01*
X1517516Y928216D02*
X1527700Y938400D01*
X589026Y870807D02*
Y895763D01*
X593090Y872490D02*
Y894080D01*
X1278890Y950817D02*
X1287621Y942086D01*
X1282954Y952500D02*
X1289304Y946150D01*
X1282954Y952500D02*
Y982123D01*
X1278890Y950817D02*
Y980440D01*
X665734Y913384D02*
X695880Y943530D01*
X667417Y909320D02*
X697564Y939466D01*
X613509Y913727D02*
X613853Y913384D01*
X665734D01*
X613509Y908977D02*
X613853Y909320D01*
X612140Y914019D02*
X612432Y913727D01*
X613509D01*
X612432Y908977D02*
X613509D01*
X612140Y908685D02*
X612432Y908977D01*
X613853Y909320D02*
X667417D01*
D15*
X1418732Y716171D02*
X1423000Y720439D01*
X1409161Y1007237D02*
X1423000Y993398D01*
Y720439D02*
Y993398D01*
X830939Y939464D02*
X975464D01*
X978333Y942333D01*
X1019854D02*
X1021124Y941063D01*
X978333Y942333D02*
X1019854D01*
X1021124Y941063D02*
X1029371D01*
X1031165Y939269D01*
X1043788D01*
X1045582Y941063D02*
X1086063D01*
X1043788Y939269D02*
X1045582Y941063D01*
X817411Y925937D02*
X830939Y939464D01*
X1086063Y941063D02*
X1103850Y958850D01*
X1169000D01*
X1046107Y733893D02*
X1130830D01*
X1029948Y737047D02*
X1042953D01*
X1046107Y733893D01*
X996005Y843005D02*
X1004932D01*
X1010000Y830000D02*
Y837937D01*
X1375307Y442798D02*
X1397424Y464916D01*
X1360553Y538674D02*
X1397424Y501802D01*
Y464916D02*
Y501802D01*
X1304897Y578926D02*
Y621987D01*
X1345149Y538674D02*
X1360553D01*
X1304897Y578926D02*
X1345149Y538674D01*
X647593Y939093D02*
X658413Y949912D01*
X626712Y942409D02*
X630028Y939093D01*
X609297Y942409D02*
X626712D01*
X581660Y914773D02*
X609297Y942409D01*
X581660Y818228D02*
Y914773D01*
X630028Y939093D02*
X647593D01*
X785801Y977773D02*
X800772Y992744D01*
X885576D02*
X895751Y1002919D01*
X800772Y992744D02*
X885576D01*
X777725Y848344D02*
X778381Y849000D01*
X773809Y847809D02*
X774344Y848344D01*
X777725D01*
X778381Y849000D02*
X789432D01*
X1489837Y399163D02*
Y436318D01*
X1404922Y521233D02*
X1489837Y436318D01*
Y399163D02*
X1499000Y390000D01*
Y379000D02*
X1512256D01*
X1513000Y379744D02*
Y430100D01*
X1512256Y379000D02*
X1513000Y379744D01*
X1240285Y702815D02*
X1513000Y430100D01*
X1441450Y384550D02*
Y412750D01*
Y384550D02*
X1457700Y368300D01*
X1422400Y397600D02*
Y412750D01*
X1457700Y368300D02*
X1581058D01*
X1422400Y397600D02*
X1458050Y361950D01*
X1606812D01*
X1282700Y905744D02*
Y910539D01*
X1282674Y910564D02*
X1282700Y910539D01*
X895751Y1002919D02*
X1266648D01*
X1383465Y465535D02*
X1384000Y465000D01*
X1382209Y465535D02*
X1383465D01*
X1382000Y465744D02*
X1382209Y465535D01*
X1382000Y465744D02*
Y498173D01*
X1372708Y507464D02*
X1382000Y498173D01*
X1371536Y507464D02*
X1372708D01*
X1302357Y576643D02*
X1371536Y507464D01*
X1404922Y521233D02*
Y534586D01*
X1239233Y700275D02*
X1404922Y534586D01*
X1302357Y576643D02*
Y609643D01*
X1263885Y648115D02*
X1302357Y609643D01*
X1263885Y648115D02*
Y651275D01*
X1230769Y684391D02*
X1263885Y651275D01*
X1223609Y684391D02*
X1230769D01*
X1207523Y700477D02*
X1223609Y684391D01*
X1264604Y663235D02*
X1294765Y633075D01*
Y632119D02*
Y633075D01*
X1264604Y663235D02*
Y671312D01*
X1238181Y697735D02*
X1264604Y671312D01*
X1207773Y640727D02*
X1235777Y668731D01*
X1208575Y703017D02*
X1213857Y697735D01*
X1165317Y700477D02*
X1207523D01*
X1213857Y697735D02*
X1238181D01*
X1164265Y703017D02*
X1208575D01*
X1205793Y697937D02*
X1225550Y678180D01*
X1166369Y697937D02*
X1205793D01*
X1165115Y700275D02*
X1165317Y700477D01*
X1145418Y700275D02*
X1165115D01*
X1137693Y708000D02*
X1145418Y700275D01*
X1164063Y702815D02*
X1164265Y703017D01*
X1146470Y702815D02*
X1164063D01*
X1149035Y693066D02*
X1161498D01*
X1143955Y698146D02*
X1149035Y693066D01*
X1138745Y710540D02*
X1146470Y702815D01*
X1161498Y693066D02*
X1166369Y697937D01*
X1141851Y693066D02*
X1156853Y678063D01*
X1001568Y708000D02*
X1137693D01*
X1156853Y678063D02*
X1164037D01*
X1142903Y695606D02*
X1157905Y680603D01*
X1164037Y678063D02*
X1179040Y663061D01*
Y647204D02*
Y663061D01*
X979190Y695606D02*
X1142903D01*
X1181580Y653864D02*
Y664113D01*
X1157905Y680603D02*
X1165089D01*
X1181580Y664113D01*
X1126932Y710540D02*
X1138745D01*
X1116534Y720938D02*
X1126932Y710540D01*
X978138Y693066D02*
X1141851D01*
X1135734Y698146D02*
X1143955D01*
X990568Y719000D02*
X1001568Y708000D01*
X937000Y719000D02*
X990568D01*
X1006018Y727370D02*
X1012450Y720938D01*
X1116534D01*
X977014Y704519D02*
X1129361D01*
X1135734Y698146D01*
X899937Y756063D02*
X937000Y719000D01*
X909064Y741235D02*
X938010Y712289D01*
X961455Y709749D02*
X978138Y693066D01*
X962507Y712289D02*
X979190Y695606D01*
X936957Y709749D02*
X961455D01*
X906524Y740183D02*
X936957Y709749D01*
X938010Y712289D02*
X962507D01*
X899937Y756063D02*
Y800063D01*
X896000Y804000D02*
X899937Y800063D01*
X962306Y828422D02*
X962835Y827893D01*
X998260D01*
X962681Y823595D02*
X973290D01*
X942714Y799714D02*
X954063Y811063D01*
X961937Y822851D02*
X962681Y823595D01*
X954063Y811063D02*
X959631D01*
X961937Y813369D02*
Y822851D01*
X959631Y811063D02*
X961937Y813369D01*
X971027Y818073D02*
X975220D01*
X970954Y818000D02*
X971027Y818073D01*
X975220D02*
X988277Y805016D01*
X942714Y791700D02*
Y799714D01*
Y791700D02*
X946414Y788000D01*
X942000Y804432D02*
Y824000D01*
X937568Y800000D02*
X942000Y804432D01*
X951000Y833000D02*
X986000D01*
X942000Y824000D02*
X951000Y833000D01*
X924000Y800000D02*
X937568D01*
X920000Y796000D02*
X924000Y800000D01*
X986000Y833000D02*
X996005Y843005D01*
X1004932D02*
X1010000Y837937D01*
Y830000D02*
X1012000Y828000D01*
X1044000D01*
X1052221Y819779D01*
X1123221D01*
X1038643Y824357D02*
X1045760Y817239D01*
X1001796Y824357D02*
X1038643D01*
X1045760Y817239D02*
X1121169D01*
X998260Y827893D02*
X1001796Y824357D01*
X1121169Y817239D02*
X1155961Y782447D01*
X1123221Y819779D02*
X1157000Y786000D01*
X1163000D01*
X1202000Y747000D01*
X1229674D01*
X1244000Y761326D02*
Y781000D01*
X1229674Y747000D02*
X1244000Y761326D01*
Y781000D02*
X1256000Y793000D01*
X589063Y662023D02*
X628835Y622251D01*
X581660Y738104D02*
X589063Y730701D01*
Y662023D02*
Y730701D01*
X1581058Y368300D02*
X1611358Y398600D01*
X643375Y1017375D02*
X650375Y1024375D01*
X643375Y953684D02*
Y1017375D01*
Y953684D02*
X645391Y951668D01*
Y944046D02*
Y951668D01*
X650375Y1024375D02*
X656676D01*
X681000Y1048699D01*
Y1059000D01*
X1344555Y1004650D02*
Y1016271D01*
X1331861Y998652D02*
X1332747Y997765D01*
X1357160Y1023155D02*
X1361886Y1018429D01*
X1332747Y997765D02*
X1337671D01*
X1344555Y1016271D02*
X1351440Y1023155D01*
X1337671Y997765D02*
X1344555Y1004650D01*
X1323257Y998652D02*
X1331861D01*
X1361886Y1011963D02*
Y1018429D01*
X1351440Y1023155D02*
X1357160D01*
X1361886Y1011963D02*
X1366613Y1007237D01*
X1318702Y998293D02*
X1318748Y998247D01*
X1271274Y998293D02*
X1318702D01*
X1318748Y998247D02*
X1322852D01*
X1323257Y998652D01*
X764713Y899241D02*
X770763Y893191D01*
X756359Y897083D02*
Y900017D01*
X768851Y904744D02*
X769595Y904000D01*
X768851Y904744D02*
Y909186D01*
X769239Y909574D01*
X757462Y886748D02*
Y895980D01*
X766130Y903659D02*
X766344D01*
X768650Y901139D02*
Y901353D01*
X756359Y897083D02*
X757462Y895980D01*
X766344Y903659D02*
X768650Y901353D01*
Y901139D02*
X773726Y896063D01*
X764436Y905353D02*
X766130Y903659D01*
X755824Y900552D02*
X756359Y900017D01*
X769595Y904000D02*
X796000D01*
X764713Y899241D02*
Y899722D01*
X760188Y881380D02*
X767296D01*
X779450Y917937D02*
X785324Y912063D01*
X711053Y898525D02*
X730465Y917937D01*
X779450D01*
X764436Y905353D02*
Y913679D01*
X817369Y925937D02*
X817411D01*
X815063Y923631D02*
X817369Y925937D01*
X815063Y923589D02*
Y923631D01*
X812063Y920589D02*
X815063Y923589D01*
X1084190Y781633D02*
X1091964Y773859D01*
X993068Y799684D02*
X1011119Y781633D01*
X1084190D01*
X1091964Y773859D02*
X1165035D01*
X1233539Y705355D01*
X778631Y824937D02*
X780505Y823063D01*
X780735Y811983D02*
X781195Y812443D01*
X779683Y814523D02*
X780143Y814983D01*
X774317Y814523D02*
X779683D01*
X769575Y817523D02*
X774909D01*
X775369Y817063D02*
X778631D01*
X761705Y809653D02*
X769575Y817523D01*
X773265Y811983D02*
X780735D01*
X780143Y814983D02*
X780612D01*
X770627D02*
X773857D01*
X771679Y812443D02*
X772805D01*
X774317Y827477D02*
X775909D01*
X773620Y828175D02*
X774317Y827477D01*
X774909Y817523D02*
X775369Y817063D01*
X773857Y814983D02*
X774317Y814523D01*
X772805Y812443D02*
X773265Y811983D01*
X767838Y828175D02*
X773620D01*
X764369Y827937D02*
X767600D01*
X781195Y812443D02*
X781664D01*
X775909Y827477D02*
X780369Y831937D01*
X780505Y823063D02*
X786140D01*
X771631Y820063D02*
X773063Y821495D01*
X767600Y827937D02*
X767838Y828175D01*
X778631Y817063D02*
X781568Y820000D01*
X775369Y824937D02*
X778631D01*
X781568Y820000D02*
X800000D01*
X773063Y822631D02*
X775369Y824937D01*
X773063Y821495D02*
Y822631D01*
X763809Y804573D02*
X771679Y812443D01*
X762757Y807113D02*
X770627Y814983D01*
X730087Y663363D02*
Y771868D01*
X786140Y823063D02*
X787014Y823937D01*
X748603Y819023D02*
X767483D01*
X782174Y816545D02*
X795455D01*
X727547Y662311D02*
Y772920D01*
X787014Y823937D02*
X801631D01*
X781829Y812608D02*
X793105D01*
X780612Y814983D02*
X782174Y816545D01*
X781664Y812443D02*
X781829Y812608D01*
X804063Y815937D02*
Y821505D01*
X722467Y792887D02*
X748603Y819023D01*
X767483D02*
X768523Y820063D01*
X771631D01*
X897832Y752467D02*
Y752744D01*
Y752467D02*
X904764Y745535D01*
X895526Y755050D02*
X897832Y752744D01*
X916675Y667698D02*
X922538D01*
X917727Y665158D02*
X923590D01*
X928631Y666937D02*
X930410Y665158D01*
X929683Y656523D02*
X933238Y660078D01*
X911604Y655443D02*
X918779Y662618D01*
X919831Y660078D02*
X920762D01*
X929683Y669477D02*
X931462Y667698D01*
X922538D02*
X924317Y669477D01*
X931462Y667698D02*
X971572D01*
X924317Y669477D02*
X929683D01*
X925369Y659063D02*
X928631D01*
X923590Y665158D02*
X925369Y666937D01*
X928631Y659063D02*
X932186Y662618D01*
X967950D02*
X984653Y645915D01*
X924317Y656523D02*
X929683D01*
X933238Y660078D02*
X966898D01*
X918779Y662618D02*
X921814D01*
X925369Y666937D02*
X928631D01*
X932186Y662618D02*
X967950D01*
X920762Y660078D02*
X924317Y656523D01*
X921814Y662618D02*
X925369Y659063D01*
X930410Y665158D02*
X970520D01*
X966898Y660078D02*
X983601Y643375D01*
X912656Y652903D02*
X919831Y660078D01*
X933248Y672000D02*
X934000D01*
X910240Y673389D02*
X931859D01*
X933248Y672000D01*
X895683Y651523D02*
X899603Y655443D01*
X881328Y659920D02*
X883265Y657983D01*
X856954Y655044D02*
Y655882D01*
X887449Y657983D02*
X891369Y654063D01*
X894631D01*
X882213Y655443D02*
X886397D01*
X896045Y660523D02*
X909500D01*
X916675Y667698D01*
X883265Y657983D02*
X887449D01*
X889265Y648983D02*
X896735D01*
X891097Y661937D02*
X894631D01*
X898551Y657983D02*
X910552D01*
X857317Y648223D02*
X862034Y652940D01*
X884317Y660523D02*
X889683D01*
X894631Y661937D02*
X896045Y660523D01*
X886397Y655443D02*
X890317Y651523D01*
X858369Y645683D02*
X864574Y651888D01*
X882380Y662460D02*
X884317Y660523D01*
X885345Y652903D02*
X889265Y648983D01*
X863531Y662460D02*
X882380D01*
X896735Y648983D02*
X900655Y652903D01*
X912656D01*
X890317Y651523D02*
X895683D01*
X880276Y657380D02*
X882213Y655443D01*
X899603D02*
X911604D01*
X894631Y654063D02*
X898551Y657983D01*
X881161Y652903D02*
X885345D01*
X879224Y654840D02*
X881161Y652903D01*
X889683Y660523D02*
X891097Y661937D01*
X856954Y655882D02*
X863531Y662460D01*
X910552Y657983D02*
X917727Y665158D01*
X862034Y652940D02*
Y653586D01*
X859494Y653992D02*
Y654638D01*
X862034Y653586D02*
X865828Y657380D01*
X880276D01*
X864776Y659920D02*
X881328D01*
X859494Y654638D02*
X864776Y659920D01*
X907934Y675695D02*
X910240Y673389D01*
X901127Y675695D02*
X907934D01*
X894000Y668568D02*
X901127Y675695D01*
X894000Y668432D02*
Y668568D01*
X888631Y663063D02*
X894000Y668432D01*
X885369Y663063D02*
X888631D01*
X864574Y651888D02*
Y652534D01*
X883432Y665000D02*
X885369Y663063D01*
X859937Y662458D02*
X862479Y665000D01*
X864574Y652534D02*
X866880Y654840D01*
X879224D01*
X862479Y665000D02*
X883432D01*
X865124Y766444D02*
Y792444D01*
X879899Y755261D02*
X885872D01*
X865124Y766444D02*
X878847Y752721D01*
X883415D01*
X873134Y762026D02*
X879899Y755261D01*
X873134Y762026D02*
Y764329D01*
X901914Y742995D02*
X904218D01*
X899068Y745841D02*
X901914Y742995D01*
X883415Y752721D02*
X890295Y745841D01*
X899068D01*
X885872Y755261D02*
X886083Y755050D01*
X895526D01*
X949000Y737188D02*
X1029807D01*
X947000Y739188D02*
Y768000D01*
Y739188D02*
X949000Y737188D01*
X856000Y662000D02*
X856458Y662458D01*
X859937D01*
X795455Y816545D02*
X800000Y812000D01*
X725007Y661259D02*
Y773972D01*
X757995Y821563D02*
X764369Y827937D01*
X747551Y821563D02*
X757995D01*
X820694Y849000D02*
X824000Y852306D01*
X789432Y849000D02*
X790369Y848063D01*
X817631D02*
X818568Y849000D01*
X790369Y848063D02*
X817631D01*
X818568Y849000D02*
X820694D01*
X786182Y860250D02*
X790369Y856063D01*
X786182Y860250D02*
Y860386D01*
X790369Y856063D02*
X820063D01*
X789537Y881201D02*
X790738Y880000D01*
X762573Y864573D02*
X781995D01*
X777533Y881201D02*
X789537D01*
X775680Y879348D02*
X777533Y881201D01*
X781995Y864573D02*
X786182Y860386D01*
X787320Y867113D02*
X790369Y864063D01*
X820063D01*
X745090Y847090D02*
X762573Y864573D01*
X751414Y857414D02*
X761113Y867113D01*
X820063Y864063D02*
X824000Y868000D01*
X761113Y867113D02*
X787320D01*
X734420Y847090D02*
X745090D01*
X732173Y857414D02*
X751414D01*
X801631Y823937D02*
X804063Y821505D01*
X780369Y831937D02*
X809631D01*
X904218Y742995D02*
X906524Y740689D01*
X909064Y741235D02*
Y741741D01*
X905270Y745535D02*
X909064Y741741D01*
X906524Y740183D02*
Y740689D01*
X904764Y745535D02*
X905270D01*
X1013754Y613943D02*
X1031802Y631991D01*
X859465Y616483D02*
X1010726D01*
X860518Y613943D02*
X1013754D01*
X1211343Y621030D02*
X1233170D01*
X1206045Y612140D02*
X1238250D01*
X1286000Y698000D02*
X1313873D01*
X947815Y727370D02*
X1006018D01*
X1254000Y707895D02*
X1327216D01*
X1234591D02*
X1254000D01*
X1337153Y684000D02*
X1385611D01*
X1403628Y702017D02*
Y709739D01*
X1385611Y684000D02*
X1403628Y702017D01*
X1331543Y689610D02*
X1337153Y684000D01*
X1313873Y698000D02*
X1322263Y689610D01*
X1331543D01*
X1256052Y703047D02*
X1258359Y705355D01*
X1249641D02*
X1251948Y703047D01*
X1258359Y705355D02*
X1347830D01*
X1233539D02*
X1249641D01*
X1251948Y703047D02*
X1256052D01*
X735167Y665467D02*
Y769763D01*
X740247Y675803D02*
Y766388D01*
X757783Y783925D01*
X727547Y772920D02*
X761740Y807113D01*
X725007Y773972D02*
X760688Y809653D01*
X765948Y796953D02*
X766965D01*
X732627Y664415D02*
Y770816D01*
X766965Y796953D02*
X769949Y799937D01*
X760688Y809653D02*
X761705D01*
X764861Y802033D02*
X769242Y806414D01*
X764896Y799493D02*
X765913D01*
X766929Y783925D02*
X779005Y796000D01*
X737707Y674751D02*
Y768711D01*
X730087Y771868D02*
X762792Y804573D01*
X763844Y802033D02*
X764861D01*
X765913Y799493D02*
X768897Y802477D01*
X761740Y807113D02*
X762757D01*
X779005Y796000D02*
X792000D01*
X732627Y770816D02*
X763844Y802033D01*
X735167Y769763D02*
X764896Y799493D01*
X737707Y768711D02*
X765948Y796953D01*
X757783Y783925D02*
X766929D01*
X762792Y804573D02*
X763809D01*
X769389Y781385D02*
X781465Y793460D01*
X786540D01*
X746760Y769310D02*
X758835Y781385D01*
X746760Y718810D02*
Y769310D01*
X758835Y781385D02*
X769389D01*
X581660Y738104D02*
Y792655D01*
X693420Y877952D02*
X695112Y876260D01*
Y875504D02*
Y876260D01*
X510000Y870677D02*
X511698Y868979D01*
X510000Y870677D02*
Y897500D01*
X511698Y841400D02*
Y868979D01*
X581660Y797345D02*
Y813772D01*
Y797345D02*
X581953Y797052D01*
Y792948D02*
Y797052D01*
X581660Y792655D02*
X581953Y792948D01*
X581063Y817631D02*
X581660Y818228D01*
X581063Y814369D02*
Y817631D01*
Y814369D02*
X581660Y813772D01*
X829144Y654177D02*
X830018Y653303D01*
X787039Y646557D02*
X825988D01*
X784935Y651637D02*
X828092D01*
X783009Y653303D02*
X783883Y654177D01*
X774658Y621969D02*
X777623D01*
X772442Y631369D02*
X776762Y627049D01*
X773425Y633978D02*
Y636943D01*
Y633978D02*
X777814Y629589D01*
X778866Y632129D02*
X781831D01*
X778675Y624509D02*
X809459Y593725D01*
X775965Y635031D02*
Y637995D01*
X781831Y632129D02*
X801076Y612885D01*
X769286Y623749D02*
X773606Y619429D01*
X773511Y640449D02*
X775965Y637995D01*
X773606Y619429D02*
X776571D01*
X827040Y649097D02*
X827914Y648223D01*
X785987Y649097D02*
X827040D01*
X764306Y623749D02*
X769286D01*
X828092Y651637D02*
X828966Y650763D01*
X763254Y626289D02*
X770338D01*
X774658Y621969D01*
X783883Y654177D02*
X829144D01*
X761150Y631369D02*
X772442D01*
X771390Y628829D02*
X775710Y624509D01*
X776762Y627049D02*
X779727D01*
X771160Y650763D02*
X784061D01*
X770108Y653303D02*
X783009D01*
X779727Y627049D02*
X810511Y596265D01*
X786165Y645683D02*
X787039Y646557D01*
X775965Y635031D02*
X778866Y632129D01*
X772212Y648223D02*
X785113D01*
X773264Y645683D02*
X786165D01*
X777623Y621969D02*
X808407Y591185D01*
X772459Y637909D02*
X773425Y636943D01*
X825988Y646557D02*
X826861Y645683D01*
X775710Y624509D02*
X778675D01*
X785113Y648223D02*
X785987Y649097D01*
X776571Y619429D02*
X807355Y588645D01*
X777814Y629589D02*
X780779D01*
X784061Y650763D02*
X784935Y651637D01*
X780779Y629589D02*
X800024Y610345D01*
X762202Y628829D02*
X771390D01*
X755541Y637909D02*
X772459D01*
X756593Y640449D02*
X773511D01*
X732627Y664415D02*
X756593Y640449D01*
X801076Y612885D02*
X855237D01*
X756719Y625955D02*
X762920D01*
X757771Y628495D02*
X761868D01*
X762920Y625955D02*
X763254Y626289D01*
X763972Y623415D02*
X764306Y623749D01*
X761868Y628495D02*
X762202Y628829D01*
X758823Y631035D02*
X760816D01*
X761150Y631369D01*
X755667Y623415D02*
X763972D01*
X875047Y766242D02*
Y769052D01*
X875937Y769942D02*
Y773631D01*
X875047Y769052D02*
X875937Y769942D01*
X873134Y764329D02*
X875047Y766242D01*
X1132608Y735671D02*
X1153040D01*
X1130830Y733893D02*
X1132608Y735671D01*
X1157369Y740000D02*
X1191709D01*
X1231435Y700275D01*
X1153040Y735671D02*
X1157369Y740000D01*
X1029807Y737188D02*
X1029948Y737047D01*
X1160039Y782447D02*
X1234591Y707895D01*
X1155961Y782447D02*
X1160039D01*
X1231435Y700275D02*
X1239233D01*
X1232487Y702815D02*
X1240285D01*
X1011020Y759460D02*
X1175842D01*
X1232487Y702815D01*
X934439Y742421D02*
Y745717D01*
X934000Y741982D02*
X934439Y742421D01*
Y745717D02*
X934974Y746252D01*
X934000Y739532D02*
Y741982D01*
X936899Y736633D02*
X938552D01*
X934000Y739532D02*
X936899Y736633D01*
X855213Y653303D02*
X856954Y655044D01*
X828966Y650763D02*
X856265D01*
X859494Y653992D01*
X770686Y977773D02*
X785801D01*
X730250Y982980D02*
X735505Y977725D01*
X770638D01*
X1279792Y902836D02*
X1282700Y905744D01*
X1279792Y899132D02*
Y902836D01*
X1266620Y885960D02*
X1279792Y899132D01*
X1241890Y885960D02*
X1266620D01*
X770638Y977725D02*
X770686Y977773D01*
X973000Y708533D02*
X977014Y704519D01*
X1294765Y632119D02*
X1304897Y621987D01*
X1347830Y705355D02*
X1350667Y702517D01*
X1350890D01*
X1418732Y705739D02*
Y716171D01*
X1333951Y714629D02*
X1336223D01*
X973290Y823595D02*
X993068Y803818D01*
X1327216Y707895D02*
X1333951Y714629D01*
X993068Y799684D02*
Y803818D01*
X1336223Y714629D02*
X1339333Y717739D01*
X1397781D01*
X988277Y782203D02*
Y805016D01*
X1198176Y626110D02*
X1220470D01*
X1189796Y617729D02*
X1198176Y626110D01*
X1128075Y617729D02*
X1189796D01*
X1052537Y542192D02*
X1128075Y617729D01*
X904954Y542192D02*
X1052537D01*
X891641Y555505D02*
X904954Y542192D01*
X843547Y555505D02*
X891641D01*
X833775Y565277D02*
X843547Y555505D01*
X762655Y565277D02*
X833775D01*
X759527Y568405D02*
X762655Y565277D01*
X704885Y568405D02*
X759527D01*
X702211Y571080D02*
X704885Y568405D01*
X679304Y571080D02*
X702211D01*
X628835Y621548D02*
X679304Y571080D01*
X628835Y621548D02*
Y622251D01*
X658413Y949912D02*
X679450D01*
Y471235D02*
X765130D01*
X629495D02*
X679450D01*
Y461902D02*
Y471235D01*
X1194754Y604441D02*
X1211343Y621030D01*
X1187211Y604441D02*
X1194754D01*
X1169901Y587132D02*
X1187211Y604441D01*
X1095990Y521970D02*
X1161151Y587132D01*
X1169901D01*
X1160960Y567055D02*
X1206045Y612140D01*
X893411Y521970D02*
X1095990D01*
X862416Y552965D02*
X893411Y521970D01*
X817125Y552965D02*
X862416D01*
X807720Y543560D02*
X817125Y552965D01*
X1090899Y511251D02*
X1146703Y567055D01*
X845219Y543560D02*
X877529Y511251D01*
X1090899D01*
X833120Y543560D02*
X845219D01*
X1146703Y567055D02*
X1160960D01*
X765130Y471235D02*
X775922Y460443D01*
X797039D01*
X626118Y467858D02*
X629495Y471235D01*
X567988Y467858D02*
X626118D01*
X797039Y460443D02*
X804821Y452660D01*
X878239D01*
X558600Y458470D02*
X567988Y467858D01*
X526288Y458470D02*
X558600D01*
X878239Y452660D02*
X881380Y455802D01*
X693420Y877952D02*
Y882100D01*
X709845Y898525D01*
X711053D01*
X785324Y912063D02*
X809631D01*
X812063Y914495D01*
Y920589D01*
X1169000Y958850D02*
X1241890Y885960D01*
X678557Y821563D02*
X694307Y837313D01*
X664083Y821563D02*
X678557D01*
X651510Y808990D02*
X664083Y821563D01*
X938552Y736633D02*
X947815Y727370D01*
X1366613Y1007237D02*
X1409161D01*
X1266648Y1002919D02*
X1271274Y998293D01*
X988277Y782203D02*
X1011020Y759460D01*
X1150714Y640727D02*
X1207773D01*
X1238194Y672668D02*
X1240289Y670573D01*
X1242919Y666674D02*
Y666982D01*
X1219369Y672668D02*
X1238194D01*
X1240289Y669612D02*
Y670573D01*
Y669612D02*
X1242919Y666982D01*
X971572Y667698D02*
X988275Y650995D01*
X970520Y665158D02*
X987223Y648455D01*
X859138Y613194D02*
X859769D01*
X858086Y615734D02*
X858717D01*
X800024Y610345D02*
X856289D01*
X855237Y612885D02*
X858086Y615734D01*
X856289Y610345D02*
X859138Y613194D01*
X859769D02*
X860518Y613943D01*
X858717Y615734D02*
X859465Y616483D01*
X1010726D02*
X1027465Y633221D01*
X762207Y648223D02*
X763475Y646956D01*
X769892Y649496D02*
X771160Y650763D01*
X754951Y645683D02*
X761155D01*
X763259Y650763D02*
X764527Y649496D01*
X761155Y645683D02*
X762422Y644416D01*
X764311Y653303D02*
X765579Y652036D01*
X770944Y646956D02*
X772212Y648223D01*
X768840Y652036D02*
X770108Y653303D01*
X762422Y644416D02*
X771997D01*
X761512Y653303D02*
X764311D01*
X771997Y644416D02*
X773264Y645683D01*
X765579Y652036D02*
X768840D01*
X759408Y648223D02*
X762207D01*
X760460Y650763D02*
X763259D01*
X764527Y649496D02*
X769892D01*
X763475Y646956D02*
X770944D01*
X748284Y662939D02*
X760460Y650763D01*
X745744Y661887D02*
X759408Y648223D01*
X737707Y674751D02*
X745744Y666714D01*
X740247Y675803D02*
X748284Y667766D01*
X745744Y661887D02*
Y666714D01*
X748284Y662939D02*
Y667766D01*
X830018Y653303D02*
X855213D01*
X735167Y665467D02*
X754951Y645683D01*
X826861D02*
X858369D01*
X827914Y648223D02*
X857317D01*
X750824Y663991D02*
X761512Y653303D01*
X864000Y924000D02*
X864560Y924560D01*
X864870D01*
X769242Y806414D02*
X790502D01*
X769328Y879348D02*
X775680D01*
X767296Y881380D02*
X769328Y879348D01*
X820063Y856063D02*
X824000Y860000D01*
X790738Y880000D02*
X820000D01*
X719927Y793939D02*
X747551Y821563D01*
X731393Y849540D02*
X731970D01*
X756251Y876735D02*
Y885537D01*
Y876735D02*
X760987Y872000D01*
X1003242Y593725D02*
X1006348Y596832D01*
Y602234D01*
X993158Y598462D02*
X1002411D01*
X809459Y593725D02*
X1003242D01*
X731970Y849540D02*
X734420Y847090D01*
X756251Y885537D02*
X757462Y886748D01*
X760987Y872000D02*
X828000D01*
X773726Y896063D02*
X796063D01*
X770763Y892402D02*
X775943Y887222D01*
X789960D01*
X796063Y896063D02*
X800000Y900000D01*
X750824Y663991D02*
Y714746D01*
X746760Y718810D02*
X750824Y714746D01*
X789960Y887222D02*
X790738Y888000D01*
X770763Y892402D02*
Y893191D01*
X1189968Y643267D02*
X1219369Y672668D01*
X1606812Y361950D02*
X1633462Y388600D01*
X790738Y888000D02*
X828000D01*
X786540Y793460D02*
X792000Y788000D01*
X1022878Y546129D02*
X1023112D01*
X1031802Y631991D02*
Y637032D01*
X722467Y660207D02*
X756719Y625955D01*
X801631Y807937D02*
X804063Y805505D01*
X1142986Y648455D02*
X1150714Y640727D01*
X807355Y588645D02*
X980362D01*
X1022878Y546129D01*
X808407Y591185D02*
X983390D01*
X870369Y776063D02*
X873505D01*
X797593Y807937D02*
X801631D01*
X828063Y799937D02*
X857631D01*
X828063Y807937D02*
X857631D01*
X987223Y648455D02*
X1142986D01*
X1144038Y650995D02*
X1151766Y643267D01*
X873505Y776063D02*
X875937Y773631D01*
X1151766Y643267D02*
X1189968D01*
X804063Y799937D02*
X808000Y796000D01*
X769949Y799937D02*
X796063D01*
X1081285Y645915D02*
X1085088Y642112D01*
X1078257Y643375D02*
X1084854Y636778D01*
X1085088D01*
X988275Y650995D02*
X1144038D01*
X824000Y812000D02*
X828063Y807937D01*
X867664Y778768D02*
Y797904D01*
X857631Y799937D02*
X865124Y792444D01*
X824000Y804000D02*
X828063Y799937D01*
X1181580Y653864D02*
X1188240Y647204D01*
X857631Y807937D02*
X867664Y797904D01*
Y778768D02*
X870369Y776063D01*
X796063Y799937D02*
X800000Y796000D01*
X804063Y799937D02*
Y805505D01*
X990961Y596265D02*
X993158Y598462D01*
X792133Y802477D02*
X797593Y807937D01*
X722467Y660207D02*
Y792887D01*
X809631Y831937D02*
X811937Y829631D01*
X983390Y591185D02*
X1023112Y551463D01*
X804063Y815937D02*
X808000Y812000D01*
X811937Y807937D02*
Y829631D01*
X719927Y659155D02*
X755667Y623415D01*
X719927Y659155D02*
Y793939D01*
X808000Y804000D02*
X811937Y807937D01*
X983601Y643375D02*
X1078257D01*
X768897Y802477D02*
X792133D01*
X984653Y645915D02*
X1081285D01*
X730087Y663363D02*
X755541Y637909D01*
X810511Y596265D02*
X990961D01*
X727547Y662311D02*
X758823Y631035D01*
X725007Y661259D02*
X757771Y628495D01*
X800000Y908000D02*
X800000D01*
X796000Y904000D02*
X800000Y908000D01*
X828000Y872000D02*
X832000Y876000D01*
X864000Y884000D02*
Y924000D01*
X856000Y876000D02*
X864000Y884000D01*
X828000Y888000D02*
X832000Y884000D01*
X820000Y880000D02*
X824000Y876000D01*
X824000D01*
D16*
X1438520Y701421D02*
X1485764Y748664D01*
X1527048Y789949D02*
Y826834D01*
X1520943Y783844D02*
X1527048Y789949D01*
X1516126Y779027D02*
Y780719D01*
X1411946Y701421D02*
X1438520D01*
X1488197Y748664D02*
X1490726Y751194D01*
X1516126Y780719D02*
X1519251Y783844D01*
X1520943D01*
X1490726Y756589D02*
X1493851Y759714D01*
X1496813D02*
X1516126Y779027D01*
X1493851Y759714D02*
X1496813D01*
X1485764Y748664D02*
X1488197D01*
X888371Y1006348D02*
X1267350D01*
X1272484Y1001214D02*
X1311271D01*
X1342582Y1032525D02*
X1348579D01*
X1311271Y1001214D02*
X1342582Y1032525D01*
X1348579D02*
X1379890Y1063836D01*
X1490726Y751194D02*
Y756589D01*
X1524007Y829876D02*
X1527048Y826834D01*
X1524007Y829876D02*
Y834295D01*
X1524762Y835050D02*
Y888719D01*
X1524007Y834295D02*
X1524762Y835050D01*
Y888719D02*
X1553718Y917675D01*
X884549Y1006348D02*
X884671Y1006470D01*
X888249D02*
X888371Y1006348D01*
X806958D02*
X884549D01*
X884671Y1006470D02*
X888249D01*
X782320Y981710D02*
X806958Y1006348D01*
X1267350D02*
X1272484Y1001214D01*
X1553718Y917675D02*
Y977149D01*
X1491526Y1063836D02*
X1545082Y1010280D01*
X1403628Y709739D02*
X1411946Y701421D01*
X1545082Y985785D02*
Y1010280D01*
Y985785D02*
X1553718Y977149D01*
X1379890Y1063836D02*
X1491526D01*
D89*
X452000Y747000D02*
D03*
Y797000D02*
D03*
X600000Y315000D02*
D03*
X550000D02*
D03*
D93*
X1502300Y1027300D02*
D03*
X1527700Y963800D02*
D03*
Y989200D02*
D03*
Y1014600D02*
D03*
X1502300Y951100D02*
D03*
Y976500D02*
D03*
Y1001900D02*
D03*
D99*
X1640200Y919600D02*
D03*
X1625000Y1046100D02*
D03*
Y945000D02*
D03*
X1640200Y1020700D02*
D03*
D103*
X1591200Y1040000D02*
D03*
Y925700D02*
D03*
D104*
X1527700Y938400D02*
D03*
D105*
X1560700Y1061600D02*
D03*
Y904100D02*
D03*
D106*
X1440700Y1052550D02*
D03*
X1354300D02*
D03*
D107*
X1440700Y1010750D02*
D03*
X1354300D02*
D03*
D108*
X1426400Y1015750D02*
D03*
X1368600D02*
D03*
X482350Y898200D02*
D03*
Y956000D02*
D03*
D112*
X487350Y883900D02*
D03*
Y970300D02*
D03*
D113*
X445550Y883900D02*
D03*
Y970300D02*
D03*
D116*
X840623Y944377D02*
Y950026D01*
Y944377D02*
X842868Y942131D01*
X935132D02*
X938000Y945000D01*
X1029206D01*
X936843Y947794D02*
X1030363D01*
X850900Y949100D02*
X855075Y944925D01*
X933974D02*
X936843Y947794D01*
X855075Y944925D02*
X933974D01*
X842868Y942131D02*
X935132D01*
X1029206Y945000D02*
X1032270Y941936D01*
X1032157Y946000D02*
X1041000D01*
X1030363Y947794D02*
X1032157Y946000D01*
X1032270Y941936D02*
X1042683D01*
X1045747Y945000D01*
X1061000D01*
X850900Y949100D02*
Y962660D01*
X1108000Y950064D02*
X1150168D01*
X1005679Y912000D02*
X1069936D01*
X1108000Y950064D01*
X971936Y875136D02*
Y878257D01*
X1005679Y912000D01*
X1006631Y909000D02*
X1072533D01*
X992489Y894858D02*
X1006631Y909000D01*
X944041Y843290D02*
X992489Y891738D01*
Y894858D01*
X1106000Y942467D02*
X1153813D01*
X1072533Y909000D02*
X1106000Y942467D01*
X1218384Y837079D02*
X1274921Y780542D01*
X1218384Y837079D02*
Y852636D01*
X1221064Y855317D01*
X1221178Y862521D02*
X1223858Y859841D01*
X1218384Y861364D02*
X1221064Y858683D01*
X1223858Y854159D02*
Y859841D01*
X1221178Y851479D02*
X1223858Y854159D01*
X1218384Y861364D02*
Y877897D01*
X1221064Y855317D02*
Y858683D01*
X1221178Y844445D02*
Y851479D01*
Y862521D02*
Y879054D01*
X1150168Y950064D02*
X1221178Y879054D01*
X1335071Y800862D02*
X1335325D01*
X1339342Y804879D01*
X1313593Y783336D02*
X1333913Y803656D01*
X1334167D01*
X1336548Y806291D02*
X1342364Y812106D01*
X1314751Y780542D02*
X1335071Y800862D01*
X1339342Y805133D02*
X1345158Y810949D01*
X1334167Y803656D02*
X1336548Y806037D01*
X1339342Y804879D02*
Y805133D01*
X1336548Y806037D02*
Y806291D01*
X979000Y632000D02*
X996000D01*
X970000Y641000D02*
X979000Y632000D01*
X956000Y641000D02*
X970000D01*
X951000Y636000D02*
X956000Y641000D01*
X942883Y846084D02*
X971936Y875136D01*
X1347665Y813456D02*
X1360805Y826596D01*
X1342364Y812106D02*
Y812233D01*
X1346381Y816250D01*
X1345158Y811076D02*
X1347538Y813456D01*
X1346508Y816250D02*
X1358011Y827754D01*
X1347538Y813456D02*
X1347665D01*
X1346381Y816250D02*
X1346508D01*
X1345158Y810949D02*
Y811076D01*
X1368217Y958404D02*
X1382838Y973025D01*
X1371012Y932007D02*
Y957247D01*
X1368217Y936531D02*
Y958404D01*
X1371012Y957247D02*
X1385632Y971867D01*
X1367673Y935986D02*
X1368217Y936531D01*
X1370186Y931182D02*
X1371012Y932007D01*
X1367673Y932620D02*
Y935986D01*
X1370186Y912105D02*
Y931182D01*
X1367392Y913263D02*
Y932339D01*
X1367673Y932620D01*
X1406264Y974359D02*
Y974510D01*
X1399678Y981096D02*
X1406264Y974510D01*
X1396725Y978302D02*
X1400937Y974090D01*
X1391380Y978302D02*
X1396725D01*
X1390222Y981096D02*
X1399678D01*
X1382838Y973712D02*
X1390222Y981096D01*
X1382838Y973025D02*
Y973712D01*
X1241768Y821148D02*
Y821148D01*
X1244744Y818172D02*
X1248786D01*
X1262421Y804537D01*
X1240790Y822126D02*
X1241768Y821148D01*
Y821148D02*
X1244744Y818172D01*
X842237Y831936D02*
X882237D01*
X843395Y829142D02*
X883395D01*
X1240790Y822126D02*
Y824833D01*
X1221178Y844445D02*
X1240790Y824833D01*
X1274921Y780542D02*
X1314751D01*
X1262421Y804537D02*
X1263904D01*
X1285105Y783336D01*
X1313593D01*
X1360805Y826596D02*
Y900953D01*
X1358011Y827754D02*
Y902111D01*
X1365496Y905644D02*
Y907415D01*
X1362702Y908572D02*
X1367392Y913263D01*
X1358011Y902111D02*
X1362702Y906801D01*
X1360805Y900953D02*
X1365496Y905644D01*
X1362702Y906801D02*
Y908572D01*
X1365496Y907415D02*
X1370186Y912105D01*
X1153813Y942467D02*
X1218384Y877897D01*
X883395Y829142D02*
X897542Y843290D01*
X896385Y846084D02*
X942883D01*
X882237Y831936D02*
X896385Y846084D01*
X897542Y843290D02*
X944041D01*
X835936Y821683D02*
X843395Y829142D01*
X1385632Y971867D02*
Y972554D01*
X1391380Y978302D01*
X832000Y821699D02*
X842237Y831936D01*
X835936Y816064D02*
X840000Y812000D01*
X835936Y816064D02*
Y821683D01*
X832000Y812000D02*
Y821699D01*
D117*
X510000Y897500D02*
X519913D01*
X505000D02*
X510000D01*
X537500Y915000D02*
X567500D01*
X527500Y905000D02*
X537500Y915000D01*
X519913Y897500D02*
X527413Y905000D01*
X527500D01*
X495000Y907500D02*
X505000Y897500D01*
X495000Y907500D02*
Y942500D01*
X505000Y952500D01*
D118*
X1477000Y972000D02*
X1478000Y971000D01*
Y924000D02*
Y971000D01*
X1459000Y905000D02*
X1478000Y924000D01*
X1459000Y867000D02*
Y905000D01*
X1454000Y862000D02*
X1459000Y867000D01*
X1454000Y827000D02*
Y862000D01*
Y827000D02*
X1470000Y811000D01*
X1147512Y292048D02*
X1139048D01*
X1147512Y300512D01*
Y302628D01*
X1145396Y304744D01*
X1141164D01*
X1139048Y302628D01*
D119*
X1222000Y763000D02*
X1234000D01*
X1191000Y834000D02*
Y866400D01*
X1168400Y889000D02*
X1191000Y866400D01*
Y834000D02*
X1222000Y803000D01*
Y763000D02*
Y803000D01*
D120*
X1086800Y489200D02*
D03*
X782320Y543560D02*
D03*
X704850Y379730D02*
D03*
X1046160Y971800D02*
D03*
X1264600Y489200D02*
D03*
X1016000Y889000D02*
D03*
X1264600Y971800D02*
D03*
X1016000Y660400D02*
D03*
D121*
X1010600Y489200D02*
D03*
X909000D02*
D03*
X934400D02*
D03*
X985200D02*
D03*
X959800D02*
D03*
X1036000D02*
D03*
X1061400D02*
D03*
X1193800Y889000D02*
D03*
X893760Y971800D02*
D03*
X1291400Y717300D02*
D03*
X1193800Y660400D02*
D03*
X858520Y543560D02*
D03*
X755650Y405130D02*
D03*
X652780Y1033780D02*
D03*
X755650Y379730D02*
D03*
X652780Y1008380D02*
D03*
Y982980D02*
D03*
X1168400Y660400D02*
D03*
X1291400Y768100D02*
D03*
X704850Y405130D02*
D03*
X730250Y379730D02*
D03*
X652780Y957580D02*
D03*
X730250Y405130D02*
D03*
X995360Y971800D02*
D03*
X817560D02*
D03*
X842960D02*
D03*
X868360D02*
D03*
X919160D02*
D03*
X944560D02*
D03*
X969960D02*
D03*
X1020760D02*
D03*
X1239200Y489200D02*
D03*
X1213800D02*
D03*
X1188400D02*
D03*
X1163000D02*
D03*
X1137600D02*
D03*
X1266000Y717300D02*
D03*
X1291400Y742700D02*
D03*
X1266000D02*
D03*
X627380Y957580D02*
D03*
Y982980D02*
D03*
Y1008380D02*
D03*
X1168400Y889000D02*
D03*
X1143000D02*
D03*
X1117600D02*
D03*
X1092200D02*
D03*
X1066800D02*
D03*
X1041400D02*
D03*
X833120Y543560D02*
D03*
X807720D02*
D03*
X1086800Y971800D02*
D03*
X1112200D02*
D03*
X1137600D02*
D03*
X1163000D02*
D03*
X1188400D02*
D03*
X1213800D02*
D03*
X1239200D02*
D03*
X1041400Y660400D02*
D03*
X1066800D02*
D03*
X1092200D02*
D03*
X1117600D02*
D03*
X1143000D02*
D03*
D122*
X1570501Y486002D02*
D03*
X1366000D02*
D03*
D123*
X1290000Y519119D02*
D03*
X1275235Y525235D02*
D03*
X1269119Y540000D02*
D03*
X1275235Y554765D02*
D03*
X1290000Y560881D02*
D03*
X1304765Y554765D02*
D03*
X1310881Y540000D02*
D03*
X1304765Y525235D02*
D03*
X724765D02*
D03*
X730881Y540000D02*
D03*
X724765Y554765D02*
D03*
X710000Y560881D02*
D03*
X695235Y554765D02*
D03*
X689119Y540000D02*
D03*
X695235Y525235D02*
D03*
X710000Y519119D02*
D03*
Y1009119D02*
D03*
X695235Y1015235D02*
D03*
X689119Y1030000D02*
D03*
X695235Y1044765D02*
D03*
X710000Y1050881D02*
D03*
X724765Y1044765D02*
D03*
X730881Y1030000D02*
D03*
X724765Y1015235D02*
D03*
X1304765D02*
D03*
X1310881Y1030000D02*
D03*
X1304765Y1044765D02*
D03*
X1290000Y1050881D02*
D03*
X1275235Y1044765D02*
D03*
X1269119Y1030000D02*
D03*
X1275235Y1015235D02*
D03*
X1290000Y1009119D02*
D03*
X460000Y299119D02*
D03*
X445235Y305235D02*
D03*
X439119Y320000D02*
D03*
X445235Y334765D02*
D03*
X460000Y340881D02*
D03*
X474765Y334765D02*
D03*
X480881Y320000D02*
D03*
X474765Y305235D02*
D03*
X1644765D02*
D03*
X1650881Y320000D02*
D03*
X1644765Y334765D02*
D03*
X1630000Y340881D02*
D03*
X1615235Y334765D02*
D03*
X1609119Y320000D02*
D03*
X1615235Y305235D02*
D03*
X1630000Y299119D02*
D03*
X460000Y1019119D02*
D03*
X445235Y1025235D02*
D03*
X439119Y1040000D02*
D03*
X445235Y1054765D02*
D03*
X460000Y1060881D02*
D03*
X474765Y1054765D02*
D03*
X480881Y1040000D02*
D03*
X474765Y1025235D02*
D03*
D124*
X1290000Y540000D02*
D03*
X710000D02*
D03*
Y1030000D02*
D03*
X1290000D02*
D03*
X460000Y320000D02*
D03*
X1630000D02*
D03*
X460000Y1040000D02*
D03*
D125*
X1114300Y1042700D02*
D03*
X1165100D02*
D03*
X987300D02*
D03*
X1063500Y1017300D02*
D03*
X1241300D02*
D03*
X911100Y1042700D02*
D03*
X860300Y1017300D02*
D03*
X809500Y1042700D02*
D03*
X961900Y1017300D02*
D03*
X1241300Y1042700D02*
D03*
X1215900D02*
D03*
Y1017300D02*
D03*
X1190500Y1042700D02*
D03*
Y1017300D02*
D03*
X1165100D02*
D03*
X1139700Y1042700D02*
D03*
Y1017300D02*
D03*
X1114300D02*
D03*
X1088900Y1042700D02*
D03*
Y1017300D02*
D03*
X1063500Y1042700D02*
D03*
X1038100D02*
D03*
Y1017300D02*
D03*
X1012700Y1042700D02*
D03*
Y1017300D02*
D03*
X987300D02*
D03*
X961900Y1042700D02*
D03*
X936500D02*
D03*
Y1017300D02*
D03*
X911100D02*
D03*
X885700Y1042700D02*
D03*
Y1017300D02*
D03*
X860300Y1042700D02*
D03*
X834900D02*
D03*
Y1017300D02*
D03*
X809500D02*
D03*
X784100Y1042700D02*
D03*
Y1017300D02*
D03*
X758700Y1042700D02*
D03*
D126*
X1492400Y317500D02*
D03*
X1387400D02*
D03*
X528600Y1041400D02*
D03*
X1422400Y317500D02*
D03*
X1457400D02*
D03*
X563600Y1041400D02*
D03*
X1562400Y317500D02*
D03*
X1527400D02*
D03*
D127*
X1054100Y406400D02*
D03*
Y381000D02*
D03*
X825500Y406400D02*
D03*
Y381000D02*
D03*
X1028700D02*
D03*
Y406400D02*
D03*
X800100Y381000D02*
D03*
Y406400D02*
D03*
X850900Y381000D02*
D03*
X876300D02*
D03*
X901700D02*
D03*
X927100D02*
D03*
X850900Y406400D02*
D03*
X876300D02*
D03*
X901700D02*
D03*
X952500Y381000D02*
D03*
X977900D02*
D03*
X1003300D02*
D03*
X952500Y406400D02*
D03*
X977900D02*
D03*
X1130300D02*
D03*
X1104900D02*
D03*
X1079500D02*
D03*
X1155700Y381000D02*
D03*
X1130300D02*
D03*
X1104900D02*
D03*
X1079500D02*
D03*
D128*
X535738Y952246D02*
D03*
X570738D02*
D03*
D129*
X457200Y635000D02*
D03*
Y609600D02*
D03*
Y584200D02*
D03*
Y533400D02*
D03*
Y558800D02*
D03*
Y508000D02*
D03*
Y482600D02*
D03*
Y457200D02*
D03*
Y431800D02*
D03*
X482600Y457200D02*
D03*
Y558800D02*
D03*
Y584200D02*
D03*
Y482600D02*
D03*
Y431800D02*
D03*
Y533400D02*
D03*
Y508000D02*
D03*
Y635000D02*
D03*
Y609600D02*
D03*
X457200Y406400D02*
D03*
D130*
X482600D02*
D03*
D131*
X758700Y1017300D02*
D03*
D132*
X927100Y406400D02*
D03*
X1155700D02*
D03*
D133*
X1266000Y768100D02*
D03*
X627380Y1033780D02*
D03*
D134*
X1003300Y406400D02*
D03*
D135*
X1465000Y758000D02*
D03*
X1470000Y720000D02*
D03*
X1419063Y991013D02*
D03*
X901000Y948989D02*
D03*
X985909Y938396D02*
D03*
X1007237Y937116D02*
D03*
X1016000Y937260D02*
D03*
X1003311Y894579D02*
D03*
X1217000Y857000D02*
D03*
X1052000Y917000D02*
D03*
X1061000Y945000D02*
D03*
X1041000Y946000D02*
D03*
X1439814Y779389D02*
D03*
X1623000Y752000D02*
D03*
X1624000Y765000D02*
D03*
X1003427Y833735D02*
D03*
X1003301Y839068D02*
D03*
X815353Y768151D02*
D03*
X517488Y956398D02*
D03*
X697705Y811781D02*
D03*
X571508Y659741D02*
D03*
X571391Y645525D02*
D03*
X993749Y935044D02*
D03*
X688654Y869619D02*
D03*
X1310160Y583645D02*
D03*
X610928Y938472D02*
D03*
X1555983Y519846D02*
D03*
X927820Y819990D02*
D03*
X919946Y820000D02*
D03*
X1008914Y965945D02*
D03*
X991243Y955013D02*
D03*
X985909Y955040D02*
D03*
X883133Y980933D02*
D03*
X901669Y960565D02*
D03*
X932124Y962303D02*
D03*
X895000Y954000D02*
D03*
X827842Y975110D02*
D03*
X855980Y965200D02*
D03*
X1486803Y892152D02*
D03*
X773809Y847809D02*
D03*
X819830Y936142D02*
D03*
X806278Y935290D02*
D03*
X789600Y931908D02*
D03*
X1477000Y972000D02*
D03*
X1464203Y895743D02*
D03*
X1470000Y822500D02*
D03*
Y811000D02*
D03*
X1641000Y945000D02*
D03*
X1640000Y973000D02*
D03*
X1609000Y894000D02*
D03*
X1551000Y884000D02*
D03*
X1538000Y1063000D02*
D03*
X1478000Y998000D02*
D03*
X1525000Y344000D02*
D03*
X1561000Y451000D02*
D03*
X1469000Y425000D02*
D03*
X1499000Y379000D02*
D03*
Y390000D02*
D03*
X1500000Y403000D02*
D03*
X1462000Y378000D02*
D03*
X1461000Y400000D02*
D03*
X789523Y456506D02*
D03*
X616078Y393700D02*
D03*
X629991Y397311D02*
D03*
X717550Y432017D02*
D03*
X692150D02*
D03*
X644319Y398493D02*
D03*
X656497Y397382D02*
D03*
X794219Y351917D02*
D03*
X605000Y348000D02*
D03*
X559000Y354000D02*
D03*
X543000Y353000D02*
D03*
X1234417Y991108D02*
D03*
X1226000Y989000D02*
D03*
X1218000Y990000D02*
D03*
X1293559Y932009D02*
D03*
X1269333Y937915D02*
D03*
X1282674Y910564D02*
D03*
X1332484Y807720D02*
D03*
X1336782Y910378D02*
D03*
X638000Y1044063D02*
D03*
X648000Y1047000D02*
D03*
X556260Y807720D02*
D03*
X483000Y740000D02*
D03*
X481000Y820000D02*
D03*
X475000Y814000D02*
D03*
X1412000Y473000D02*
D03*
X1384000Y465000D02*
D03*
X1298420Y583645D02*
D03*
X1235777Y668731D02*
D03*
X1168000Y694000D02*
D03*
X929640Y707080D02*
D03*
X946932Y705812D02*
D03*
X896000Y804000D02*
D03*
X996000Y632000D02*
D03*
X951000Y636000D02*
D03*
X759000Y947000D02*
D03*
X764449Y950000D02*
D03*
X748978Y948856D02*
D03*
X953604Y822259D02*
D03*
X946368Y818480D02*
D03*
X962306Y828422D02*
D03*
X947000Y813000D02*
D03*
X970954Y818000D02*
D03*
X972902Y813034D02*
D03*
X958000Y815000D02*
D03*
X955597Y794405D02*
D03*
X946651Y795874D02*
D03*
X951069Y798862D02*
D03*
X946414Y788000D02*
D03*
X1256000Y793000D02*
D03*
X856627Y932574D02*
D03*
X976000Y895000D02*
D03*
X945176Y869824D02*
D03*
X888000Y908000D02*
D03*
Y900000D02*
D03*
X874167Y923387D02*
D03*
X885175Y930698D02*
D03*
X678000Y699000D02*
D03*
X664600Y718637D02*
D03*
X639468Y697786D02*
D03*
X622000Y693000D02*
D03*
X628000D02*
D03*
X631317Y704723D02*
D03*
X600000Y700922D02*
D03*
X602000Y690000D02*
D03*
X576635Y704273D02*
D03*
X540000Y696000D02*
D03*
X1555983Y636538D02*
D03*
X1512000Y492000D02*
D03*
X1473000Y540746D02*
D03*
X1473218Y546584D02*
D03*
X1450000Y539000D02*
D03*
X1493000Y540000D02*
D03*
X1483000Y585000D02*
D03*
X1458672Y507546D02*
D03*
X1500000Y495000D02*
D03*
X1446738Y548232D02*
D03*
X1462614Y541809D02*
D03*
X1499000Y505000D02*
D03*
X1491000Y509000D02*
D03*
X1477000Y504000D02*
D03*
X1450000Y510000D02*
D03*
X1521903Y537606D02*
D03*
X1538097Y538983D02*
D03*
X595000Y716000D02*
D03*
X563000Y667302D02*
D03*
X662293Y336723D02*
D03*
X826364Y711242D02*
D03*
X843554Y771000D02*
D03*
X862127Y745146D02*
D03*
X849311Y749733D02*
D03*
X862000Y738000D02*
D03*
X786178Y692028D02*
D03*
X804281Y736595D02*
D03*
X1130000Y830000D02*
D03*
X701316Y642000D02*
D03*
X1322070Y805180D02*
D03*
X995000Y709000D02*
D03*
X1006157Y720555D02*
D03*
X1495000Y745000D02*
D03*
X681000Y1059000D02*
D03*
X1349222Y809392D02*
D03*
X1349126Y855307D02*
D03*
X1362710Y808990D02*
D03*
X877000Y481000D02*
D03*
X888000Y498000D02*
D03*
X1347000Y991000D02*
D03*
X1472121Y941460D02*
D03*
X1438000Y994000D02*
D03*
X1430927Y994302D02*
D03*
X1401000Y957000D02*
D03*
X1430000Y981000D02*
D03*
X1364153Y938501D02*
D03*
X1259920D02*
D03*
X1400937Y974090D02*
D03*
X1406264Y974359D02*
D03*
X1320546Y942340D02*
D03*
X1345473Y944753D02*
D03*
X1357651D02*
D03*
X1398270Y948690D02*
D03*
X1391666Y956818D02*
D03*
X1383018Y994906D02*
D03*
X1320166Y960778D02*
D03*
X1368532Y985164D02*
D03*
X1483106Y541315D02*
D03*
X735000Y929000D02*
D03*
X746322Y922002D02*
D03*
X762000Y892000D02*
D03*
X764713Y899722D02*
D03*
X755824Y900552D02*
D03*
X750698Y868293D02*
D03*
X760188Y881380D02*
D03*
X750620Y862960D02*
D03*
X726000Y948000D02*
D03*
X740275Y935175D02*
D03*
X738598Y944634D02*
D03*
X748960Y941314D02*
D03*
X769239Y909574D02*
D03*
X764436Y913679D02*
D03*
X819000Y922000D02*
D03*
X896000Y916000D02*
D03*
X892714Y923509D02*
D03*
X777000Y821000D02*
D03*
X769469Y824238D02*
D03*
X781568Y827568D02*
D03*
X781000Y840000D02*
D03*
X872000Y772000D02*
D03*
X898000Y630000D02*
D03*
X908000Y645000D02*
D03*
X897477Y741864D02*
D03*
X878461Y743733D02*
D03*
X893895Y751113D02*
D03*
X974880Y563082D02*
D03*
X927000Y663000D02*
D03*
X934000Y672000D02*
D03*
X1341307Y654114D02*
D03*
X1330715Y654509D02*
D03*
X1353000Y669000D02*
D03*
X1351000Y620000D02*
D03*
X1352417Y643114D02*
D03*
X1198404Y589250D02*
D03*
X1229991Y603714D02*
D03*
X1008333Y636920D02*
D03*
X958171Y629581D02*
D03*
X893000Y658000D02*
D03*
X895000Y645046D02*
D03*
X879155Y673416D02*
D03*
X884132Y671497D02*
D03*
X887000Y667000D02*
D03*
X912211Y706762D02*
D03*
X888000Y729000D02*
D03*
X872000Y530000D02*
D03*
X891000Y536000D02*
D03*
X861531Y690740D02*
D03*
X880602Y760125D02*
D03*
X873000Y753000D02*
D03*
X886780Y742645D02*
D03*
X899089Y736224D02*
D03*
X871000Y727000D02*
D03*
X864432Y722432D02*
D03*
X861574Y727088D02*
D03*
X917656Y707080D02*
D03*
X872545Y687261D02*
D03*
X866642Y689214D02*
D03*
X855893Y691794D02*
D03*
X881784Y748784D02*
D03*
X893970Y758987D02*
D03*
X947000Y768000D02*
D03*
X918683Y764989D02*
D03*
X855874Y868042D02*
D03*
X872543Y647412D02*
D03*
X849334Y626237D02*
D03*
X848486Y618349D02*
D03*
X848102Y844428D02*
D03*
X848000Y852302D02*
D03*
X863874Y836000D02*
D03*
X943939Y672939D02*
D03*
X856000Y662000D02*
D03*
X868511Y650903D02*
D03*
X979197Y675513D02*
D03*
X984611D02*
D03*
X1390506Y765616D02*
D03*
X867290Y680178D02*
D03*
X873668Y673913D02*
D03*
X868425Y674894D02*
D03*
X779163Y877264D02*
D03*
X781000Y860000D02*
D03*
X775684Y860440D02*
D03*
X753484Y849916D02*
D03*
X768477Y853667D02*
D03*
X773000Y833327D02*
D03*
X1497000Y807000D02*
D03*
X904476Y726524D02*
D03*
X901838Y731275D02*
D03*
X913817Y749527D02*
D03*
X912596Y759941D02*
D03*
X1054719Y534925D02*
D03*
X441620Y814958D02*
D03*
X1106982Y591069D02*
D03*
X1143224Y597569D02*
D03*
X1270894Y630047D02*
D03*
X1233170Y621030D02*
D03*
X1255266Y584447D02*
D03*
Y610447D02*
D03*
Y597447D02*
D03*
X1238250Y612140D02*
D03*
X701926Y657966D02*
D03*
X702588Y652673D02*
D03*
X703158Y647370D02*
D03*
X714000Y615498D02*
D03*
X683869Y695131D02*
D03*
X563000Y612698D02*
D03*
X580000Y627302D02*
D03*
Y632698D02*
D03*
X597000Y612000D02*
D03*
X706000Y607000D02*
D03*
X924687Y703580D02*
D03*
X991406Y602278D02*
D03*
X1065324Y578098D02*
D03*
X1188720Y578178D02*
D03*
X1095502Y558679D02*
D03*
X1031240Y515188D02*
D03*
X1016024Y515212D02*
D03*
X1023620Y567250D02*
D03*
X1161542Y558679D02*
D03*
X1053512Y603378D02*
D03*
X1040223D02*
D03*
X1178165Y621666D02*
D03*
X1158320Y633778D02*
D03*
X1227502Y558679D02*
D03*
X1119378Y628650D02*
D03*
X1076960Y629919D02*
D03*
X1269920Y650621D02*
D03*
X856000Y836306D02*
D03*
X1473120Y1024253D02*
D03*
X1472121Y958460D02*
D03*
X1503680Y896620D02*
D03*
X1438640Y949960D02*
D03*
X1437640Y935662D02*
D03*
X1453725Y884841D02*
D03*
X1347160Y908685D02*
D03*
X1507500Y860000D02*
D03*
Y845000D02*
D03*
X1500000Y837500D02*
D03*
X1553210Y826770D02*
D03*
X1492500Y860000D02*
D03*
X1485000Y852500D02*
D03*
X1460082Y850991D02*
D03*
X1437746Y877550D02*
D03*
X1485000Y845000D02*
D03*
X1492500Y837500D02*
D03*
X1398270Y826770D02*
D03*
X1417320Y805180D02*
D03*
X1336040Y1001702D02*
D03*
X1280800Y857378D02*
D03*
X1244600Y908050D02*
D03*
X920000Y908000D02*
D03*
X936000Y876000D02*
D03*
X888000Y892000D02*
D03*
X912000Y884000D02*
D03*
X896000Y868000D02*
D03*
X928000Y852000D02*
D03*
X896000D02*
D03*
X880000Y868000D02*
D03*
X1133492Y835960D02*
D03*
X1133898Y826318D02*
D03*
X1150925Y803017D02*
D03*
X896000Y828000D02*
D03*
X888000Y820000D02*
D03*
Y804000D02*
D03*
X1417843Y783742D02*
D03*
X1401587Y666422D02*
D03*
X1492402Y600784D02*
D03*
X1458798Y599578D02*
D03*
X1386840Y786130D02*
D03*
X1389380Y709930D02*
D03*
X1367023Y787385D02*
D03*
X1376680Y743041D02*
D03*
X1394281Y666115D02*
D03*
X1361676Y650367D02*
D03*
X1580500Y476302D02*
D03*
X1633462Y368600D02*
D03*
X1459000Y410000D02*
D03*
X1481440Y555828D02*
D03*
X1450999Y555789D02*
D03*
X1447140Y484582D02*
D03*
X1427480Y509142D02*
D03*
X1389380Y471498D02*
D03*
X1344897Y369267D02*
D03*
X1159000Y794000D02*
D03*
X1135000Y747482D02*
D03*
X1132093Y739821D02*
D03*
X1325880Y730578D02*
D03*
X1134239Y731734D02*
D03*
X912000Y796000D02*
D03*
X936000Y788000D02*
D03*
X880000Y780000D02*
D03*
X904000Y772000D02*
D03*
X1329354Y685673D02*
D03*
X1340269Y593672D02*
D03*
X1318166Y699275D02*
D03*
X1325880Y696535D02*
D03*
X1322866Y668401D02*
D03*
X1337207Y522402D02*
D03*
X1305830Y410216D02*
D03*
X1257570Y426656D02*
D03*
X1223042Y392128D02*
D03*
X1298480Y313562D02*
D03*
X1152000Y710000D02*
D03*
X1132000Y689000D02*
D03*
X988697Y656141D02*
D03*
X949429D02*
D03*
X856000Y900000D02*
D03*
X832000Y908000D02*
D03*
X824000Y884000D02*
D03*
X848000Y876000D02*
D03*
X840000Y868000D02*
D03*
X832000Y860000D02*
D03*
X816000D02*
D03*
X731058Y961824D02*
D03*
X808000Y916000D02*
D03*
X707390Y970280D02*
D03*
X800000Y892000D02*
D03*
X792000Y868000D02*
D03*
X709422Y902462D02*
D03*
X702917Y883309D02*
D03*
X848000Y836000D02*
D03*
X832000Y835694D02*
D03*
X856000Y812000D02*
D03*
X848000Y820000D02*
D03*
Y788000D02*
D03*
X808000Y828000D02*
D03*
X800000Y804000D02*
D03*
X824000Y796000D02*
D03*
X700913Y794512D02*
D03*
X701600Y768604D02*
D03*
X689217Y977053D02*
D03*
X685800Y947420D02*
D03*
X664860Y941158D02*
D03*
X631317Y929488D02*
D03*
X681600Y880237D02*
D03*
X679499Y869315D02*
D03*
X647499Y866140D02*
D03*
X565762Y880872D02*
D03*
X565230Y866062D02*
D03*
X669163Y847032D02*
D03*
X690000Y843000D02*
D03*
X686689Y838200D02*
D03*
X685730Y805851D02*
D03*
X596890Y838973D02*
D03*
X559128Y859631D02*
D03*
X548264Y860298D02*
D03*
X489000Y843000D02*
D03*
X519913Y835045D02*
D03*
X474000Y840000D02*
D03*
X520060Y784098D02*
D03*
X462620Y814958D02*
D03*
X812909Y732297D02*
D03*
X762962Y751148D02*
D03*
X761317Y733250D02*
D03*
X784609Y683495D02*
D03*
X713232Y693166D02*
D03*
X681736Y725043D02*
D03*
X713994Y674624D02*
D03*
X717550Y467298D02*
D03*
X702542Y632994D02*
D03*
X703000Y628000D02*
D03*
Y617586D02*
D03*
X704850Y497902D02*
D03*
X679450D02*
D03*
X649000Y586000D02*
D03*
X656463Y565738D02*
D03*
X595000Y672000D02*
D03*
X548264Y758698D02*
D03*
X548264Y733298D02*
D03*
X458818Y756760D02*
D03*
X441620Y711958D02*
D03*
X548264Y707708D02*
D03*
X563000Y647302D02*
D03*
X462620Y711958D02*
D03*
X539750Y619808D02*
D03*
X587502Y351028D02*
D03*
X563000Y572302D02*
D03*
Y537303D02*
D03*
Y592302D02*
D03*
Y517302D02*
D03*
X538000Y605638D02*
D03*
X563000Y437368D02*
D03*
Y457302D02*
D03*
Y416433D02*
D03*
Y377302D02*
D03*
Y397302D02*
D03*
Y497302D02*
D03*
Y477302D02*
D03*
X1007921Y741172D02*
D03*
X1115000Y824000D02*
D03*
X1570990Y850900D02*
D03*
X1407287Y880110D02*
D03*
X1401953D02*
D03*
X1519682Y875030D02*
D03*
Y882592D02*
D03*
X826968Y690951D02*
D03*
X1322595Y684889D02*
D03*
X575000Y770000D02*
D03*
X657787Y940437D02*
D03*
X695112Y875504D02*
D03*
X602217Y886665D02*
D03*
X511698Y841400D02*
D03*
X635000Y736600D02*
D03*
X602065Y582774D02*
D03*
X604000Y594000D02*
D03*
X596851Y595581D02*
D03*
X595000Y606000D02*
D03*
X628000Y586000D02*
D03*
X622000D02*
D03*
X631000Y579000D02*
D03*
X638000Y584000D02*
D03*
X702542Y612272D02*
D03*
Y602580D02*
D03*
X596000Y647000D02*
D03*
X594046Y634230D02*
D03*
X575380Y693859D02*
D03*
X593000Y629000D02*
D03*
X644000Y584000D02*
D03*
X671000Y587000D02*
D03*
X675637Y584363D02*
D03*
X696190Y585434D02*
D03*
X690874Y585000D02*
D03*
X683000Y586000D02*
D03*
X692000Y695000D02*
D03*
X672000Y696000D02*
D03*
X645414D02*
D03*
X595000Y681000D02*
D03*
X1161000Y803000D02*
D03*
X795086Y970354D02*
D03*
X840623Y950026D02*
D03*
X792776Y965142D02*
D03*
X784902Y965706D02*
D03*
X777028Y965327D02*
D03*
X810683Y954436D02*
D03*
X730250Y982980D02*
D03*
X702610Y985938D02*
D03*
X935937Y828000D02*
D03*
X1286304Y803501D02*
D03*
X1258570Y802640D02*
D03*
X1284753Y789436D02*
D03*
X1408704Y783804D02*
D03*
X1376680Y810260D02*
D03*
X1486408Y752982D02*
D03*
X1606550Y750570D02*
D03*
X1607820Y741680D02*
D03*
Y731520D02*
D03*
X1518920Y678180D02*
D03*
X1494790Y725170D02*
D03*
X1493520Y717169D02*
D03*
X1487186Y693960D02*
D03*
X1471902Y895515D02*
D03*
X1478167Y900788D02*
D03*
X1446010Y867796D02*
D03*
X1445260Y788670D02*
D03*
X1370773Y906945D02*
D03*
X1271918Y906015D02*
D03*
X689024Y983135D02*
D03*
X689134Y961780D02*
D03*
X763778Y981710D02*
D03*
X751920Y981662D02*
D03*
X782320Y981710D02*
D03*
X886460Y1002152D02*
D03*
X903996Y981954D02*
D03*
X1006205Y849523D02*
D03*
X1033233Y865589D02*
D03*
X1015208D02*
D03*
X884469Y962496D02*
D03*
X1023620Y955421D02*
D03*
X513080Y905510D02*
D03*
X1350010Y466090D02*
D03*
X1225550Y678180D02*
D03*
X1324610Y576580D02*
D03*
X1327043Y416113D02*
D03*
X929640Y448310D02*
D03*
X941070Y445770D02*
D03*
X1302395Y630057D02*
D03*
X1328293Y596443D02*
D03*
X1369060Y743041D02*
D03*
X1261001Y921456D02*
D03*
X574040Y815340D02*
D03*
X562610Y807720D02*
D03*
X555593Y749634D02*
D03*
X491109Y745808D02*
D03*
X529592Y695912D02*
D03*
X1350890Y702517D02*
D03*
X1303147Y688661D02*
D03*
X1418732Y705739D02*
D03*
X1356995Y906842D02*
D03*
X1413250Y917238D02*
D03*
X509111Y784876D02*
D03*
X510748Y792200D02*
D03*
X1334628Y709739D02*
D03*
X1393750Y917238D02*
D03*
X1380750D02*
D03*
X1334592Y718566D02*
D03*
X1333500Y728980D02*
D03*
Y735330D02*
D03*
Y743204D02*
D03*
X1318630Y713215D02*
D03*
X1442640Y754239D02*
D03*
Y711647D02*
D03*
X1409700Y570230D02*
D03*
X1002726Y669417D02*
D03*
X1336040Y759460D02*
D03*
X1361440Y668020D02*
D03*
X1358680Y696791D02*
D03*
X1003427Y820420D02*
D03*
X1220470Y626110D02*
D03*
X1276893Y814221D02*
D03*
X1188720Y600382D02*
D03*
X1197266Y597447D02*
D03*
X651510Y808990D02*
D03*
X1437640Y913458D02*
D03*
X1195070Y546100D02*
D03*
X1456643Y1024253D02*
D03*
X1463120Y1037542D02*
D03*
X1467006Y966262D02*
D03*
X1456643Y994950D02*
D03*
X1456653Y981578D02*
D03*
X1447880Y994950D02*
D03*
X949960Y678053D02*
D03*
X973000Y708533D02*
D03*
X853606Y616822D02*
D03*
X704768Y820286D02*
D03*
X698500Y800100D02*
D03*
X666750Y754380D02*
D03*
X631317Y809498D02*
D03*
X595503Y784098D02*
D03*
X671703Y825500D02*
D03*
X663829Y825754D02*
D03*
X671902Y812800D02*
D03*
Y785920D02*
D03*
X694307Y837313D02*
D03*
X670560Y774700D02*
D03*
X711969Y846839D02*
D03*
X492088Y808880D02*
D03*
X498983Y777240D02*
D03*
X510748Y762280D02*
D03*
X1224219Y461010D02*
D03*
X1287780Y417830D02*
D03*
X1240132Y337650D02*
D03*
X1204713Y378636D02*
D03*
X581406Y732790D02*
D03*
X562356Y730377D02*
D03*
X670560Y728980D02*
D03*
X700649Y728101D02*
D03*
X957298Y569600D02*
D03*
X964466Y563082D02*
D03*
X699291Y763085D02*
D03*
X864870Y924560D02*
D03*
X840001Y928370D02*
D03*
X850900Y962660D02*
D03*
X866140Y960120D02*
D03*
X826394Y961766D02*
D03*
X820786Y958458D02*
D03*
X868733Y955167D02*
D03*
X832127Y929751D02*
D03*
X826793D02*
D03*
X790502Y806414D02*
D03*
X1458798Y585578D02*
D03*
X1244600Y532130D02*
D03*
X1243203Y541679D02*
D03*
X1120902Y535686D02*
D03*
X1113282Y544830D02*
D03*
X998197Y700286D02*
D03*
X762127Y593090D02*
D03*
X766773Y475160D02*
D03*
X745683Y456123D02*
D03*
X769493Y452842D02*
D03*
X1460500Y692150D02*
D03*
X838200Y566420D02*
D03*
X822960Y575310D02*
D03*
X869186Y474726D02*
D03*
X763270Y561340D02*
D03*
X762000Y571500D02*
D03*
X760857Y603250D02*
D03*
Y584200D02*
D03*
X750697Y825500D02*
D03*
X719963Y802888D02*
D03*
X751967Y815086D02*
D03*
X749753Y878707D02*
D03*
X713359Y854442D02*
D03*
X728853Y836930D02*
D03*
X708032Y854723D02*
D03*
X731393Y849540D02*
D03*
X545592Y496570D02*
D03*
X552450Y516890D02*
D03*
X545592Y471170D02*
D03*
X631317Y758698D02*
D03*
X1224280Y447040D02*
D03*
X1002411Y598462D02*
D03*
X1006348Y602234D02*
D03*
X1223010Y471170D02*
D03*
X769620Y948690D02*
D03*
X911242Y929025D02*
D03*
X900828Y930910D02*
D03*
X959876Y931936D02*
D03*
X1002157Y883920D02*
D03*
X990600Y848360D02*
D03*
X527050Y641912D02*
D03*
X528800Y618642D02*
D03*
X643562Y839978D02*
D03*
X712343Y860181D02*
D03*
X732173Y857414D02*
D03*
X773142Y883285D02*
D03*
X755780Y844192D02*
D03*
X750951Y839191D02*
D03*
Y833857D02*
D03*
X777574Y891159D02*
D03*
X707568Y890680D02*
D03*
X762000Y353187D02*
D03*
X700900Y340233D02*
D03*
X1432052Y377190D02*
D03*
X1554008Y525780D02*
D03*
X1441450Y412750D02*
D03*
X741553Y484619D02*
D03*
X759587Y776569D02*
D03*
X1242919Y666674D02*
D03*
X1013460Y775970D02*
D03*
X612178Y899198D02*
D03*
X615950Y902970D02*
D03*
X580421Y591881D02*
D03*
X676520Y565738D02*
D03*
X1402588Y737997D02*
D03*
X1544320Y638938D02*
D03*
X644017Y374778D02*
D03*
X614680Y363220D02*
D03*
X704850Y461902D02*
D03*
X665724Y492516D02*
D03*
X665480Y505460D02*
D03*
Y463423D02*
D03*
Y480060D02*
D03*
X730250Y461902D02*
D03*
X679450D02*
D03*
X979419Y723433D02*
D03*
X974391Y733251D02*
D03*
X1389380Y594360D02*
D03*
X1399540Y596900D02*
D03*
X927100Y736600D02*
D03*
X1417320Y601980D02*
D03*
X1409700Y607060D02*
D03*
X1290828Y631444D02*
D03*
X1464960Y555828D02*
D03*
X1448363Y687611D02*
D03*
X1423416Y672084D02*
D03*
X1440898Y671622D02*
D03*
X1340640Y691007D02*
D03*
X1403628Y709739D02*
D03*
X1394281Y650367D02*
D03*
X927100Y755650D02*
D03*
X936921Y732696D02*
D03*
X934720Y727837D02*
D03*
X781050Y304800D02*
D03*
X1422400Y412750D02*
D03*
X1002812Y777230D02*
D03*
X1003484Y782521D02*
D03*
X1004015Y772033D02*
D03*
X1004128Y744922D02*
D03*
X751920Y966343D02*
D03*
X934974Y746252D02*
D03*
X768096Y771398D02*
D03*
X1343249Y892461D02*
D03*
X668020Y869315D02*
D03*
X628269Y511226D02*
D03*
X698500Y774700D02*
D03*
Y787400D02*
D03*
X711073Y908685D02*
D03*
X719836Y971042D02*
D03*
X1132586Y536956D02*
D03*
X1106982Y604068D02*
D03*
Y617068D02*
D03*
X1204468Y630428D02*
D03*
X1164982Y604068D02*
D03*
X1155192Y570992D02*
D03*
X1164982Y591068D02*
D03*
X1058672Y515874D02*
D03*
X1078230Y544068D02*
D03*
X1144166Y541679D02*
D03*
X1183132Y542036D02*
D03*
X1208786Y541782D02*
D03*
X1334628Y700786D02*
D03*
X1325800Y717142D02*
D03*
X1325880Y752782D02*
D03*
X1353947Y797560D02*
D03*
X1310640Y787400D02*
D03*
X1306868Y791172D02*
D03*
X1295320Y790004D02*
D03*
X1382680Y767461D02*
D03*
X1374267Y784860D02*
D03*
X1406525Y754016D02*
D03*
X1396520Y770738D02*
D03*
X1392490Y748496D02*
D03*
X1386680Y744840D02*
D03*
X1299972Y961644D02*
D03*
X1393063Y974238D02*
D03*
X1473120Y1037542D02*
D03*
X1311402Y987044D02*
D03*
X1355056Y985803D02*
D03*
X1405344Y995503D02*
D03*
X563372Y705612D02*
D03*
X625094Y496570D02*
D03*
X621157Y471795D02*
D03*
X632460Y492760D02*
D03*
Y477520D02*
D03*
Y502920D02*
D03*
X614055Y564505D02*
D03*
X614680Y551180D02*
D03*
X612140Y538480D02*
D03*
X601980Y483616D02*
D03*
X625094Y456184D02*
D03*
X580000Y416433D02*
D03*
X955575Y705340D02*
D03*
X959512Y698205D02*
D03*
X1414321Y649018D02*
D03*
X1538097Y553466D02*
D03*
X1483366Y572744D02*
D03*
X1493440Y572818D02*
D03*
X1428647Y650216D02*
D03*
X1440898Y649018D02*
D03*
X1480900Y658495D02*
D03*
X1490900Y666369D02*
D03*
X935287Y755481D02*
D03*
X783209Y789523D02*
D03*
X980821Y699543D02*
D03*
X985520Y708533D02*
D03*
X779709Y764540D02*
D03*
X792000Y788000D02*
D03*
Y796000D02*
D03*
X1179040Y647204D02*
D03*
X1188240D02*
D03*
X1145032Y640842D02*
D03*
X1031802Y637032D02*
D03*
X1085088Y642112D02*
D03*
Y636778D02*
D03*
X1027465Y633221D02*
D03*
X824000Y812000D02*
D03*
Y804000D02*
D03*
X808000Y812000D02*
D03*
X808000Y804000D02*
D03*
X1023112Y546129D02*
D03*
Y551463D02*
D03*
X808000Y796000D02*
D03*
X800000D02*
D03*
X793105Y812608D02*
D03*
X800000Y812000D02*
D03*
Y820000D02*
D03*
X1057910Y592328D02*
D03*
X1044528Y560908D02*
D03*
X1094448Y533908D02*
D03*
X1492250Y649528D02*
D03*
X1480261Y645591D02*
D03*
X1466850Y646302D02*
D03*
X1492504Y623698D02*
D03*
X1479550D02*
D03*
X1502087Y596847D02*
D03*
X1534160Y605790D02*
D03*
X808000Y779780D02*
D03*
X1046480Y515188D02*
D03*
X1231900Y364490D02*
D03*
X711073Y928626D02*
D03*
X881380Y455802D02*
D03*
X872490Y440690D02*
D03*
X859790Y445770D02*
D03*
X698500Y742950D02*
D03*
X730250Y497902D02*
D03*
X1399833Y996652D02*
D03*
X1000367Y913099D02*
D03*
X1003427Y828294D02*
D03*
Y805687D02*
D03*
Y800353D02*
D03*
X1378774Y974708D02*
D03*
X580000Y438277D02*
D03*
X1003159Y925837D02*
D03*
X1003791Y920541D02*
D03*
X1003495Y931161D02*
D03*
X832000Y812000D02*
D03*
X840000D02*
D03*
X1531620Y855980D02*
D03*
X1488742Y815340D02*
D03*
X1483408D02*
D03*
X1487678Y879453D02*
D03*
X1502472Y816610D02*
D03*
X1497138D02*
D03*
X1300050Y984504D02*
D03*
X612140Y914019D02*
D03*
Y908685D02*
D03*
X1360170Y702310D02*
D03*
X1418732Y721739D02*
D03*
X485140Y867410D02*
D03*
X1462500Y830000D02*
D03*
X1532890Y844550D02*
D03*
X1529080Y866140D02*
D03*
X1513840Y896620D02*
D03*
X669785Y397382D02*
D03*
X657294Y375575D02*
D03*
X669785Y374778D02*
D03*
X621792Y445770D02*
D03*
X523113Y508735D02*
D03*
X526288Y458470D02*
D03*
Y433070D02*
D03*
X706040Y572818D02*
D03*
X632460Y464820D02*
D03*
X614680Y375920D02*
D03*
X627380Y431800D02*
D03*
X1124185Y908177D02*
D03*
X928851Y957142D02*
D03*
X932413Y949290D02*
D03*
X1132050Y909967D02*
D03*
X1003300Y876300D02*
D03*
X958723Y901700D02*
D03*
X1132050Y921386D02*
D03*
X1003300Y899922D02*
D03*
X1016000Y955040D02*
D03*
X1362607Y499298D02*
D03*
X1375307Y499298D02*
D03*
X1349907D02*
D03*
X1375307Y442798D02*
D03*
X1362607Y465902D02*
D03*
X1337207D02*
D03*
X664600Y743902D02*
D03*
X1520152Y563847D02*
D03*
X1397781Y717739D02*
D03*
X1424579Y713739D02*
D03*
X1349732Y737739D02*
D03*
X1355579Y729738D02*
D03*
X1349732Y721739D02*
D03*
X1355579Y713739D02*
D03*
X1374680Y696791D02*
D03*
X1366680Y702637D02*
D03*
X580000Y537303D02*
D03*
Y517302D02*
D03*
Y497302D02*
D03*
Y572302D02*
D03*
Y477302D02*
D03*
Y457302D02*
D03*
Y397302D02*
D03*
Y377302D02*
D03*
X710900Y319798D02*
D03*
X690900D02*
D03*
X621792Y420370D02*
D03*
X545592Y445770D02*
D03*
Y420370D02*
D03*
X1611358Y398600D02*
D03*
X1633462Y388600D02*
D03*
X1611358Y378600D02*
D03*
X1472942Y933960D02*
D03*
X546750Y969848D02*
D03*
X546100Y988898D02*
D03*
X550700Y940782D02*
D03*
X1345473Y923618D02*
D03*
X1439498Y959730D02*
D03*
Y942731D02*
D03*
X1447880Y981662D02*
D03*
X1063355Y534925D02*
D03*
X1053592Y570990D02*
D03*
X1374250Y917238D02*
D03*
X1387250D02*
D03*
X1389380Y493702D02*
D03*
X1356360Y922641D02*
D03*
X1607114Y699898D02*
D03*
X1472635Y753067D02*
D03*
X1620520Y699898D02*
D03*
X1442640Y767527D02*
D03*
X1442560Y740950D02*
D03*
X679450Y949912D02*
D03*
X1066800Y625982D02*
D03*
X1188165Y608378D02*
D03*
X1178165D02*
D03*
X1188165Y621666D02*
D03*
X1195658Y526660D02*
D03*
X1574502Y377300D02*
D03*
X552450Y695912D02*
D03*
Y641912D02*
D03*
X1259212Y906383D02*
D03*
X1138378Y610569D02*
D03*
X1080378Y597569D02*
D03*
Y584569D02*
D03*
X1223870Y577947D02*
D03*
X1499542Y548640D02*
D03*
X629920Y374778D02*
D03*
X1558290Y661462D02*
D03*
X1466850Y623698D02*
D03*
X1544320Y661542D02*
D03*
Y859662D02*
D03*
X526939Y820565D02*
D03*
X550592Y831867D02*
D03*
X563880Y831722D02*
D03*
X1124590Y921386D02*
D03*
X951230Y864743D02*
D03*
X952500Y877570D02*
D03*
Y886460D02*
D03*
X1003300Y795020D02*
D03*
X651510Y925830D02*
D03*
X678180Y906780D02*
D03*
X872000Y812000D02*
D03*
X949960Y905510D02*
D03*
X808000Y884000D02*
D03*
X800000Y836000D02*
D03*
Y876000D02*
D03*
X816000Y916000D02*
D03*
X840000Y884000D02*
D03*
Y908000D02*
D03*
X848000Y900000D02*
D03*
X856000Y908000D02*
D03*
X912000Y828000D02*
D03*
Y892000D02*
D03*
X920000D02*
D03*
X928000Y860000D02*
D03*
X800000Y908000D02*
D03*
X824000Y868000D02*
D03*
X832000Y876000D02*
D03*
X856000Y804000D02*
D03*
X856000Y876000D02*
D03*
X880000Y892000D02*
D03*
Y916000D02*
D03*
X896000Y908000D02*
D03*
X904000Y804000D02*
D03*
X920000Y876000D02*
D03*
X872000Y868000D02*
D03*
X848000D02*
D03*
X888000D02*
D03*
X832000D02*
D03*
X840000Y804000D02*
D03*
X816000Y812000D02*
D03*
X832000Y780000D02*
D03*
X856000Y772000D02*
D03*
X808000Y788000D02*
D03*
X824000Y828000D02*
D03*
X792306Y884000D02*
D03*
X808000Y820000D02*
D03*
X808000Y852000D02*
D03*
X824000Y900000D02*
D03*
X856000Y796000D02*
D03*
X888000Y812000D02*
D03*
X896000D02*
D03*
X904000Y788000D02*
D03*
X912000Y868000D02*
D03*
X920000Y852000D02*
D03*
X792000D02*
D03*
X800000Y788000D02*
D03*
X808000Y908000D02*
D03*
X816000Y852000D02*
D03*
X832000Y796000D02*
D03*
X856000Y884000D02*
D03*
Y892000D02*
D03*
X880000Y788000D02*
D03*
X920000Y788000D02*
D03*
Y884000D02*
D03*
X928000D02*
D03*
X808000Y860000D02*
D03*
X816000Y884000D02*
D03*
Y908000D02*
D03*
X832000Y892000D02*
D03*
X840000Y788000D02*
D03*
X848000Y804000D02*
D03*
X880000Y812000D02*
D03*
X888000Y916000D02*
D03*
X904000Y892000D02*
D03*
X936000Y892000D02*
D03*
X792000Y828000D02*
D03*
Y900000D02*
D03*
X808000Y836000D02*
D03*
X824000Y820000D02*
D03*
X856000Y860000D02*
D03*
X880000D02*
D03*
X888000Y852000D02*
D03*
X880000Y820000D02*
D03*
X888000Y828000D02*
D03*
X840000Y820000D02*
D03*
X896000Y836000D02*
D03*
X896000Y860000D02*
D03*
Y820000D02*
D03*
X856000Y819694D02*
D03*
X840000Y860000D02*
D03*
X832000Y852306D02*
D03*
Y828000D02*
D03*
X848000Y796000D02*
D03*
Y812000D02*
D03*
X904000Y780000D02*
D03*
X912000Y812000D02*
D03*
Y860000D02*
D03*
X920000Y836000D02*
D03*
X800000Y868000D02*
D03*
X808000Y892000D02*
D03*
X824000Y835694D02*
D03*
X832000Y884000D02*
D03*
Y916000D02*
D03*
X840000D02*
D03*
X848000Y884000D02*
D03*
X848000Y892000D02*
D03*
X880000Y796000D02*
D03*
X912000Y780000D02*
D03*
X920000Y812000D02*
D03*
X928000Y900000D02*
D03*
X800000Y900000D02*
D03*
X816000Y804000D02*
D03*
X896000Y900000D02*
D03*
X904000Y884000D02*
D03*
X912000Y804000D02*
D03*
X928000Y876000D02*
D03*
X872000Y884000D02*
D03*
X904000Y860000D02*
D03*
Y828000D02*
D03*
X896000Y876000D02*
D03*
X904000Y868000D02*
D03*
X872000Y796000D02*
D03*
X912000Y836000D02*
D03*
X904000Y812000D02*
D03*
X840000Y892000D02*
D03*
X920000Y868000D02*
D03*
X896000Y788000D02*
D03*
X880000Y908000D02*
D03*
X904000Y900000D02*
D03*
X816000D02*
D03*
X848000Y916000D02*
D03*
X928000Y804000D02*
D03*
Y892000D02*
D03*
X920000Y780000D02*
D03*
X936000Y916000D02*
D03*
X800000Y852000D02*
D03*
X792000Y908000D02*
D03*
X808000Y876000D02*
D03*
X800000Y916000D02*
D03*
X816000Y788000D02*
D03*
Y820000D02*
D03*
X824000Y852306D02*
D03*
Y892000D02*
D03*
X840000Y796000D02*
D03*
X872000Y804000D02*
D03*
X872000Y916000D02*
D03*
X880000Y804000D02*
D03*
X904000Y908000D02*
D03*
X920000Y900000D02*
D03*
X792000Y892000D02*
D03*
X808000Y900000D02*
D03*
X816000Y868000D02*
D03*
X824000Y916000D02*
D03*
X872000Y892000D02*
D03*
X896000Y796000D02*
D03*
X904000Y852000D02*
D03*
X912000Y788000D02*
D03*
Y820000D02*
D03*
X928000Y908000D02*
D03*
Y916000D02*
D03*
X800000Y828000D02*
D03*
X824000Y788000D02*
D03*
X824000Y908000D02*
D03*
X832000Y788000D02*
D03*
X840000Y900000D02*
D03*
X856000Y788000D02*
D03*
X896000Y892000D02*
D03*
X923478Y926205D02*
D03*
X912000Y900000D02*
D03*
X928000Y868000D02*
D03*
X792000Y836000D02*
D03*
Y860000D02*
D03*
X800000D02*
D03*
X824000D02*
D03*
X872000Y780000D02*
D03*
X871998Y852002D02*
D03*
X880000Y876000D02*
D03*
X880000Y900000D02*
D03*
X888000Y876000D02*
D03*
X920000Y796000D02*
D03*
X920000Y804000D02*
D03*
X816000Y876000D02*
D03*
Y892000D02*
D03*
X832000Y804000D02*
D03*
X872000Y788000D02*
D03*
X880000Y884000D02*
D03*
X888000Y796000D02*
D03*
X896000Y884000D02*
D03*
X904000Y820000D02*
D03*
X912000Y908000D02*
D03*
X920000Y860000D02*
D03*
X936000Y884000D02*
D03*
X935694Y900000D02*
D03*
X792000Y876000D02*
D03*
X800000Y884000D02*
D03*
X848000Y908000D02*
D03*
X872000Y900000D02*
D03*
X888000Y884000D02*
D03*
X912000Y852000D02*
D03*
Y876000D02*
D03*
Y916000D02*
D03*
X920000Y828000D02*
D03*
X792000Y916000D02*
D03*
X816000Y796000D02*
D03*
Y836000D02*
D03*
X824000Y876000D02*
D03*
X832000Y900000D02*
D03*
X856000Y916000D02*
D03*
X872000Y876000D02*
D03*
Y908000D02*
D03*
X888000Y788000D02*
D03*
X920000Y916000D02*
D03*
X928000Y836000D02*
D03*
X936000Y852000D02*
D03*
X808000Y868000D02*
D03*
X816000Y828000D02*
D03*
X840000Y876000D02*
D03*
X904000Y796000D02*
D03*
Y836000D02*
D03*
X904000Y916000D02*
D03*
X912000Y772000D02*
D03*
X920000D02*
D03*
X936000Y860000D02*
D03*
X935694Y820000D02*
D03*
Y812000D02*
D03*
Y836000D02*
D03*
X936000Y772000D02*
D03*
Y780000D02*
D03*
X928000Y772000D02*
D03*
Y780000D02*
D03*
X936000Y796000D02*
D03*
X928000Y788000D02*
D03*
X936000Y804000D02*
D03*
X928000Y796000D02*
D03*
Y812000D02*
D03*
X928000Y828000D02*
D03*
D136*
X1038000Y732000D02*
D03*
X1016896Y834937D02*
D03*
X456000Y847000D02*
D03*
X779000Y608000D02*
D03*
X1287808Y918003D02*
D03*
X1142956Y684956D02*
D03*
X972000Y923000D02*
D03*
X660000Y697000D02*
D03*
X1533000Y467000D02*
D03*
X719000Y638464D02*
D03*
X649120Y899120D02*
D03*
X1028194Y677746D02*
D03*
X1104000Y678000D02*
D03*
X1363000Y994000D02*
D03*
X1320800Y1003200D02*
D03*
X1055618Y776680D02*
D03*
X920000Y632000D02*
D03*
X880109Y767070D02*
D03*
X508000Y325000D02*
D03*
X1286000Y698000D02*
D03*
X1477000Y765000D02*
D03*
X1526000Y574000D02*
D03*
X1548000Y628000D02*
D03*
X1616000Y627000D02*
D03*
X1657000Y630000D02*
D03*
X1659000Y463000D02*
D03*
X506000Y303000D02*
D03*
X638000Y304000D02*
D03*
X639000Y325000D02*
D03*
X700000Y684000D02*
D03*
X736938Y615300D02*
D03*
X577000Y607000D02*
D03*
X715000Y588000D02*
D03*
X725000Y603000D02*
D03*
X628000Y563000D02*
D03*
X638000Y562000D02*
D03*
X691000Y724000D02*
D03*
X1400000Y1037500D02*
D03*
X1549400Y835660D02*
D03*
X1653000Y827000D02*
D03*
X1543042Y800108D02*
D03*
X1539240Y834390D02*
D03*
X1529341Y832085D02*
D03*
X1315720Y919480D02*
D03*
X1158250Y827920D02*
D03*
X1246848Y823252D02*
D03*
X1052000Y840000D02*
D03*
X955000Y844000D02*
D03*
X1039000Y840000D02*
D03*
X1027000D02*
D03*
X1545110Y786130D02*
D03*
X1572260Y690880D02*
D03*
X1549400Y732790D02*
D03*
X1496060Y754380D02*
D03*
X1191000Y799000D02*
D03*
X1184000D02*
D03*
X1198000D02*
D03*
X1126914Y778812D02*
D03*
X1159510Y735047D02*
D03*
X1142000Y722000D02*
D03*
X1124000Y766366D02*
D03*
X1032000Y742000D02*
D03*
X1027000Y732000D02*
D03*
X985000Y760072D02*
D03*
X1185000Y711000D02*
D03*
X1192000Y710000D02*
D03*
X1198000D02*
D03*
X768000Y792000D02*
D03*
X507500Y962500D02*
D03*
X522500Y952500D02*
D03*
X537500Y902500D02*
D03*
X515000Y875000D02*
D03*
X577000Y795000D02*
D03*
X559000D02*
D03*
X769000Y665000D02*
D03*
X648000Y724000D02*
D03*
X600000Y731000D02*
D03*
X589000Y750000D02*
D03*
X1619000Y818000D02*
D03*
X1598000Y862000D02*
D03*
X1606000Y848000D02*
D03*
X759333Y741998D02*
D03*
X714000Y728000D02*
D03*
X1254000Y708000D02*
D03*
X575000Y764000D02*
D03*
X604000Y914000D02*
D03*
X645391Y944046D02*
D03*
X486000Y665000D02*
D03*
X780918Y637082D02*
D03*
X1234000Y763000D02*
D03*
X1222000D02*
D03*
X1085895Y677937D02*
D03*
X1059000Y678000D02*
D03*
X1037896Y677937D02*
D03*
X1017000Y788000D02*
D03*
Y797000D02*
D03*
Y806000D02*
D03*
X1593976Y679646D02*
D03*
X1521460Y778510D02*
D03*
X739685Y999367D02*
D03*
X567500Y915000D02*
D03*
X507045Y937590D02*
D03*
X505000Y952500D02*
D03*
X527500Y905000D02*
D03*
X507822Y924560D02*
D03*
D137*
X666740Y656580D02*
D03*
X655740D02*
D03*
Y645580D02*
D03*
X666740Y634580D02*
D03*
Y645580D02*
D03*
X644740Y634580D02*
D03*
X655740D02*
D03*
X666740Y623580D02*
D03*
X655740D02*
D03*
X644740Y645580D02*
D03*
Y656580D02*
D03*
X633740Y623580D02*
D03*
Y634580D02*
D03*
Y656580D02*
D03*
Y645580D02*
D03*
X644740Y623580D02*
D03*
M02*
