G04*
G04 #@! TF.GenerationSoftware,Altium Limited,Altium Designer,23.10.1 (27)*
G04*
G04 Layer_Physical_Order=7*
G04 Layer_Color=16737945*
%FSLAX44Y44*%
%MOMM*%
G71*
G04*
G04 #@! TF.SameCoordinates,B86BD226-0E7F-4409-BC4F-A9AD3D2462E1*
G04*
G04*
G04 #@! TF.FilePolarity,Positive*
G04*
G01*
G75*
%ADD13C,0.2540*%
%ADD15C,0.1270*%
%ADD18C,0.2032*%
%ADD89C,1.3900*%
%ADD98C,1.5700*%
%ADD102C,3.2000*%
%ADD103R,1.3900X1.3900*%
%ADD104C,2.4500*%
G04:AMPARAMS|DCode=105|XSize=1mm|YSize=1.8mm|CornerRadius=0.5mm|HoleSize=0mm|Usage=FLASHONLY|Rotation=180.000|XOffset=0mm|YOffset=0mm|HoleType=Round|Shape=RoundedRectangle|*
%AMROUNDEDRECTD105*
21,1,1.0000,0.8000,0,0,180.0*
21,1,0.0000,1.8000,0,0,180.0*
1,1,1.0000,0.0000,0.4000*
1,1,1.0000,0.0000,0.4000*
1,1,1.0000,0.0000,-0.4000*
1,1,1.0000,0.0000,-0.4000*
%
%ADD105ROUNDEDRECTD105*%
G04:AMPARAMS|DCode=106|XSize=1mm|YSize=2.1mm|CornerRadius=0.5mm|HoleSize=0mm|Usage=FLASHONLY|Rotation=180.000|XOffset=0mm|YOffset=0mm|HoleType=Round|Shape=RoundedRectangle|*
%AMROUNDEDRECTD106*
21,1,1.0000,1.1000,0,0,180.0*
21,1,0.0000,2.1000,0,0,180.0*
1,1,1.0000,0.0000,0.5500*
1,1,1.0000,0.0000,0.5500*
1,1,1.0000,0.0000,-0.5500*
1,1,1.0000,0.0000,-0.5500*
%
%ADD106ROUNDEDRECTD106*%
%ADD107C,0.6500*%
%ADD108C,0.9000*%
G04:AMPARAMS|DCode=111|XSize=1mm|YSize=2.1mm|CornerRadius=0.5mm|HoleSize=0mm|Usage=FLASHONLY|Rotation=270.000|XOffset=0mm|YOffset=0mm|HoleType=Round|Shape=RoundedRectangle|*
%AMROUNDEDRECTD111*
21,1,1.0000,1.1000,0,0,270.0*
21,1,0.0000,2.1000,0,0,270.0*
1,1,1.0000,-0.5500,0.0000*
1,1,1.0000,-0.5500,0.0000*
1,1,1.0000,0.5500,0.0000*
1,1,1.0000,0.5500,0.0000*
%
%ADD111ROUNDEDRECTD111*%
G04:AMPARAMS|DCode=112|XSize=1mm|YSize=1.8mm|CornerRadius=0.5mm|HoleSize=0mm|Usage=FLASHONLY|Rotation=270.000|XOffset=0mm|YOffset=0mm|HoleType=Round|Shape=RoundedRectangle|*
%AMROUNDEDRECTD112*
21,1,1.0000,0.8000,0,0,270.0*
21,1,0.0000,1.8000,0,0,270.0*
1,1,1.0000,-0.4000,0.0000*
1,1,1.0000,-0.4000,0.0000*
1,1,1.0000,0.4000,0.0000*
1,1,1.0000,0.4000,0.0000*
%
%ADD112ROUNDEDRECTD112*%
%ADD115C,0.5080*%
%ADD116C,0.3048*%
%ADD118C,0.3556*%
%ADD119C,5.3000*%
%ADD120C,1.7000*%
%ADD121C,1.5000*%
%ADD122C,1.9000*%
%ADD123C,1.7272*%
%ADD124C,1.2000*%
%ADD125C,1.5500*%
%ADD126C,0.6000*%
%ADD127R,1.5000X1.5000*%
%ADD128R,1.5500X1.5500*%
%ADD129R,1.7000X1.7000*%
%ADD130R,1.6764X1.6764*%
%ADD131R,1.5000X1.5000*%
%ADD132C,0.6096*%
%ADD133C,0.4064*%
%ADD134C,0.6000*%
D13*
X1144166Y583253D02*
X1164982Y604068D01*
X1144166Y541679D02*
Y583253D01*
X1164982Y591068D02*
X1183132Y572919D01*
Y542036D02*
Y572919D01*
D15*
X599830Y700922D02*
X600000D01*
X592006Y693098D02*
X599830Y700922D01*
X604520Y722232D02*
Y724923D01*
Y722232D02*
X606017Y720735D01*
X604520Y711768D02*
X606017Y713265D01*
Y720735D01*
X607060Y710716D02*
X608557Y712213D01*
X607060Y723871D02*
X610033Y726844D01*
X607060Y723284D02*
Y723871D01*
Y723284D02*
X608557Y721787D01*
Y712213D02*
Y721787D01*
X607060Y698958D02*
Y710716D01*
X604520Y724923D02*
X607493Y727896D01*
X607060Y698958D02*
X609081Y696937D01*
X604520Y696543D02*
X606017Y695046D01*
X604520Y696543D02*
Y711768D01*
X609081Y696937D02*
X624063D01*
X607060Y738129D02*
X610033Y735156D01*
X599440Y713807D02*
Y713872D01*
X583946Y693266D02*
Y698313D01*
X604520Y737077D02*
X607493Y734104D01*
X597389Y722179D02*
X600937Y718631D01*
X594106Y702827D02*
Y704881D01*
X610033Y726844D02*
Y735156D01*
X583946Y698313D02*
X599440Y713807D01*
X601980Y712820D02*
X603477Y714317D01*
X607493Y727896D02*
Y734104D01*
X601980Y712755D02*
Y712820D01*
X594106Y704881D02*
X601980Y712755D01*
X603477Y714317D02*
Y719683D01*
X600937Y715369D02*
Y718631D01*
X599440Y713872D02*
X600937Y715369D01*
X585460Y651972D02*
X605028Y632404D01*
X580380Y641620D02*
Y689700D01*
X585460Y651972D02*
Y687595D01*
X582920Y688648D02*
X593424Y699151D01*
X580380Y641620D02*
X593000Y629000D01*
X585460Y687595D02*
X590962Y693098D01*
X582920Y645357D02*
X594046Y634230D01*
X582920Y645357D02*
Y688648D01*
X580380Y689700D02*
X583946Y693266D01*
X794219Y351917D02*
X798493Y347643D01*
X845374Y745837D02*
X852825Y738385D01*
X844063Y826495D02*
X852063Y834495D01*
X844063Y786369D02*
Y826495D01*
Y786369D02*
X847491Y782941D01*
X845374Y758175D02*
X847491Y760292D01*
X845374Y745837D02*
Y758175D01*
X847491Y760292D02*
Y782941D01*
X862000Y738000D02*
X866064Y742064D01*
X859164Y753676D02*
X866064Y746776D01*
X852063Y770369D02*
X853248Y769184D01*
X852063Y826801D02*
X859937Y834675D01*
X861854Y745146D02*
X862127D01*
X853248Y741555D02*
Y769184D01*
X866064Y742064D02*
Y746776D01*
X853248Y741555D02*
X855365Y739437D01*
X856624Y750376D02*
X861854Y745146D01*
X859164Y766004D02*
X862983Y769823D01*
X861704Y754728D02*
Y764952D01*
X859164Y753676D02*
Y766004D01*
X861704Y764952D02*
X865523Y768771D01*
X856624Y767056D02*
X860443Y770875D01*
X861704Y754728D02*
X872796Y743636D01*
X856624Y750376D02*
Y767056D01*
X872796Y743636D02*
X878364D01*
X779272Y787892D02*
X840076Y727088D01*
X855365Y738779D02*
X860081Y734063D01*
X872045Y731523D02*
X876000Y727568D01*
X859029Y731523D02*
X872045D01*
X852825Y737727D02*
X859029Y731523D01*
X880631Y734063D02*
X884063Y730631D01*
X840076Y727088D02*
X861574D01*
X860081Y734063D02*
X880631D01*
X852825Y737727D02*
Y738385D01*
X855365Y738779D02*
Y739437D01*
X852063Y770369D02*
Y826801D01*
X862983Y800371D02*
X870549Y807937D01*
X723900Y811703D02*
X729033Y806570D01*
X726493Y623385D02*
X731985Y617893D01*
X723953Y622333D02*
X729445Y616841D01*
X726493Y623385D02*
Y805518D01*
X729033Y633534D02*
X743485Y619082D01*
X723953Y622333D02*
Y804466D01*
X721360Y810651D02*
X726493Y805518D01*
X729033Y633534D02*
Y806570D01*
X718820Y809599D02*
X723953Y804466D01*
X734459Y736920D02*
X736110Y738571D01*
X743485Y543148D02*
Y619082D01*
X736999Y638538D02*
Y735868D01*
X734459Y637486D02*
X748565Y623380D01*
X736999Y735868D02*
X738650Y737519D01*
X734459Y637486D02*
Y736920D01*
X731919Y737972D02*
X732790Y738843D01*
X736999Y638538D02*
X751105Y624432D01*
X731919Y634240D02*
Y737972D01*
Y634240D02*
X746025Y620134D01*
X1274005Y972537D02*
X1320673Y925869D01*
X1261595Y1005589D02*
X1303909Y963275D01*
X1281091Y969043D02*
X1336036Y914098D01*
X1303909Y953409D02*
Y963275D01*
X1283631Y970095D02*
X1325900Y927826D01*
X996950Y716280D02*
X1010920D01*
X960132Y704318D02*
X1100458D01*
X994628Y715010D02*
X995898Y713740D01*
X979886Y733344D02*
X996950Y716280D01*
X1006157Y720555D02*
X1009632Y724030D01*
X995898Y713740D02*
X1011972D01*
X654073Y885678D02*
Y907891D01*
X639997Y921967D02*
X654073Y907891D01*
X651817Y864351D02*
Y883422D01*
X654073Y885678D01*
X1498243Y759202D02*
X1501013Y756432D01*
Y745445D02*
Y756432D01*
X1498243Y742675D02*
X1501013Y745445D01*
X1498243Y728623D02*
Y742675D01*
X681710Y1055063D02*
X682631D01*
X671308Y1054100D02*
X671948Y1053460D01*
X680107D01*
X681710Y1055063D01*
X617975Y1042069D02*
X630006Y1054100D01*
X671308D01*
X679917Y1063485D02*
X723870D01*
X676325D02*
X678865Y1066025D01*
X634747D02*
X675273D01*
X677813Y1068565D02*
X725974D01*
X684937Y1058290D02*
X685052Y1058405D01*
X675273Y1066025D02*
X677813Y1068565D01*
X678865Y1066025D02*
X724922D01*
X682631Y1055063D02*
X684937Y1057369D01*
X635799Y1063485D02*
X676325D01*
X684937Y1057369D02*
Y1058290D01*
X677377Y1060945D02*
X679917Y1063485D01*
X636851Y1060945D02*
X677377D01*
X681000Y1059000D02*
Y1059000D01*
X681002Y1058998D02*
X682054D01*
X684000Y1060945D01*
X681000Y1059000D02*
X681002Y1058998D01*
X1228141Y1003249D02*
Y1019773D01*
X1220210Y1027705D02*
X1228141Y1019773D01*
X1194810Y1053105D02*
X1202211Y1045704D01*
X721766Y1058405D02*
X727066Y1053105D01*
X684000Y1060945D02*
X722818D01*
X725358Y1058405D02*
X1193102D01*
X1213640Y1030245D02*
X1221262D01*
X1230895Y1020612D01*
Y1012990D02*
Y1020612D01*
X1246787Y997098D02*
X1250483D01*
X728514Y1066025D02*
X1239874D01*
X722818Y1060945D02*
X725358Y1058405D01*
X724922Y1066025D02*
X727462Y1063485D01*
X1230895Y1012990D02*
X1246787Y997098D01*
X727462Y1063485D02*
X1238822D01*
X1250483Y997098D02*
X1266375Y981205D01*
X723870Y1063485D02*
X726410Y1060945D01*
X1202211Y1038082D02*
Y1045704D01*
X1193102Y1058405D02*
X1204751Y1046756D01*
Y1039134D02*
Y1046756D01*
X1202211Y1038082D02*
X1212588Y1027705D01*
X725974Y1068565D02*
X728514Y1066025D01*
X1204751Y1039134D02*
X1213640Y1030245D01*
X726410Y1060945D02*
X1237770D01*
X727066Y1053105D02*
X1194810D01*
X1212588Y1027705D02*
X1220210D01*
X685052Y1058405D02*
X721766D01*
X609974Y980303D02*
Y1030476D01*
X630442Y1061720D02*
X634747Y1066025D01*
X632546Y1056640D02*
X636851Y1060945D01*
X1238822Y1063485D02*
X1259055Y1043252D01*
X1239874Y1066025D02*
X1261595Y1044304D01*
X631494Y1059180D02*
X635799Y1063485D01*
X1237770Y1060945D02*
X1256515Y1042200D01*
X1259055Y998631D02*
Y1043252D01*
X1256515Y997579D02*
Y1042200D01*
X1259055Y998631D02*
X1271401Y986285D01*
X1256515Y997579D02*
X1270349Y983745D01*
X1261595Y1005589D02*
Y1044304D01*
X1266375Y981205D02*
X1272889D01*
X1274005Y980089D01*
Y972537D02*
Y980089D01*
X1320673Y920486D02*
Y925869D01*
X1335054Y906224D02*
X1347186Y894092D01*
Y864494D02*
Y894092D01*
Y864494D02*
X1353159Y858522D01*
Y805789D02*
X1353947Y805001D01*
X1349375Y805455D02*
X1350010Y804820D01*
X1349375Y805455D02*
Y809239D01*
X1349222Y809392D02*
X1349375Y809239D01*
X1336565Y910161D02*
X1349726Y897000D01*
X1350010Y790971D02*
Y804820D01*
X1273941Y983745D02*
X1276545Y981141D01*
X1274993Y986285D02*
X1279085Y982193D01*
Y978601D02*
X1283631Y974055D01*
X1271401Y986285D02*
X1274993D01*
X1353947Y797560D02*
Y805001D01*
X1336036Y914098D02*
X1338196D01*
X1276545Y977549D02*
Y981141D01*
X1338196Y914098D02*
X1339672Y912622D01*
X1270349Y983745D02*
X1273941D01*
X1353159Y805789D02*
Y858522D01*
X1276545Y977549D02*
X1281091Y973003D01*
X1349726Y891552D02*
X1354550Y886728D01*
X1279085Y978601D02*
Y982193D01*
X1334935Y906224D02*
X1335054D01*
X1349726Y891552D02*
Y897000D01*
X1339672Y912622D02*
X1356783D01*
X1320673Y920486D02*
X1334935Y906224D01*
X1355699Y806841D02*
X1362905Y799635D01*
X1358239Y807893D02*
Y862435D01*
X1362710Y808990D02*
X1372382D01*
X1343249Y794140D02*
Y892461D01*
X1358239Y807893D02*
X1382680Y783452D01*
X1355699Y806841D02*
Y859574D01*
X1326007Y772287D02*
Y903039D01*
X1314519Y914527D02*
X1326007Y903039D01*
X1357090Y863584D02*
X1358239Y862435D01*
X1362905Y781668D02*
Y799635D01*
X1372382Y808990D02*
X1402588Y778784D01*
X877000Y481000D02*
X883031Y474969D01*
Y465382D02*
Y474969D01*
X888000Y496000D02*
Y498000D01*
X885571Y493571D02*
X888000Y496000D01*
X885571Y466434D02*
Y493571D01*
X1034120Y663880D02*
X1034204D01*
X938784Y681990D02*
X1016010D01*
X1034120Y663880D01*
X1037685Y660400D02*
X1041400D01*
X1034204Y663880D02*
X1037685Y660400D01*
X1134625Y668775D02*
X1143000Y660400D01*
X1132085Y667723D02*
Y669099D01*
X998713Y699770D02*
X1101414D01*
X1100458Y704318D02*
X1134625Y670151D01*
X1132085Y667723D02*
X1133595Y666213D01*
X1134625Y668775D02*
Y670151D01*
X1101414Y699770D02*
X1132085Y669099D01*
X1129545Y666671D02*
X1131055Y665161D01*
X1129545Y666671D02*
Y668047D01*
X984015Y696349D02*
X1101244D01*
X974457Y693809D02*
X1100191D01*
X1127005Y666995D01*
X1101244Y696349D02*
X1129545Y668047D01*
X1127005Y627509D02*
Y666995D01*
X1109973Y663027D02*
X1114973D01*
X941940Y689610D02*
X1083390D01*
X1114973Y663027D02*
X1117600Y660400D01*
X1083390Y689610D02*
X1109973Y663027D01*
X593424Y699151D02*
Y702144D01*
X594106Y702827D01*
X1267967Y935792D02*
X1269920Y937745D01*
X1250950Y916972D02*
X1267967Y933989D01*
Y935792D01*
X1269920Y937745D02*
Y938501D01*
X1303909Y953409D02*
X1326952Y930366D01*
X1325900Y927826D02*
X1408229D01*
X1424320Y911736D01*
X1409281Y930366D02*
X1432377Y907270D01*
X1326952Y930366D02*
X1409281D01*
X1250950Y883158D02*
Y916972D01*
X1320546Y946404D02*
X1322832Y948690D01*
X1320546Y942340D02*
Y946404D01*
X1398270Y948690D02*
X1413310D01*
X1322832D02*
X1398270D01*
X1281091Y969043D02*
Y973003D01*
X1283631Y970095D02*
Y974055D01*
X1372469Y984357D02*
X1383018Y994906D01*
X1372469Y983533D02*
Y984357D01*
X1370163Y981227D02*
X1372469Y983533D01*
X1369339Y981227D02*
X1370163D01*
X1368298Y980186D02*
X1369339Y981227D01*
X750259Y920371D02*
Y921436D01*
X747952Y918065D02*
X750259Y920371D01*
X740458Y921706D02*
X744017Y925265D01*
X731063Y926729D02*
Y930631D01*
X744017Y927191D02*
X748960Y932135D01*
X750259Y921436D02*
X752897Y924074D01*
X738937Y927369D02*
Y930515D01*
X736631Y925063D02*
X738937Y927369D01*
X746888Y918065D02*
X747952D01*
X740458Y865473D02*
Y921706D01*
X728980Y924646D02*
X731063Y926729D01*
X733817Y925063D02*
X736631D01*
X731063Y930631D02*
X733369Y932937D01*
X741477Y928244D02*
X744212Y930978D01*
X745816Y916993D02*
X746888Y918065D01*
X735035Y932937D02*
X736304Y934207D01*
X732917Y924163D02*
X733817Y925063D01*
X737918Y864421D02*
Y922758D01*
X741477Y926317D02*
Y928244D01*
X733369Y932937D02*
X735035D01*
X744017Y925265D02*
Y927191D01*
X738937Y930515D02*
X739740Y931318D01*
X737918Y922758D02*
X741477Y926317D01*
X790369Y919937D02*
X796063D01*
X777247Y906688D02*
Y906815D01*
X765937Y895378D02*
X777247Y906688D01*
X765937Y890369D02*
Y895378D01*
X768477Y892477D02*
X792000Y916000D01*
X766665Y880602D02*
Y887505D01*
X764125Y888558D02*
X765937Y890369D01*
X764125Y879550D02*
Y888558D01*
X771017Y890170D02*
X784784Y903937D01*
X766665Y887505D02*
X768477Y889317D01*
X769205Y886453D02*
X771017Y888265D01*
X768477Y889317D02*
Y892477D01*
X771017Y888265D02*
Y890170D01*
X769205Y881654D02*
Y886453D01*
X750885Y868293D02*
X762000Y857178D01*
X750620Y862960D02*
X750651D01*
X759460Y854150D01*
X750698Y868293D02*
X750885D01*
X752897Y924074D02*
Y947207D01*
X745816Y863707D02*
Y916993D01*
X739740Y931318D02*
Y934640D01*
X744212Y941088D02*
X745076Y941952D01*
X739740Y934640D02*
X740275Y935175D01*
X744212Y930978D02*
Y941088D01*
X745912Y961108D02*
X817868D01*
X736304Y934207D02*
Y936773D01*
X742535Y943004D02*
Y947981D01*
X746854Y958458D02*
X820786D01*
X723900Y811703D02*
Y935504D01*
X726440Y932476D02*
X738598Y944634D01*
X723900Y935504D02*
X746854Y958458D01*
X721360Y936556D02*
X745912Y961108D01*
X721360Y810651D02*
Y936556D01*
X726440Y848925D02*
Y932476D01*
X736304Y936773D02*
X742535Y943004D01*
X732917Y865830D02*
Y924163D01*
X743730Y688699D02*
X748121Y684308D01*
X740458Y865473D02*
X743730Y862201D01*
X737918Y864421D02*
X741190Y861149D01*
Y687647D02*
X744873Y683964D01*
X748960Y932135D02*
Y941314D01*
X728980Y866175D02*
X736110Y859045D01*
X728980Y866175D02*
Y924646D01*
X742535Y947981D02*
X749722Y955167D01*
X745076Y941952D02*
Y944953D01*
X752897Y947207D02*
X752983Y947293D01*
X749722Y955167D02*
X807966D01*
X745076Y944953D02*
X748978Y948856D01*
X731985Y610537D02*
Y617893D01*
Y610537D02*
X740945Y601577D01*
X752983Y947293D02*
Y949051D01*
X756559Y952627D02*
X806914D01*
X752983Y949051D02*
X756559Y952627D01*
X892311Y928674D02*
Y929465D01*
X893369Y918937D02*
Y919989D01*
X885175Y929942D02*
Y930698D01*
X877106Y920759D02*
X882878Y926531D01*
X893248Y920110D02*
Y922974D01*
X888777Y925140D02*
X892311Y928674D01*
X882878Y927645D02*
X885175Y929942D01*
X888777Y923823D02*
Y925140D01*
X888000Y923047D02*
X888777Y923823D01*
X883937Y922576D02*
X886237Y924875D01*
X882878Y926531D02*
Y927645D01*
X892063Y914369D02*
Y917631D01*
X889771Y929726D02*
Y938031D01*
X886237Y924875D02*
Y926192D01*
X892063Y917631D02*
X893369Y918937D01*
X893372Y910939D02*
Y913061D01*
X892063Y914369D02*
X893372Y913061D01*
X886237Y926192D02*
X889771Y929726D01*
X892714Y923509D02*
X893248Y922974D01*
Y920110D02*
X893369Y919989D01*
X1085685Y771727D02*
X1086093Y771319D01*
X1004015Y772033D02*
X1004321Y771727D01*
X1085685D01*
X1013460Y775970D02*
X1037763D01*
X1084266Y781633D02*
X1092040Y773859D01*
X1037763Y775970D02*
X1043427Y781633D01*
X1084266D01*
X1086093Y771319D02*
X1166701D01*
X1332230Y605790D01*
X1092040Y773859D02*
X1167753D01*
X1334770Y606842D01*
X1007991Y777230D02*
X1010742Y779981D01*
X1038182D02*
X1043154Y784953D01*
X1037442Y787493D02*
X1065662D01*
X1032470Y782521D02*
X1037442Y787493D01*
X1065662D02*
X1066662Y788493D01*
X1070594Y784953D02*
X1071594Y785953D01*
X1003484Y782521D02*
X1032470D01*
X1010742Y779981D02*
X1038182D01*
X1043154Y784953D02*
X1070594D01*
X1071594Y785953D02*
X1162227D01*
X767337Y799668D02*
X773953Y793052D01*
X776732Y786840D02*
X841140Y722432D01*
X776732Y802634D02*
X780937Y806839D01*
X776732Y786840D02*
Y802634D01*
X783477Y805787D02*
Y819477D01*
X779272Y787892D02*
Y801582D01*
X781000Y831191D02*
Y832461D01*
Y831191D02*
X781033Y831158D01*
Y828102D02*
Y831158D01*
X765532Y822493D02*
Y825868D01*
Y822493D02*
X767337Y820687D01*
Y799668D02*
Y820687D01*
X781033Y828102D02*
X781568Y827568D01*
X783477Y819477D02*
X792000Y828000D01*
X780937Y806839D02*
Y821369D01*
X786505Y826937D01*
X762257Y829777D02*
Y847135D01*
X757912Y828664D02*
Y829025D01*
X765532Y825868D02*
X767337Y827673D01*
X760452Y827972D02*
X762257Y829777D01*
X762992Y826920D02*
X764797Y828725D01*
X757912Y829025D02*
X759717Y830829D01*
X779272Y801582D02*
X783477Y805787D01*
X764797Y828725D02*
Y848187D01*
X762992Y826560D02*
Y826920D01*
X756983Y827735D02*
X757912Y828664D01*
X762063Y825631D02*
X762992Y826560D01*
X759523Y826683D02*
X760452Y827612D01*
Y827972D01*
X767337Y827673D02*
Y849239D01*
X759717Y830829D02*
Y845823D01*
X773000Y833327D02*
X777063Y837390D01*
X786505Y836345D02*
X787477Y837317D01*
X786505Y843655D02*
X787477Y842683D01*
X783965Y842603D02*
X784937Y841631D01*
X783965Y842603D02*
Y853125D01*
X787477Y837317D02*
Y842683D01*
X783965Y835426D02*
Y837397D01*
X784937Y838369D01*
X769620Y859948D02*
X778937Y850631D01*
X786505Y843655D02*
Y852073D01*
X784937Y838369D02*
Y841631D01*
X777063Y843073D02*
X778937Y844947D01*
X786505Y826937D02*
Y836345D01*
X778937Y844947D02*
Y850631D01*
X777063Y837390D02*
Y843073D01*
X899540Y669052D02*
X902080Y666512D01*
X901989Y632137D02*
X902080Y632229D01*
X901989Y588991D02*
X968403Y522577D01*
X902080Y632229D02*
Y666512D01*
X901989Y588991D02*
Y632137D01*
X899449Y630000D02*
Y647684D01*
X899540Y647776D01*
Y665460D01*
X872000Y763000D02*
Y772000D01*
X897000Y668000D02*
Y690000D01*
Y668000D02*
X899540Y665460D01*
X891937Y695063D02*
X897000Y690000D01*
X899540Y669052D02*
Y695798D01*
X897000Y654568D02*
Y664408D01*
X886305Y679240D02*
X894460Y671085D01*
Y666948D02*
Y671085D01*
Y666948D02*
X897000Y664408D01*
X891937Y695063D02*
Y730631D01*
X891000Y731568D02*
X891937Y730631D01*
X891000Y731568D02*
Y743993D01*
X893540Y732620D02*
Y745900D01*
X894477Y700861D02*
Y731683D01*
Y700861D02*
X899540Y695798D01*
X893540Y732620D02*
X894477Y731683D01*
X900618Y701904D02*
X918492Y684030D01*
X900618Y701904D02*
Y714853D01*
X898078Y700852D02*
X909320Y689610D01*
X898078Y700852D02*
Y704662D01*
X886920Y748073D02*
Y749215D01*
Y748073D02*
X891000Y743993D01*
X879947Y756188D02*
X886920Y749215D01*
X878812Y756188D02*
X879947D01*
X897477Y741864D02*
X897972Y741369D01*
X889460Y749980D02*
Y750267D01*
Y749980D02*
X893540Y745900D01*
X885381Y754347D02*
Y778372D01*
X872000Y763000D02*
X878812Y756188D01*
X885381Y754347D02*
X889460Y750267D01*
X896950Y755050D02*
X902970Y749030D01*
Y748030D02*
Y749030D01*
X889711Y757678D02*
X892339Y755050D01*
X889711Y757678D02*
Y768414D01*
X892339Y755050D02*
X896950D01*
X878364Y743636D02*
X878461Y743733D01*
X868063Y770153D02*
X869460Y768756D01*
Y756540D02*
X873000Y753000D01*
X869460Y756540D02*
Y768756D01*
X868063Y770153D02*
Y784063D01*
X978817Y521053D02*
Y632320D01*
X928631Y666937D02*
X930937Y664631D01*
X909320Y685275D02*
X927658Y666937D01*
X930937Y663658D02*
Y664631D01*
Y663658D02*
X956232Y638363D01*
X927658Y666937D02*
X928631D01*
X938220Y672917D02*
Y673348D01*
Y672917D02*
X978817Y632320D01*
X927538Y684030D02*
X938220Y673348D01*
X1349165Y650177D02*
X1390076Y691088D01*
X1339676Y650177D02*
X1349165D01*
X1341040Y654381D02*
X1341307Y654114D01*
X1336011Y653842D02*
X1339676Y650177D01*
X1332346Y658446D02*
X1336011Y654781D01*
X1299210Y677692D02*
X1329265Y647637D01*
X1350217D02*
X1391128Y688548D01*
X1329265Y647637D02*
X1350217D01*
X1336011Y653842D02*
Y654781D01*
X1341040Y654381D02*
Y679151D01*
X1324024Y658446D02*
X1332346D01*
X1303020Y679450D02*
X1324024Y658446D01*
X1303020Y679450D02*
Y688534D01*
X1303147Y688661D01*
X1425992Y525780D02*
X1538750D01*
X1066662Y788493D02*
X1163279D01*
X1425992Y525780D01*
X1162227Y785953D02*
X1528853Y419328D01*
Y403326D02*
Y419328D01*
X1208786Y541782D02*
Y578868D01*
X1198404Y589250D02*
X1208786Y578868D01*
X1233976Y603714D02*
X1243203Y594487D01*
X1229991Y603714D02*
X1233976D01*
X974090Y588369D02*
Y625162D01*
X956232Y638363D02*
X960889D01*
X974090Y625162D01*
X889063Y656369D02*
Y659631D01*
X890937Y661505D02*
Y671016D01*
X889063Y659631D02*
X890937Y661505D01*
Y652097D02*
Y654495D01*
X889063Y656369D02*
X890937Y654495D01*
X891063Y648631D02*
X897000Y654568D01*
X888523Y649683D02*
X890937Y652097D01*
X891063Y536063D02*
Y648631D01*
X883765Y678188D02*
X890937Y671016D01*
X891000Y536000D02*
X891063Y536063D01*
X888523Y604242D02*
Y649683D01*
X887063Y602782D02*
X888523Y604242D01*
X886305Y679240D02*
Y725127D01*
X883765Y678188D02*
Y720000D01*
X887063Y534807D02*
Y602782D01*
X883750Y531494D02*
X887063Y534807D01*
X876198Y727568D02*
X883765Y720000D01*
X884063Y727369D02*
X886305Y725127D01*
X873494Y531494D02*
X883750D01*
X918210Y699810D02*
X935480Y682540D01*
X932863Y695933D02*
X938636Y690160D01*
X937584Y687620D02*
X940338D01*
X938636Y690160D02*
X941390D01*
X920750Y700862D02*
X936532Y685080D01*
X939286D01*
X920750Y700862D02*
Y703707D01*
X918210Y699810D02*
Y700810D01*
X930064Y695140D02*
Y698075D01*
X932863Y695933D02*
Y699525D01*
X930064Y695140D02*
X937584Y687620D01*
X935480Y682540D02*
X938234D01*
X915694Y703326D02*
X918210Y700810D01*
X912211Y706678D02*
X915563Y703326D01*
X912211Y706678D02*
Y706762D01*
X915563Y703326D02*
X915694D01*
X884063Y727369D02*
Y730631D01*
X872000Y530000D02*
X873494Y531494D01*
X876000Y727568D02*
X876198D01*
X884063Y779690D02*
X885381Y778372D01*
X875156Y765019D02*
Y769161D01*
X876000Y770005D01*
X875156Y765019D02*
X880050Y760125D01*
X880602D01*
X884063Y779690D02*
Y808063D01*
X897725Y729820D02*
Y732730D01*
X898555Y733560D02*
Y735690D01*
X897972Y741369D02*
X901199D01*
X898555Y735690D02*
X899089Y736224D01*
X901199Y741369D02*
X907937Y734631D01*
X897725Y732730D02*
X898555Y733560D01*
X841140Y722432D02*
X864432D01*
X929640Y702749D02*
X932863Y699525D01*
X929640Y702749D02*
Y707080D01*
X917656Y706801D02*
X920750Y703707D01*
X917656Y706801D02*
Y707080D01*
X855893Y667675D02*
Y691794D01*
Y667675D02*
X859937Y663631D01*
X854032Y841690D02*
Y856401D01*
X852063Y839722D02*
X854032Y841690D01*
X852063Y834495D02*
Y839722D01*
X893970Y759309D02*
X897650Y762989D01*
X893970Y758987D02*
Y759309D01*
X915937Y767812D02*
X918683Y765066D01*
X915937Y767812D02*
Y808063D01*
X918683Y764989D02*
Y765066D01*
X851937Y858495D02*
Y874369D01*
X851937Y874369D01*
Y887937D01*
X851937Y858495D02*
X854032Y856401D01*
X851937Y887937D02*
X856000Y892000D01*
X859937Y834675D02*
Y874369D01*
X861764Y876197D01*
X918492Y684030D02*
X927538D01*
X859937Y623569D02*
X867925Y615581D01*
X859937Y623569D02*
Y663631D01*
X941390Y690160D02*
X941940Y689610D01*
X939836Y684530D02*
X1042670D01*
X940338Y687620D02*
X940888Y687070D01*
X939286Y685080D02*
X939836Y684530D01*
X938234Y682540D02*
X938784Y681990D01*
X940888Y687070D02*
X1065530D01*
X1390202Y765616D02*
X1390506D01*
X1388110Y763524D02*
X1390202Y765616D01*
X764540Y852036D02*
X767337Y849239D01*
X762257Y818312D02*
Y818583D01*
X756983Y818598D02*
Y827735D01*
X762063Y822369D02*
Y825631D01*
X759523Y821317D02*
Y826683D01*
X760507Y816562D02*
X762257Y818312D01*
X764797Y817260D02*
Y819635D01*
X762063Y822369D02*
X764797Y819635D01*
X759523Y821317D02*
X762257Y818583D01*
X762000Y850984D02*
X764797Y848187D01*
X756983Y818598D02*
X757967Y817614D01*
X763047Y786948D02*
Y815510D01*
X760507Y785896D02*
Y816562D01*
X763047Y815510D02*
X764797Y817260D01*
X769620Y859948D02*
Y877647D01*
X784937Y874505D02*
X790369Y879937D01*
X784937Y858369D02*
Y874505D01*
X787477Y869045D02*
X790369Y871937D01*
X782631Y856063D02*
X784937Y858369D01*
X777063D02*
Y861631D01*
Y858369D02*
X779369Y856063D01*
X782631D01*
X776636Y861631D02*
X777063D01*
X775684Y860440D02*
X776440D01*
X790369Y879937D02*
X817505D01*
X783965Y853125D02*
X787477Y856637D01*
X776440Y860440D02*
X776636Y860636D01*
X787477Y856637D02*
Y869045D01*
X769205Y881654D02*
X781000Y869859D01*
Y860000D02*
Y869859D01*
X756027Y848129D02*
X757411D01*
X759717Y845823D01*
X754240Y849916D02*
X756027Y848129D01*
X753484Y849916D02*
X754240D01*
X767080Y857439D02*
X767942Y856577D01*
X749753Y878254D02*
X764540Y863467D01*
X767080Y857439D02*
Y876595D01*
X759460Y849932D02*
Y854150D01*
X767942Y854201D02*
Y856577D01*
Y854201D02*
X768477Y853667D01*
X759460Y849932D02*
X762257Y847135D01*
X762000Y850984D02*
Y857178D01*
X764540Y852036D02*
Y863467D01*
X781000Y832461D02*
X783965Y835426D01*
X790369Y855937D02*
X803937D01*
X808000Y860000D01*
X907937Y724418D02*
X908413Y724894D01*
X907937Y728631D02*
X908413Y728155D01*
X907937Y722172D02*
Y724418D01*
Y728631D02*
Y734631D01*
X908413Y724894D02*
Y728155D01*
X897725Y729820D02*
X899160Y728385D01*
Y725170D02*
Y728385D01*
X900618Y714853D02*
X907937Y722172D01*
X908190Y764126D02*
X912375Y759941D01*
X907914Y755430D02*
X913817Y749527D01*
X912375Y759941D02*
X912596D01*
X905948Y755430D02*
X907914D01*
X900190Y761188D02*
X905948Y755430D01*
X897890Y723900D02*
X899160Y725170D01*
X1024638Y534925D02*
X1054719D01*
X1106982Y586028D02*
Y591069D01*
X1123950Y583862D02*
X1144855Y604767D01*
X1119378Y582882D02*
X1142315Y605819D01*
X681317Y631355D02*
X702588Y652626D01*
Y652673D01*
X729445Y609485D02*
X738405Y600525D01*
X729445Y609485D02*
Y616841D01*
X566420Y617220D02*
Y645154D01*
Y617220D02*
X570709Y612932D01*
X581156Y596967D02*
X583531Y599342D01*
X595044D01*
X579940Y596967D02*
X581156D01*
X573523Y596383D02*
X576647Y599507D01*
X580104D01*
X575595Y602047D02*
X579052D01*
X581427Y604422D02*
X586552D01*
X582479Y601882D02*
X596118D01*
X579052Y602047D02*
X581427Y604422D01*
X580104Y599507D02*
X582479Y601882D01*
X576063Y593090D02*
X579940Y596967D01*
X570983Y597435D02*
X575595Y602047D01*
X580000Y632698D02*
Y633454D01*
Y627302D02*
X588825Y618477D01*
X592364Y612932D02*
X595369Y615937D01*
X598631D01*
X570709Y612932D02*
X592364D01*
X588825Y618477D02*
X600951D01*
X598631Y615937D02*
X605925Y608643D01*
X884063Y808063D02*
X888000Y812000D01*
X820000Y808000D02*
X836000D01*
X816000Y812000D02*
X820000Y808000D01*
X924687Y703453D02*
X930064Y698075D01*
X924687Y703453D02*
Y703580D01*
X1007921Y741685D02*
X1009813Y743577D01*
X1007921Y741172D02*
Y741685D01*
X981710Y763787D02*
Y845038D01*
Y751216D02*
Y756357D01*
X980047Y758020D02*
Y762124D01*
X981710Y763787D01*
X980047Y758020D02*
X981710Y756357D01*
X1009632Y724030D02*
Y725082D01*
X1007100Y725826D02*
X1008888D01*
X1009632Y725082D01*
X1598028Y818000D02*
X1619000D01*
X1502028Y914000D02*
X1598028Y818000D01*
X1448000Y914000D02*
X1502028D01*
X1496216Y933960D02*
X1582176Y848000D01*
X1606000D01*
X1413310Y948690D02*
X1448000Y914000D01*
X1472942Y933960D02*
X1496216D01*
X761049Y746951D02*
X761385D01*
X764286Y743714D02*
Y744049D01*
X761385Y746951D02*
X764286Y744049D01*
X765254Y731620D02*
Y742746D01*
X757229Y750771D02*
Y762723D01*
Y750771D02*
X761049Y746951D01*
X764286Y743714D02*
X765254Y742746D01*
X759587Y725952D02*
X765254Y731620D01*
X765810Y681554D02*
X772331Y675033D01*
X765810Y728583D02*
X767794Y730567D01*
X770890Y683658D02*
Y726479D01*
X772033Y731214D02*
Y777962D01*
X770890Y726479D02*
X774573Y730162D01*
X768350Y727531D02*
X772033Y731214D01*
X765810Y681554D02*
Y728583D01*
X767794Y730567D02*
Y761275D01*
X764159Y764911D02*
X767794Y761275D01*
X768350Y682606D02*
Y727531D01*
X774573Y730162D02*
Y785407D01*
X759587Y684185D02*
X771279Y672493D01*
X759587Y684185D02*
Y725952D01*
X768350Y682606D02*
X773383Y677573D01*
X770890Y683658D02*
X774435Y680113D01*
X1322595Y684889D02*
X1327764Y690058D01*
X760507Y785896D02*
X763270Y783133D01*
X773953Y786027D02*
Y793052D01*
X763047Y786948D02*
X772033Y777962D01*
X755650Y788839D02*
X757967Y791156D01*
Y817614D01*
X755650Y764303D02*
Y788839D01*
X763270Y778454D02*
Y783133D01*
X773953Y786027D02*
X774573Y785407D01*
X558419Y746419D02*
X569595Y757595D01*
Y784459D01*
X572047Y797052D02*
X574948Y799953D01*
X572047Y795440D02*
Y797052D01*
X522415Y745808D02*
X572047Y795440D01*
X574948Y799953D02*
X576560D01*
X577977Y801370D01*
X561293Y863732D02*
Y921874D01*
Y863732D02*
X563065Y861961D01*
X608265Y941135D02*
X612140Y937260D01*
X657690Y931896D02*
Y940340D01*
X657787Y940437D01*
X581953Y792948D02*
Y797052D01*
X569595Y784459D02*
X575183Y790047D01*
X579052D01*
X581953Y792948D01*
X580517Y798488D02*
Y851271D01*
Y798488D02*
X581953Y797052D01*
X522532Y807720D02*
X556260D01*
X529082Y800608D02*
X565404D01*
X558038Y803148D02*
X562610Y807720D01*
X527486Y803148D02*
X558038D01*
X629991Y397311D02*
X656977Y370325D01*
X629920Y397382D02*
X629991Y397311D01*
X629920Y397382D02*
X630062D01*
X624063Y696937D02*
X628000Y693000D01*
X631063Y704977D02*
X631317Y704723D01*
X631063Y704977D02*
Y752876D01*
X635000Y736600D02*
X666623Y768223D01*
X595047Y773653D02*
X599440Y778046D01*
X595047Y728948D02*
Y773653D01*
X599440Y778046D02*
Y822750D01*
X607060Y738129D02*
Y819594D01*
X601980Y821698D02*
X622427Y842145D01*
X601980Y725975D02*
X604953Y728948D01*
X601980Y736025D02*
Y821698D01*
X597389Y722179D02*
Y726607D01*
X601980Y736025D02*
X604953Y733052D01*
X604520Y737077D02*
Y820646D01*
X604953Y728948D02*
Y733052D01*
X601980Y721180D02*
Y725975D01*
X595047Y728948D02*
X597389Y726607D01*
X601980Y721180D02*
X603477Y719683D01*
X606017Y679821D02*
Y695046D01*
X603776Y677580D02*
X606017Y679821D01*
X607060Y819594D02*
X651817Y864351D01*
X604520Y820646D02*
X624967Y841093D01*
X678688Y714248D02*
X692150D01*
X595044Y598144D02*
X596851Y596337D01*
X596118Y601882D02*
X604000Y594000D01*
X595044Y598144D02*
Y599342D01*
X596851Y595581D02*
Y596337D01*
X590980Y607580D02*
X592025Y606535D01*
X589710Y607580D02*
X590980D01*
X586552Y604422D02*
X589710Y607580D01*
X592025Y606535D02*
X594465D01*
X595000Y606000D01*
X632074Y609600D02*
X652780D01*
X605925Y608643D02*
X631117D01*
X632074Y609600D01*
X652780D02*
X664523Y597857D01*
X766024Y615875D02*
X766846D01*
X763718Y618181D02*
Y619003D01*
Y618181D02*
X766024Y615875D01*
X766846D02*
X767207Y615514D01*
X748121Y634600D02*
X763718Y619003D01*
X794265Y540122D02*
Y639055D01*
X794788Y639578D01*
X791725Y539070D02*
Y640107D01*
X794265Y645467D02*
Y653099D01*
X796805Y638003D02*
X797328Y638526D01*
X796805Y541174D02*
Y638003D01*
X797328Y638526D02*
Y645996D01*
X794265Y645467D02*
X794788Y644944D01*
X791725Y644415D02*
X792248Y643892D01*
X791725Y640107D02*
X792248Y640630D01*
X794788Y639578D02*
Y644944D01*
X796805Y646519D02*
X797328Y645996D01*
X791725Y644415D02*
Y652047D01*
X792248Y640630D02*
Y643892D01*
X796805Y646519D02*
Y654151D01*
X772414Y535772D02*
Y661409D01*
X773953Y662948D02*
Y667052D01*
X746270Y693910D02*
X770227Y669953D01*
X779033Y668331D02*
X794265Y653099D01*
X784113Y670435D02*
Y671260D01*
X774208Y677573D02*
X781573Y670208D01*
X772331Y675033D02*
X773156D01*
X771279Y672493D02*
X772104D01*
X770227Y669953D02*
X771052D01*
X773953Y667052D01*
X773156Y675033D02*
X779033Y669156D01*
X773383Y677573D02*
X774208D01*
X781573Y669383D02*
Y670208D01*
Y669383D02*
X796805Y654151D01*
X774435Y680113D02*
X775260D01*
X776493Y667279D02*
Y668104D01*
Y667279D02*
X791725Y652047D01*
X772104Y672493D02*
X776493Y668104D01*
X775260Y680113D02*
X784113Y671260D01*
Y670435D02*
X817125Y637423D01*
X779033Y668331D02*
Y669156D01*
X772414Y661409D02*
X773953Y662948D01*
X702063Y607669D02*
Y611793D01*
X702542Y612272D01*
X696040Y601646D02*
X702063Y607669D01*
X696040Y585584D02*
Y601646D01*
X681317Y620357D02*
Y631355D01*
X605028Y622554D02*
Y632404D01*
X577840Y635614D02*
Y690752D01*
X581406Y694318D01*
X562356Y722376D02*
X571443Y713289D01*
Y687650D02*
Y713289D01*
X581406Y694318D02*
Y732790D01*
X571443Y687650D02*
X572698Y686395D01*
Y660000D02*
Y686395D01*
X577840Y635614D02*
X580000Y633454D01*
X600951Y618477D02*
X605028Y622554D01*
X664718Y601254D02*
X667063Y598909D01*
X664523Y567377D02*
X670099Y561801D01*
X667063Y575195D02*
Y598909D01*
X664523Y567377D02*
Y597857D01*
X667063Y575195D02*
X676520Y565738D01*
X696040Y585584D02*
X696190Y585434D01*
X598420Y677580D02*
X603776D01*
X595000Y681000D02*
X598420Y677580D01*
X590962Y693098D02*
X592006D01*
X876000Y770005D02*
Y789568D01*
X950047Y839953D02*
Y845467D01*
X939569Y846211D02*
X949303D01*
X950047Y839953D02*
X956000Y834000D01*
X949303Y846211D02*
X950047Y845467D01*
X964507Y926104D02*
X965200Y926797D01*
X967047Y920948D02*
Y925052D01*
Y920948D02*
X967740Y920255D01*
Y925745D02*
Y935246D01*
X965200Y926797D02*
Y932180D01*
X958723Y914715D02*
X964507Y920499D01*
X967047Y925052D02*
X967740Y925745D01*
Y908050D02*
Y920255D01*
X964507Y920499D02*
Y926104D01*
X981710Y751216D02*
X1007100Y725826D01*
X1014974Y720334D02*
Y751596D01*
X1010920Y716280D02*
X1014974Y720334D01*
X1003173Y763397D02*
X1014974Y751596D01*
X1004225Y765937D02*
X1017514Y752648D01*
X1013968Y715010D02*
X1017514Y718556D01*
Y752648D01*
X1011837Y849146D02*
X1012194Y849503D01*
X1098635Y844635D02*
X1143000Y889000D01*
X1010477Y844635D02*
X1098635D01*
X1012194Y849503D02*
X1066004D01*
X1008848Y843005D02*
X1010477Y844635D01*
X1066004Y849503D02*
X1105501Y889000D01*
X840503Y950146D02*
X840623Y950026D01*
X840503Y950146D02*
Y961136D01*
X778383Y968756D02*
Y969264D01*
X777562Y965862D02*
Y967935D01*
X778383Y968756D01*
X777028Y965327D02*
X777562Y965862D01*
X813751Y944753D02*
X816418Y947420D01*
X806914Y952627D02*
X809042Y950499D01*
X812314D02*
X814620Y952806D01*
X763270Y948690D02*
X767207Y944753D01*
X814620Y952985D02*
X815909Y954274D01*
X817470Y944880D02*
X822566D01*
X807966Y955167D02*
X808162Y954971D01*
X810148D01*
X809042Y950499D02*
X812314D01*
X807905Y948044D02*
X807915D01*
X814803Y942213D02*
X817470Y944880D01*
X808000Y947959D02*
X813366D01*
X762127Y942213D02*
X814803D01*
X813366Y947959D02*
X815366Y949960D01*
X767207Y944753D02*
X813751D01*
X810148Y954971D02*
X810683Y954436D01*
X816418Y947420D02*
X830580D01*
X814620Y952806D02*
Y952985D01*
X815366Y949960D02*
X831850D01*
X756920Y947420D02*
X762127Y942213D01*
X807915Y948044D02*
X808000Y947959D01*
X867410Y916978D02*
X873820Y923387D01*
X874167D01*
X877106Y918674D02*
Y920759D01*
X865523Y788523D02*
X869000Y792000D01*
X873568D01*
X865523Y768771D02*
Y788523D01*
X873568Y792000D02*
X875937Y794369D01*
Y794549D01*
X876063Y794675D01*
X892681Y792063D02*
X900063D01*
X891937Y791319D02*
X892681Y792063D01*
X891937Y770640D02*
Y791319D01*
X876000Y789568D02*
X879465Y793033D01*
X861764Y886172D02*
X862858Y887266D01*
X861764Y876197D02*
Y886172D01*
X862858Y890858D02*
X872000Y900000D01*
X862858Y887266D02*
Y890858D01*
X949310Y855937D02*
X955817Y849430D01*
Y849170D02*
Y849430D01*
X920720Y843280D02*
X941152D01*
X954369Y830063D01*
X957631D01*
X965631Y838063D02*
X966333D01*
X957631Y830063D02*
X965631Y838063D01*
X966333D02*
X995680Y867410D01*
X924063Y831937D02*
X937568D01*
X939874Y829388D02*
X945419Y823843D01*
X937568Y831937D02*
X939874Y829631D01*
Y829388D02*
Y829631D01*
X942414Y830440D02*
X954889Y817965D01*
X938620Y834477D02*
X942414Y830683D01*
Y830440D02*
Y830683D01*
X937973Y834477D02*
X938620D01*
X924744Y816063D02*
X929325D01*
X924000Y816807D02*
Y822000D01*
Y816807D02*
X924744Y816063D01*
X929393Y824063D02*
X931847Y821609D01*
X929325Y824063D02*
X929393D01*
X931847Y818459D02*
Y821609D01*
X929325Y816063D02*
X931870Y813518D01*
X921937Y824063D02*
X924000Y822000D01*
X931870Y810436D02*
Y813518D01*
X915937Y824063D02*
X921937D01*
X952989Y809259D02*
X956250D01*
X950683Y811565D02*
X952989Y809259D01*
X945419Y817368D02*
X950683Y812104D01*
X954620Y813196D02*
X954889Y813465D01*
X956250Y809259D02*
X956520Y809528D01*
X954889Y813465D02*
Y817965D01*
X950683Y811565D02*
Y812104D01*
X956520Y809528D02*
X967332D01*
X942879Y814852D02*
X957019Y800711D01*
X1562457Y628740D02*
Y641773D01*
X1555008Y621291D02*
X1562457Y628740D01*
X1558639Y645591D02*
X1562457Y641773D01*
X1313668Y914527D02*
X1314519D01*
X1310767Y917428D02*
X1313668Y914527D01*
X1310767Y917428D02*
Y918279D01*
X1282896Y946150D02*
X1310767Y918279D01*
X1256066Y946150D02*
X1282896D01*
X1268540Y840943D02*
X1293876Y815607D01*
X1268540Y840943D02*
Y902637D01*
X1314577Y732721D02*
Y814442D01*
X1317117Y733773D02*
Y815494D01*
X1274323Y880405D02*
X1275855Y881936D01*
Y907646D01*
X1266000Y839891D02*
X1286304Y819587D01*
Y803501D02*
Y819587D01*
X1270287Y909952D02*
X1273549D01*
X1275855Y907646D01*
X1274323Y854696D02*
Y880405D01*
X1266000Y905665D02*
X1270287Y909952D01*
X1258570Y802640D02*
X1263460Y807530D01*
X1276863Y855748D02*
Y879353D01*
X1250950Y883158D02*
X1263460Y870648D01*
X1266000Y839891D02*
Y905665D01*
X1276863Y879353D02*
X1278395Y880884D01*
Y908698D01*
X1274323Y854696D02*
X1314577Y814442D01*
X1276863Y855748D02*
X1317117Y815494D01*
X1263460Y807530D02*
Y870648D01*
X1265321Y912492D02*
X1274601D01*
X1278395Y908698D01*
X1259212Y906383D02*
X1265321Y912492D01*
X1293876Y798596D02*
Y815607D01*
Y798596D02*
X1306830Y785642D01*
X1271568Y798703D02*
X1273727Y796544D01*
X1236439Y798703D02*
X1271568D01*
X1234171Y800971D02*
X1236439Y798703D01*
X1234171Y800971D02*
Y897571D01*
X1273727Y796544D02*
X1290592D01*
X1291336Y783590D02*
Y795800D01*
X1290592Y796544D02*
X1291336Y795800D01*
X1229091Y795184D02*
Y870602D01*
X1231631Y796236D02*
Y871654D01*
X1263282Y788512D02*
X1275405Y776389D01*
X1266000Y768100D02*
Y777505D01*
X1238302Y785972D02*
X1257533D01*
X1223310Y797372D02*
X1252220Y768462D01*
X1239354Y788512D02*
X1263282D01*
X1252220Y756480D02*
Y768462D01*
X1257533Y785972D02*
X1266000Y777505D01*
X1229091Y795184D02*
X1238302Y785972D01*
X1231631Y796236D02*
X1239354Y788512D01*
X1275405Y758695D02*
Y776389D01*
X1223310Y797372D02*
Y872790D01*
X1132050Y909967D02*
X1193318D01*
X1195453Y904240D02*
X1229091Y870602D01*
X1193318Y909967D02*
X1231631Y871654D01*
X1210356Y921386D02*
X1234171Y897571D01*
X1080552Y904240D02*
X1195453D01*
X1194401Y901700D02*
X1223310Y872790D01*
X1079500Y901700D02*
X1194401D01*
X1252220Y756480D02*
X1266000Y742700D01*
X1275405Y758695D02*
X1291400Y742700D01*
X1300734Y774192D02*
X1300805D01*
Y738804D02*
Y774192D01*
X1291336Y783590D02*
X1300734Y774192D01*
X1402588Y737997D02*
Y778784D01*
X1406525Y754016D02*
Y780415D01*
X1376680Y810260D02*
X1406525Y780415D01*
X1376680Y810260D02*
Y810260D01*
X1382680Y767461D02*
Y783452D01*
X1354550Y860723D02*
X1355699Y859574D01*
X1498243Y759202D02*
Y759432D01*
X1518534Y713232D02*
X1566032Y760730D01*
X1607820Y741680D02*
Y741680D01*
X1566032Y760730D02*
X1605280D01*
X1612900Y753110D01*
Y746760D02*
Y753110D01*
X1607820Y741680D02*
X1612900Y746760D01*
X1472818Y710692D02*
X1566672D01*
X1606550Y750570D01*
X1584452Y708152D02*
X1607820Y731520D01*
X1446136Y708152D02*
X1584452D01*
X1494790Y725170D02*
X1498243Y728623D01*
X1442901Y767527D02*
X1493259Y717169D01*
X1442640Y767527D02*
X1442901D01*
X1493259Y717169D02*
X1493520D01*
X1442560Y740950D02*
X1472818Y710692D01*
X1442640Y711647D02*
X1446136Y708152D01*
X1442640Y754239D02*
X1483647Y713232D01*
X1518534D01*
X1476859Y780816D02*
X1498243Y759432D01*
X1528154Y837038D02*
X1528201Y837085D01*
X1513616Y822500D02*
X1524388Y833271D01*
Y834137D02*
X1527289Y837038D01*
X1528154D01*
X1524388Y833271D02*
Y834137D01*
X1528201Y837085D02*
X1530993D01*
X1544320Y850412D02*
Y859662D01*
X1470000Y822500D02*
X1513616D01*
X1530993Y837085D02*
X1544320Y850412D01*
X1441793Y777409D02*
X1442240D01*
X1445648Y780816D01*
X1476859D01*
X1356783Y912622D02*
X1421780Y847625D01*
X1424320Y721758D02*
Y911736D01*
X1420642Y718080D02*
X1424320Y721758D01*
X1404219Y734060D02*
X1421780Y751621D01*
Y847625D01*
X1409650Y691088D02*
X1422669Y704108D01*
X1357090Y863584D02*
Y906747D01*
X1354550Y860723D02*
Y886728D01*
X1268540Y902637D02*
X1271918Y906015D01*
X680393Y974505D02*
X689024Y983135D01*
X674183Y974505D02*
X680393D01*
X663194Y963516D02*
X674183Y974505D01*
X678180Y906780D02*
X689737Y918337D01*
Y952838D01*
X689134Y953441D02*
X689737Y952838D01*
X689134Y953441D02*
Y961780D01*
X741300Y971042D02*
X751920Y981662D01*
X904103Y982061D02*
Y985891D01*
X903996Y981954D02*
X904103Y982061D01*
X883734Y977045D02*
Y989934D01*
X887603Y993803D02*
Y994771D01*
X889909Y997077D01*
X890877D02*
X911100Y1017300D01*
X889909Y997077D02*
X890877D01*
X883734Y989934D02*
X887603Y993803D01*
X904103Y985891D02*
X914092Y995880D01*
X923664Y997016D02*
Y1029864D01*
X923410Y995800D02*
Y997016D01*
X906780Y979170D02*
X923410Y995800D01*
X914092Y995880D02*
X917140D01*
X921378Y1000118D01*
X906780Y962660D02*
Y979170D01*
X902970Y958850D02*
X906780Y962660D01*
X904601Y954913D02*
X906907Y957219D01*
X909882Y960682D02*
Y975643D01*
X901700Y952500D02*
X904601Y954913D01*
X906907Y957219D02*
X909882Y960682D01*
Y975643D02*
X925950Y991711D01*
X1007836Y845586D02*
X1009946Y847696D01*
X1013577Y869526D02*
X1016839D01*
X1029723Y877322D02*
X1041400Y889000D01*
X1008731Y868272D02*
X1017781Y877322D01*
X1029723D01*
X1040916Y878840D02*
X1044541D01*
X1002787Y860547D02*
X1008731Y866491D01*
X991870Y833205D02*
X1001671Y843005D01*
X1044541Y878840D02*
X1054701Y889000D01*
X1030755Y868680D02*
X1040916Y878840D01*
X1005327Y859495D02*
X1011271Y865439D01*
X1009946Y847696D02*
X1010213D01*
X1000659Y845586D02*
X1007836D01*
X1001671Y843005D02*
X1008848D01*
X1008731Y866491D02*
Y868272D01*
X991870Y776804D02*
Y833205D01*
X1016839Y869526D02*
X1017685Y868680D01*
X1011271Y867220D02*
X1013577Y869526D01*
X1011271Y865439D02*
Y867220D01*
X989330Y834257D02*
X1000659Y845586D01*
X1017685Y868680D02*
X1030755D01*
X989330Y775752D02*
Y834257D01*
X824495Y1005670D02*
Y1029595D01*
X833311Y1004050D02*
X855980Y981382D01*
X824495Y1005670D02*
X826115Y1004050D01*
X833311D01*
X822500Y1000125D02*
X830723D01*
X829671Y997585D02*
X831977Y995279D01*
X852238Y967957D02*
Y978527D01*
X830723Y1000125D02*
X834517Y996331D01*
X831977Y994823D02*
Y995279D01*
X814915Y997585D02*
X829671D01*
X834517Y996248D02*
Y996331D01*
Y996248D02*
X852238Y978527D01*
X821168Y1001457D02*
Y1028733D01*
Y1001457D02*
X822500Y1000125D01*
X831977Y994823D02*
X833682Y993118D01*
Y967957D02*
Y993118D01*
X809500Y1003000D02*
Y1017300D01*
Y1003000D02*
X814915Y997585D01*
X828040Y968979D02*
Y974912D01*
X827842Y975110D02*
X828040Y974912D01*
X819155Y962395D02*
X821456D01*
X828040Y968979D01*
X833682Y967957D02*
X835589Y966050D01*
X824495Y1029595D02*
X834900Y1040000D01*
Y1042700D01*
X820424Y1029477D02*
X821168Y1028733D01*
X796277Y1029477D02*
X820424D01*
X855980Y965200D02*
Y981382D01*
X784100Y1017300D02*
X796277Y1029477D01*
X873205Y998930D02*
Y1029795D01*
X880178Y965947D02*
Y1008107D01*
X873205Y998930D02*
X877638Y994497D01*
X860300Y1042700D02*
X873205Y1029795D01*
X880178Y1008107D02*
X885700Y1013629D01*
X883734Y977045D02*
X884115Y976664D01*
X885700Y1013629D02*
Y1017300D01*
X880178Y965947D02*
X883046Y963080D01*
X883885D01*
X868860Y955040D02*
X882400D01*
X888750Y961390D01*
X869801Y960120D02*
X877638Y967957D01*
Y994497D01*
X888750Y961390D02*
X895658D01*
X883885Y963080D02*
X884469Y962496D01*
X1251650Y950566D02*
Y979740D01*
Y950566D02*
X1256066Y946150D01*
X1024001Y955040D02*
X1120840D01*
X1010011Y959941D02*
X1011968Y961898D01*
X1024159D01*
X1010405Y955013D02*
X1014750Y959358D01*
X1074358D01*
X1197805Y953218D02*
Y999205D01*
X1019556Y951484D02*
X1142684D01*
X932759Y948944D02*
X1193531D01*
X1023620Y955421D02*
X1024001Y955040D01*
X1193531Y948944D02*
X1197805Y953218D01*
X1074358Y959358D02*
X1086800Y971800D01*
X1024159Y961898D02*
X1034061Y971800D01*
X1016000Y955040D02*
X1019556Y951484D01*
X1228141Y1003249D02*
X1251650Y979740D01*
X470744Y445000D02*
X521978D01*
X470000Y445744D02*
X470744Y445000D01*
X470000Y470000D02*
X482600Y482600D01*
X470000Y445744D02*
Y470000D01*
X521978Y445000D02*
X545057Y468080D01*
X710000Y314960D02*
X792480D01*
X705247Y319713D02*
X710000Y314960D01*
X700900Y324060D02*
X705247Y319713D01*
X700900Y324060D02*
Y340233D01*
X798493Y347643D02*
X800100Y349250D01*
X770648Y319798D02*
X798493Y347643D01*
X857760Y362460D02*
X876300Y381000D01*
X918387Y357380D02*
X937641Y376634D01*
X798036Y357380D02*
X918387D01*
X778510Y384091D02*
X800141Y362460D01*
X781050Y385143D02*
X801193Y365000D01*
X775970Y383039D02*
X799089Y359920D01*
X773430Y381987D02*
Y506019D01*
X906020Y359920D02*
X927100Y381000D01*
X801193Y365000D02*
X855000D01*
X800141Y362460D02*
X857760D01*
X799089Y359920D02*
X906020D01*
X778510Y384091D02*
Y508123D01*
X775970Y383039D02*
Y507071D01*
X773430Y381987D02*
X798036Y357380D01*
X855000Y365000D02*
X864252Y374252D01*
Y394352D01*
X513080Y888492D02*
Y905510D01*
X555191Y919364D02*
X559285Y923457D01*
X544327Y912092D02*
X556745Y924510D01*
X562833Y986927D02*
X615435Y1039529D01*
X562833Y923414D02*
Y986927D01*
X561293Y921874D02*
X562833Y923414D01*
X555191Y861163D02*
Y919364D01*
X563065Y858000D02*
Y861961D01*
X1286409Y576580D02*
X1324610D01*
X1250167Y540338D02*
X1286409Y576580D01*
X1250167Y467360D02*
Y540338D01*
X891667Y439293D02*
X1222101D01*
X1250167Y467360D01*
X1149350Y349250D02*
X1332230Y532130D01*
X1334770Y531078D02*
Y606842D01*
X1138972Y335280D02*
X1334770Y531078D01*
X865249Y465710D02*
X891667Y439293D01*
X932668Y445770D02*
X941070D01*
X916290Y447566D02*
X917033Y448310D01*
X929640D01*
X931271Y444373D02*
X932668Y445770D01*
X902988Y441833D02*
X942701D01*
X902861Y441960D02*
X902988Y441833D01*
X942701D02*
X959800Y458932D01*
X904040Y444373D02*
X931271D01*
X959800Y458932D02*
Y489200D01*
X883031Y465382D02*
X904040Y444373D01*
X904439Y447566D02*
X916290D01*
X895222Y441960D02*
X902861D01*
X881380Y455802D02*
X895222Y441960D01*
X885571Y466434D02*
X904439Y447566D01*
X865249Y465710D02*
Y536989D01*
X867925Y539664D02*
Y615581D01*
X865249Y536989D02*
X867925Y539664D01*
X812800Y335280D02*
X1138972D01*
X1332230Y532130D02*
Y605790D01*
X1381016Y748777D02*
X1381760Y748033D01*
X1381999D02*
X1382743Y747289D01*
X1369229Y748777D02*
X1381016D01*
X1382743Y743209D02*
Y747289D01*
X1381760Y748033D02*
X1381999D01*
X1356101Y735650D02*
X1369229Y748777D01*
X1366014Y739994D02*
X1369060Y743041D01*
X1366014Y718606D02*
Y739994D01*
X1356101Y730261D02*
Y735650D01*
X1321943Y768223D02*
X1326007Y772287D01*
X1321943Y740537D02*
Y768223D01*
Y740537D02*
X1333500Y728980D01*
X577469Y850727D02*
Y947798D01*
Y850727D02*
X577977Y850219D01*
X575437Y810641D02*
Y811911D01*
X574575Y812773D02*
X575437Y811911D01*
X610355Y1041633D02*
Y1045225D01*
X574575Y812773D02*
Y814805D01*
X577977Y801370D02*
Y850219D01*
X577469Y947798D02*
X609974Y980303D01*
X628954Y1056640D02*
X632546D01*
X612895Y1044173D02*
X627902Y1059180D01*
X574040Y815340D02*
X574575Y814805D01*
X615435Y1039529D02*
Y1043121D01*
X559285Y986971D02*
X612895Y1040581D01*
X609974Y1030476D02*
X617975Y1038477D01*
Y1042069D01*
X626850Y1061720D02*
X630442D01*
X627902Y1059180D02*
X631494D01*
X615435Y1043121D02*
X628954Y1056640D01*
X612895Y1040581D02*
Y1044173D01*
X565404Y800608D02*
X575437Y810641D01*
X556745Y988023D02*
X610355Y1041633D01*
Y1045225D02*
X626850Y1061720D01*
X580009Y851779D02*
Y921893D01*
X599251Y941135D01*
X580009Y851779D02*
X580517Y851271D01*
X491109Y745808D02*
X522415D01*
X558419Y716133D02*
Y746419D01*
X566420Y645154D02*
X567309Y646043D01*
Y707243D01*
X473710Y736600D02*
X518335Y691975D01*
X554081D01*
X473710Y736600D02*
Y758191D01*
X502920Y787401D01*
X485140Y867410D02*
X491998D01*
X513080Y888492D01*
X556745Y924510D02*
Y988023D01*
X559285Y923457D02*
Y986971D01*
X1432377Y710224D02*
Y907270D01*
X1347470Y704995D02*
X1350996Y708521D01*
X1333060Y690058D02*
X1347470Y704468D01*
X1344930Y710075D02*
X1353669Y718814D01*
X1332007Y692598D02*
X1344930Y705520D01*
Y710075D01*
X1347470Y704468D02*
Y704995D01*
X1299954Y692598D02*
X1332007D01*
X1299210Y677692D02*
Y691854D01*
X1299954Y692598D01*
X1327764Y690058D02*
X1333060D01*
X1350996Y708521D02*
X1355928D01*
X492504Y812817D02*
X510795Y831108D01*
X1410702Y688548D02*
X1432377Y710224D01*
X510795Y831108D02*
X521544D01*
X492088Y808880D02*
X492504Y809296D01*
Y812817D01*
X1385443Y662845D02*
X1408606Y686008D01*
X1385443Y592729D02*
X1396425Y581747D01*
X1408606Y686008D02*
X1411754D01*
X1385443Y592729D02*
Y662845D01*
X1422669Y704108D02*
Y710080D01*
X514073Y820046D02*
X555191Y861163D01*
X1420642Y712108D02*
X1422669Y710080D01*
X521544Y831108D02*
X544327Y853892D01*
X1333500Y735330D02*
X1341708D01*
X1356995Y906842D02*
X1357090Y906747D01*
X1420642Y712108D02*
Y718080D01*
X502920Y798097D02*
X514073Y809250D01*
X1341708Y735330D02*
X1353669Y723369D01*
X1391128Y688548D02*
X1410702D01*
X1353669Y718814D02*
Y723369D01*
X542968Y837904D02*
X563065Y858000D01*
X1390076Y691088D02*
X1409650D01*
X544327Y853892D02*
Y912092D01*
X518614Y817807D02*
X538710Y837904D01*
X510742Y780939D02*
X513048Y783245D01*
X498983Y777240D02*
X505174Y783431D01*
X509413Y780939D02*
X510742D01*
X509111Y785448D02*
X510881Y787218D01*
X505174Y786063D02*
X505460Y786349D01*
X514073Y809250D02*
Y820046D01*
X510748Y792200D02*
X519153Y800605D01*
X513048Y784574D02*
X529082Y800608D01*
X513048Y783245D02*
Y784574D01*
X519153Y804341D02*
X522532Y807720D01*
X509111Y784876D02*
Y785448D01*
X508880Y780406D02*
X509413Y780939D01*
X519153Y800605D02*
Y804341D01*
X505174Y783431D02*
Y786063D01*
X502920Y787401D02*
Y798097D01*
X505460Y797045D02*
X518614Y810199D01*
X612514Y942454D02*
Y1018914D01*
Y942454D02*
X619887Y935081D01*
X505460Y786349D02*
Y797045D01*
X1197805Y999205D02*
X1215900Y1017300D01*
X538710Y837904D02*
X542968D01*
X518614Y810199D02*
Y817807D01*
X1391892Y734060D02*
X1404219D01*
X1382743Y743209D02*
X1391892Y734060D01*
X1355579Y729738D02*
X1356101Y730261D01*
X1343249Y794140D02*
X1386680Y750709D01*
X1304290Y718395D02*
X1315947Y706738D01*
X554081Y691975D02*
X563372Y701266D01*
Y705612D01*
X1341040Y679151D02*
X1358680Y696791D01*
X1338565Y708108D02*
Y720161D01*
X1346428Y725043D02*
X1349732Y721739D01*
X1336223Y722503D02*
X1338565Y720161D01*
X1317117Y733773D02*
X1325847Y725043D01*
X1314577Y732721D02*
X1324795Y722503D01*
X1335163Y704705D02*
X1338565Y708108D01*
X1324795Y722503D02*
X1336223D01*
X1316999Y709278D02*
X1325304D01*
X1335163Y701321D02*
Y704705D01*
X1334628Y700786D02*
X1335163Y701321D01*
X1325304Y709278D02*
X1334592Y718566D01*
X1306830Y719447D02*
X1316999Y709278D01*
X1331627Y706738D02*
X1334628Y709739D01*
X1315947Y706738D02*
X1331627D01*
X1304290Y718395D02*
Y781034D01*
X1306830Y719447D02*
Y785642D01*
X1295320Y790004D02*
X1304290Y781034D01*
X1417320Y614680D02*
X1448363Y645723D01*
X1417320Y601980D02*
Y614680D01*
X1414780Y612140D02*
Y617220D01*
X1435100Y637540D01*
X1409700Y607060D02*
X1414780Y612140D01*
X950103Y827159D02*
X960508D01*
X777367Y970280D02*
X778383Y969264D01*
X932543Y960992D02*
X932788Y960747D01*
Y955512D02*
Y960747D01*
X940574Y703660D02*
X942359Y701875D01*
X940574Y703660D02*
Y711974D01*
X934720Y705922D02*
X941307Y699335D01*
X942359Y701875D02*
X952079D01*
X934720Y705922D02*
Y727837D01*
X941307Y699335D02*
X953131D01*
X1042670Y684530D02*
X1066800Y660400D01*
X1065530Y687070D02*
X1092200Y660400D01*
X1013242Y715010D02*
X1013968D01*
X1011972Y713740D02*
X1013242Y715010D01*
X951716Y708110D02*
X958616Y715010D01*
X994628D01*
X671703Y825500D02*
Y844004D01*
X667766Y816936D02*
X671902Y812800D01*
X666623Y768223D02*
Y796877D01*
X711435Y846304D02*
X711969Y846839D01*
X711435Y843903D02*
Y846304D01*
X710598Y843066D02*
X711435Y843903D01*
X508880Y772655D02*
Y780406D01*
X510748Y762280D02*
Y770787D01*
X508880Y772655D02*
X510748Y770787D01*
X631063Y752876D02*
X664083Y785896D01*
X1221280Y463638D02*
X1223908Y461010D01*
X1224219D01*
X1217930Y466090D02*
X1220382Y463638D01*
X1221280D01*
X664600Y718502D02*
X674434D01*
X678688Y714248D01*
X562356Y722376D02*
Y730377D01*
X700649Y722747D02*
Y728101D01*
X736110Y738571D02*
Y859045D01*
X741190Y687647D02*
Y861149D01*
X738650Y737519D02*
Y860097D01*
X726440Y848925D02*
X732790Y842575D01*
X744873Y634256D02*
Y683964D01*
X732790Y738843D02*
Y842575D01*
X732917Y865830D02*
X738650Y860097D01*
X744873Y634256D02*
X753645Y625484D01*
X791725Y539070D02*
X796290Y534505D01*
X772414Y535772D02*
X793750Y514436D01*
X794265Y540122D02*
X798830Y535557D01*
X796805Y541174D02*
X801370Y536609D01*
X767207Y537387D02*
Y615514D01*
X748121Y634600D02*
Y684308D01*
X909320Y685275D02*
Y689610D01*
X763270Y778454D02*
X764159Y777565D01*
Y764911D02*
Y777565D01*
X755650Y764303D02*
X757229Y762723D01*
X967332Y809528D02*
X972627Y814824D01*
X937325Y839937D02*
X950103Y827159D01*
X972627Y814824D02*
X972902D01*
X925950Y991711D02*
Y1021285D01*
X868733Y955167D02*
X868860Y955040D01*
X859917Y958415D02*
Y966942D01*
X859082Y967777D02*
Y993118D01*
Y967777D02*
X859917Y966942D01*
Y958415D02*
X867102Y951230D01*
X868063Y784063D02*
X872000Y788000D01*
X876063Y794675D02*
Y800063D01*
X880000Y804000D01*
X862983Y769823D02*
Y800371D01*
X870549Y807937D02*
X875937D01*
X880000Y812000D01*
X860443Y770875D02*
Y801423D01*
X870485Y811465D01*
X871466D01*
X872000Y812000D01*
X786505Y852073D02*
X790369Y855937D01*
X970061Y698205D02*
X974457Y693809D01*
X980821Y699543D02*
X984015Y696349D01*
X1206696Y532130D02*
X1244600D01*
X1197289Y522723D02*
X1206696Y532130D01*
X1243203Y541679D02*
Y594487D01*
X1088907Y533881D02*
Y533935D01*
X1100065Y522723D02*
X1197289D01*
X1088907Y533881D02*
X1100065Y522723D01*
X1088907Y533935D02*
X1095865Y540893D01*
X1127005Y627509D02*
X1142315Y612199D01*
X1140992Y584568D02*
X1154430Y598007D01*
X1144855Y604767D02*
Y613251D01*
X1142315Y605819D02*
Y612199D01*
X1109218Y533908D02*
X1113663Y538353D01*
X1121918Y546608D02*
X1123950Y548640D01*
X1119378Y545358D02*
Y582882D01*
X1140992Y555775D02*
Y584568D01*
X1114913Y540893D02*
X1119378Y545358D01*
X1095865Y540893D02*
X1114913D01*
X1142315Y615791D02*
X1144855Y613251D01*
X1115965Y538353D02*
X1121918Y544306D01*
X1113663Y538353D02*
X1115965D01*
X1123950Y548640D02*
Y583862D01*
X1121918Y544306D02*
Y546608D01*
X1142315Y615791D02*
Y627013D01*
X1094448Y533908D02*
X1109218D01*
X1120902Y535686D02*
X1140992Y555775D01*
X1113282Y544830D02*
X1116838Y548386D01*
Y594213D01*
X1155192Y570992D02*
Y588264D01*
X1165490Y598562D01*
X1133595Y639325D02*
X1154430Y618490D01*
Y598007D02*
Y618490D01*
X1131055Y638273D02*
Y665161D01*
Y638273D02*
X1142315Y627013D01*
X1133595Y639325D02*
Y666213D01*
X959512Y698205D02*
X970061D01*
X998197Y700286D02*
X998713Y699770D01*
X957712Y701898D02*
X960132Y704318D01*
X957701Y701898D02*
X957712D01*
X957206Y701403D02*
X957701Y701898D01*
X757809Y466197D02*
X766773Y475160D01*
X746439Y456123D02*
X748389Y454172D01*
X745683Y456123D02*
X746439D01*
X748389Y454172D02*
X748402D01*
X720845Y395725D02*
X740410Y415290D01*
X781050Y385143D02*
Y509175D01*
X755650Y379730D02*
X769493Y393573D01*
Y452842D01*
X757809Y426831D02*
Y466197D01*
X800100Y349250D02*
X1149350D01*
X817125Y539664D02*
Y637423D01*
X816874Y481848D02*
X861969Y436753D01*
X816874Y539413D02*
X817125Y539664D01*
X816874Y481848D02*
Y539413D01*
X743730Y688699D02*
Y862201D01*
X745816Y863707D02*
X746270Y863253D01*
X766665Y880602D02*
X769620Y877647D01*
X764125Y879550D02*
X767080Y876595D01*
X886841Y380952D02*
Y410766D01*
Y380952D02*
X897334Y370459D01*
X749753Y878254D02*
Y878707D01*
X815909Y954274D02*
X822170D01*
X713359Y854188D02*
Y854442D01*
X709957Y850786D02*
X713359Y854188D01*
X822170Y954274D02*
X825860Y957964D01*
X536488Y463102D02*
Y487466D01*
X529590Y461772D02*
Y486136D01*
X556387Y512933D02*
Y518521D01*
X529590Y486136D02*
X556387Y512933D01*
X536488Y487466D02*
X545592Y496570D01*
X484147Y582653D02*
X492255D01*
X556387Y518521D01*
X482600Y558800D02*
X510540D01*
X552450Y516890D01*
X482600Y584200D02*
X484147Y582653D01*
X526288Y458470D02*
X529590Y461772D01*
X521622Y508000D02*
X522357Y508735D01*
X523113D01*
X482600Y508000D02*
X521622D01*
X750290Y970280D02*
X777367D01*
X968403Y499717D02*
Y522577D01*
X1211580Y459740D02*
X1224280Y447040D01*
X1005404Y469900D02*
X1221740D01*
X998220Y477084D02*
X1005404Y469900D01*
X1221740D02*
X1223010Y471170D01*
X1005622Y466090D02*
X1217930D01*
X975795Y485304D02*
X1001359Y459740D01*
X975795Y485304D02*
Y492325D01*
X1001359Y459740D02*
X1211580D01*
X998220Y477084D02*
Y501650D01*
X995680Y476032D02*
Y492760D01*
Y476032D02*
X1005622Y466090D01*
X978817Y521053D02*
X998220Y501650D01*
X968403Y499717D02*
X975795Y492325D01*
X970943Y517497D02*
Y585222D01*
Y517497D02*
X995680Y492760D01*
X970943Y585222D02*
X974090Y588369D01*
X902970Y748030D02*
X914400Y736600D01*
X927100D01*
X897890Y704850D02*
X898078Y704662D01*
X897890Y704850D02*
Y723900D01*
X773457Y949225D02*
X774192Y949960D01*
X805989D01*
X770155Y949225D02*
X773457D01*
X769620Y948690D02*
X770155Y949225D01*
X830580Y947420D02*
X843938Y934062D01*
X805989Y949960D02*
X807905Y948044D01*
X822566Y944880D02*
X836064Y931382D01*
X831850Y949960D02*
X859937Y921873D01*
X843938Y912062D02*
Y934062D01*
X856000Y884000D02*
X859937Y887937D01*
Y921873D01*
X836063Y923525D02*
X836064Y923527D01*
Y931382D01*
X836063Y906369D02*
Y923525D01*
Y906369D02*
X838369Y904063D01*
X841505D01*
X844063Y901505D01*
Y895937D02*
Y901505D01*
Y895937D02*
X848000Y892000D01*
X746270Y693910D02*
Y863253D01*
X751105Y546305D02*
Y624432D01*
X718820Y955153D02*
X732169Y968502D01*
X718820Y809599D02*
Y955153D01*
X843938Y912062D02*
X848000Y908000D01*
X916063Y839937D02*
X937325D01*
X904000Y852000D02*
X916063Y839937D01*
X912000Y852000D02*
X920720Y843280D01*
X927342Y847090D02*
X938690D01*
X924063Y850369D02*
X927342Y847090D01*
X938690D02*
X939569Y846211D01*
X883937Y914383D02*
Y922576D01*
Y914383D02*
X888000Y910320D01*
X892063Y888063D02*
Y909631D01*
X893372Y910939D01*
X892311Y929465D02*
X901249Y938403D01*
X889771Y938031D02*
X895350Y943610D01*
X888000Y916000D02*
Y923047D01*
X888000Y900000D02*
Y910320D01*
X900063Y888063D02*
Y917631D01*
X900828Y918396D01*
X876063Y906369D02*
Y917631D01*
X908063Y920278D02*
X922261Y934476D01*
X901249Y938403D02*
X919004D01*
X911242Y929025D02*
X918080Y935863D01*
X900828Y918396D02*
Y930910D01*
X876063Y906369D02*
X878432Y904000D01*
X876063Y917631D02*
X877106Y918674D01*
X878432Y904000D02*
X881568D01*
X883937Y901631D01*
Y887937D02*
Y901631D01*
X880000Y884000D02*
X883937Y887937D01*
X873631Y903937D02*
X876063Y901505D01*
X867410Y905510D02*
Y916978D01*
Y905510D02*
X868983Y903937D01*
X873631D01*
X876063Y879937D02*
Y901505D01*
Y879937D02*
X880000Y876000D01*
X888000Y884000D02*
X892063Y888063D01*
X896000Y884000D02*
X900063Y888063D01*
X956040Y937260D02*
X957193Y938413D01*
X921453Y937260D02*
X956040D01*
X962559Y938413D02*
X964143Y936830D01*
X931255Y944880D02*
X952884D01*
X954037Y946033D01*
X919004Y938403D02*
X920401Y939800D01*
X953936Y942340D02*
X955089Y943493D01*
X957193Y938413D02*
X962559D01*
X964663Y943493D02*
X965816Y942340D01*
X954988Y939800D02*
X956141Y940953D01*
X930203Y942340D02*
X953936D01*
X965816D02*
X1038860D01*
X918080Y935863D02*
X920056D01*
X964886Y939678D02*
X967517D01*
X968792Y938403D01*
X956141Y940953D02*
X963611D01*
X966156Y936830D02*
X967740Y935246D01*
X966868Y944880D02*
X1039912D01*
X954037Y946033D02*
X965715D01*
X964143Y936830D02*
X966156D01*
X965715Y946033D02*
X966868Y944880D01*
X955089Y943493D02*
X964663D01*
X968792Y938403D02*
X985520D01*
X920401Y939800D02*
X954988D01*
X920056Y935863D02*
X921453Y937260D01*
X963611Y940953D02*
X964886Y939678D01*
X958245Y935873D02*
X961507D01*
X956848Y934476D02*
X958245Y935873D01*
X922261Y934476D02*
X956848D01*
X961507Y935873D02*
X965200Y932180D01*
X938368Y931936D02*
X959876D01*
X932413Y949290D02*
X932759Y948944D01*
X963930Y904240D02*
X967740Y908050D01*
X958528Y895937D02*
X963930Y901339D01*
Y904240D01*
X983234Y893126D02*
Y930382D01*
X958788Y868680D02*
X983234Y893126D01*
X910369Y895937D02*
X958528D01*
X907937Y893505D02*
X910369Y895937D01*
X907937Y887937D02*
Y893505D01*
X904000Y884000D02*
X907937Y887937D01*
X908063Y912063D02*
Y920278D01*
X904000Y908000D02*
X908063Y912063D01*
X958723Y901700D02*
Y914715D01*
X979170Y847308D02*
X998220Y866358D01*
X995680Y902063D02*
X1016000Y922383D01*
X993140Y868680D02*
Y934720D01*
X973655Y849195D02*
X993140Y868680D01*
X998220Y901011D02*
X1001068Y903859D01*
X995680Y867410D02*
Y902063D01*
X998220Y866358D02*
Y901011D01*
X956052Y849195D02*
X973655D01*
X979170Y815798D02*
Y847308D01*
X986790Y835309D02*
X997077Y845596D01*
X994537Y846648D02*
Y848705D01*
X984250Y836361D02*
X994537Y846648D01*
Y848705D02*
X1002787Y856955D01*
X997077Y845596D02*
Y847653D01*
X1005327Y855903D01*
X1007237Y870565D02*
Y880237D01*
X981710Y845038D02*
X1007237Y870565D01*
X971677Y894757D02*
X979297D01*
X983234Y930382D02*
X991509Y938657D01*
X942340Y868680D02*
X958788D01*
X967317Y890397D02*
X971677Y894757D01*
X710598Y843066D02*
X711178Y842485D01*
X708442Y850786D02*
X709957D01*
X706126Y845208D02*
Y848470D01*
Y845208D02*
X708027Y843307D01*
X711178Y841433D02*
Y842485D01*
X706126Y848470D02*
X708442Y850786D01*
X708027Y842255D02*
Y843307D01*
X704469Y838697D02*
X708027Y842255D01*
X709696Y839951D02*
X711178Y841433D01*
X709315Y839951D02*
X709696D01*
X704469Y838316D02*
Y838697D01*
X664083Y797930D02*
X704469Y838316D01*
X664083Y785896D02*
Y797930D01*
X707009Y837263D02*
Y837644D01*
X709315Y839951D01*
X666623Y796877D02*
X707009Y837263D01*
X545057Y470635D02*
X545592Y471170D01*
X545057Y468080D02*
Y470635D01*
X746025Y544200D02*
Y620134D01*
X617594Y944558D02*
X624967Y937185D01*
X615054Y943506D02*
X622427Y936133D01*
X619887Y843197D02*
Y935081D01*
X622427Y842145D02*
Y936133D01*
X624967Y841093D02*
Y937185D01*
X599440Y822750D02*
X619887Y843197D01*
X876094Y421513D02*
X886841Y410766D01*
X748565Y545252D02*
Y623380D01*
X753645Y547357D02*
Y625484D01*
X767207Y537387D02*
X791210Y513384D01*
X773142Y883285D02*
X786023D01*
X777574Y891159D02*
X782352Y895937D01*
X804063D01*
X673100Y845401D02*
Y904240D01*
X671703Y844004D02*
X673100Y845401D01*
X667766Y816936D02*
Y841058D01*
X665226Y843597D02*
X667766Y841058D01*
X861969Y436753D02*
X1114854D01*
X738721Y353187D02*
X762000D01*
X705247Y319713D02*
X738721Y353187D01*
X1556777Y522981D02*
X1557945Y524149D01*
X1556777Y520381D02*
Y522981D01*
X1556243Y519846D02*
X1556777Y520381D01*
X1557945Y524149D02*
Y620635D01*
X1554008Y573413D02*
X1555008Y574413D01*
X1554008Y525780D02*
Y573413D01*
X741553Y484619D02*
X747903D01*
X748438Y484084D02*
X751807D01*
X747903Y484619D02*
X748438Y484084D01*
X751807D02*
X753041Y482850D01*
X753882D01*
Y455706D02*
Y482850D01*
X749300Y445988D02*
Y453274D01*
X748402Y454172D02*
X749300Y453274D01*
X724952Y421640D02*
X749300Y445988D01*
X777247Y906815D02*
X790369Y919937D01*
X784784Y903937D02*
X820063D01*
X825860Y957964D02*
Y961231D01*
X826394Y961766D01*
X817868Y961108D02*
X819155Y962395D01*
X1010213Y847696D02*
X1011664Y849146D01*
X1011837D01*
X1355928Y708521D02*
X1366014Y718606D01*
X1002812Y777230D02*
X1007991D01*
X1371370Y403530D02*
X1457400Y317500D01*
X792480Y314960D02*
X812800Y335280D01*
X639997Y921967D02*
Y944963D01*
X627380Y957580D02*
X639997Y944963D01*
X615054Y996054D02*
X627380Y1008380D01*
X599251Y941135D02*
X608265D01*
X612514Y1018914D02*
X627380Y1033780D01*
X617594Y944558D02*
Y973194D01*
X615054Y943506D02*
Y996054D01*
X558419Y716133D02*
X567309Y707243D01*
X617594Y973194D02*
X627380Y982980D01*
X664718Y601254D02*
Y603758D01*
X681317Y620357D01*
X670099Y561801D02*
X682183D01*
X570983Y433497D02*
Y597435D01*
X573523Y434549D02*
Y596383D01*
X576063Y435601D02*
Y593090D01*
X693200Y572818D02*
X706040D01*
X682183Y561801D02*
X693200Y572818D01*
X656336Y921004D02*
X673100Y904240D01*
X692150Y714248D02*
X700649Y722747D01*
X753882Y455706D02*
X755269Y454319D01*
Y427883D02*
Y454319D01*
X630062Y397382D02*
X654320Y421640D01*
X724952D01*
X786130Y474944D02*
Y511280D01*
Y474944D02*
X850900Y410174D01*
X783590Y473892D02*
Y510228D01*
Y473892D02*
X836041Y421441D01*
X738088Y416560D02*
X739358Y417830D01*
X730994Y431274D02*
Y445838D01*
X730250Y446582D02*
X730994Y445838D01*
X745216Y417830D02*
X755269Y427883D01*
X730250Y446582D02*
Y461902D01*
X656818Y416560D02*
X738088D01*
X740410Y415290D02*
X746268D01*
X723900Y424180D02*
X730994Y431274D01*
X739358Y417830D02*
X745216D01*
X656306Y431298D02*
X692150D01*
X746268Y415290D02*
X757809Y426831D01*
X652780Y424180D02*
X723900D01*
X635000Y406400D02*
X652780Y424180D01*
X636488Y411480D02*
X656306Y431298D01*
X556260Y406400D02*
X635000D01*
X561340Y411480D02*
X636488D01*
X644319Y398493D02*
X647145Y401319D01*
X679718D01*
X640382Y400123D02*
X656818Y416560D01*
X553720Y408940D02*
X556260Y406400D01*
X553720Y408940D02*
Y463042D01*
X545592Y471170D02*
X553720Y463042D01*
X551567Y497840D02*
X555516D01*
X556260Y416560D02*
Y497096D01*
X545592Y496570D02*
X550297D01*
X551567Y497840D01*
X555516D02*
X556260Y497096D01*
Y416560D02*
X561340Y411480D01*
X710900Y319798D02*
X770648D01*
X1538750Y525780D02*
X1611358Y453172D01*
X1414321Y649018D02*
X1414780Y648559D01*
Y635000D02*
Y648559D01*
X1389380Y594360D02*
Y609600D01*
X1414780Y635000D01*
X1399540Y609600D02*
X1428647Y638707D01*
X1399540Y596900D02*
Y609600D01*
X1428647Y638707D02*
Y650216D01*
X1435100Y637540D02*
Y643220D01*
X1440898Y649018D01*
X1448363Y645723D02*
Y687611D01*
X974483Y733344D02*
X979886D01*
X974391Y733251D02*
X974483Y733344D01*
X923937Y758813D02*
Y789631D01*
X1004128Y744922D02*
X1004385D01*
X900190Y761188D02*
Y776190D01*
X908190Y764126D02*
Y800190D01*
X889711Y768414D02*
X891937Y770640D01*
X719836Y971042D02*
X741300D01*
X900190Y776190D02*
X904000Y780000D01*
X952079Y701875D02*
X955544Y705340D01*
X955199Y701403D02*
X957206D01*
X953131Y699335D02*
X955199Y701403D01*
X940574Y711974D02*
X976630Y748030D01*
X1009813Y743577D02*
Y749862D01*
X1004385Y744922D02*
X1007273Y747810D01*
Y748863D01*
X1009777Y749898D02*
X1009813Y749862D01*
X1000633Y760857D02*
X1009777Y751713D01*
Y749898D02*
Y751713D01*
X920535Y793033D02*
Y795465D01*
X801370Y493760D02*
Y536609D01*
X1381049Y763524D02*
X1388110D01*
X1386680Y744840D02*
Y750709D01*
X948604Y390405D02*
X987305D01*
X786023Y883285D02*
X790675Y887937D01*
X1114854Y436753D02*
X1140841Y410766D01*
X665226Y866521D02*
X668020Y869315D01*
X665226Y843597D02*
Y866521D01*
X796063Y919937D02*
X800000Y916000D01*
X791210Y489552D02*
Y513384D01*
X793750Y490604D02*
Y514436D01*
X857761Y426593D02*
X896414D01*
X912241Y410766D01*
X748512Y968502D02*
X750290Y970280D01*
X732169Y968502D02*
X748512D01*
X753645Y547357D02*
X788670Y512332D01*
X987305Y390405D02*
X1003300Y406400D01*
X746025Y544200D02*
X781050Y509175D01*
X740945Y542096D02*
Y601577D01*
X751105Y546305D02*
X786130Y511280D01*
X788670Y488500D02*
Y512332D01*
X856709Y424053D02*
X884047D01*
X790675Y887937D02*
X811937D01*
X738405Y541044D02*
X773430Y506019D01*
X860917Y434213D02*
X1091994D01*
X796290Y491656D02*
X858813Y429133D01*
X1091994Y434213D02*
X1115441Y410766D01*
X858813Y429133D02*
X1046274D01*
X793750Y490604D02*
X857761Y426593D01*
X884047Y424053D02*
X901700Y406400D01*
X738405Y541044D02*
Y600525D01*
X788670Y488500D02*
X855657Y421513D01*
X580000Y438277D02*
X597027D01*
X623570Y464820D01*
X579864Y431800D02*
X627380D01*
X576063Y435601D02*
X579864Y431800D01*
X663194Y953262D02*
Y963516D01*
X651510Y941578D02*
X663194Y953262D01*
X651510Y925830D02*
Y941578D01*
X656336Y930542D02*
X657690Y931896D01*
X656336Y921004D02*
Y930542D01*
X510881Y787218D02*
X511556D01*
Y787436D01*
X513044Y788924D01*
X513262D02*
X527486Y803148D01*
X513044Y788924D02*
X513262D01*
X1106982Y604068D02*
X1116838Y594213D01*
X1080463Y590550D02*
X1106982Y617068D01*
X1078484Y590550D02*
X1080463D01*
X1072896Y584962D02*
X1078484Y590550D01*
X1072896Y574294D02*
Y584962D01*
X1075436Y573242D02*
Y579627D01*
X1068070Y569468D02*
X1072896Y574294D01*
X1071626Y569432D02*
X1075436Y573242D01*
Y579627D02*
X1080378Y584569D01*
X1060958Y569468D02*
X1068070D01*
X1071626Y520954D02*
Y569432D01*
X1052398Y560908D02*
X1060958Y569468D01*
X1044528Y560908D02*
X1052398D01*
X1010600Y520888D02*
X1024638Y534925D01*
X1010600Y489200D02*
Y520888D01*
X1078230Y557276D02*
X1106982Y586028D01*
X1078230Y544068D02*
Y557276D01*
X1061974Y511302D02*
X1071626Y520954D01*
X1050366Y511302D02*
X1061974D01*
X1046480Y515188D02*
X1050366Y511302D01*
X1093978Y624586D02*
X1124361D01*
X1138378Y610569D01*
X1092582Y625982D02*
X1093978Y624586D01*
X1066800Y625982D02*
X1092582D01*
X1202182Y640842D02*
X1214374Y628650D01*
X1145032Y640842D02*
X1202182D01*
X1214374Y602074D02*
Y628650D01*
X1195706Y621666D02*
X1204468Y630428D01*
X1188165Y621666D02*
X1195706D01*
X1223870Y577947D02*
Y592578D01*
X1214374Y602074D02*
X1223870Y592578D01*
X1168349Y598562D02*
X1178165Y608378D01*
X1165490Y598562D02*
X1168349D01*
X1188165Y608378D02*
Y621666D01*
X1350010Y790971D02*
X1392485Y748496D01*
X1325847Y725043D02*
X1346428D01*
X1132050Y921386D02*
X1210356D01*
X1392485Y748496D02*
X1392490D01*
X1362905Y781668D02*
X1381049Y763524D01*
X1318260Y980186D02*
X1368298D01*
X1311402Y987044D02*
X1318260Y980186D01*
X606242Y502920D02*
X632460D01*
X612242Y457302D02*
X632460Y477520D01*
X617002Y477302D02*
X632460Y492760D01*
X955544Y705340D02*
X955575D01*
X994136Y762000D02*
X1007273Y748863D01*
X938059Y807937D02*
X947166Y798830D01*
X976630Y748030D02*
Y813258D01*
X984250Y771886D02*
Y836361D01*
X986790Y774700D02*
Y835309D01*
Y774700D02*
X1000633Y760857D01*
X944980Y807183D02*
Y808282D01*
Y807183D02*
X953169Y798993D01*
X932063Y758705D02*
X935287Y755481D01*
X920000Y804000D02*
X923937Y800063D01*
X920000Y796000D02*
X920535Y795465D01*
X942879Y814852D02*
Y818204D01*
X920000Y828000D02*
X920535Y827465D01*
X931847Y818459D02*
X934369Y815937D01*
X922967Y827465D02*
X926369Y824063D01*
X937325Y815937D02*
X944980Y808282D01*
X920535Y827465D02*
X922967D01*
X989330Y775752D02*
X1001685Y763397D01*
X991870Y776804D02*
X1002737Y765937D01*
X787120Y793434D02*
Y796687D01*
X790495Y800063D01*
X946932Y705812D02*
X947688D01*
X949985Y708110D01*
X951716D01*
X897650Y762989D02*
Y781650D01*
X783209Y789523D02*
X787120Y793434D01*
X790495Y800063D02*
X828063D01*
X1115441Y395859D02*
Y410766D01*
X1046274Y429133D02*
X1064641Y410766D01*
X798830Y492708D02*
X859865Y431673D01*
X1064641Y395859D02*
Y410766D01*
X989330Y766806D02*
Y766806D01*
Y766806D02*
X994136Y762000D01*
X994136D01*
X984250Y771886D02*
X989330Y766806D01*
X1002737Y765937D02*
X1004225D01*
X1001685Y763397D02*
X1003173D01*
X1000633Y760857D02*
X1000633D01*
X976630Y813258D02*
X979170Y815798D01*
X1105501Y889000D02*
X1117600D01*
X1557945Y620635D02*
X1567814Y630504D01*
X1555008Y574413D02*
Y621291D01*
X1567070Y649528D02*
X1567814Y648784D01*
Y630504D02*
Y648784D01*
X1492250Y649528D02*
X1567070D01*
X1480261Y645591D02*
X1558639D01*
X1396425Y581747D02*
X1398183D01*
X1409700Y570230D01*
X1411754Y686008D02*
X1434917Y709172D01*
Y733308D01*
X1442560Y740950D01*
X1366544Y373356D02*
X1422400Y317500D01*
X1349907Y484170D02*
X1366544Y467533D01*
Y373356D02*
Y467533D01*
X1349907Y484170D02*
Y499298D01*
X1371370Y403530D02*
Y490535D01*
X1362607Y499298D02*
X1371370Y490535D01*
X1590247Y419045D02*
X1593468D01*
X1574502Y403300D02*
X1590247Y419045D01*
X1593468D02*
X1594002Y419580D01*
X1528853Y403326D02*
X1537515Y394663D01*
X1627399D01*
X828063Y800063D02*
X832000Y804000D01*
X791210Y489552D02*
X856709Y424053D01*
X743485Y543148D02*
X778510Y508123D01*
X855657Y421513D02*
X876094D01*
X748565Y545252D02*
X783590Y510228D01*
X1140841Y395859D02*
Y410766D01*
X740945Y542096D02*
X775970Y507071D01*
X937641Y376634D02*
Y379442D01*
X948604Y390405D01*
X796290Y491656D02*
Y534505D01*
X1090041Y395859D02*
Y410766D01*
X801370Y493760D02*
X860917Y434213D01*
X1090041Y395859D02*
X1104900Y381000D01*
X1140841Y395859D02*
X1155700Y381000D01*
X798830Y492708D02*
Y535557D01*
X1069134Y431673D02*
X1090041Y410766D01*
X1278066Y729365D02*
X1291366D01*
X1300805Y738804D01*
X923937Y794675D02*
Y800063D01*
X926612Y792000D02*
X929388D01*
X1627399Y394663D02*
X1633462Y388600D01*
X1611358Y398600D02*
Y453172D01*
X1073749Y903859D02*
X1088608Y889000D01*
X1001068Y903859D02*
X1073749D01*
X1038860Y942340D02*
X1079500Y901700D01*
X925936Y946607D02*
X930203Y942340D01*
X990881Y955013D02*
X1010405D01*
X1120840Y955040D02*
X1137600Y971800D01*
X1142684Y951484D02*
X1163000Y971800D01*
X1088608Y889000D02*
X1092200D01*
X1016000Y922383D02*
Y937260D01*
X1054701Y889000D02*
X1066800D01*
X1002787Y856955D02*
Y860547D01*
X1005327Y855903D02*
Y859495D01*
X1007237Y880237D02*
X1016000Y889000D01*
X570983Y433497D02*
X579157Y425323D01*
X616839D01*
X573523Y434549D02*
X580209Y427863D01*
X616839Y425323D02*
X621792Y420370D01*
X629011Y427863D02*
X631317Y430169D01*
Y436245D01*
X580209Y427863D02*
X629011D01*
X621792Y445770D02*
X631317Y436245D01*
X1006481Y937116D02*
X1007237D01*
X1004940Y938657D02*
X1006481Y937116D01*
X937145Y823937D02*
X942879Y818204D01*
X640382Y396862D02*
X642688Y394556D01*
X640382Y396862D02*
Y400123D01*
X656497Y397382D02*
X674149Y379730D01*
X720845Y370325D02*
X730250Y379730D01*
X685312Y395725D02*
X720845D01*
X669785Y397382D02*
X677565Y389602D01*
X745778D02*
X755650Y379730D01*
X642688Y394556D02*
X653671D01*
X679718Y401319D02*
X685312Y395725D01*
X677565Y389602D02*
X745778D01*
X656977Y370325D02*
X720845D01*
X674149Y379730D02*
X704850D01*
X653671Y394556D02*
X656497Y397382D01*
X580000Y457302D02*
X612242D01*
X580000Y477302D02*
X617002D01*
X580000Y497302D02*
X600624D01*
X606242Y502920D01*
X623570Y464820D02*
X629920D01*
X482600Y508000D02*
Y533400D01*
X527919Y454533D02*
X536488Y463102D01*
X482600Y457200D02*
X485267Y454533D01*
X527919D01*
X490679Y439879D02*
X539701D01*
X545592Y445770D01*
X482600Y431800D02*
X490679Y439879D01*
X1064641Y395859D02*
X1079500Y381000D01*
X859865Y431673D02*
X1069134D01*
X1115441Y395859D02*
X1130300Y381000D01*
X836041Y395859D02*
X850900Y381000D01*
X906066Y370459D02*
X916559Y380952D01*
X850900Y406400D02*
Y410174D01*
X912241Y391541D02*
Y410766D01*
X835589Y966050D02*
X840503Y961136D01*
X916559Y380952D02*
Y385366D01*
X927100Y395907D02*
Y406400D01*
X864252Y394352D02*
X876300Y406400D01*
X836041Y395859D02*
Y421441D01*
X916559Y385366D02*
X927100Y395907D01*
X897334Y370459D02*
X906066D01*
X901700Y381000D02*
X912241Y391541D01*
X897650Y781650D02*
X904000Y788000D01*
X925936Y946607D02*
Y954227D01*
X928476Y947659D02*
X931255Y944880D01*
X928476Y951199D02*
X932788Y955512D01*
X925936Y954227D02*
X928851Y957142D01*
X928476Y947659D02*
Y951199D01*
X1039912Y944880D02*
X1080552Y904240D01*
X924063Y917631D02*
X938368Y931936D01*
X1266000Y717300D02*
X1278066Y729365D01*
X985520Y955040D02*
X990421Y959941D01*
X1010011D01*
X1102795Y981205D02*
X1112200Y971800D01*
X1008380Y963878D02*
Y972721D01*
X1016864Y981205D02*
X1102795D01*
X1008380Y972721D02*
X1016864Y981205D01*
X1034061Y971800D02*
X1046160D01*
X921378Y1000118D02*
Y1021557D01*
X909171Y948690D02*
X935282Y974801D01*
X900122Y948690D02*
X909171D01*
X935282Y974801D02*
Y1016082D01*
X935128Y1030463D02*
X949663D01*
X961900Y1042700D01*
X895658Y961390D02*
X897890Y959158D01*
X925950Y1021285D02*
X935128Y1030463D01*
X897801Y1030599D02*
X912336D01*
X921378Y1021557D01*
X923664Y1029864D02*
X936500Y1042700D01*
X885700D02*
X897801Y1030599D01*
X897890Y950922D02*
X900122Y948690D01*
X897890Y950922D02*
Y959158D01*
X867102Y951230D02*
X887730D01*
X935282Y1016082D02*
X936500Y1017300D01*
X866140Y960120D02*
X869801D01*
X834900Y1017300D02*
X859082Y993118D01*
X887730Y951230D02*
X894080Y957580D01*
X850900Y962660D02*
Y966619D01*
X852238Y967957D01*
X991509Y938657D02*
X1004940D01*
X928000Y868000D02*
X931257Y864743D01*
X920000Y876000D02*
X923937Y872063D01*
X937631D01*
X952453Y877523D02*
X952500Y877570D01*
X937631Y872063D02*
X943091Y877523D01*
X920000Y884000D02*
X924063Y888063D01*
X943091Y877523D02*
X952453D01*
X928000Y860000D02*
X932063Y855937D01*
X924063Y888063D02*
X948535D01*
X950869Y890397D02*
X967317D01*
X820063Y903937D02*
X824000Y900000D01*
X824000Y892000D02*
X827937Y888063D01*
Y874369D02*
Y888063D01*
X790369Y871937D02*
X825505D01*
X827937Y874369D01*
X820000Y882432D02*
Y893568D01*
X822495Y896063D01*
X817505Y879937D02*
X820000Y882432D01*
X822495Y896063D02*
X836063D01*
X840000Y900000D01*
X804063Y895937D02*
X808000Y892000D01*
X811937Y887937D02*
X816000Y892000D01*
X932063Y758705D02*
Y789325D01*
X935694Y836000D02*
X936450D01*
X957019Y795084D02*
Y800711D01*
X928535Y827465D02*
X930661D01*
X928000Y828000D02*
X928535Y827465D01*
X945419Y817368D02*
Y823843D01*
X936450Y836000D02*
X937973Y834477D01*
X923937Y794675D02*
X926612Y792000D01*
X920535Y793033D02*
X923937Y789631D01*
Y758813D02*
X927100Y755650D01*
X879465Y793033D02*
Y795465D01*
X880000Y796000D01*
X900063Y792063D02*
X904000Y796000D01*
X908190Y800190D02*
X912000Y804000D01*
Y812000D02*
X915937Y808063D01*
X929388Y792000D02*
X932063Y789325D01*
X912000Y828000D02*
X915937Y824063D01*
X934369Y807937D02*
X938059D01*
X926369Y824063D02*
X929325D01*
X931870Y810436D02*
X934369Y807937D01*
X934369Y815937D02*
X937325D01*
X930661Y827465D02*
X934189Y823937D01*
X937145D01*
X920000Y836000D02*
X924063Y831937D01*
X946103Y880063D02*
X952500Y886460D01*
X932063Y855937D02*
X949310D01*
X948535Y888063D02*
X950869Y890397D01*
X924063Y850369D02*
Y853505D01*
X915937Y856063D02*
X921505D01*
X912000Y860000D02*
X915937Y856063D01*
X921505D02*
X924063Y853505D01*
X920000Y900000D02*
X924063Y904063D01*
Y917631D01*
X916063Y904063D02*
Y918791D01*
X912000Y900000D02*
X916063Y904063D01*
Y918791D02*
X923478Y926205D01*
X931257Y864743D02*
X951230D01*
X916063Y880063D02*
X946103D01*
X912000Y876000D02*
X916063Y880063D01*
D18*
X1562000Y337000D02*
X1579372Y354372D01*
Y378536D01*
X1562000Y311694D02*
Y337000D01*
X1528000Y316449D02*
Y336000D01*
X1569300Y377300D02*
X1574502D01*
X1528000Y336000D02*
X1569300Y377300D01*
X1553197Y630346D02*
X1553334Y630209D01*
X1553197Y630346D02*
Y632762D01*
Y623611D02*
Y625654D01*
X1553334Y625791D02*
Y630209D01*
X1553197Y625654D02*
X1553334Y625791D01*
X836000Y808000D02*
X840000Y804000D01*
X1553197Y632762D02*
X1554634Y634199D01*
X1555631D01*
X1557970Y636538D01*
X1558520D01*
X1483315Y598469D02*
Y613339D01*
X1521159Y399643D02*
X1529802Y391000D01*
X1521159Y399643D02*
Y400950D01*
X1517502Y404607D02*
X1521159Y400950D01*
X1529802Y391000D02*
X1566909D01*
X1527172Y638938D02*
X1544320D01*
X1537547Y553466D02*
X1538097D01*
X1532326Y556316D02*
X1534697D01*
X1531172Y557470D02*
X1532326Y556316D01*
X1534697D02*
X1537547Y553466D01*
X1516440Y557470D02*
X1531172D01*
X1473200Y644637D02*
X1490511Y661949D01*
Y665980D01*
X1490900Y666369D01*
X1535044Y596847D02*
X1552087Y613889D01*
Y622500D02*
X1553197Y623611D01*
X1552087Y613889D02*
Y622500D01*
X1513064Y624830D02*
X1527172Y638938D01*
X1473200Y641604D02*
Y644637D01*
Y641604D02*
X1488186Y626618D01*
X1466850Y629805D02*
Y646302D01*
X1488186Y617220D02*
Y626618D01*
Y617220D02*
X1497611Y607795D01*
X1466850Y629805D02*
X1483315Y613339D01*
X1502087Y596847D02*
X1535044D01*
X1497611Y595216D02*
Y607795D01*
X1513064Y611400D02*
Y624830D01*
X1532930Y610061D02*
X1534120Y608870D01*
Y605830D02*
Y608870D01*
Y605830D02*
X1534160Y605790D01*
X1513064Y611400D02*
X1514403Y610061D01*
X1532930D01*
X1483315Y598469D02*
X1499392Y582392D01*
Y574518D02*
X1516440Y557470D01*
X1499392Y574518D02*
Y582392D01*
X1497611Y595216D02*
X1520152Y572674D01*
Y563847D02*
Y572674D01*
X1566909Y391000D02*
X1579372Y378536D01*
X629920Y464820D02*
X632460D01*
D89*
X1502300Y1027300D02*
D03*
X1527700Y963800D02*
D03*
Y989200D02*
D03*
Y1014600D02*
D03*
X1502300Y951100D02*
D03*
Y976500D02*
D03*
Y1001900D02*
D03*
D98*
X1640200Y919600D02*
D03*
X1625000Y1046100D02*
D03*
Y945000D02*
D03*
X1640200Y1020700D02*
D03*
D102*
X1591200Y1040000D02*
D03*
Y925700D02*
D03*
D103*
X1527700Y938400D02*
D03*
D104*
X1560700Y1061600D02*
D03*
Y904100D02*
D03*
D105*
X1440700Y1052550D02*
D03*
X1354300D02*
D03*
D106*
X1440700Y1010750D02*
D03*
X1354300D02*
D03*
D107*
X1426400Y1015750D02*
D03*
X1368600D02*
D03*
X482350Y898200D02*
D03*
Y956000D02*
D03*
D108*
X549440Y314960D02*
D03*
X599440D02*
D03*
X452120Y746760D02*
D03*
Y796760D02*
D03*
D111*
X487350Y883900D02*
D03*
Y970300D02*
D03*
D112*
X445550Y883900D02*
D03*
Y970300D02*
D03*
D115*
X708384Y631616D02*
X725000Y615000D01*
X707158Y643108D02*
X709000Y644950D01*
X707158Y637580D02*
Y643108D01*
X708384Y631616D02*
Y636354D01*
X709000Y644950D02*
Y659154D01*
X707158Y637580D02*
X708384Y636354D01*
X692000Y676154D02*
X709000Y659154D01*
X711073Y908685D02*
Y928626D01*
X692000Y676154D02*
Y695000D01*
X725000Y603000D02*
Y615000D01*
D116*
X1230048Y304744D02*
X1238512D01*
Y302628D01*
X1230048Y294164D01*
Y292048D01*
D118*
X1290000Y519119D02*
D03*
X1275235Y525235D02*
D03*
X1269119Y540000D02*
D03*
X1275235Y554765D02*
D03*
X1290000Y560881D02*
D03*
X1304765Y554765D02*
D03*
X1310881Y540000D02*
D03*
X1304765Y525235D02*
D03*
X724765D02*
D03*
X730881Y540000D02*
D03*
X724765Y554765D02*
D03*
X710000Y560881D02*
D03*
X695235Y554765D02*
D03*
X689119Y540000D02*
D03*
X695235Y525235D02*
D03*
X710000Y519119D02*
D03*
Y1009119D02*
D03*
X695235Y1015235D02*
D03*
X689119Y1030000D02*
D03*
X695235Y1044765D02*
D03*
X710000Y1050881D02*
D03*
X724765Y1044765D02*
D03*
X730881Y1030000D02*
D03*
X724765Y1015235D02*
D03*
X1304765D02*
D03*
X1310881Y1030000D02*
D03*
X1304765Y1044765D02*
D03*
X1290000Y1050881D02*
D03*
X1275235Y1044765D02*
D03*
X1269119Y1030000D02*
D03*
X1275235Y1015235D02*
D03*
X1290000Y1009119D02*
D03*
X460000Y299119D02*
D03*
X445235Y305235D02*
D03*
X439119Y320000D02*
D03*
X445235Y334765D02*
D03*
X460000Y340881D02*
D03*
X474765Y334765D02*
D03*
X480881Y320000D02*
D03*
X474765Y305235D02*
D03*
X1644765D02*
D03*
X1650881Y320000D02*
D03*
X1644765Y334765D02*
D03*
X1630000Y340881D02*
D03*
X1615235Y334765D02*
D03*
X1609119Y320000D02*
D03*
X1615235Y305235D02*
D03*
X1630000Y299119D02*
D03*
X460000Y1019119D02*
D03*
X445235Y1025235D02*
D03*
X439119Y1040000D02*
D03*
X445235Y1054765D02*
D03*
X460000Y1060881D02*
D03*
X474765Y1054765D02*
D03*
X480881Y1040000D02*
D03*
X474765Y1025235D02*
D03*
D119*
X1290000Y540000D02*
D03*
X710000D02*
D03*
Y1030000D02*
D03*
X1290000D02*
D03*
X460000Y320000D02*
D03*
X1630000D02*
D03*
X460000Y1040000D02*
D03*
D120*
X1114300Y1042700D02*
D03*
X1165100D02*
D03*
X987300D02*
D03*
X1063500Y1017300D02*
D03*
X1241300D02*
D03*
X911100Y1042700D02*
D03*
X860300Y1017300D02*
D03*
X809500Y1042700D02*
D03*
X961900Y1017300D02*
D03*
X1241300Y1042700D02*
D03*
X1215900D02*
D03*
Y1017300D02*
D03*
X1190500Y1042700D02*
D03*
Y1017300D02*
D03*
X1165100D02*
D03*
X1139700Y1042700D02*
D03*
Y1017300D02*
D03*
X1114300D02*
D03*
X1088900Y1042700D02*
D03*
Y1017300D02*
D03*
X1063500Y1042700D02*
D03*
X1038100D02*
D03*
Y1017300D02*
D03*
X1012700Y1042700D02*
D03*
Y1017300D02*
D03*
X987300D02*
D03*
X961900Y1042700D02*
D03*
X936500D02*
D03*
Y1017300D02*
D03*
X911100D02*
D03*
X885700Y1042700D02*
D03*
Y1017300D02*
D03*
X860300Y1042700D02*
D03*
X834900D02*
D03*
Y1017300D02*
D03*
X809500D02*
D03*
X784100Y1042700D02*
D03*
Y1017300D02*
D03*
X758700Y1042700D02*
D03*
D121*
X1193800Y889000D02*
D03*
X893760Y971800D02*
D03*
X1291400Y717300D02*
D03*
X1193800Y660400D02*
D03*
X1061400Y489200D02*
D03*
X1036000D02*
D03*
X858520Y543560D02*
D03*
X755650Y405130D02*
D03*
X652780Y1033780D02*
D03*
X755650Y379730D02*
D03*
X652780Y1008380D02*
D03*
X959800Y489200D02*
D03*
X652780Y982980D02*
D03*
X1168400Y660400D02*
D03*
X985200Y489200D02*
D03*
X934400D02*
D03*
X1291400Y768100D02*
D03*
X704850Y405130D02*
D03*
X730250Y379730D02*
D03*
X652780Y957580D02*
D03*
X730250Y405130D02*
D03*
X995360Y971800D02*
D03*
X817560D02*
D03*
X842960D02*
D03*
X868360D02*
D03*
X919160D02*
D03*
X944560D02*
D03*
X969960D02*
D03*
X1020760D02*
D03*
X1239200Y489200D02*
D03*
X1213800D02*
D03*
X1188400D02*
D03*
X1163000D02*
D03*
X1137600D02*
D03*
X1266000Y717300D02*
D03*
X1291400Y742700D02*
D03*
X1266000D02*
D03*
X627380Y957580D02*
D03*
Y982980D02*
D03*
Y1008380D02*
D03*
X1168400Y889000D02*
D03*
X1143000D02*
D03*
X1117600D02*
D03*
X1092200D02*
D03*
X1066800D02*
D03*
X1041400D02*
D03*
X952500Y381000D02*
D03*
X977900D02*
D03*
X1003300D02*
D03*
X952500Y406400D02*
D03*
X977900D02*
D03*
X833120Y543560D02*
D03*
X807720D02*
D03*
X909000Y489200D02*
D03*
X1010600D02*
D03*
X1086800Y971800D02*
D03*
X1112200D02*
D03*
X1137600D02*
D03*
X1163000D02*
D03*
X1188400D02*
D03*
X1213800D02*
D03*
X1239200D02*
D03*
X1041400Y660400D02*
D03*
X1066800D02*
D03*
X1092200D02*
D03*
X1117600D02*
D03*
X1143000D02*
D03*
D122*
X1492400Y317500D02*
D03*
X1387400D02*
D03*
X528600Y1041400D02*
D03*
X1422400Y317500D02*
D03*
X1457400D02*
D03*
X563600Y1041400D02*
D03*
X1562400Y317500D02*
D03*
X1527400D02*
D03*
D123*
X1054100Y406400D02*
D03*
Y381000D02*
D03*
X825500Y406400D02*
D03*
Y381000D02*
D03*
X1028700D02*
D03*
Y406400D02*
D03*
X800100Y381000D02*
D03*
Y406400D02*
D03*
X850900Y381000D02*
D03*
X876300D02*
D03*
X901700D02*
D03*
X927100D02*
D03*
X850900Y406400D02*
D03*
X876300D02*
D03*
X901700D02*
D03*
X1130300D02*
D03*
X1104900D02*
D03*
X1079500D02*
D03*
X1155700Y381000D02*
D03*
X1130300D02*
D03*
X1104900D02*
D03*
X1079500D02*
D03*
D124*
X535738Y952246D02*
D03*
X570738D02*
D03*
D125*
X457200Y635000D02*
D03*
Y609600D02*
D03*
Y584200D02*
D03*
Y533400D02*
D03*
Y558800D02*
D03*
Y508000D02*
D03*
Y482600D02*
D03*
Y457200D02*
D03*
Y431800D02*
D03*
X482600Y457200D02*
D03*
Y558800D02*
D03*
Y584200D02*
D03*
Y482600D02*
D03*
Y431800D02*
D03*
Y533400D02*
D03*
Y508000D02*
D03*
Y635000D02*
D03*
Y609600D02*
D03*
X457200Y406400D02*
D03*
D126*
X1416721Y487682D02*
D03*
X1621221D02*
D03*
D127*
X782320Y543560D02*
D03*
X704850Y379730D02*
D03*
X1046160Y971800D02*
D03*
X1264600Y489200D02*
D03*
X1016000Y889000D02*
D03*
X1003300Y406400D02*
D03*
X1086800Y489200D02*
D03*
X1264600Y971800D02*
D03*
X1016000Y660400D02*
D03*
D128*
X482600Y406400D02*
D03*
D129*
X758700Y1017300D02*
D03*
D130*
X927100Y406400D02*
D03*
X1155700D02*
D03*
D131*
X1266000Y768100D02*
D03*
X627380Y1033780D02*
D03*
D132*
X1651000Y965200D02*
D03*
Y812800D02*
D03*
Y762000D02*
D03*
Y711200D02*
D03*
Y660400D02*
D03*
Y558800D02*
D03*
Y508000D02*
D03*
Y457200D02*
D03*
X1638300Y1041400D02*
D03*
X1625600Y1016000D02*
D03*
X1638300Y990600D02*
D03*
Y939800D02*
D03*
X1625600Y914400D02*
D03*
X1638300Y889000D02*
D03*
X1625600Y863600D02*
D03*
X1638300Y787400D02*
D03*
X1625600Y762000D02*
D03*
X1638300Y736600D02*
D03*
Y685800D02*
D03*
X1625600Y660400D02*
D03*
X1638300Y635000D02*
D03*
Y584200D02*
D03*
X1625600Y558800D02*
D03*
X1638300Y533400D02*
D03*
X1625600Y508000D02*
D03*
X1638300Y482600D02*
D03*
X1625600Y457200D02*
D03*
X1638300Y431800D02*
D03*
X1625600Y406400D02*
D03*
X1638300Y381000D02*
D03*
X1625600Y355600D02*
D03*
X1612900Y1041400D02*
D03*
X1600200Y1016000D02*
D03*
Y965200D02*
D03*
X1612900Y939800D02*
D03*
Y889000D02*
D03*
Y838200D02*
D03*
X1600200Y812800D02*
D03*
X1612900Y787400D02*
D03*
Y736600D02*
D03*
X1600200Y660400D02*
D03*
X1612900Y635000D02*
D03*
Y584200D02*
D03*
X1600200Y558800D02*
D03*
X1612900Y533400D02*
D03*
X1600200Y508000D02*
D03*
X1612900Y482600D02*
D03*
X1600200Y457200D02*
D03*
Y355600D02*
D03*
Y304800D02*
D03*
X1574800Y1016000D02*
D03*
X1587500Y889000D02*
D03*
Y838200D02*
D03*
Y787400D02*
D03*
X1574800Y660400D02*
D03*
X1587500Y635000D02*
D03*
Y584200D02*
D03*
Y533400D02*
D03*
X1574800Y508000D02*
D03*
Y457200D02*
D03*
X1587500Y330200D02*
D03*
X1574800Y304800D02*
D03*
X1549400Y762000D02*
D03*
Y508000D02*
D03*
Y457200D02*
D03*
Y304800D02*
D03*
X1536700Y1041400D02*
D03*
X1524000Y762000D02*
D03*
Y660400D02*
D03*
X1536700Y482600D02*
D03*
X1524000Y457200D02*
D03*
X1536700Y431800D02*
D03*
X1524000Y355600D02*
D03*
X1536700Y330200D02*
D03*
X1498600Y965200D02*
D03*
X1511300Y939800D02*
D03*
X1498600Y660400D02*
D03*
X1511300Y635000D02*
D03*
Y330200D02*
D03*
X1485900Y1041400D02*
D03*
X1473200Y609600D02*
D03*
Y406400D02*
D03*
Y355600D02*
D03*
Y304800D02*
D03*
X1447800Y812800D02*
D03*
X1460500Y431800D02*
D03*
X1447800Y355600D02*
D03*
Y304800D02*
D03*
X1422400Y457200D02*
D03*
X1435100Y431800D02*
D03*
Y330200D02*
D03*
X1397000Y355600D02*
D03*
Y304800D02*
D03*
X1384300Y584200D02*
D03*
X1371600Y558800D02*
D03*
X1384300Y533400D02*
D03*
Y431800D02*
D03*
X1371600Y355600D02*
D03*
Y304800D02*
D03*
X1346200Y558800D02*
D03*
X1358900Y482600D02*
D03*
Y431800D02*
D03*
X1346200Y406400D02*
D03*
Y304800D02*
D03*
X1333500Y1041400D02*
D03*
Y482600D02*
D03*
Y431800D02*
D03*
Y381000D02*
D03*
X1320800Y355600D02*
D03*
Y304800D02*
D03*
X1308100Y889000D02*
D03*
X1295400Y406400D02*
D03*
X1308100Y381000D02*
D03*
X1270000Y406400D02*
D03*
Y304800D02*
D03*
X1244600Y914400D02*
D03*
Y406400D02*
D03*
X1257300Y381000D02*
D03*
X1244600Y355600D02*
D03*
X1219200Y406400D02*
D03*
X1231900Y381000D02*
D03*
X1206500Y939800D02*
D03*
Y431800D02*
D03*
X1193800Y406400D02*
D03*
Y355600D02*
D03*
X1181100Y431800D02*
D03*
X1168400Y355600D02*
D03*
X1117600D02*
D03*
X1092200D02*
D03*
X1079500Y889000D02*
D03*
X1066800Y355600D02*
D03*
X1041400D02*
D03*
X1016000D02*
D03*
X990600Y406400D02*
D03*
Y355600D02*
D03*
X965200Y457200D02*
D03*
Y406400D02*
D03*
Y355600D02*
D03*
X939800Y457200D02*
D03*
Y355600D02*
D03*
X825500Y635000D02*
D03*
Y533400D02*
D03*
X787400Y355600D02*
D03*
X762000Y304800D02*
D03*
X736600Y508000D02*
D03*
X749300Y330200D02*
D03*
X736600Y304800D02*
D03*
X723900Y584200D02*
D03*
X711200Y508000D02*
D03*
Y355600D02*
D03*
X723900Y330200D02*
D03*
X711200Y304800D02*
D03*
X685800Y508000D02*
D03*
Y406400D02*
D03*
Y355600D02*
D03*
Y304800D02*
D03*
X660400Y558800D02*
D03*
Y406400D02*
D03*
Y355600D02*
D03*
X647700Y787400D02*
D03*
X635000Y355600D02*
D03*
X647700Y330200D02*
D03*
X609600Y304800D02*
D03*
X584200D02*
D03*
X558800Y1016000D02*
D03*
X571500Y330200D02*
D03*
X558800Y304800D02*
D03*
X546100Y1041400D02*
D03*
X533400Y1016000D02*
D03*
Y660400D02*
D03*
Y406400D02*
D03*
X546100Y381000D02*
D03*
X520700Y990600D02*
D03*
X508000Y660400D02*
D03*
Y609600D02*
D03*
X520700Y482600D02*
D03*
X508000Y406400D02*
D03*
X520700Y381000D02*
D03*
X495300Y1041400D02*
D03*
X482600Y1016000D02*
D03*
X495300Y990600D02*
D03*
X482600Y914400D02*
D03*
X495300Y685800D02*
D03*
Y635000D02*
D03*
Y533400D02*
D03*
Y482600D02*
D03*
Y431800D02*
D03*
Y381000D02*
D03*
Y330200D02*
D03*
X457200Y914400D02*
D03*
X469900Y685800D02*
D03*
X457200Y660400D02*
D03*
X431800Y1016000D02*
D03*
Y965200D02*
D03*
Y914400D02*
D03*
X444500Y838200D02*
D03*
Y685800D02*
D03*
Y381000D02*
D03*
X431800Y355600D02*
D03*
Y304800D02*
D03*
X719000Y638464D02*
D03*
X649120Y899120D02*
D03*
X1028194Y677746D02*
D03*
X1104000Y678000D02*
D03*
X1363000Y994000D02*
D03*
X1320800Y1003200D02*
D03*
X1458000Y502000D02*
D03*
X1055618Y776680D02*
D03*
X920000Y632000D02*
D03*
X880109Y767070D02*
D03*
X442000Y865000D02*
D03*
X508000Y325000D02*
D03*
X1286000Y698000D02*
D03*
X1477000Y765000D02*
D03*
X1526000Y574000D02*
D03*
X1548000Y628000D02*
D03*
X1616000Y627000D02*
D03*
X1657000Y630000D02*
D03*
X1659000Y463000D02*
D03*
X506000Y303000D02*
D03*
X638000Y304000D02*
D03*
X639000Y325000D02*
D03*
X700000Y684000D02*
D03*
X736938Y615300D02*
D03*
X577000Y607000D02*
D03*
X715000Y588000D02*
D03*
X725000Y603000D02*
D03*
X628000Y563000D02*
D03*
X638000Y562000D02*
D03*
X691000Y724000D02*
D03*
X660000Y697000D02*
D03*
X466000Y986580D02*
D03*
Y1000000D02*
D03*
X503000Y1019000D02*
D03*
X1400000Y1037500D02*
D03*
X1549400Y835660D02*
D03*
X1653000Y827000D02*
D03*
X1543042Y800108D02*
D03*
X1539240Y834390D02*
D03*
X1529341Y832085D02*
D03*
X1315720Y919480D02*
D03*
X972000Y923000D02*
D03*
X1158250Y827920D02*
D03*
X1246848Y823252D02*
D03*
X1052000Y840000D02*
D03*
X955000Y844000D02*
D03*
X1039000Y840000D02*
D03*
X1027000D02*
D03*
X1016896Y834937D02*
D03*
X1545110Y786130D02*
D03*
X1572260Y690880D02*
D03*
X1549400Y732790D02*
D03*
X1496060Y754380D02*
D03*
X1191000Y799000D02*
D03*
X1184000D02*
D03*
X1198000D02*
D03*
X1126914Y778812D02*
D03*
X1159510Y735047D02*
D03*
X1142000Y722000D02*
D03*
X1124000Y766366D02*
D03*
X1032000Y742000D02*
D03*
X1038000Y732000D02*
D03*
X1027000D02*
D03*
X985000Y760072D02*
D03*
X1185000Y711000D02*
D03*
X1192000Y710000D02*
D03*
X1198000D02*
D03*
X768000Y792000D02*
D03*
X507500Y962500D02*
D03*
X522500Y952500D02*
D03*
X537500Y902500D02*
D03*
X515000Y875000D02*
D03*
X577000Y795000D02*
D03*
X559000D02*
D03*
X769000Y665000D02*
D03*
X648000Y724000D02*
D03*
X779000Y608000D02*
D03*
X600000Y731000D02*
D03*
X589000Y750000D02*
D03*
X1619000Y818000D02*
D03*
X1598000Y862000D02*
D03*
X1612000Y876000D02*
D03*
X1606000Y848000D02*
D03*
X759333Y741998D02*
D03*
X714000Y728000D02*
D03*
X1254000Y708000D02*
D03*
X575000Y764000D02*
D03*
X604000Y914000D02*
D03*
X645391Y944046D02*
D03*
X486000Y665000D02*
D03*
X780918Y637082D02*
D03*
X1144000Y686000D02*
D03*
X1234000Y763000D02*
D03*
X1222000D02*
D03*
X1085895Y677937D02*
D03*
X1059000Y678000D02*
D03*
X1037896Y677937D02*
D03*
X1017000Y788000D02*
D03*
Y797000D02*
D03*
Y806000D02*
D03*
X1593976Y679646D02*
D03*
X1289050Y919480D02*
D03*
X1521460Y778510D02*
D03*
X739685Y999367D02*
D03*
X567500Y915000D02*
D03*
X507045Y937590D02*
D03*
X505000Y952500D02*
D03*
X527500Y905000D02*
D03*
X507822Y924560D02*
D03*
D133*
X600000Y700922D02*
D03*
X602000Y690000D02*
D03*
X595000Y716000D02*
D03*
X593113Y721681D02*
D03*
X572698Y660000D02*
D03*
X563000Y667302D02*
D03*
X794219Y351917D02*
D03*
X662293Y336723D02*
D03*
X826364Y711242D02*
D03*
X843554Y771000D02*
D03*
X862127Y745146D02*
D03*
X849311Y749733D02*
D03*
X862000Y738000D02*
D03*
X786178Y692028D02*
D03*
X804281Y736595D02*
D03*
X815151Y768333D02*
D03*
X1130000Y830000D02*
D03*
X701316Y642000D02*
D03*
X1322070Y805180D02*
D03*
X995000Y709000D02*
D03*
X1006157Y720555D02*
D03*
X1495000Y745000D02*
D03*
X681000Y1059000D02*
D03*
X1336565Y910161D02*
D03*
X1349222Y809392D02*
D03*
X1349126Y855307D02*
D03*
X1362710Y808990D02*
D03*
X877000Y481000D02*
D03*
X888000Y498000D02*
D03*
X1347000Y991000D02*
D03*
X1419817Y991013D02*
D03*
X1472121Y941460D02*
D03*
X1438000Y994000D02*
D03*
X1430927Y994302D02*
D03*
X1401000Y957000D02*
D03*
X1430000Y981000D02*
D03*
X1364153Y938501D02*
D03*
X1269920D02*
D03*
X1292178Y930627D02*
D03*
X1259920Y938501D02*
D03*
X1400937Y974090D02*
D03*
X1406264Y974359D02*
D03*
X1320546Y942340D02*
D03*
X1345473Y944753D02*
D03*
X1357651D02*
D03*
X1398270Y948690D02*
D03*
X1391666Y956818D02*
D03*
X1383018Y994906D02*
D03*
X1320166Y960778D02*
D03*
X1368532Y985164D02*
D03*
X1483106Y541315D02*
D03*
X1462614Y541809D02*
D03*
X735000Y929000D02*
D03*
X746322Y922002D02*
D03*
X762000Y892000D02*
D03*
X764713Y899722D02*
D03*
X755824Y900552D02*
D03*
X750698Y868293D02*
D03*
X760188Y881380D02*
D03*
X750620Y862960D02*
D03*
X726000Y948000D02*
D03*
X740275Y935175D02*
D03*
X738598Y944634D02*
D03*
X748960Y941314D02*
D03*
X748978Y948856D02*
D03*
X769239Y909574D02*
D03*
X764436Y913679D02*
D03*
X819000Y922000D02*
D03*
X896000Y916000D02*
D03*
X885175Y930698D02*
D03*
X892714Y923509D02*
D03*
X777000Y821000D02*
D03*
X769469Y824238D02*
D03*
X781568Y827568D02*
D03*
X781000Y840000D02*
D03*
X775000Y849000D02*
D03*
X872000Y772000D02*
D03*
X898000Y630000D02*
D03*
X908000Y645000D02*
D03*
X897477Y741864D02*
D03*
X878461Y743733D02*
D03*
X893895Y751113D02*
D03*
X974880Y563082D02*
D03*
X927000Y663000D02*
D03*
X934000Y672000D02*
D03*
X1341307Y654114D02*
D03*
X1330715Y654509D02*
D03*
X1353000Y669000D02*
D03*
X1351000Y620000D02*
D03*
X1352417Y643114D02*
D03*
X1198404Y589250D02*
D03*
X1229991Y603714D02*
D03*
X1008333Y636920D02*
D03*
X958171Y629581D02*
D03*
X893000Y658000D02*
D03*
X895000Y645046D02*
D03*
X879155Y673416D02*
D03*
X884132Y671497D02*
D03*
X887000Y667000D02*
D03*
X912211Y706762D02*
D03*
X888000Y729000D02*
D03*
X872000Y530000D02*
D03*
X891000Y536000D02*
D03*
X861531Y690740D02*
D03*
X880602Y760125D02*
D03*
X873000Y753000D02*
D03*
X886780Y742645D02*
D03*
X899089Y736224D02*
D03*
X871000Y727000D02*
D03*
X864432Y722432D02*
D03*
X861574Y727088D02*
D03*
X917656Y707080D02*
D03*
X929640D02*
D03*
X872545Y687261D02*
D03*
X866642Y689214D02*
D03*
X855893Y691794D02*
D03*
X881784Y748784D02*
D03*
X893970Y758987D02*
D03*
X947000Y768000D02*
D03*
X918683Y764989D02*
D03*
X855874Y868042D02*
D03*
X872543Y647412D02*
D03*
X849334Y626237D02*
D03*
X848486Y618349D02*
D03*
X848102Y844428D02*
D03*
X848000Y852302D02*
D03*
X863874Y836000D02*
D03*
X943939Y672939D02*
D03*
X856000Y662000D02*
D03*
X868511Y650903D02*
D03*
X979197Y675513D02*
D03*
X984611D02*
D03*
X1390506Y765616D02*
D03*
X867290Y680178D02*
D03*
X873668Y673913D02*
D03*
X868425Y674894D02*
D03*
X779163Y877264D02*
D03*
X781000Y860000D02*
D03*
X775684Y860440D02*
D03*
X753484Y849916D02*
D03*
X768477Y853667D02*
D03*
X773000Y833327D02*
D03*
X1497000Y807000D02*
D03*
X904476Y726524D02*
D03*
X901838Y731275D02*
D03*
X913817Y749527D02*
D03*
X912596Y759941D02*
D03*
X1054719Y534925D02*
D03*
X441620Y814958D02*
D03*
X1106982Y591069D02*
D03*
X1143224Y597569D02*
D03*
X1270894Y630047D02*
D03*
X1233170Y621030D02*
D03*
X1255266Y584447D02*
D03*
Y610447D02*
D03*
Y597447D02*
D03*
X1238250Y612140D02*
D03*
X701926Y657966D02*
D03*
X702588Y652673D02*
D03*
X703158Y647370D02*
D03*
X714000Y615498D02*
D03*
X683869Y695131D02*
D03*
X563000Y612698D02*
D03*
X580000Y627302D02*
D03*
Y632698D02*
D03*
X597000Y612000D02*
D03*
X706000Y607000D02*
D03*
X924687Y703580D02*
D03*
X991406Y602278D02*
D03*
X1065324Y578098D02*
D03*
X1188720Y578178D02*
D03*
X1310160Y583645D02*
D03*
X899160Y542418D02*
D03*
X1095502Y558679D02*
D03*
X1031240Y515188D02*
D03*
X1016024Y515212D02*
D03*
X1023620Y567250D02*
D03*
X1161542Y558679D02*
D03*
X1053512Y603378D02*
D03*
X1040223D02*
D03*
X1178165Y621666D02*
D03*
X1158320Y633778D02*
D03*
X1227502Y558679D02*
D03*
X1119378Y628650D02*
D03*
X1076960Y629919D02*
D03*
X1269920Y650621D02*
D03*
X856000Y836306D02*
D03*
X1554480Y1022502D02*
D03*
X1478280Y996622D02*
D03*
X1473120Y1024253D02*
D03*
X1472121Y958460D02*
D03*
X1570352Y953618D02*
D03*
X1503680Y896620D02*
D03*
X1464203Y895743D02*
D03*
X1438640Y949960D02*
D03*
X1437640Y935662D02*
D03*
X1453725Y884841D02*
D03*
X1347160Y908685D02*
D03*
X1507500Y860000D02*
D03*
Y845000D02*
D03*
X1500000Y837500D02*
D03*
X1553210Y826770D02*
D03*
X1492500Y860000D02*
D03*
X1485000Y852500D02*
D03*
X1460082Y850991D02*
D03*
X1437746Y877550D02*
D03*
X1485000Y845000D02*
D03*
X1492500Y837500D02*
D03*
X1398270Y826770D02*
D03*
X1417320Y805180D02*
D03*
X1336040Y1001702D02*
D03*
X1280800Y857378D02*
D03*
X1244600Y908050D02*
D03*
X920000Y908000D02*
D03*
X936000Y876000D02*
D03*
X888000Y892000D02*
D03*
X912000Y884000D02*
D03*
X896000Y868000D02*
D03*
X928000Y852000D02*
D03*
X896000D02*
D03*
X880000Y868000D02*
D03*
X1133492Y835960D02*
D03*
X1133898Y826318D02*
D03*
X1332230Y807720D02*
D03*
X1150925Y803017D02*
D03*
X896000Y828000D02*
D03*
X920000Y820000D02*
D03*
X888000D02*
D03*
Y804000D02*
D03*
X1417843Y783742D02*
D03*
X1401587Y666422D02*
D03*
X1492402Y600784D02*
D03*
X1458798Y599578D02*
D03*
X1386840Y786130D02*
D03*
X1389380Y709930D02*
D03*
X1367023Y787385D02*
D03*
X1376680Y743041D02*
D03*
X1394281Y666115D02*
D03*
X1361676Y650367D02*
D03*
X1538097Y538983D02*
D03*
X1524214Y509524D02*
D03*
X1606160Y452802D02*
D03*
X1595910Y401168D02*
D03*
X1633462Y368600D02*
D03*
X1498898Y409800D02*
D03*
X1485900Y404607D02*
D03*
X1587500Y357198D02*
D03*
X1481440Y555828D02*
D03*
X1473200Y546100D02*
D03*
X1450999Y555789D02*
D03*
X1446738Y548232D02*
D03*
X1449220Y512379D02*
D03*
X1447140Y484582D02*
D03*
X1427480Y509142D02*
D03*
X1389380Y471498D02*
D03*
X1344897Y369267D02*
D03*
X1159000Y794000D02*
D03*
X1135000Y747482D02*
D03*
X1132093Y739821D02*
D03*
X1325880Y730578D02*
D03*
X1134239Y731734D02*
D03*
X912000Y796000D02*
D03*
X936000Y788000D02*
D03*
X880000Y780000D02*
D03*
X904000Y772000D02*
D03*
X1329354Y685673D02*
D03*
X1340269Y593672D02*
D03*
X1318166Y699275D02*
D03*
X1325880Y696535D02*
D03*
X1322866Y668401D02*
D03*
X1337207Y522402D02*
D03*
X1305830Y410216D02*
D03*
X1257570Y426656D02*
D03*
X1223042Y392128D02*
D03*
X1298480Y313562D02*
D03*
X1152000Y710000D02*
D03*
X1132000Y689000D02*
D03*
X988697Y656141D02*
D03*
X949429D02*
D03*
X856000Y900000D02*
D03*
X832000Y908000D02*
D03*
X824000Y884000D02*
D03*
X848000Y876000D02*
D03*
X840000Y868000D02*
D03*
X832000Y860000D02*
D03*
X816000D02*
D03*
X731058Y961824D02*
D03*
X808000Y916000D02*
D03*
X707390Y970280D02*
D03*
X800000Y892000D02*
D03*
X792000Y868000D02*
D03*
X709422Y902462D02*
D03*
X702917Y883309D02*
D03*
X848000Y836000D02*
D03*
X832000Y835694D02*
D03*
X856000Y812000D02*
D03*
X848000Y820000D02*
D03*
Y788000D02*
D03*
X808000Y828000D02*
D03*
X800000Y804000D02*
D03*
X824000Y796000D02*
D03*
X700913Y794512D02*
D03*
X701600Y768604D02*
D03*
X689217Y977053D02*
D03*
X685800Y947420D02*
D03*
X664860Y941158D02*
D03*
X631317Y929488D02*
D03*
X681600Y880237D02*
D03*
X679499Y869315D02*
D03*
X647499Y866140D02*
D03*
X565762Y880872D02*
D03*
X565230Y866062D02*
D03*
X532100Y988898D02*
D03*
X532750Y969848D02*
D03*
X669163Y847032D02*
D03*
X690000Y843000D02*
D03*
X686689Y838200D02*
D03*
X685730Y805851D02*
D03*
X596890Y838973D02*
D03*
X559128Y859631D02*
D03*
X548264Y860298D02*
D03*
X489000Y843000D02*
D03*
X519913Y835045D02*
D03*
X474000Y840000D02*
D03*
X520060Y784098D02*
D03*
X462620Y814958D02*
D03*
X812909Y732297D02*
D03*
X762962Y751148D02*
D03*
X761317Y733250D02*
D03*
X784609Y683495D02*
D03*
X713232Y693166D02*
D03*
X681736Y725043D02*
D03*
X713994Y674624D02*
D03*
X795408Y456506D02*
D03*
X717550Y467298D02*
D03*
X702542Y632994D02*
D03*
X703000Y628000D02*
D03*
Y617586D02*
D03*
X704850Y497902D02*
D03*
X679450D02*
D03*
X649000Y586000D02*
D03*
X656463Y565738D02*
D03*
X622000Y693000D02*
D03*
X595000Y672000D02*
D03*
X572008Y645974D02*
D03*
X548264Y758698D02*
D03*
X548264Y733298D02*
D03*
X458818Y756760D02*
D03*
X441620Y711958D02*
D03*
X548264Y707708D02*
D03*
X563000Y647302D02*
D03*
X462620Y711958D02*
D03*
X539750Y619808D02*
D03*
X587502Y351028D02*
D03*
X563000Y572302D02*
D03*
Y537303D02*
D03*
Y592302D02*
D03*
Y517302D02*
D03*
X538000Y605638D02*
D03*
X563000Y437368D02*
D03*
Y457302D02*
D03*
Y416433D02*
D03*
Y377302D02*
D03*
Y397302D02*
D03*
Y497302D02*
D03*
Y477302D02*
D03*
X1007921Y741172D02*
D03*
X1115000Y824000D02*
D03*
X1570990Y850900D02*
D03*
X1407287Y880110D02*
D03*
X1401953D02*
D03*
X1519682Y875030D02*
D03*
Y882592D02*
D03*
X826968Y690951D02*
D03*
X1322595Y684889D02*
D03*
X575000Y770000D02*
D03*
X612140Y937260D02*
D03*
X657787Y940437D02*
D03*
X695112Y875504D02*
D03*
X602217Y886665D02*
D03*
X511698Y841400D02*
D03*
X556260Y807720D02*
D03*
X639000Y699000D02*
D03*
X628000Y693000D02*
D03*
X631317Y704723D02*
D03*
X635000Y736600D02*
D03*
X602065Y582774D02*
D03*
X604000Y594000D02*
D03*
X596851Y595581D02*
D03*
X595000Y606000D02*
D03*
X628000Y586000D02*
D03*
X622000D02*
D03*
X631000Y579000D02*
D03*
X638000Y584000D02*
D03*
X788311Y642261D02*
D03*
X702542Y612272D02*
D03*
Y602580D02*
D03*
X596000Y647000D02*
D03*
X594046Y634230D02*
D03*
X575380Y693859D02*
D03*
X593000Y629000D02*
D03*
X644000Y584000D02*
D03*
X671000Y587000D02*
D03*
X675637Y584363D02*
D03*
X696190Y585434D02*
D03*
X690874Y585000D02*
D03*
X683000Y586000D02*
D03*
X692000Y695000D02*
D03*
X672000Y696000D02*
D03*
X645414D02*
D03*
X595000Y681000D02*
D03*
X1168000Y694000D02*
D03*
X1161000Y803000D02*
D03*
X638000Y1047000D02*
D03*
X648000D02*
D03*
X795086Y970354D02*
D03*
X791162Y931908D02*
D03*
X807778Y933790D02*
D03*
X840623Y950026D02*
D03*
X792776Y965142D02*
D03*
X784902Y965706D02*
D03*
X777028Y965327D02*
D03*
X810683Y954436D02*
D03*
X874167Y923387D02*
D03*
X730250Y982980D02*
D03*
X702610Y985938D02*
D03*
X956000Y834000D02*
D03*
X935937Y828000D02*
D03*
X927937Y820042D02*
D03*
X954620Y813196D02*
D03*
X1558520Y636538D02*
D03*
X1282700Y910590D02*
D03*
X1286304Y803501D02*
D03*
X1258570Y802640D02*
D03*
X1275357Y800481D02*
D03*
X1284753Y789436D02*
D03*
X1408704Y783804D02*
D03*
X1376680Y810260D02*
D03*
X1486408Y752982D02*
D03*
X1606550Y750570D02*
D03*
X1607820Y741680D02*
D03*
Y731520D02*
D03*
X1518920Y678180D02*
D03*
X1494790Y725170D02*
D03*
X1493520Y717169D02*
D03*
X1487186Y693960D02*
D03*
X1471902Y895515D02*
D03*
X1478167Y900788D02*
D03*
X1446010Y867796D02*
D03*
X1441793Y777409D02*
D03*
X1445260Y788670D02*
D03*
X1370773Y906945D02*
D03*
X1271918Y906015D02*
D03*
X689024Y983135D02*
D03*
X689134Y961780D02*
D03*
X763778Y981710D02*
D03*
X751920Y981662D02*
D03*
X782320Y981710D02*
D03*
X886460Y1002152D02*
D03*
X903996Y981954D02*
D03*
X902970Y958850D02*
D03*
X1006205Y849523D02*
D03*
X1033233Y865589D02*
D03*
X1015208D02*
D03*
X827842Y975110D02*
D03*
X884115Y976664D02*
D03*
X884469Y962496D02*
D03*
X1023620Y955421D02*
D03*
X513080Y905510D02*
D03*
X510000Y970000D02*
D03*
X1350010Y466090D02*
D03*
X1225550Y678180D02*
D03*
X1324610Y576580D02*
D03*
X1327043Y416113D02*
D03*
X929640Y448310D02*
D03*
X941070Y445770D02*
D03*
X1302395Y630057D02*
D03*
X1328293Y596443D02*
D03*
X1369060Y743041D02*
D03*
X1261001Y921456D02*
D03*
X574040Y815340D02*
D03*
X562610Y807720D02*
D03*
X555593Y749634D02*
D03*
X480445Y741783D02*
D03*
X491109Y745808D02*
D03*
X529592Y695912D02*
D03*
X1350890Y702517D02*
D03*
X1303147Y688661D02*
D03*
X1418732Y705739D02*
D03*
X1356995Y906842D02*
D03*
X1413250Y917238D02*
D03*
X509111Y784876D02*
D03*
X510748Y792200D02*
D03*
X498983Y789032D02*
D03*
X1334628Y709739D02*
D03*
X1393750Y917238D02*
D03*
X1380750D02*
D03*
X1334592Y718566D02*
D03*
X1333500Y728980D02*
D03*
Y735330D02*
D03*
Y743204D02*
D03*
X1318630Y713215D02*
D03*
X1442640Y754239D02*
D03*
Y711647D02*
D03*
X1409700Y570230D02*
D03*
X1002726Y669417D02*
D03*
X1336040Y759460D02*
D03*
X1361440Y668020D02*
D03*
X1358680Y696791D02*
D03*
X1003427Y820420D02*
D03*
X960508Y827159D02*
D03*
X1220470Y626110D02*
D03*
X1276893Y814221D02*
D03*
X1188720Y600382D02*
D03*
X1197266Y597447D02*
D03*
X651510Y808990D02*
D03*
X1437640Y913458D02*
D03*
X1235777Y668731D02*
D03*
X1195070Y546100D02*
D03*
X1456643Y1024253D02*
D03*
X1463120Y1037542D02*
D03*
X1467006Y966262D02*
D03*
X1456643Y994950D02*
D03*
X1456653Y981578D02*
D03*
X932543Y960992D02*
D03*
X1447880Y994950D02*
D03*
X949960Y678053D02*
D03*
X973000Y708533D02*
D03*
X853606Y616822D02*
D03*
X943219Y573649D02*
D03*
X697891Y811914D02*
D03*
X704768Y820286D02*
D03*
X698500Y800100D02*
D03*
X666750Y754380D02*
D03*
X631317Y809498D02*
D03*
X595503Y784098D02*
D03*
X671703Y825500D02*
D03*
X663829Y825754D02*
D03*
X671902Y812800D02*
D03*
Y785920D02*
D03*
X694307Y837313D02*
D03*
X670560Y774700D02*
D03*
X711969Y846839D02*
D03*
X492088Y808880D02*
D03*
X498983Y777240D02*
D03*
X510748Y762280D02*
D03*
X613410Y745697D02*
D03*
X619760Y744200D02*
D03*
X1224219Y461010D02*
D03*
X1287780Y417830D02*
D03*
X1240132Y337650D02*
D03*
X1204713Y378636D02*
D03*
X664600Y718502D02*
D03*
X581406Y732790D02*
D03*
X562356Y730377D02*
D03*
X670560Y728980D02*
D03*
X700649Y728101D02*
D03*
X802640Y633730D02*
D03*
X957298Y569600D02*
D03*
X964466Y563082D02*
D03*
X824357Y642620D02*
D03*
X699291Y763085D02*
D03*
X970648Y819658D02*
D03*
X972902Y814824D02*
D03*
X864870Y924560D02*
D03*
X840001Y928370D02*
D03*
X819830Y936142D02*
D03*
X850900Y962660D02*
D03*
X866140Y960120D02*
D03*
X826394Y961766D02*
D03*
X820786Y958458D02*
D03*
X868733Y955167D02*
D03*
X832127Y929751D02*
D03*
X855980Y965200D02*
D03*
X826793Y929751D02*
D03*
X790502Y806414D02*
D03*
X1458798Y585578D02*
D03*
X1244600Y532130D02*
D03*
X1243203Y541679D02*
D03*
X1120902Y535686D02*
D03*
X1113282Y544830D02*
D03*
X998197Y700286D02*
D03*
X762127Y593090D02*
D03*
X766773Y475160D02*
D03*
X745683Y456123D02*
D03*
X769493Y452842D02*
D03*
X1460500Y692150D02*
D03*
X838200Y566420D02*
D03*
X822960Y575310D02*
D03*
X869186Y474726D02*
D03*
X763270Y561340D02*
D03*
X762000Y571500D02*
D03*
X760857Y603250D02*
D03*
Y584200D02*
D03*
X750697Y825500D02*
D03*
X719963Y802888D02*
D03*
X751967Y815086D02*
D03*
X749753Y878707D02*
D03*
X713359Y854442D02*
D03*
X728853Y836930D02*
D03*
X708032Y854723D02*
D03*
X731393Y849540D02*
D03*
X756920Y947420D02*
D03*
X545592Y496570D02*
D03*
X552450Y516890D02*
D03*
X545592Y471170D02*
D03*
X631317Y758698D02*
D03*
X1224280Y447040D02*
D03*
X1002411Y598462D02*
D03*
X1006348Y602234D02*
D03*
X1223010Y471170D02*
D03*
X769620Y948690D02*
D03*
X763270D02*
D03*
X895350Y943610D02*
D03*
X911242Y929025D02*
D03*
X900828Y930910D02*
D03*
X959876Y931936D02*
D03*
X1002157Y883920D02*
D03*
X990600Y848360D02*
D03*
X979297Y894757D02*
D03*
X527050Y641912D02*
D03*
X528800Y618642D02*
D03*
X643562Y839978D02*
D03*
X712343Y860181D02*
D03*
X732173Y857414D02*
D03*
X773142Y883285D02*
D03*
X755780Y844192D02*
D03*
X750951Y839191D02*
D03*
Y833857D02*
D03*
X777574Y891159D02*
D03*
X707568Y890680D02*
D03*
X762000Y353187D02*
D03*
X604440Y348107D02*
D03*
X700900Y340233D02*
D03*
X1517502Y377300D02*
D03*
X1432052Y377190D02*
D03*
X1491662Y377580D02*
D03*
X1517502Y390300D02*
D03*
Y404607D02*
D03*
X1556243Y519846D02*
D03*
X1554008Y525780D02*
D03*
X1441450Y412750D02*
D03*
X1517502Y416300D02*
D03*
X1485900Y425122D02*
D03*
X741553Y484619D02*
D03*
X759587Y776569D02*
D03*
X1242919Y666674D02*
D03*
X1013460Y775970D02*
D03*
X612178Y899198D02*
D03*
X615950Y902970D02*
D03*
X580421Y591881D02*
D03*
X676520Y565738D02*
D03*
X1402588Y737997D02*
D03*
X1544320Y638938D02*
D03*
X644017Y374778D02*
D03*
X614680Y363220D02*
D03*
X704850Y461902D02*
D03*
X665724Y492516D02*
D03*
X665480Y505460D02*
D03*
Y463423D02*
D03*
Y480060D02*
D03*
X730250Y461902D02*
D03*
X679450D02*
D03*
X617220Y393700D02*
D03*
X692150Y431298D02*
D03*
X629991Y397311D02*
D03*
X644319Y398493D02*
D03*
X979419Y723433D02*
D03*
X974391Y733251D02*
D03*
X1389380Y594360D02*
D03*
X1399540Y596900D02*
D03*
X927100Y736600D02*
D03*
X1417320Y601980D02*
D03*
X1409700Y607060D02*
D03*
X1290828Y631444D02*
D03*
X1464960Y555828D02*
D03*
X1489456Y540512D02*
D03*
X1478067Y510266D02*
D03*
X1448363Y687611D02*
D03*
X1423416Y672084D02*
D03*
X1440898Y671622D02*
D03*
X1340640Y691007D02*
D03*
X1403628Y709739D02*
D03*
X1394281Y650367D02*
D03*
X927100Y755650D02*
D03*
X936921Y732696D02*
D03*
X934720Y727837D02*
D03*
X781050Y304800D02*
D03*
X1422400Y412750D02*
D03*
X1002812Y777230D02*
D03*
X1003484Y782521D02*
D03*
X1004015Y772033D02*
D03*
X1004128Y744922D02*
D03*
X751920Y966343D02*
D03*
X934974Y746252D02*
D03*
X768096Y771398D02*
D03*
X1343249Y892461D02*
D03*
X668020Y869315D02*
D03*
X687937D02*
D03*
X628269Y511226D02*
D03*
X698500Y774700D02*
D03*
Y787400D02*
D03*
X711073Y908685D02*
D03*
X888000Y900000D02*
D03*
X559903Y348517D02*
D03*
X544322Y349250D02*
D03*
X719836Y971042D02*
D03*
X1132586Y536956D02*
D03*
X576635Y703072D02*
D03*
X1106982Y604068D02*
D03*
Y617068D02*
D03*
X1204468Y630428D02*
D03*
X1164982Y604068D02*
D03*
X1155192Y570992D02*
D03*
X1164982Y591068D02*
D03*
X1058672Y515874D02*
D03*
X1078230Y544068D02*
D03*
X1144166Y541679D02*
D03*
X1183132Y542036D02*
D03*
X1208786Y541782D02*
D03*
X1334628Y700786D02*
D03*
X1325800Y717142D02*
D03*
X1325880Y752782D02*
D03*
X1353947Y797560D02*
D03*
X1310640Y787400D02*
D03*
X1306868Y791172D02*
D03*
X1295320Y790004D02*
D03*
X1382680Y767461D02*
D03*
X1374267Y784860D02*
D03*
X1406525Y754016D02*
D03*
X1396520Y770738D02*
D03*
X1392490Y748496D02*
D03*
X1386680Y744840D02*
D03*
X1299972Y961644D02*
D03*
X1393063Y974238D02*
D03*
X1473120Y1037542D02*
D03*
X1311402Y987044D02*
D03*
X1355056Y985803D02*
D03*
X1405344Y995503D02*
D03*
X1549400Y975360D02*
D03*
X563372Y705612D02*
D03*
X625094Y496570D02*
D03*
X621157Y471795D02*
D03*
X632460Y492760D02*
D03*
Y477520D02*
D03*
Y502920D02*
D03*
X614055Y564505D02*
D03*
X614680Y551180D02*
D03*
X612140Y538480D02*
D03*
X601980Y483616D02*
D03*
X625094Y456184D02*
D03*
X580000Y416433D02*
D03*
X955575Y705340D02*
D03*
X959512Y698205D02*
D03*
X1414321Y649018D02*
D03*
X947166Y798830D02*
D03*
X1465219Y512379D02*
D03*
X1521221Y538983D02*
D03*
X1538097Y553466D02*
D03*
X1529334Y503174D02*
D03*
X1518430Y491742D02*
D03*
X1503680Y485521D02*
D03*
X1483366Y572744D02*
D03*
X1493440Y572818D02*
D03*
X1428647Y650216D02*
D03*
X1440898Y649018D02*
D03*
X1480900Y658495D02*
D03*
X1490900Y666369D02*
D03*
X935287Y755481D02*
D03*
X957019Y795084D02*
D03*
X783209Y789523D02*
D03*
X946932Y705812D02*
D03*
X980821Y699543D02*
D03*
X985520Y708533D02*
D03*
X779709Y764540D02*
D03*
X792000Y788000D02*
D03*
Y796000D02*
D03*
X1179040Y647204D02*
D03*
X1188240D02*
D03*
X1145032Y640842D02*
D03*
X1031802Y637032D02*
D03*
X1085088Y642112D02*
D03*
X1002492Y637032D02*
D03*
X1085088Y636778D02*
D03*
X1027465Y633221D02*
D03*
X824000Y812000D02*
D03*
Y804000D02*
D03*
X808000Y812000D02*
D03*
X808000Y804000D02*
D03*
X1023112Y546129D02*
D03*
Y551463D02*
D03*
X808000Y796000D02*
D03*
X800000D02*
D03*
X793105Y812608D02*
D03*
X800000Y812000D02*
D03*
Y820000D02*
D03*
X1057910Y592328D02*
D03*
X1044528Y560908D02*
D03*
X1094448Y533908D02*
D03*
X1492250Y649528D02*
D03*
X1480261Y645591D02*
D03*
X1466850Y646302D02*
D03*
X1492504Y623698D02*
D03*
X1479550D02*
D03*
X1502087Y596847D02*
D03*
X1534160Y605790D02*
D03*
X808000Y779780D02*
D03*
X1046480Y515188D02*
D03*
X1231900Y364490D02*
D03*
X711073Y928626D02*
D03*
X881380Y455802D02*
D03*
X872490Y440690D02*
D03*
X859790Y445770D02*
D03*
X698500Y742950D02*
D03*
X730250Y497902D02*
D03*
X1399833Y996652D02*
D03*
X1000367Y913099D02*
D03*
X1003427Y828294D02*
D03*
Y833735D02*
D03*
Y805687D02*
D03*
Y800353D02*
D03*
X1003301Y839068D02*
D03*
X1378774Y974708D02*
D03*
X580000Y438277D02*
D03*
X1016000Y937260D02*
D03*
X1007237Y937116D02*
D03*
X1003159Y925837D02*
D03*
X1003791Y920541D02*
D03*
X1003495Y931161D02*
D03*
X832000Y812000D02*
D03*
X840000D02*
D03*
X1531620Y855980D02*
D03*
X1488742Y815340D02*
D03*
X1483408D02*
D03*
X1487678Y879453D02*
D03*
X1502472Y816610D02*
D03*
X1497138D02*
D03*
X1300050Y984504D02*
D03*
X612140Y914019D02*
D03*
Y908685D02*
D03*
X1360170Y702310D02*
D03*
X1418732Y721739D02*
D03*
X1574502Y403300D02*
D03*
X478790Y816610D02*
D03*
X485140Y867410D02*
D03*
X1573140Y967058D02*
D03*
X1549400Y990600D02*
D03*
X1470000Y822500D02*
D03*
X1462500Y830000D02*
D03*
X1532890Y844550D02*
D03*
X1529080Y866140D02*
D03*
X1513840Y896620D02*
D03*
X669785Y397382D02*
D03*
X656497D02*
D03*
X657294Y375575D02*
D03*
X669785Y374778D02*
D03*
X621792Y445770D02*
D03*
X523113Y508735D02*
D03*
X526288Y458470D02*
D03*
Y433070D02*
D03*
X706040Y572818D02*
D03*
X632460Y464820D02*
D03*
X614680Y375920D02*
D03*
X627380Y431800D02*
D03*
X1124185Y908177D02*
D03*
X928851Y957142D02*
D03*
X932413Y949290D02*
D03*
X985520Y938403D02*
D03*
X1132050Y909967D02*
D03*
X1003300Y876300D02*
D03*
X958723Y901700D02*
D03*
X1132050Y921386D02*
D03*
X1003300Y894588D02*
D03*
Y899922D02*
D03*
X1008380Y963878D02*
D03*
X990881Y955013D02*
D03*
X1016000Y955040D02*
D03*
X1362607Y499298D02*
D03*
X1375307Y499298D02*
D03*
X1349907D02*
D03*
X1375307Y442798D02*
D03*
X1362607Y465902D02*
D03*
X1337207D02*
D03*
X664600Y743902D02*
D03*
X1520152Y563847D02*
D03*
X1486803Y892152D02*
D03*
X1397781Y717739D02*
D03*
X1424579Y713739D02*
D03*
X1349732Y737739D02*
D03*
X1355579Y729738D02*
D03*
X1349732Y721739D02*
D03*
X1355579Y713739D02*
D03*
X1374680Y696791D02*
D03*
X1366680Y702637D02*
D03*
X580000Y537303D02*
D03*
Y517302D02*
D03*
Y497302D02*
D03*
Y572302D02*
D03*
Y477302D02*
D03*
Y457302D02*
D03*
Y397302D02*
D03*
Y377302D02*
D03*
X710900Y319798D02*
D03*
X690900D02*
D03*
X717550Y431298D02*
D03*
X621792Y420370D02*
D03*
X545592Y445770D02*
D03*
Y420370D02*
D03*
X1611358Y398600D02*
D03*
X1633462Y388600D02*
D03*
X1611358Y378600D02*
D03*
X1472942Y933960D02*
D03*
X546750Y969848D02*
D03*
X546100Y988898D02*
D03*
X550700Y940782D02*
D03*
X1345473Y923618D02*
D03*
X1439498Y959730D02*
D03*
Y942731D02*
D03*
X1447880Y981662D02*
D03*
X1063355Y534925D02*
D03*
X1053592Y570990D02*
D03*
X1374250Y917238D02*
D03*
X1387250D02*
D03*
X1594002Y419580D02*
D03*
X1389380Y493702D02*
D03*
X1356360Y922641D02*
D03*
X1300960Y583645D02*
D03*
X1607114Y699898D02*
D03*
X1472635Y753067D02*
D03*
X1620520Y699898D02*
D03*
X1442640Y767527D02*
D03*
X1442560Y740950D02*
D03*
X679450Y949912D02*
D03*
X1066800Y625982D02*
D03*
X1188165Y608378D02*
D03*
X1178165D02*
D03*
X1188165Y621666D02*
D03*
X1195658Y526660D02*
D03*
X1574502Y377300D02*
D03*
X552450Y695912D02*
D03*
Y641912D02*
D03*
X1259212Y906383D02*
D03*
X1138378Y610569D02*
D03*
X1080378Y597569D02*
D03*
Y584569D02*
D03*
X1223870Y577947D02*
D03*
X1499542Y548640D02*
D03*
X629920Y374778D02*
D03*
X1485900Y585074D02*
D03*
X1558290Y661462D02*
D03*
X1466850Y623698D02*
D03*
X1544320Y661542D02*
D03*
Y859662D02*
D03*
X1497221Y512379D02*
D03*
X526939Y820565D02*
D03*
X550592Y831867D02*
D03*
X563880Y831722D02*
D03*
X1124590Y921386D02*
D03*
X993140Y934720D02*
D03*
X951230Y864743D02*
D03*
X952500Y877570D02*
D03*
X942340Y868680D02*
D03*
X952500Y886460D02*
D03*
X894080Y957580D02*
D03*
X901700Y952500D02*
D03*
X985520Y955040D02*
D03*
X1003300Y795020D02*
D03*
X651510Y925830D02*
D03*
X678180Y906780D02*
D03*
X953169Y798993D02*
D03*
X872000Y812000D02*
D03*
X949960Y905510D02*
D03*
X808000Y884000D02*
D03*
X800000Y836000D02*
D03*
Y876000D02*
D03*
X816000Y916000D02*
D03*
X840000Y884000D02*
D03*
Y908000D02*
D03*
X848000Y900000D02*
D03*
X856000Y908000D02*
D03*
X912000Y828000D02*
D03*
Y892000D02*
D03*
X920000D02*
D03*
X928000Y860000D02*
D03*
X800000Y908000D02*
D03*
X824000Y868000D02*
D03*
X832000Y876000D02*
D03*
X856000Y804000D02*
D03*
X856000Y876000D02*
D03*
X880000Y892000D02*
D03*
Y916000D02*
D03*
X896000Y908000D02*
D03*
X904000Y804000D02*
D03*
X920000Y876000D02*
D03*
X872000Y868000D02*
D03*
X848000D02*
D03*
X888000D02*
D03*
X832000D02*
D03*
X840000Y804000D02*
D03*
X816000Y812000D02*
D03*
X832000Y780000D02*
D03*
X856000Y772000D02*
D03*
X808000Y788000D02*
D03*
X824000Y828000D02*
D03*
X792306Y884000D02*
D03*
X808000Y820000D02*
D03*
X808000Y852000D02*
D03*
X824000Y900000D02*
D03*
X856000Y796000D02*
D03*
X888000Y812000D02*
D03*
X896000D02*
D03*
X904000Y788000D02*
D03*
X912000Y868000D02*
D03*
X920000Y852000D02*
D03*
X792000D02*
D03*
X800000Y788000D02*
D03*
X808000Y908000D02*
D03*
X816000Y852000D02*
D03*
X832000Y796000D02*
D03*
X856000Y884000D02*
D03*
Y892000D02*
D03*
X880000Y788000D02*
D03*
X920000Y788000D02*
D03*
Y884000D02*
D03*
X928000D02*
D03*
X808000Y860000D02*
D03*
X816000Y884000D02*
D03*
Y908000D02*
D03*
X832000Y892000D02*
D03*
X840000Y788000D02*
D03*
X848000Y804000D02*
D03*
X880000Y812000D02*
D03*
X888000Y916000D02*
D03*
X904000Y892000D02*
D03*
X936000Y892000D02*
D03*
X792000Y828000D02*
D03*
Y900000D02*
D03*
X808000Y836000D02*
D03*
X824000Y820000D02*
D03*
X856000Y860000D02*
D03*
X880000D02*
D03*
X888000Y852000D02*
D03*
X880000Y820000D02*
D03*
X888000Y828000D02*
D03*
X840000Y820000D02*
D03*
X896000Y836000D02*
D03*
X896000Y860000D02*
D03*
Y820000D02*
D03*
X856000Y819694D02*
D03*
X840000Y860000D02*
D03*
X832000Y852306D02*
D03*
Y828000D02*
D03*
X848000Y796000D02*
D03*
Y812000D02*
D03*
X904000Y780000D02*
D03*
X912000Y812000D02*
D03*
Y860000D02*
D03*
X920000Y836000D02*
D03*
X800000Y868000D02*
D03*
X808000Y892000D02*
D03*
X824000Y835694D02*
D03*
X832000Y884000D02*
D03*
Y916000D02*
D03*
X840000D02*
D03*
X848000Y884000D02*
D03*
X848000Y892000D02*
D03*
X880000Y796000D02*
D03*
X912000Y780000D02*
D03*
X920000Y812000D02*
D03*
X928000Y900000D02*
D03*
X800000Y900000D02*
D03*
X816000Y804000D02*
D03*
X896000Y900000D02*
D03*
X904000Y884000D02*
D03*
X912000Y804000D02*
D03*
X928000Y876000D02*
D03*
X872000Y884000D02*
D03*
X904000Y860000D02*
D03*
Y828000D02*
D03*
X896000Y876000D02*
D03*
X904000Y868000D02*
D03*
X872000Y796000D02*
D03*
X912000Y836000D02*
D03*
X904000Y812000D02*
D03*
X840000Y892000D02*
D03*
X920000Y868000D02*
D03*
X896000Y788000D02*
D03*
X880000Y908000D02*
D03*
X904000Y900000D02*
D03*
X816000D02*
D03*
X848000Y916000D02*
D03*
X928000Y804000D02*
D03*
Y892000D02*
D03*
X920000Y780000D02*
D03*
X936000Y916000D02*
D03*
X800000Y852000D02*
D03*
X792000Y908000D02*
D03*
X808000Y876000D02*
D03*
X800000Y916000D02*
D03*
X816000Y788000D02*
D03*
Y820000D02*
D03*
X824000Y852306D02*
D03*
Y892000D02*
D03*
X840000Y796000D02*
D03*
X872000Y804000D02*
D03*
X872000Y916000D02*
D03*
X880000Y804000D02*
D03*
X896000D02*
D03*
X904000Y908000D02*
D03*
X920000Y900000D02*
D03*
X792000Y892000D02*
D03*
X808000Y900000D02*
D03*
X816000Y868000D02*
D03*
X824000Y916000D02*
D03*
X872000Y892000D02*
D03*
X896000Y796000D02*
D03*
X904000Y852000D02*
D03*
X912000Y788000D02*
D03*
Y820000D02*
D03*
X928000Y908000D02*
D03*
Y916000D02*
D03*
X800000Y828000D02*
D03*
X824000Y788000D02*
D03*
X824000Y908000D02*
D03*
X832000Y788000D02*
D03*
X840000Y900000D02*
D03*
X856000Y788000D02*
D03*
X896000Y892000D02*
D03*
X923478Y926205D02*
D03*
X912000Y900000D02*
D03*
X928000Y868000D02*
D03*
X792000Y836000D02*
D03*
Y860000D02*
D03*
X800000D02*
D03*
X824000D02*
D03*
X872000Y780000D02*
D03*
X871998Y852002D02*
D03*
X880000Y876000D02*
D03*
X880000Y900000D02*
D03*
X888000Y876000D02*
D03*
X920000Y796000D02*
D03*
X920000Y804000D02*
D03*
X816000Y876000D02*
D03*
Y892000D02*
D03*
X832000Y804000D02*
D03*
X872000Y788000D02*
D03*
X880000Y884000D02*
D03*
X888000Y796000D02*
D03*
X896000Y884000D02*
D03*
X904000Y820000D02*
D03*
X912000Y908000D02*
D03*
X920000Y860000D02*
D03*
X936000Y884000D02*
D03*
X935694Y900000D02*
D03*
X792000Y876000D02*
D03*
X800000Y884000D02*
D03*
X848000Y908000D02*
D03*
X872000Y900000D02*
D03*
X888000Y884000D02*
D03*
X912000Y852000D02*
D03*
Y876000D02*
D03*
Y916000D02*
D03*
X920000Y828000D02*
D03*
X792000Y916000D02*
D03*
X816000Y796000D02*
D03*
Y836000D02*
D03*
X824000Y876000D02*
D03*
X832000Y900000D02*
D03*
X856000Y916000D02*
D03*
X872000Y876000D02*
D03*
Y908000D02*
D03*
X888000Y788000D02*
D03*
X920000Y916000D02*
D03*
X928000Y836000D02*
D03*
X936000Y852000D02*
D03*
X808000Y868000D02*
D03*
X816000Y828000D02*
D03*
X840000Y876000D02*
D03*
X904000Y796000D02*
D03*
Y836000D02*
D03*
X904000Y916000D02*
D03*
X912000Y772000D02*
D03*
X920000D02*
D03*
X936000Y860000D02*
D03*
X935694Y820000D02*
D03*
Y812000D02*
D03*
Y836000D02*
D03*
X936000Y772000D02*
D03*
Y780000D02*
D03*
X928000Y772000D02*
D03*
Y780000D02*
D03*
X936000Y796000D02*
D03*
X928000Y788000D02*
D03*
X936000Y804000D02*
D03*
X928000Y796000D02*
D03*
Y812000D02*
D03*
X928000Y828000D02*
D03*
D134*
X666740Y656580D02*
D03*
X655740D02*
D03*
Y645580D02*
D03*
X666740Y634580D02*
D03*
Y645580D02*
D03*
X644740Y634580D02*
D03*
X655740D02*
D03*
X666740Y623580D02*
D03*
X655740D02*
D03*
X644740Y645580D02*
D03*
Y656580D02*
D03*
X633740Y623580D02*
D03*
Y634580D02*
D03*
Y656580D02*
D03*
Y645580D02*
D03*
X644740Y623580D02*
D03*
M02*
